<?xml version="1.0" standalone="no"?>
<!DOCTYPE svg PUBLIC "-//W3C//DTD SVG 20010904//EN"
 "http://www.w3.org/TR/2001/REC-SVG-20010904/DTD/svg10.dtd">
<svg version="1.0" xmlns="http://www.w3.org/2000/svg"
 width="1466.000000pt" height="955.000000pt" viewBox="0 0 1466.000000 955.000000"
 preserveAspectRatio="xMidYMid meet">
<metadata>
Created by potrace 1.16, written by Peter Selinger 2001-2019
</metadata>
<g transform="translate(0.000000,955.000000) scale(0.100000,-0.100000)"
fill="#000000" stroke="none">
<path d="M11833 9525 c-34 -21 -56 -49 -114 -148 -40 -67 -84 -154 -98 -194
l-26 -72 -80 -44 c-45 -24 -180 -80 -300 -125 -288 -105 -300 -111 -369 -171
-32 -29 -92 -75 -134 -103 -135 -91 -212 -120 -542 -203 -167 -42 -311 -80
-319 -84 -9 -6 3 -12 38 -21 28 -6 51 -16 51 -20 0 -11 -164 -115 -305 -193
-66 -36 -165 -100 -220 -142 -108 -82 -283 -174 -380 -200 -97 -26 -348 -31
-602 -10 l-218 17 -126 -26 c-69 -14 -159 -37 -200 -51 -40 -15 -138 -48 -215
-75 -78 -26 -179 -65 -225 -85 l-83 -38 -265 9 c-359 12 -851 11 -1286 -3
l-360 -11 -220 -46 c-325 -68 -1062 -213 -1120 -221 -323 -41 -592 -116 -1150
-322 -179 -66 -208 -81 -377 -184 -154 -95 -134 -87 -370 -154 -167 -49 -198
-61 -300 -121 -125 -75 -288 -181 -330 -216 -32 -27 -301 -510 -399 -717 l-69
-143 26 -20 c22 -18 25 -25 19 -62 -4 -22 -36 -108 -71 -191 -82 -194 -94
-244 -94 -380 0 -109 -1 -112 -61 -285 -33 -96 -73 -214 -89 -261 -33 -99
-122 -524 -150 -716 -38 -255 -88 -452 -172 -673 -32 -83 -38 -112 -34 -145 4
-24 0 -60 -8 -90 -8 -27 -20 -81 -27 -120 -9 -59 -27 -99 -114 -255 -251 -452
-290 -540 -300 -676 -7 -80 -5 -93 10 -101 15 -9 15 -18 -10 -124 -27 -119
-54 -423 -42 -471 4 -15 18 -39 31 -55 24 -28 29 -29 113 -31 121 -3 282 39
416 108 87 45 116 53 87 24 -7 -7 -3 -17 13 -32 l23 -21 71 69 c67 65 116 98
173 115 31 10 287 185 317 217 67 72 240 308 346 472 l122 190 3 -112 c2 -82
-5 -170 -28 -334 -35 -255 -75 -764 -66 -854 7 -80 42 -172 81 -211 18 -18 50
-36 76 -42 85 -21 91 -25 103 -61 25 -78 152 -104 473 -98 l208 3 70 35 c67
33 75 35 165 33 90 -2 96 0 105 20 6 13 22 24 40 27 65 11 72 111 15 196 -62
92 -231 304 -253 319 -36 23 -161 45 -260 45 l-92 0 -43 41 -44 40 7 62 c12
108 65 499 76 560 5 32 25 93 44 135 18 43 39 96 46 120 7 24 24 52 38 64 l26
20 52 -59 c44 -48 57 -73 79 -143 40 -131 89 -219 188 -341 50 -61 101 -123
112 -138 12 -14 65 -123 117 -241 146 -330 165 -367 216 -413 110 -102 111
-103 111 -170 0 -97 12 -125 87 -199 77 -76 120 -98 193 -98 34 0 60 -6 78
-19 34 -25 160 -49 299 -56 59 -3 132 -11 161 -17 59 -13 257 4 301 25 14 7
38 31 54 55 l28 42 33 -25 c27 -20 44 -25 92 -25 57 0 61 2 112 50 39 36 62
50 83 50 19 0 34 8 45 25 15 23 15 29 -2 82 -21 66 -52 103 -88 103 -32 0
-125 71 -217 165 -100 103 -125 115 -241 116 -175 1 -156 -10 -343 194 -92 99
-205 225 -252 280 -84 99 -85 101 -129 235 -42 127 -104 400 -104 456 0 14 7
56 16 94 15 68 25 83 292 442 253 341 495 689 601 861 47 77 134 279 150 347
6 25 15 71 22 103 l11 59 76 35 76 34 155 -11 c176 -13 393 -45 431 -65 39
-20 263 -79 577 -151 158 -36 377 -87 486 -115 195 -48 204 -49 351 -49 106 0
173 -5 226 -17 156 -35 518 -13 769 48 68 16 126 27 129 25 6 -7 50 -718 61
-1006 7 -167 16 -275 26 -313 20 -78 68 -170 115 -220 43 -48 66 -114 75 -222
24 -300 56 -654 61 -673 2 -13 21 -48 40 -77 35 -53 61 -70 135 -94 45 -14 51
-22 124 -141 31 -52 78 -116 103 -142 48 -50 51 -61 80 -297 10 -76 27 -86
192 -111 123 -19 146 -26 260 -80 113 -53 133 -60 210 -65 71 -6 102 -2 192
19 l108 26 45 -22 45 -22 23 22 c18 17 35 22 79 22 58 0 87 16 157 86 20 20
32 25 58 21 37 -6 79 20 93 59 8 19 17 24 45 24 45 0 63 32 49 86 -7 30 -37
61 -158 168 -83 72 -170 157 -195 188 -74 93 -91 102 -193 106 -55 3 -115 -2
-161 -12 -39 -8 -100 -17 -135 -18 -62 -3 -62 -2 -105 42 -125 129 -189 467
-191 1010 -1 252 30 1035 55 1390 9 132 15 163 71 350 33 113 67 213 76 223 9
10 107 63 218 117 152 74 255 134 420 243 121 80 245 168 277 196 32 28 216
178 410 333 462 369 462 369 523 464 33 52 80 106 130 150 43 38 102 91 130
117 l53 49 3 -38 3 -37 112 102 c85 77 141 140 226 254 160 214 216 297 283
417 l58 105 10 -42 c6 -23 14 -44 17 -48 4 -3 42 54 85 127 l78 132 19 124
c10 68 26 153 35 189 16 61 20 68 73 105 l56 39 129 7 c81 5 279 1 534 -10
515 -21 630 -22 703 -3 124 32 227 105 227 161 0 13 6 24 13 24 7 0 46 20 88
44 61 36 80 53 102 94 18 34 37 54 59 63 50 20 135 106 174 175 38 68 41 91
18 140 -19 40 -100 82 -217 113 -54 15 -107 42 -209 106 -132 82 -443 257
-586 329 -101 51 -180 122 -281 255 -50 66 -109 135 -131 153 -52 45 -217 134
-355 193 -60 25 -166 76 -235 113 l-125 67 -7 110 c-8 121 -18 154 -88 295
-58 116 -134 196 -177 185 -42 -10 -72 -35 -115 -97 -23 -32 -45 -55 -48 -51
-4 4 -15 32 -25 62 -21 66 -49 96 -101 110 -55 15 -64 14 -111 -14z m-9519
-5855 c51 -179 57 -208 66 -354 11 -150 10 -162 -10 -229 -28 -92 -107 -249
-157 -312 -22 -28 -81 -85 -131 -128 -72 -61 -92 -74 -92 -59 0 11 16 78 35
148 35 127 158 621 189 759 9 39 16 99 16 135 0 110 13 263 21 248 4 -7 32
-101 63 -208z"/>
</g>
</svg>
