<?xml version="1.0" standalone="no"?>
<!DOCTYPE svg PUBLIC "-//W3C//DTD SVG 20010904//EN"
 "http://www.w3.org/TR/2001/REC-SVG-20010904/DTD/svg10.dtd">
<svg version="1.0" xmlns="http://www.w3.org/2000/svg"
 width="910.000000pt" height="1536.000000pt" viewBox="0 0 910.000000 1536.000000"
 preserveAspectRatio="xMidYMid meet">
<metadata>
Created by potrace 1.16, written by Peter Selinger 2001-2019
</metadata>
<g transform="translate(0.000000,1536.000000) scale(0.100000,-0.100000)"
fill="#000000" stroke="none">
<path d="M524 15322 c-7 -4 -15 -47 -19 -97 -17 -222 -67 -423 -195 -795 -181
-521 -244 -870 -266 -1468 -6 -163 -9 -185 -26 -195 -17 -11 -18 -36 -18 -472
0 -356 4 -480 15 -549 15 -91 27 -245 45 -566 10 -191 64 -633 105 -855 74
-409 239 -926 409 -1283 42 -86 98 -220 126 -297 86 -236 127 -311 292 -537
47 -64 117 -170 156 -235 90 -152 125 -196 302 -378 80 -82 160 -170 177 -195
106 -156 137 -302 153 -720 17 -447 36 -600 96 -793 49 -155 206 -572 301
-802 187 -449 203 -521 243 -1085 29 -401 34 -441 149 -1095 75 -426 93 -691
72 -1085 -22 -419 -57 -587 -157 -758 -23 -39 -26 -55 -27 -165 -2 -116 -4
-128 -45 -244 -45 -127 -56 -208 -30 -224 23 -15 81 -29 143 -35 127 -12 324
60 424 155 l49 46 7 89 c4 49 5 172 1 275 -23 686 -23 678 40 1006 68 349 75
471 53 900 -18 338 -8 417 92 690 30 82 33 99 32 200 0 79 -9 154 -31 265 -17
85 -34 175 -39 200 -4 25 -8 241 -8 480 l0 435 -38 215 c-51 284 -59 457 -28
580 23 91 66 171 119 223 l33 32 66 -35 c96 -51 155 -111 198 -202 48 -102 54
-146 25 -192 -22 -36 -22 -36 -5 -144 28 -186 71 -352 114 -445 79 -171 84
-217 50 -457 -26 -189 -37 -767 -20 -1081 25 -455 58 -678 132 -889 80 -228
96 -288 108 -400 22 -220 35 -496 35 -780 0 -327 2 -312 -80 -565 l-39 -120 0
-357 0 -356 37 -11 c48 -15 89 -50 125 -106 l28 -45 79 0 c77 0 80 1 132 41
142 109 237 320 251 554 6 110 -3 157 -73 390 -48 162 -52 251 -25 572 19 212
22 308 19 610 l-3 358 29 55 c15 30 37 71 47 90 10 20 25 83 33 140 8 58 24
158 35 223 38 215 44 369 35 822 -9 408 -10 700 -6 1550 1 226 0 432 -1 459
l-2 50 72 22 c153 47 395 73 668 74 88 0 251 5 361 10 190 9 209 12 325 47
l124 38 225 0 225 1 95 37 c187 74 229 87 286 87 l56 0 80 -77 c103 -101 232
-264 474 -598 260 -360 273 -388 364 -748 104 -417 114 -512 141 -1337 14
-421 7 -973 -15 -1165 -8 -71 -26 -245 -41 -385 -28 -273 -44 -368 -71 -426
-9 -19 -50 -71 -90 -115 -81 -89 -113 -147 -143 -265 -28 -109 -89 -275 -109
-298 -9 -10 -38 -29 -63 -41 -62 -32 -73 -47 -66 -97 8 -58 36 -83 95 -83 54
0 107 25 192 89 30 23 60 45 67 49 7 5 18 -14 32 -56 14 -42 34 -75 57 -98 32
-31 40 -34 111 -37 l76 -4 78 82 c201 212 329 459 375 723 24 137 14 399 -26
692 -35 259 -49 535 -32 627 6 32 36 124 67 204 67 179 125 379 204 712 84
348 94 414 88 547 -4 83 -14 142 -41 240 -51 184 -66 285 -73 485 -9 255 22
584 81 875 19 93 29 122 58 162 20 26 38 57 41 68 13 45 38 246 62 505 37 396
65 570 116 719 17 49 19 91 19 464 0 451 -2 467 -64 603 -44 95 -117 200 -213
309 -97 109 -531 527 -608 586 -31 24 -92 55 -143 73 -66 24 -127 59 -257 148
-252 171 -268 178 -549 228 -225 41 -299 60 -493 130 -215 78 -251 87 -460
110 -300 33 -309 36 -364 87 -46 42 -53 46 -164 68 -64 13 -180 29 -257 36
-186 16 -589 6 -868 -20 -118 -11 -314 -28 -435 -36 -495 -34 -580 -49 -835
-138 -472 -165 -755 -188 -1016 -83 -109 44 -184 95 -275 186 -96 96 -160 181
-189 250 -13 30 -87 141 -166 245 -165 220 -233 327 -285 445 -88 198 -113
352 -130 805 -20 523 -8 758 72 1340 22 160 48 375 59 479 11 104 21 190 23
192 1 2 57 11 122 21 106 16 200 18 792 18 369 0 673 2 675 5 21 25 122 273
139 337 l20 82 -35 36 c-49 48 -59 95 -46 198 8 56 8 91 1 109 -15 41 -70 76
-147 93 -91 21 -105 26 -264 105 -148 74 -286 152 -425 240 -129 82 -158 95
-312 141 -76 23 -203 67 -283 99 -192 76 -289 106 -390 120 -130 18 -256 -2
-385 -60 -86 -39 -124 -33 -214 28 -92 64 -171 88 -207 64z"/>
</g>
</svg>
