<?xml version="1.0" standalone="no"?>
<!DOCTYPE svg PUBLIC "-//W3C//DTD SVG 20010904//EN"
 "http://www.w3.org/TR/2001/REC-SVG-20010904/DTD/svg10.dtd">
<svg version="1.0" xmlns="http://www.w3.org/2000/svg"
 width="3309.000000pt" height="1118.000000pt" viewBox="0 0 3309.000000 1118.000000"
 preserveAspectRatio="xMidYMid meet">
<metadata>
Created by potrace 1.16, written by Peter Selinger 2001-2019
</metadata>
<g transform="translate(0.000000,1118.000000) scale(0.100000,-0.100000)"
fill="#000000" stroke="none">
<path d="M4203 11137 c-2 -4 -8 -5 -13 -2 -5 3 -12 1 -15 -5 -6 -10 -35 -9
-193 6 -63 6 -152 -15 -152 -37 0 -4 -12 -6 -27 -4 -120 20 -177 10 -222 -38
-13 -15 -28 -24 -33 -21 -6 4 -33 -5 -61 -19 -29 -14 -74 -35 -102 -47 -98
-43 -177 -85 -182 -97 -7 -18 -82 -50 -134 -57 -38 -6 -55 -16 -115 -74 -38
-37 -95 -86 -126 -110 -31 -24 -58 -49 -61 -56 -3 -7 -23 -18 -46 -24 -40 -12
-91 -64 -91 -92 0 -7 -8 -10 -20 -7 -11 3 -22 1 -25 -4 -3 -4 -18 -8 -33 -8
-55 1 -158 -14 -191 -27 -46 -19 -48 -18 -56 16 -4 17 -11 30 -16 30 -6 0 -8
4 -5 9 3 5 -1 31 -9 58 l-15 49 -62 14 c-107 23 -197 16 -250 -22 -16 -11 -28
-16 -28 -11 0 4 -6 1 -13 -8 -7 -9 -22 -21 -34 -28 -13 -6 -23 -18 -23 -26 0
-8 -4 -15 -10 -15 -5 0 -10 -6 -10 -13 0 -19 -59 -87 -76 -87 -8 0 -14 -4 -14
-9 0 -5 -17 -20 -37 -32 -21 -13 -45 -31 -55 -41 -10 -10 -25 -19 -33 -19 -51
-5 -125 -52 -125 -81 0 -10 -5 -18 -11 -18 -6 0 -17 -7 -25 -15 -13 -12 -55
-20 -85 -17 -4 1 -15 -11 -25 -25 -31 -43 -74 -83 -89 -83 -8 0 -15 -5 -15
-11 0 -6 -6 -9 -14 -6 -7 3 -19 0 -25 -6 -6 -6 -11 -8 -11 -4 0 3 -18 0 -39
-8 -22 -7 -42 -11 -45 -8 -3 3 -8 -2 -12 -11 -3 -9 -10 -14 -14 -11 -4 2 -19
-6 -33 -19 -14 -13 -36 -26 -49 -29 -14 -4 -36 -17 -49 -29 -35 -32 -76 -58
-93 -58 -7 0 -16 -7 -20 -15 -3 -9 -18 -15 -39 -15 -21 0 -41 -8 -52 -20 -10
-11 -23 -20 -29 -20 -6 0 -25 -16 -41 -35 -17 -19 -34 -35 -38 -35 -9 0 -76
-48 -92 -66 -5 -6 -25 -21 -42 -33 -18 -12 -33 -27 -33 -34 0 -11 -69 -76 -82
-77 -11 0 -175 -168 -221 -225 -40 -50 -97 -160 -97 -188 0 -7 -6 -27 -14 -43
-20 -40 -30 -122 -30 -234 0 -113 6 -183 17 -191 4 -3 15 -31 23 -61 8 -31 21
-69 29 -84 8 -16 15 -35 15 -42 0 -7 9 -31 20 -52 15 -30 26 -40 45 -40 15 0
26 -7 30 -19 3 -11 23 -37 43 -59 20 -22 54 -63 75 -91 21 -28 42 -49 48 -45
6 3 13 -3 16 -15 12 -48 139 -83 214 -60 19 6 50 12 69 14 19 1 46 7 60 13 14
5 39 16 55 23 17 6 35 13 40 14 6 0 17 4 25 7 8 4 38 14 65 24 28 9 54 21 59
26 6 4 19 8 31 8 11 0 31 7 43 16 23 16 84 35 190 59 35 8 78 21 95 30 18 9
55 18 82 21 28 3 62 9 76 15 14 6 30 9 35 7 5 -1 18 3 29 9 18 10 36 12 93 14
9 0 37 5 62 10 25 5 65 12 90 15 25 3 59 7 75 9 40 6 165 6 174 1 4 -3 54 -8
111 -11 58 -4 111 -10 120 -15 8 -4 29 -9 45 -11 17 -2 35 -6 40 -10 6 -3 33
-12 60 -19 28 -8 52 -17 55 -20 7 -10 152 -77 170 -79 8 -1 29 -3 46 -5 17 -1
36 -6 42 -10 11 -7 232 0 287 9 17 3 50 6 75 8 25 1 48 6 52 12 5 6 8 5 8 -4
0 -10 3 -11 14 -2 9 8 16 8 20 2 4 -6 18 -6 36 -1 26 7 40 5 110 -15 3 -1 18
-7 33 -13 16 -7 34 -12 42 -12 8 0 17 -4 20 -10 3 -5 19 -10 35 -10 16 0 31
-4 34 -8 2 -4 19 -9 37 -10 18 -1 39 -7 46 -13 7 -6 19 -9 27 -6 8 3 17 3 21
-1 4 -4 10 -7 13 -8 4 0 14 -3 22 -7 21 -9 100 -28 135 -34 17 -3 32 -8 35
-12 7 -10 72 -8 88 2 6 5 17 5 23 1 6 -3 15 -1 19 6 4 7 19 13 34 13 14 0 26
3 26 7 0 13 183 1 245 -17 17 -5 66 -8 110 -7 44 2 105 4 135 5 91 3 109 0
129 -20 10 -10 31 -21 46 -25 15 -4 40 -19 55 -34 62 -62 254 -228 270 -234 9
-3 20 -13 23 -22 4 -9 15 -16 26 -16 10 0 21 -7 24 -14 3 -8 21 -23 39 -32 18
-9 38 -23 43 -29 6 -7 42 -33 80 -58 39 -25 84 -57 101 -71 18 -14 36 -26 42
-26 5 0 15 -7 22 -15 7 -8 21 -15 31 -15 11 0 19 -4 19 -10 0 -5 7 -10 15 -10
8 0 15 -4 15 -9 0 -5 8 -12 18 -15 9 -3 40 -20 67 -36 28 -17 57 -33 65 -36 8
-3 22 -10 30 -15 47 -29 110 -58 110 -52 0 5 4 4 8 -2 10 -14 109 -65 126 -65
7 0 19 -7 26 -15 7 -8 22 -15 35 -15 12 0 30 -9 39 -19 10 -11 25 -19 34 -19
10 0 46 -16 82 -35 36 -20 81 -44 100 -54 19 -10 37 -21 38 -25 2 -5 9 -8 16
-8 6 0 26 -13 44 -30 18 -16 35 -30 36 -30 13 0 233 -238 259 -281 11 -16 23
-29 27 -29 5 0 11 -8 14 -17 4 -10 30 -43 59 -75 28 -31 91 -99 140 -151 52
-57 106 -105 133 -119 25 -13 59 -30 76 -39 17 -8 35 -23 40 -32 5 -9 15 -17
23 -17 7 0 20 -6 27 -12 12 -12 34 -23 113 -59 17 -7 38 -20 48 -28 9 -8 17
-10 17 -6 0 4 8 2 18 -6 27 -23 98 -59 116 -59 8 0 30 -9 48 -20 18 -11 41
-20 51 -20 9 0 17 -4 17 -10 0 -5 7 -10 15 -10 8 0 23 -4 33 -9 41 -21 69 -32
85 -35 9 -1 20 -5 23 -9 4 -4 16 -7 26 -7 10 0 18 -4 18 -9 0 -5 20 -14 44
-20 25 -6 48 -15 51 -21 3 -5 12 -10 20 -10 8 0 26 -5 42 -12 15 -6 32 -10 37
-9 5 1 16 -5 25 -13 9 -8 35 -19 59 -25 28 -8 42 -17 43 -29 1 -22 15 -105 28
-162 16 -71 50 -248 61 -320 21 -143 38 -406 28 -452 -3 -18 -9 -46 -11 -63
-3 -16 -10 -53 -16 -80 -5 -28 -8 -73 -5 -100 4 -48 -9 -120 -24 -127 -4 -2
-20 -30 -36 -63 -34 -73 -40 -84 -53 -110 -19 -38 -43 -123 -43 -153 0 -17 -5
-34 -10 -37 -22 -14 -77 -113 -94 -170 -10 -33 -22 -71 -27 -85 -4 -14 -11
-45 -14 -70 -3 -25 -9 -61 -14 -80 -23 -97 12 -366 52 -406 4 -4 7 -15 7 -25
0 -19 113 -139 131 -139 6 0 23 -8 37 -19 15 -10 39 -20 54 -23 23 -4 26 -2
25 19 -1 13 -7 27 -13 31 -12 8 -34 55 -63 132 -18 47 -20 73 -17 175 4 136 6
147 35 199 12 20 23 51 25 69 2 17 8 33 15 35 6 2 11 12 11 22 0 10 7 21 16
24 9 4 14 13 10 21 -3 9 0 15 9 15 8 0 15 7 15 15 0 8 3 16 8 16 4 1 19 3 34
5 34 4 89 35 82 46 -3 4 2 8 11 8 9 0 14 4 10 10 -3 5 8 16 25 25 21 11 30 22
26 31 -3 8 1 17 9 20 8 4 15 13 15 21 0 8 7 27 15 42 8 17 16 65 18 119 1 50
6 94 9 98 4 3 7 -2 6 -12 0 -11 14 -58 31 -106 17 -49 31 -108 31 -132 0 -42
35 -145 53 -157 6 -4 13 -38 16 -75 6 -64 34 -134 54 -134 12 0 43 -80 57
-146 7 -32 16 -66 21 -75 4 -9 10 -29 13 -45 11 -60 91 -290 113 -326 13 -21
23 -41 23 -45 0 -15 39 -33 46 -22 4 6 1 15 -6 19 -8 5 -9 9 -1 11 6 2 8 14 5
26 -4 13 -10 20 -15 17 -13 -7 -11 10 2 23 7 7 7 22 0 50 -6 21 -13 57 -16 78
-3 22 -7 56 -10 75 -3 19 -8 59 -10 88 -3 29 -12 66 -21 83 -8 17 -11 28 -5
25 12 -8 3 93 -11 111 -6 7 0 21 17 38 14 16 25 37 25 47 0 11 4 16 11 12 8
-4 9 3 4 27 -7 30 2 23 91 -70 55 -56 106 -103 114 -104 8 -2 26 -10 40 -19
14 -9 37 -20 53 -23 15 -4 30 -11 33 -16 8 -13 44 -11 44 2 0 7 9 9 21 6 20
-5 49 12 49 29 0 18 -182 308 -200 319 -6 4 -10 15 -10 26 0 10 -4 19 -10 19
-5 0 -10 7 -10 15 0 8 -4 15 -10 15 -5 0 -7 6 -4 13 8 21 -14 103 -45 171 -39
83 -36 166 7 166 20 0 43 119 43 232 1 117 18 228 34 230 6 0 39 -57 75 -128
73 -144 135 -244 150 -244 6 0 31 -44 56 -97 64 -135 108 -172 216 -182 4 -1
17 -23 29 -51 12 -27 25 -50 30 -50 5 0 9 -4 9 -9 0 -5 18 -35 40 -67 23 -33
48 -70 57 -84 64 -95 199 -240 225 -240 22 0 23 19 3 68 -14 33 -72 130 -85
142 -11 11 -30 51 -30 64 0 8 -8 20 -17 25 -10 6 -15 11 -11 11 4 0 -10 29
-32 65 -22 36 -40 69 -40 73 0 4 -9 15 -20 25 -11 9 -20 25 -20 36 0 10 -6 23
-13 29 -18 15 -15 91 3 103 13 8 13 10 0 19 -13 9 -13 10 0 10 9 0 11 3 5 8
-5 4 -11 21 -13 37 -1 17 -12 38 -23 47 -11 9 -19 20 -18 25 3 20 -3 33 -30
62 -16 17 -26 31 -21 31 11 0 69 -27 109 -51 19 -11 46 -19 60 -18 24 3 37 -3
96 -39 11 -7 29 -16 40 -21 12 -5 27 -16 34 -25 7 -9 20 -16 27 -16 8 0 14 -4
14 -9 0 -5 8 -11 18 -14 9 -3 31 -13 47 -23 17 -9 37 -21 45 -26 52 -29 116
-55 126 -51 18 7 5 41 -25 63 -14 11 -31 23 -36 27 -9 7 -141 114 -186 152 -9
7 -28 24 -42 36 -14 13 -28 20 -31 17 -3 -3 -6 0 -6 6 0 7 -7 12 -15 12 -8 0
-22 16 -31 35 -9 20 -31 52 -49 73 -229 260 -263 302 -306 372 -18 30 -35 57
-39 60 -3 3 -19 25 -35 50 -17 24 -37 53 -45 63 -8 10 -15 21 -15 25 -1 4 -11
22 -22 41 -28 45 -21 55 23 31 19 -11 38 -19 42 -18 4 1 18 -4 30 -11 13 -7
26 -10 29 -7 3 3 12 -2 20 -10 8 -8 19 -12 24 -9 5 4 9 2 9 -3 0 -9 41 -25 67
-27 7 0 18 -6 25 -13 6 -6 18 -12 25 -12 8 0 43 -16 79 -35 35 -19 71 -35 80
-35 8 0 41 -12 72 -26 31 -14 66 -28 77 -30 11 -2 21 -8 23 -14 2 -5 12 -10
22 -10 10 0 31 -7 47 -15 54 -28 128 -59 137 -56 5 1 12 -2 15 -6 10 -14 62
-34 72 -28 5 4 9 2 9 -3 0 -6 12 -13 28 -17 15 -3 41 -12 57 -19 107 -46 200
-79 228 -82 18 -2 48 -7 67 -10 19 -4 37 -8 40 -8 3 -1 11 -5 18 -10 7 -4 16
-5 19 -2 3 3 12 1 20 -5 16 -14 106 -21 113 -9 3 5 23 -14 45 -41 22 -28 56
-67 76 -87 69 -69 183 -177 189 -177 3 0 29 -24 58 -53 29 -28 58 -52 65 -52
8 0 24 -11 37 -25 13 -14 29 -25 36 -25 7 0 14 -4 16 -9 4 -11 101 -90 143
-116 29 -18 104 -72 130 -93 6 -5 24 -17 40 -27 17 -11 39 -27 50 -37 55 -49
81 -68 92 -68 7 0 17 -9 23 -20 6 -11 15 -20 21 -20 11 0 17 -5 69 -52 19 -17
69 -60 111 -94 99 -83 210 -212 282 -331 81 -131 88 -157 88 -288 -1 -144 -2
-148 -50 -243 -34 -67 -40 -89 -38 -129 2 -38 -1 -51 -18 -65 -11 -10 -25 -17
-30 -18 -6 0 -19 -11 -29 -25 -10 -14 -24 -25 -31 -25 -7 0 -18 -7 -25 -15 -7
-8 -19 -15 -26 -15 -8 0 -32 -11 -53 -25 -22 -13 -60 -30 -85 -36 -25 -6 -46
-15 -46 -20 0 -5 -9 -9 -21 -9 -11 0 -30 -5 -41 -11 -11 -6 -30 -13 -42 -14
-11 -2 -39 -9 -61 -15 -46 -12 -45 -12 -180 -40 -55 -11 -111 -22 -125 -24
-137 -20 -139 -20 -173 -34 -16 -7 -38 -12 -50 -12 -22 0 -51 -22 -97 -76 -41
-47 -50 -78 -43 -143 5 -56 4 -62 -26 -98 -17 -20 -31 -41 -31 -46 0 -27 -263
-307 -289 -307 -6 0 -11 -6 -11 -12 0 -11 -22 -29 -88 -73 -8 -5 -23 -17 -32
-25 -9 -8 -28 -24 -44 -35 -15 -11 -37 -28 -48 -38 -12 -9 -24 -17 -28 -17 -4
0 -18 -9 -31 -20 -37 -31 -44 -35 -59 -38 -8 -2 -22 -9 -30 -16 -8 -7 -39 -26
-67 -41 -29 -16 -53 -32 -53 -37 0 -4 -6 -8 -14 -8 -16 0 -138 -50 -146 -60
-3 -3 -25 -20 -50 -38 -25 -18 -63 -53 -85 -79 -22 -26 -51 -59 -65 -74 -29
-31 -48 -58 -55 -79 -3 -8 -16 -36 -30 -61 -29 -57 -60 -197 -51 -232 8 -34
34 -48 66 -34 14 5 36 12 50 14 33 6 60 30 77 70 7 18 19 33 26 33 7 0 24 13
37 30 14 16 33 29 43 30 9 0 17 7 17 15 0 24 46 18 75 -9 27 -25 85 -51 85
-38 0 4 34 8 76 9 53 2 82 7 94 18 10 9 21 15 26 14 22 -6 74 14 90 36 10 14
23 21 32 17 9 -3 13 -1 9 5 -7 11 20 28 36 24 5 -1 6 3 3 8 -6 9 43 47 57 43
4 -1 7 2 7 6 0 5 9 18 21 31 11 12 18 28 15 36 -7 19 15 34 38 26 29 -11 135
7 154 25 21 21 27 4 14 -35 -14 -39 -8 -257 8 -308 10 -34 18 -43 35 -43 35 0
125 70 132 103 7 36 18 42 83 43 63 2 140 20 140 34 0 6 6 10 14 10 8 0 16 7
20 15 3 8 10 15 16 15 17 0 71 53 81 79 5 13 12 21 16 18 12 -12 43 43 49 87
6 39 11 46 36 55 17 6 33 9 37 7 3 -2 12 2 19 10 7 8 10 14 7 14 -4 0 17 24
47 54 59 60 98 110 102 129 2 6 8 24 14 40 6 15 11 42 10 60 -1 56 1 62 33 74
17 7 28 16 25 21 -3 5 3 17 13 26 20 18 118 19 125 0 3 -7 22 -8 58 -4 29 4
55 6 57 4 2 -2 10 4 18 12 9 8 22 13 29 10 20 -8 17 18 -4 37 -12 11 -40 18
-75 19 -33 2 -55 7 -53 13 2 6 -4 19 -14 30 -20 23 -36 95 -32 142 2 25 10 34
33 42 16 5 29 15 29 20 0 6 11 11 25 11 14 0 25 5 25 11 0 5 4 8 9 5 5 -3 11
0 14 8 3 7 23 17 44 20 21 4 48 14 61 22 13 9 33 17 45 19 11 3 23 8 26 13 3
5 13 9 21 9 29 0 105 25 138 45 17 11 32 16 32 12 0 -4 11 3 24 15 16 15 49
27 102 36 44 8 88 17 99 20 72 19 152 34 163 30 6 -2 12 -1 12 4 0 4 24 8 53
8 112 1 127 3 147 23 11 11 24 20 28 20 5 0 15 11 22 25 7 14 17 25 22 25 4 0
8 7 8 15 0 8 4 15 9 15 5 0 13 10 17 22 8 26 34 55 34 38 0 -6 5 -8 10 -5 6 3
10 15 10 25 0 13 5 17 15 14 9 -4 16 3 20 19 4 14 14 28 22 31 8 4 13 13 10
21 -3 7 5 24 18 37 15 14 25 34 25 53 0 17 5 47 11 68 7 27 7 42 0 51 -6 7 -8
16 -4 19 3 4 -1 9 -9 12 -17 7 -16 32 3 124 19 91 -2 142 -73 175 -24 11 -42
30 -53 54 -23 50 -97 162 -107 162 -4 0 -8 6 -8 13 0 7 -12 29 -26 48 -38 51
-78 134 -105 222 -13 42 -27 77 -31 77 -5 0 -8 13 -8 29 0 17 -5 33 -10 36 -6
4 -8 10 -5 15 5 8 -9 56 -32 108 -15 35 -33 129 -25 136 2 3 14 -6 27 -20 12
-13 25 -24 28 -24 3 0 21 -13 39 -30 18 -16 38 -30 45 -30 6 0 16 -6 20 -13 4
-7 26 -22 48 -33 80 -41 160 -86 170 -95 5 -5 19 -9 31 -9 12 0 27 -6 33 -14
6 -7 32 -19 56 -26 25 -7 45 -16 45 -20 0 -4 16 -11 35 -14 19 -4 35 -11 35
-16 0 -6 11 -10 24 -10 13 0 26 -5 28 -10 2 -6 13 -12 25 -14 12 -3 39 -12 60
-21 21 -10 47 -21 58 -25 11 -4 34 -13 50 -20 17 -8 36 -12 43 -11 6 1 12 -2
12 -8 0 -5 17 -15 38 -22 20 -7 47 -19 60 -27 12 -8 22 -11 22 -7 0 3 13 -3
29 -14 16 -12 34 -21 41 -21 19 0 199 -87 305 -148 104 -60 122 -70 146 -84
13 -7 26 -16 29 -19 3 -4 24 -16 46 -28 23 -12 50 -31 59 -41 10 -11 22 -20
28 -20 13 0 120 -92 182 -156 69 -71 95 -105 131 -172 l31 -58 -5 -171 -5
-171 52 -74 c45 -66 53 -85 65 -159 8 -46 14 -93 15 -104 13 -249 12 -367 -3
-447 -9 -47 -23 -99 -31 -115 -8 -15 -15 -33 -15 -40 0 -10 -43 -110 -83 -193
-6 -14 -31 -53 -54 -87 -24 -34 -43 -67 -43 -72 0 -6 -4 -11 -10 -11 -5 0 -10
-6 -10 -14 0 -8 -7 -16 -15 -20 -8 -3 -15 -12 -15 -20 0 -8 -6 -19 -13 -23
-22 -14 -37 -62 -37 -119 0 -65 12 -91 46 -104 l25 -10 -32 -47 c-92 -135
-159 -181 -289 -199 -14 -2 -149 -6 -300 -9 -151 -3 -287 -9 -301 -14 -14 -5
-53 -6 -85 -3 -32 4 -131 6 -219 5 -147 -2 -163 -5 -212 -28 -30 -14 -60 -25
-68 -25 -8 0 -15 -3 -15 -7 0 -5 -22 -21 -48 -37 -61 -37 -99 -83 -127 -153
-21 -51 -22 -58 -8 -79 13 -20 22 -22 80 -21 44 0 67 5 70 14 3 7 11 13 18 13
7 0 18 7 25 15 6 8 15 14 18 13 4 -1 14 1 22 4 50 18 93 25 122 19 30 -6 33
-10 36 -48 2 -26 11 -48 25 -62 24 -22 87 -40 87 -25 0 6 167 9 393 8 236 0
397 3 405 9 8 6 12 6 12 -2 0 -6 9 -11 20 -11 11 0 20 6 20 13 0 9 2 9 8 0 7
-12 56 -12 68 -1 3 3 19 3 37 -1 27 -6 604 -5 647 0 8 1 25 8 39 15 13 7 29
11 33 8 5 -3 18 4 28 16 11 13 24 19 31 14 7 -4 9 -3 6 3 -4 6 5 23 20 39 15
16 26 30 26 31 -1 2 1 11 4 21 4 16 13 18 54 16 46 -2 51 0 65 28 10 19 21 28
30 24 8 -3 14 1 14 9 0 8 7 15 15 15 8 0 15 9 15 21 0 11 5 17 10 14 6 -3 10
5 10 19 0 13 8 32 17 42 10 10 18 20 19 23 1 7 13 38 24 66 13 30 9 76 -7 82
-10 4 -11 9 -2 19 6 8 8 14 3 14 -5 0 2 6 16 13 14 8 24 19 22 26 -1 7 3 19 9
27 6 8 9 14 6 14 -5 0 15 83 30 120 24 61 7 149 -38 202 -22 26 -30 30 -38 19
-7 -11 -11 -10 -20 7 -18 33 -14 54 7 43 30 -16 81 -20 119 -8 21 6 40 14 43
17 3 3 22 14 43 23 41 20 44 28 22 51 -12 12 -22 13 -43 5 -35 -13 -85 -4
-107 21 -10 11 -13 20 -7 20 7 0 12 6 12 14 0 8 5 16 12 18 14 5 20 68 7 68
-5 0 -9 11 -9 24 0 13 -8 43 -17 67 -13 34 -17 80 -17 206 -1 90 2 163 7 163
4 0 5 11 1 24 -3 13 -1 27 5 31 6 3 9 11 5 16 -8 14 16 119 27 119 6 0 8 4 5
8 -3 5 6 21 20 37 13 15 24 34 24 41 0 7 5 25 12 41 21 53 29 204 12 247 -9
24 -9 33 2 44 8 7 12 18 8 23 -3 5 1 12 10 15 8 3 12 12 9 20 -3 8 0 14 5 14
6 0 9 16 7 35 -2 19 1 38 6 41 5 3 6 11 2 17 -4 7 -8 28 -10 47 -3 54 -23 130
-34 130 -6 0 -8 4 -4 9 3 5 1 12 -5 16 -5 3 -14 24 -20 47 -7 22 -26 73 -44
112 -18 39 -35 78 -38 86 -6 18 -125 63 -130 50 -2 -6 -9 -6 -17 0 -13 7 -13
11 0 26 8 10 9 15 3 11 -10 -6 -314 283 -314 299 0 3 -22 28 -50 54 -27 26
-50 52 -50 58 0 6 -9 17 -20 25 -11 7 -31 30 -45 51 -14 20 -30 42 -35 49 -43
50 -194 312 -205 357 -1 3 -7 19 -14 35 -7 17 -14 37 -16 45 -2 8 -4 15 -5 15
-1 0 -3 12 -5 26 -2 14 -18 84 -35 155 -17 71 -33 143 -35 159 -5 52 -26 135
-34 135 -4 0 -8 13 -8 30 0 31 -17 95 -39 147 -8 17 -14 38 -14 46 0 9 -4 18
-9 22 -5 3 -13 20 -16 38 -8 35 -45 129 -55 137 -24 19 -13 79 11 64 5 -3 9 0
9 6 0 7 7 10 15 6 8 -3 34 3 57 13 70 30 83 34 92 32 4 -1 24 7 43 19 19 11
39 18 44 15 5 -4 9 -2 9 2 0 5 10 10 22 10 13 1 24 7 26 13 2 5 14 7 28 4 17
-4 24 -2 24 8 0 10 11 15 30 16 36 1 53 10 44 24 -4 7 -2 8 4 4 6 -3 26 3 44
14 18 11 41 20 51 20 11 0 32 9 48 21 16 11 29 17 29 13 0 -3 6 -1 13 5 8 6
17 8 20 4 4 -3 7 -1 7 5 0 7 9 12 20 12 11 0 20 5 20 10 0 6 6 9 13 8 6 -2 11
5 11 15 -1 12 2 15 10 8 6 -5 41 -8 76 -7 36 1 77 -1 93 -5 15 -4 42 -3 60 2
17 6 46 10 64 10 18 0 35 4 38 9 3 5 17 7 30 4 14 -2 25 0 25 5 0 10 42 24 78
26 13 0 26 5 30 10 4 6 17 16 30 23 18 10 22 10 22 0 0 -9 3 -10 8 -2 4 6 20
14 35 18 17 4 25 11 21 18 -5 8 -2 9 9 5 11 -4 17 -1 17 7 0 9 7 12 21 9 14
-4 25 0 31 11 5 9 18 16 28 16 11 0 20 5 20 11 0 6 6 9 14 6 8 -3 20 1 27 9 6
8 14 12 16 10 3 -2 13 3 24 12 11 9 25 17 32 18 33 3 38 5 34 12 -3 4 5 8 16
8 27 2 141 53 145 65 2 5 15 9 28 9 13 0 24 5 24 10 0 6 9 10 19 10 11 0 23 5
26 10 4 6 10 8 15 5 5 -3 24 1 41 10 17 9 41 14 53 11 30 -7 66 4 66 20 0 8 6
14 13 15 6 0 21 3 32 6 11 3 32 6 48 7 15 0 27 5 27 9 0 5 14 6 31 2 22 -5 29
-4 25 4 -5 7 8 11 38 11 25 0 46 4 46 8 0 4 8 8 18 9 147 12 178 17 183 25 4
6 11 8 17 4 6 -3 14 -2 17 4 5 8 11 8 20 0 9 -8 17 -6 29 5 12 12 16 13 16 3
0 -9 3 -10 8 -2 9 15 81 23 85 9 3 -6 21 -4 53 7 30 10 65 15 92 12 23 -3 42
-1 42 4 0 5 33 9 73 10 135 1 149 2 160 9 16 10 108 10 114 0 2 -4 10 -4 16 0
7 5 50 9 97 10 91 1 169 11 185 23 6 4 43 6 83 4 39 -2 72 0 72 5 0 4 11 6 25
3 14 -2 25 0 25 4 0 5 19 9 42 9 24 0 88 4 143 9 55 4 108 8 118 8 9 -1 17 3
17 8 0 5 15 9 33 8 19 -1 39 2 45 6 6 3 48 9 94 12 46 2 97 9 115 15 18 6 58
12 90 14 32 2 79 8 105 13 25 5 52 6 59 1 16 -9 32 -1 24 12 -4 5 -1 9 4 9 6
0 11 -5 11 -11 0 -6 8 -8 17 -5 10 3 32 7 50 8 17 1 30 5 27 9 -2 4 0 10 5 13
5 4 12 2 16 -3 3 -5 15 -7 28 -4 65 15 120 25 192 34 44 6 83 15 86 21 4 6 11
8 16 5 4 -3 31 -1 58 4 28 6 61 11 75 12 14 2 31 7 39 11 10 6 12 5 7 -2 -4
-7 -1 -12 8 -12 9 0 16 5 16 10 0 6 15 9 35 7 19 -3 35 -1 35 4 0 10 57 22 98
21 17 -1 32 3 32 9 0 6 5 7 11 3 6 -3 15 0 20 7 8 12 10 12 18 0 6 -10 17 -11
37 -6 16 5 32 8 37 7 4 -1 7 2 7 8 0 5 7 7 15 4 8 -4 15 -1 15 5 0 6 6 8 14 5
7 -3 31 2 52 11 27 11 39 12 45 4 5 -8 8 -8 13 0 4 6 18 11 31 11 13 0 27 5
31 11 3 6 15 8 26 6 11 -3 32 -1 46 4 19 7 28 7 30 -1 3 -8 11 -7 26 3 25 17
59 25 141 33 33 3 63 11 66 16 4 6 19 11 35 12 25 2 53 7 174 33 14 3 41 7 60
9 61 6 69 8 63 17 -3 5 4 6 17 2 17 -5 21 -4 15 6 -6 9 -2 11 14 6 12 -3 38 1
57 9 19 8 39 12 43 9 5 -3 26 2 47 11 44 19 90 31 149 40 22 4 48 10 57 15 21
11 31 11 24 0 -3 -4 6 -6 19 -3 14 2 25 8 25 13 0 4 11 6 25 3 14 -2 25 0 25
5 0 6 7 8 15 5 8 -4 15 -1 15 5 0 6 7 8 15 5 8 -4 15 -1 15 6 0 8 11 11 32 8
39 -6 128 13 161 35 13 8 35 13 50 10 17 -3 27 -1 27 6 0 7 9 9 26 5 16 -4 29
-1 37 9 7 8 35 17 62 20 28 3 66 14 85 23 19 10 49 17 67 17 18 -1 36 3 39 8
3 5 9 7 14 4 5 -3 21 0 37 7 15 6 41 13 56 15 15 2 57 15 92 29 36 13 65 21
65 18 0 -4 7 0 17 7 9 8 18 13 20 12 1 -2 4 -3 6 -2 1 1 14 2 28 3 14 2 63 15
110 31 46 15 98 27 116 27 18 -1 39 6 48 14 8 8 19 12 25 9 5 -3 10 -1 10 5 0
7 7 9 17 6 9 -4 19 -2 23 3 3 6 15 12 25 14 11 2 27 7 35 10 8 3 22 5 30 6 8
0 35 2 60 5 25 3 48 5 53 5 4 1 7 8 7 16 0 10 11 15 35 15 19 0 35 4 35 10 0
9 34 18 90 24 14 1 35 8 47 14 14 8 24 9 28 2 4 -6 11 -8 16 -4 5 3 7 10 4 15
-4 5 2 10 12 10 30 2 37 4 68 15 72 28 236 74 244 69 14 -8 41 5 41 20 0 8 10
12 25 10 14 -1 43 6 63 17 20 10 54 19 75 20 21 0 44 7 52 14 7 8 24 14 36 14
12 0 31 8 42 18 11 9 17 11 13 5 -4 -7 -3 -13 2 -13 6 0 12 7 16 15 3 9 19 15
41 15 20 0 61 12 90 26 30 14 59 23 65 19 5 -3 20 1 32 9 12 9 28 16 35 16 6
0 24 5 40 12 15 6 31 12 35 12 3 1 10 4 14 8 4 5 22 8 40 8 18 0 36 5 39 10 3
6 15 10 26 10 10 0 19 5 19 10 0 6 11 10 24 10 13 0 37 7 52 15 16 8 37 15 46
15 9 0 20 5 24 11 3 6 14 9 23 6 9 -2 22 2 29 10 7 7 26 13 41 13 16 0 34 6
40 14 7 8 21 12 33 8 13 -3 19 -1 15 5 -4 6 9 13 31 16 55 7 65 11 81 25 7 7
20 11 27 8 7 -3 16 -1 19 5 4 5 11 7 16 4 5 -4 9 -2 9 3 0 6 16 13 35 16 19 4
35 11 35 16 0 6 18 10 40 10 22 0 40 4 40 9 0 5 15 13 33 16 17 4 41 15 51 24
11 9 16 10 12 4 -4 -7 -2 -13 3 -13 6 0 11 4 11 9 0 5 15 12 33 16 55 11 101
29 115 45 9 10 11 10 6 1 -8 -16 16 -10 91 24 28 13 71 28 98 35 26 7 50 16
53 21 2 4 11 6 19 2 8 -3 15 -1 15 5 0 5 18 12 40 16 23 3 38 10 35 16 -3 5
-1 11 5 15 5 3 10 1 10 -4 0 -6 5 -11 11 -11 5 0 7 4 4 10 -5 9 23 15 48 11 4
0 7 4 7 10 0 6 7 9 15 5 8 -3 15 -2 15 3 0 5 12 9 26 9 15 0 30 5 34 12 4 6
10 11 14 10 14 -5 67 10 63 17 -3 5 7 9 21 10 15 0 28 6 30 12 2 5 10 7 18 4
8 -3 14 -1 14 5 0 9 47 27 63 24 4 -1 7 3 7 8 0 6 16 10 35 10 19 0 35 5 35
11 0 6 9 8 20 4 11 -3 20 -2 20 4 0 5 14 12 30 16 17 4 30 11 30 16 0 6 6 9
13 7 13 -3 67 16 109 38 15 8 30 13 35 12 17 -4 73 14 73 24 0 6 6 6 15 -2 8
-7 15 -8 15 -3 0 5 16 17 35 26 19 9 35 12 35 7 0 -5 7 -7 15 -4 8 4 12 10 9
15 -3 5 2 6 10 3 9 -3 16 -1 16 6 0 6 5 8 11 5 10 -7 143 30 164 45 6 4 35 15
65 25 30 10 60 21 65 25 12 9 85 24 103 21 6 -1 12 3 12 10 0 6 7 9 15 5 8 -3
21 2 30 10 10 11 15 12 15 3 0 -8 7 -5 20 6 11 10 23 15 27 12 3 -4 11 -2 18
3 6 5 29 12 51 16 21 3 43 9 48 14 5 5 15 6 22 3 8 -3 14 0 14 6 0 6 11 11 25
11 14 0 25 4 25 8 0 9 66 27 138 37 23 4 42 11 42 16 0 6 4 8 9 4 5 -3 12 -1
15 4 3 5 15 7 26 4 11 -3 20 0 20 6 0 6 11 11 24 11 14 0 27 4 30 9 6 10 73
26 94 22 6 -1 12 3 12 8 0 5 9 8 20 6 11 -2 36 3 55 11 19 8 35 11 35 7 0 -4
5 -2 11 4 6 6 18 9 26 6 8 -3 19 2 26 10 8 11 33 18 72 21 64 5 105 14 105 25
0 6 30 12 70 13 8 1 17 5 21 9 3 5 27 12 55 15 27 4 56 13 64 20 8 7 42 16 75
19 33 4 73 13 88 20 16 8 41 12 58 8 19 -4 29 -1 29 7 0 7 6 10 14 7 8 -3 41
3 73 15 32 11 69 20 83 20 14 0 30 3 35 7 19 14 91 31 138 32 26 1 47 6 47 11
0 4 15 8 33 8 17 0 49 5 70 11 21 5 57 12 80 14 61 7 67 8 67 14 0 3 21 7 45
8 25 1 52 6 59 12 7 6 15 9 18 6 4 -4 25 -1 128 21 14 3 43 6 65 8 22 1 56 6
75 11 19 4 51 8 70 7 19 0 55 5 80 12 25 7 64 11 88 10 23 -2 42 1 42 5 0 4 6
8 13 8 6 1 28 4 47 7 19 4 59 7 88 7 28 1 52 5 52 10 0 13 38 11 42 -2 3 -8 8
-7 18 2 8 8 32 14 52 14 21 0 38 2 38 5 0 3 37 5 83 4 45 0 86 2 91 5 5 2 23
5 40 7 17 1 58 6 91 9 33 4 74 6 90 6 17 0 74 4 128 10 76 9 101 9 112 -1 11
-10 18 -10 29 -1 8 7 25 9 39 6 14 -4 28 -2 31 4 4 6 16 7 29 3 29 -10 184 -8
221 2 18 6 27 5 23 -1 -3 -5 10 -10 29 -10 18 -1 32 3 29 7 -7 11 38 9 46 -2
3 -5 20 -3 38 3 22 8 35 8 40 1 3 -5 30 -9 59 -8 30 0 56 -3 59 -8 3 -4 9 -2
14 5 8 12 10 12 18 0 5 -7 11 -9 14 -4 3 5 25 8 49 6 24 -2 70 -5 103 -7 33
-1 67 -6 76 -10 10 -4 23 -6 30 -5 8 2 57 -1 109 -6 52 -5 101 -8 109 -6 7 1
10 -2 6 -9 -4 -7 5 -9 32 -5 22 4 63 0 96 -9 32 -8 71 -13 87 -9 21 4 31 1 35
-9 5 -12 17 -14 51 -10 28 3 44 1 44 -6 0 -6 8 -11 18 -11 9 0 28 -2 42 -5 14
-3 43 -8 65 -11 21 -3 42 -9 45 -13 3 -5 31 -13 63 -18 49 -9 61 -8 86 7 16
10 32 26 35 37 7 22 -9 72 -23 72 -12 0 -2 32 13 42 7 5 7 8 -1 8 -7 0 -13 6
-13 14 0 8 -29 27 -65 42 -36 16 -64 33 -64 39 3 24 -2 34 -20 40 -11 3 -29
21 -40 40 -12 21 -31 37 -48 41 -15 4 -34 15 -40 25 -17 23 -146 26 -181 3
-21 -14 -28 -14 -72 2 -27 10 -51 25 -53 34 -3 13 -27 19 -108 29 -57 7 -132
13 -166 12 -59 -2 -63 0 -63 21 -1 53 3 52 -420 49 -89 0 -120 3 -107 10 32
19 11 77 -24 64 -8 -2 -86 -7 -174 -10 -244 -9 -333 -13 -412 -20 -67 -5 -72
-4 -78 16 -7 22 -9 22 -139 15 -72 -4 -210 -9 -306 -12 -96 -2 -188 -6 -205
-9 -16 -2 -65 -5 -107 -6 -43 -1 -78 -5 -78 -8 0 -4 -15 -6 -32 -5 -18 2 -100
-4 -183 -11 -142 -14 -219 -19 -414 -31 -45 -2 -91 -9 -100 -14 -10 -5 -76
-11 -147 -14 -71 -3 -145 -10 -165 -15 -19 -4 -73 -9 -118 -10 -45 -1 -94 -6
-108 -12 -14 -5 -44 -9 -67 -8 -23 1 -86 -6 -141 -14 -94 -15 -234 -28 -317
-29 -21 0 -38 -3 -38 -7 0 -4 -15 -8 -32 -8 -18 0 -53 -5 -78 -11 -51 -12
-360 -55 -375 -52 -6 1 -12 1 -15 0 -10 -3 -45 -11 -70 -14 -14 -2 -72 -13
-130 -24 -58 -12 -168 -33 -245 -47 -77 -14 -160 -29 -185 -35 -43 -9 -135
-22 -172 -24 -10 0 -18 -3 -18 -7 0 -7 -98 -25 -114 -20 -5 1 -21 -3 -35 -8
-14 -6 -50 -13 -78 -15 -29 -3 -56 -7 -61 -10 -4 -2 -48 -10 -98 -16 -49 -6
-105 -15 -124 -19 -19 -5 -78 -16 -130 -25 -164 -27 -284 -46 -320 -50 -19 -3
-89 -11 -155 -20 -172 -21 -267 -31 -287 -28 -10 1 -18 -2 -18 -6 0 -5 -6 -9
-12 -10 -7 0 -74 -10 -148 -21 -73 -12 -164 -22 -200 -24 -36 -2 -71 -6 -76
-9 -5 -4 -34 -9 -64 -12 -30 -3 -73 -9 -95 -12 -22 -3 -59 -6 -82 -7 -24 0
-43 -3 -43 -7 0 -4 -17 -6 -37 -5 -21 2 -48 -1 -61 -6 -13 -5 -51 -11 -85 -14
-34 -3 -80 -9 -102 -14 -22 -5 -65 -12 -95 -15 -30 -3 -113 -12 -184 -21 -70
-9 -190 -16 -265 -15 -75 0 -146 0 -158 0 -13 0 -39 -8 -59 -19 -40 -22 -68
-18 -59 9 7 21 -13 39 -38 35 -10 -2 -38 -13 -63 -24 -55 -26 -52 -26 -64 5
-10 25 -11 26 -36 9 -14 -9 -28 -14 -31 -11 -7 6 -146 -45 -154 -57 -4 -5 -8
-5 -10 2 -3 8 -19 7 -56 -2 -47 -13 -56 -12 -80 3 -35 21 -63 22 -86 2 -16
-14 -19 -14 -33 6 -19 27 -33 28 -79 1 -32 -19 -73 -20 -61 -1 11 18 -13 33
-55 34 -47 0 -119 -24 -119 -41 0 -6 -9 -11 -20 -11 -11 0 -20 -3 -20 -7 0 -5
-11 -8 -25 -8 -14 0 -25 6 -25 13 0 6 -7 12 -16 12 -26 0 -94 -22 -94 -31 0
-4 -17 -13 -37 -19 -21 -7 -45 -18 -53 -25 -8 -7 -27 -15 -42 -19 -23 -5 -28
-3 -28 11 0 37 -13 43 -69 34 -37 -6 -49 -5 -42 2 14 14 14 67 0 67 -6 0 -8
-7 -5 -16 4 -10 2 -14 -6 -11 -7 2 -21 0 -31 -5 -12 -6 -17 -5 -15 4 2 7 -3
13 -9 12 -7 -1 -20 -2 -28 -2 -8 -1 -15 -9 -15 -17 0 -8 -7 -15 -15 -15 -9 0
-34 -9 -57 -21 -23 -12 -43 -17 -47 -11 -11 16 -136 14 -177 -3 -36 -15 -38
-14 -61 7 -22 20 -27 21 -56 9 -18 -7 -67 -22 -109 -32 -43 -10 -86 -23 -95
-27 -10 -5 -33 -17 -50 -26 -19 -10 -33 -13 -33 -7 0 6 -7 11 -15 11 -18 0
-20 16 -3 26 8 5 6 11 -6 20 -22 15 -142 9 -200 -11 -53 -19 -51 -20 -53 17
-1 17 -6 35 -10 39 -5 4 -35 1 -68 -6 -82 -20 -94 -19 -105 10 -9 23 -14 25
-57 21 -27 -3 -49 -6 -50 -7 -4 -2 -14 -4 -68 -13 -27 -4 -67 -12 -87 -18 -32
-10 -41 -8 -58 7 -17 16 -25 16 -72 6 -110 -25 -109 -25 -115 -2 -3 11 -10 22
-17 22 -23 3 -51 -3 -63 -13 -7 -6 -13 -8 -13 -5 0 2 -27 -1 -60 -8 -56 -12
-60 -11 -60 6 0 13 7 19 21 19 11 0 29 5 40 10 18 10 18 12 4 27 -17 17 -80
15 -263 -7 -93 -12 -112 -7 -86 21 9 11 14 22 10 26 -8 8 -135 7 -143 -1 -3
-3 -21 1 -41 9 -36 16 -87 9 -142 -20 -26 -13 -62 -6 -75 14 -8 13 -67 15 -80
2 -6 -5 -28 -14 -50 -21 -22 -7 -48 -22 -57 -34 -10 -11 -18 -15 -18 -8 0 7
-15 12 -42 12 -24 0 -50 5 -58 10 -12 8 -12 10 5 10 24 0 47 33 39 54 -9 23
-32 27 -71 11 -44 -18 -40 -19 -46 5 -4 15 -13 20 -39 20 -35 0 -113 -21 -147
-40 -29 -15 -80 -19 -84 -7 -2 6 -23 12 -46 13 -24 1 -47 8 -52 15 -9 16 -63
15 -146 -1 -72 -15 -96 -9 -91 21 2 15 -3 23 -17 26 -40 8 -172 4 -199 -6 -15
-6 -35 -11 -44 -10 -10 0 -7 4 9 10 35 13 45 49 20 70 -16 13 -29 15 -76 7
-40 -7 -59 -7 -69 1 -14 12 -238 17 -256 6 -5 -3 -29 -7 -54 -9 -43 -3 -44 -3
-24 14 12 9 18 22 15 28 -12 19 -248 35 -294 20 -16 -5 -23 -3 -23 5 -1 7 -6
5 -14 -6 -13 -16 -14 -16 -27 0 -8 9 -9 14 -3 10 15 -9 26 44 12 61 -13 15
-40 16 -56 0 -7 -7 -12 -8 -12 -2 0 5 -17 9 -37 8 -21 -1 -40 1 -43 5 -14 19
-63 41 -101 46 -24 3 -52 11 -63 19 -21 13 -141 42 -208 50 -21 2 -41 7 -45 9
-5 3 -28 6 -53 8 -25 1 -50 7 -57 11 -6 5 -17 8 -25 7 -21 -5 -178 21 -234 37
-29 8 -78 17 -110 18 -33 2 -115 18 -184 36 -178 45 -220 55 -395 89 -55 11
-111 22 -125 25 -14 3 -47 10 -75 16 -27 5 -88 19 -135 30 -47 11 -121 27
-165 36 -44 8 -100 21 -125 29 -25 8 -65 18 -90 21 -25 4 -54 12 -65 17 -11 6
-35 12 -54 13 -19 2 -37 8 -41 15 -4 6 -12 9 -18 5 -11 -7 -92 10 -128 26 -12
6 -35 11 -50 12 -16 1 -35 5 -42 9 -7 5 -29 9 -50 11 -21 1 -43 6 -50 10 -7 4
-22 6 -35 5 -12 -2 -28 1 -36 5 -8 5 -24 10 -35 12 -12 1 -36 5 -53 8 -19 4
-33 2 -33 -4 0 -5 -7 -7 -15 -4 -8 4 -15 1 -15 -5 0 -6 -4 -11 -10 -11 -5 0
-10 9 -10 21 0 15 -5 19 -19 14 -11 -3 -24 1 -32 11 -21 25 -97 57 -116 49
-31 -13 -47 -14 -60 -3 -9 7 -13 7 -13 -1 0 -17 -85 -14 -100 4 -7 8 -26 14
-44 13 -59 -3 -82 2 -103 21 -12 11 -24 17 -27 14 -3 -4 -6 -1 -6 5 0 7 -12
12 -27 11 -49 -1 -118 13 -135 29 -10 8 -26 16 -35 17 -10 1 -30 5 -45 9 -15
4 -35 3 -46 -3 -15 -8 -28 -6 -56 8 -29 15 -61 19 -155 20 -73 1 -122 -2 -126
-9 -8 -13 -135 -13 -135 0 0 6 -7 10 -15 10 -8 0 -15 -4 -15 -10 0 -5 5 -10
12 -10 6 0 9 -2 6 -5 -2 -3 -16 1 -31 8 -18 8 -27 20 -27 35 0 22 -3 23 -47
19 -27 -3 -61 -10 -76 -16 -21 -8 -26 -8 -21 1 5 8 0 9 -15 5 -15 -4 -26 1
-34 14 -12 20 -37 26 -37 9 0 -6 -9 -6 -23 -1 -13 5 -41 7 -63 5 -28 -4 -35
-2 -24 5 13 9 13 13 -3 28 -15 16 -19 16 -28 3 -8 -13 -11 -13 -19 2 -8 13
-22 16 -78 12 -37 -3 -78 -9 -92 -15 -14 -5 -97 -11 -185 -13 -134 -2 -162 -1
-171 12 -11 15 -86 19 -125 7 -10 -3 -21 4 -29 20 -11 21 -19 25 -40 19 -14
-3 -44 -7 -67 -8 -23 -2 -49 -8 -57 -15 -9 -8 -16 -11 -16 -7 0 3 -11 1 -25
-4 -14 -5 -27 -5 -30 0 -3 4 0 10 7 12 7 3 9 14 5 30 -7 26 -9 26 -72 23 -36
-1 -71 -7 -78 -13 -6 -5 -23 -12 -37 -15 -14 -3 -41 -10 -60 -15 -27 -7 -44
-4 -75 9 -32 15 -35 19 -16 19 20 0 22 2 11 15 -8 10 -16 12 -20 6 -7 -12 -31
-9 -80 12 -41 17 -93 11 -188 -23 -47 -16 -67 -19 -75 -11 -18 18 -55 13 -102
-14 -48 -26 -79 -24 -70 5 13 41 -38 41 -143 -1 -14 -6 -21 -6 -18 0 4 5 0 12
-6 14 -10 4 -10 6 0 6 6 1 12 6 12 12 0 6 -6 9 -14 6 -8 -3 -16 -2 -18 3 -3 9
-111 -19 -124 -33 -15 -14 -45 -7 -43 11 5 50 -3 52 -133 21 -70 -16 -92 -18
-98 -9 -5 8 -19 10 -41 5 -46 -9 -253 -77 -259 -85 -13 -17 -54 -18 -67 -2
-13 15 -14 14 -9 -9 4 -17 0 -31 -9 -39 -10 -8 -15 -9 -15 -2 0 6 4 13 10 17
16 10 -1 35 -24 35 -12 0 -31 -7 -42 -15 -24 -18 -50 -20 -38 -2 5 6 9 21 9
32 0 16 -7 20 -34 18 -34 -1 -72 -16 -101 -39 -40 -31 -109 -60 -149 -63 -28
-2 -41 1 -37 8 4 5 14 7 23 4 12 -5 14 -3 8 7 -5 9 -4 11 4 6 7 -5 20 1 30 13
10 12 22 21 28 21 5 0 16 13 26 29 16 27 16 29 -1 33 -10 3 -44 -10 -75 -28
l-56 -33 -3 27 c-2 22 -7 26 -28 24 -14 -2 -32 -10 -41 -18 -8 -8 -19 -14 -23
-14 -4 0 -33 -16 -64 -36 -31 -21 -58 -36 -59 -36 -2 1 -10 -1 -18 -5 -9 -3
-22 2 -29 13 -13 18 -17 17 -79 -16 -60 -31 -66 -32 -81 -17 -13 12 -23 14
-42 7 -33 -13 -34 -13 -34 8 0 14 2 15 10 2 8 -12 10 -12 15 2 4 9 1 23 -6 31
-14 14 -59 11 -59 -5 0 -5 -4 -7 -9 -4 -11 7 -71 -13 -71 -23 0 -4 -6 -8 -12
-8 -24 0 -129 -53 -134 -68 -4 -10 -15 -13 -32 -10 -14 2 -33 -1 -41 -7 -9 -6
-4 0 11 13 15 13 39 33 54 43 16 11 23 21 16 24 -7 2 -12 10 -12 18 0 20 -10
18 -37 -8 -15 -14 -34 -21 -59 -20 -29 1 -35 -2 -30 -14 5 -12 2 -15 -10 -10
-18 7 -94 -37 -94 -54 0 -6 -6 -10 -14 -10 -8 0 -25 -13 -38 -29 -24 -30 -68
-51 -68 -32 0 6 6 11 14 11 16 0 31 53 20 71 -4 8 -3 9 5 5 9 -6 10 0 5 21 -4
15 -9 31 -11 36 -11 18 -103 -21 -133 -58 -7 -8 -16 -12 -21 -9 -5 3 -9 -2 -9
-10 0 -8 -9 -17 -19 -21 -11 -3 -39 -21 -63 -40 -45 -36 -68 -44 -68 -22 0 7
-3 8 -8 2 -4 -5 -13 -10 -19 -11 -30 -2 -34 -5 -28 -14 3 -5 2 -10 -4 -10 -17
0 -22 19 -10 41 8 16 8 20 0 14 -7 -4 -18 -1 -26 5 -11 10 -15 10 -15 1 0 -7
-4 -10 -8 -7 -5 3 -24 -9 -42 -26 -20 -18 -36 -26 -38 -19 -9 26 -34 41 -60
35 -30 -8 -128 -59 -153 -80 -8 -8 -20 -14 -26 -14 -20 0 -62 -41 -56 -55 3
-8 0 -15 -6 -15 -18 0 -26 4 -24 13 2 4 -5 7 -15 8 -13 0 -12 3 6 11 12 6 22
17 22 25 0 7 5 13 10 13 6 0 13 8 17 18 3 9 16 28 28 42 12 14 25 37 29 53 9
39 -17 36 -54 -7 -21 -24 -36 -32 -50 -29 -11 3 -27 0 -35 -7 -8 -6 -18 -9
-23 -6 -5 3 -23 -8 -41 -24 -18 -17 -35 -30 -37 -30 -8 0 -78 -54 -82 -62 -5
-10 -23 -10 -20 0 1 4 -2 18 -6 30 -6 19 -13 22 -29 17 -56 -17 -70 -18 -61
-4 33 54 -14 83 -120 76 -39 -3 -75 -7 -81 -8 -5 -2 -20 2 -32 9 -14 8 -23 9
-23 3 0 -12 -135 -9 -147 2 -9 9 3 20 25 22 34 4 52 18 52 39 0 38 -38 47
-194 45 -97 -1 -149 2 -162 10 -16 11 -16 12 -1 7 16 -5 16 -3 3 23 -15 28
-23 31 -133 48 -70 10 -124 40 -199 108 -98 90 -352 344 -425 427 -32 34 -68
75 -81 89 -14 15 -28 34 -31 43 -4 9 -11 16 -17 16 -5 0 -10 7 -10 15 0 8 -3
15 -8 15 -4 0 -27 18 -52 41 -25 22 -70 63 -100 91 -30 28 -70 57 -88 67 -19
9 -41 29 -50 46 -20 35 -59 68 -81 70 -73 6 -90 16 -101 55 -11 41 -51 70 -96
70 -38 0 -69 16 -109 58 -37 39 -40 41 -89 36 -28 -3 -58 -8 -66 -12 -8 -3
-42 -7 -75 -8 -56 -3 -61 -1 -86 28 -32 39 -80 45 -127 16 -27 -17 -37 -18
-64 -9 -18 7 -46 24 -63 40 -31 30 -75 49 -75 33 0 -16 -48 -20 -69 -5 -20 14
-109 14 -118 0z m8627 -1317 c0 -5 -4 -10 -10 -10 -5 0 -10 5 -10 10 0 6 5 10
10 10 6 0 10 -4 10 -10z m4805 -990 c-3 -5 -14 -10 -23 -10 -15 0 -15 2 -2 10
20 13 33 13 25 0z m55 0 c0 -5 -5 -10 -11 -10 -5 0 -7 5 -4 10 3 6 8 10 11 10
2 0 4 -4 4 -10z m120 -20 c0 -5 -8 -10 -17 -10 -15 0 -16 2 -3 10 19 12 20 12
20 0z m3330 -344 c0 -3 -4 -8 -10 -11 -5 -3 -10 -1 -10 4 0 6 5 11 10 11 6 0
10 -2 10 -4z"/>
</g>
</svg>
