<?xml version="1.0" standalone="no"?>
<!DOCTYPE svg PUBLIC "-//W3C//DTD SVG 20010904//EN"
 "http://www.w3.org/TR/2001/REC-SVG-20010904/DTD/svg10.dtd">
<svg version="1.0" xmlns="http://www.w3.org/2000/svg"
 width="1536.000000pt" height="440.000000pt" viewBox="0 0 1536.000000 440.000000"
 preserveAspectRatio="xMidYMid meet">
<metadata>
Created by potrace 1.16, written by Peter Selinger 2001-2019
</metadata>
<g transform="translate(0.000000,440.000000) scale(0.100000,-0.100000)"
fill="#000000" stroke="none">
<path d="M10285 4390 c-323 -43 -682 -117 -1068 -221 -416 -112 -468 -134
-1342 -562 -683 -334 -1174 -545 -1675 -720 -118 -42 -336 -119 -485 -172
-823 -296 -1277 -443 -1608 -520 -546 -126 -862 -172 -1267 -184 -419 -12
-593 -1 -1245 74 -785 91 -1016 110 -1225 102 -144 -6 -246 -22 -327 -53 -24
-8 -43 -19 -43 -24 0 -4 147 -10 328 -13 365 -6 309 1 1020 -121 855 -147
1132 -177 1815 -197 526 -15 862 2 1402 72 127 16 381 47 565 70 803 96 1262
153 1805 221 l580 73 340 0 340 0 65 -31 c42 -20 70 -40 79 -58 25 -45 1 -142
-93 -373 -88 -219 -126 -359 -151 -558 -7 -55 -26 -163 -43 -240 -41 -184 -55
-308 -42 -374 26 -139 120 -230 265 -255 44 -8 100 -19 125 -25 71 -17 68 -20
63 77 -4 62 -16 122 -44 210 -62 197 -54 255 80 574 137 327 299 610 358 624
34 9 88 -44 109 -109 14 -41 15 -67 8 -136 -4 -47 -7 -138 -7 -201 9 -636 10
-582 -21 -760 -24 -139 -28 -183 -23 -280 2 -63 9 -126 15 -140 30 -75 149
-138 237 -124 88 14 149 9 194 -14 52 -28 57 -27 65 2 9 36 56 43 107 17 47
-25 59 -21 59 19 0 31 -57 106 -145 190 -59 57 -83 103 -101 197 -26 139 -13
263 53 498 46 165 84 260 172 427 38 73 91 184 117 246 25 63 53 116 62 119 8
3 136 -4 286 -16 387 -32 575 -36 910 -17 159 9 290 15 291 13 1 -1 21 -60 45
-132 23 -71 73 -200 110 -285 153 -350 161 -416 66 -569 -72 -117 -58 -144 94
-191 237 -73 256 -61 267 177 3 74 10 129 14 121 4 -7 19 -60 34 -116 14 -57
43 -147 64 -200 41 -103 52 -145 75 -282 28 -164 39 -174 194 -172 59 1 121 5
137 10 45 13 43 48 -10 192 -73 194 -85 252 -85 410 0 240 -28 441 -92 660
-41 142 -44 200 -19 350 12 69 28 187 35 262 11 109 19 149 39 190 60 123 314
406 467 520 41 31 176 118 300 193 124 75 315 192 425 260 265 163 379 226
630 351 327 161 375 172 481 108 32 -21 100 -61 151 -89 145 -84 207 -130 319
-236 96 -91 107 -99 144 -99 90 0 197 66 221 137 9 28 7 42 -14 95 -14 35 -44
116 -68 182 -24 65 -64 159 -89 210 -43 87 -48 93 -110 129 -71 41 -100 54
-174 82 -27 10 -83 41 -126 70 -95 66 -218 128 -296 151 -50 14 -85 16 -224
11 -241 -9 -322 -33 -771 -230 -241 -106 -400 -136 -720 -137 -333 0 -533 23
-719 82 -101 32 -358 135 -605 241 -266 114 -483 182 -660 207 -108 15 -404
21 -490 10z"/>
</g>
</svg>
