<?xml version="1.0" standalone="no"?>
<!DOCTYPE svg PUBLIC "-//W3C//DTD SVG 20010904//EN"
 "http://www.w3.org/TR/2001/REC-SVG-20010904/DTD/svg10.dtd">
<svg version="1.0" xmlns="http://www.w3.org/2000/svg"
 width="1536.000000pt" height="771.000000pt" viewBox="0 0 1536.000000 771.000000"
 preserveAspectRatio="xMidYMid meet">
<metadata>
Created by potrace 1.16, written by Peter Selinger 2001-2019
</metadata>
<g transform="translate(0.000000,771.000000) scale(0.100000,-0.100000)"
fill="#000000" stroke="none">
<path d="M3505 7696 c-64 -28 -125 -133 -125 -216 0 -47 -19 -56 -171 -89 -80
-17 -214 -49 -299 -70 l-154 -39 -79 41 c-64 34 -90 42 -146 45 -64 4 -71 2
-100 -24 -36 -33 -50 -79 -51 -167 0 -42 -5 -61 -17 -71 -71 -56 -161 -134
-185 -160 -15 -17 -73 -97 -129 -178 -55 -82 -140 -205 -189 -274 -50 -69
-113 -165 -142 -213 -61 -101 -242 -292 -413 -436 -95 -80 -308 -234 -455
-328 -212 -135 -588 -389 -641 -433 -128 -104 -209 -213 -209 -282 0 -41 40
-102 111 -170 38 -37 109 -119 157 -182 97 -128 185 -205 230 -201 105 7 93
13 137 -69 22 -42 47 -75 55 -75 10 0 18 17 25 50 l11 49 26 -34 c14 -19 45
-66 68 -105 56 -92 98 -145 116 -145 18 0 18 60 -1 165 -18 101 -20 245 -2
267 21 28 379 148 439 148 11 0 67 16 126 36 131 44 206 53 250 30 42 -21 45
-21 65 14 10 17 24 30 30 30 7 0 25 14 40 31 25 29 31 31 73 25 54 -7 92 10
125 55 27 38 96 89 120 89 57 0 186 -210 197 -319 4 -47 2 -53 -29 -83 -19
-18 -48 -42 -64 -54 l-29 -21 18 -40 c12 -28 16 -50 11 -76 -7 -38 -48 -87
-71 -87 -18 0 -17 -4 1 -41 19 -35 13 -49 -21 -49 -19 0 -24 -5 -24 -27 -1
-21 -10 -34 -36 -50 -20 -13 -44 -23 -55 -23 -26 0 -26 -57 0 -132 l19 -56
-44 -11 c-24 -6 -44 -13 -44 -15 0 -2 9 -24 21 -50 13 -31 18 -54 13 -69 -5
-12 -7 -26 -6 -30 1 -4 -3 -18 -10 -30 -7 -12 -12 -47 -13 -78 0 -54 -4 -62
-103 -210 -56 -85 -119 -174 -141 -199 l-38 -45 -99 24 c-55 12 -109 25 -122
28 -12 3 -22 1 -22 -4 0 -6 27 -46 60 -91 33 -44 73 -109 89 -144 28 -63 66
-105 123 -134 55 -29 203 -76 253 -81 45 -4 59 0 140 43 221 115 375 244 486
406 34 50 116 159 183 242 66 84 163 207 214 274 51 66 196 228 322 359 384
400 452 489 617 807 60 116 108 197 125 209 l27 20 153 -52 c84 -29 229 -77
322 -106 93 -30 176 -61 184 -69 12 -12 10 -30 -17 -138 -51 -203 -76 -380
-111 -787 -11 -129 -25 -259 -29 -290 -14 -92 -139 -511 -166 -557 -39 -67
-178 -207 -316 -320 -136 -111 -179 -156 -430 -454 -355 -422 -575 -663 -721
-794 -85 -75 -149 -150 -197 -229 -13 -21 -34 -45 -47 -54 -13 -8 -24 -23 -24
-33 0 -26 -74 -88 -145 -121 -113 -53 -289 -79 -544 -79 l-163 0 -130 -67
c-196 -101 -247 -173 -235 -333 5 -68 4 -78 -13 -93 -13 -11 -20 -29 -20 -52
0 -39 9 -43 50 -19 26 16 29 16 89 -16 34 -18 77 -50 95 -70 19 -21 48 -41 64
-45 16 -3 51 -20 78 -37 30 -19 69 -33 105 -38 46 -7 67 -17 111 -52 90 -73
100 -75 252 -50 253 42 599 111 665 133 144 48 286 137 344 216 18 27 69 111
112 188 43 77 94 165 113 195 94 144 275 278 465 346 70 26 247 110 337 162
95 55 174 113 441 327 152 122 357 283 455 357 251 191 444 367 444 406 0 5
34 58 76 117 97 140 140 214 204 355 85 186 130 271 140 265 36 -22 106 -240
130 -408 42 -284 37 -374 -29 -505 -54 -106 -91 -138 -208 -176 -29 -10 -68
-28 -88 -42 -20 -13 -42 -24 -49 -24 -19 0 -45 -33 -56 -71 -12 -40 5 -71 56
-101 27 -16 34 -26 34 -51 0 -23 10 -39 41 -66 22 -20 64 -57 92 -83 62 -59
86 -61 207 -17 115 41 130 43 180 26 32 -11 52 -12 72 -5 45 16 126 115 169
208 22 47 78 159 124 250 46 91 87 183 90 204 5 22 0 101 -9 185 -41 348 -32
642 37 1186 l42 330 120 7 c66 3 291 11 500 17 694 21 808 28 947 62 68 16
175 41 238 55 196 42 253 65 610 249 273 141 353 177 375 169 14 -6 15 -21 9
-118 -5 -96 -3 -127 20 -236 38 -185 53 -289 81 -560 14 -135 35 -301 46 -370
21 -129 38 -438 38 -700 l1 -145 -65 -90 c-89 -125 -150 -192 -195 -215 -51
-26 -204 -70 -244 -70 -80 0 -230 -101 -270 -181 -31 -63 -33 -95 -6 -109 15
-8 18 -17 13 -40 -6 -33 -3 -34 46 -20 44 12 59 0 63 -48 3 -32 7 -37 30 -40
15 -2 38 4 50 12 32 23 56 20 60 -6 4 -32 80 -51 178 -44 91 7 280 56 348 90
66 33 164 112 352 283 226 205 355 341 370 385 14 45 10 61 -36 153 -52 106
-68 220 -38 264 l16 22 24 -22 c22 -20 30 -22 126 -17 119 6 166 23 221 76 44
42 278 327 296 359 16 31 14 145 -5 217 -20 76 -68 182 -132 289 -112 186
-197 378 -181 408 4 9 55 45 111 80 116 70 260 176 329 241 124 115 289 367
369 561 19 46 42 84 56 93 27 19 51 16 234 -28 180 -42 312 -58 500 -58 232 0
338 17 627 100 282 80 378 116 466 173 34 22 136 85 227 140 279 169 434 279
605 432 44 39 130 112 191 163 118 97 173 155 272 290 120 162 376 598 388
660 8 37 -27 92 -57 92 -33 0 -101 -80 -225 -266 -145 -216 -274 -392 -350
-476 -32 -35 -141 -126 -243 -203 -102 -78 -215 -163 -251 -191 -116 -88 -408
-263 -610 -364 -106 -54 -242 -97 -405 -131 -69 -14 -404 -10 -496 6 -133 23
-283 76 -446 159 -128 64 -205 117 -368 251 -140 115 -155 131 -363 390 -120
149 -234 293 -254 321 -43 59 -239 250 -318 311 -76 57 -320 207 -407 248
-139 67 -448 162 -663 204 -226 45 -202 44 -1535 51 l-1270 6 -150 36 c-262
62 -406 80 -790 99 -248 12 -259 11 -445 -28 -125 -27 -126 -27 -585 -27
l-460 0 -280 36 c-154 20 -309 39 -345 43 -167 15 -153 10 -209 85 -51 68
-146 152 -208 184 -38 19 -77 20 -118 2z"/>
</g>
</svg>
