<?xml version="1.0" standalone="no"?>
<!DOCTYPE svg PUBLIC "-//W3C//DTD SVG 20010904//EN"
 "http://www.w3.org/TR/2001/REC-SVG-20010904/DTD/svg10.dtd">
<svg version="1.0" xmlns="http://www.w3.org/2000/svg"
 width="1536.000000pt" height="651.000000pt" viewBox="0 0 1536.000000 651.000000"
 preserveAspectRatio="xMidYMid meet">
<metadata>
Created by potrace 1.16, written by Peter Selinger 2001-2019
</metadata>
<g transform="translate(0.000000,651.000000) scale(0.100000,-0.100000)"
fill="#000000" stroke="none">
<path d="M4978 6499 c-9 -5 -31 -34 -48 -64 -34 -59 -54 -75 -94 -75 -24 0
-25 2 -20 44 7 46 -11 76 -20 34 -16 -80 -15 -78 -46 -78 -27 0 -30 2 -24 25
10 38 -20 32 -45 -10 -22 -37 -51 -47 -51 -17 0 30 -11 33 -32 9 l-19 -22 6
25 7 25 -26 -27 c-15 -16 -36 -28 -46 -28 -24 0 -25 8 -3 32 38 42 -25 9 -72
-38 -27 -27 -50 -32 -41 -9 7 20 -3 19 -26 -2 -10 -9 -21 -13 -24 -10 -10 10
14 35 57 59 22 12 39 25 39 30 0 18 -23 5 -75 -42 -30 -27 -64 -50 -75 -50
-29 0 -25 7 28 56 53 50 27 48 -29 -2 -33 -29 -93 -53 -105 -41 -2 2 5 16 16
30 31 39 5 43 -29 5 -36 -40 -52 -31 -21 12 31 44 19 48 -14 5 -18 -24 -35
-35 -52 -35 l-26 0 21 33 c19 31 19 47 1 47 -4 0 -13 -14 -20 -30 -11 -27 -36
-50 -54 -50 -12 0 -5 22 16 50 32 45 11 51 -25 7 -30 -35 -57 -48 -57 -28 0 5
7 16 15 25 25 25 17 31 -10 6 -31 -29 -43 -19 -27 22 22 59 -15 49 -54 -14
-22 -35 -43 -51 -112 -86 -46 -23 -86 -41 -88 -39 -2 1 17 28 42 57 41 51 63
94 52 106 -3 2 -23 -19 -44 -48 -39 -51 -89 -96 -99 -87 -2 3 16 35 41 72 24
37 41 67 38 67 -4 0 -30 -20 -58 -44 -63 -54 -139 -95 -121 -66 3 6 -1 13 -9
16 -20 8 -20 28 0 59 28 42 4 48 -26 6 -44 -60 -120 -112 -120 -82 0 5 23 35
51 65 46 51 49 55 23 46 -16 -6 -58 -31 -94 -55 -36 -24 -75 -46 -87 -50 -20
-6 -23 -3 -23 24 0 39 -15 40 -28 2 -6 -16 -25 -48 -42 -72 l-32 -44 6 73 c4
39 5 72 2 72 -3 0 -14 -20 -24 -44 -23 -50 -46 -72 -37 -33 13 48 -12 35 -34
-18 -13 -31 -39 -68 -59 -87 l-37 -32 -5 29 c-8 45 -30 44 -30 -2 -1 -35 -4
-40 -46 -59 l-46 -22 6 23 c11 44 -13 36 -38 -12 -25 -50 -48 -75 -80 -87 -19
-6 -19 -5 -4 64 6 29 -17 25 -25 -5 -19 -62 -42 -118 -52 -122 -6 -2 -9 18 -7
52 2 30 0 55 -5 55 -5 0 -18 -35 -28 -77 -10 -43 -19 -83 -21 -90 -2 -7 -20
-17 -41 -22 -30 -9 -42 -19 -57 -50 -29 -63 -123 -145 -436 -384 -231 -177
-300 -235 -319 -268 -25 -45 -98 -129 -112 -129 -5 0 -9 25 -9 55 0 30 -4 55
-10 55 -6 0 -10 -28 -10 -62 -1 -85 -21 -126 -118 -229 -72 -78 -81 -85 -87
-65 -6 18 -8 19 -12 4 -2 -10 -9 -18 -14 -18 -6 0 -6 -7 1 -19 15 -29 13 -35
-23 -79 l-33 -39 -30 24 c-46 37 -144 83 -178 83 -40 0 -25 -12 53 -40 35 -13
76 -34 92 -48 48 -40 32 -100 -19 -73 -45 24 -122 50 -122 41 0 -5 23 -35 50
-65 28 -30 50 -62 50 -69 0 -20 -48 -28 -90 -16 -45 13 -120 13 -120 0 0 -5
11 -10 24 -10 43 0 128 -23 133 -36 8 -20 -155 -251 -429 -609 -296 -387 -393
-524 -505 -712 -44 -76 -102 -161 -128 -190 -52 -57 -74 -107 -75 -169 0 -32
9 -53 41 -97 45 -64 67 -78 159 -102 80 -21 121 -42 190 -99 l55 -46 222 0
c123 0 223 4 223 8 0 5 -14 21 -30 37 -17 16 -30 35 -30 42 0 16 29 11 170
-28 58 -16 110 -29 115 -29 13 0 55 65 55 84 0 7 -25 37 -55 67 -30 29 -55 59
-55 65 0 18 34 23 118 17 56 -3 73 -2 62 6 -8 6 -41 11 -72 11 -32 0 -58 4
-58 9 0 14 59 60 86 67 25 6 72 2 113 -11 18 -6 23 -5 19 5 -2 8 -21 18 -42
24 -21 6 -38 14 -37 19 0 4 1 11 1 16 0 5 14 14 31 21 24 10 48 10 113 1 52
-7 92 -8 107 -2 21 8 18 9 -26 15 -69 9 -125 25 -125 36 0 4 15 20 33 35 17
15 71 72 118 126 129 148 201 198 284 199 l39 0 -41 -42 c-23 -24 -54 -67 -68
-96 -57 -114 -93 -333 -70 -429 6 -27 0 -47 -29 -110 -29 -60 -55 -95 -125
-165 -53 -52 -96 -88 -108 -88 -12 0 -51 11 -88 25 -63 24 -113 26 -99 4 3 -5
-8 -25 -25 -45 -17 -19 -31 -38 -31 -42 0 -5 15 -13 33 -20 17 -6 66 -41 107
-77 108 -95 120 -100 220 -99 175 1 301 65 431 216 34 40 77 90 96 111 l34 38
96 -42 c53 -23 122 -60 153 -81 32 -21 60 -38 64 -38 39 0 -94 89 -204 136
-47 20 -89 40 -93 44 -5 4 -3 18 3 30 13 24 1 24 164 3 33 -4 47 -2 42 5 -3 5
-33 13 -65 17 -33 4 -68 13 -78 21 -16 13 -11 14 51 12 48 -2 70 1 73 10 3 9
-11 12 -52 12 -31 0 -55 4 -53 9 5 16 212 242 311 339 l94 93 59 -30 c32 -16
73 -31 89 -33 26 -3 30 0 33 25 3 23 -5 37 -37 67 -27 26 -37 41 -29 46 6 4
48 7 92 5 75 -1 85 -4 132 -36 28 -19 61 -35 75 -35 16 0 31 -11 47 -35 12
-19 28 -35 35 -35 6 0 4 5 -5 11 -10 5 -18 19 -18 29 0 35 21 24 63 -32 32
-44 42 -46 73 -17 l22 21 21 -21 c12 -12 29 -21 39 -21 32 0 52 -33 52 -83 0
-60 26 -66 35 -9 4 20 8 43 10 50 6 18 40 14 60 -8 15 -17 16 -28 8 -83 -5
-36 -6 -73 -2 -83 7 -17 8 -16 8 4 2 54 51 90 51 37 0 -20 6 -27 29 -31 17 -4
33 -16 40 -30 6 -13 15 -24 20 -24 5 0 4 11 -3 25 -10 18 -11 38 -5 72 11 56
19 66 39 50 40 -30 50 -60 50 -145 0 -57 3 -81 11 -76 6 4 8 20 5 39 -4 19 -2
36 4 40 6 3 10 -4 10 -17 0 -13 5 -30 10 -38 10 -16 16 37 12 108 l-2 33 40
-31 c53 -42 120 -118 136 -155 11 -27 13 -28 20 -10 4 11 13 24 21 28 18 11
16 26 -8 67 -24 39 -33 100 -14 100 6 0 17 -17 25 -37 15 -43 51 -103 62 -103
4 0 3 12 -2 26 -13 32 -13 44 0 44 6 0 10 -9 10 -21 0 -12 19 -39 45 -63 31
-28 50 -56 59 -86 16 -56 33 -62 28 -11 -4 41 -2 45 41 55 20 5 27 3 27 -9 0
-18 12 -19 27 -4 8 8 14 -4 23 -43 6 -29 16 -71 22 -93 l10 -40 19 37 c20 39
52 63 74 55 7 -3 16 -26 19 -51 12 -79 46 -70 46 12 0 23 3 42 8 42 8 0 52
-153 54 -185 0 -11 -3 -35 -7 -54 -6 -23 -5 -32 2 -28 6 4 16 31 23 59 6 29
17 67 23 83 12 30 12 29 17 -25 4 -42 9 -56 22 -58 14 -3 19 6 24 37 4 22 13
46 20 52 11 9 14 5 14 -24 0 -26 6 -39 20 -47 13 -7 21 -25 26 -61 5 -39 10
-49 23 -47 10 2 18 17 22 38 5 29 7 32 14 16 5 -12 1 -33 -13 -62 -12 -24 -18
-46 -13 -48 5 -3 14 8 21 25 25 60 82 111 60 53 -13 -32 -12 -75 0 -94 9 -13
11 -13 20 0 5 8 10 27 10 43 0 20 5 27 18 27 32 0 52 -33 52 -82 0 -26 3 -53
6 -62 11 -28 24 -17 24 19 0 19 5 35 10 35 6 0 10 -19 10 -41 0 -36 2 -40 15
-29 13 11 15 5 15 -49 0 -34 4 -61 10 -61 6 0 10 11 10 24 0 13 11 43 24 67
l25 43 10 -26 c5 -14 13 -42 16 -62 13 -66 29 -55 22 15 -7 60 -6 63 10 46 13
-12 19 -38 21 -90 3 -59 8 -76 23 -85 18 -11 19 -9 20 30 l1 43 13 -30 13 -30
11 43 c19 69 34 52 26 -30 -6 -60 -5 -71 6 -60 24 22 29 13 14 -24 -17 -41
-20 -68 -6 -60 5 3 17 38 26 78 10 40 22 78 27 83 6 7 21 -3 42 -28 44 -49 53
-47 21 6 -25 44 -32 77 -17 77 5 0 19 -23 32 -51 13 -27 29 -53 35 -57 6 -4
17 -20 24 -37 8 -17 16 -24 18 -17 8 20 23 14 23 -10 0 -13 5 -30 11 -38 15
-22 3 86 -16 140 -8 24 -13 46 -10 49 3 3 26 -16 52 -42 47 -49 71 -61 53 -28
-14 27 -13 41 3 41 17 0 35 -38 43 -93 7 -47 23 -84 24 -55 0 27 16 29 43 8
36 -28 47 -25 47 14 0 18 7 39 15 46 46 39 166 -134 283 -410 22 -52 78 -172
125 -267 103 -209 129 -296 135 -454 l4 -116 -33 -37 c-24 -28 -72 -57 -178
-108 -175 -84 -211 -112 -247 -184 -33 -68 -27 -84 54 -133 111 -67 146 -80
253 -96 144 -20 227 -19 553 7 l279 22 19 44 c17 38 19 58 13 195 -5 112 -3
187 9 282 23 187 20 248 -15 398 -38 166 -45 246 -30 377 7 57 16 204 21 327
4 124 11 227 13 230 3 2 23 -7 44 -21 49 -34 71 -33 79 2 13 64 22 75 57 68
18 -4 66 -9 107 -12 72 -6 76 -5 102 21 l28 27 42 -17 c24 -9 49 -20 56 -22
10 -4 13 3 10 26 -3 30 0 34 34 46 21 7 67 32 103 55 l66 43 105 -12 c102 -12
105 -11 122 9 11 14 39 26 76 33 56 11 61 15 83 57 25 49 66 90 89 90 20 0 60
-46 166 -194 171 -238 258 -324 491 -487 247 -173 388 -294 424 -362 18 -37
20 -110 3 -163 -7 -22 -38 -88 -68 -149 -110 -215 -221 -354 -324 -404 -26
-12 -98 -40 -160 -61 -98 -34 -118 -45 -151 -82 -21 -24 -66 -71 -99 -106 -52
-54 -59 -66 -54 -90 4 -15 20 -38 36 -52 29 -26 30 -26 332 -38 167 -7 371
-12 454 -12 l152 0 150 303 c125 250 177 342 302 532 160 245 195 308 206 373
9 59 -11 105 -75 173 -80 84 -138 184 -247 428 -76 170 -92 216 -87 241 4 24
10 30 22 25 9 -4 22 -9 29 -12 24 -10 12 16 -18 37 -45 32 -39 85 7 55 26 -17
29 -9 8 19 -21 28 -19 50 12 118 18 41 29 56 37 48 19 -19 29 -10 10 11 -14
16 -15 22 -5 28 7 5 11 21 9 37 -3 26 1 29 52 45 30 9 77 19 103 23 l48 7 62
-63 c90 -92 245 -294 275 -358 17 -36 53 -82 107 -135 150 -148 295 -241 815
-525 184 -101 363 -203 398 -228 104 -72 182 -192 226 -345 44 -150 61 -401
31 -445 -25 -35 -94 -70 -232 -116 -155 -52 -187 -67 -236 -114 -42 -41 -75
-126 -57 -147 6 -7 34 -23 63 -36 42 -19 69 -24 143 -24 63 0 96 -4 108 -14
13 -11 74 -15 279 -17 463 -6 461 -7 527 39 79 52 92 134 42 257 -61 150 -100
460 -88 700 4 74 14 202 22 284 l16 148 -23 25 c-13 13 -62 46 -110 73 -169
97 -221 158 -340 392 -45 90 -97 187 -115 216 -39 60 -40 69 -18 93 14 16 14
18 -8 29 -13 7 -36 24 -51 39 l-29 26 33 5 c43 7 47 25 10 48 l-31 19 22 11
c22 10 22 11 -7 11 -35 1 -49 9 -58 34 -5 13 -1 17 19 17 l25 0 -27 23 c-34
29 -25 47 24 48 l37 1 -33 8 c-51 12 -50 20 1 20 54 0 63 15 15 24 -18 4 -46
18 -62 31 l-30 24 25 21 c20 17 33 20 79 16 l55 -5 -48 25 c-54 28 -58 39 -9
25 18 -5 32 -6 32 -1 0 4 -12 11 -26 14 -45 12 -75 37 -69 57 4 12 -4 32 -20
54 -17 21 -25 41 -21 52 5 12 9 14 18 5 21 -21 32 -13 12 10 -19 21 -19 21 4
16 27 -7 28 5 4 29 -23 22 -86 132 -79 139 2 2 26 -5 52 -16 58 -25 84 -20 37
6 -54 30 -79 52 -85 74 -5 18 -2 19 33 14 51 -8 59 10 12 29 -45 18 -75 67
-42 67 26 0 25 8 -2 30 -16 13 -20 22 -12 29 7 8 32 -4 86 -41 234 -162 414
-364 719 -808 224 -327 534 -724 660 -846 131 -127 474 -369 669 -472 106 -56
296 -134 440 -180 221 -71 654 -98 831 -52 74 19 263 91 282 108 47 42 -19 78
-125 68 -124 -11 -437 55 -667 141 -208 77 -334 147 -489 271 -57 45 -138 106
-180 134 -119 80 -148 105 -214 192 -34 45 -94 113 -134 153 -170 168 -349
427 -618 893 -190 327 -269 458 -351 575 -43 61 -135 196 -205 300 -79 118
-165 230 -224 295 -53 58 -113 130 -133 160 -48 72 -328 375 -468 506 -154
144 -284 245 -345 269 -29 11 -55 27 -57 36 -4 15 -263 160 -458 257 -138 68
-306 130 -410 151 -61 12 -130 34 -175 56 -62 29 -82 34 -116 29 -33 -5 -68 4
-190 46 -218 76 -329 107 -440 122 -104 14 -551 17 -1214 8 -259 -3 -376 0
-515 13 -99 9 -232 19 -295 22 -69 4 -141 15 -180 27 -53 16 -111 21 -325 28
-265 9 -355 21 -439 59 -22 10 -47 25 -55 34 -9 12 -29 17 -61 17 -37 0 -56 6
-77 24 -19 16 -34 22 -42 16 -8 -4 -27 -4 -42 0 -38 11 -96 53 -81 58 24 8 11
22 -20 23 -52 0 -103 22 -102 42 1 13 -6 17 -30 17 -19 0 -46 12 -70 30 -26
20 -51 30 -74 30 -26 0 -33 3 -28 15 4 12 -5 15 -50 15 -57 0 -124 21 -124 39
0 6 8 11 19 11 21 0 48 27 37 37 -3 4 -21 1 -39 -5 -46 -17 -66 -16 -41 2 24
18 13 31 -14 17 -12 -6 -31 -11 -43 -11 -19 0 -20 2 -8 17 13 15 11 16 -21 9
-76 -16 -100 -18 -117 -12 -14 6 -8 12 29 28 26 11 45 25 42 30 -3 4 -29 -5
-57 -21 -29 -16 -62 -32 -74 -36 -33 -9 -29 13 3 26 15 5 24 12 21 16 -4 3
-20 0 -37 -7 -40 -16 -49 -6 -22 23 22 23 29 47 14 47 -5 0 -23 -16 -40 -36
-39 -44 -56 -38 -18 6 23 29 33 50 22 50 -3 0 -22 -18 -43 -41 -27 -28 -44
-38 -56 -33 -27 10 -21 24 30 71 58 53 35 59 -31 8 -26 -19 -55 -35 -66 -35
-23 0 -23 -2 -9 56 13 49 4 69 -23 53z m-2285 -3440 c70 -57 39 -78 -51 -33
-56 28 -62 37 -34 53 28 17 45 13 85 -20z m2717 -1168 c0 -5 3 -18 6 -28 6
-16 5 -16 -9 2 -19 23 -21 35 -7 35 6 0 10 -4 10 -9z"/>
</g>
</svg>
