<?xml version="1.0" standalone="no"?>
<!DOCTYPE svg PUBLIC "-//W3C//DTD SVG 20010904//EN"
 "http://www.w3.org/TR/2001/REC-SVG-20010904/DTD/svg10.dtd">
<svg version="1.0" xmlns="http://www.w3.org/2000/svg"
 width="1536.000000pt" height="359.000000pt" viewBox="0 0 1536.000000 359.000000"
 preserveAspectRatio="xMidYMid meet">
<metadata>
Created by potrace 1.16, written by Peter Selinger 2001-2019
</metadata>
<g transform="translate(0.000000,359.000000) scale(0.100000,-0.100000)"
fill="#000000" stroke="none">
<path d="M6115 3584 c-383 -53 -541 -82 -739 -139 -219 -63 -391 -142 -581
-267 -100 -65 -341 -187 -444 -223 -36 -13 -124 -44 -196 -70 -71 -25 -168
-55 -215 -66 -47 -11 -155 -43 -240 -71 -154 -51 -156 -51 -311 -55 -139 -5
-174 -2 -305 22 -82 14 -205 45 -274 67 -149 48 -370 154 -495 236 -195 128
-306 192 -440 254 -278 129 -460 190 -750 249 -131 27 -177 32 -365 36 -130 3
-237 1 -270 -5 -104 -20 -222 -70 -294 -125 -100 -75 -122 -107 -141 -202 -8
-44 -25 -119 -37 -167 l-21 -87 27 -36 c45 -59 72 -58 82 1 10 58 17 70 72
122 31 28 58 52 60 52 3 0 3 -35 0 -78 -4 -63 -9 -85 -31 -117 -25 -37 -26
-41 -10 -53 49 -36 92 -1 117 97 10 40 25 75 32 78 7 3 45 -2 83 -11 52 -12
124 -16 275 -16 113 0 229 -5 258 -11 82 -16 329 -143 436 -224 52 -38 109
-80 129 -93 19 -13 85 -71 146 -131 120 -115 358 -322 439 -383 76 -57 267
-168 418 -243 292 -145 496 -200 955 -257 150 -18 516 -15 649 5 201 31 364
19 489 -37 32 -14 67 -26 78 -26 44 0 77 -29 108 -94 44 -93 110 -191 184
-274 55 -62 67 -81 73 -120 3 -26 24 -89 46 -140 l41 -93 -22 -65 c-14 -43
-26 -124 -37 -242 -8 -97 -19 -197 -23 -222 -14 -78 -60 -219 -91 -280 -17
-33 -30 -64 -30 -70 0 -6 62 -10 178 -10 173 1 178 1 205 25 29 26 88 185 101
275 11 74 29 140 38 140 5 0 12 -8 15 -17 12 -32 46 -72 84 -99 25 -17 48 -47
72 -97 19 -40 46 -84 60 -98 21 -22 25 -35 24 -74 -2 -59 14 -67 42 -22 23 37
67 53 114 41 20 -4 30 0 48 25 12 17 30 31 38 31 9 0 23 17 33 38 9 20 23 53
32 74 9 20 16 49 16 65 -1 89 -76 188 -181 238 -32 16 -59 33 -59 38 0 14 56
90 84 115 33 28 81 103 135 210 26 51 47 81 54 78 7 -3 50 -17 97 -33 79 -26
96 -28 250 -28 158 0 348 18 399 37 13 5 25 7 27 5 2 -2 14 -55 26 -118 26
-138 30 -359 9 -459 -16 -76 -38 -115 -102 -187 -26 -28 -50 -60 -54 -72 -3
-12 -12 -21 -20 -21 -19 0 -67 -43 -88 -79 l-18 -31 371 0 371 0 21 48 c25 56
39 241 42 572 3 226 7 243 77 319 l31 33 53 -52 c29 -28 67 -81 85 -116 23
-47 58 -89 127 -157 81 -78 102 -105 134 -174 53 -110 56 -131 29 -184 -28
-54 -118 -149 -180 -189 -42 -27 -70 -63 -70 -90 0 -6 129 -10 333 -10 l333 0
43 44 44 44 -6 144 c-8 227 -51 396 -116 451 -15 13 -45 49 -67 82 -21 32 -47
70 -57 84 -23 34 -117 324 -117 361 0 16 -18 63 -39 105 -35 66 -38 77 -23 82
40 13 337 129 457 178 72 30 201 79 288 110 88 31 193 70 235 87 106 42 355
114 482 139 151 30 355 35 575 15 206 -19 217 -21 535 -75 129 -22 285 -46
345 -55 102 -13 406 -56 770 -107 83 -12 161 -26 175 -31 13 -5 76 -16 140
-24 63 -8 156 -24 205 -35 50 -11 169 -31 265 -45 340 -50 308 -41 329 -88 79
-176 401 -440 612 -500 66 -19 173 -36 162 -26 -4 4 -55 26 -113 50 -110 44
-251 122 -337 187 -74 56 -209 215 -227 270 l-16 45 58 -7 c31 -4 84 -13 117
-20 33 -8 126 -23 207 -34 189 -27 602 -29 803 -5 72 9 168 19 215 23 148 14
267 40 428 97 86 30 168 61 182 69 14 8 43 24 65 36 22 11 60 38 85 58 25 20
60 47 78 60 55 38 130 162 163 267 35 111 52 238 39 285 -5 17 -7 35 -5 39 11
17 -31 122 -83 210 -95 157 -226 279 -391 360 -70 35 -321 107 -421 121 -178
25 -374 21 -575 -13 -144 -24 -349 -107 -484 -196 -117 -77 -266 -198 -327
-264 -127 -140 -244 -319 -276 -421 -18 -61 -23 -68 -42 -62 -11 3 -172 44
-356 90 -185 46 -403 107 -485 135 -83 29 -177 60 -210 69 -84 25 -267 98
-415 166 -154 70 -498 214 -940 392 -330 134 -340 137 -665 218 -181 46 -382
97 -445 114 -317 85 -741 139 -1250 161 -264 11 -509 41 -633 76 -231 67 -230
67 -737 70 -256 1 -478 0 -495 -2z m8300 -695 c90 -20 171 -46 225 -71 116
-54 276 -154 326 -204 89 -88 154 -224 154 -320 0 -57 -30 -104 -108 -166
-112 -90 -259 -157 -452 -206 -102 -26 -113 -27 -380 -26 -235 1 -304 5 -475
27 -305 40 -511 74 -743 123 -86 18 -86 10 -8 152 68 125 156 233 281 346 184
166 317 247 512 312 151 51 219 62 383 63 129 1 161 -2 285 -30z"/>
</g>
</svg>
