<?xml version="1.0" standalone="no"?>
<!DOCTYPE svg PUBLIC "-//W3C//DTD SVG 20010904//EN"
 "http://www.w3.org/TR/2001/REC-SVG-20010904/DTD/svg10.dtd">
<svg version="1.0" xmlns="http://www.w3.org/2000/svg"
 width="1536.000000pt" height="1009.000000pt" viewBox="0 0 1536.000000 1009.000000"
 preserveAspectRatio="xMidYMid meet">
<metadata>
Created by potrace 1.16, written by Peter Selinger 2001-2019
</metadata>
<g transform="translate(0.000000,1009.000000) scale(0.100000,-0.100000)"
fill="#000000" stroke="none">
<path d="M3629 10062 c-29 -26 -32 -35 -38 -108 -5 -67 -10 -86 -33 -112 -30
-35 -38 -39 -38 -17 0 9 -6 12 -15 9 -8 -4 -15 -2 -15 4 0 12 -77 -1 -92 -16
-6 -6 -17 -8 -25 -5 -9 4 -23 -3 -32 -14 -14 -18 -36 -21 -184 -32 -94 -6
-183 -17 -202 -25 -18 -8 -58 -35 -89 -59 -42 -35 -66 -47 -103 -52 -26 -4
-72 -11 -102 -16 -30 -5 -73 -9 -95 -9 -105 0 -202 -38 -371 -142 -27 -17 -67
-37 -88 -44 -21 -7 -57 -28 -80 -47 -23 -18 -55 -41 -72 -51 -16 -10 -41 -29
-55 -42 -14 -12 -97 -59 -185 -104 -88 -45 -169 -89 -180 -99 -43 -37 -202
-129 -250 -145 -45 -14 -261 -136 -340 -192 -16 -12 -55 -29 -85 -39 -30 -9
-85 -30 -121 -46 -37 -16 -143 -51 -235 -78 -214 -61 -223 -65 -318 -146 -44
-36 -92 -73 -107 -81 -16 -8 -40 -34 -54 -57 -22 -39 -25 -55 -25 -139 0 -92
1 -98 33 -144 48 -69 63 -102 76 -162 14 -66 80 -199 118 -234 37 -36 73 -48
138 -48 62 0 99 -14 119 -45 21 -31 187 -131 238 -143 24 -6 78 -23 120 -38
l77 -27 52 22 c29 12 81 28 116 36 35 8 80 26 100 39 62 41 153 59 273 54 93
-4 111 -8 153 -32 54 -32 153 -45 199 -27 16 6 36 27 47 49 28 54 82 87 191
117 82 22 115 25 245 25 83 -1 168 -5 190 -10 62 -13 235 -74 284 -100 43 -21
49 -22 175 -12 119 9 138 13 206 46 41 19 96 42 121 50 l47 13 164 -166 c90
-91 182 -188 203 -216 22 -27 94 -107 161 -176 67 -70 140 -153 162 -186 22
-32 64 -80 94 -105 30 -25 88 -85 129 -133 50 -59 118 -120 209 -190 200 -152
217 -173 290 -345 64 -152 118 -243 205 -347 40 -47 54 -72 58 -105 3 -24 16
-126 27 -228 23 -199 58 -383 95 -495 13 -38 26 -87 30 -107 3 -21 34 -93 68
-160 34 -68 75 -154 91 -191 39 -93 96 -179 169 -254 l60 -63 -6 -78 c-7 -86
-37 -192 -96 -334 -21 -51 -53 -140 -70 -198 -17 -57 -44 -129 -60 -160 -16
-30 -42 -89 -59 -130 -16 -41 -48 -106 -71 -144 -40 -69 -96 -204 -124 -301
-27 -90 -58 -159 -91 -200 -69 -83 -134 -195 -169 -291 -69 -186 -78 -232 -88
-459 -10 -191 -15 -229 -55 -413 -25 -112 -67 -272 -95 -355 -27 -84 -57 -183
-65 -222 -18 -76 -66 -166 -124 -230 -20 -22 -48 -56 -63 -76 -17 -24 -39 -40
-64 -47 -166 -49 -253 -88 -253 -116 0 -6 -28 -27 -62 -46 -78 -44 -128 -106
-128 -160 0 -20 6 -43 13 -49 10 -7 106 -12 293 -13 l279 -3 77 29 c116 43
123 52 132 172 8 116 20 139 127 244 l66 65 32 208 c19 129 41 236 58 280 76
209 113 325 113 353 0 43 27 116 66 182 19 31 34 64 34 74 0 10 15 35 33 55
39 44 88 134 116 213 46 131 62 164 98 207 21 25 61 73 90 107 29 33 92 117
140 185 48 68 114 156 146 195 32 39 80 105 107 146 51 78 104 154 193 277 29
40 70 98 92 130 l40 58 8 -133 c4 -73 4 -537 -1 -1030 l-9 -897 -31 -124 c-19
-74 -41 -138 -56 -160 -33 -48 -41 -69 -72 -189 -34 -132 -69 -196 -136 -247
-58 -45 -81 -83 -98 -163 -18 -83 -20 -82 204 -82 l192 0 45 28 c89 57 139
135 139 218 0 28 9 67 24 98 98 211 87 166 102 426 8 129 16 253 19 275 3 22
10 83 16 135 6 52 20 138 31 190 22 101 32 199 47 453 8 130 13 163 30 190 72
115 82 139 105 248 14 63 34 152 45 199 13 54 21 120 21 180 1 190 30 405 64
480 14 30 49 141 80 245 55 193 86 278 105 289 6 4 20 36 31 72 23 76 38 100
83 134 75 56 126 135 173 267 49 139 70 175 111 191 19 8 248 13 723 15 648 4
702 6 795 24 55 11 150 26 210 32 61 6 140 16 178 21 37 6 82 10 101 10 53 0
292 54 426 96 90 28 213 55 375 84 66 11 140 28 165 36 25 9 89 28 142 43 55
16 112 39 132 55 19 14 57 31 83 36 26 5 73 16 103 25 70 19 84 19 126 -1 40
-19 64 -59 64 -106 0 -23 16 -56 55 -112 30 -44 55 -88 55 -97 0 -10 11 -48
24 -86 14 -37 32 -104 41 -148 37 -184 125 -434 231 -655 55 -116 75 -174 120
-354 17 -68 42 -133 80 -205 62 -119 86 -177 150 -371 24 -74 64 -173 88 -220
89 -175 103 -288 52 -415 -47 -115 -61 -137 -151 -236 -47 -52 -111 -125 -141
-164 -30 -38 -82 -104 -115 -145 -33 -41 -67 -90 -75 -109 -8 -19 -48 -85 -88
-145 -40 -61 -89 -140 -109 -176 -46 -85 -217 -307 -267 -346 -21 -17 -73 -73
-114 -125 -141 -175 -123 -160 -205 -175 -92 -17 -130 -39 -156 -87 -25 -47
-13 -71 39 -75 31 -3 36 -7 36 -28 0 -14 6 -39 14 -58 21 -50 56 -60 189 -52
215 14 295 28 336 60 25 20 41 71 32 104 -10 35 18 125 68 214 16 29 32 64 36
78 18 63 42 93 128 162 51 41 111 86 133 100 23 15 78 73 123 130 154 195 216
268 252 297 20 17 53 56 75 88 21 32 52 76 70 98 17 22 40 57 50 77 10 20 78
99 149 175 72 76 142 154 155 173 13 19 65 78 115 130 96 101 145 165 173 228
9 21 38 62 63 92 57 69 61 78 49 141 -10 50 -13 55 -147 222 -23 29 -54 77
-70 107 l-28 55 -3 337 c-2 189 1 338 6 338 24 0 158 -194 177 -257 7 -25 24
-61 38 -81 13 -21 45 -83 70 -140 26 -57 66 -133 90 -170 78 -121 135 -225
224 -407 l88 -180 3 -222 3 -221 -32 -63 c-42 -85 -116 -277 -124 -325 -18
-107 -56 -204 -180 -459 -24 -49 -58 -124 -75 -167 -17 -42 -49 -105 -71 -140
-44 -70 -126 -237 -136 -277 -15 -60 -56 -132 -98 -170 -52 -47 -139 -105
-201 -133 -55 -24 -74 -59 -74 -136 0 -68 10 -82 62 -82 l38 0 0 -54 c0 -36 5
-58 15 -66 20 -17 183 -6 291 19 43 11 99 22 124 26 55 9 87 25 120 60 27 29
26 17 17 250 -2 60 53 190 114 270 40 53 62 116 118 329 40 151 85 255 147
338 148 198 199 261 244 301 30 27 58 65 73 98 22 49 44 97 127 274 15 33 50
86 78 117 28 32 81 98 118 148 37 49 91 108 120 130 58 44 103 124 112 197 5
51 -9 70 -144 190 -124 109 -264 265 -327 363 -19 30 -52 182 -62 285 -4 39
-16 122 -28 185 -28 156 -27 425 2 608 12 70 30 188 41 262 24 152 57 236 149
370 28 41 51 80 51 85 0 34 122 175 177 204 21 10 113 169 128 221 4 14 22 43
40 65 47 58 102 171 115 238 7 33 19 75 27 95 9 21 26 96 38 167 13 72 35 185
49 252 14 67 26 140 26 162 0 23 3 41 6 41 3 0 29 -16 57 -36 65 -46 203 -233
230 -312 10 -31 25 -105 33 -164 8 -60 43 -229 79 -376 36 -147 70 -285 75
-307 29 -117 69 -387 76 -505 11 -209 14 -194 -40 -246 -26 -25 -67 -54 -91
-64 -68 -29 -111 -107 -117 -212 -4 -74 6 -85 45 -52 26 22 33 24 35 11 2 -9
-2 -25 -8 -36 -9 -17 -8 -20 6 -14 15 6 16 2 9 -33 -22 -103 -8 -249 25 -259
17 -5 40 -81 40 -133 0 -15 5 -34 10 -42 8 -12 10 -11 10 7 0 29 16 38 29 16
9 -16 11 -16 20 7 9 23 10 23 10 -13 1 -20 6 -46 12 -56 12 -17 13 -17 33 3
19 19 21 19 24 3 7 -34 22 -5 22 41 0 73 16 84 25 16 4 -31 10 -66 14 -77 7
-18 9 -17 26 9 10 16 21 42 25 59 l6 29 22 -46 c31 -67 42 -68 43 -6 l1 53 17
-63 c18 -71 31 -82 43 -37 8 30 7 38 -17 205 -8 52 -16 130 -18 173 -4 85 5
89 34 15 l16 -42 8 86 c3 48 4 92 0 98 -3 5 1 10 9 10 21 0 20 22 -2 51 -37
48 -72 116 -72 142 0 14 -10 33 -22 44 -32 25 -68 103 -68 146 0 20 -4 38 -9
41 -4 3 -11 128 -14 278 -5 202 -10 287 -22 328 -8 30 -18 109 -21 175 -4 66
-15 161 -26 210 -11 50 -24 146 -28 215 -9 147 -52 421 -74 473 -8 20 -25 71
-36 113 -12 42 -36 97 -55 123 -28 40 -195 351 -291 541 -18 36 -51 83 -74
105 -23 22 -61 69 -85 105 -73 109 -154 199 -210 235 -30 19 -56 39 -60 45 -3
5 -43 38 -88 72 -45 34 -98 75 -118 92 -20 17 -78 65 -130 106 -94 75 -195
165 -367 327 -107 102 -155 135 -318 221 -66 34 -144 83 -174 107 -30 25 -73
58 -95 73 -95 64 -262 209 -426 370 -98 94 -183 172 -191 172 -28 0 -136 59
-208 114 -82 63 -263 156 -303 156 -13 0 -67 11 -118 24 -58 14 -156 28 -254
35 -345 26 -655 62 -715 83 -26 9 -211 14 -700 18 -648 5 -666 6 -710 26 -28
13 -75 23 -125 27 -44 3 -96 12 -115 20 -68 29 -205 39 -440 33 -124 -3 -350
-8 -502 -12 l-278 -5 -1 38 c-1 28 -3 32 -7 13 -4 -23 -5 -24 -12 -5 -7 17 -9
16 -15 -13 -10 -43 -30 -27 -39 31 -10 63 -25 82 -27 32 -1 -22 -5 -53 -9 -70
l-7 -30 -21 45 c-15 34 -21 39 -21 23 -1 -13 -4 -23 -8 -23 -5 0 -41 29 -81
65 -99 88 -100 86 -21 -18 l21 -27 -28 12 c-16 7 -39 23 -50 37 -19 22 -24 24
-38 12 -14 -12 -16 -10 -16 18 0 31 -13 41 -25 21 -4 -6 -15 -8 -24 -5 -12 4
-21 -2 -29 -20 -7 -14 -17 -22 -25 -20 -7 3 -24 -6 -37 -20 -13 -14 -30 -25
-39 -25 -11 0 -12 3 -4 11 16 16 -7 41 -24 27 -10 -8 -13 -5 -13 10 0 27 -10
52 -21 52 -5 0 -9 -7 -9 -15 0 -7 -7 -18 -15 -23 -9 -4 -20 -21 -25 -38 -7
-22 -8 -16 -3 24 5 44 2 56 -13 70 -33 30 -75 17 -94 -29 -7 -16 -16 -29 -20
-29 -14 0 -32 29 -34 54 0 13 -4 22 -8 20 -3 -2 -8 -1 -11 3 -2 5 -3 4 -2 -2
2 -5 -8 -11 -21 -11 -18 -1 -24 3 -24 18 0 10 -4 16 -10 13 -5 -3 -10 -1 -10
6 0 8 -4 8 -16 -2 -14 -11 -15 -9 -9 27 6 42 9 44 -39 -21 l-15 -20 -15 20
c-12 15 -15 16 -16 5 0 -13 -1 -13 -10 0 -7 12 -11 10 -18 -9 -8 -21 -9 -20
-22 20 -13 40 -15 42 -18 17 -3 -24 -6 -27 -22 -18 -10 5 -22 20 -26 32 -7 22
-8 22 -20 -7 -10 -23 -13 -25 -14 -10 0 17 -2 17 -10 5 -8 -12 -10 -10 -11 10
-1 17 -3 20 -6 7 -4 -16 -6 -15 -22 5 l-18 22 -29 -31 c-27 -30 -29 -30 -53
-15 -23 16 -25 15 -45 -12 -35 -48 -86 -108 -86 -102 0 4 9 25 21 47 11 23 15
38 8 34 -9 -6 -10 1 -5 29 8 41 -4 47 -28 14 -10 -15 -14 -17 -10 -5 4 9 2 17
-4 17 -6 0 -7 13 -2 35 4 19 5 35 2 35 -4 0 -24 -19 -45 -42 -36 -41 -37 -41
-22 -11 20 43 19 50 -5 28 -11 -10 -20 -15 -20 -11 0 12 22 51 34 58 7 5 8 8
0 8 -5 0 -23 -13 -38 -29 -25 -26 -31 -28 -43 -16 -8 8 -16 31 -18 52 -2 21
-4 40 -5 43 0 3 -8 -11 -18 -30 -12 -26 -18 -30 -20 -17 -2 10 1 32 7 49 16
45 7 45 -19 1 -21 -33 -24 -36 -29 -18 -4 13 -14 20 -29 20 -18 0 -28 -11 -43
-45 -43 -99 -64 -140 -71 -140 -10 0 -10 3 1 32 14 39 23 105 12 88 -9 -12
-11 -11 -11 7 0 17 -4 21 -17 16 -10 -4 -14 -2 -10 4 14 22 -37 0 -58 -25
l-22 -26 5 32 c5 39 -5 42 -19 5 l-10 -26 -15 22 c-12 17 -19 19 -29 11 -10
-9 -15 -4 -20 19 -4 17 -11 33 -16 36 -10 7 -43 -22 -53 -45 -3 -8 -4 -2 -2
14 4 31 -18 67 -27 43 -3 -7 -6 -4 -6 6 -1 29 -36 4 -67 -48 -30 -51 -39 -57
-29 -17 4 15 8 34 8 42 0 8 4 21 10 28 6 8 6 12 -1 12 -6 0 -16 -9 -22 -20 -6
-11 -16 -20 -21 -20 -6 0 -28 -19 -49 -42 l-37 -42 -7 27 c-3 15 -11 27 -16
27 -6 0 -10 11 -10 25 0 14 -4 25 -10 25 -5 0 -10 10 -11 23 -1 24 -4 18 -14
-27 -8 -38 -21 -24 -38 44 l-14 55 -20 -39 c-20 -39 -20 -39 -39 -19 -10 11
-24 28 -31 39 -11 18 -13 17 -40 -15 -15 -19 -34 -42 -41 -50 -11 -14 -12 -14
-11 4 3 38 -1 37 -36 -1 -21 -22 -35 -32 -36 -23 0 7 -5 1 -11 -15 -8 -21 -13
-25 -19 -15 -5 8 -9 25 -9 39 -1 24 -1 24 -15 -5 -7 -16 -14 -25 -14 -18 -1 7
-11 21 -22 32 -12 11 -19 26 -16 34 3 8 1 20 -4 28 -7 11 -12 10 -27 -9 -16
-21 -19 -21 -40 -7 -12 9 -26 14 -31 11 -5 -4 -11 0 -14 6 -3 7 -10 -2 -17
-19 -7 -18 -16 -33 -21 -33 -5 0 -9 -10 -9 -22 l-1 -23 -18 23 c-22 26 -31 28
-31 8 0 -8 -5 -18 -12 -22 -8 -5 -9 6 -5 41 6 41 5 46 -8 35 -8 -7 -15 -19
-15 -27 0 -8 -4 -12 -9 -8 -6 3 -6 17 -1 34 12 41 0 47 -22 10 -10 -16 -23
-27 -28 -24 -6 3 -10 1 -10 -5 0 -6 -4 -8 -10 -5 -5 3 -16 -10 -24 -28 -20
-48 -37 -57 -30 -15 3 18 10 46 15 62 5 16 9 35 9 42 0 23 -31 16 -52 -11 -25
-32 -54 -35 -38 -4 27 50 -13 22 -58 -40 -18 -24 -32 -40 -32 -35 -1 5 -12 -4
-26 -21 -15 -16 -24 -22 -21 -13 3 9 9 33 13 52 9 48 -15 49 -40 1 -19 -34
-44 -50 -32 -19 3 8 2 13 -3 9 -5 -3 -11 -2 -14 2 -2 5 -2 3 -1 -4 2 -6 -4
-14 -12 -17 -20 -8 -36 38 -28 80 9 47 -3 42 -27 -11 -11 -24 -24 -47 -30 -51
-6 -3 -17 -22 -25 -40 -14 -33 -45 -46 -58 -25 -7 10 -25 9 -42 -2 -15 -9 -24
2 -24 29 0 29 -16 39 -36 23 -13 -11 -18 -10 -26 6 -10 17 -12 16 -24 -11 -7
-16 -13 -22 -14 -14 -1 20 -29 -29 -30 -52 0 -10 -4 -18 -10 -18 -17 0 -28 33
-23 74 l4 41 -14 -30 -14 -30 -32 57 c-57 100 -121 124 -182 70z m2452 -269
c-12 -20 -14 -14 -5 12 4 9 9 14 11 11 3 -2 0 -13 -6 -23z m1399 -238 c14 -19
14 -19 -2 -6 -10 7 -18 18 -18 24 0 6 1 8 3 6 1 -2 9 -13 17 -24z m7351 -5382
c-8 -15 -10 -15 -11 -2 0 17 10 32 18 25 2 -3 -1 -13 -7 -23z m-51 -83 c0 -5
-5 -10 -11 -10 -5 0 -7 5 -4 10 3 6 8 10 11 10 2 0 4 -4 4 -10z m87 -222 c-3
-8 -6 -5 -6 6 -1 11 2 17 5 13 3 -3 4 -12 1 -19z m13 -89 c0 -5 -4 -9 -10 -9
-5 0 -10 7 -10 16 0 8 5 12 10 9 6 -3 10 -10 10 -16z"/>
<path d="M6185 9860 c-3 -5 -1 -10 4 -10 6 0 11 5 11 10 0 6 -2 10 -4 10 -3 0
-8 -4 -11 -10z"/>
</g>
</svg>
