<?xml version="1.0" standalone="no"?>
<!DOCTYPE svg PUBLIC "-//W3C//DTD SVG 20010904//EN"
 "http://www.w3.org/TR/2001/REC-SVG-20010904/DTD/svg10.dtd">
<svg version="1.0" xmlns="http://www.w3.org/2000/svg"
 width="1536.000000pt" height="948.000000pt" viewBox="0 0 1536.000000 948.000000"
 preserveAspectRatio="xMidYMid meet">
<metadata>
Created by potrace 1.16, written by Peter Selinger 2001-2019
</metadata>
<g transform="translate(0.000000,948.000000) scale(0.100000,-0.100000)"
fill="#000000" stroke="none">
<path d="M6400 9444 c-211 -28 -333 -51 -430 -82 -19 -6 -57 -18 -85 -26 -67
-20 -134 -44 -170 -60 -16 -8 -51 -21 -77 -30 -26 -9 -56 -20 -65 -25 -10 -6
-61 -29 -113 -52 -52 -22 -115 -53 -140 -67 -86 -49 -305 -195 -358 -239 -30
-23 -57 -43 -60 -43 -9 -1 -69 -55 -248 -226 -214 -205 -313 -317 -619 -704
-29 -36 -69 -92 -91 -125 -21 -33 -42 -64 -47 -70 -4 -5 -16 -22 -25 -36 -51
-78 -82 -121 -110 -156 -49 -58 -189 -272 -252 -385 -8 -15 -42 -74 -74 -130
-33 -57 -83 -150 -112 -207 -30 -57 -58 -108 -63 -115 -5 -6 -20 -45 -34 -86
-50 -146 -97 -275 -107 -292 -6 -10 -10 -29 -10 -43 0 -14 -7 -39 -15 -55 -20
-39 -44 -203 -47 -320 l-3 -95 -290 -8 c-397 -11 -448 -10 -540 4 -106 17
-301 17 -395 0 -192 -35 -484 -100 -595 -132 -148 -44 -324 -122 -425 -189
-14 -9 -72 -48 -128 -86 -57 -38 -118 -77 -135 -88 -18 -10 -34 -22 -35 -27
-2 -5 -10 -9 -17 -9 -7 0 -28 -14 -46 -32 -19 -17 -71 -58 -117 -90 -120 -86
-215 -185 -253 -266 -53 -113 -59 -138 -59 -253 0 -121 13 -184 58 -278 54
-110 65 -114 105 -38 52 101 106 139 245 175 61 16 70 15 210 -6 205 -32 234
-37 262 -50 14 -5 46 -16 73 -23 51 -13 67 -26 47 -39 -9 -6 -366 -5 -408 1
-39 6 -40 -10 -8 -77 39 -80 80 -129 178 -210 74 -61 123 -91 238 -146 154
-74 313 -131 395 -143 28 -4 61 -12 75 -17 14 -5 97 -13 185 -17 88 -4 169
-13 180 -19 11 -6 49 -18 85 -26 152 -35 290 -71 550 -145 57 -16 240 -78 295
-100 11 -4 36 -13 55 -20 198 -66 337 -116 348 -124 12 -9 11 -53 -3 -123 -5
-22 -106 -103 -217 -174 -38 -24 -68 -46 -68 -50 0 -4 -39 -34 -87 -66 -96
-64 -193 -149 -193 -170 0 -7 -6 -17 -14 -21 -21 -13 -126 -269 -126 -309 0
-13 -6 -41 -14 -61 -52 -141 -86 -285 -105 -438 -5 -44 -13 -98 -18 -120 -16
-71 -9 -489 9 -599 9 -54 22 -104 27 -109 6 -6 11 -23 11 -38 0 -15 7 -40 15
-55 8 -16 15 -37 15 -47 0 -9 4 -25 9 -35 6 -9 22 -44 37 -77 37 -80 127 -214
180 -268 53 -54 166 -138 239 -176 33 -18 67 -36 75 -41 8 -5 33 -16 55 -25
22 -9 53 -23 68 -31 16 -8 36 -14 45 -14 8 0 23 -6 31 -14 9 -7 43 -23 76 -34
33 -11 74 -25 90 -31 78 -28 196 -61 250 -70 33 -6 85 -18 115 -26 30 -9 96
-20 145 -25 50 -5 110 -13 135 -19 71 -15 584 -24 665 -12 77 12 191 34 245
49 47 13 206 85 238 109 33 25 27 49 -35 132 -179 240 -262 381 -314 533 -24
73 -24 94 2 171 12 34 27 103 34 152 19 127 39 216 55 245 10 17 15 71 18 167
3 86 8 143 14 143 6 0 27 -8 47 -19 84 -43 230 -111 281 -130 30 -12 64 -26
75 -31 57 -26 171 -70 182 -70 6 0 24 -6 40 -14 55 -28 101 -46 120 -46 10 0
23 -4 28 -9 10 -10 76 -36 130 -51 17 -5 62 -20 100 -34 39 -14 79 -26 90 -26
12 0 26 -5 33 -12 6 -6 30 -14 54 -19 94 -16 164 -32 180 -40 10 -5 33 -9 53
-9 19 0 54 -6 77 -14 24 -8 75 -17 113 -20 39 -3 169 -21 290 -40 464 -74 839
-105 1370 -113 775 -11 1430 48 2100 187 83 18 175 33 205 35 64 4 157 19 218
34 23 6 61 16 85 22 23 6 65 14 92 19 28 5 68 13 90 18 22 6 88 19 147 31 60
11 117 25 127 31 11 5 34 10 51 10 17 0 47 7 67 15 19 8 47 15 62 15 15 0 32
5 38 11 6 6 38 13 72 16 33 3 61 9 61 13 0 4 39 11 88 15 48 4 114 13 147 21
33 7 111 14 173 14 112 0 125 -3 192 -41 8 -5 22 -12 30 -16 28 -12 148 -113
173 -146 69 -90 256 -266 381 -360 28 -21 76 -64 108 -95 79 -80 303 -242 334
-242 6 0 30 -14 52 -30 23 -17 46 -30 51 -30 6 0 32 -12 58 -28 120 -69 418
-188 528 -212 22 -5 69 -16 105 -25 36 -9 93 -20 128 -25 35 -5 68 -12 74 -16
6 -4 56 -11 112 -15 56 -5 139 -13 186 -18 129 -15 278 -13 334 4 27 8 68 15
91 15 26 0 48 6 55 15 7 8 27 15 45 15 100 0 273 135 315 245 35 93 36 138 5
230 -25 73 -27 89 -22 185 7 129 -3 177 -51 243 -44 60 -102 168 -102 190 0 8
-6 28 -14 44 -8 15 -22 46 -31 68 -14 35 -32 71 -69 140 -18 33 -99 139 -116
152 -9 6 -42 51 -75 100 -32 48 -75 104 -95 123 -55 53 -101 90 -111 90 -5 0
-27 11 -48 25 -70 47 -264 145 -286 145 -7 0 -18 7 -25 15 -7 8 -19 15 -27 15
-8 0 -27 6 -41 14 -15 7 -38 18 -52 24 -14 6 -47 20 -74 31 -27 12 -57 21 -67
21 -10 0 -33 6 -51 14 -18 8 -60 22 -93 31 -33 10 -75 24 -93 31 -18 8 -38 14
-45 14 -20 0 -171 66 -216 94 -22 14 -44 26 -48 26 -19 1 -199 148 -215 175
-15 27 -68 206 -85 285 -2 14 -12 40 -21 58 -23 45 -8 64 59 78 30 6 64 16 76
22 12 7 31 12 42 12 12 0 29 4 39 9 21 11 140 31 247 43 44 4 89 9 100 11 11
2 65 7 120 11 55 4 133 14 174 22 48 9 139 14 265 14 105 0 220 5 256 11 36 6
101 14 145 19 143 15 269 46 307 77 7 6 23 14 35 17 12 4 36 23 52 42 41 46
42 95 4 131 -29 26 -222 123 -247 123 -8 0 -27 6 -43 14 -15 8 -55 20 -88 26
-33 7 -73 16 -90 22 -16 5 -50 13 -75 18 -25 4 -58 13 -75 18 -16 6 -48 15
-70 21 -56 14 -204 59 -305 92 -180 58 -560 264 -560 303 0 14 68 26 155 26
49 0 460 43 580 60 91 13 177 34 202 48 12 6 31 12 42 12 27 0 139 48 177 76
24 17 35 37 44 73 11 47 10 54 -11 88 -53 90 -177 186 -279 219 -30 9 -59 21
-64 25 -6 5 -21 9 -34 9 -13 0 -70 11 -126 25 -245 60 -361 80 -591 105 -49 5
-117 14 -150 20 -33 5 -103 13 -156 16 l-96 6 -27 66 c-273 666 -1409 1288
-2986 1636 -1175 260 -2512 339 -3710 220 -85 -8 -249 -28 -364 -45 -115 -16
-210 -28 -212 -27 -10 11 176 372 252 488 27 41 51 80 54 85 9 18 65 100 71
105 4 3 28 41 54 85 26 44 53 87 60 95 12 14 52 87 124 226 37 71 94 155 176
256 38 48 86 108 105 133 19 26 69 88 110 137 41 50 85 105 97 122 12 17 28
38 35 46 23 26 98 130 98 136 0 3 11 20 24 37 42 57 78 138 83 193 5 44 1 62
-24 116 -46 97 -121 173 -218 218 -159 74 -309 85 -615 44z"/>
</g>
</svg>
