<?xml version="1.0" standalone="no"?>
<!DOCTYPE svg PUBLIC "-//W3C//DTD SVG 20010904//EN"
 "http://www.w3.org/TR/2001/REC-SVG-20010904/DTD/svg10.dtd">
<svg version="1.0" xmlns="http://www.w3.org/2000/svg"
 width="1536.000000pt" height="1145.000000pt" viewBox="0 0 1536.000000 1145.000000"
 preserveAspectRatio="xMidYMid meet">
<metadata>
Created by potrace 1.16, written by Peter Selinger 2001-2019
</metadata>
<g transform="translate(0.000000,1145.000000) scale(0.100000,-0.100000)"
fill="#000000" stroke="none">
<path d="M2665 11444 c-11 -2 -45 -9 -75 -15 -30 -6 -107 -28 -171 -50 -141
-47 -237 -64 -476 -84 -213 -18 -301 -39 -427 -98 -113 -54 -191 -106 -406
-272 -91 -70 -195 -142 -232 -161 -99 -50 -320 -120 -518 -165 -206 -46 -296
-73 -330 -99 -21 -16 -25 -27 -25 -72 0 -44 9 -70 53 -156 62 -121 74 -186 61
-332 -24 -270 -25 -245 7 -276 16 -15 101 -62 189 -104 159 -77 201 -108 176
-133 -8 -8 -57 -2 -173 21 -181 36 -248 40 -272 16 -20 -19 -20 -31 -1 -83 29
-82 225 -358 284 -400 52 -37 175 -70 426 -113 235 -40 261 -43 443 -43 l193
0 39 -43 c81 -87 167 -105 500 -100 227 3 237 2 285 -20 96 -44 213 -181 384
-447 172 -267 253 -353 476 -507 153 -104 241 -153 299 -163 29 -6 36 -11 31
-24 -16 -41 -23 -161 -14 -233 13 -103 43 -204 132 -444 98 -263 111 -315 111
-444 0 -93 -5 -123 -44 -265 l-44 -160 2 -425 c1 -267 7 -501 17 -630 34 -459
30 -691 -14 -857 -32 -120 -122 -301 -299 -598 -246 -414 -302 -553 -442
-1086 -85 -322 -140 -487 -225 -669 -89 -191 -96 -214 -136 -423 -40 -215 -62
-261 -139 -299 -30 -15 -120 -46 -200 -69 -174 -50 -223 -74 -361 -183 -59
-46 -126 -93 -150 -104 -24 -12 -122 -42 -216 -67 -201 -52 -280 -82 -345
-130 -72 -53 -102 -104 -106 -184 -2 -36 0 -76 5 -88 8 -21 11 -19 96 39 49
33 91 58 93 55 3 -2 7 -42 11 -88 l6 -84 271 -1 c149 0 390 -8 536 -18 301
-19 697 -22 845 -6 203 22 390 70 538 137 l77 36 0 46 c0 187 119 358 410 589
370 295 448 382 496 562 16 60 25 73 114 165 212 221 348 426 680 1020 95 171
187 330 203 354 29 43 125 155 277 326 94 105 165 205 204 285 l31 65 0 215 0
215 54 155 c30 85 59 158 65 163 6 4 24 6 40 5 27 -3 30 -8 48 -73 20 -75 81
-203 203 -430 150 -279 265 -726 300 -1165 23 -295 55 -423 212 -875 152 -434
197 -624 210 -881 l6 -132 -34 -21 c-44 -27 -120 -27 -251 -1 -66 14 -116 19
-144 14 -57 -8 -125 -52 -163 -105 -60 -82 -125 -290 -137 -439 l-6 -75 73 -1
c46 -1 121 -13 199 -33 149 -38 238 -46 760 -63 565 -19 680 -18 765 10 92 30
153 76 188 140 33 60 103 350 141 582 66 404 79 680 73 1640 -4 728 -6 793
-30 1065 -14 160 -28 328 -32 375 -6 80 -8 86 -35 102 -40 23 -77 82 -96 158
-13 52 -16 93 -11 205 3 77 8 147 12 156 4 11 28 21 68 29 34 6 118 38 187 70
69 32 143 63 165 69 67 19 341 33 500 27 268 -12 387 -35 662 -131 87 -31 229
-74 317 -96 272 -69 329 -102 366 -213 11 -34 33 -124 50 -201 50 -236 199
-813 236 -914 54 -148 197 -429 370 -726 178 -306 276 -502 327 -655 173 -516
192 -590 185 -720 -11 -181 -135 -302 -420 -410 -147 -55 -205 -69 -338 -81
-154 -14 -207 -30 -254 -76 -51 -51 -63 -77 -90 -196 -13 -56 -26 -109 -30
-118 -6 -13 10 -20 91 -42 253 -67 526 -115 808 -142 197 -19 619 -30 777 -21
l116 8 6 33 c9 47 80 139 167 217 147 131 317 264 454 357 236 159 283 201
336 301 21 39 24 58 23 140 -1 115 -13 152 -115 330 -108 191 -112 204 -160
455 -36 187 -46 400 -22 440 l12 20 1 -20 c0 -29 60 -161 103 -226 54 -84 139
-188 281 -344 169 -185 251 -288 309 -388 88 -153 145 -334 127 -411 -13 -58
-52 -91 -157 -132 -147 -57 -275 -170 -371 -329 -37 -61 -72 -162 -72 -209 l0
-34 148 -7 c81 -4 258 -5 395 -2 247 5 247 5 267 29 10 14 45 39 77 56 90 48
340 133 417 143 39 4 93 20 125 35 82 40 216 180 353 369 64 88 152 200 196
249 105 117 127 160 127 251 0 107 -32 164 -138 247 -63 50 -90 78 -112 121
-16 31 -31 54 -34 52 -8 -9 -80 93 -115 162 -48 97 -75 171 -125 343 -76 261
-113 363 -196 532 -181 368 -232 646 -222 1216 5 330 16 452 87 1017 90 714
106 924 97 1265 -7 249 -21 368 -72 635 -46 239 -62 345 -75 495 -24 266 -58
397 -153 587 -148 293 -412 612 -720 868 -149 123 -217 170 -397 268 -85 46
-187 105 -227 130 -134 86 -182 106 -441 187 -211 65 -255 86 -372 170 -120
86 -142 95 -296 125 -147 28 -193 49 -404 181 -292 183 -447 237 -820 284
-132 17 -889 25 -1055 11 -246 -21 -485 -77 -805 -191 -80 -28 -165 -53 -190
-55 -25 -2 -142 -10 -260 -19 -118 -8 -251 -21 -295 -28 -108 -17 -529 -17
-617 0 -129 24 -239 62 -451 156 -245 109 -378 152 -711 230 -350 83 -368 85
-706 96 -350 12 -505 29 -634 70 -118 39 -199 85 -376 214 -184 134 -276 182
-486 252 -195 65 -248 90 -480 229 -265 160 -369 207 -528 241 -70 15 -321 28
-361 18z"/>
</g>
</svg>
