<?xml version="1.0" standalone="no"?>
<!DOCTYPE svg PUBLIC "-//W3C//DTD SVG 20010904//EN"
 "http://www.w3.org/TR/2001/REC-SVG-20010904/DTD/svg10.dtd">
<svg version="1.0" xmlns="http://www.w3.org/2000/svg"
 width="1536.000000pt" height="630.000000pt" viewBox="0 0 1536.000000 630.000000"
 preserveAspectRatio="xMidYMid meet">
<metadata>
Created by potrace 1.16, written by Peter Selinger 2001-2019
</metadata>
<g transform="translate(0.000000,630.000000) scale(0.100000,-0.100000)"
fill="#000000" stroke="none">
<path d="M317 6286 c-68 -20 -112 -58 -169 -145 -27 -42 -71 -97 -98 -122 -44
-41 -50 -51 -50 -87 0 -62 20 -67 103 -26 37 18 67 30 67 26 0 -4 4 -2 8 3 12
17 52 36 62 30 24 -15 7 -59 -47 -128 -31 -40 -60 -74 -63 -77 -14 -11 -18
-39 -7 -48 37 -28 56 -21 113 44 80 92 117 109 229 108 108 0 168 -20 283 -97
92 -61 277 -242 355 -348 31 -42 104 -155 163 -250 201 -329 313 -485 548
-769 434 -524 773 -846 1175 -1119 80 -54 305 -194 500 -311 408 -244 596
-365 665 -429 102 -95 157 -214 191 -416 9 -55 25 -119 36 -142 24 -49 87
-108 169 -158 l57 -35 7 -172 c3 -95 11 -257 17 -360 l10 -186 -110 -219 c-60
-120 -136 -262 -167 -317 -51 -89 -58 -108 -70 -195 -8 -53 -26 -128 -40 -168
-27 -73 -27 -103 0 -103 10 0 13 -6 9 -17 -5 -13 -3 -15 13 -7 10 5 71 9 134
9 l115 0 7 118 c12 184 46 256 221 465 41 50 73 80 78 75 14 -14 20 -557 7
-625 -16 -87 -12 -89 141 -86 l126 3 1 270 c1 277 8 351 49 561 26 132 25 162
-14 324 -11 47 -29 144 -40 215 -11 72 -24 150 -30 175 -5 24 -9 46 -7 47 1 2
76 -22 167 -52 237 -80 535 -169 695 -209 262 -64 435 -86 679 -86 203 0 341
15 497 55 31 8 29 15 48 -215 6 -79 23 -187 40 -260 53 -223 51 -445 -5 -567
-26 -57 -36 -64 -130 -84 -81 -17 -129 -44 -154 -89 -32 -58 -27 -99 10 -79
11 5 19 6 19 2 0 -10 47 -10 56 0 3 3 17 2 31 -4 34 -13 389 -12 414 1 18 10
19 23 19 168 0 189 16 301 70 487 22 77 40 148 40 157 0 26 7 23 43 -19 18
-21 59 -67 91 -103 68 -75 109 -136 165 -246 37 -73 81 -192 81 -221 0 -23
-42 -51 -88 -58 -94 -14 -150 -74 -143 -153 1 -10 6 -10 21 -2 11 6 20 7 20 2
0 -11 54 -14 215 -16 111 -1 124 1 180 27 71 33 115 72 115 102 0 25 -77 204
-120 281 -42 74 -86 206 -115 346 -32 156 -70 276 -104 330 l-26 43 6 160 c4
88 7 192 8 231 l1 71 88 33 c119 44 147 63 190 128 29 44 47 60 82 73 173 66
222 81 308 98 194 40 432 51 667 31 614 -53 1402 -193 2195 -390 600 -150 751
-181 1050 -219 410 -53 592 -62 1335 -71 783 -10 790 -10 1308 -111 149 -29
212 -38 220 -30 15 15 -32 33 -211 82 -434 120 -736 170 -1262 209 -403 30
-842 90 -1220 167 -317 64 -562 136 -1045 308 -692 246 -1414 466 -2083 634
-300 75 -412 99 -772 161 -129 23 -239 45 -244 51 -6 5 -29 9 -53 9 -23 0
-129 18 -235 40 -162 33 -196 43 -210 62 -15 21 -25 23 -105 23 -65 0 -117 8
-198 29 -96 25 -114 33 -143 64 l-33 36 -86 -3 c-71 -2 -108 3 -211 30 -116
31 -126 35 -155 71 l-31 39 -92 -7 c-81 -6 -105 -3 -209 22 -108 26 -120 32
-139 61 -12 18 -27 35 -34 38 -7 2 -44 -1 -83 -7 -62 -11 -81 -10 -191 12 -90
18 -130 31 -150 49 -25 20 -35 22 -83 16 -70 -8 -335 31 -352 53 -10 11 -40
15 -135 17 -94 1 -207 15 -478 58 -195 32 -415 66 -488 78 -422 65 -850 229
-1337 509 -333 192 -518 332 -985 742 -215 189 -313 297 -656 718 -205 253
-436 474 -642 614 -181 123 -307 166 -507 172 -91 2 -144 -1 -178 -10z"/>
</g>
</svg>
