<?xml version="1.0" standalone="no"?>
<!DOCTYPE svg PUBLIC "-//W3C//DTD SVG 20010904//EN"
 "http://www.w3.org/TR/2001/REC-SVG-20010904/DTD/svg10.dtd">
<svg version="1.0" xmlns="http://www.w3.org/2000/svg"
 width="1536.000000pt" height="511.000000pt" viewBox="0 0 1536.000000 511.000000"
 preserveAspectRatio="xMidYMid meet">
<metadata>
Created by potrace 1.16, written by Peter Selinger 2001-2019
</metadata>
<g transform="translate(0.000000,511.000000) scale(0.100000,-0.100000)"
fill="#000000" stroke="none">
<path d="M13280 5070 c-166 -44 -232 -66 -465 -153 -233 -88 -395 -113 -635
-97 -153 11 -167 13 -325 53 -98 25 -286 54 -515 79 -150 17 -802 16 -960 -1
-343 -37 -568 -88 -945 -215 -130 -44 -157 -49 -525 -101 -241 -33 -706 -49
-1240 -42 -542 7 -856 26 -1810 108 -471 41 -1844 37 -2485 -7 -496 -33 -1047
-91 -1280 -134 -88 -16 -214 -38 -280 -50 -124 -21 -385 -78 -512 -111 -135
-35 -388 -131 -558 -211 -93 -44 -207 -97 -253 -119 -45 -21 -131 -66 -190
-100 -89 -51 -123 -78 -204 -163 -54 -55 -98 -104 -98 -109 0 -4 12 -4 26 -1
14 4 49 8 77 9 29 1 63 6 76 10 21 7 23 6 18 -10 -9 -21 9 -45 32 -45 10 0 36
16 59 36 36 30 42 33 42 16 0 -23 28 -82 39 -82 5 0 31 18 59 40 l51 41 25
-26 c14 -14 29 -25 33 -25 4 0 28 16 53 36 l45 36 8 -36 c5 -20 12 -36 17 -36
4 0 28 16 53 35 54 41 57 42 81 14 12 -15 24 -19 39 -14 12 4 37 8 56 9 25 1
42 11 65 38 31 36 32 36 74 25 33 -9 47 -8 62 1 26 16 30 15 30 -5 1 -11 16
-25 37 -35 36 -17 38 -17 60 4 13 12 35 42 49 66 28 47 41 51 24 8 -5 -15 -10
-32 -10 -37 0 -14 52 -11 84 6 15 8 36 15 46 15 9 0 34 11 54 25 20 14 43 25
51 25 8 0 26 16 41 35 29 38 44 38 44 -1 0 -33 38 -32 78 1 25 21 36 24 80 18
37 -4 56 -1 73 11 13 9 44 16 69 16 25 0 54 7 64 15 11 8 30 15 43 15 13 0 31
12 44 29 l22 30 18 -22 c16 -20 20 -21 51 -8 18 7 64 17 102 23 38 5 83 15
100 22 31 14 53 20 138 36 26 5 56 13 67 19 26 14 31 14 25 -3 -3 -8 -1 -17 4
-20 10 -6 115 26 181 55 31 14 47 17 54 10 18 -18 49 -12 89 15 l37 26 24 -27
23 -28 39 19 c29 14 40 15 43 5 13 -40 92 -30 162 20 l43 31 16 -21 c13 -17
23 -20 49 -15 19 4 38 2 47 -6 8 -6 20 -8 27 -4 11 7 134 16 196 14 97 -3 230
9 263 24 12 5 18 1 22 -13 4 -16 16 -20 78 -25 162 -11 227 -15 291 -15 37 0
76 -5 87 -11 15 -7 49 -8 113 -1 l93 9 26 -31 26 -31 53 13 c51 13 53 13 71
-10 16 -21 20 -22 55 -11 29 9 44 8 70 -3 25 -10 66 -13 151 -10 103 3 124 1
161 -17 26 -12 52 -18 67 -14 35 9 117 -13 136 -36 14 -18 21 -19 65 -10 43 9
50 8 62 -9 12 -17 22 -18 118 -12 100 6 106 5 129 -17 20 -19 32 -22 75 -18
28 3 53 1 56 -3 3 -5 26 -9 51 -9 29 0 53 -6 64 -16 17 -15 23 -15 64 -2 44
15 46 15 71 -9 20 -18 37 -24 72 -24 96 1 145 -10 165 -36 17 -21 25 -24 51
-18 33 8 90 8 251 -1 138 -7 182 -14 196 -30 14 -17 45 -18 87 -3 25 8 35 7
56 -6 20 -13 37 -16 70 -11 24 4 47 3 50 -2 3 -5 43 -8 88 -7 50 1 89 -3 98
-10 27 -22 46 -23 79 -8 30 15 33 15 45 -3 13 -17 18 -17 50 -6 31 11 40 11
64 -4 26 -15 31 -15 58 -1 36 18 163 12 171 -9 4 -10 28 -11 106 -7 56 4 130
6 165 5 35 -1 73 3 84 9 15 8 28 7 54 -6 33 -15 37 -15 61 0 20 14 30 15 50 6
21 -9 33 -8 69 10 42 21 44 22 63 5 15 -14 29 -16 59 -11 29 4 49 2 72 -10 30
-15 33 -15 65 4 33 19 34 19 71 0 21 -10 46 -19 55 -19 29 0 97 -35 118 -61
17 -20 22 -22 30 -9 8 12 12 9 20 -12 14 -36 29 -43 52 -22 18 17 20 16 42 -4
13 -12 28 -22 34 -22 5 0 18 -9 28 -20 10 -11 24 -20 31 -20 7 0 14 -12 16
-27 2 -20 13 -33 40 -48 26 -13 38 -27 38 -41 0 -12 10 -43 22 -70 17 -39 21
-65 19 -126 -1 -43 2 -95 8 -115 5 -21 15 -63 21 -93 5 -31 20 -71 33 -89 12
-19 31 -50 43 -70 14 -25 28 -37 47 -39 15 -2 27 -8 27 -13 0 -6 -49 -61 -108
-123 -60 -61 -125 -139 -145 -171 -68 -114 -116 -202 -122 -227 -4 -14 -26
-39 -51 -56 -28 -21 -44 -39 -44 -53 0 -27 -37 -79 -56 -79 -8 0 -33 -17 -57
-39 -23 -21 -62 -51 -87 -66 -24 -15 -51 -37 -60 -47 -9 -11 -45 -32 -80 -47
-46 -20 -65 -33 -65 -46 0 -13 -14 -23 -44 -33 -30 -10 -68 -38 -123 -93 -45
-44 -84 -79 -89 -79 -5 0 -16 -12 -25 -26 -15 -22 -15 -27 -3 -34 11 -8 11
-12 -5 -23 -18 -13 -17 -15 14 -30 18 -10 39 -17 47 -17 18 0 18 2 -27 -104
l-40 -93 0 -214 c0 -268 -8 -317 -70 -445 -44 -93 -53 -103 -92 -123 -25 -11
-55 -21 -69 -22 -22 0 -22 -1 9 -17 27 -13 41 -14 80 -5 26 5 56 14 66 18 19
8 19 8 -1 -21 -45 -64 -39 -120 21 -175 21 -18 36 -42 36 -54 0 -29 44 -89
113 -152 67 -61 131 -80 231 -68 34 4 143 10 243 13 l183 7 29 32 c33 36 53
35 111 -4 43 -29 50 -29 50 0 0 31 -60 100 -107 123 -34 17 -60 19 -257 16
l-219 -2 -44 45 c-23 25 -43 52 -43 60 0 8 0 18 0 22 0 4 17 6 38 4 32 -2 51
6 113 48 113 76 195 154 215 206 20 53 14 91 -21 143 -14 20 -25 48 -25 62 0
35 50 111 96 146 35 27 45 29 139 32 87 3 112 0 176 -21 41 -14 76 -23 79 -21
8 8 -53 52 -115 82 -68 34 -182 62 -248 62 -70 0 -169 -35 -235 -85 -95 -69
-133 -151 -133 -288 -1 -83 -17 -117 -54 -117 -14 0 -34 9 -46 21 -17 17 -20
29 -15 67 3 26 8 97 12 157 8 137 38 259 98 395 54 123 91 172 149 198 23 10
72 42 109 70 37 28 89 63 115 78 27 15 57 35 68 45 24 21 154 89 246 129 37
15 86 42 109 59 24 17 52 31 64 31 12 0 32 9 46 20 14 11 29 20 34 20 14 0
145 89 226 152 86 69 231 208 333 321 50 55 73 74 79 65 11 -18 9 -354 -2
-406 -18 -74 -170 -418 -216 -487 -24 -36 -44 -72 -44 -79 0 -7 -18 -36 -40
-64 -44 -55 -47 -62 -25 -62 23 0 18 -16 -10 -34 -14 -9 -25 -22 -25 -29 0
-16 78 -50 97 -42 12 4 13 1 7 -12 -5 -10 -9 -58 -9 -108 0 -135 14 -162 141
-276 86 -77 215 -209 328 -337 15 -17 22 -44 27 -105 8 -89 3 -109 -39 -144
-21 -18 -23 -23 -10 -23 41 0 98 33 120 69 12 20 23 38 25 40 8 11 49 -41 73
-95 43 -96 50 -99 253 -113 233 -17 575 -18 605 -2 13 7 27 23 32 37 8 19 16
24 47 24 20 0 56 -10 80 -21 24 -12 47 -18 51 -15 13 14 -33 78 -73 102 -63
37 -183 54 -259 38 -34 -7 -105 -13 -159 -14 -87 0 -105 3 -172 31 -94 40
-106 53 -68 72 44 24 68 55 117 156 53 110 58 153 27 270 -22 85 -17 117 30
174 63 77 183 119 316 110 64 -4 66 -3 43 11 -40 24 -156 39 -259 34 -79 -4
-108 -10 -163 -36 -77 -35 -144 -97 -176 -162 -30 -62 -52 -188 -52 -296 0
-119 -10 -130 -84 -91 -107 56 -358 302 -408 401 -17 33 -21 66 -26 188 l-5
148 50 48 c27 26 63 75 80 107 16 33 48 96 71 140 23 44 42 85 42 90 0 6 25
55 57 110 31 55 69 126 85 158 16 32 35 57 44 57 14 0 14 -2 0 -22 -20 -29
-20 -56 0 -60 14 -3 13 -7 -5 -30 -25 -31 -27 -56 -6 -64 22 -9 18 -27 -10
-54 -29 -27 -32 -45 -8 -59 15 -8 13 -14 -21 -51 -46 -51 -44 -74 7 -78 20 -2
37 -6 37 -9 0 -3 -11 -19 -26 -35 -16 -20 -24 -40 -22 -57 3 -22 8 -26 34 -26
l32 0 -30 -34 -31 -35 23 -18 c27 -22 56 -23 94 -3 33 18 45 13 25 -11 -11
-14 -11 -18 6 -30 26 -19 44 -18 109 11 31 14 69 25 85 25 16 0 51 15 77 32
27 18 66 42 87 52 21 11 66 45 100 76 104 93 185 150 217 150 6 0 10 -35 10
-95 0 -107 14 -147 69 -199 36 -35 39 -30 10 19 -18 29 -21 47 -16 93 5 59 54
199 84 242 26 36 51 139 63 260 19 181 42 352 50 374 6 13 9 -19 9 -89 1 -103
4 -117 35 -194 39 -94 48 -107 87 -127 32 -16 125 -19 134 -4 3 6 -3 10 -14
10 -34 0 -67 20 -87 53 -15 25 -19 52 -20 122 0 50 -4 133 -9 186 -6 69 -3
141 10 265 14 133 15 178 6 211 -11 42 -53 107 -181 283 -84 116 -97 137 -84
150 5 5 45 16 88 25 183 38 458 159 568 251 78 64 129 147 169 277 l31 97 60
42 c58 39 212 108 242 108 7 0 41 18 74 40 33 22 64 40 70 40 5 0 30 11 54 25
25 14 78 31 119 39 41 8 108 23 149 35 65 18 85 19 154 11 43 -5 82 -8 86 -5
4 3 13 -2 20 -10 16 -19 61 -19 106 0 34 14 35 14 28 -7 -5 -17 -3 -20 10 -15
9 4 23 10 32 14 13 5 15 2 9 -15 -5 -16 -2 -22 9 -22 9 0 16 -4 16 -10 0 -5
15 -10 33 -9 44 1 137 -19 168 -36 25 -14 70 -27 156 -45 138 -30 332 -112
490 -207 68 -41 187 -105 265 -143 149 -73 196 -84 252 -58 34 15 57 50 45 69
-5 8 -9 24 -9 36 0 15 -5 21 -14 17 -7 -3 -16 2 -20 11 -3 9 -10 13 -16 10 -5
-3 -10 -1 -10 5 0 7 -8 9 -20 5 -11 -4 -20 -2 -20 4 0 6 -6 8 -14 5 -14 -5
-46 20 -46 37 0 6 -9 7 -20 4 -14 -5 -20 -2 -20 10 0 9 -4 13 -10 10 -5 -3
-12 6 -16 20 -6 24 -24 35 -24 14 0 -5 -4 -7 -10 -4 -5 3 -10 15 -10 26 0 17
-20 29 -20 12 0 -5 -4 -14 -9 -22 -8 -12 -12 -12 -25 -2 -9 8 -16 22 -16 32 0
11 -4 19 -10 19 -5 0 -10 -4 -10 -10 0 -5 -4 -10 -10 -10 -5 0 -10 11 -10 25
0 26 -15 34 -23 13 -3 -10 -7 -10 -19 -1 -8 7 -17 10 -21 7 -3 -3 -8 4 -12 15
-3 12 -11 19 -16 16 -5 -4 -12 1 -15 10 -4 9 -13 14 -20 11 -10 -4 -14 3 -14
19 0 14 -4 25 -10 25 -5 0 -10 -4 -10 -10 0 -5 -8 -3 -17 6 -10 8 -36 29 -58
45 -41 31 -75 75 -75 96 0 20 42 53 69 53 26 0 101 -46 101 -61 0 -5 7 -9 15
-9 8 0 15 -7 15 -15 0 -10 10 -15 29 -15 39 0 61 -9 61 -26 0 -9 11 -14 30
-14 21 0 30 -5 30 -16 0 -13 7 -15 29 -11 25 5 28 4 23 -15 -5 -21 2 -21 56
-1 6 3 12 -2 12 -11 0 -12 6 -15 25 -10 15 4 25 2 25 -5 0 -6 14 -11 31 -11
25 0 30 -3 25 -16 -5 -14 -1 -15 31 -9 38 7 173 -22 173 -37 0 -11 84 -2 109
12 33 17 41 44 41 142 0 162 -35 207 -300 397 -85 60 -193 132 -240 159 -97
55 -313 158 -428 203 -42 17 -90 43 -107 58 -16 15 -43 36 -59 47 -71 47 -81
51 -94 41 -9 -7 -19 -4 -36 12 -16 15 -31 21 -44 17 -11 -4 -23 -2 -27 4 -3 5
-22 10 -41 10 -19 0 -61 9 -92 19 -46 16 -98 21 -257 26 l-200 6 -155 -41z"/>
</g>
</svg>
