<?xml version="1.0" standalone="no"?>
<!DOCTYPE svg PUBLIC "-//W3C//DTD SVG 20010904//EN"
 "http://www.w3.org/TR/2001/REC-SVG-20010904/DTD/svg10.dtd">
<svg version="1.0" xmlns="http://www.w3.org/2000/svg"
 width="809.000000pt" height="1536.000000pt" viewBox="0 0 809.000000 1536.000000"
 preserveAspectRatio="xMidYMid meet">
<metadata>
Created by potrace 1.16, written by Peter Selinger 2001-2019
</metadata>
<g transform="translate(0.000000,1536.000000) scale(0.100000,-0.100000)"
fill="#000000" stroke="none">
<path d="M4905 15349 c-137 -9 -329 -61 -370 -99 -13 -12 -28 -19 -33 -16 -6
3 -12 3 -14 -2 -1 -4 -20 -18 -40 -31 -21 -12 -38 -29 -38 -37 0 -9 -10 -14
-27 -14 l-28 0 25 21 c14 11 41 28 60 39 19 10 28 19 20 20 -38 1 -127 -71
-169 -136 -15 -23 -55 -64 -88 -93 -34 -28 -69 -64 -79 -80 -15 -25 -25 -30
-78 -35 -158 -18 -162 -18 -141 -27 16 -6 14 -8 -13 -8 -18 -1 -31 -5 -28 -9
5 -9 -28 -42 -43 -42 -5 0 -12 -7 -15 -16 -3 -8 -11 -12 -16 -9 -6 4 -10 3 -9
-2 5 -22 -14 -43 -35 -38 -20 6 -20 6 -2 -9 15 -12 16 -19 8 -29 -7 -8 -9 -17
-6 -20 3 -3 3 -11 -1 -17 -5 -8 -11 -7 -23 2 -10 7 -8 2 4 -12 13 -16 26 -53
33 -98 7 -40 24 -94 37 -120 l24 -47 -57 -83 c-48 -70 -57 -90 -58 -127 0 -32
-6 -50 -25 -70 -30 -33 -154 -95 -189 -95 -28 0 -118 -67 -155 -114 -38 -51
-61 -140 -47 -187 10 -33 9 -43 -5 -64 -49 -76 80 -219 231 -256 28 -6 55 -16
61 -20 6 -5 14 -6 18 -2 4 4 4 -1 0 -11 -5 -13 -4 -17 4 -12 6 3 18 -4 26 -16
9 -12 16 -17 16 -11 0 6 -7 16 -15 23 -8 7 -15 17 -15 23 0 6 11 0 25 -13 14
-13 25 -31 25 -39 0 -14 1 -14 10 -1 8 12 10 11 10 -7 0 -15 6 -23 17 -23 9 0
13 -3 10 -7 -4 -3 -2 -12 5 -20 8 -10 6 -19 -12 -38 -28 -30 -13 -33 19 -4 30
28 47 13 62 -59 13 -64 25 -92 39 -92 6 0 10 7 10 16 0 13 4 13 28 -4 15 -10
39 -22 53 -25 14 -4 38 -18 55 -32 34 -30 69 -52 60 -37 -7 11 21 25 35 16 15
-9 10 -22 -8 -27 -10 -3 6 -5 35 -6 36 -1 54 -6 58 -16 8 -21 -42 -164 -76
-219 -17 -26 -30 -51 -30 -55 0 -5 -17 -21 -37 -37 -39 -30 -228 -195 -298
-261 -30 -29 -58 -76 -112 -193 -117 -254 -132 -320 -97 -440 29 -99 29 -112
-6 -174 -50 -87 -60 -136 -70 -341 -10 -182 -9 -196 15 -340 14 -82 32 -177
39 -210 12 -51 12 -63 0 -86 -9 -19 -11 -35 -5 -51 l9 -23 10 25 11 25 0 -26
c1 -22 -24 -109 -46 -159 -11 -26 2 -104 16 -96 13 8 41 -114 42 -181 0 -40 3
-52 8 -38 9 21 7 24 41 -104 7 -24 5 -41 -5 -60 -43 -84 -72 -363 -61 -586 6
-107 4 -138 -10 -175 -9 -25 -17 -71 -18 -102 l-2 -56 -149 -124 c-252 -208
-375 -300 -418 -314 -23 -7 -34 -13 -24 -13 28 -1 11 -18 -25 -25 -18 -4 -51
-16 -73 -27 -37 -19 -38 -20 -10 -15 28 4 28 3 10 -10 -10 -8 -30 -14 -44 -14
-38 0 -72 -11 -65 -21 3 -5 -2 -9 -10 -9 -9 0 -16 5 -16 11 0 8 -4 8 -14 0 -7
-6 -38 -19 -67 -27 -30 -9 -76 -31 -104 -49 -60 -38 -137 -76 -129 -63 4 6 30
21 58 34 55 26 48 33 -10 9 -19 -8 -63 -41 -97 -74 -34 -32 -82 -69 -106 -81
-102 -51 -117 -54 -306 -54 -150 -1 -189 -4 -235 -20 -30 -11 -59 -25 -65 -31
-22 -26 -222 -162 -247 -168 -22 -6 -138 -107 -122 -107 4 0 -39 -85 -66 -130
-128 -215 -192 -347 -198 -409 -4 -42 -1 -50 27 -77 28 -27 30 -33 21 -64 -16
-54 -12 -116 7 -131 52 -44 141 -89 175 -89 40 0 84 30 107 73 11 20 23 26 68
31 56 7 120 33 142 59 6 8 25 42 41 76 49 101 88 135 178 160 43 12 104 21
136 21 49 0 82 10 203 61 79 34 170 78 201 99 109 70 235 174 276 227 54 70
86 77 146 34 57 -41 72 -39 30 4 -19 19 -28 35 -22 35 7 0 48 -18 92 -40 79
-40 106 -49 96 -31 -4 5 0 11 6 14 8 3 -1 19 -26 46 -36 37 -38 40 -15 36 13
-2 36 -18 51 -34 14 -16 35 -34 46 -40 17 -9 22 -8 27 9 3 11 13 20 21 20 8 0
14 10 15 23 0 12 10 -11 21 -50 18 -67 38 -96 38 -57 0 8 4 13 9 10 11 -7 21
27 21 70 0 19 6 34 15 38 12 4 15 -3 15 -33 0 -42 25 -65 37 -33 4 9 10 20 15
23 5 3 12 25 17 50 8 41 9 39 11 -36 1 -44 5 -71 7 -60 3 11 12 24 19 30 8 5
21 30 29 55 8 25 13 34 10 21 -2 -13 -1 -37 2 -52 5 -25 8 -27 30 -18 16 6 22
6 18 -1 -3 -6 -2 -10 3 -10 11 0 21 33 23 70 0 14 3 20 5 14 3 -6 16 -9 30 -6
29 5 69 60 79 109 3 18 14 34 23 37 208 60 397 106 400 97 6 -17 22 -13 23 7
1 20 4 12 19 -47 8 -31 14 -40 20 -31 6 10 10 7 15 -13 13 -50 25 -27 25 47 0
73 13 104 31 75 5 -8 9 -49 9 -91 0 -71 10 -102 25 -79 3 6 12 8 20 5 10 -4
15 7 20 43 11 87 23 141 24 110 0 -15 8 -30 16 -33 12 -5 15 -28 16 -113 1
-68 4 -97 9 -81 4 14 9 41 9 60 1 30 3 32 12 17 6 -10 21 -22 34 -27 23 -9 24
-11 11 -52 -10 -34 -41 -72 -152 -183 -275 -276 -466 -544 -719 -1010 -54 -99
-114 -202 -134 -230 -21 -27 -48 -66 -61 -85 l-24 -35 29 25 c25 22 22 13 -27
-80 -143 -272 -237 -488 -300 -690 -11 -36 -27 -78 -36 -95 -8 -16 -16 -50
-18 -75 -1 -33 -20 -82 -68 -179 -36 -73 -66 -136 -66 -139 0 -4 5 1 11 11 6
9 14 15 18 13 4 -3 16 9 26 27 43 72 24 -27 -33 -169 -12 -29 -17 -56 -12 -63
5 -9 17 16 35 68 14 44 29 81 32 81 11 0 -6 -97 -36 -205 -33 -119 -36 -135
-22 -135 5 0 12 19 16 43 4 23 12 49 17 57 8 12 9 12 4 -2 -12 -40 -18 -123
-8 -113 5 6 13 19 16 30 3 11 3 -11 1 -48 -2 -37 0 -65 4 -62 14 8 21 -21 21
-84 0 -49 4 -61 25 -79 14 -12 25 -29 25 -37 0 -8 -20 -45 -44 -83 -25 -38
-57 -98 -72 -135 l-27 -66 27 -129 c33 -164 33 -238 1 -339 -13 -43 -41 -146
-60 -228 -20 -83 -44 -161 -54 -175 -32 -45 -36 -56 -13 -36 31 27 27 4 -4
-25 -14 -13 -36 -37 -47 -54 l-22 -30 38 29 c41 31 41 31 26 -34 -6 -28 -24
-60 -47 -85 -20 -22 -27 -31 -14 -21 29 25 28 17 -6 -58 -16 -33 -36 -81 -46
-106 -22 -60 -25 -64 -71 -88 -40 -21 -40 -21 -7 -15 36 6 36 7 22 -34 -8 -21
-26 -37 -68 -58 l-57 -29 35 -6 c35 -5 35 -6 13 -20 -26 -17 -30 -30 -8 -30
22 0 19 -11 -16 -61 -23 -33 -24 -36 -5 -14 67 77 -2 -81 -118 -270 -53 -87
-95 -162 -94 -167 2 -5 32 30 66 78 35 47 65 84 68 81 19 -19 -106 -227 -137
-227 -5 0 -8 -4 -4 -9 3 -6 21 -1 40 10 82 49 6 -52 -78 -104 -54 -33 -53 -40
3 -19 12 5 11 0 -4 -23 -17 -27 -14 -26 25 10 47 44 28 15 -35 -52 -50 -53
-27 -58 26 -6 l39 38 -11 -31 c-20 -56 -90 -121 -195 -179 -55 -31 -107 -64
-116 -74 -10 -10 -34 -28 -54 -41 -20 -12 -34 -24 -32 -27 5 -5 178 72 222 99
39 24 53 23 30 -2 -22 -24 -9 -27 17 -3 10 9 18 12 18 6 0 -16 -29 -36 -145
-102 -60 -35 -114 -67 -119 -72 -18 -16 42 -10 95 10 62 24 58 18 -19 -25 -31
-19 -54 -34 -49 -34 12 0 -89 -97 -120 -115 l-28 -16 45 5 c25 3 55 8 68 12
40 12 23 -13 -19 -26 -23 -8 -61 -29 -86 -48 -26 -20 -61 -36 -84 -39 -22 -3
-42 -9 -44 -14 -7 -10 98 -23 140 -16 26 4 33 2 29 -8 -4 -9 -36 -15 -107 -19
-56 -4 -121 -8 -144 -9 -24 -2 -48 -8 -54 -14 -8 -8 -23 -6 -58 8 -42 18 -40
11 6 -17 15 -10 -195 37 -237 53 -17 6 -28 7 -195 18 -66 4 -148 15 -181 25
-34 10 -99 24 -145 31 -46 6 -131 27 -189 47 -116 38 -230 53 -255 32 -19 -16
-19 -70 -1 -113 19 -45 61 -82 126 -110 31 -14 62 -32 70 -42 16 -20 103 -65
124 -65 9 0 22 -13 31 -29 31 -62 133 -127 303 -195 148 -60 241 -87 441 -131
217 -48 269 -68 410 -159 66 -42 147 -88 181 -102 65 -26 216 -55 393 -75 123
-14 153 -7 163 38 3 15 12 45 20 66 21 56 17 113 -16 207 -35 99 -34 90 -15
90 8 0 15 8 15 17 0 15 2 14 14 -3 14 -18 15 -18 25 6 5 14 10 18 10 10 3 -62
40 -114 54 -77 4 9 6 9 6 0 1 -7 6 -13 12 -13 17 0 3 75 -36 190 -18 55 -30
102 -25 105 5 3 11 -3 14 -12 2 -10 19 -71 37 -136 18 -64 36 -112 40 -106 3
6 4 20 2 30 -3 10 0 19 6 19 17 0 12 44 -18 175 -21 91 -26 125 -18 143 6 12
12 21 13 19 3 -2 44 -271 44 -284 0 -2 4 -3 9 -3 5 0 13 26 19 57 9 53 -1 189
-23 311 -3 18 -2 32 4 32 5 0 13 -30 16 -67 12 -106 65 -265 65 -192 0 14 -7
78 -16 143 -8 65 -13 120 -11 122 5 6 37 -154 37 -186 l0 -25 25 28 c23 24 25
31 16 65 -13 44 -14 61 -3 47 4 -5 14 -16 24 -23 15 -12 16 -5 15 78 0 49 3
93 6 97 4 3 7 -3 7 -15 0 -25 15 -29 23 -8 3 8 9 43 14 78 l8 63 5 -55 c9
-101 25 -54 26 78 2 163 1 156 22 182 17 21 18 19 20 -90 2 -72 8 -125 18
-148 l15 -36 20 21 c14 13 24 42 30 84 4 35 15 87 23 115 8 28 17 82 21 120 5
44 15 78 28 96 11 15 22 26 24 24 2 -1 -4 -54 -12 -115 -9 -62 -14 -118 -12
-124 4 -12 37 86 37 110 0 7 6 12 12 10 8 -1 19 26 30 73 34 139 40 157 48
135 5 -15 10 -7 20 34 12 49 57 132 81 146 5 4 26 39 45 78 34 66 93 151 101
144 2 -2 -6 -30 -17 -62 -11 -32 -18 -60 -16 -62 2 -2 13 9 25 24 12 15 29 37
39 49 10 12 30 63 46 115 15 52 36 106 47 119 19 25 19 25 3 -29 -9 -30 -20
-65 -25 -79 -5 -14 -7 -27 -5 -29 3 -3 21 47 41 111 20 63 40 118 45 121 11 7
7 -18 -21 -135 -9 -41 -16 -76 -14 -78 2 -2 15 21 29 52 29 61 55 163 56 216
1 31 29 102 30 74 0 -10 -45 -247 -56 -289 -3 -14 -1 -13 10 6 20 34 64 211
81 324 l14 90 -2 -87 c-3 -116 12 -85 19 39 5 110 23 231 35 239 4 2 11 -12
14 -33 11 -68 13 -69 14 -9 0 33 -5 85 -13 115 -78 302 -88 383 -64 538 l11
78 14 -34 c20 -49 27 -30 14 37 -8 39 -8 67 -2 83 9 23 10 23 10 -6 1 -41 20
-107 30 -101 4 3 5 27 1 55 -4 32 -3 49 4 48 6 -1 15 46 21 118 7 77 17 131
27 150 l17 30 1 -42 c0 -23 4 -44 9 -47 11 -7 21 42 21 103 0 25 5 53 10 61 7
10 10 -7 10 -58 0 -54 3 -73 13 -70 8 3 13 32 15 89 2 95 9 132 21 125 5 -3
12 -35 16 -71 3 -36 11 -65 16 -65 5 0 10 37 10 83 1 45 4 69 6 52 7 -51 34
-125 44 -119 5 3 7 31 4 62 -4 51 -3 53 4 17 13 -58 30 -99 38 -91 4 4 8 39
10 79 4 112 13 177 25 177 7 0 8 -27 3 -79 -4 -44 -4 -85 0 -92 13 -20 44 59
52 130 l7 66 12 -63 c16 -88 27 -93 37 -17 3 20 4 14 6 -17 1 -48 13 -63 25
-32 3 8 3 33 0 54 -4 22 -2 40 5 44 12 8 24 -30 19 -65 -2 -13 2 -26 7 -29 6
-3 12 45 16 130 10 203 10 203 19 150 5 -25 11 -76 15 -114 6 -55 9 -66 17
-52 7 12 8 54 4 112 -8 104 4 125 23 41 23 -102 33 -131 41 -118 4 7 -3 63
-16 124 -17 81 -21 114 -13 124 20 23 25 15 39 -64 12 -67 14 -74 21 -48 3 17
7 22 8 13 1 -22 21 -24 21 -3 0 8 -9 55 -20 105 -11 49 -17 97 -13 106 4 12
11 -7 21 -52 7 -38 15 -71 18 -73 13 -13 15 16 5 78 -13 86 -14 188 -2 196 6
3 7 -17 4 -50 -4 -34 -2 -55 4 -55 6 0 14 -34 18 -75 4 -41 12 -78 17 -82 12
-7 4 218 -8 253 -4 11 -3 16 1 12 5 -5 14 -41 20 -80 l12 -73 3 55 c2 30 2 75
2 100 0 45 0 45 7 10 l8 -35 2 33 c1 33 20 46 22 15 1 -10 5 2 10 26 5 25 14
48 21 52 9 6 12 33 11 89 -1 49 2 78 7 75 6 -4 10 -13 10 -21 0 -8 4 -13 9 -9
5 3 11 -2 13 -10 2 -10 11 -3 27 21 20 29 25 51 29 122 4 77 9 96 45 167 l41
80 9 -40 c44 -194 112 -459 140 -545 19 -58 37 -134 41 -170 11 -93 26 -161
36 -155 5 3 7 11 5 18 -2 7 -6 37 -9 67 l-6 55 16 -35 c9 -19 22 -62 29 -95
16 -75 76 -244 98 -276 10 -14 17 -43 17 -71 0 -26 4 -49 9 -52 12 -8 23 40
24 102 0 50 14 33 17 -23 2 -29 2 -29 9 -5 6 22 8 23 14 7 4 -10 7 -32 7 -47
0 -16 4 -31 9 -34 4 -3 11 -25 15 -48 7 -40 8 -42 21 -24 13 18 14 17 19 -5 3
-13 11 -53 19 -89 14 -64 15 -64 16 -21 1 36 3 41 15 32 21 -18 29 3 17 46
l-10 38 23 -27 c20 -22 25 -41 31 -132 8 -115 25 -145 25 -43 l0 62 18 -30
c11 -17 22 -48 26 -69 11 -55 21 -35 19 37 l-2 62 31 -65 c29 -59 33 -63 39
-40 4 14 8 21 8 15 1 -5 6 -3 11 5 7 11 10 5 10 -23 0 -23 4 -36 10 -32 6 3
10 15 10 27 0 17 2 18 15 8 8 -7 15 -20 16 -29 0 -10 2 -11 6 -3 10 25 23 11
24 -25 1 -22 3 -29 6 -18 8 33 19 38 50 21 28 -14 30 -20 36 -83 3 -37 16
-102 29 -143 l24 -75 84 -62 c147 -107 209 -170 247 -248 30 -64 33 -77 33
-168 0 -98 12 -123 26 -52 8 45 21 53 34 20 12 -32 17 -256 7 -305 l-7 -35 14
30 c18 38 19 23 2 -40 -9 -35 -10 -58 -3 -75 l9 -25 15 35 c14 33 35 125 49
215 l6 40 13 -26 c12 -23 11 -48 -10 -190 -14 -90 -25 -175 -25 -189 0 -47 31
3 38 61 9 73 28 60 23 -16 -3 -54 -2 -58 13 -46 14 12 16 10 16 -20 0 -43 10
-79 21 -79 9 0 32 72 49 151 9 42 9 41 5 -16 -3 -33 -8 -96 -11 -140 -7 -74
-6 -79 10 -66 9 7 23 38 32 67 8 30 17 54 18 54 5 0 -3 -129 -10 -165 -9 -52
2 -43 22 17 16 48 18 51 27 30 7 -16 7 -38 -1 -73 -17 -71 -14 -104 4 -45 19
60 31 53 15 -10 -12 -46 -9 -74 4 -35 3 12 10 21 15 21 18 0 15 -37 -7 -104
-13 -38 -23 -79 -23 -90 0 -19 0 -19 14 -1 13 18 14 18 9 -9 -8 -42 11 -25 27
24 7 23 17 43 21 46 19 11 18 -45 0 -97 -14 -42 -16 -60 -8 -68 17 -17 23 -14
44 20 l20 30 13 -30 c7 -17 16 -31 21 -31 5 0 7 -12 4 -27 l-6 -28 21 27 c31
40 51 37 39 -4 -5 -17 -13 -36 -19 -42 -5 -5 -10 -18 -10 -27 0 -10 -9 -39
-20 -65 -22 -51 -15 -79 15 -54 20 17 19 7 -6 -41 -23 -45 -19 -60 11 -41 25
15 25 11 -1 -39 -11 -23 -18 -43 -15 -46 13 -13 37 10 70 69 34 61 36 62 36
30 0 -45 15 -33 36 30 13 41 18 48 26 34 12 -22 -20 -76 -106 -180 -36 -43
-66 -82 -66 -87 0 -17 24 -9 54 19 21 18 16 10 -13 -26 -24 -29 -40 -56 -37
-60 4 -4 15 3 24 14 55 68 172 204 172 199 0 -2 -12 -34 -26 -70 -23 -56 -39
-78 -118 -150 -58 -55 -85 -85 -73 -85 35 0 75 30 157 117 49 52 76 76 67 58
-8 -16 -56 -70 -106 -119 -50 -49 -89 -91 -87 -93 11 -12 54 14 104 61 46 43
53 47 47 26 -12 -43 -33 -67 -104 -127 -38 -32 -66 -62 -62 -66 14 -14 73 22
140 87 35 33 62 57 59 51 -16 -40 -36 -65 -81 -100 -45 -35 -49 -40 -30 -43
12 -2 32 2 45 8 15 8 12 2 -10 -15 -31 -26 -41 -45 -23 -45 5 0 32 15 60 34
28 19 51 31 51 27 0 -11 -51 -56 -88 -77 -17 -10 -32 -22 -32 -27 0 -12 54 -1
94 18 l31 15 -30 -25 c-39 -33 -14 -32 42 1 l44 26 -15 -30 c-18 -35 -17 -73
3 -88 12 -10 11 -16 -7 -46 -25 -40 -28 -53 -9 -41 6 4 20 6 29 5 10 -2 27 2
38 8 15 8 6 -13 -34 -77 -41 -66 -62 -91 -85 -98 -44 -16 -48 -24 -13 -31 18
-4 29 -10 26 -15 -3 -5 3 -9 13 -9 15 0 16 -2 3 -10 -8 -5 -28 -10 -44 -10
-20 0 -27 -4 -23 -14 5 -11 -12 -16 -81 -21 -93 -8 -144 -24 -82 -25 19 -1 44
-6 55 -11 13 -6 -17 -7 -87 -3 -70 3 -108 2 -113 -5 -4 -7 13 -11 51 -11 103
0 48 -12 -93 -20 -96 -6 -158 -15 -203 -30 -56 -19 -99 -23 -315 -29 -138 -5
-262 -13 -277 -19 -28 -11 -98 -96 -98 -118 0 -16 52 -30 140 -39 36 -3 89
-11 117 -16 71 -14 268 -27 563 -38 289 -11 497 -26 635 -47 113 -17 201 -14
495 17 350 37 479 68 515 122 21 33 31 178 16 237 -10 36 -28 60 -88 117 -47
45 -70 73 -60 73 44 0 -9 85 -93 149 -38 30 -70 58 -70 63 0 6 23 -9 50 -32
33 -28 56 -40 67 -36 14 6 10 14 -24 49 -22 23 -39 47 -36 54 2 6 -11 23 -30
38 -32 23 -56 70 -43 82 3 3 23 -9 44 -26 46 -36 62 -39 62 -12 0 11 5 21 11
23 7 2 -2 20 -21 42 -25 27 -30 40 -21 45 9 6 -10 37 -64 110 -43 56 -75 104
-73 107 3 2 22 -21 43 -51 25 -37 41 -53 48 -46 7 7 4 19 -7 35 -9 15 -14 26
-12 26 3 0 -10 33 -28 73 -25 54 -32 81 -28 111 2 21 -3 66 -13 101 -11 40
-14 69 -8 79 7 13 13 5 27 -35 13 -35 22 -47 29 -40 7 7 5 30 -6 73 -45 175
-47 247 -4 128 40 -110 38 -106 48 -88 7 13 2 42 -20 105 -30 91 -53 231 -30
185 13 -24 34 -31 25 -7 -25 66 -75 279 -68 291 9 16 35 -62 47 -138 3 -21 10
-38 15 -38 6 0 10 -7 10 -16 0 -8 5 -12 10 -9 14 9 12 46 -5 96 -18 51 -45
220 -45 282 0 24 -16 99 -35 167 -40 141 -40 140 -22 115 28 -37 26 4 -2 56
-15 30 -31 72 -35 94 l-8 40 23 -30 c12 -16 24 -32 26 -34 2 -2 6 -1 9 2 4 4
-12 35 -35 70 -42 65 -56 112 -26 87 9 -7 28 -35 43 -61 15 -27 30 -49 35 -49
18 0 3 32 -54 116 -34 49 -84 129 -110 178 -84 152 -103 172 -281 287 -145 94
-258 245 -344 458 l-43 106 32 6 32 6 -36 16 c-36 16 -49 33 -49 63 0 12 5 12
33 -1 l32 -16 -36 34 c-20 19 -39 42 -43 52 -5 15 -2 16 31 10 31 -5 36 -4 26
6 -15 15 -17 33 -4 24 21 -12 18 13 -5 54 -28 51 -29 52 -9 45 8 -4 13 -9 10
-14 -2 -4 7 -12 20 -18 41 -19 42 7 3 44 -20 18 -34 35 -31 37 3 3 -7 13 -21
22 -33 22 -33 37 -1 29 32 -8 33 11 3 44 l-23 25 30 -18 30 -17 -29 26 c-28
27 -30 50 -1 26 24 -20 19 15 -7 53 l-22 32 27 -24 c24 -22 27 -22 33 -6 4 10
-1 30 -11 49 -17 28 -17 29 -2 17 25 -20 31 -7 14 26 -22 43 -37 96 -37 133
l0 34 30 -34 c34 -40 39 -30 10 18 -11 18 -18 38 -14 43 3 5 -1 21 -10 34 -9
14 -16 45 -16 72 l1 48 20 -28 c34 -45 42 -30 13 26 -42 81 -44 85 -44 109 l0
21 25 -23 c14 -13 25 -18 25 -11 0 18 -26 65 -44 80 -9 8 -16 19 -16 25 1 6 9
1 19 -11 24 -28 31 -29 31 -3 0 10 -14 35 -31 55 -18 20 -35 53 -39 73 l-6 37
42 -3 c24 -2 54 3 72 12 28 14 32 14 53 -3 71 -55 131 -64 176 -28 15 12 47
35 70 50 79 50 91 119 34 187 -27 33 -28 37 -16 70 23 61 26 88 14 135 -13 50
-69 114 -118 135 -76 31 -143 357 -166 805 -6 120 -6 120 19 144 14 14 26 35
26 49 0 21 -3 23 -25 18 -28 -7 -33 5 -10 24 8 7 15 17 15 22 0 6 -7 8 -15 4
-17 -6 -19 7 -5 35 7 13 7 19 0 19 -17 0 -11 30 15 68 16 23 21 40 15 46 -6 6
-1 21 16 43 30 40 21 43 -18 6 -51 -49 -29 -5 32 63 33 37 57 70 55 73 -3 2
-25 -10 -49 -27 l-44 -32 10 38 c5 20 12 51 15 68 3 22 25 52 69 95 35 35 64
68 64 73 0 6 12 23 28 39 30 34 20 29 -53 -22 -33 -23 -43 -28 -31 -13 25 29
9 28 -21 0 -19 -18 -23 -19 -17 -5 3 10 59 58 124 107 118 90 178 146 115 106
-16 -11 -39 -25 -50 -33 -11 -7 -29 -13 -40 -13 -18 1 -17 4 10 25 39 32 28
41 -16 11 -19 -12 -46 -31 -61 -40 l-28 -18 11 30 c6 19 39 53 90 93 122 95
101 104 -29 12 -35 -25 -65 -43 -68 -40 -6 6 76 74 154 126 35 24 61 45 58 48
-2 3 -40 -14 -83 -38 -89 -48 -79 -23 13 32 56 34 71 55 32 44 -13 -4 -51 -22
-85 -41 -57 -30 -63 -32 -63 -15 0 11 15 29 35 41 39 24 131 127 122 136 -3 4
-30 -7 -60 -24 -52 -29 -54 -30 -44 -8 6 12 39 38 74 57 57 30 107 69 89 69
-4 0 -23 -7 -43 -15 -41 -17 -53 -19 -53 -6 0 4 36 24 80 44 44 20 80 41 80
46 0 6 -45 8 -122 5 -140 -6 -139 2 2 36 52 13 97 25 99 27 2 2 -4 12 -13 22
-17 18 -17 19 1 24 10 3 -20 5 -66 6 -73 1 -82 3 -71 16 9 11 33 15 92 15 59
0 79 3 76 13 -3 6 -20 14 -38 17 -18 3 -35 11 -38 17 -2 9 5 11 25 7 33 -6 87
11 78 26 -3 6 -21 17 -38 26 l-32 15 25 -20 25 -21 -23 0 c-13 0 -32 10 -42
22 -17 22 -17 23 1 36 10 7 24 10 29 7 6 -3 10 1 10 9 0 9 8 16 18 16 33 0 42
20 24 49 l-17 26 40 -23 40 -22 -35 27 c-19 16 -50 43 -70 61 -34 33 -34 33
-9 28 40 -9 56 17 27 40 -13 11 -36 38 -51 61 -16 23 -53 69 -84 102 -57 64
-62 83 -7 30 43 -42 51 -21 11 27 -18 21 -45 60 -60 85 -14 25 -47 71 -72 102
-25 31 -45 58 -45 60 0 3 25 -20 56 -51 50 -50 53 -52 29 -17 -16 22 -44 57
-62 78 -29 32 -41 57 -29 57 2 0 34 -36 72 -80 72 -86 103 -107 56 -37 -27 40
-33 75 -10 61 14 -9 5 7 -40 69 -39 54 -38 74 2 27 54 -65 23 -11 -49 85 -41
54 -76 106 -77 114 -5 51 -7 69 -14 91 -3 14 17 -14 47 -62 29 -49 54 -86 56
-84 3 2 -2 17 -10 33 -8 15 -12 34 -9 42 3 9 0 11 -8 6 -9 -5 -11 -4 -6 3 4 6
2 21 -4 32 -6 12 -13 31 -15 42 -3 11 -23 52 -46 91 -23 38 -47 95 -55 126
-17 72 -17 72 2 64 12 -4 6 13 -19 63 -42 82 -71 186 -88 308 -9 72 -9 90 2
96 10 7 11 25 0 102 -7 52 -10 137 -7 193 3 69 0 120 -10 165 -8 35 -12 78 -9
95 3 17 2 23 -3 13 -5 -13 -14 3 -34 58 -18 51 -22 71 -12 63 8 -6 21 -32 28
-58 8 -25 15 -37 15 -27 1 17 4 16 26 -8 37 -40 39 -32 6 32 -16 31 -50 102
-76 156 -25 55 -61 122 -79 151 -59 91 -60 103 -7 48 28 -28 51 -49 51 -46 0
3 -28 43 -62 90 -35 46 -63 87 -63 91 0 4 -4 14 -8 22 -5 8 15 -10 43 -40 28
-30 47 -46 41 -35 -15 33 -96 139 -151 200 -37 41 -48 60 -41 69 21 25 -117
221 -223 318 -37 33 -39 37 -18 38 30 0 28 18 -5 32 -46 19 -143 119 -143 147
0 43 22 100 36 94 11 -4 14 12 14 77 0 54 -4 79 -10 75 -7 -4 -9 2 -4 18 3 14
-1 50 -10 80 -9 30 -16 80 -16 111 0 85 -42 205 -98 278 -48 62 -87 97 -113
102 -8 1 -33 12 -56 24 -49 25 -50 30 -32 144 14 91 0 167 -49 263 -30 59 -35
79 -33 127 1 31 -3 59 -8 63 -16 9 -13 28 3 22 18 -7 19 50 2 72 -9 12 -8 13
2 7 12 -7 12 -4 2 14 -10 18 -9 24 1 31 10 6 8 19 -11 61 -14 29 -28 55 -33
56 -4 2 -5 7 -3 11 3 4 6 30 7 59 2 41 5 49 16 41 7 -7 13 -20 13 -30 0 -10 5
-21 10 -24 25 -16 6 45 -36 112 -45 72 -63 136 -42 149 5 4 -2 18 -18 35 -18
19 -29 45 -35 80 -5 29 -7 55 -5 57 6 5 82 -127 91 -155 5 -19 3 -22 -12 -16
-10 3 -15 3 -11 -2 4 -4 3 -14 -2 -20 -8 -9 -3 -19 18 -36 15 -13 29 -27 30
-31 1 -4 7 -18 12 -30 9 -22 9 -21 7 5 -2 16 -17 39 -38 58 -33 30 -33 30 -8
26 25 -3 26 -2 19 27 -9 39 -33 86 -80 156 -20 30 -40 69 -44 85 -4 17 -10 39
-13 50 -6 20 -5 20 16 1 25 -23 27 -16 5 26 -18 36 -26 70 -25 113 0 17 1 43
1 59 0 16 6 36 12 43 8 10 7 12 -4 8 -16 -6 -28 20 -28 64 0 17 4 22 16 17 13
-5 15 -2 10 16 -3 13 -6 30 -6 38 0 12 -2 12 -9 1 -11 -16 -17 -6 -26 41 -6
34 -5 39 19 49 33 15 34 32 1 19 -20 -8 -27 -5 -45 17 -11 14 -20 30 -20 35 0
4 -19 29 -41 53 -62 67 -16 57 66 -14 l30 -26 -29 32 c-15 17 -49 41 -75 54
-25 12 -57 27 -71 34 -14 6 -66 37 -116 68 -64 39 -108 59 -149 66 -64 12 -64
12 -240 0z m425 -139 c0 -5 -2 -10 -4 -10 -3 0 -8 5 -11 10 -3 6 -1 10 4 10 6
0 11 -4 11 -10z m300 -975 c0 -8 -4 -15 -10 -15 -5 0 -10 7 -10 15 0 8 5 15
10 15 6 0 10 -7 10 -15z m29 -38 c12 -15 12 -17 -3 -11 -9 3 -16 13 -16 22 0
8 1 13 3 11 1 -2 9 -12 16 -22z m85 -124 c4 -7 5 -13 3 -13 -6 0 -57 75 -57
84 0 8 29 -31 54 -71z m-77 -25 c-3 -8 -6 -5 -6 6 -1 11 2 17 5 13 3 -3 4 -12
1 -19z m37 -74 c9 -24 7 -28 -9 -14 -17 14 -20 30 -6 30 5 0 12 -7 15 -16z
m26 -80 c0 -8 -4 -12 -10 -9 -5 3 -10 10 -10 16 0 5 5 9 10 9 6 0 10 -7 10
-16z m30 -30 c0 -8 -7 -14 -15 -14 -17 0 -18 2 -9 24 7 18 24 12 24 -10z m0
-44 c0 -5 -2 -10 -4 -10 -3 0 -8 5 -11 10 -3 6 -1 10 4 10 6 0 11 -4 11 -10z
m81 -661 c-10 -23 -10 -23 -10 7 -1 17 2 34 7 38 11 12 14 -18 3 -45z m-2012
-12 c0 -21 -1 -21 -9 -2 -12 28 -12 37 0 30 6 -3 10 -16 9 -28z m201 -123 c0
-17 -22 -14 -28 4 -2 7 3 12 12 12 9 0 16 -7 16 -16z m60 -26 c0 -6 -7 -5 -15
2 -8 7 -15 17 -15 22 0 6 7 5 15 -2 8 -7 15 -17 15 -22z m2000 -129 c11 -21
19 -39 17 -39 -6 0 -57 75 -57 84 0 16 21 -7 40 -45z m87 -381 c-3 -8 -6 -5
-6 6 -1 11 2 17 5 13 3 -3 4 -12 1 -19z m6 -122 c3 -34 2 -45 -4 -33 -6 9 -12
41 -15 69 -6 68 11 34 19 -36z m-27 -52 c-4 -9 -9 -15 -11 -12 -3 3 -3 13 1
22 4 9 9 15 11 12 3 -3 3 -13 -1 -22z m-38 -69 c-3 -3 -9 2 -12 12 -6 14 -5
15 5 6 7 -7 10 -15 7 -18z m121 -184 c-6 -2 -21 7 -33 19 l-21 23 33 -19 c18
-10 28 -20 21 -23z m241 -299 c0 -11 -47 29 -69 59 -22 30 -20 29 22 -11 26
-24 47 -46 47 -48z m254 -508 c3 -8 2 -12 -4 -9 -6 3 -10 10 -10 16 0 14 7 11
14 -7z m79 -149 c33 -69 28 -72 -9 -5 -15 27 -31 47 -37 43 -6 -3 -7 -1 -3 5
13 21 21 13 49 -43z m-3 -120 c0 -5 -5 -3 -10 5 -5 8 -10 20 -10 25 0 6 5 3
10 -5 5 -8 10 -19 10 -25z m40 -188 c0 -18 -2 -19 -10 -7 -13 20 -13 43 0 35
6 -3 10 -16 10 -28z m35 -587 c5 -16 4 -22 -3 -15 -5 6 -12 24 -16 40 -7 34 7
15 19 -25z m216 -822 c17 -24 18 -29 6 -19 -18 14 -42 51 -33 51 3 0 15 -15
27 -32z m-3595 -365 c-11 -29 -17 -6 -9 33 7 36 8 37 11 11 2 -16 1 -36 -2
-44z m3819 -231 c-10 -11 -47 24 -69 65 l-26 48 49 -55 c27 -30 48 -56 46 -58z
m-10 -107 c38 -26 80 -62 93 -81 l23 -35 -28 7 c-34 8 -123 53 -106 54 6 0 28
-10 48 -21 59 -35 50 -16 -22 46 -118 102 -119 104 -8 30z m45 -115 c12 -8 11
-10 -7 -10 -13 0 -23 5 -23 10 0 13 11 13 30 0z m-135 -80 c3 -5 2 -10 -4 -10
-5 0 -16 -3 -25 -6 -11 -4 -16 -1 -16 10 0 18 35 22 45 6z m59 -80 c-5 -5 -31
-13 -57 -16 -39 -6 -47 -4 -47 10 0 13 11 16 57 16 38 0 54 -3 47 -10z m-4
-115 c0 -6 -48 -30 -77 -39 -18 -6 -23 -3 -23 12 0 10 3 22 7 25 7 8 93 10 93
2z m-62 -112 c-10 -2 -26 -2 -35 0 -10 3 -2 5 17 5 19 0 27 -2 18 -5z m28 -29
c-38 -13 -72 -22 -74 -19 -5 5 4 9 68 29 75 23 80 16 6 -10z m-3038 -214 l0
-25 -8 25 c-4 14 -8 36 -8 50 l0 25 8 -25 c4 -14 8 -36 8 -50z m-1171 -172
c-3 -8 -6 -5 -6 6 -1 11 2 17 5 13 3 -3 4 -12 1 -19z m-282 2 c3 -6 -1 -7 -9
-4 -18 7 -21 14 -7 14 6 0 13 -4 16 -10z m1740 -2832 c-4 -24 -11 -50 -16 -58
-13 -22 -11 57 1 81 17 31 22 22 15 -23z m-345 -474 c0 -8 -5 -12 -10 -9 -6 4
-8 11 -5 16 9 14 15 11 15 -7z m949 -137 c0 -21 -1 -21 -9 -2 -12 28 -12 37 0
30 6 -3 10 -16 9 -28z m-1132 -134 c-3 -10 -5 -4 -5 12 0 17 2 24 5 18 2 -7 2
-21 0 -30z m-40 -50 c-3 -10 -5 -2 -5 17 0 19 2 27 5 18 2 -10 2 -26 0 -35z
m2918 17 c3 -6 -1 -7 -9 -4 -18 7 -21 14 -7 14 6 0 13 -4 16 -10z m-1436 -233
c0 -21 -1 -21 -9 -2 -12 28 -12 37 0 30 6 -3 10 -16 9 -28z m-1741 -232 l1
-20 -9 20 c-5 11 -8 34 -8 50 l0 30 8 -30 c4 -16 8 -39 8 -50z m2678 -1116
l-14 -64 -1 56 c-1 30 4 60 11 67 18 18 19 11 4 -59z m1358 -294 c6 -68 6 -69
-9 -36 -8 18 -15 56 -15 85 1 71 16 40 24 -49z m-5594 -259 c0 -2 -8 -10 -17
-17 -16 -13 -17 -12 -4 4 13 16 21 21 21 13z m4511 -193 c-12 -20 -14 -14 -5
12 4 9 9 14 11 11 3 -2 0 -13 -6 -23z m-3779 -250 c-2 -27 -6 -50 -8 -52 -7
-8 -16 51 -10 74 11 43 24 27 18 -22z m4848 -188 c0 -5 -5 -3 -10 5 -5 8 -10
20 -10 25 0 6 5 3 10 -5 5 -8 10 -19 10 -25z m9 -100 c0 -5 -6 1 -14 15 -8 14
-14 30 -14 35 0 6 6 -1 14 -15 8 -14 14 -29 14 -35z m-751 -80 c-6 -14 -15
-25 -19 -25 -5 0 -3 11 3 25 6 14 15 25 19 25 5 0 3 -11 -3 -25z m772 -80 c14
-19 14 -19 -2 -6 -10 7 -18 18 -18 24 0 6 1 8 3 6 1 -2 9 -13 17 -24z m-737
-9 c3 -8 -16 -34 -45 -62 -28 -27 -47 -42 -42 -34 11 19 77 110 80 110 1 0 4
-6 7 -14z m-5343 -60 c0 -2 -7 -7 -16 -10 -8 -3 -12 -2 -9 4 6 10 25 14 25 6z
m6154 -81 l31 -40 -47 39 c-27 21 -48 40 -48 41 0 2 -3 12 -7 22 -6 16 -4 16
16 -2 13 -11 37 -38 55 -60z m-6384 9 c0 -2 -16 -4 -36 -4 -19 0 -33 4 -30 8
5 8 66 4 66 -4z m6421 -331 l24 -26 -32 23 c-34 25 -39 30 -25 30 5 0 19 -12
33 -27z"/>
</g>
</svg>
