<?xml version="1.0" standalone="no"?>
<!DOCTYPE svg PUBLIC "-//W3C//DTD SVG 20010904//EN"
 "http://www.w3.org/TR/2001/REC-SVG-20010904/DTD/svg10.dtd">
<svg version="1.0" xmlns="http://www.w3.org/2000/svg"
 width="1536.000000pt" height="868.000000pt" viewBox="0 0 1536.000000 868.000000"
 preserveAspectRatio="xMidYMid meet">
<metadata>
Created by potrace 1.16, written by Peter Selinger 2001-2019
</metadata>
<g transform="translate(0.000000,868.000000) scale(0.100000,-0.100000)"
fill="#000000" stroke="none">
<path d="M1950 8670 c-109 -14 -261 -47 -370 -82 -81 -26 -104 -30 -161 -24
-72 6 -227 -6 -359 -29 -47 -8 -141 -19 -210 -25 -69 -6 -192 -23 -275 -39
l-149 -30 -86 21 c-140 33 -242 14 -294 -55 -19 -26 -21 -40 -18 -156 1 -91
-2 -142 -13 -177 -23 -74 -19 -96 32 -196 34 -66 68 -115 119 -168 l71 -75
-10 -160 c-17 -274 13 -594 79 -830 53 -188 136 -371 243 -532 112 -171 120
-127 56 324 -71 508 -81 788 -35 956 11 38 36 50 46 22 4 -8 10 -13 14 -10 5
3 13 -3 19 -12 6 -10 11 -13 11 -6 0 19 70 -26 70 -45 0 -14 2 -14 9 -3 7 11
14 9 34 -11 14 -14 28 -24 30 -22 2 3 20 -11 41 -29 20 -18 34 -36 30 -39 -3
-3 2 -5 12 -5 24 3 128 -123 166 -200 37 -75 35 -111 -11 -208 -50 -107 -58
-193 -29 -295 5 -19 37 -93 70 -163 79 -166 83 -198 33 -292 -20 -38 -53 -94
-73 -124 -35 -51 -37 -58 -37 -133 0 -90 9 -102 65 -93 42 7 98 62 106 105 5
22 15 32 40 40 18 6 39 8 45 4 17 -10 2 -82 -26 -130 -27 -45 -88 -104 -109
-104 -8 0 -19 -6 -25 -14 -18 -21 -60 -25 -104 -10 -56 20 -60 18 -53 -17 5
-27 4 -30 -14 -24 -14 5 -20 2 -20 -9 0 -9 -6 -16 -14 -16 -7 0 -19 -7 -26
-15 -10 -12 -9 -20 4 -39 10 -15 12 -27 6 -31 -6 -3 -10 -11 -10 -16 0 -14 80
-49 113 -49 17 0 27 -5 27 -15 0 -8 7 -15 15 -15 8 0 15 -6 15 -14 0 -8 8 -24
18 -36 30 -36 126 -48 356 -42 190 4 208 3 331 -23 207 -43 399 -32 530 30 87
42 117 79 117 151 0 98 -109 253 -243 345 -78 54 -159 116 -172 134 -4 5 -6
50 -5 98 3 86 4 90 35 117 34 30 88 50 139 50 17 0 66 9 109 20 148 38 287 21
424 -50 109 -57 199 -129 288 -228 154 -172 270 -287 413 -406 189 -158 378
-345 428 -423 23 -36 46 -91 56 -130 38 -151 143 -318 306 -488 85 -88 87 -92
94 -150 11 -87 68 -253 133 -383 63 -128 184 -315 328 -512 103 -140 155 -237
180 -335 21 -87 21 -110 -8 -208 -47 -156 -57 -399 -28 -646 5 -38 2 -131 -5
-225 -25 -303 -63 -496 -124 -637 -18 -41 -44 -106 -60 -145 -15 -39 -39 -87
-53 -105 -41 -54 -124 -99 -203 -110 -102 -14 -166 -35 -222 -73 -29 -19 -70
-36 -96 -40 -114 -17 -278 -148 -312 -248 -17 -52 -18 -49 44 -131 50 -66 84
-87 141 -87 30 0 41 -5 46 -19 11 -35 45 -55 103 -62 31 -3 84 -13 117 -23
133 -36 355 -14 524 53 149 59 204 93 307 192 59 56 105 91 130 99 83 26 112
76 125 206 10 109 30 156 98 229 142 151 408 617 611 1070 72 162 109 215 150
215 24 0 33 -20 89 -195 23 -71 71 -191 107 -265 37 -74 74 -167 85 -207 38
-149 86 -214 228 -307 112 -75 199 -144 346 -279 99 -90 161 -132 224 -152 39
-12 147 -102 160 -133 15 -36 125 -104 205 -127 37 -11 99 -18 175 -19 l116
-1 102 44 c86 37 106 50 132 87 34 46 61 113 61 148 0 48 -32 127 -75 185 -25
34 -45 70 -45 81 0 47 -103 124 -215 160 -23 7 -60 33 -87 61 -26 26 -99 79
-162 118 -164 102 -220 172 -188 237 30 63 -12 112 -127 149 -70 23 -137 87
-147 142 -5 24 3 110 20 238 15 110 33 288 40 395 14 210 25 256 70 285 39 26
108 31 139 11 14 -10 52 -19 84 -21 32 -2 70 -6 85 -10 14 -4 51 -2 82 5 39 8
61 8 75 1 14 -8 22 -8 26 0 4 6 19 7 35 4 44 -10 445 -22 525 -15 11 0 54 -3
95 -9 46 -6 93 -6 125 0 27 5 103 11 168 14 64 2 122 7 127 10 6 4 16 2 23 -3
7 -5 23 -9 37 -7 14 1 33 3 42 4 9 0 23 7 31 15 10 10 35 14 78 14 110 -2 212
10 262 31 27 12 61 21 76 21 15 0 66 14 115 31 85 29 93 30 262 30 239 -1 298
-16 331 -85 16 -35 12 -118 -18 -401 -27 -248 16 -580 146 -1140 45 -190 47
-206 43 -315 -5 -133 -26 -194 -86 -253 -82 -80 -199 -101 -432 -77 -99 10
-147 10 -216 2 -93 -12 -244 -56 -317 -93 -46 -23 -97 -67 -97 -83 0 -6 -18
-27 -40 -47 -33 -30 -40 -43 -40 -74 0 -67 70 -145 131 -145 13 0 39 -15 60
-36 43 -42 88 -54 155 -43 27 4 139 8 249 9 110 0 220 5 245 11 25 6 128 14
230 19 134 6 218 15 305 34 66 14 184 39 263 55 133 28 150 34 273 102 73 39
149 89 170 110 70 70 84 175 44 331 -13 48 -14 74 -6 131 5 40 12 139 16 221
3 81 12 178 20 215 47 221 164 414 421 696 50 55 100 121 112 147 11 25 32 54
47 64 25 16 27 16 53 -3 15 -10 64 -74 108 -141 95 -142 179 -247 243 -304 43
-38 152 -98 178 -98 6 0 53 -42 105 -93 136 -137 250 -208 535 -333 310 -137
415 -177 548 -207 124 -29 298 -108 352 -160 72 -68 63 -150 -33 -282 -62 -88
-104 -166 -130 -244 l-17 -53 -61 6 c-151 15 -272 -33 -405 -160 -109 -103
-130 -146 -111 -221 22 -88 56 -138 119 -171 82 -44 164 -65 225 -58 28 3 128
7 221 9 149 3 181 7 258 31 142 42 191 73 303 188 88 89 115 126 199 268 183
307 280 535 321 750 9 47 29 127 45 179 36 114 33 156 -15 204 -18 18 -43 37
-57 43 -13 7 -60 29 -104 49 -138 63 -349 240 -478 399 -286 357 -485 783
-571 1226 -82 417 -80 917 5 1408 13 72 7 70 149 51 47 -6 101 -13 120 -14 65
-6 371 -6 380 0 9 5 118 28 198 42 18 3 35 9 38 14 3 5 18 9 35 9 16 0 29 5
29 10 0 6 11 10 24 10 14 0 27 4 30 9 3 5 21 12 39 15 19 3 52 15 75 26 23 11
49 20 59 20 10 0 32 9 48 20 17 11 38 20 48 20 9 0 17 4 17 9 0 5 8 12 18 15
36 12 272 255 272 281 0 9 11 33 25 55 14 22 25 45 25 52 0 7 9 28 20 46 11
18 18 37 15 42 -3 4 2 25 11 45 8 20 13 40 10 42 -3 3 -1 13 3 22 5 9 12 52
16 95 3 44 8 82 9 85 7 11 -25 173 -44 225 -55 146 -175 200 -302 135 -48 -24
-128 -96 -128 -115 0 -7 -14 -55 -31 -106 -58 -175 -158 -335 -256 -410 -121
-92 -197 -118 -358 -125 -140 -6 -256 14 -426 73 -125 42 -426 188 -489 236
-435 331 -638 458 -931 582 -57 24 -174 76 -259 114 -294 133 -524 198 -1085
310 -192 39 -433 91 -535 116 -451 111 -716 135 -1730 156 -831 18 -1415 48
-2060 107 l-184 16 -46 35 c-25 20 -94 59 -155 88 -197 93 -433 160 -990 279
-547 117 -543 116 -671 200 -60 40 -157 102 -215 137 -566 350 -1135 561
-1714 635 -126 17 -132 18 -180 57 -61 48 -188 108 -275 130 -80 21 -240 28
-340 16z"/>
<path d="M861 7064 c0 -11 3 -14 6 -6 3 7 2 16 -1 19 -3 4 -6 -2 -5 -13z"/>
<path d="M821 7044 c0 -11 3 -14 6 -6 3 7 2 16 -1 19 -3 4 -6 -2 -5 -13z"/>
<path d="M761 7024 c0 -11 3 -14 6 -6 3 7 2 16 -1 19 -3 4 -6 -2 -5 -13z"/>
<path d="M871 7014 c0 -11 3 -14 6 -6 3 7 2 16 -1 19 -3 4 -6 -2 -5 -13z"/>
<path d="M771 6974 c0 -11 3 -14 6 -6 3 7 2 16 -1 19 -3 4 -6 -2 -5 -13z"/>
<path d="M951 6974 c0 -11 3 -14 6 -6 3 7 2 16 -1 19 -3 4 -6 -2 -5 -13z"/>
<path d="M741 6954 c0 -11 3 -14 6 -6 3 7 2 16 -1 19 -3 4 -6 -2 -5 -13z"/>
<path d="M811 6954 c0 -11 3 -14 6 -6 3 7 2 16 -1 19 -3 4 -6 -2 -5 -13z"/>
<path d="M882 6950 c0 -14 2 -19 5 -12 2 6 2 18 0 25 -3 6 -5 1 -5 -13z"/>
<path d="M822 6890 c0 -14 2 -19 5 -12 2 6 2 18 0 25 -3 6 -5 1 -5 -13z"/>
</g>
</svg>
