<?xml version="1.0" standalone="no"?>
<!DOCTYPE svg PUBLIC "-//W3C//DTD SVG 20010904//EN"
 "http://www.w3.org/TR/2001/REC-SVG-20010904/DTD/svg10.dtd">
<svg version="1.0" xmlns="http://www.w3.org/2000/svg"
 width="1536.000000pt" height="519.000000pt" viewBox="0 0 1536.000000 519.000000"
 preserveAspectRatio="xMidYMid meet">
<metadata>
Created by potrace 1.16, written by Peter Selinger 2001-2019
</metadata>
<g transform="translate(0.000000,519.000000) scale(0.100000,-0.100000)"
fill="#000000" stroke="none">
<path d="M1797 5180 c-147 -18 -261 -72 -346 -164 -32 -34 -54 -33 -110 8 -55
40 -104 66 -126 66 -12 0 -15 -12 -15 -57 0 -54 -2 -58 -44 -98 -48 -47 -156
-110 -353 -208 -196 -98 -321 -141 -575 -197 -190 -43 -213 -60 -224 -166 -6
-55 -4 -62 21 -92 15 -18 35 -37 45 -42 22 -12 50 -3 50 16 0 17 37 37 52 28
6 -4 31 -9 56 -11 25 -2 65 -14 89 -27 36 -21 44 -22 54 -10 10 13 14 12 30
-2 11 -10 23 -13 31 -8 7 5 21 7 31 6 9 -2 20 4 23 12 4 11 11 13 31 5 21 -8
26 -6 30 11 4 15 11 18 29 14 18 -5 24 -2 24 10 0 10 9 16 25 16 16 0 25 6 25
15 0 9 9 15 25 15 14 0 38 9 53 20 15 11 63 33 107 49 44 16 121 45 172 65
111 43 256 81 278 72 12 -4 -9 -23 -72 -65 -48 -32 -128 -94 -178 -137 -91
-78 -232 -175 -273 -188 -12 -4 -22 -12 -22 -17 0 -5 -9 -9 -21 -9 -11 0 -23
-8 -25 -18 -7 -24 -49 -43 -64 -28 -12 12 -30 -8 -30 -36 0 -11 -6 -15 -20
-11 -12 3 -20 0 -20 -7 0 -7 -8 -9 -19 -5 -14 4 -23 0 -31 -15 -6 -11 -21 -20
-33 -20 -13 0 -29 -6 -35 -12 -10 -10 -15 -10 -21 1 -5 8 -16 11 -25 8 -8 -3
-18 -2 -21 3 -3 5 -23 8 -45 6 -26 -2 -41 1 -44 10 -7 18 -26 18 -26 0 0 -8
-7 -22 -16 -31 -13 -12 -15 -28 -12 -67 6 -57 25 -79 102 -120 39 -20 41 -20
100 -3 34 9 147 56 251 105 105 48 208 93 230 99 77 21 234 24 384 7 79 -9
196 -16 261 -16 106 0 121 2 165 26 41 21 61 25 124 25 42 -1 125 1 184 5 96
6 110 4 128 -12 11 -10 50 -77 87 -149 136 -268 262 -422 452 -555 62 -43 149
-117 211 -180 75 -76 116 -110 138 -115 44 -10 71 15 71 66 l0 38 78 -77 c102
-104 155 -136 287 -177 76 -24 135 -50 190 -85 44 -28 101 -63 128 -77 26 -14
47 -30 47 -35 0 -19 -62 -99 -141 -182 -63 -66 -96 -93 -154 -121 -57 -29 -81
-35 -104 -30 -42 9 -96 -10 -116 -41 -19 -30 -71 -54 -115 -54 -27 0 -30 3
-30 30 0 42 -23 39 -71 -9 -46 -46 -49 -68 -11 -103 59 -55 95 -59 243 -28
143 30 143 30 45 -62 -66 -64 -91 -94 -105 -133 -15 -42 -26 -54 -65 -75 -49
-27 -59 -52 -27 -70 46 -24 89 -7 182 74 35 31 65 54 67 51 2 -2 -6 -25 -17
-50 -12 -26 -21 -54 -21 -62 0 -8 -11 -25 -25 -39 -34 -34 -31 -44 10 -44 31
0 49 13 148 106 61 59 123 123 137 143 32 48 439 446 447 438 10 -10 36 -179
36 -232 0 -27 -15 -101 -33 -164 -29 -102 -32 -125 -28 -210 3 -73 9 -106 26
-138 41 -78 103 -104 148 -62 l22 20 6 -35 c4 -20 18 -49 32 -66 44 -51 107
-32 70 22 -18 25 -22 98 -5 98 6 0 19 -5 30 -10 39 -22 79 26 47 58 -9 9 -8
18 1 39 17 37 23 326 9 419 -9 53 -8 104 1 205 7 74 15 137 19 141 6 6 191
-62 677 -247 94 -36 200 -75 236 -87 l66 -23 163 -244 c180 -270 215 -342 256
-523 l26 -112 -21 -83 c-12 -45 -21 -97 -21 -115 0 -58 -144 -174 -340 -273
-76 -38 -90 -57 -90 -115 0 -48 -2 -53 -70 -124 -65 -68 -78 -77 -188 -123
-116 -50 -163 -66 -275 -98 -71 -20 -131 -71 -163 -140 -28 -60 -30 -81 -6
-93 23 -12 41 -5 79 31 31 29 34 30 46 13 18 -25 95 -33 133 -13 16 8 59 17
96 21 l68 7 -6 -46 c-9 -62 12 -69 87 -27 39 21 71 32 99 32 48 0 124 36 178
84 62 55 145 106 174 106 19 0 33 8 45 27 9 16 38 51 64 79 65 70 83 108 75
160 -5 39 -2 47 35 94 69 88 143 155 203 184 31 15 81 51 109 80 43 42 57 65
80 131 37 109 36 188 -4 364 -45 202 -43 262 17 442 26 79 54 149 61 155 8 7
50 17 95 24 l81 13 21 -26 c12 -14 41 -53 66 -87 54 -75 155 -168 190 -177 14
-3 48 -17 75 -31 28 -14 74 -29 102 -33 29 -4 102 -30 162 -58 61 -28 178 -74
262 -101 261 -87 399 -174 428 -271 25 -84 63 -138 165 -233 62 -57 112 -113
129 -144 15 -27 41 -108 57 -178 41 -171 37 -161 81 -209 46 -50 54 -70 63
-156 7 -65 7 -66 -24 -93 -36 -29 -49 -33 -140 -39 -79 -5 -136 -32 -179 -84
-23 -27 -31 -46 -29 -68 3 -27 7 -30 42 -33 29 -3 44 2 62 19 l24 23 16 -22
c14 -20 24 -22 78 -21 34 1 72 -4 85 -10 25 -14 90 -3 166 27 56 22 66 32 113
115 55 96 104 262 95 324 -4 28 1 74 12 123 24 107 12 142 -65 187 -95 55
-111 72 -158 173 -71 152 -92 214 -85 252 3 24 -1 47 -16 76 -12 23 -21 50
-21 62 0 38 -66 95 -172 148 -136 68 -215 121 -288 194 -84 84 -104 123 -149
294 -45 171 -70 231 -136 329 -26 39 -49 73 -51 77 -8 13 197 146 266 174 38
14 89 44 115 65 25 21 69 45 98 53 29 8 68 27 87 41 95 71 136 78 585 90 663
17 905 34 1360 90 519 65 900 125 1119 176 562 129 827 163 1485 190 302 12
379 8 651 -32 404 -60 1280 -311 1487 -426 45 -25 169 -111 275 -191 106 -80
208 -151 227 -159 44 -19 57 -6 41 41 -34 105 -230 293 -591 567 -355 271
-448 333 -749 499 -177 98 -574 246 -825 309 -101 25 -461 86 -625 106 -69 8
-334 28 -590 45 -256 17 -510 35 -565 41 -55 6 -428 14 -830 19 -684 8 -892
16 -1075 40 -41 5 -196 24 -345 40 -148 17 -337 44 -420 60 -197 39 -315 57
-455 71 -63 6 -124 16 -134 21 -11 6 -71 14 -135 19 -69 5 -149 19 -201 34
-192 56 -648 132 -1015 170 -336 35 -1125 18 -1920 -41 -373 -27 -527 -46
-805 -99 -277 -53 -406 -82 -579 -132 -319 -92 -363 -67 -565 320 -31 60 -79
143 -108 185 -104 156 -293 312 -426 352 -148 44 -445 69 -595 50z m2472
-3504 c-5 -5 -15 -4 -24 4 -21 17 -20 84 3 106 16 17 17 15 23 -42 3 -32 2
-63 -2 -68z"/>
</g>
</svg>
