<?xml version="1.0" standalone="no"?>
<!DOCTYPE svg PUBLIC "-//W3C//DTD SVG 20010904//EN"
 "http://www.w3.org/TR/2001/REC-SVG-20010904/DTD/svg10.dtd">
<svg version="1.0" xmlns="http://www.w3.org/2000/svg"
 width="1536.000000pt" height="273.000000pt" viewBox="0 0 1536.000000 273.000000"
 preserveAspectRatio="xMidYMid meet">
<metadata>
Created by potrace 1.16, written by Peter Selinger 2001-2019
</metadata>
<g transform="translate(0.000000,273.000000) scale(0.100000,-0.100000)"
fill="#000000" stroke="none">
<path d="M5795 2719 c-370 -27 -815 -124 -1265 -276 -861 -289 -2116 -787
-2764 -1097 -172 -82 -185 -86 -530 -141 -176 -28 -266 -49 -433 -101 -62 -19
-199 -50 -305 -69 -171 -31 -202 -40 -283 -79 -49 -25 -111 -54 -137 -64 -86
-37 -102 -112 -26 -125 57 -11 211 -7 320 7 21 2 94 8 163 12 112 6 125 5 119
-9 -8 -22 -107 -97 -128 -97 -10 0 -20 -8 -23 -18 -4 -18 -51 -52 -72 -52 -5
0 -22 -12 -36 -26 -19 -19 -32 -24 -51 -20 -19 5 -24 2 -24 -12 0 -26 -56 -57
-75 -42 -12 10 -15 9 -15 -7 0 -11 -11 -30 -25 -43 -32 -30 -30 -69 5 -88 33
-17 120 -9 235 23 185 51 528 89 655 72 36 -5 151 -31 257 -58 233 -59 308
-71 626 -99 l248 -22 140 -94 c77 -51 186 -117 242 -145 99 -49 104 -51 165
-45 74 6 124 33 142 76 14 34 15 121 1 166 l-9 31 117 12 c154 16 419 62 616
106 388 87 867 208 974 246 673 238 1463 449 1896 505 149 19 276 16 555 -16
548 -61 1153 -166 1720 -299 231 -54 536 -142 830 -241 402 -134 599 -196 805
-254 572 -160 1096 -262 1605 -313 271 -26 728 -24 975 5 515 62 971 166 1260
287 l107 44 176 -19 c398 -43 620 -48 738 -15 116 33 85 57 -132 106 -96 22
-160 42 -208 68 l-70 36 -220 0 c-122 1 -277 7 -346 13 -177 18 -426 19 -705
3 -306 -17 -1000 -10 -1222 12 -351 36 -661 112 -1103 272 -519 187 -1003 396
-1997 859 -1082 503 -1506 681 -1984 831 -526 166 -1024 230 -1504 194z"/>
</g>
</svg>
