<?xml version="1.0" standalone="no"?>
<!DOCTYPE svg PUBLIC "-//W3C//DTD SVG 20010904//EN"
 "http://www.w3.org/TR/2001/REC-SVG-20010904/DTD/svg10.dtd">
<svg version="1.0" xmlns="http://www.w3.org/2000/svg"
 width="1338.000000pt" height="1536.000000pt" viewBox="0 0 1338.000000 1536.000000"
 preserveAspectRatio="xMidYMid meet">
<metadata>
Created by potrace 1.16, written by Peter Selinger 2001-2019
</metadata>
<g transform="translate(0.000000,1536.000000) scale(0.100000,-0.100000)"
fill="#000000" stroke="none">
<path d="M1755 15321 c-90 -46 -189 -74 -317 -90 -48 -5 -98 -17 -111 -25 -13
-9 -49 -25 -81 -36 -94 -32 -273 -130 -332 -182 -30 -26 -61 -48 -69 -48 -8 0
-37 -28 -65 -62 -28 -35 -70 -77 -93 -94 -23 -17 -52 -50 -65 -74 -13 -24 -36
-59 -53 -77 -16 -19 -29 -40 -29 -48 0 -8 -25 -41 -56 -72 -44 -46 -72 -93
-140 -228 -46 -93 -84 -177 -84 -186 0 -10 -4 -20 -9 -24 -24 -14 -130 -414
-161 -610 -7 -38 -20 -116 -31 -173 -10 -57 -19 -125 -19 -152 0 -27 -4 -71
-9 -97 -5 -26 -15 -138 -22 -248 -12 -200 -6 -424 22 -770 5 -66 11 -147 13
-180 5 -61 21 -220 36 -355 5 -41 16 -97 24 -124 9 -27 16 -63 16 -80 0 -30
15 -102 47 -231 8 -33 15 -67 15 -75 0 -23 46 -198 58 -220 5 -10 19 -54 29
-97 20 -82 74 -236 109 -313 11 -25 34 -79 51 -120 16 -41 49 -115 72 -165 23
-49 52 -122 65 -162 13 -39 37 -91 54 -115 16 -24 37 -69 45 -102 16 -62 41
-104 87 -148 15 -15 28 -33 28 -41 0 -8 7 -21 16 -28 9 -8 33 -47 54 -89 50
-102 128 -250 246 -465 126 -231 234 -449 234 -472 0 -4 22 -52 48 -107 27
-56 55 -117 63 -136 7 -19 48 -105 91 -190 43 -85 78 -161 78 -168 0 -18 90
-192 99 -192 5 0 13 -18 20 -40 19 -64 127 -283 183 -373 28 -45 87 -143 131
-217 100 -168 206 -330 218 -330 4 0 15 -15 23 -32 13 -27 14 -52 7 -138 -5
-58 -7 -114 -4 -125 2 -11 6 -42 9 -70 5 -59 39 -218 62 -292 15 -52 15 -52
-12 -85 -57 -71 -76 -106 -96 -183 -27 -104 -35 -255 -21 -380 15 -136 90
-444 132 -540 5 -11 20 -50 33 -88 14 -37 42 -102 62 -145 20 -42 42 -93 49
-112 7 -19 25 -62 41 -95 72 -157 137 -291 145 -305 5 -8 26 -49 48 -90 21
-41 64 -112 95 -158 31 -45 56 -86 56 -90 0 -4 -21 -57 -46 -117 -25 -61 -51
-126 -59 -146 -7 -20 -23 -55 -34 -78 -23 -45 -87 -221 -103 -286 -5 -22 -16
-53 -23 -70 -23 -52 -42 -107 -75 -215 -17 -58 -36 -113 -41 -122 -5 -10 -13
-57 -19 -105 -8 -77 -21 -147 -61 -318 -15 -64 -21 -424 -11 -626 8 -156 13
-192 31 -226 29 -57 49 -76 77 -69 17 5 24 1 29 -16 11 -35 41 -63 96 -88 49
-23 51 -24 83 -6 24 13 39 15 52 8 11 -5 34 -17 52 -26 32 -17 34 -17 76 8 24
14 47 33 50 42 6 15 8 16 24 0 10 -9 25 -16 34 -16 20 0 59 37 83 78 22 37 35
40 60 12 32 -35 73 -26 122 27 40 44 43 52 43 102 l0 54 43 -7 c23 -3 67 -15
97 -25 30 -10 98 -26 150 -36 52 -9 125 -23 162 -31 101 -21 156 -18 217 12
113 57 121 118 61 480 -30 178 -44 419 -36 624 8 234 9 240 46 450 17 96 42
240 57 320 14 80 27 147 29 150 6 5 19 0 199 -80 158 -70 251 -105 310 -115
22 -4 45 -11 50 -15 6 -4 37 -15 70 -24 33 -10 71 -22 85 -28 14 -5 76 -13
139 -18 67 -4 116 -12 121 -19 3 -7 5 -59 4 -117 -2 -58 1 -127 6 -152 5 -26
15 -87 21 -137 7 -49 27 -139 45 -200 73 -244 102 -333 133 -405 18 -41 44
-102 58 -135 26 -65 108 -239 150 -320 90 -176 125 -248 146 -305 37 -97 87
-222 94 -233 3 -6 7 -22 8 -36 1 -14 5 -53 9 -86 14 -115 13 -170 -2 -210 -29
-78 -71 -103 -187 -115 -83 -9 -156 -34 -207 -74 -46 -34 -48 -61 -8 -84 36
-21 37 -25 5 -46 -14 -9 -25 -25 -25 -35 0 -25 51 -67 91 -76 l31 -7 -34 -28
c-27 -23 -31 -32 -22 -46 20 -33 75 -54 144 -54 99 -1 228 -33 312 -78 115
-63 318 -112 458 -112 220 1 407 104 432 239 32 170 27 268 -22 424 -11 34
-17 63 -15 66 3 2 51 -8 107 -23 57 -14 111 -26 121 -26 10 0 16 -4 13 -9 -6
-10 65 -21 134 -21 26 0 68 -6 94 -14 25 -8 100 -22 165 -32 l119 -17 48 24
c35 17 56 36 71 65 21 38 22 46 13 120 -6 43 -12 99 -15 124 -2 25 -19 99 -38
165 -20 66 -45 172 -57 235 -12 63 -26 131 -30 150 -9 37 -39 322 -45 425 -2
33 -7 260 -10 505 -6 392 -9 454 -26 524 -10 44 -19 86 -19 94 0 7 19 46 42
85 24 40 48 86 54 102 11 29 13 30 75 30 94 0 282 -73 526 -204 128 -68 336
-195 399 -242 34 -26 81 -56 105 -68 24 -12 64 -38 89 -57 25 -18 79 -58 120
-88 41 -30 147 -119 236 -198 88 -79 189 -168 224 -198 34 -30 87 -76 116
-103 30 -26 100 -83 157 -127 56 -45 131 -105 167 -134 36 -29 88 -68 115 -86
28 -19 71 -50 96 -70 25 -19 63 -48 85 -65 21 -16 73 -57 115 -91 41 -34 90
-69 107 -78 17 -9 37 -24 44 -34 7 -10 38 -36 68 -57 30 -21 89 -64 130 -95
41 -31 82 -60 90 -63 8 -4 56 -36 105 -71 50 -36 137 -97 195 -137 58 -40 107
-75 110 -79 3 -4 19 -16 35 -26 17 -11 41 -30 55 -43 14 -13 72 -49 130 -80
58 -32 114 -63 125 -69 47 -27 346 -140 535 -202 241 -79 283 -96 580 -228
293 -130 612 -259 774 -311 197 -64 226 -43 102 75 -92 88 -164 137 -440 304
-204 123 -380 237 -586 379 -70 49 -606 363 -835 490 -33 19 -94 66 -135 106
-41 40 -115 101 -165 136 -49 35 -120 87 -156 116 -36 29 -70 53 -74 53 -4 0
-19 12 -34 28 -16 15 -57 52 -92 82 -67 57 -315 304 -360 357 -14 17 -34 44
-44 59 -17 27 -77 94 -241 269 -36 39 -83 95 -106 125 -22 30 -46 60 -52 65
-7 6 -33 43 -59 83 -26 39 -64 91 -85 115 -21 23 -49 57 -61 75 -12 18 -45 55
-72 83 -27 27 -63 71 -81 97 -61 91 -167 227 -210 272 -52 55 -114 131 -119
147 -2 7 -14 25 -27 40 -93 115 -158 207 -184 258 -37 72 -75 128 -129 191
-22 25 -54 73 -70 107 -17 33 -58 91 -90 129 -32 38 -59 73 -59 79 0 22 -81
146 -129 198 -28 30 -51 58 -51 63 0 18 -40 85 -81 133 -23 28 -52 73 -65 101
-13 29 -48 82 -79 119 -30 37 -55 71 -55 76 0 16 -149 186 -241 274 -52 49
-120 121 -152 160 -32 38 -81 93 -110 120 -53 51 -64 64 -119 150 -53 81 -412
429 -518 502 -14 9 -81 62 -148 117 -141 115 -251 191 -302 207 -19 6 -120 52
-225 102 -104 49 -244 110 -310 134 -66 25 -142 60 -170 77 -27 18 -82 54
-121 79 -39 25 -82 62 -95 81 -13 19 -42 45 -64 57 -42 24 -397 375 -670 663
-164 174 -297 285 -418 349 -33 18 -74 40 -91 49 -53 29 -176 66 -311 94 -71
15 -146 34 -165 44 -19 10 -75 30 -125 45 -49 14 -106 37 -126 50 -20 13 -56
29 -79 35 -29 8 -58 27 -91 61 -28 28 -73 61 -106 76 -32 15 -76 41 -98 58
-23 17 -57 37 -76 45 -19 8 -56 34 -84 58 -27 25 -75 57 -105 72 -79 38 -190
107 -225 140 -16 15 -68 53 -115 84 -173 116 -233 170 -351 321 -38 50 -89
113 -112 140 -74 89 -104 129 -149 195 -24 36 -66 97 -92 135 -27 39 -61 90
-75 115 -50 86 -66 113 -117 199 -44 74 -100 179 -200 371 -13 25 -40 81 -60
125 -20 44 -65 139 -100 210 -34 72 -71 155 -82 185 -11 30 -29 78 -40 105
-11 28 -32 86 -47 130 -14 44 -49 145 -76 225 -28 80 -75 233 -105 340 -70
251 -94 455 -97 819 -2 243 2 313 23 381 6 19 17 73 26 120 9 50 24 99 38 120
30 46 75 145 86 190 40 163 55 193 148 285 53 53 61 66 67 110 13 98 15 103
64 138 51 37 62 58 79 151 7 36 25 78 44 108 l33 49 85 -6 c80 -7 291 -55 389
-89 24 -9 57 -16 72 -16 34 0 93 36 109 65 6 12 21 25 32 30 25 12 52 61 69
126 19 69 2 101 -78 147 -63 36 -64 37 -84 107 -29 94 -52 138 -116 217 -46
56 -55 75 -64 128 -31 193 -134 333 -255 346 -43 5 -59 0 -129 -35z m4722
-12099 c-85 -209 -86 -278 -8 -619 17 -72 33 -158 36 -190 3 -32 10 -83 15
-113 5 -30 16 -111 25 -180 8 -69 19 -150 25 -180 6 -30 19 -123 30 -206 10
-83 26 -177 34 -210 26 -99 43 -233 32 -244 -22 -22 -43 -10 -56 33 -7 23 -16
53 -21 67 -11 32 -77 309 -89 375 -21 113 -57 379 -66 490 -21 242 -36 363
-58 445 -25 95 -73 229 -102 284 -14 28 -14 31 5 55 11 14 41 58 67 96 51 74
155 197 162 190 3 -2 -12 -44 -31 -93z m-3131 -765 c-9 -45 -15 -111 -15 -147
0 -36 -5 -81 -11 -100 -5 -19 -10 -56 -10 -82 0 -57 -13 -68 -37 -31 -22 33
-24 171 -4 303 16 107 26 141 59 210 l27 55 3 -63 c2 -35 -4 -100 -12 -145z"/>
</g>
</svg>
