<?xml version="1.0" standalone="no"?>
<!DOCTYPE svg PUBLIC "-//W3C//DTD SVG 20010904//EN"
 "http://www.w3.org/TR/2001/REC-SVG-20010904/DTD/svg10.dtd">
<svg version="1.0" xmlns="http://www.w3.org/2000/svg"
 width="1536.000000pt" height="1476.000000pt" viewBox="0 0 1536.000000 1476.000000"
 preserveAspectRatio="xMidYMid meet">
<metadata>
Created by potrace 1.16, written by Peter Selinger 2001-2019
</metadata>
<g transform="translate(0.000000,1476.000000) scale(0.100000,-0.100000)"
fill="#000000" stroke="none">
<path d="M14955 14750 c-4 -6 -70 -10 -164 -10 l-157 0 -110 -41 c-60 -23
-145 -48 -189 -55 -106 -19 -173 -53 -256 -132 -151 -141 -226 -299 -364 -757
-66 -217 -174 -527 -280 -800 -386 -993 -851 -1779 -1556 -2631 -626 -756
-1279 -1199 -2359 -1602 -318 -118 -425 -148 -890 -247 -820 -174 -1694 -472
-2352 -801 -317 -159 -555 -304 -818 -499 -325 -241 -377 -269 -585 -316 -256
-57 -380 -105 -755 -294 -462 -231 -576 -276 -821 -325 -85 -17 -164 -33 -176
-35 -22 -5 -23 -2 -23 53 0 69 -13 86 -80 101 -135 31 -593 -11 -863 -80 -45
-11 -174 -51 -287 -88 -735 -244 -1367 -593 -1748 -966 -107 -105 -122 -124
-122 -152 0 -22 5 -33 14 -33 30 0 165 79 280 163 142 104 218 146 476 265
311 143 599 248 960 351 195 55 520 135 526 128 3 -2 -7 -61 -21 -129 -52
-261 -21 -432 93 -496 20 -11 85 -30 142 -42 101 -21 120 -22 465 -15 378 7
438 4 600 -36 104 -26 543 -171 805 -266 113 -41 264 -91 335 -112 l130 -37 6
-110 c4 -60 14 -149 23 -199 42 -228 160 -766 202 -920 93 -345 107 -461 92
-770 -21 -413 0 -539 155 -936 115 -296 150 -442 150 -624 -1 -114 -5 -145
-33 -250 -27 -100 -33 -144 -37 -260 -4 -102 -10 -156 -25 -199 -23 -71 -18
-134 17 -213 39 -86 115 -122 293 -138 42 -4 80 -9 84 -12 4 -2 -4 -20 -17
-40 -31 -44 -31 -58 -3 -77 49 -34 141 -14 263 57 75 44 125 59 125 37 0 -5
-5 -20 -11 -33 -8 -18 -8 -30 1 -47 17 -31 54 -22 160 40 85 48 140 74 140 65
0 -3 -14 -30 -31 -60 -28 -50 -30 -58 -19 -90 7 -21 18 -35 28 -35 30 0 116
57 184 122 45 44 80 68 110 77 53 16 110 45 125 63 6 7 15 73 19 146 8 152 4
149 102 102 78 -37 111 -38 140 -5 27 31 47 31 118 0 106 -47 208 -24 184 40
-6 15 -10 28 -10 29 0 2 29 -5 65 -16 74 -23 106 -19 140 18 75 81 46 257 -80
478 l-45 79 26 54 c14 30 35 98 46 151 58 274 104 405 203 577 58 100 101 188
132 265 l10 25 12 -22 c16 -31 57 -237 71 -362 15 -129 9 -206 -30 -356 -34
-134 -37 -181 -13 -271 16 -61 16 -66 0 -97 -26 -48 -171 -242 -194 -258 -34
-25 -63 -71 -63 -101 0 -43 14 -65 89 -139 36 -37 89 -92 117 -123 l50 -56
105 0 c101 0 108 -2 179 -36 88 -43 110 -43 272 9 82 26 118 43 148 71 36 33
45 36 77 30 20 -4 63 -18 96 -31 78 -32 99 -28 111 19 26 105 -86 222 -232
244 -24 4 -46 13 -49 21 -7 17 14 184 33 272 8 35 34 100 58 145 24 44 49 106
55 136 7 33 10 155 9 310 -3 246 -2 262 29 445 18 105 53 285 78 400 26 116
52 249 58 297 l11 87 75 6 c107 9 244 39 398 85 255 77 434 157 863 390 252
137 459 241 508 255 21 6 22 4 22 -67 1 -108 22 -208 74 -347 l47 -124 -3
-271 -3 -271 37 -126 c62 -211 144 -425 222 -573 40 -78 101 -193 134 -256 84
-160 122 -276 132 -409 8 -115 20 -148 85 -228 38 -48 51 -114 42 -212 -6 -70
-24 -107 -92 -189 -61 -74 -77 -119 -77 -218 1 -111 40 -179 99 -172 25 3 28
7 31 45 3 44 10 51 28 33 19 -19 252 -32 444 -26 288 10 349 25 398 97 39 56
28 146 -42 353 -74 222 -77 247 -36 361 24 67 32 108 32 160 0 70 -2 78 -66
247 -20 52 -29 106 -41 245 -63 703 -84 822 -209 1155 -110 295 -110 298 -71
658 31 284 32 436 4 564 l-21 96 65 142 c102 221 139 373 157 628 10 158 -1
359 -31 537 -54 328 -193 736 -319 940 l-48 78 288 285 c295 292 395 407 612
705 272 373 603 885 847 1310 110 192 287 547 369 740 132 312 175 445 350
1085 190 694 215 798 388 1642 28 139 58 255 83 320 54 144 157 376 185 418
15 22 26 56 29 94 3 32 8 60 10 62 2 3 35 7 73 10 145 11 165 23 215 129 41
86 36 155 -12 155 -12 0 -23 8 -26 20 -3 11 -14 20 -24 20 -14 0 -19 7 -19 25
0 15 -6 25 -14 25 -8 0 -17 11 -20 25 -4 14 -21 49 -40 78 -18 28 -36 62 -40
75 -7 20 -4 22 32 22 21 0 61 6 88 14 88 25 110 26 147 7 45 -23 57 -13 57 46
0 30 5 45 15 49 10 4 15 21 15 54 0 33 -5 50 -15 54 -8 3 -15 17 -15 32 0 14
-18 94 -41 178 -94 347 -172 531 -258 609 -55 49 -66 54 -76 37z"/>
</g>
</svg>
