<?xml version="1.0" standalone="no"?>
<!DOCTYPE svg PUBLIC "-//W3C//DTD SVG 20010904//EN"
 "http://www.w3.org/TR/2001/REC-SVG-20010904/DTD/svg10.dtd">
<svg version="1.0" xmlns="http://www.w3.org/2000/svg"
 width="1536.000000pt" height="557.000000pt" viewBox="0 0 1536.000000 557.000000"
 preserveAspectRatio="xMidYMid meet">
<metadata>
Created by potrace 1.16, written by Peter Selinger 2001-2019
</metadata>
<g transform="translate(0.000000,557.000000) scale(0.100000,-0.100000)"
fill="#000000" stroke="none">
<path d="M2161 5546 c-14 -25 -38 -36 -82 -36 -20 0 -28 6 -33 25 -8 31 -33
33 -38 3 -2 -17 -11 -24 -30 -26 -16 -2 -28 0 -28 5 0 4 -5 15 -10 23 -9 13
-13 11 -29 -10 -16 -21 -19 -22 -18 -6 3 31 -21 29 -38 -3 -19 -37 -21 -38
-45 -8 -18 22 -19 22 -25 2 -11 -33 -20 -48 -39 -59 -13 -9 -19 -7 -27 7 -12
21 -29 22 -29 3 0 -20 -21 -31 -30 -16 -9 15 -30 4 -30 -16 0 -8 -6 -15 -12
-15 -7 -1 -18 -2 -24 -3 -6 0 -18 -9 -28 -18 -10 -10 -27 -18 -38 -18 -11 0
-26 -6 -32 -14 -6 -8 -43 -33 -83 -55 -93 -52 -142 -55 -180 -11 -22 27 -30
30 -84 30 -52 0 -70 -6 -137 -44 -43 -24 -116 -61 -162 -83 -117 -53 -218
-111 -260 -148 -20 -17 -70 -57 -113 -88 -49 -37 -82 -69 -90 -90 -8 -18 -72
-91 -144 -162 -218 -220 -243 -257 -243 -375 0 -55 7 -88 30 -149 30 -78 46
-96 75 -85 8 3 19 2 26 -2 7 -4 27 -8 46 -10 25 -2 33 0 30 10 -4 9 19 16 80
25 75 10 88 10 102 -4 24 -21 44 -19 36 4 -7 23 19 35 45 21 25 -14 30 -13 30
6 0 13 7 15 33 12 17 -3 40 -8 49 -13 15 -6 18 -2 18 19 0 29 15 33 44 11 11
-8 28 -15 38 -15 15 0 17 3 8 19 -15 29 -13 30 25 24 30 -5 34 -3 29 11 -8 20
-1 20 37 0 37 -19 46 -13 31 21 -12 26 -12 26 24 19 33 -6 36 -5 30 13 -8 25
17 38 44 23 10 -6 26 -10 35 -10 13 0 14 4 5 20 -9 17 -7 22 13 31 18 8 30 8
45 0 28 -15 30 -14 34 11 2 16 14 26 38 33 19 6 64 25 100 42 36 17 78 33 94
37 26 6 28 5 17 -8 -7 -8 -41 -31 -74 -50 -34 -19 -113 -69 -176 -110 -63 -42
-119 -76 -125 -76 -6 0 -22 -9 -36 -20 -14 -11 -30 -20 -36 -20 -6 0 -28 -16
-49 -35 -25 -24 -43 -34 -55 -30 -13 4 -20 0 -25 -15 -7 -21 -35 -28 -35 -9 0
17 -20 -1 -30 -26 -5 -13 -18 -29 -29 -35 -17 -8 -22 -7 -31 10 -14 26 -26 19
-33 -20 -5 -22 -11 -28 -22 -23 -11 4 -18 -1 -22 -17 -4 -15 -8 -18 -13 -10
-9 15 -30 4 -30 -16 0 -25 -17 -15 -31 17 -12 29 -13 30 -26 13 -7 -10 -13
-30 -13 -46 0 -31 -14 -37 -28 -12 -12 21 -32 10 -32 -17 0 -16 -5 -19 -19
-14 -13 4 -23 0 -30 -12 -10 -17 -12 -16 -31 7 -17 21 -21 23 -30 10 -5 -8
-10 -22 -10 -30 0 -8 -9 -21 -20 -28 -23 -14 -40 -50 -32 -70 5 -13 129 -109
169 -131 58 -31 125 -6 308 115 66 44 134 86 150 93 86 38 251 95 338 116 l97
24 57 -20 c31 -10 74 -19 96 -19 25 0 58 -11 91 -29 41 -23 68 -30 141 -35 50
-3 126 -10 170 -16 44 -5 123 -9 175 -10 106 -1 147 -14 229 -75 69 -50 314
-178 438 -229 59 -25 161 -60 226 -79 65 -19 126 -42 136 -51 10 -9 45 -67 77
-129 39 -74 77 -130 112 -165 29 -30 52 -61 50 -69 -6 -29 -188 -94 -314 -112
-87 -12 -224 -120 -224 -176 0 -38 40 -59 96 -50 41 6 45 5 41 -12 -16 -55
-18 -87 -7 -114 14 -32 33 -36 75 -17 23 10 28 10 36 -4 18 -31 85 6 115 64
21 40 70 65 197 98 64 16 119 30 122 30 4 0 3 -26 -1 -57 -5 -43 -19 -78 -55
-138 -27 -45 -49 -89 -49 -97 0 -9 -30 -53 -66 -97 -55 -68 -64 -84 -54 -96 7
-8 20 -15 30 -15 19 0 144 85 174 119 28 31 34 26 25 -24 -5 -25 -6 -51 -3
-59 3 -8 -13 -33 -38 -60 -34 -35 -42 -50 -36 -66 5 -14 16 -20 38 -20 39 0
110 64 151 135 l29 50 0 -35 c0 -19 -9 -50 -20 -68 -30 -49 -27 -65 13 -57 76
17 102 71 111 235 6 113 11 137 50 250 24 68 48 126 53 127 5 2 140 -62 299
-142 483 -244 609 -297 848 -355 65 -17 120 -31 121 -32 1 -2 28 -52 59 -113
65 -123 99 -172 210 -295 87 -98 145 -204 202 -375 32 -96 35 -116 29 -169 -4
-34 -7 -81 -8 -105 -1 -38 -9 -52 -64 -116 -47 -56 -92 -92 -191 -158 -133
-87 -162 -115 -162 -153 0 -35 -82 -97 -210 -161 -63 -31 -122 -62 -130 -69
-8 -7 -35 -17 -59 -24 -79 -21 -158 -86 -183 -149 -13 -34 -12 -119 1 -153 8
-20 17 -28 36 -28 20 0 33 13 66 65 22 36 48 65 56 65 8 0 26 -9 40 -20 18
-14 41 -20 73 -20 45 0 48 -2 54 -31 7 -36 42 -89 59 -89 25 0 38 18 46 61 8
39 9 40 10 12 1 -45 55 -105 90 -101 23 3 26 8 29 50 2 27 4 48 6 48 2 0 16
-5 33 -10 53 -19 133 33 133 86 0 19 5 24 25 24 28 0 75 40 75 64 0 8 16 20
35 26 19 6 51 30 70 53 32 37 35 46 35 104 0 40 6 72 15 87 28 42 179 152 268
194 83 39 144 82 206 144 36 35 53 95 57 203 3 87 2 93 -32 158 -38 73 -52
138 -55 272 -2 73 1 91 35 180 21 55 42 104 46 108 4 5 16 -12 25 -38 17 -44
76 -105 101 -105 6 0 20 -11 33 -23 12 -13 45 -34 74 -47 28 -13 113 -53 187
-88 74 -36 196 -91 270 -123 125 -53 138 -61 178 -111 48 -60 132 -249 139
-312 8 -80 34 -150 64 -177 27 -24 30 -33 35 -110 8 -106 -22 -258 -65 -341
-22 -40 -29 -66 -25 -85 5 -26 0 -31 -58 -64 -54 -31 -75 -37 -146 -43 -45 -3
-91 -10 -102 -16 -14 -7 -26 -8 -39 0 -35 18 -150 12 -197 -10 -81 -40 -155
-147 -137 -198 15 -40 51 -41 125 -7 65 31 76 31 80 3 3 -22 8 -23 103 -26 54
-1 121 2 147 8 38 8 58 7 94 -6 26 -9 59 -13 73 -10 24 6 210 15 295 15 84 0
143 20 180 62 20 21 36 47 36 57 0 14 7 17 45 14 51 -5 103 21 125 63 17 31
12 35 -46 46 -55 10 -80 27 -64 43 18 18 11 62 -16 102 -27 39 -27 40 -20 164
6 120 16 184 50 315 19 75 20 152 1 185 -8 14 -14 41 -15 61 0 20 -9 47 -19
61 -28 35 -146 239 -193 332 -59 116 -92 216 -126 371 -17 77 -38 161 -45 187
-16 51 -12 58 38 58 12 0 87 16 166 36 127 31 167 36 344 45 110 5 366 20 570
34 663 45 934 34 1460 -60 569 -101 760 -119 1195 -112 558 9 939 76 1552 272
537 173 952 360 1628 735 551 306 825 439 1089 530 178 61 203 77 163 110 -39
32 -81 38 -193 28 -239 -20 -543 -120 -999 -328 -550 -250 -728 -323 -944
-385 -449 -129 -792 -173 -1246 -162 -375 10 -656 44 -1004 122 -307 69 -856
308 -1681 730 -279 142 -359 188 -357 201 3 13 -2 15 -21 10 -18 -4 -74 18
-221 89 -108 53 -196 100 -196 106 0 6 -6 9 -13 6 -8 -3 -33 3 -55 13 -30 14
-42 25 -42 40 0 18 -3 19 -21 10 -23 -13 -32 -10 -151 39 -55 23 -75 36 -71
47 4 11 -4 14 -36 14 -45 0 -169 44 -188 67 -6 8 -17 13 -25 12 -15 -4 -133
35 -198 65 -49 22 -53 23 -90 25 -24 2 -24 2 -6 16 28 21 14 28 -30 16 -36
-10 -64 -4 -67 15 -1 5 -11 8 -22 6 -11 -2 -59 9 -107 25 -75 24 -87 31 -82
47 5 16 2 17 -35 11 -45 -7 -109 9 -127 33 -7 9 -18 13 -28 9 -10 -4 -62 5
-117 20 -75 20 -98 30 -94 41 9 25 -6 32 -37 16 -28 -14 -36 -14 -98 1 -38 9
-71 23 -74 31 -4 11 -10 12 -24 5 -18 -10 -30 -8 -174 30 -22 6 -38 16 -38 24
0 18 -12 19 -28 3 -12 -12 -134 10 -227 42 -28 10 -84 23 -125 30 -41 7 -80
16 -86 21 -6 5 -18 7 -27 4 -21 -9 -180 14 -188 27 -4 6 -13 7 -25 1 -15 -8
-164 -4 -266 6 -5 1 -8 8 -8 16 0 13 -3 13 -25 -1 -22 -14 -42 -16 -133 -10
-163 10 -196 15 -208 30 -7 10 -15 12 -25 5 -8 -5 -35 -9 -61 -9 -34 0 -50 5
-57 18 -9 15 -13 15 -31 4 -31 -19 -160 -29 -160 -12 0 7 -7 10 -15 6 -9 -3
-15 0 -15 9 0 22 -15 18 -33 -7 -14 -22 -15 -22 -34 -5 -18 16 -22 16 -33 2
-16 -19 -50 -20 -50 0 0 17 -12 19 -26 5 -6 -6 -43 -14 -83 -17 -64 -5 -71 -4
-65 11 7 19 -12 22 -23 2 -4 -7 -27 -16 -51 -20 -29 -4 -41 -3 -37 4 13 21 -7
28 -26 9 -17 -17 -33 -20 -97 -20 -112 0 -121 -1 -182 -15 -67 -17 -167 -18
-172 -3 -3 9 -9 9 -25 0 -30 -15 -53 -14 -53 4 0 8 -4 15 -9 15 -5 0 -14 -7
-21 -15 -14 -17 -71 -20 -87 -4 -8 8 -17 8 -31 0 -31 -17 -82 -14 -82 4 0 18
-4 19 -30 3 -16 -10 -24 -10 -40 0 -11 7 -31 10 -45 6 -14 -3 -32 -1 -39 5 -8
7 -20 11 -28 10 -7 -1 -21 -1 -32 0 -15 1 -16 4 -7 15 18 21 -6 32 -28 12 -22
-20 -31 -20 -31 -1 0 11 -7 14 -24 9 -29 -7 -86 20 -86 41 0 9 -9 15 -21 15
-13 0 -23 8 -26 21 -5 17 -11 20 -34 15 -22 -4 -32 -1 -41 14 -7 11 -22 20
-34 20 -29 0 -48 22 -32 38 9 9 5 12 -18 12 -37 0 -67 29 -58 55 6 15 3 17
-14 13 -15 -4 -19 -2 -15 8 3 9 -2 14 -16 14 -24 0 -28 15 -6 24 8 3 15 12 15
21 0 19 -4 19 -40 0 -32 -16 -64 -10 -56 11 4 10 -5 14 -34 14 -22 0 -40 5
-40 10 0 6 5 10 10 10 6 0 10 7 10 15 0 12 -10 15 -42 13 -36 -3 -43 0 -42 15
2 14 -4 16 -30 11 -26 -4 -37 -1 -57 20 -13 14 -30 26 -37 26 -9 0 -10 5 -2
19 24 46 4 54 -35 15 -25 -24 -27 -25 -39 -9 -9 13 -15 15 -20 7 -4 -7 -14
-12 -22 -12 -10 0 -13 7 -8 25 8 32 -3 32 -38 -2 -27 -26 -28 -26 -28 -5 0 30
-14 35 -35 12 -23 -25 -50 -27 -40 -2 11 28 11 34 -1 38 -6 3 -16 -7 -23 -20z"/>
</g>
</svg>
