<?xml version="1.0" standalone="no"?>
<!DOCTYPE svg PUBLIC "-//W3C//DTD SVG 20010904//EN"
 "http://www.w3.org/TR/2001/REC-SVG-20010904/DTD/svg10.dtd">
<svg version="1.0" xmlns="http://www.w3.org/2000/svg"
 width="1536.000000pt" height="534.000000pt" viewBox="0 0 1536.000000 534.000000"
 preserveAspectRatio="xMidYMid meet">
<metadata>
Created by potrace 1.16, written by Peter Selinger 2001-2019
</metadata>
<g transform="translate(0.000000,534.000000) scale(0.100000,-0.100000)"
fill="#000000" stroke="none">
<path d="M6240 5330 c-30 -4 -73 -12 -95 -18 -22 -6 -107 -25 -190 -42 -168
-35 -523 -129 -630 -167 -101 -37 -438 -197 -617 -293 -177 -96 -239 -136
-363 -235 -139 -112 -129 -109 -355 -113 -260 -5 -382 7 -465 47 -35 17 -128
47 -207 67 -79 19 -197 52 -263 74 -86 27 -160 43 -260 55 -77 9 -145 21 -151
26 -6 5 -16 34 -23 65 -15 64 -57 119 -99 127 -50 10 -136 -42 -264 -160 -41
-37 -67 -53 -95 -58 -108 -16 -219 -41 -313 -71 -126 -39 -139 -41 -305 -54
-208 -16 -653 -127 -817 -204 -51 -24 -129 -71 -172 -105 -44 -34 -115 -83
-158 -108 -162 -97 -368 -277 -389 -341 -14 -44 -6 -171 17 -262 24 -93 66
-181 109 -228 24 -28 42 -60 52 -99 18 -71 37 -108 117 -231 96 -147 122 -165
266 -177 65 -5 103 -15 164 -42 97 -43 146 -52 169 -28 21 20 22 64 2 112 -8
19 -15 41 -15 48 0 15 139 81 200 94 50 12 142 13 180 2 21 -6 25 -13 25 -46
0 -46 19 -43 -180 -30 -96 6 -115 4 -145 -12 -20 -10 -36 -27 -38 -39 -4 -28
58 -87 125 -120 55 -27 73 -44 91 -86 6 -15 31 -39 54 -54 24 -15 68 -53 99
-86 48 -49 62 -58 92 -58 20 0 42 -6 49 -14 16 -16 128 -16 149 0 8 6 41 18
74 28 33 10 70 25 83 33 13 8 30 12 39 9 8 -4 22 3 33 16 16 19 22 21 38 11
23 -14 32 -8 32 22 0 15 10 25 35 35 25 10 35 20 35 35 0 12 6 30 14 41 22 29
147 24 245 -10 41 -14 84 -26 95 -26 28 0 177 -76 196 -99 12 -16 32 -20 110
-23 124 -5 163 -27 359 -196 41 -36 88 -70 105 -77 37 -16 64 -44 100 -108 27
-47 46 -60 46 -32 0 8 4 15 9 15 14 0 62 -61 81 -103 10 -21 32 -47 49 -58 42
-25 64 -79 64 -154 1 -49 -11 -90 -61 -229 -108 -294 -154 -509 -167 -781 -4
-90 -12 -151 -21 -171 -28 -58 -73 -91 -169 -119 -49 -15 -106 -35 -125 -45
-19 -10 -56 -20 -82 -24 -55 -8 -191 -53 -260 -86 -66 -31 -118 -90 -118 -135
0 -41 20 -55 78 -55 39 0 40 -1 46 -42 8 -47 21 -69 51 -86 27 -14 46 -3 112
61 46 44 53 48 58 31 16 -50 36 -84 59 -99 23 -15 27 -14 91 20 62 32 73 35
153 35 127 0 121 -2 337 139 62 41 180 161 204 209 12 23 26 40 30 37 19 -11
27 8 86 215 15 52 38 115 51 140 14 25 33 72 42 105 14 47 23 60 38 60 14 0
20 8 22 30 6 71 54 196 119 308 38 66 143 206 155 207 4 0 21 -28 37 -63 61
-123 111 -428 111 -675 0 -73 -5 -142 -10 -153 -23 -42 -87 -60 -315 -90 -169
-22 -183 -25 -209 -48 -24 -21 -33 -47 -46 -123 -8 -51 -7 -66 5 -85 20 -30
46 -29 110 3 61 29 153 32 146 4 -14 -53 -12 -68 10 -84 31 -21 180 -21 269 0
36 9 128 21 205 27 161 14 188 26 224 102 12 25 27 45 35 45 22 0 35 23 46 80
6 29 16 60 22 68 14 16 24 86 37 272 5 69 24 206 41 305 17 99 38 225 46 280
19 125 30 153 62 162 37 9 200 -4 262 -22 92 -26 288 -38 354 -21 66 17 416
23 488 9 25 -6 52 -6 60 -2 11 7 10 9 -1 9 -8 0 -11 3 -8 7 4 3 34 -2 67 -12
60 -18 60 -18 84 4 22 21 24 21 92 5 64 -14 71 -14 98 2 25 15 47 16 160 11
73 -3 144 -10 158 -16 20 -7 28 -7 31 2 8 22 45 -23 158 -189 60 -89 144 -209
185 -266 83 -113 214 -361 214 -406 0 -29 -17 -59 -59 -105 -55 -61 -54 -61
-446 -68 l-360 -7 -88 -31 c-48 -16 -120 -35 -160 -40 -116 -16 -191 -48 -258
-108 -73 -66 -89 -126 -43 -162 33 -26 74 -26 184 -1 110 25 119 25 130 -4 24
-65 107 -78 169 -28 23 19 61 37 88 42 27 6 318 15 648 20 330 5 627 14 660
19 33 6 116 13 185 17 106 5 131 10 167 30 79 46 100 103 82 233 -17 126 -75
295 -109 316 -5 3 -10 14 -10 24 0 10 -15 38 -34 62 -61 80 -124 233 -141 344
-9 55 -23 135 -30 179 -18 96 -8 152 42 249 37 70 65 99 145 147 38 23 48 36
54 64 3 20 10 36 15 36 5 0 36 -22 69 -49 34 -26 170 -128 303 -225 133 -98
286 -215 339 -260 120 -102 213 -165 438 -296 203 -118 277 -171 286 -205 11
-44 -43 -122 -177 -257 -115 -114 -136 -130 -215 -167 -48 -23 -103 -53 -122
-68 -75 -57 -130 -67 -513 -93 -248 -17 -404 -50 -434 -93 -30 -43 -7 -117 36
-117 10 0 29 -11 41 -25 l22 -25 195 0 c179 0 199 -2 226 -20 40 -26 63 -25
138 6 57 25 77 27 257 34 182 6 202 9 295 39 55 18 125 44 155 60 61 30 307
186 440 279 47 33 97 62 112 66 47 11 146 115 254 265 57 81 115 159 128 176
l24 30 94 -90 c107 -103 173 -150 280 -198 41 -19 125 -64 187 -101 137 -81
329 -178 396 -199 68 -21 172 -41 415 -77 113 -17 338 -55 500 -85 405 -74
396 -73 872 -90 439 -16 652 -28 766 -45 91 -13 940 -25 1126 -15 146 7 150 8
178 35 43 44 38 74 -26 136 -117 113 -232 143 -806 209 -420 48 -1114 148
-1299 186 -53 11 -307 58 -566 105 -583 105 -567 102 -760 178 -88 35 -223 85
-300 111 -151 51 -161 57 -307 183 -105 91 -201 198 -407 457 -75 94 -165 202
-201 240 -263 285 -679 829 -740 969 -10 23 -18 64 -18 91 0 33 -11 77 -31
128 -17 43 -31 95 -31 115 0 40 -26 72 -97 121 -36 25 -46 49 -13 31 30 -16
25 -4 -29 69 -27 36 -62 89 -79 117 -16 28 -61 92 -99 142 -77 102 -155 243
-213 387 -57 143 -116 233 -262 403 -123 142 -416 382 -688 562 -154 102 -231
139 -312 151 -97 13 -175 26 -268 43 -47 8 -172 22 -278 31 -107 9 -237 23
-290 31 -53 9 -146 20 -207 24 -132 11 -687 10 -765 0z"/>
</g>
</svg>
