<?xml version="1.0" standalone="no"?>
<!DOCTYPE svg PUBLIC "-//W3C//DTD SVG 20010904//EN"
 "http://www.w3.org/TR/2001/REC-SVG-20010904/DTD/svg10.dtd">
<svg version="1.0" xmlns="http://www.w3.org/2000/svg"
 width="1536.000000pt" height="1278.000000pt" viewBox="0 0 1536.000000 1278.000000"
 preserveAspectRatio="xMidYMid meet">
<metadata>
Created by potrace 1.16, written by Peter Selinger 2001-2019
</metadata>
<g transform="translate(0.000000,1278.000000) scale(0.100000,-0.100000)"
fill="#000000" stroke="none">
<path d="M7765 12756 c-74 -34 -160 -110 -308 -272 -142 -156 -188 -194 -354
-294 -89 -53 -129 -86 -233 -191 -69 -70 -135 -132 -147 -138 -56 -28 -150 -6
-377 91 -417 177 -419 177 -845 155 -179 -10 -401 -25 -493 -34 -157 -15 -171
-15 -212 1 -70 27 -162 103 -375 310 -186 181 -204 195 -292 239 -113 56 -207
82 -341 97 -174 19 -331 -11 -401 -78 -46 -44 -67 -97 -92 -231 -32 -176 -56
-228 -130 -278 -18 -12 -129 -59 -247 -103 -523 -199 -803 -345 -919 -481 -30
-35 -89 -99 -132 -142 -133 -132 -189 -286 -127 -352 36 -39 77 -66 97 -66 10
1 52 1 94 1 125 -1 145 12 274 185 99 133 160 191 210 201 66 12 275 -38 275
-66 0 -6 -30 -42 -66 -81 -78 -83 -100 -129 -160 -338 -59 -204 -95 -276 -197
-390 -188 -211 -209 -242 -323 -463 -59 -117 -166 -309 -237 -428 -71 -118
-161 -278 -200 -355 -108 -215 -173 -271 -492 -433 -99 -50 -221 -118 -271
-150 -98 -64 -130 -107 -141 -192 -6 -45 -12 -48 -38 -20 -21 23 -118 57 -204
71 -69 11 -182 0 -271 -27 -37 -11 -56 -23 -71 -47 -19 -29 -20 -43 -15 -152
3 -66 15 -188 26 -271 11 -83 24 -208 29 -277 6 -88 14 -134 25 -151 9 -14 49
-50 90 -80 92 -68 130 -119 236 -311 45 -82 91 -166 101 -185 11 -19 65 -125
121 -235 72 -140 150 -271 261 -438 190 -287 206 -316 295 -527 73 -176 141
-296 250 -444 104 -140 265 -330 371 -440 94 -96 241 -226 271 -238 8 -4 94
-70 190 -148 220 -178 367 -275 648 -429 122 -67 325 -191 450 -275 268 -180
350 -229 742 -446 366 -202 437 -243 575 -335 218 -145 303 -177 792 -301 462
-117 597 -170 1158 -460 176 -91 399 -204 495 -251 638 -312 1018 -505 1170
-594 96 -56 261 -140 365 -187 171 -75 639 -300 1385 -664 146 -71 382 -180
525 -241 143 -61 312 -138 375 -171 394 -204 379 -200 710 -200 268 0 328 7
484 56 124 39 400 177 486 243 222 169 282 254 246 350 -13 34 -16 80 -14 261
l3 219 -32 65 c-23 48 -35 89 -42 156 -6 50 -16 106 -22 125 -15 44 -56 99
-74 99 -21 0 -65 -59 -96 -127 -16 -35 -31 -63 -35 -63 -4 0 -4 58 -1 128 8
155 -7 368 -33 480 -11 46 -36 121 -56 167 -39 90 -67 126 -85 108 -6 -6 -25
-71 -41 -145 -37 -162 -72 -261 -143 -403 l-55 -109 0 125 c0 68 -7 154 -14
190 -16 75 -59 167 -82 176 -41 16 -94 -86 -182 -352 -68 -205 -112 -300 -186
-400 -29 -38 -58 -81 -65 -93 -21 -40 -23 -18 -7 70 45 245 60 386 60 553 0
153 -3 180 -27 268 -31 112 -63 186 -85 195 -41 15 -128 -154 -217 -424 -35
-108 -80 -224 -99 -258 -36 -62 -120 -166 -136 -166 -5 0 -2 19 6 43 29 81 44
228 45 432 0 207 -8 308 -42 505 -25 145 -43 201 -74 230 l-25 24 -30 -29
c-40 -39 -114 -193 -185 -388 -63 -172 -196 -453 -239 -504 -39 -46 -156 -74
-156 -38 0 8 16 82 35 164 80 339 86 557 18 687 -24 47 -42 59 -76 50 -20 -5
-33 -22 -59 -79 -18 -39 -72 -151 -120 -247 -85 -169 -87 -173 -81 -120 9 76
9 150 0 183 -11 39 -39 34 -90 -16 -39 -37 -175 -126 -218 -142 -14 -5 -18 4
-24 52 -8 65 -33 131 -59 152 -16 14 -27 6 -118 -90 -55 -57 -102 -99 -104
-92 -7 15 38 101 99 192 63 95 122 219 149 318 32 115 32 348 1 415 -32 70
-73 83 -129 39 -38 -29 -136 -145 -242 -285 -58 -76 -144 -178 -191 -227 -111
-115 -121 -116 -208 -20 -53 59 -73 73 -133 96 -38 15 -103 51 -143 80 -40 30
-104 66 -142 82 -54 22 -85 44 -140 98 -38 39 -88 78 -110 87 -22 9 -75 31
-117 48 -64 26 -94 47 -173 121 -65 60 -164 134 -303 226 -293 193 -339 230
-597 483 -127 124 -340 326 -475 450 -135 124 -351 329 -480 455 -266 260
-353 338 -694 610 -133 106 -279 227 -326 268 -170 150 -703 535 -1025 739
-99 63 -292 189 -430 279 -416 274 -533 340 -950 534 -199 92 -461 221 -855
422 -274 140 -372 182 -533 229 -66 19 -129 42 -142 50 -30 20 -55 72 -61 132
-6 59 10 91 58 116 52 29 90 13 232 -93 316 -238 573 -341 1041 -420 230 -38
500 -69 685 -77 127 -6 156 -4 233 15 99 24 142 26 153 10 14 -23 92 -47 184
-59 52 -6 167 -24 255 -40 88 -16 216 -34 285 -42 168 -18 807 -18 950 0 185
23 382 60 505 96 242 70 313 70 463 0 43 -19 91 -34 112 -34 21 0 57 -7 81
-16 78 -27 226 -43 498 -54 448 -17 483 -19 571 -35 184 -35 420 -115 653
-222 67 -31 173 -75 235 -99 144 -56 184 -77 233 -121 67 -60 99 -147 114
-308 11 -108 43 -141 93 -95 31 29 45 61 82 180 17 58 36 109 40 114 14 14 48
-53 65 -126 18 -79 19 -215 4 -412 -12 -161 -3 -293 21 -309 25 -15 107 30
172 95 77 77 139 205 174 357 14 62 30 124 36 139 10 25 11 26 18 7 5 -11 9
-28 9 -37 2 -35 43 -128 62 -138 40 -22 72 11 138 139 34 66 68 122 76 125 34
13 37 -18 32 -286 -4 -219 -8 -279 -26 -357 -11 -52 -21 -104 -21 -117 0 -51
63 -70 135 -39 133 55 342 376 385 590 7 33 19 75 27 93 19 39 50 43 59 7 3
-13 4 -152 2 -307 -4 -241 -8 -302 -28 -410 -22 -120 -22 -128 -6 -152 21 -33
49 -33 104 -1 116 66 242 210 311 355 66 138 84 221 85 390 l1 145 27 3 c34 4
63 -24 79 -75 6 -21 14 -121 16 -223 3 -103 10 -191 15 -197 25 -31 111 2 176
67 52 52 149 197 173 260 10 25 25 71 34 103 36 133 45 27 20 -233 -36 -364
-73 -517 -175 -720 -76 -153 -77 -155 -45 -176 25 -16 29 -16 81 0 126 40 336
220 517 446 194 241 259 361 282 520 20 133 22 139 51 150 13 5 95 18 181 29
94 12 188 31 232 46 41 14 89 25 108 25 31 0 33 -2 33 -32 0 -98 -231 -864
-327 -1086 -24 -57 -42 -110 -39 -119 8 -20 43 -13 141 28 146 60 249 147 397
333 35 44 68 81 75 83 26 9 -22 -101 -122 -277 -75 -133 -116 -221 -113 -243
2 -17 11 -23 41 -25 52 -4 216 75 326 159 110 82 303 274 373 369 85 116 106
159 148 297 54 180 62 194 55 108 -2 -38 -23 -142 -45 -230 -22 -88 -38 -170
-35 -182 8 -33 52 -30 101 5 119 86 311 369 427 627 48 108 50 120 51 275 l1
135 70 6 c39 3 91 9 117 14 94 15 96 -8 28 -285 -68 -275 -70 -298 -25 -318
41 -19 109 13 220 103 31 26 59 44 63 40 6 -6 -8 -51 -82 -263 -20 -57 -36
-118 -36 -136 0 -35 25 -66 54 -66 69 0 292 194 443 387 70 89 219 319 257
395 33 67 43 76 90 83 75 12 98 69 132 328 29 216 7 449 -61 654 -132 397
-595 989 -1079 1376 -87 70 -254 191 -370 269 -273 184 -367 277 -413 410 -7
22 -20 105 -28 186 -16 162 -97 575 -124 637 -24 53 -98 125 -131 125 -14 0
-56 -16 -94 -35 -67 -33 -70 -34 -89 -17 -24 21 -50 74 -111 218 -62 147 -131
251 -235 354 -120 118 -166 141 -300 151 -58 4 -131 15 -161 23 -82 23 -115
20 -209 -23 -47 -22 -134 -51 -193 -65 -60 -14 -127 -35 -150 -47 -24 -12
-101 -79 -173 -148 -106 -103 -140 -129 -183 -145 -36 -12 -75 -39 -125 -85
-101 -94 -119 -105 -248 -149 -62 -22 -149 -54 -192 -71 -123 -49 -173 -51
-284 -8 -128 50 -324 147 -553 275 -361 201 -504 302 -637 449 -43 47 -201
214 -352 370 -307 317 -360 380 -458 538 -92 148 -120 175 -182 175 -26 0 -73
-5 -103 -11 -55 -11 -58 -10 -145 30 -103 47 -129 50 -198 17z m-3702 -901
c96 -17 211 -55 274 -92 86 -50 161 -165 218 -333 48 -141 58 -225 50 -426 -8
-208 -4 -233 72 -394 78 -164 92 -211 103 -334 16 -188 -7 -398 -85 -758 -59
-269 -75 -375 -91 -598 -17 -252 -33 -340 -79 -435 -43 -91 -98 -152 -191
-214 -142 -95 -117 -93 -839 -97 -388 -2 -663 0 -715 7 -209 25 -376 89 -467
178 -26 26 -68 83 -92 127 -25 43 -68 115 -96 159 -67 104 -72 114 -84 167
-24 107 67 409 205 679 66 129 99 168 213 253 89 66 110 91 234 268 29 40 111
125 207 213 88 81 188 181 221 223 75 93 133 211 153 312 28 141 57 438 55
578 -1 152 6 184 64 274 47 74 142 174 193 204 23 14 71 31 106 39 85 18 266
18 371 0z m2156 -21 c45 -13 70 -32 170 -128 83 -80 131 -118 162 -129 24 -9
71 -26 104 -38 43 -16 75 -37 113 -74 69 -69 70 -94 2 -193 -58 -85 -61 -106
-28 -208 15 -48 22 -96 22 -159 1 -88 3 -93 59 -211 99 -211 146 -436 154
-744 8 -284 -16 -464 -81 -608 -31 -68 -36 -91 -42 -187 -3 -61 -12 -124 -19
-141 -7 -16 -47 -61 -90 -100 -69 -62 -82 -80 -127 -174 -56 -116 -113 -181
-248 -283 -108 -80 -153 -98 -250 -98 -68 0 -100 7 -213 44 -72 25 -151 48
-174 52 -113 18 -261 168 -365 370 -112 218 -124 320 -68 585 33 159 39 236
31 430 -2 53 2 127 9 168 12 67 12 79 -5 128 -18 53 -18 55 6 201 18 119 22
174 19 278 -3 72 -5 189 -5 260 0 129 0 131 48 266 26 75 47 154 47 176 0 22
6 59 14 81 13 35 13 42 0 53 -17 14 -18 52 -2 82 6 12 37 53 70 90 32 38 58
76 58 85 1 33 38 100 60 107 13 4 97 16 189 26 181 20 297 18 380 -7z m2004
-145 c64 -33 156 -98 211 -149 27 -25 134 -141 239 -258 201 -226 302 -321
424 -399 41 -27 145 -94 231 -151 145 -95 216 -133 532 -285 63 -30 171 -91
240 -134 69 -44 218 -139 332 -211 368 -232 486 -322 584 -441 94 -113 112
-161 129 -341 8 -85 22 -177 32 -205 21 -62 24 -296 5 -401 -23 -124 -51 -149
-242 -214 -88 -30 -109 -33 -280 -41 -102 -4 -225 -15 -275 -23 -230 -39 -540
-111 -670 -155 -208 -72 -256 -78 -415 -56 -78 10 -162 16 -208 13 -67 -4 -89
-11 -171 -52 -88 -45 -100 -48 -165 -47 -142 2 -476 76 -609 135 -55 24 -105
73 -136 134 -10 20 -44 107 -74 192 -167 468 -221 609 -271 703 -31 57 -62
132 -70 167 -35 150 -29 403 12 492 11 24 56 83 100 131 111 121 119 141 165
392 10 54 25 98 46 131 41 68 40 105 -5 180 -55 91 -54 97 11 234 l57 121 10
172 c12 229 30 291 103 355 42 38 70 40 128 11z m5382 -2384 c258 -45 581
-226 780 -436 121 -128 235 -290 235 -335 0 -28 -51 -49 -156 -63 -91 -13
-121 -10 -299 32 -121 28 -145 31 -350 33 -237 3 -277 10 -361 59 -61 36 -83
88 -94 220 -5 55 -18 138 -29 185 -29 117 -27 174 5 239 42 83 95 96 269 66z
m-10287 -3319 c46 -24 140 -119 262 -266 125 -149 327 -358 541 -560 286 -268
421 -365 710 -507 207 -102 249 -135 249 -193 0 -56 -86 -225 -146 -286 -98
-101 -260 -151 -446 -139 -123 7 -188 24 -285 74 -54 28 -115 48 -198 66 -126
27 -141 33 -325 135 -380 210 -577 397 -936 888 -65 90 -150 205 -187 255
-115 157 -165 257 -193 390 -18 87 -11 104 45 99 37 -4 50 -13 125 -93 117
-126 159 -144 275 -117 66 15 90 41 98 107 9 77 61 129 163 162 44 15 211 5
248 -15z"/>
</g>
</svg>
