<?xml version="1.0" standalone="no"?>
<!DOCTYPE svg PUBLIC "-//W3C//DTD SVG 20010904//EN"
 "http://www.w3.org/TR/2001/REC-SVG-20010904/DTD/svg10.dtd">
<svg version="1.0" xmlns="http://www.w3.org/2000/svg"
 width="1536.000000pt" height="807.000000pt" viewBox="0 0 1536.000000 807.000000"
 preserveAspectRatio="xMidYMid meet">
<metadata>
Created by potrace 1.16, written by Peter Selinger 2001-2019
</metadata>
<g transform="translate(0.000000,807.000000) scale(0.100000,-0.100000)"
fill="#000000" stroke="none">
<path d="M4205 8044 c-22 -13 -63 -31 -92 -40 -28 -8 -89 -30 -135 -48 -85
-35 -438 -143 -703 -217 -182 -50 -731 -231 -800 -264 -27 -13 -160 -77 -295
-143 -135 -66 -310 -151 -390 -190 -80 -38 -179 -92 -220 -119 -69 -46 -273
-210 -381 -307 -25 -23 -98 -84 -163 -136 -202 -163 -273 -302 -381 -750 l-57
-235 0 -310 c1 -307 7 -388 39 -510 9 -36 18 -133 23 -245 7 -174 17 -234 44
-269 7 -9 11 -67 10 -155 -1 -170 -10 -199 -118 -391 -139 -245 -136 -237
-136 -377 0 -130 14 -314 31 -413 13 -71 29 -105 82 -168 37 -44 43 -47 87
-47 66 0 145 26 162 53 8 12 25 49 37 82 27 72 82 175 167 311 73 116 114 203
114 242 0 15 11 51 25 79 25 56 60 208 70 308 9 97 -30 247 -98 375 -127 239
-138 285 -147 620 -7 247 -10 282 -30 340 -21 58 -23 90 -28 297 -5 262 -5
264 72 382 23 36 59 96 80 133 21 37 41 70 45 72 3 3 -2 -41 -12 -97 -21 -122
-35 -551 -26 -847 5 -180 7 -200 32 -262 24 -62 43 -144 78 -328 6 -36 29
-120 50 -188 22 -68 39 -133 39 -145 0 -12 14 -78 31 -147 25 -102 32 -157 39
-305 6 -150 11 -188 29 -225 11 -25 21 -54 21 -65 0 -11 -32 -56 -70 -100 -46
-52 -91 -120 -131 -196 -34 -64 -86 -147 -116 -185 -69 -87 -155 -209 -177
-251 -9 -17 -45 -120 -80 -227 -51 -155 -77 -218 -129 -308 -84 -147 -184
-351 -221 -453 -24 -65 -39 -90 -86 -136 -31 -32 -95 -82 -142 -113 -107 -70
-150 -117 -199 -221 -37 -75 -40 -89 -41 -171 -2 -81 1 -96 31 -163 20 -44 42
-124 57 -198 30 -160 62 -223 165 -324 146 -145 232 -199 386 -245 l88 -27
620 3 c472 1 627 5 650 14 17 7 45 30 63 50 30 35 32 40 19 59 -31 49 -96 166
-123 221 -27 55 -34 62 -92 88 -68 31 -234 152 -296 216 l-39 41 2 83 c3 123
33 180 161 300 54 51 134 138 178 193 85 107 275 296 345 343 23 16 71 45 107
65 77 43 123 86 296 277 73 80 166 178 209 219 87 85 95 84 95 -14 0 -33 11
-107 25 -164 14 -57 30 -147 35 -200 6 -53 21 -141 34 -196 13 -55 30 -140 37
-190 15 -101 17 -405 5 -565 -7 -95 -6 -111 13 -161 12 -31 37 -77 57 -102 31
-40 42 -70 83 -237 26 -105 52 -195 57 -200 5 -5 40 -21 78 -35 38 -14 93 -42
121 -61 29 -18 58 -34 65 -34 7 0 92 -19 189 -42 175 -43 177 -43 366 -43 107
0 275 8 385 18 107 10 287 22 400 26 135 5 214 12 230 21 36 18 70 51 87 84
18 35 20 124 3 157 -24 44 -127 175 -165 208 -45 39 -64 47 -141 56 -130 16
-172 51 -216 185 -30 90 -31 104 -32 250 0 118 4 170 17 217 12 42 22 145 32
330 10 193 20 289 34 343 25 98 59 222 76 285 8 28 19 84 26 125 6 41 22 120
36 175 19 76 28 151 37 312 16 265 12 258 136 250 69 -4 108 -14 207 -51 68
-25 156 -53 195 -61 40 -9 103 -25 140 -36 36 -10 115 -24 175 -29 59 -5 173
-15 253 -22 89 -8 300 -13 545 -13 446 0 582 11 732 55 l91 28 6 -23 c3 -12
10 -301 16 -641 5 -341 12 -720 16 -844 l6 -225 -26 -68 c-34 -89 -33 -122 9
-222 47 -114 53 -189 26 -319 -12 -54 -21 -129 -21 -166 l0 -68 55 -47 c70
-61 156 -85 301 -85 185 0 393 -28 544 -73 70 -20 95 -22 370 -22 l295 0 68
34 67 34 0 44 c0 73 -22 104 -113 163 -101 66 -140 102 -228 211 -105 132
-119 168 -119 317 0 95 6 148 24 230 14 59 28 130 31 157 4 28 15 86 25 130
10 44 26 125 35 180 8 55 31 148 50 207 19 59 35 123 35 141 0 47 42 230 91
400 l20 67 108 0 109 0 78 -66 c44 -36 99 -76 124 -89 25 -13 85 -59 133 -104
100 -91 132 -114 267 -191 52 -30 115 -72 140 -95 79 -72 200 -144 275 -164
71 -19 189 -96 235 -153 94 -118 91 -107 98 -386 l5 -247 76 -82 c57 -62 97
-95 167 -135 50 -29 100 -66 110 -81 31 -46 141 -133 222 -174 l76 -38 215 2
216 1 114 43 c187 70 218 115 141 204 -22 25 -45 56 -51 67 -16 31 -37 125
-54 245 -8 57 -24 134 -35 171 -24 82 -40 209 -40 321 0 107 -28 209 -85 316
-24 44 -58 116 -76 160 -27 64 -46 92 -96 142 -66 66 -175 218 -262 368 -29
50 -70 113 -90 140 -21 28 -65 96 -99 151 -87 141 -161 219 -298 310 -136 91
-205 162 -225 231 -8 26 -14 88 -13 138 1 82 5 101 48 215 27 69 65 191 86
272 35 138 40 151 83 202 l47 54 207 7 c196 7 214 6 313 -16 93 -21 130 -23
325 -23 184 1 240 5 340 23 107 20 129 22 213 12 69 -8 114 -20 166 -44 132
-62 501 -259 546 -293 25 -18 96 -70 159 -116 63 -45 135 -99 159 -121 119
-102 410 -273 542 -317 57 -19 80 -21 185 -17 187 7 321 57 434 162 25 23 69
57 96 75 157 105 285 251 285 325 0 11 -12 38 -26 59 -35 51 -28 83 40 172 66
87 77 108 109 209 35 113 43 174 23 181 -22 9 -159 -78 -246 -156 -92 -82
-107 -91 -138 -79 -31 12 -182 152 -226 209 -19 25 -75 116 -125 203 l-91 157
0 131 c0 129 0 131 31 175 32 47 61 64 108 64 38 0 78 33 86 71 l7 31 22 -21
c13 -12 38 -26 56 -31 40 -11 72 6 134 69 l39 40 46 -33 c51 -37 57 -36 119 6
48 33 66 31 84 -7 7 -16 25 -29 51 -37 23 -7 45 -22 54 -37 9 -14 53 -62 99
-106 l84 -80 46 -150 c26 -82 48 -152 51 -155 18 -19 49 143 62 326 10 142 14
154 81 239 61 77 100 187 100 283 0 44 -6 98 -14 120 -39 110 -305 656 -364
748 -57 89 -76 100 -174 107 -51 3 -101 14 -130 27 -67 29 -260 50 -480 50
l-187 0 -50 29 c-27 16 -72 45 -100 64 -34 24 -67 37 -103 42 -64 8 -118 38
-185 102 -78 74 -90 147 -52 323 41 193 44 224 25 273 -23 62 -52 90 -85 84
-36 -8 -128 -64 -193 -120 -30 -25 -81 -62 -113 -82 -94 -56 -138 -50 -355 50
-75 35 -177 78 -226 96 l-89 33 -560 4 -560 4 -60 33 c-33 18 -94 61 -135 94
-104 85 -108 85 -202 -42 -42 -57 -86 -111 -98 -122 -28 -25 -395 -130 -611
-174 -113 -24 -187 -50 -240 -87 -52 -36 -89 -30 -221 34 -147 73 -240 100
-406 122 -80 11 -204 28 -276 39 -220 33 -636 71 -781 71 -55 0 -98 9 -195 40
-155 51 -303 88 -535 135 -99 20 -252 54 -340 75 -88 21 -191 43 -230 49 -114
19 -386 69 -595 111 -107 22 -233 44 -280 50 -47 5 -166 25 -265 44 -99 19
-223 39 -275 45 -135 16 -657 31 -1045 30 l-330 -1 -40 -24z"/>
</g>
</svg>
