<?xml version="1.0" standalone="no"?>
<!DOCTYPE svg PUBLIC "-//W3C//DTD SVG 20010904//EN"
 "http://www.w3.org/TR/2001/REC-SVG-20010904/DTD/svg10.dtd">
<svg version="1.0" xmlns="http://www.w3.org/2000/svg"
 width="1536.000000pt" height="666.000000pt" viewBox="0 0 1536.000000 666.000000"
 preserveAspectRatio="xMidYMid meet">
<metadata>
Created by potrace 1.16, written by Peter Selinger 2001-2019
</metadata>
<g transform="translate(0.000000,666.000000) scale(0.100000,-0.100000)"
fill="#000000" stroke="none">
<path d="M2490 6645 c-41 -8 -115 -26 -165 -40 -250 -72 -600 -305 -796 -530
-49 -57 -102 -107 -117 -113 -15 -6 -101 -31 -191 -56 -90 -25 -202 -62 -250
-82 -47 -20 -106 -43 -131 -51 -25 -9 -52 -21 -60 -28 -8 -6 -35 -18 -60 -26
-60 -18 -421 -199 -488 -243 -30 -20 -58 -36 -63 -36 -23 0 -91 -78 -124 -143
-30 -59 -37 -85 -42 -154 -3 -48 -1 -106 5 -136 6 -29 16 -86 22 -127 7 -52
23 -101 50 -157 34 -68 51 -90 100 -129 40 -31 79 -76 117 -133 99 -151 195
-246 306 -302 53 -28 210 -67 233 -59 11 4 29 1 42 -8 14 -9 57 -16 120 -19
53 -2 112 -6 129 -9 18 -4 41 -3 50 1 29 13 265 15 302 3 25 -8 35 -7 41 2 6
9 13 8 31 -4 14 -8 85 -36 159 -61 139 -48 274 -100 300 -115 8 -5 42 -22 75
-37 195 -88 472 -236 615 -328 91 -57 189 -117 218 -132 64 -34 73 -57 43
-121 -11 -26 -21 -56 -20 -67 0 -11 -6 -39 -15 -63 -24 -64 -44 -263 -52 -504
-6 -170 -3 -244 10 -368 10 -85 22 -163 27 -172 5 -10 9 -29 9 -42 0 -14 9
-62 20 -108 39 -162 31 -174 -127 -192 -84 -10 -117 -18 -148 -38 -54 -34 -95
-77 -111 -115 -19 -43 -18 -69 4 -105 20 -35 25 -29 -86 -98 -97 -62 -155
-177 -136 -274 14 -80 115 -212 151 -199 36 12 85 56 100 89 26 53 39 42 34
-29 -9 -115 84 -267 164 -267 33 0 95 70 102 116 12 81 42 78 43 -6 1 -61 73
-199 113 -218 27 -13 31 -12 59 15 16 15 43 54 60 85 22 42 54 77 114 128 46
38 88 70 92 70 5 0 14 -17 20 -38 13 -44 112 -206 145 -238 32 -32 77 -37 115
-14 46 28 68 71 80 153 7 43 19 81 31 96 168 210 217 300 282 521 49 167 101
488 99 609 -1 31 6 88 14 126 9 39 23 104 32 145 9 41 27 93 39 115 37 64 167
208 207 230 l36 19 199 -34 c247 -42 240 -42 517 -45 l228 -3 57 -54 c108
-105 216 -172 371 -232 36 -14 79 -28 95 -32 17 -4 35 -11 41 -15 7 -6 13
-108 18 -302 8 -359 20 -517 52 -716 14 -84 24 -154 22 -155 -2 -2 -57 -10
-123 -19 -85 -12 -127 -22 -147 -37 -15 -11 -30 -20 -34 -20 -11 0 -88 -62
-116 -94 -15 -17 -28 -39 -28 -48 0 -9 -8 -19 -18 -23 -46 -14 -53 -88 -17
-177 30 -74 30 -73 4 -99 -63 -63 56 -257 145 -235 27 7 36 15 82 73 37 47 75
44 39 -3 -25 -33 -19 -131 11 -192 58 -116 155 -131 220 -32 28 42 147 140
170 140 9 0 14 -11 14 -27 0 -67 88 -202 153 -237 30 -17 37 -17 51 -5 45 37
56 51 56 69 0 41 59 136 124 199 44 43 66 72 66 88 0 35 17 28 31 -14 34 -105
122 -223 168 -223 22 0 71 41 71 60 0 5 7 10 15 10 8 0 15 7 15 16 0 9 9 27
20 41 11 14 25 44 31 67 6 22 17 48 24 56 21 24 81 150 100 210 10 30 23 61
29 69 6 8 11 44 12 80 1 36 9 86 18 110 15 39 16 77 9 382 -7 268 -11 342 -22
348 -9 6 -10 11 -2 15 7 5 11 50 11 126 l0 119 54 83 c29 46 65 112 80 148 14
36 43 106 65 155 l39 90 38 -1 c467 -15 559 -15 729 -5 277 16 519 55 557 88
12 10 18 11 23 3 9 -14 50 -8 163 27 46 13 86 23 88 20 6 -5 43 -130 53 -177
29 -131 146 -364 402 -800 42 -71 79 -161 79 -189 0 -13 -40 -39 -147 -96
-170 -89 -228 -127 -244 -158 -7 -12 -15 -24 -18 -27 -3 -3 -15 -21 -26 -40
-14 -26 -20 -55 -20 -110 -1 -72 -3 -79 -38 -125 -46 -60 -52 -83 -37 -132 16
-49 57 -120 79 -136 10 -6 20 -20 24 -29 13 -36 85 -13 125 41 12 16 22 37 22
45 0 18 69 85 88 86 6 0 12 -11 12 -24 0 -14 5 -28 10 -31 7 -4 7 -13 0 -25
-28 -53 81 -240 139 -240 45 0 79 27 86 69 3 21 13 47 20 58 8 10 15 27 15 38
0 21 17 45 32 45 4 0 8 -17 8 -37 1 -72 59 -163 144 -225 51 -37 71 -35 113 7
31 31 35 40 30 70 -4 22 -1 38 8 45 7 6 16 21 19 33 4 19 144 147 160 147 3 0
6 -17 6 -38 0 -60 53 -156 112 -203 27 -21 54 -39 59 -39 6 0 27 9 49 20 42
22 62 68 40 95 -9 11 -9 15 -1 15 6 0 27 24 45 53 19 28 102 132 184 230 82
98 159 197 170 220 68 136 73 155 79 249 10 162 -14 269 -138 639 -60 180
-109 334 -109 343 0 9 -4 16 -10 16 -5 0 -10 9 -10 19 0 11 -10 59 -21 108
-17 69 -21 113 -19 203 1 63 3 144 4 179 l1 63 55 -6 c60 -6 561 -159 675
-206 39 -16 84 -32 100 -36 17 -4 39 -13 50 -20 51 -33 397 -149 470 -157 17
-2 41 -9 55 -15 61 -28 534 -110 667 -116 39 -2 76 -6 82 -10 23 -15 113 -23
164 -15 28 5 174 11 322 13 265 4 391 15 585 53 41 8 104 18 140 23 150 19
393 94 507 156 129 70 459 295 553 377 85 74 183 200 196 251 3 15 14 31 24
36 23 12 50 65 50 97 0 30 -46 110 -70 123 -28 15 -93 12 -136 -6 -22 -9 -100
-45 -175 -80 -347 -162 -525 -196 -1009 -195 l-275 0 -170 40 c-93 22 -183 41
-200 44 -34 4 -59 13 -95 32 -14 7 -61 27 -105 44 -128 49 -390 186 -515 269
-182 120 -367 278 -513 437 -93 101 -322 378 -457 553 -19 25 -74 86 -122 136
-47 50 -112 120 -144 156 -75 84 -268 259 -379 345 -28 22 -96 76 -150 120
-174 141 -297 223 -445 296 -80 40 -154 77 -165 82 -57 29 -213 87 -315 117
-63 18 -142 43 -176 56 -34 13 -115 37 -180 54 -65 17 -127 36 -138 41 -35 20
-332 78 -501 98 -294 36 -320 39 -331 30 -6 -5 -27 -4 -48 2 -20 6 -202 14
-404 20 -202 5 -414 14 -472 19 -58 5 -312 14 -565 19 -253 6 -599 15 -770 21
-170 6 -374 10 -453 10 -174 0 -418 -25 -450 -46 -18 -12 -27 -13 -37 -4 -9 8
-32 10 -62 6 -27 -3 -55 -6 -63 -6 -57 0 -414 20 -450 25 -71 10 -350 92 -428
125 -39 16 -78 30 -86 30 -8 0 -32 11 -52 25 -21 14 -49 28 -63 31 -14 3 -35
10 -46 16 -10 6 -100 55 -200 108 -99 54 -211 116 -250 138 -118 70 -172 92
-314 127 -151 38 -231 50 -436 65 -186 13 -363 11 -455 -5z"/>
</g>
</svg>
