<?xml version="1.0" standalone="no"?>
<!DOCTYPE svg PUBLIC "-//W3C//DTD SVG 20010904//EN"
 "http://www.w3.org/TR/2001/REC-SVG-20010904/DTD/svg10.dtd">
<svg version="1.0" xmlns="http://www.w3.org/2000/svg"
 width="1536.000000pt" height="988.000000pt" viewBox="0 0 1536.000000 988.000000"
 preserveAspectRatio="xMidYMid meet">
<metadata>
Created by potrace 1.16, written by Peter Selinger 2001-2019
</metadata>
<g transform="translate(0.000000,988.000000) scale(0.100000,-0.100000)"
fill="#000000" stroke="none">
<path d="M7335 9825 c-244 -64 -284 -79 -405 -150 -232 -137 -253 -141 -590
-135 -609 10 -709 7 -1025 -33 -159 -20 -396 -43 -525 -52 -129 -8 -305 -23
-390 -32 -186 -20 -285 -10 -347 32 -48 32 -152 65 -208 65 -64 0 -157 -33
-230 -80 -77 -50 -212 -189 -275 -283 -41 -60 -48 -66 -80 -67 -105 -1 -217
-43 -390 -145 -85 -50 -145 -73 -260 -101 -28 -7 -67 -42 -182 -165 -299 -317
-601 -565 -937 -768 -162 -98 -317 -177 -721 -365 -395 -184 -452 -213 -592
-307 -140 -94 -164 -121 -173 -194 -17 -132 15 -195 189 -374 168 -173 181
-198 181 -341 0 -91 3 -111 23 -149 l24 -45 -26 -19 c-22 -16 -26 -26 -26 -70
0 -131 61 -242 166 -302 17 -9 35 -30 41 -45 7 -18 27 -36 64 -54 242 -118
665 -52 1289 201 215 87 196 86 444 27 82 -19 157 -32 167 -29 27 9 45 49 57
128 15 93 28 111 94 125 150 33 314 52 748 87 293 23 515 47 586 61 26 5 47
-6 150 -74 65 -45 216 -156 334 -248 118 -91 278 -208 355 -260 77 -51 203
-136 280 -189 77 -53 170 -112 208 -132 40 -21 80 -52 99 -75 49 -63 405 -326
515 -382 32 -16 58 -38 68 -55 17 -34 256 -206 482 -349 140 -88 375 -213 489
-259 45 -18 53 -26 59 -55 4 -18 35 -143 71 -278 98 -378 108 -444 108 -705 1
-247 -6 -327 -69 -815 -25 -190 -58 -509 -75 -710 -54 -653 -96 -880 -197
-1072 -45 -87 -100 -136 -211 -192 -50 -25 -99 -57 -110 -71 -19 -24 -34 -31
-162 -70 -30 -9 -66 -26 -79 -38 -33 -30 -53 -83 -46 -118 14 -64 73 -72 279
-39 139 22 248 54 376 110 125 54 288 147 306 176 19 29 14 77 -14 134 l-18
38 41 20 c60 29 104 69 146 135 46 71 76 159 129 381 48 200 125 435 262 791
55 143 144 376 198 518 l97 259 21 -34 c49 -80 63 -152 72 -368 13 -291 17
-334 56 -535 56 -289 66 -363 65 -490 0 -161 -18 -243 -64 -294 -44 -49 -50
-60 -72 -141 -25 -93 -79 -162 -264 -341 -89 -85 -161 -160 -161 -166 0 -35
329 -38 484 -5 55 12 107 29 118 39 25 22 50 71 72 140 18 55 99 188 145 236
14 16 42 37 62 47 59 31 61 38 70 208 37 728 54 919 129 1484 59 438 75 501
207 823 113 272 128 327 188 660 20 110 38 208 41 217 6 19 -23 15 404 55 233
22 348 27 550 27 308 0 349 -7 675 -119 121 -41 232 -75 248 -75 30 0 109 40
440 222 273 151 561 277 583 255 21 -21 143 -342 239 -632 215 -648 252 -725
510 -1070 200 -267 525 -758 525 -792 0 -53 -62 -329 -131 -581 -83 -302 -131
-498 -150 -602 -12 -71 -16 -78 -62 -120 -27 -24 -93 -98 -147 -165 -124 -154
-163 -189 -227 -204 -56 -14 -82 -33 -119 -92 -14 -22 -46 -53 -72 -69 -104
-64 -122 -89 -83 -124 16 -15 43 -16 242 -13 164 3 241 8 289 20 36 9 90 21
122 27 50 10 142 58 160 84 3 5 10 37 13 70 4 34 11 68 16 77 4 9 41 33 81 54
40 20 109 58 154 82 l81 45 27 111 c39 158 100 311 246 622 117 249 210 467
210 495 0 6 33 46 73 88 40 42 93 104 117 137 24 33 66 88 93 123 l50 63 13
-28 c8 -15 34 -41 59 -57 66 -41 69 -51 55 -172 -17 -145 -4 -272 65 -659 63
-358 37 -537 -100 -670 -30 -30 -55 -63 -55 -74 0 -38 -19 -70 -85 -141 -36
-39 -65 -78 -65 -85 0 -8 18 -19 43 -25 23 -6 87 -24 142 -40 141 -40 183 -45
247 -26 129 37 193 169 220 457 l12 129 39 27 c58 40 105 108 129 186 33 109
22 270 -36 567 -26 129 -54 289 -63 355 -22 159 -21 457 2 690 10 99 18 248
18 330 l1 150 -216 215 c-248 248 -320 335 -383 463 -62 127 -196 525 -202
604 -7 80 18 134 120 254 39 48 94 124 122 170 27 46 66 102 86 124 55 60 97
131 204 344 53 107 115 224 137 260 37 59 42 77 54 171 13 100 31 147 61 157
6 2 13 -19 16 -49 6 -51 35 -105 55 -101 11 2 37 -214 52 -422 13 -186 13
-473 -1 -654 l-11 -146 -34 -28 c-51 -43 -90 -135 -129 -307 -45 -197 -46
-202 -101 -291 -25 -41 -55 -92 -66 -113 -20 -40 -30 -128 -15 -142 23 -23
347 -6 421 22 27 11 70 136 103 299 25 127 25 414 0 505 -17 59 -17 79 -6 224
20 266 1 762 -40 1024 -4 28 -4 52 1 52 4 0 8 16 8 35 0 65 -30 184 -91 358
-33 95 -81 260 -106 367 -25 107 -56 223 -69 258 -22 59 -181 320 -282 462
-100 140 -256 282 -555 504 -379 282 -679 383 -1612 541 -401 68 -490 85 -715
135 -96 21 -232 50 -302 64 -208 42 -291 78 -568 244 -138 83 -399 216 -555
282 -124 53 -334 122 -440 145 -80 17 -80 18 -171 105 -345 333 -836 561
-1454 674 -251 46 -367 56 -613 55 l-232 -2 -200 -52z m-5835 -3142 c19 -24
21 -37 17 -86 -6 -69 -45 -154 -67 -148 -8 3 -33 6 -56 9 -33 3 -46 -1 -73
-24 -18 -15 -37 -38 -42 -50 -20 -54 -120 -38 -182 29 -21 23 -36 46 -35 52 2
7 27 32 57 56 54 44 86 91 96 142 7 37 30 34 72 -8 66 -66 90 -69 119 -13 21
42 44 68 60 68 7 0 22 -12 34 -27z m-875 -253 c20 -39 21 -176 1 -183 -16 -7
-30 8 -40 41 -5 15 -15 22 -32 22 -18 0 -24 5 -24 22 0 29 51 128 67 128 7 0
19 -13 28 -30z"/>
</g>
</svg>
