<?xml version="1.0" standalone="no"?>
<!DOCTYPE svg PUBLIC "-//W3C//DTD SVG 20010904//EN"
 "http://www.w3.org/TR/2001/REC-SVG-20010904/DTD/svg10.dtd">
<svg version="1.0" xmlns="http://www.w3.org/2000/svg"
 width="1536.000000pt" height="836.000000pt" viewBox="0 0 1536.000000 836.000000"
 preserveAspectRatio="xMidYMid meet">
<metadata>
Created by potrace 1.16, written by Peter Selinger 2001-2019
</metadata>
<g transform="translate(0.000000,836.000000) scale(0.100000,-0.100000)"
fill="#000000" stroke="none">
<path d="M3616 8344 c-9 -8 -16 -18 -16 -22 0 -20 -21 -190 -25 -210 -5 -21
-11 -23 -53 -20 -32 2 -46 7 -44 16 1 7 -2 21 -8 31 -8 15 -18 18 -48 14 -22
-3 -49 0 -60 6 -24 13 -42 67 -42 124 0 30 -4 37 -20 37 -51 0 -65 -118 -20
-180 12 -17 21 -33 19 -34 -2 -2 -20 -11 -39 -21 -19 -10 -52 -32 -73 -49 -31
-25 -48 -30 -89 -31 -32 0 -53 5 -55 13 -3 7 5 12 21 12 32 0 91 23 101 40 12
20 -17 31 -74 28 l-54 -3 -26 49 c-14 27 -33 54 -42 59 -21 13 -64 2 -89 -23
-17 -17 -19 -29 -14 -94 l7 -73 -49 -8 c-27 -4 -64 -13 -83 -21 -33 -14 -36
-13 -61 11 -39 38 -88 31 -53 -8 11 -11 17 -34 17 -58 -1 -36 1 -40 30 -47 17
-5 31 -14 31 -21 0 -6 7 -16 15 -21 13 -8 12 -10 -3 -10 -27 0 -117 89 -139
138 -16 36 -23 42 -41 37 -41 -12 -65 -27 -77 -51 -7 -13 -40 -42 -72 -65 -33
-23 -64 -51 -70 -64 -13 -29 3 -60 42 -80 42 -22 37 -28 -15 -23 -27 4 -59 16
-80 32 -25 20 -41 25 -60 20 -38 -9 -46 -34 -39 -114 5 -50 4 -70 -5 -70 -6 0
-11 -9 -11 -19 0 -46 -52 -32 -130 36 -67 59 -92 73 -123 73 -37 0 -101 -33
-161 -83 -41 -34 -57 -41 -109 -46 -55 -5 -62 -9 -67 -31 -5 -23 -11 -25 -69
-28 -42 -2 -61 0 -56 7 11 19 -19 12 -110 -25 -96 -39 -145 -68 -145 -87 0 -7
-16 -12 -41 -13 -29 0 -73 -17 -160 -62 -66 -34 -129 -62 -142 -62 -40 0 -154
-87 -197 -150 -42 -63 -219 -278 -241 -293 -11 -8 -33 -34 -48 -58 -16 -24
-71 -91 -122 -149 -115 -131 -175 -211 -205 -275 -40 -85 -28 -124 24 -80 16
14 32 25 36 25 3 0 -15 -42 -40 -94 -51 -105 -51 -104 13 -183 39 -49 69 -55
120 -24 17 11 77 34 133 51 55 17 104 38 107 46 3 8 18 14 33 14 17 0 44 13
70 35 34 28 50 35 86 35 25 0 55 6 67 14 12 8 38 17 58 20 21 4 48 15 62 26
14 11 39 20 56 20 35 0 101 24 101 37 0 5 -5 14 -12 21 -15 15 -3 16 21 0 23
-14 55 -3 47 17 -10 27 6 46 65 75 90 46 202 80 261 80 30 0 76 6 103 14 28 7
73 19 100 26 28 8 68 27 90 44 34 25 37 26 19 5 -11 -13 -56 -67 -99 -119 -94
-115 -132 -150 -163 -150 -51 0 -132 -68 -132 -111 0 -19 -1 -19 -31 3 -27 19
-33 20 -37 8 -3 -8 -20 -29 -38 -46 l-34 -30 23 -23 22 -23 -22 11 c-50 25
-123 -1 -123 -44 0 -10 -10 -15 -33 -15 -68 0 -246 -135 -231 -175 5 -13 2
-15 -19 -10 -23 6 -28 2 -41 -29 -8 -20 -20 -36 -25 -36 -6 0 -11 -13 -11 -30
0 -29 -13 -40 -25 -20 -3 6 -13 10 -21 10 -10 0 -13 -7 -8 -25 5 -19 2 -25
-10 -25 -9 0 -16 7 -16 16 0 8 -5 12 -10 9 -15 -9 -12 -48 6 -73 14 -20 14
-22 0 -22 -9 0 -16 -4 -16 -10 0 -5 -7 -10 -15 -10 -38 0 -1 -109 38 -111 66
-2 139 4 196 17 101 23 464 201 561 275 67 51 264 145 353 169 105 27 159 56
236 125 92 82 157 161 191 232 29 60 87 136 197 256 64 70 89 116 98 182 19
129 83 219 166 233 29 5 44 13 44 22 0 16 -35 26 -129 36 -53 5 -62 10 -98 49
-21 23 -75 62 -119 86 -52 27 -86 53 -95 70 -17 35 -17 34 1 53 12 11 27 14
59 10 57 -8 81 15 91 85 4 28 10 51 13 51 3 0 18 -11 32 -25 29 -28 105 -45
195 -45 84 0 85 11 6 74 -39 31 -71 63 -71 71 0 14 46 55 61 55 5 0 27 -16 49
-36 22 -20 42 -35 44 -33 2 2 10 40 17 84 17 94 12 92 179 94 129 1 139 -4
187 -105 36 -75 61 -98 49 -46 -3 15 -11 79 -17 142 -7 84 -15 122 -29 141
-23 32 -18 39 30 39 24 0 50 9 71 25 19 13 44 32 56 41 27 19 53 12 53 -14 0
-10 18 -43 40 -73 54 -72 179 -209 191 -209 15 0 10 28 -15 78 -36 72 -60 215
-39 235 9 9 70 -27 244 -145 80 -54 149 -98 152 -98 15 0 5 27 -28 80 -39 60
-46 110 -18 110 21 0 175 -155 198 -199 19 -38 13 -51 -69 -159 -63 -83 -121
-182 -132 -226 -11 -45 10 -25 71 69 29 46 70 102 91 125 61 67 123 89 144 51
25 -48 2 -117 -74 -221 -51 -69 -105 -162 -131 -225 -15 -35 -15 -38 -1 -26 9
7 30 37 46 67 68 119 287 354 356 382 44 19 98 -4 120 -51 22 -47 12 -77 -33
-105 -21 -12 -50 -31 -64 -43 -20 -16 -46 -22 -110 -26 -46 -3 -96 -12 -110
-19 -32 -16 -114 -122 -141 -182 -20 -45 -23 -72 -32 -359 l-5 -133 43 0 c23
0 51 -6 61 -14 19 -14 19 -16 -9 -101 -35 -104 -46 -190 -25 -183 8 3 16 13
17 24 9 47 49 37 76 -20 14 -31 15 -38 0 -77 -25 -71 -64 -241 -64 -280 0 -20
7 -42 15 -49 8 -7 15 -29 15 -49 0 -45 -45 -232 -64 -269 -25 -47 -115 -125
-296 -258 -159 -116 -268 -200 -339 -261 -32 -27 -37 -28 -298 -6 l-213 17
-127 -37 c-114 -33 -132 -35 -166 -25 -29 9 -70 9 -175 0 -158 -14 -254 -32
-367 -70 -77 -26 -80 -28 -112 -83 -18 -32 -62 -83 -97 -115 -58 -53 -368
-255 -630 -410 -167 -99 -238 -185 -238 -289 0 -52 12 -75 68 -135 l44 -47
-35 -77 c-82 -176 -69 -297 38 -352 44 -23 48 -12 41 95 -6 86 -4 101 14 136
31 62 98 132 160 168 66 38 96 78 119 156 33 116 72 161 92 109 20 -50 116
-128 158 -128 33 0 36 15 9 55 -24 35 -46 112 -46 162 0 41 85 118 151 137 29
9 65 16 80 16 15 0 37 8 50 18 20 17 21 23 12 60 -15 58 6 87 118 162 147 98
324 180 389 180 41 0 39 -26 -4 -47 -19 -8 -39 -26 -44 -39 -6 -12 -55 -70
-109 -129 -54 -59 -110 -125 -125 -146 -14 -22 -29 -35 -33 -29 -13 21 -39 8
-101 -52 -39 -37 -76 -84 -94 -121 -32 -65 -40 -127 -16 -127 36 0 148 151
169 228 8 29 16 42 29 42 30 0 21 -33 -32 -123 -27 -47 -50 -89 -50 -94 0 -6
-21 -31 -47 -56 -116 -114 -134 -135 -160 -192 -24 -51 -28 -73 -28 -145 0
-63 5 -94 19 -120 25 -48 56 -80 77 -80 16 0 16 4 3 53 -11 40 -12 64 -3 104
13 67 38 97 108 133 82 41 89 52 57 91 -32 38 -34 86 -5 146 23 48 112 133
139 133 28 0 50 28 50 63 0 47 36 112 88 158 51 45 214 129 251 129 31 0 59
16 112 66 69 64 164 95 195 64 13 -13 104 5 154 30 19 10 69 48 110 85 124
111 112 108 430 116 331 9 453 16 585 34 141 20 164 29 211 80 40 43 45 45 95
45 l54 0 80 83 c97 101 176 210 244 336 28 52 70 120 93 150 52 69 270 293
482 494 l158 152 51 -55 c28 -30 68 -77 89 -103 l38 -49 -19 -26 c-10 -15 -51
-63 -91 -107 -117 -131 -199 -265 -161 -265 5 0 62 57 126 128 126 137 192
202 206 202 5 0 9 -9 9 -19 0 -11 12 -33 26 -50 l26 -31 -21 -29 c-12 -16 -21
-32 -21 -35 0 -3 18 -6 39 -6 35 0 43 -5 68 -42 16 -24 38 -44 50 -46 44 -6
46 -27 8 -68 -20 -21 -60 -72 -89 -114 -29 -41 -85 -113 -125 -160 -39 -46
-71 -88 -71 -93 0 -16 59 33 114 95 30 34 58 60 61 57 3 -3 -2 -22 -10 -42
-14 -33 -13 -40 2 -71 15 -32 15 -37 0 -60 -35 -53 -13 -49 55 10 77 67 109
80 148 64 18 -7 44 -31 58 -53 22 -33 27 -53 30 -126 l4 -87 -105 -106 c-147
-146 -156 -192 -33 -167 72 14 88 9 63 -19 -10 -10 -17 -26 -17 -35 0 -12 -8
-17 -26 -17 -14 0 -56 -13 -92 -29 -37 -16 -80 -32 -97 -36 -104 -24 -280
-107 -375 -178 -88 -66 -226 -144 -325 -185 -38 -15 -126 -62 -195 -103 -69
-42 -170 -100 -224 -130 -116 -63 -202 -137 -214 -182 -11 -42 -39 -46 -91
-12 -79 53 -154 40 -231 -39 -34 -36 -34 -37 -40 -149 -4 -61 -12 -122 -19
-135 -24 -45 -131 -160 -216 -233 -90 -77 -460 -498 -584 -664 -87 -117 -333
-513 -329 -527 5 -13 91 92 166 203 29 42 63 86 77 99 25 23 25 23 25 2 0 -61
-290 -619 -332 -639 -13 -6 -45 -19 -71 -28 -26 -9 -61 -28 -76 -41 -34 -28
-51 -31 -51 -6 0 28 15 44 72 77 47 28 58 42 100 121 50 95 82 174 69 174 -4
0 -25 -25 -46 -56 -21 -30 -67 -80 -101 -110 -35 -31 -69 -68 -75 -84 -7 -15
-28 -36 -47 -46 -19 -10 -41 -28 -49 -40 -48 -73 -304 -87 -640 -35 -168 27
-183 27 -183 1 0 -25 -2 -25 -48 -1 -51 26 -86 66 -78 87 4 10 0 24 -9 34 -14
16 -14 22 3 66 25 65 62 122 123 191 74 80 92 127 87 224 -3 83 -17 112 -72
153 -23 17 -42 21 -111 21 -114 0 -125 -13 -51 -60 90 -58 93 -100 12 -185
-66 -69 -86 -100 -86 -131 0 -16 -7 -46 -16 -68 -14 -35 -14 -42 0 -76 9 -21
16 -44 16 -52 0 -8 -24 -53 -52 -100 -49 -80 -57 -88 -113 -114 -33 -16 -99
-39 -147 -53 -147 -42 -184 -69 -267 -193 -23 -34 -57 -75 -77 -90 -35 -28
-74 -89 -74 -117 0 -42 -47 -153 -95 -226 -64 -96 -68 -125 -29 -202 36 -71
63 -106 100 -129 48 -29 68 -26 61 11 l-6 30 59 0 c32 0 62 5 66 11 3 6 -8 25
-25 43 -39 41 -61 109 -61 192 0 56 6 74 46 151 63 121 139 218 244 310 l89
77 160 -3 c151 -3 163 -2 196 19 29 18 46 21 86 18 60 -6 97 -31 123 -82 15
-30 23 -36 40 -32 146 36 429 60 626 53 86 -3 160 -3 166 1 5 4 18 20 28 35
14 23 23 27 41 23 32 -8 204 10 219 23 7 6 11 23 8 39 -3 21 10 49 56 117 33
50 100 174 149 275 146 299 266 465 572 784 89 93 202 216 252 275 50 58 123
137 163 174 140 134 313 257 360 257 8 0 27 11 43 24 22 19 27 32 27 67 0 24
-4 61 -9 81 l-8 38 39 0 c22 0 56 -5 78 -11 52 -14 81 -5 105 35 16 25 21 50
21 100 0 64 1 67 39 105 22 22 88 72 148 112 59 39 147 100 194 135 47 35 104
70 125 78 46 16 131 67 293 175 228 153 292 169 328 84 14 -34 14 -61 4 -243
-11 -211 -50 -500 -70 -524 -6 -7 -16 -58 -21 -112 -11 -112 -23 -185 -45
-261 -10 -34 -12 -59 -6 -75 6 -17 2 -44 -15 -98 -13 -41 -31 -113 -40 -160
l-16 -85 26 -20 26 -20 -22 -14 -22 -14 22 -17 22 -18 -25 -16 c-38 -25 -44
-46 -55 -172 -6 -79 -15 -124 -26 -142 -16 -25 -16 -26 6 -44 14 -11 39 -18
67 -18 41 0 45 2 59 35 7 19 14 52 14 72 0 45 23 83 51 83 27 0 25 -40 -7
-136 -43 -128 -90 -220 -137 -271 -75 -82 -83 -110 -40 -155 21 -22 24 -31 15
-40 -10 -10 -16 -10 -30 0 -51 36 -60 31 -116 -72 -26 -47 -67 -108 -91 -137
-30 -35 -41 -55 -33 -60 15 -10 -44 -64 -104 -95 -38 -19 -55 -37 -88 -93 -22
-38 -43 -77 -46 -85 -11 -27 10 -17 28 13 22 40 87 73 128 64 18 -3 34 -11 36
-18 8 -21 -27 -128 -53 -163 -25 -33 -24 -52 4 -52 12 0 13 -3 4 -14 -15 -18
-6 -38 49 -101 22 -25 40 -53 40 -61 0 -8 9 -14 19 -14 11 0 23 -5 26 -10 3
-6 19 -10 35 -10 35 0 45 -13 29 -41 -9 -17 -13 -19 -20 -8 -4 8 -19 14 -31
15 -13 1 -29 3 -37 5 -16 5 -36 -44 -27 -67 4 -11 10 -12 25 -5 25 14 38 -2
47 -56 14 -89 -31 -164 -161 -267 -52 -42 -96 -81 -96 -86 -1 -6 -2 -15 -3
-20 0 -6 -5 -14 -11 -18 -5 -4 -11 -20 -12 -35 -2 -27 -76 -137 -92 -137 -12
0 -131 -117 -131 -128 0 -6 10 -12 22 -14 12 -2 24 -9 26 -17 4 -11 -2 -13
-26 -8 -25 5 -33 2 -46 -17 -8 -13 -27 -27 -43 -31 -46 -11 -84 -55 -48 -55
28 0 15 -27 -17 -36 -34 -10 -50 -34 -23 -34 15 0 15 -3 5 -16 -7 -8 -24 -14
-38 -12 -19 2 -28 12 -39 43 -15 45 -32 59 -50 43 -31 -26 11 -140 54 -146 32
-5 119 44 177 97 28 26 86 72 130 101 43 30 102 81 130 115 28 33 97 105 153
160 55 55 117 125 136 155 19 30 57 81 85 112 59 67 130 160 159 208 29 47 89
104 101 96 6 -4 18 -41 28 -83 l17 -76 -31 -61 c-22 -45 -32 -80 -36 -135 -4
-57 -11 -83 -32 -115 -45 -68 -136 -152 -203 -187 -35 -19 -74 -40 -86 -47
-13 -6 -30 -9 -39 -6 -18 7 -46 54 -46 78 0 22 -17 28 -41 16 -29 -16 -76
-121 -85 -188 -9 -72 9 -152 42 -183 32 -30 87 -30 141 -1 21 11 78 41 127 66
52 27 112 67 145 99 31 30 75 64 98 76 50 25 64 45 133 181 39 77 69 120 111
162 l58 56 -15 54 c-18 69 -34 237 -34 365 0 124 -14 194 -43 221 -12 11 -46
27 -75 37 -29 9 -57 25 -63 37 -12 22 1 95 52 283 61 226 86 288 169 415 95
146 151 260 223 450 72 191 159 381 210 455 22 33 59 105 82 160 55 132 154
281 266 401 159 169 224 273 292 470 62 177 66 282 17 444 -24 82 -53 110
-121 121 -39 6 -61 17 -86 41 -58 55 -58 59 0 116 l53 52 79 -39 c46 -22 94
-54 113 -75 41 -46 67 -44 99 4 41 62 52 70 87 70 18 0 45 9 58 20 65 51 116
41 167 -33 61 -89 141 -72 81 18 -11 17 -20 33 -20 37 0 16 72 86 100 98 40
17 78 1 119 -51 36 -44 49 -47 82 -20 l24 19 -21 29 c-11 15 -23 33 -27 39 -7
13 44 69 88 96 37 22 108 24 129 2 9 -8 16 -26 16 -40 0 -37 24 -29 49 16 12
22 34 48 47 56 16 11 26 30 30 56 4 24 16 46 32 58 33 27 93 26 117 0 28 -31
48 -24 104 35 47 49 51 58 46 88 -10 52 36 75 111 55 42 -12 42 -11 133 50 83
56 109 66 181 74 17 2 43 27 89 87 36 46 78 91 94 100 16 9 77 45 136 80 58
35 307 166 552 291 245 124 503 263 575 307 166 103 191 115 321 159 59 20
128 46 153 59 135 67 475 227 540 253 41 17 100 40 130 52 110 44 215 96 288
142 41 26 156 79 256 119 99 40 268 110 374 156 106 45 227 92 270 103 42 10
124 35 182 55 242 83 297 95 475 110 165 13 173 15 240 50 39 20 85 48 104 61
51 36 125 56 222 59 96 3 153 13 314 56 217 57 360 77 636 89 218 9 267 19
289 60 6 12 9 24 6 28 -14 13 -296 23 -515 18 -173 -5 -258 -11 -330 -26 -53
-10 -190 -31 -306 -45 -312 -38 -386 -52 -514 -95 -64 -22 -154 -46 -201 -54
-47 -9 -107 -23 -135 -31 -27 -9 -95 -25 -150 -36 -55 -11 -133 -28 -173 -39
-88 -24 -371 -134 -467 -182 -101 -50 -163 -73 -323 -118 -78 -22 -191 -61
-250 -87 -89 -38 -122 -47 -192 -53 -75 -5 -93 -11 -155 -47 -39 -23 -102 -51
-140 -63 -39 -13 -77 -29 -85 -36 -26 -22 -157 -79 -310 -134 -145 -52 -200
-78 -296 -139 -29 -18 -112 -55 -185 -82 -74 -27 -158 -66 -188 -85 -29 -20
-117 -67 -195 -105 -77 -37 -165 -82 -194 -100 -29 -17 -87 -43 -130 -58 -68
-23 -314 -155 -488 -261 -33 -20 -92 -47 -129 -59 -38 -13 -99 -40 -135 -61
-36 -22 -107 -55 -158 -74 -51 -20 -118 -53 -150 -74 -31 -21 -84 -53 -117
-72 -87 -48 -264 -170 -385 -265 -150 -117 -177 -133 -245 -143 -39 -7 -63
-16 -70 -27 -20 -36 -67 -84 -86 -90 -12 -4 -33 2 -54 15 -46 29 -65 21 -118
-48 -51 -68 -79 -75 -87 -22 -9 64 -78 54 -109 -15 -33 -74 -92 -86 -109 -23
-10 39 -43 48 -89 25 -15 -8 -34 -12 -42 -9 -8 2 -68 46 -135 96 -67 51 -177
130 -246 176 -124 84 -232 177 -272 233 -15 21 -23 53 -29 118 -7 69 -17 109
-49 185 -23 53 -54 146 -70 207 -62 246 -109 319 -285 442 -147 102 -176 128
-201 177 -26 50 -63 80 -124 99 -84 26 -89 29 -110 88 -38 99 -92 152 -169
165 -35 5 -39 10 -50 48 -7 24 -21 54 -31 68 -18 24 -23 25 -107 21 -48 -2
-108 -4 -133 -5 l-45 -1 -8 55 c-18 120 -13 115 -94 118 -48 2 -84 -2 -109
-13 -21 -8 -41 -12 -46 -7 -5 5 -1 37 8 73 23 85 15 116 -31 125 -44 8 -81 45
-110 111 -26 58 -27 58 -142 67 -40 4 -101 17 -135 30 -35 12 -80 26 -101 30
-35 6 -37 9 -30 34 4 15 7 38 8 52 0 25 0 25 -117 30 -149 6 -152 9 -153 122
0 82 0 83 -27 86 -31 4 -58 -28 -58 -69 0 -40 -17 -49 -75 -38 -70 13 -103 28
-111 51 -3 11 0 49 7 85 12 61 12 66 -6 79 -48 35 -105 3 -105 -61 0 -39 -9
-51 -43 -64 -40 -15 -82 -14 -97 4 -7 8 -15 48 -18 88 -2 39 -9 78 -14 85 -14
17 -53 15 -72 -4z m544 -335 c0 -5 -24 -9 -52 -8 l-53 1 45 12 c46 13 60 12
60 -5z m-1290 -121 c0 -7 -4 -19 -9 -27 -11 -17 -23 1 -15 23 7 19 24 21 24 4z
m-350 -72 c0 -7 -83 -66 -92 -66 -16 0 -8 49 10 59 16 10 82 15 82 7z m6 -61
c-9 -14 -21 -25 -27 -25 -6 0 -1 14 11 31 26 36 40 31 16 -6z m1537 -18 c24
-49 39 -126 31 -160 -6 -29 -6 -29 -40 29 -57 98 -66 122 -54 144 16 31 46 24
63 -13z m-1152 3 c34 -19 23 -40 -20 -40 -46 0 -72 23 -44 39 23 13 40 14 64
1z m-441 -67 c0 -13 -3 -13 -15 -3 -8 7 -12 16 -9 21 8 13 24 1 24 -18z m1770
-73 c46 -46 48 -55 18 -71 -13 -7 -44 -29 -71 -51 -27 -21 -53 -38 -59 -38
-16 0 -4 130 16 168 22 43 47 41 96 -8z m542 -17 c24 -22 23 -60 -2 -68 -26
-8 -74 15 -78 38 -8 42 45 62 80 30z m-2642 -88 c0 -8 -7 -15 -15 -15 -16 0
-20 12 -8 23 11 12 23 8 23 -8z m-339 -107 c23 -18 44 -39 47 -45 5 -18 -27
-16 -34 2 -3 8 -21 19 -40 25 -19 7 -39 20 -44 31 -17 31 22 24 71 -13z m3429
-27 c13 -25 13 -102 0 -135 -5 -14 -18 -30 -30 -36 -20 -11 -21 -9 -18 31 2
41 0 44 -49 76 -16 10 -16 13 -3 22 8 6 27 11 43 11 22 0 27 4 27 25 0 30 15
33 30 6z m-687 -13 c23 -13 45 -27 50 -33 13 -17 -2 -69 -23 -84 -11 -7 -20
-24 -20 -36 0 -14 -21 -46 -51 -80 -55 -59 -68 -65 -45 -20 19 36 15 43 -46
85 -71 49 -78 63 -48 96 33 36 112 93 128 94 7 0 32 -10 55 -22z m-3153 -28
c0 -5 -7 -10 -15 -10 -8 0 -15 5 -15 10 0 6 7 10 15 10 8 0 15 -4 15 -10z
m4148 -92 c15 -15 16 -79 0 -113 -13 -28 -33 -33 -42 -10 -10 26 -68 18 -106
-15 -41 -35 -56 -37 -70 -11 -14 28 -15 27 35 61 25 17 48 42 51 55 9 37 104
61 132 33z m-3997 -47 c27 -26 49 -53 49 -59 0 -30 -155 -202 -182 -202 -5 0
-13 11 -17 24 -16 40 -41 204 -35 221 10 25 76 65 108 65 21 0 42 -13 77 -49z
m3209 1 c29 -22 37 -54 17 -70 -18 -16 -155 -26 -185 -15 l-23 9 30 43 c16 24
39 50 52 56 26 15 71 5 109 -23z m-3570 -24 c0 -6 -7 -5 -15 2 -8 7 -15 17
-15 22 0 6 7 5 15 -2 8 -7 15 -17 15 -22z m-38 -43 c30 -55 36 -95 14 -95 -32
0 -76 73 -76 125 0 42 31 27 62 -30z m-219 27 c25 -27 83 -160 97 -221 25
-105 -6 -288 -56 -338 -31 -31 -49 -25 -49 16 -1 23 -8 38 -25 52 -34 25 -223
119 -241 119 -46 0 -51 58 -11 121 53 82 231 268 258 269 6 0 18 -8 27 -18z
m1369 -112 c32 -33 58 -68 58 -80 0 -22 -19 -27 -37 -9 -19 19 -102 -16 -219
-92 -59 -38 -117 -69 -129 -69 -30 0 -50 47 -41 95 10 53 45 87 96 94 36 5 45
10 50 31 4 18 15 26 44 32 21 5 52 19 68 33 16 14 35 25 41 25 6 0 37 -27 69
-60z m3417 14 c61 -36 98 -129 66 -164 -23 -25 -52 -25 -90 0 -36 24 -87 26
-120 4 -31 -21 -45 -11 -45 32 0 35 35 84 61 84 7 0 9 10 6 29 -3 16 -3 32 1
36 11 11 90 -3 121 -21z m-4399 -100 c0 -70 -7 -84 -39 -84 -31 0 -51 16 -51
42 0 19 33 92 53 116 18 23 37 -15 37 -74z m321 -88 c19 -52 54 -96 75 -96 20
0 27 -19 14 -35 -13 -16 -77 -20 -98 -6 -10 6 -10 10 3 21 23 19 18 32 -12 28
-37 -4 -44 -47 -14 -77 l21 -21 -28 0 c-15 0 -49 13 -75 30 -45 28 -47 32 -47
75 0 38 -3 45 -20 45 -11 0 -20 5 -20 11 0 13 140 79 164 76 12 -1 24 -19 37
-51z m4318 -40 c14 -17 0 -29 -23 -20 -17 7 -20 16 -9 27 10 11 19 8 32 -7z
m39 -240 c5 -24 -33 -63 -92 -93 -48 -24 -50 -25 -63 -7 -8 11 -13 30 -11 44
3 22 9 26 52 32 60 8 77 22 51 41 -10 8 -15 19 -11 26 10 16 70 -18 74 -43z
m127 -25 c44 -19 109 -86 100 -102 -7 -10 -103 -10 -150 0 -27 6 -30 10 -29
47 1 78 12 86 79 55z m-4098 -27 c-9 -9 -28 6 -21 18 4 6 10 6 17 -1 6 -6 8
-13 4 -17z m2633 -160 c0 -7 -16 -34 -35 -60 -114 -161 -165 -246 -235 -389
-159 -326 -214 -477 -194 -533 17 -49 38 -33 45 33 4 33 22 98 42 145 90 218
185 416 242 505 58 90 158 208 202 235 23 15 69 55 102 89 72 74 91 78 91 18
0 -70 -26 -138 -75 -197 -74 -88 -102 -132 -109 -175 -5 -22 -26 -85 -48 -140
-87 -214 -107 -271 -108 -302 0 -35 17 -45 26 -15 36 111 161 391 221 494 42
72 88 122 103 113 26 -16 -4 -114 -111 -356 -43 -99 -73 -152 -101 -181 -22
-23 -66 -80 -98 -127 -31 -47 -83 -114 -114 -149 -31 -34 -56 -65 -56 -67 0
-3 8 -5 18 -5 11 0 44 25 74 56 72 73 88 68 48 -13 -35 -70 -79 -113 -116
-113 -15 0 -41 -15 -66 -40 -23 -22 -47 -40 -54 -40 -16 0 -37 27 -30 39 13
20 -86 18 -187 -4 -97 -21 -114 -18 -130 29 -8 23 -5 32 16 54 50 54 57 78 87
282 12 80 28 176 37 214 26 117 139 356 286 605 l91 154 68 -74 c37 -41 68
-79 68 -85z m1555 13 c28 -14 35 -27 35 -69 0 -31 -4 -39 -23 -43 -26 -7 -77
9 -77 24 0 6 -18 15 -41 21 -30 8 -39 15 -35 26 3 9 2 24 -4 33 -5 10 -6 22
-2 25 9 10 121 -3 147 -17z m-806 -21 c45 -24 55 -41 37 -67 -64 -92 -416
-433 -424 -410 -6 19 55 140 123 241 53 80 210 250 230 250 3 0 18 -6 34 -14z
m931 -92 c6 -14 10 -49 10 -79 0 -51 -1 -54 -32 -64 -24 -9 -34 -8 -40 1 -10
15 -1 124 13 150 14 26 38 22 49 -8z m150 -161 c0 -26 -8 -28 -31 -10 -28 21
-39 54 -38 114 l0 58 35 -70 c19 -38 34 -80 34 -92z m-1 -87 c27 -28 39 -90
21 -111 -11 -13 -15 -13 -41 0 -26 14 -28 14 -23 -2 5 -16 3 -15 -10 1 -29 35
-16 136 18 136 7 0 22 -11 35 -24z m121 -152 c0 -13 -4 -24 -10 -24 -5 0 -10
14 -10 31 0 17 4 28 10 24 6 -3 10 -17 10 -31z m-110 -103 c0 -13 -56 -71 -69
-71 -17 0 -14 6 20 45 30 34 49 44 49 26z m-5768 -76 c8 -14 2 -12 -21 9 -17
17 -31 34 -31 39 0 14 39 -23 52 -48z m5385 -237 c-3 -7 -5 -2 -5 12 0 14 2
19 5 13 2 -7 2 -19 0 -25z m-2178 -91 c6 -8 14 -29 17 -46 7 -32 6 -32 -14
-20 -19 12 -25 11 -49 -9 -67 -53 -118 -85 -248 -156 -135 -74 -160 -83 -200
-67 -16 6 -9 12 39 34 31 15 119 69 194 120 75 52 158 103 185 115 26 11 47
26 47 31 0 15 15 14 29 -2z m-49 -217 c0 -5 -9 -10 -20 -10 -11 0 -20 5 -20
10 0 6 9 10 20 10 11 0 20 -4 20 -10z m366 -45 c-22 -17 -62 -20 -70 -6 -8 12
11 19 54 20 33 0 34 -1 16 -14z m-411 -71 c-27 -13 -55 -24 -62 -24 -14 0 -28
19 -20 27 9 8 69 21 102 21 28 0 26 -1 -20 -24z m2245 -55 c-13 -6 -33 -17
-42 -26 -17 -15 -18 -15 -18 4 0 28 8 33 49 32 34 0 35 -1 11 -10z m-3715 -39
c-8 -12 -65 -23 -101 -18 l-29 4 35 11 c44 14 103 16 95 3z m3998 -99 c-11
-14 -36 -35 -56 -46 -33 -18 -38 -18 -52 -4 -29 28 5 66 83 93 32 11 37 11 40
-2 2 -8 -5 -26 -15 -41z m-4303 40 c0 -34 -182 -214 -240 -239 -19 -8 -54 -32
-77 -53 -41 -38 -63 -48 -63 -30 0 10 241 235 313 293 49 38 67 46 67 29z
m4420 -100 c0 -11 -39 -25 -47 -18 -3 3 -2 10 2 16 8 13 45 15 45 2z m-150
-144 c14 1 44 4 67 8 40 7 42 6 50 -21 4 -16 7 -72 7 -124 -2 -116 -25 -194
-84 -285 -23 -36 -54 -97 -69 -137 -25 -70 -28 -73 -61 -76 -60 -6 -80 -39
-110 -184 -7 -39 -19 -63 -33 -73 -23 -16 -63 -20 -71 -6 -8 13 11 118 64 351
56 244 66 304 75 448 6 87 10 102 24 102 10 0 35 15 57 34 l39 34 10 -37 c9
-30 15 -36 35 -34z m435 19 c15 -23 13 -47 -8 -73 -21 -28 -78 44 -63 82 9 24
53 18 71 -9z m-5186 -163 c-20 -32 -109 -95 -196 -140 -132 -68 -168 -53 -57
23 67 46 231 134 251 134 10 0 11 -4 2 -17z m5574 -154 c71 -19 32 -85 -50
-83 -77 2 -108 59 -45 83 36 13 50 13 95 0z m-5752 -83 c-34 -35 -87 -78 -117
-97 -37 -24 -58 -45 -68 -70 -20 -48 -109 -155 -146 -174 -28 -15 -30 -14 -46
11 -25 38 -24 115 2 151 23 32 89 68 152 84 24 5 51 18 60 29 9 10 28 30 42
45 13 15 34 34 46 42 27 17 127 53 133 47 3 -3 -23 -33 -58 -68z m5256 -1 c21
-4 44 -7 52 -8 24 -3 23 -22 -6 -63 -26 -36 -28 -46 -25 -120 2 -72 0 -83 -23
-114 -14 -19 -25 -42 -25 -52 0 -24 -64 -151 -152 -303 -39 -66 -102 -181
-141 -255 -149 -286 -157 -295 -212 -247 l-26 22 36 178 c77 390 131 564 229
734 57 100 66 117 86 165 16 39 27 51 59 64 22 9 47 27 56 41 l17 25 18 -30
c14 -23 29 -33 57 -37z m-517 -1334 c-11 -29 -46 -95 -76 -148 -41 -68 -58
-109 -63 -149 -12 -88 -26 -88 -42 2 -6 32 -17 68 -24 80 -12 19 -8 26 61 88
48 44 89 92 116 139 47 79 62 73 28 -12z m-2740 -215 c0 -17 -68 -106 -80
-106 -18 0 -10 18 30 69 43 54 50 59 50 37z m-1720 -606 c0 -13 -81 -72 -89
-64 -7 7 64 74 79 74 5 0 10 -4 10 -10z m3749 -444 c-9 -8 -10 -5 -5 14 3 14
6 32 7 40 1 8 4 2 6 -14 3 -16 -1 -34 -8 -40z m-3463 -75 c-11 -17 -67 -34
-78 -23 -18 18 1 32 43 32 22 0 38 -4 35 -9z m3757 -255 c32 -14 78 -31 103
-36 47 -11 72 -4 142 41 39 25 82 19 82 -11 0 -13 -7 -20 -20 -20 -14 0 -20
-7 -20 -21 0 -12 -10 -49 -22 -83 -21 -61 -38 -91 -38 -68 0 7 -16 12 -40 12
-33 0 -47 7 -76 35 -19 19 -47 37 -62 41 -138 29 -241 116 -169 143 23 9 30 7
120 -33z m272 -290 c23 -24 40 -91 33 -135 -3 -22 -4 -21 -45 9 -49 36 -83 87
-83 124 0 23 4 26 35 26 24 0 44 -8 60 -24z m-238 -557 c-4 -14 2 -27 19 -42
31 -27 30 -33 -6 -46 -16 -5 -30 -16 -30 -24 0 -22 -96 -107 -120 -107 -12 0
-30 5 -41 10 -30 17 -24 -14 9 -41 24 -19 24 -21 5 -15 -30 10 -107 -25 -128
-58 -14 -21 -25 -26 -56 -26 -34 0 -41 4 -50 28 -12 31 -5 112 17 190 16 55
34 69 34 27 0 -41 42 -75 92 -75 34 0 56 9 102 40 32 22 62 40 67 40 4 0 20
21 35 48 43 74 62 94 51 51z"/>
<path d="M1592 6814 c4 -21 22 -23 26 -1 2 10 -3 17 -13 17 -10 0 -15 -6 -13
-16z"/>
<path d="M4294 5275 c-15 -37 59 -63 86 -30 10 12 10 18 0 30 -16 20 -79 20
-86 0z"/>
<path d="M5490 215 c0 -8 7 -15 15 -15 9 0 12 6 9 15 -4 8 -10 15 -15 15 -5 0
-9 -7 -9 -15z"/>
<path d="M2265 7809 c-4 -6 -5 -13 -2 -16 7 -7 27 6 27 18 0 12 -17 12 -25 -2z"/>
<path d="M1655 7600 c-18 -7 -18 -8 7 -15 32 -8 58 3 37 16 -16 10 -18 10 -44
-1z"/>
<path d="M5390 943 c-14 -63 -46 -134 -92 -201 -17 -24 -27 -46 -23 -50 9 -9
99 90 130 143 34 57 51 131 35 150 -23 27 -37 16 -50 -42z"/>
<path d="M5173 608 c-11 -13 -28 -37 -36 -53 -8 -17 -74 -92 -146 -167 -72
-75 -131 -139 -131 -143 0 -10 43 6 69 26 13 11 44 45 68 76 24 31 58 67 76
80 18 13 45 40 60 61 27 34 77 124 77 137 0 12 -18 4 -37 -17z"/>
<path d="M4781 371 c-35 -35 -65 -171 -42 -185 12 -8 24 10 45 67 10 26 22 47
26 47 16 0 32 41 26 66 -8 29 -29 31 -55 5z"/>
</g>
</svg>
