<?xml version="1.0" standalone="no"?>
<!DOCTYPE svg PUBLIC "-//W3C//DTD SVG 20010904//EN"
 "http://www.w3.org/TR/2001/REC-SVG-20010904/DTD/svg10.dtd">
<svg version="1.0" xmlns="http://www.w3.org/2000/svg"
 width="1536.000000pt" height="211.000000pt" viewBox="0 0 1536.000000 211.000000"
 preserveAspectRatio="xMidYMid meet">
<metadata>
Created by potrace 1.16, written by Peter Selinger 2001-2019
</metadata>
<g transform="translate(0.000000,211.000000) scale(0.100000,-0.100000)"
fill="#000000" stroke="none">
<path d="M7314 2091 c-58 -13 -94 -16 -130 -10 -78 13 -177 10 -230 -6 -32 -9
-92 -15 -169 -15 -267 0 -533 -18 -1505 -102 -190 -16 -336 -21 -650 -23 -223
-1 -415 -5 -428 -9 -14 -5 -52 -1 -94 9 -50 13 -92 16 -143 12 -40 -3 -90 -1
-112 5 -21 5 -117 14 -213 20 -166 10 -216 11 -405 10 -44 -1 -105 -1 -135 -1
-163 -1 -340 -10 -379 -19 -25 -6 -81 -8 -125 -5 -71 5 -89 2 -150 -21 -52
-20 -87 -26 -144 -26 -56 0 -96 -7 -161 -29 -105 -35 -134 -39 -382 -51 -257
-12 -335 -30 -477 -110 -127 -70 -175 -83 -407 -106 -243 -24 -396 -24 -464 0
-43 15 -73 18 -156 14 -93 -4 -105 -7 -146 -35 -64 -45 -77 -62 -96 -136 -17
-66 -17 -66 5 -90 23 -25 52 -105 52 -148 0 -52 69 -108 150 -122 19 -4 114
-11 210 -17 96 -6 238 -18 315 -26 77 -8 186 -19 243 -25 74 -7 164 -27 325
-74 401 -115 594 -159 847 -194 371 -51 599 -71 885 -77 179 -4 269 -11 355
-26 63 -11 117 -22 119 -24 1 -1 -14 -23 -34 -47 -48 -58 -118 -91 -252 -122
-148 -33 -283 -82 -283 -102 0 -3 24 -3 53 0 l52 6 -51 -23 c-45 -21 -91 -63
-80 -74 2 -2 38 4 80 12 41 9 88 16 103 16 25 0 22 -4 -27 -31 -62 -34 -100
-66 -100 -86 0 -18 12 -17 83 13 34 14 85 34 112 44 28 10 57 21 65 24 12 5
15 -2 15 -31 0 -50 20 -53 76 -11 l44 34 15 -31 c16 -31 59 -48 61 -23 1 7 2
22 3 33 1 26 81 54 158 55 96 0 188 27 228 64 19 19 52 39 73 46 21 6 44 22
53 35 8 12 34 30 58 39 24 9 51 25 60 34 15 17 24 17 203 -9 433 -63 771 -84
1238 -76 359 6 541 16 1315 67 245 17 454 30 465 30 18 -1 17 -3 -7 -25 -17
-15 -46 -26 -75 -30 -157 -20 -486 -82 -528 -100 -33 -13 -65 -41 -65 -56 0
-5 11 -15 25 -21 25 -11 24 -12 -32 -30 -70 -22 -98 -41 -90 -63 9 -21 102
-19 192 5 39 10 71 17 73 15 2 -2 -26 -13 -62 -25 -71 -23 -150 -74 -143 -93
8 -22 123 -8 239 29 61 19 116 33 121 31 6 -2 -22 -20 -61 -40 -65 -35 -112
-79 -112 -106 0 -17 56 -13 134 9 39 11 103 24 141 30 39 6 97 16 130 22 33 6
98 12 145 14 119 4 157 9 174 24 11 8 31 10 65 5 38 -5 57 -2 87 13 22 11 59
23 84 27 58 10 86 24 151 81 30 25 73 54 96 64 44 20 138 122 215 234 l42 62
161 27 c251 42 457 67 1210 147 477 50 708 71 1205 111 352 28 433 31 750 30
619 -3 1560 26 2249 69 474 30 649 26 1011 -21 85 -11 218 -23 296 -26 121 -5
145 -3 177 12 21 10 42 26 48 36 13 26 -15 120 -49 160 -23 28 -30 31 -66 26
-23 -2 -48 -6 -56 -8 -12 -3 -17 11 -23 66 -26 211 -75 249 -188 148 -27 -25
-52 -44 -54 -41 -2 2 -9 37 -16 78 -27 176 -85 201 -204 89 l-53 -50 -7 68
c-18 166 -82 202 -192 109 -35 -30 -53 -27 -53 7 0 42 -22 100 -46 124 -33 33
-70 26 -145 -27 -59 -40 -69 -41 -69 -6 0 12 -11 44 -24 72 -44 94 -127 93
-255 -1 l-60 -44 -21 70 c-25 84 -47 109 -96 109 -47 0 -86 -19 -161 -80 l-62
-50 -11 42 c-25 97 -42 118 -95 118 -40 0 -85 -25 -163 -91 -39 -32 -73 -59
-76 -59 -3 0 -11 19 -18 41 -15 52 -67 109 -99 109 -41 0 -109 -41 -174 -105
l-64 -63 -15 52 c-27 93 -77 127 -154 106 -45 -12 -173 -93 -211 -134 -14 -14
-28 -26 -33 -26 -4 0 -15 18 -24 40 -46 115 -140 117 -276 6 l-57 -47 -38 34
c-21 19 -48 39 -60 46 -51 26 -131 5 -200 -53 -17 -14 -42 -30 -56 -35 -25
-10 -27 -8 -32 27 -11 65 -26 102 -45 112 -50 27 -135 -4 -234 -85 l-55 -45
-17 57 c-22 77 -63 117 -109 110 -52 -8 -95 -32 -167 -92 l-66 -55 -6 38 c-19
109 -70 153 -153 132 -59 -14 -113 -42 -190 -97 -57 -39 -63 -42 -63 -23 0 38
-30 79 -73 102 -59 31 -190 31 -304 -1 l-82 -23 -64 36 c-87 49 -136 49 -235
0 -70 -35 -76 -36 -115 -24 -22 6 -64 25 -93 41 -81 46 -111 52 -165 33 -43
-16 -49 -16 -95 0 -40 15 -95 18 -302 22 -177 3 -284 9 -360 21 -80 13 -152
17 -282 15 -122 -1 -206 3 -278 14 -88 13 -116 14 -186 4 -53 -8 -125 -11
-197 -6 -63 3 -148 8 -189 10 -50 3 -102 -2 -156 -13z"/>
</g>
</svg>
