<?xml version="1.0" standalone="no"?>
<!DOCTYPE svg PUBLIC "-//W3C//DTD SVG 20010904//EN"
 "http://www.w3.org/TR/2001/REC-SVG-20010904/DTD/svg10.dtd">
<svg version="1.0" xmlns="http://www.w3.org/2000/svg"
 width="1536.000000pt" height="1316.000000pt" viewBox="0 0 1536.000000 1316.000000"
 preserveAspectRatio="xMidYMid meet">
<metadata>
Created by potrace 1.16, written by Peter Selinger 2001-2019
</metadata>
<g transform="translate(0.000000,1316.000000) scale(0.100000,-0.100000)"
fill="#000000" stroke="none">
<path d="M4890 13145 c-131 -14 -308 -28 -575 -45 -605 -39 -1056 -174 -1445
-431 -192 -128 -341 -280 -588 -604 -142 -186 -206 -252 -311 -323 -148 -102
-189 -164 -178 -268 9 -92 49 -163 141 -251 63 -60 96 -103 144 -186 81 -139
115 -176 210 -225 42 -22 91 -56 109 -74 32 -34 72 -110 73 -139 1 -55 104
-147 350 -311 l135 -91 -50 7 c-172 21 -281 28 -440 28 -204 0 -285 -11 -520
-72 -82 -21 -276 -62 -430 -90 -693 -125 -957 -230 -1041 -413 -26 -57 -26
-62 -19 -190 6 -127 5 -134 -17 -177 -17 -32 -58 -73 -139 -138 -237 -194
-299 -260 -299 -322 0 -30 68 -148 142 -245 48 -63 62 -74 145 -115 51 -25 98
-51 105 -58 10 -10 13 -62 13 -200 l0 -187 62 -185 c78 -235 86 -280 86 -470
0 -182 -3 -203 -93 -730 -102 -595 -125 -697 -179 -782 -35 -55 -38 -67 -56
-230 -20 -177 -19 -271 1 -314 9 -19 54 -75 100 -124 65 -70 93 -108 123 -174
54 -118 155 -224 249 -261 69 -28 92 -41 92 -55 0 -5 -37 -23 -83 -40 -173
-65 -171 -63 -183 -170 -6 -56 -11 -66 -54 -108 -41 -40 -52 -60 -73 -132 -44
-146 -44 -146 5 -222 25 -36 50 -85 58 -107 22 -66 45 -81 157 -97 54 -7 134
-18 177 -24 128 -18 225 -73 491 -280 83 -64 188 -143 234 -175 161 -115 304
-274 503 -560 307 -440 357 -503 564 -709 512 -510 947 -746 1742 -945 357
-89 440 -101 872 -121 124 -6 303 -17 399 -25 239 -21 403 -20 536 2 91 15
167 18 445 17 429 -1 716 -28 1175 -110 112 -20 578 -128 745 -174 19 -5 179
-41 355 -80 430 -96 622 -143 1006 -245 448 -120 1403 -347 1584 -377 102 -16
486 -16 615 0 332 43 595 108 858 213 253 101 429 196 642 347 205 146 323
274 409 448 60 121 68 155 46 204 -10 22 -26 47 -36 56 -27 24 -24 53 13 110
46 73 114 221 132 289 9 33 19 96 23 140 5 66 3 83 -10 93 -14 12 -23 2 -75
-75 -90 -133 -271 -363 -287 -363 -18 0 -35 31 -35 63 0 13 13 65 30 116 60
188 76 363 44 499 -26 116 -76 194 -105 165 -6 -6 -17 -55 -25 -109 -27 -185
-117 -507 -148 -534 -16 -13 -20 8 -31 160 -7 99 -57 361 -87 458 -23 76 -57
148 -98 207 -62 89 -195 205 -236 205 -39 0 -31 -53 30 -192 30 -68 59 -147
65 -176 18 -86 32 -335 29 -502 -3 -151 -4 -155 -25 -158 -32 -5 -48 28 -73
143 -36 171 -105 340 -183 455 -50 72 -165 198 -188 205 -42 14 -42 -9 1 -141
68 -214 84 -372 60 -583 -11 -101 -16 -117 -37 -125 -27 -11 -39 11 -62 111
-74 325 -150 502 -283 660 -31 38 -76 93 -100 123 -24 30 -61 64 -82 75 -35
19 -38 19 -50 2 -15 -19 -17 -9 48 -318 48 -234 60 -370 46 -527 -6 -69 -17
-140 -25 -158 -12 -29 -19 -33 -78 -43 -36 -6 -72 -9 -80 -5 -11 4 -17 27 -21
82 -30 377 -75 516 -220 668 -68 71 -97 87 -112 63 -3 -6 -6 -100 -5 -208 1
-108 -3 -227 -8 -266 -5 -38 -15 -115 -21 -170 -6 -55 -16 -117 -22 -139 l-9
-38 -60 4 c-35 3 -66 11 -75 20 -9 9 -20 48 -25 94 -24 191 -80 391 -145 515
-46 88 -137 189 -170 189 -16 0 -24 -6 -25 -17 0 -10 -2 -119 -3 -243 -3 -180
-8 -247 -25 -335 -30 -151 -38 -175 -62 -175 -31 0 -87 27 -97 47 -5 10 -12
104 -15 208 -6 210 -25 322 -78 471 -34 93 -85 177 -110 182 -20 4 -29 -25
-29 -93 0 -87 -20 -214 -60 -390 -21 -93 -41 -193 -45 -222 -4 -28 -13 -60
-20 -70 -13 -17 -15 -17 -49 1 -19 10 -37 24 -40 31 -2 7 4 41 15 76 46 148
45 361 -2 515 -42 135 -106 232 -145 217 -8 -3 -21 -18 -29 -33 -13 -26 -19
-62 -45 -310 -16 -142 -81 -344 -123 -378 -13 -11 -22 -10 -56 7 l-40 21 15
42 c45 125 54 274 28 429 -30 172 -74 250 -114 201 -10 -11 -26 -58 -38 -104
-23 -97 -79 -251 -129 -356 -33 -69 -36 -73 -61 -68 -66 16 -81 27 -76 55 52
292 71 506 56 608 -24 151 -140 339 -183 296 -14 -14 -48 -159 -69 -295 -14
-93 -31 -158 -63 -240 -24 -62 -52 -135 -62 -161 -18 -52 -32 -63 -68 -53 -50
13 -51 17 -27 116 22 84 23 100 13 185 -17 140 -106 355 -148 355 -20 0 -22
-6 -50 -141 -31 -154 -79 -309 -104 -340 -19 -23 -21 -23 -48 -8 -15 9 -40 19
-55 23 l-27 6 6 128 c6 140 -10 255 -46 337 -36 82 -56 61 -122 -131 -40 -116
-76 -201 -88 -208 -3 -2 -28 5 -56 16 l-50 19 0 152 c-1 138 -3 159 -28 233
-30 90 -59 134 -87 134 -27 0 -34 -18 -75 -179 -19 -78 -43 -160 -51 -182 -18
-44 -24 -44 -95 -8 -63 31 -64 38 -33 131 24 71 28 99 29 193 0 146 -34 275
-87 333 -41 42 -54 26 -83 -103 -23 -100 -168 -365 -201 -365 -7 0 -20 10 -28
22 -13 18 -16 53 -16 173 0 82 -5 167 -11 189 -11 38 -49 86 -69 86 -13 0 -66
-82 -133 -208 l-52 -100 -58 30 c-32 16 -60 35 -63 43 -3 8 1 48 10 90 21 103
20 153 -4 192 -11 18 -23 33 -27 33 -13 0 -139 -143 -156 -177 -9 -17 -21 -34
-25 -37 -13 -8 -122 47 -204 102 -40 27 -129 93 -197 147 -214 166 -859 589
-1171 767 -256 146 -502 262 -673 318 -119 38 -137 56 -70 64 407 52 437 57
607 112 96 32 203 59 250 65 44 5 89 12 98 15 23 7 32 -14 57 -127 32 -150 50
-181 90 -160 27 15 38 58 50 186 11 127 18 136 105 156 43 9 58 9 82 -2 41
-20 53 -52 63 -168 9 -116 18 -133 58 -111 39 22 61 66 84 171 11 52 26 100
32 106 17 17 127 37 139 25 5 -5 12 -67 15 -138 7 -151 13 -174 47 -174 53 0
149 162 166 280 5 34 11 64 14 67 2 2 15 -1 27 -8 16 -8 50 -10 114 -5 84 6
93 4 110 -14 26 -29 31 -159 11 -275 -29 -163 -17 -227 36 -193 49 32 139 132
162 181 14 29 34 94 46 146 11 52 27 102 36 113 21 22 83 24 122 4 15 -7 50
-19 79 -25 30 -8 54 -19 58 -29 8 -21 8 -238 -1 -352 -13 -180 38 -187 145
-21 46 72 66 131 83 241 9 62 16 80 41 102 34 32 75 36 130 13 20 -8 47 -15
60 -15 45 0 52 -22 39 -115 -7 -46 -17 -152 -22 -236 -5 -84 -19 -200 -31
-257 -24 -118 -19 -165 19 -170 30 -4 54 15 116 89 129 158 222 336 279 538
l22 76 78 3 77 3 0 -84 c0 -82 -34 -434 -46 -470 -8 -26 5 -87 18 -87 21 0
123 74 174 126 97 99 164 238 190 393 7 47 17 88 22 93 8 8 88 -4 99 -16 3 -3
-2 -164 -12 -358 -18 -365 -16 -400 21 -415 20 -7 71 41 130 123 91 127 177
354 209 552 8 47 18 89 24 95 5 5 26 7 45 3 l36 -7 0 -217 c0 -248 -10 -326
-69 -542 -52 -191 -67 -275 -52 -306 33 -73 151 24 310 256 143 208 226 416
261 654 29 202 23 188 84 184 50 -3 52 -4 73 -48 51 -106 76 -331 77 -717 1
-212 4 -295 13 -304 19 -19 67 7 103 57 49 69 136 260 185 407 65 194 85 305
92 495 l6 162 59 0 c57 0 59 -1 72 -32 8 -18 17 -57 21 -87 4 -30 23 -99 42
-155 67 -197 74 -243 81 -478 6 -191 9 -219 25 -235 17 -17 19 -17 50 17 60
65 166 334 208 528 26 120 40 472 19 496 -28 34 23 48 83 22 68 -28 128 -132
166 -286 29 -118 38 -184 61 -436 22 -245 35 -309 65 -309 31 0 60 56 95 182
62 226 71 284 77 503 5 180 3 220 -16 327 -27 156 -27 158 7 172 110 46 232
-199 312 -627 11 -62 26 -124 32 -137 25 -56 63 -32 98 61 73 195 96 425 66
654 -18 134 -13 148 63 168 30 7 68 24 84 38 16 13 33 24 39 24 17 0 87 -43
284 -174 99 -67 209 -138 242 -159 34 -21 62 -45 62 -53 0 -36 -55 -174 -140
-350 -103 -212 -130 -281 -130 -332 0 -34 1 -35 35 -29 46 8 130 66 247 173
149 137 225 225 277 320 25 48 54 92 64 98 22 14 139 -43 163 -79 25 -38 14
-88 -57 -260 -33 -82 -74 -182 -90 -222 -16 -39 -29 -87 -29 -107 0 -35 1 -36
40 -36 117 0 292 169 391 378 48 101 64 122 94 122 39 0 48 -23 40 -97 -11
-106 -40 -203 -98 -336 -30 -67 -66 -161 -81 -208 -18 -60 -40 -105 -70 -147
-83 -113 -96 -156 -48 -167 73 -16 275 99 407 230 115 115 188 233 260 420 25
66 49 123 53 127 12 12 72 -30 82 -58 29 -75 -2 -202 -109 -455 -141 -334
-135 -431 21 -356 102 48 294 242 403 405 46 70 119 248 131 320 5 35 10 42
29 42 95 0 245 120 309 249 31 61 77 275 83 381 13 217 -85 480 -298 799 -186
279 -351 464 -572 642 -273 221 -318 273 -507 584 -147 244 -177 283 -336 445
-78 80 -158 172 -178 203 -45 70 -113 220 -194 427 -34 85 -105 265 -158 400
-263 669 -455 965 -1153 1775 -320 371 -446 508 -638 695 -338 330 -534 467
-1145 799 -420 227 -565 302 -708 364 -69 31 -204 92 -300 137 -248 116 -364
162 -618 246 -159 52 -275 98 -403 159 -289 139 -349 157 -659 200 -291 40
-367 59 -655 156 -337 113 -404 128 -625 139 -96 5 -197 13 -225 19 -27 5
-135 28 -240 50 -104 22 -237 47 -295 56 -146 22 -407 27 -560 10z m-425
-3919 c87 -23 248 -105 341 -175 44 -33 130 -113 190 -177 60 -65 159 -168
220 -228 129 -129 146 -152 168 -225 26 -87 21 -150 -19 -246 -49 -119 -53
-182 -21 -325 36 -162 40 -231 26 -436 -22 -337 -41 -447 -175 -984 -46 -184
-88 -360 -95 -391 -19 -96 -15 -95 -168 -49 -173 51 -227 76 -287 136 -128
125 -362 431 -423 550 -12 23 -29 75 -38 115 -24 107 -43 150 -132 297 -49 81
-120 222 -182 365 -138 313 -187 406 -269 512 -147 188 -201 287 -201 366 0
65 45 200 127 383 66 147 97 190 186 259 96 75 287 207 336 232 90 46 283 55
416 21z m-2337 -697 c92 -29 97 -29 285 -27 280 4 277 6 459 -287 108 -173
279 -474 356 -628 l67 -132 -1 -95 c-1 -68 -11 -136 -34 -240 l-33 -145 -8
-455 c-4 -250 -10 -468 -14 -485 -3 -16 -11 -52 -16 -80 -62 -303 -247 -539
-484 -617 -135 -45 -225 -51 -585 -44 -256 5 -352 3 -455 -9 -154 -17 -280
-19 -339 -4 -69 17 -287 196 -358 293 -34 48 -36 96 -9 234 11 57 21 165 25
262 7 192 16 235 92 420 31 74 75 187 97 250 l42 115 -1 150 c0 83 -2 213 -5
290 -3 118 -1 148 14 193 27 76 42 83 180 80 103 -3 118 -1 143 18 48 35 49
43 28 165 -10 63 -19 155 -19 204 0 82 3 97 32 155 62 126 206 333 279 402 72
67 101 69 262 17z m4912 -54 c208 -24 299 -42 427 -86 402 -138 976 -444 1392
-742 533 -382 870 -764 961 -1089 30 -105 37 -225 17 -265 -38 -73 -135 -134
-413 -258 -217 -98 -231 -106 -471 -291 -208 -159 -312 -223 -423 -258 -160
-51 -298 -57 -630 -26 -356 33 -408 29 -600 -39 -47 -16 -155 -42 -241 -57
l-156 -27 -109 34 c-107 33 -110 35 -185 109 -122 122 -228 295 -269 442 -11
40 -31 149 -45 243 -34 228 -54 304 -145 550 -135 365 -160 466 -161 645 l-1
105 72 140 c40 77 79 158 87 180 8 22 20 129 28 238 29 396 55 441 263 467 93
12 440 3 602 -15z m5142 -1879 c233 -45 467 -194 753 -481 256 -255 403 -453
440 -590 22 -81 14 -125 -31 -174 -88 -98 -258 -119 -604 -76 -63 8 -172 19
-242 24 -80 6 -138 15 -157 26 -54 27 -156 137 -201 215 -24 41 -67 116 -96
165 -70 118 -82 155 -95 292 -12 138 -25 181 -78 273 -74 128 -91 222 -50 274
44 55 214 80 361 52z m-1602 -366 c21 -38 25 -58 25 -125 -1 -70 -6 -93 -40
-177 -22 -54 -42 -94 -46 -90 -13 12 -50 171 -56 237 -6 67 8 144 33 183 23
35 54 25 84 -28z m-7257 -3506 c46 -20 86 -28 157 -33 l96 -6 84 -60 c46 -33
130 -105 186 -160 93 -92 103 -106 128 -175 34 -93 52 -209 42 -274 -10 -61
-50 -106 -95 -106 -55 0 -190 72 -296 157 -55 44 -146 110 -202 147 -127 82
-167 116 -201 175 -26 44 -27 51 -25 177 4 197 11 206 126 158z"/>
</g>
</svg>
