<?xml version="1.0" standalone="no"?>
<!DOCTYPE svg PUBLIC "-//W3C//DTD SVG 20010904//EN"
 "http://www.w3.org/TR/2001/REC-SVG-20010904/DTD/svg10.dtd">
<svg version="1.0" xmlns="http://www.w3.org/2000/svg"
 width="1536.000000pt" height="859.000000pt" viewBox="0 0 1536.000000 859.000000"
 preserveAspectRatio="xMidYMid meet">
<metadata>
Created by potrace 1.16, written by Peter Selinger 2001-2019
</metadata>
<g transform="translate(0.000000,859.000000) scale(0.100000,-0.100000)"
fill="#000000" stroke="none">
<path d="M5546 8568 c-8 -13 -42 -115 -76 -228 -139 -466 -171 -547 -250 -633
-62 -68 -91 -81 -175 -75 -76 5 -110 25 -140 84 -30 60 -33 240 -5 419 47 309
53 358 44 394 -7 26 -14 36 -29 36 -39 0 -76 -110 -136 -405 -49 -245 -100
-367 -171 -410 -45 -27 -136 -28 -169 -1 -23 18 -24 24 -24 153 0 73 4 195 9
270 7 105 6 141 -3 152 -33 40 -54 -11 -125 -304 -93 -384 -145 -485 -289
-554 -75 -37 -127 -43 -156 -19 -22 18 -25 30 -30 134 -4 63 -10 120 -15 127
-20 32 -45 -22 -87 -187 -49 -194 -146 -365 -241 -429 -35 -23 -55 -28 -131
-32 -81 -5 -92 -7 -108 -30 -25 -33 -36 -101 -48 -291 -12 -181 -22 -236 -63
-338 -61 -156 -117 -257 -183 -330 -89 -99 -92 -104 -100 -206 -9 -130 -53
-487 -69 -565 -18 -85 -41 -140 -59 -140 -34 0 -37 -26 -47 -406 -5 -208 -14
-403 -20 -433 -12 -62 -33 -91 -67 -91 -13 0 -37 -14 -55 -30 -36 -35 -73 -39
-88 -10 -17 31 -35 24 -74 -30 -26 -37 -42 -50 -61 -50 -27 0 -45 -25 -45 -64
0 -14 -15 -47 -34 -73 -19 -27 -54 -105 -79 -176 -25 -71 -53 -139 -62 -153
-32 -50 -107 -30 -429 113 -105 46 -212 89 -240 95 -29 6 -113 8 -205 6 -135
-4 -168 -9 -241 -32 -121 -40 -334 -144 -439 -216 -111 -76 -320 -249 -423
-351 -66 -65 -79 -84 -94 -134 -31 -109 -2 -236 76 -335 39 -50 194 -152 223
-148 21 3 22 8 20 76 -2 68 -1 72 17 62 30 -16 43 -12 37 11 -8 29 17 35 50
11 15 -10 45 -22 65 -26 28 -5 47 -18 75 -53 113 -138 140 -155 130 -82 l-5
41 26 -25 c15 -13 37 -30 49 -36 29 -15 36 6 27 79 l-7 55 22 -19 c20 -18 22
-18 41 -1 11 10 20 27 20 38 0 16 3 17 15 7 30 -25 133 15 121 46 -4 11 -1 12
14 4 10 -5 21 -10 23 -10 2 0 40 29 83 65 100 84 157 101 123 39 -20 -39 -254
-271 -280 -279 -13 -4 -45 -25 -72 -46 -27 -22 -54 -39 -60 -39 -7 -1 -34 -21
-61 -45 -42 -38 -47 -46 -36 -60 28 -34 -1 -25 -33 10 -39 43 -62 40 -53 -6 9
-45 -10 -44 -67 4 -59 50 -78 59 -98 47 -11 -8 -11 -15 0 -45 16 -45 11 -51
-28 -31 -38 20 -71 21 -71 1 0 -8 8 -30 17 -49 15 -33 15 -37 -1 -55 -16 -18
-16 -20 3 -52 12 -19 21 -43 21 -55 0 -24 20 -44 67 -68 18 -9 56 -37 85 -62
109 -98 165 -96 303 6 60 45 224 140 242 140 23 0 147 -65 553 -292 465 -259
606 -341 638 -371 26 -24 28 -54 6 -126 -20 -69 -91 -139 -277 -278 -245 -181
-389 -262 -514 -288 -90 -19 -212 -70 -240 -100 -54 -60 -91 -241 -59 -290 24
-37 43 -31 78 25 l31 50 29 -25 c42 -35 64 -31 116 20 66 66 92 59 105 -29 6
-39 31 -76 52 -76 6 0 26 16 45 35 29 30 40 35 81 35 29 0 85 13 141 33 51 19
112 37 136 41 24 3 84 27 133 52 50 25 163 76 252 115 208 90 250 116 492 298
130 99 207 151 220 149 11 -2 36 -25 55 -52 38 -52 167 -212 274 -339 75 -89
81 -113 44 -187 -28 -56 -73 -86 -146 -100 -138 -26 -225 -54 -337 -109 -66
-33 -130 -63 -143 -66 -59 -17 -222 -163 -222 -199 0 -12 33 -5 83 18 46 22
57 24 94 13 35 -9 56 -8 115 6 40 10 107 21 149 24 99 8 108 -4 45 -64 -25
-25 -46 -49 -46 -54 0 -5 10 -15 23 -23 17 -12 31 -13 62 -6 22 5 65 10 96 10
47 0 71 7 140 44 46 24 145 65 219 91 153 54 196 73 261 121 162 118 259 403
203 595 -9 30 -58 145 -110 257 -52 111 -93 206 -90 211 3 4 29 4 58 0 29 -5
226 -28 438 -53 1177 -137 1303 -144 1618 -88 101 17 194 32 208 32 l24 0 0
-132 c0 -470 -55 -627 -234 -669 -119 -27 -256 -122 -256 -177 0 -22 3 -24 28
-17 101 25 148 13 96 -27 -16 -12 -44 -37 -63 -55 -28 -28 -31 -36 -21 -48 11
-14 15 -13 32 2 17 15 38 18 122 18 110 0 156 -8 156 -28 0 -7 -14 -32 -31
-55 -31 -43 -50 -112 -31 -112 6 0 45 18 87 40 56 29 82 38 104 34 39 -8 73
12 175 101 48 41 90 75 94 75 5 0 19 -33 31 -73 52 -160 100 -206 101 -94 0
30 7 45 34 70 59 56 110 177 181 431 19 71 58 187 86 258 55 140 102 293 121
395 16 89 27 93 152 53 132 -42 308 -114 381 -155 76 -42 125 -81 170 -135 41
-49 45 -91 16 -157 -26 -56 -76 -83 -236 -128 -71 -20 -149 -45 -172 -55 -50
-22 -85 -72 -81 -115 3 -29 3 -29 96 -41 73 -9 98 -16 117 -34 24 -23 27 -23
90 -11 51 10 72 11 94 1 26 -11 39 -8 118 28 48 21 152 60 230 86 144 48 216
88 233 129 28 66 61 244 63 339 l2 103 -79 128 c-43 70 -77 129 -75 131 8 7
473 -65 824 -128 1260 -224 1595 -270 1970 -271 272 0 333 6 620 61 447 87
794 184 2011 564 690 216 995 305 1382 404 418 107 438 122 169 120 -257 -2
-470 -35 -1642 -255 -1362 -255 -1600 -289 -2019 -289 -280 0 -476 23 -868
100 -445 88 -881 232 -1457 480 -427 184 -755 367 -885 495 -74 73 -192 221
-217 272 -11 23 -26 47 -34 53 -11 9 -11 18 -3 42 9 25 8 37 -7 65 -14 26 -16
36 -7 45 21 21 13 66 -18 101 -35 41 -37 63 -9 116 18 35 20 50 14 115 -7 71
-6 78 20 122 l28 47 -18 49 c-32 90 -19 156 48 241 l29 38 -46 45 c-59 59 -61
92 -10 152 l36 42 -18 70 c-16 59 -17 78 -6 126 6 31 25 78 42 104 36 56 37
72 6 113 -32 44 -46 90 -46 154 0 60 14 94 71 169 22 28 39 56 39 62 0 6 -19
16 -42 23 -24 6 -54 14 -67 18 -28 8 -44 51 -35 92 3 15 46 71 95 125 101 110
121 141 100 154 -17 10 -45 2 -154 -45 -101 -44 -126 -42 -164 14 -29 42 -30
99 -3 151 11 21 66 88 123 149 109 116 144 168 134 195 -12 30 -58 17 -176
-49 -133 -74 -172 -89 -205 -81 -32 8 -77 70 -92 127 -25 96 12 164 186 344
70 72 135 143 145 158 24 38 14 57 -33 57 -44 0 -86 -24 -231 -134 -119 -90
-165 -119 -214 -136 -125 -40 -261 111 -228 254 15 66 77 193 138 282 26 39
70 103 97 142 47 69 54 102 23 102 -22 0 -87 -48 -198 -147 -134 -119 -201
-168 -257 -190 l-45 -17 -56 30 c-62 34 -114 104 -114 152 0 39 89 241 179
405 78 142 100 207 71 207 -20 0 -98 -85 -240 -263 -64 -81 -129 -155 -144
-164 -19 -13 -47 -18 -93 -18 -53 0 -74 5 -112 28 -91 53 -198 208 -198 288 0
61 39 155 171 418 104 205 127 257 118 272 -22 43 -60 10 -142 -128 -88 -145
-236 -362 -279 -409 -70 -76 -173 -94 -264 -47 -55 28 -66 54 -60 143 6 98 28
175 142 514 89 267 112 366 84 366 -35 0 -115 -145 -240 -430 -96 -218 -184
-391 -215 -420 -19 -18 -40 -25 -85 -28 -32 -2 -71 -1 -85 2 -35 9 -102 71
-109 101 -16 65 33 327 116 619 68 240 79 329 41 334 -14 2 -27 -5 -37 -20z"/>
</g>
</svg>
