<?xml version="1.0" standalone="no"?>
<!DOCTYPE svg PUBLIC "-//W3C//DTD SVG 20010904//EN"
 "http://www.w3.org/TR/2001/REC-SVG-20010904/DTD/svg10.dtd">
<svg version="1.0" xmlns="http://www.w3.org/2000/svg"
 width="1536.000000pt" height="568.000000pt" viewBox="0 0 1536.000000 568.000000"
 preserveAspectRatio="xMidYMid meet">
<metadata>
Created by potrace 1.16, written by Peter Selinger 2001-2019
</metadata>
<g transform="translate(0.000000,568.000000) scale(0.100000,-0.100000)"
fill="#000000" stroke="none">
<path d="M2301 5615 c-68 -35 -160 -77 -205 -94 -44 -18 -90 -37 -102 -42 -11
-6 -97 -135 -190 -287 -186 -304 -218 -377 -234 -532 -19 -172 -62 -486 -81
-584 -10 -51 -1 -76 29 -76 13 0 172 87 407 223 39 22 153 93 255 157 208 132
247 153 260 145 5 -3 20 -30 34 -60 13 -30 65 -123 114 -207 119 -205 126
-218 110 -222 -210 -54 -238 -59 -273 -42 -91 43 -88 42 -93 28 -2 -8 -32 -27
-65 -43 -46 -21 -70 -27 -97 -23 -29 5 -42 0 -80 -30 -41 -32 -73 -44 -171
-65 -21 -4 -49 -18 -64 -29 -15 -12 -41 -22 -56 -22 -18 0 -36 -9 -47 -21 -9
-12 -26 -29 -36 -38 -10 -9 -41 -35 -68 -58 -27 -24 -53 -43 -59 -43 -5 0 -41
-20 -78 -44 -38 -25 -80 -48 -93 -51 -14 -4 -41 -27 -59 -52 -19 -25 -46 -51
-62 -59 -15 -8 -37 -29 -50 -48 -65 -97 -112 -146 -140 -146 -28 0 -59 -35
-204 -230 -26 -36 -63 -73 -82 -82 -28 -14 -43 -35 -76 -100 -22 -46 -83 -141
-136 -213 -122 -164 -275 -414 -351 -571 -72 -151 -172 -434 -197 -563 -11
-53 -30 -195 -42 -316 -30 -312 -24 -549 26 -885 19 -135 38 -252 41 -262 6
-21 34 -32 34 -14 0 8 27 35 61 60 47 35 70 46 98 46 46 0 64 15 50 42 -9 17
1 31 73 101 46 45 162 174 258 287 96 113 263 293 370 400 108 107 236 239
284 294 92 101 275 265 382 342 34 24 113 74 175 109 231 134 467 361 551 530
14 28 45 89 70 136 25 47 52 111 59 143 8 38 20 64 36 76 14 11 28 32 32 47 7
27 10 28 76 31 60 3 77 -1 131 -28 35 -17 76 -44 91 -60 15 -17 33 -30 39 -30
6 0 33 -11 60 -25 27 -14 55 -25 62 -25 31 0 180 -74 212 -106 20 -19 43 -34
51 -34 27 0 59 -31 86 -83 37 -74 42 -97 27 -138 -15 -45 -5 -101 25 -133 12
-12 21 -35 21 -51 0 -27 14 -70 58 -177 13 -34 35 -53 106 -95 12 -7 63 -33
114 -58 87 -42 99 -45 175 -45 76 0 86 -3 135 -34 l53 -34 60 31 c41 21 75 31
112 32 71 3 192 62 201 100 5 18 13 25 29 25 13 0 27 4 33 9 5 5 39 11 76 13
49 3 74 9 90 24 13 11 35 25 50 32 16 6 28 20 30 34 2 18 10 24 37 26 19 2 47
13 61 25 22 19 49 33 120 61 8 4 33 17 55 31 54 32 104 55 122 55 8 0 31 11
51 25 20 14 46 25 57 25 11 0 51 16 89 35 37 19 83 35 101 35 45 0 94 19 106
41 7 14 21 19 49 19 22 0 57 6 77 14 23 8 95 17 177 20 108 4 141 9 150 20 10
14 36 15 206 7 107 -5 235 -5 285 0 50 4 132 4 185 -1 53 -5 154 -5 230 -1
101 6 157 5 220 -5 47 -8 180 -19 295 -25 116 -5 237 -16 270 -24 51 -12 70
-12 128 1 55 11 91 12 187 4 66 -6 139 -18 162 -27 27 -9 100 -18 193 -23 83
-5 161 -11 173 -15 21 -7 91 3 162 23 15 5 26 16 28 30 2 12 17 35 33 52 l31
30 -26 0 c-16 0 -26 6 -26 15 0 24 -36 36 -90 29 -54 -7 -60 -1 -39 38 11 20
10 21 -27 13 -67 -14 -143 -18 -324 -19 -149 -1 -175 1 -175 14 0 11 14 16 55
18 127 6 187 22 238 63 26 22 57 42 70 46 55 14 472 -16 792 -58 572 -74 899
-127 1255 -204 88 -19 284 -59 435 -89 151 -31 311 -65 355 -76 44 -12 121
-30 171 -40 111 -23 484 -127 609 -170 50 -17 153 -49 230 -71 77 -22 182 -53
233 -70 51 -16 112 -29 137 -29 24 0 47 -5 50 -10 3 -6 20 -10 38 -10 17 0 65
-15 107 -34 94 -42 250 -91 357 -111 73 -14 327 -96 341 -109 3 -3 19 -6 35
-6 19 0 90 -34 196 -93 91 -52 195 -110 231 -130 36 -19 144 -88 240 -153 230
-154 258 -166 386 -172 118 -5 222 13 329 57 110 45 315 150 315 162 0 11
-149 155 -231 223 -34 27 -97 63 -162 91 -196 84 -347 108 -647 104 -368 -6
-415 -3 -601 29 -126 22 -223 46 -345 87 -93 31 -197 63 -232 71 -35 8 -71 19
-80 23 -19 10 -215 76 -357 120 -49 15 -225 72 -390 125 -506 165 -825 256
-894 256 -15 0 -73 13 -127 29 -184 54 -371 101 -401 101 -17 0 -55 9 -86 19
-31 11 -65 19 -74 19 -10 -1 -63 11 -118 25 -229 60 -372 91 -565 122 -85 14
-200 34 -255 45 -201 41 -559 93 -720 105 -49 4 -162 17 -250 30 -88 13 -248
33 -355 45 -107 11 -251 27 -320 34 -385 43 -1414 79 -1981 69 -190 -3 -358
-3 -373 1 -19 5 -32 19 -45 49 -11 23 -41 79 -69 124 -27 45 -68 126 -92 180
-24 54 -58 128 -76 165 -19 37 -34 75 -34 84 0 10 11 46 26 81 65 165 45 423
-48 607 -31 61 -94 152 -119 172 -12 9 -322 89 -429 110 -87 17 -255 75 -277
96 -14 13 -41 50 -61 83 -103 173 -181 271 -304 384 -67 63 -145 129 -173 147
-71 48 -245 110 -414 150 -80 18 -157 38 -171 44 -14 5 -65 19 -115 30 -100
23 -310 89 -395 125 -30 13 -122 56 -205 95 -82 40 -168 79 -190 87 -22 9 -44
20 -49 25 -6 4 -37 8 -70 7 -54 -1 -75 -8 -185 -64z m-1685 -3847 c-21 -92
-29 -106 -50 -89 -9 8 -16 22 -16 33 0 41 32 143 48 156 30 22 37 -17 18 -100z"/>
</g>
</svg>
