<?xml version="1.0" standalone="no"?>
<!DOCTYPE svg PUBLIC "-//W3C//DTD SVG 20010904//EN"
 "http://www.w3.org/TR/2001/REC-SVG-20010904/DTD/svg10.dtd">
<svg version="1.0" xmlns="http://www.w3.org/2000/svg"
 width="2248.000000pt" height="1200.000000pt" viewBox="0 0 2248.000000 1200.000000"
 preserveAspectRatio="xMidYMid meet">
<metadata>
Created by potrace 1.16, written by Peter Selinger 2001-2019
</metadata>
<g transform="translate(0.000000,1200.000000) scale(0.100000,-0.100000)"
fill="#000000" stroke="none">
<path d="M697 11939 c-93 -22 -170 -89 -251 -217 -54 -85 -155 -188 -232 -237
-42 -27 -54 -40 -54 -60 0 -14 -4 -25 -8 -25 -5 0 -28 -34 -52 -75 -41 -72
-42 -78 -36 -133 4 -31 12 -59 17 -61 6 -2 19 -12 27 -22 17 -20 82 -27 82
-10 0 6 9 8 20 6 11 -2 20 0 20 6 0 5 7 9 16 9 25 0 105 50 154 96 45 42 157
124 170 124 4 0 19 -9 33 -20 l25 -20 -47 -85 c-32 -56 -61 -95 -88 -114 -21
-16 -55 -48 -74 -72 -45 -58 -56 -69 -62 -63 -3 3 -8 -4 -12 -15 -6 -20 -16
-25 -43 -22 -6 1 -12 -4 -12 -12 0 -10 -8 -13 -25 -9 -21 4 -25 1 -25 -21 0
-14 -6 -27 -12 -30 -23 -7 5 -59 50 -94 60 -46 88 -43 158 14 73 60 254 163
359 205 77 32 85 33 220 33 124 0 146 -3 189 -23 171 -78 388 -297 612 -617
112 -160 179 -274 299 -515 110 -221 160 -333 272 -619 346 -885 550 -1324
846 -1826 254 -430 403 -636 707 -980 207 -233 460 -494 692 -713 257 -241
366 -335 653 -562 121 -96 287 -230 369 -299 82 -70 217 -183 300 -253 197
-166 271 -251 340 -393 30 -60 63 -146 75 -190 43 -166 53 -362 25 -487 -22
-97 -15 -167 28 -259 58 -124 192 -283 363 -429 47 -41 85 -79 85 -87 0 -7
-24 -104 -54 -215 -29 -112 -68 -270 -85 -353 -18 -82 -41 -168 -52 -190 -11
-22 -51 -80 -90 -130 -77 -99 -183 -302 -243 -465 -50 -138 -83 -192 -168
-270 -70 -64 -77 -75 -111 -163 -20 -52 -41 -116 -48 -143 -22 -92 -57 -145
-156 -241 -96 -92 -96 -92 -90 -133 9 -66 34 -85 210 -156 32 -13 76 -39 98
-59 31 -27 47 -35 78 -35 30 0 49 -8 81 -35 45 -38 90 -50 151 -42 56 7 74 28
99 110 27 90 70 156 160 246 53 53 129 159 315 440 251 380 284 420 444 560
83 73 101 106 101 186 0 108 31 339 62 454 17 64 33 126 35 139 3 12 8 22 12
22 3 0 61 -110 129 -243 l122 -243 0 -77 c0 -118 18 -264 57 -467 39 -196 48
-364 24 -423 -19 -48 -14 -175 10 -242 34 -96 35 -185 5 -284 -32 -105 -35
-198 -7 -232 l19 -24 349 2 c343 2 348 2 365 24 23 27 23 49 -2 155 -18 74
-19 104 -13 198 9 126 10 459 3 871 -3 237 -2 292 13 359 9 43 24 90 32 103
21 31 38 173 26 206 -6 14 -32 61 -59 104 -92 146 -202 366 -190 378 7 7 153
-44 353 -125 683 -274 895 -331 1380 -370 123 -10 448 -30 489 -30 19 0 19 -8
12 -251 -7 -279 -3 -323 59 -569 39 -154 55 -248 55 -336 0 -65 -33 -262 -49
-293 -13 -24 -64 -48 -124 -56 -59 -9 -155 -48 -182 -73 -11 -11 -31 -23 -45
-27 -91 -27 -188 -135 -198 -221 l-5 -47 30 6 c17 3 34 2 40 -4 6 -6 22 -1 46
15 28 19 37 22 37 11 0 -19 24 -19 54 0 22 15 24 14 40 -10 l16 -25 518 0
c390 0 521 3 530 12 26 26 10 282 -33 543 -33 199 -11 373 114 871 27 110 57
237 65 282 14 71 24 94 76 172 33 50 62 90 64 90 2 0 34 -71 72 -157 50 -112
80 -168 109 -199 44 -47 535 -428 630 -489 33 -21 129 -73 213 -116 183 -94
226 -124 315 -222 37 -42 105 -106 151 -142 47 -37 89 -79 96 -94 14 -34 8
-174 -8 -194 -43 -51 -54 -155 -23 -222 28 -62 137 -153 158 -132 3 3 0 22 -7
42 -13 39 -7 56 12 37 7 -7 22 -12 34 -12 20 0 22 4 16 42 l-5 42 27 -17 c34
-23 44 -16 44 29 0 45 4 49 50 45 73 -5 230 128 311 264 43 71 80 197 88 295
6 92 -11 227 -35 259 -9 12 -105 69 -212 126 -107 57 -224 120 -259 142 -77
46 -189 154 -253 243 -70 98 -217 342 -276 460 l-53 105 11 180 c6 99 13 194
16 211 9 58 13 59 426 35 205 -12 418 -23 473 -26 158 -9 1113 -35 1222 -35
145 1 862 -19 903 -25 19 -3 193 -17 385 -30 193 -14 465 -36 605 -50 547 -52
945 -61 1550 -36 574 25 1693 0 2075 -45 218 -25 380 -76 597 -185 220 -112
391 -235 584 -421 143 -139 215 -233 339 -443 48 -82 95 -158 103 -167 19 -22
65 -23 83 -2 19 23 -16 119 -103 279 -169 311 -285 441 -608 686 -209 158
-574 368 -765 440 -164 62 -307 94 -582 133 -290 40 -306 42 -568 61 -110 8
-313 26 -452 40 -138 13 -354 31 -480 40 -408 27 -610 52 -1179 145 -368 60
-772 154 -1219 285 -189 55 -527 170 -570 195 -17 9 -44 20 -60 24 -17 4 -83
27 -147 52 -92 35 -122 52 -139 76 -27 37 -74 58 -133 58 -33 0 -74 14 -155
51 -61 29 -111 58 -111 65 0 7 -14 24 -31 38 -27 23 -39 26 -89 24 -48 -2 -72
4 -141 35 -61 27 -89 46 -101 67 -23 41 -72 64 -122 56 -33 -4 -60 2 -142 36
-97 39 -102 43 -113 79 -20 65 -51 79 -178 79 -99 0 -117 3 -193 33 l-84 32 3
63 c2 57 0 65 -26 90 -21 21 -46 31 -99 41 -71 14 -122 12 -279 -8 -69 -9 -72
-9 -212 41 l-141 50 -7 52 c-8 57 -33 104 -67 125 -25 15 -202 30 -376 31
l-103 0 -123 61 c-117 57 -124 63 -135 99 -14 47 -49 78 -135 119 -65 32 -65
32 -138 20 -96 -16 -144 -16 -255 -1 -55 7 -131 10 -190 6 l-98 -6 -18 46
c-11 25 -32 60 -48 77 l-29 32 -108 -5 c-96 -4 -116 -8 -178 -37 -38 -17 -86
-44 -107 -58 -37 -26 -39 -26 -110 -13 -90 16 -97 19 -97 37 0 34 -44 86 -89
106 -73 32 -161 24 -308 -29 -39 -14 -54 -14 -180 6 -76 11 -147 23 -158 25
-11 2 -29 20 -39 40 -22 40 -119 95 -170 95 -17 0 -92 -9 -166 -20 -130 -20
-138 -20 -234 -4 l-98 17 -18 42 c-29 68 -59 85 -148 85 -42 0 -114 -9 -162
-21 l-85 -20 -100 23 c-87 21 -102 28 -113 50 -18 38 -66 76 -112 88 -32 9
-50 7 -105 -12 l-67 -22 -99 33 c-72 23 -100 37 -104 52 -4 11 -24 31 -46 46
-36 23 -45 25 -105 20 -91 -9 -174 22 -236 86 -46 49 -71 57 -122 37 -20 -7
-41 -3 -100 22 -42 17 -76 36 -76 44 0 33 -82 68 -106 45 -12 -12 -431 188
-699 334 -338 183 -786 461 -1135 703 -573 397 -934 697 -1274 1057 -316 335
-490 555 -751 950 -201 303 -311 492 -565 965 -84 157 -175 323 -203 370 -97
163 -325 496 -425 621 -115 143 -310 334 -454 441 -267 201 -603 370 -861 435
-66 17 -142 46 -218 83 -121 61 -178 75 -242 59z"/>
</g>
</svg>
