<?xml version="1.0" standalone="no"?>
<!DOCTYPE svg PUBLIC "-//W3C//DTD SVG 20010904//EN"
 "http://www.w3.org/TR/2001/REC-SVG-20010904/DTD/svg10.dtd">
<svg version="1.0" xmlns="http://www.w3.org/2000/svg"
 width="3215.000000pt" height="1536.000000pt" viewBox="0 0 3215.000000 1536.000000"
 preserveAspectRatio="xMidYMid meet">
<metadata>
Created by potrace 1.16, written by Peter Selinger 2001-2019
</metadata>
<g transform="translate(0.000000,1536.000000) scale(0.100000,-0.100000)"
fill="#000000" stroke="none">
<path d="M12715 15279 c-38 -4 -91 -10 -116 -13 -25 -3 -137 -33 -247 -66
-405 -122 -699 -183 -1377 -285 -544 -82 -1129 -140 -1665 -166 -394 -19
-1135 -3 -1545 33 -164 14 -177 14 -230 0 -27 -8 -46 -21 -58 -41 -18 -30 -22
-77 -9 -98 11 -17 110 -58 187 -76 92 -23 515 -85 950 -142 599 -77 1015 -154
1690 -309 204 -47 525 -119 715 -160 584 -127 854 -192 995 -243 39 -13 104
-35 145 -48 41 -13 120 -40 175 -60 55 -20 125 -41 155 -47 30 -5 75 -14 100
-19 25 -5 68 -11 95 -14 28 -3 79 -11 115 -19 36 -8 99 -20 140 -26 41 -6 95
-16 120 -22 46 -10 109 -15 265 -22 50 -3 137 -14 195 -25 58 -12 118 -21 134
-21 40 0 305 -66 358 -89 88 -38 387 -225 503 -314 151 -116 399 -361 498
-493 154 -205 221 -363 306 -715 87 -359 105 -638 70 -1109 -17 -237 -83 -630
-107 -638 -4 -1 -71 -33 -147 -71 -177 -86 -459 -245 -591 -331 -130 -86 -232
-117 -548 -165 -334 -51 -479 -60 -1001 -59 -350 0 -588 5 -795 17 -958 57
-1850 156 -2193 243 -89 23 -226 1 -328 -51 -25 -14 -63 -18 -173 -19 -170 -3
-233 -14 -596 -111 -334 -90 -430 -111 -550 -125 -111 -13 -127 -6 -165 69
-13 27 -56 84 -95 126 -47 50 -81 99 -101 141 -25 58 -34 67 -75 86 -68 29
-197 28 -179 -3 4 -5 15 -9 25 -9 33 0 58 -44 53 -93 -5 -42 -3 -46 32 -73 70
-54 115 -96 115 -109 0 -17 -118 26 -191 71 -31 19 -67 34 -81 34 -15 0 -38
15 -62 40 -47 50 -94 64 -161 47 -58 -14 -61 -29 -9 -40 54 -11 76 -33 68 -71
-7 -42 24 -81 88 -111 l49 -23 -68 5 c-37 3 -83 9 -101 15 -67 20 -216 -17
-259 -64 -18 -21 -18 -21 41 -15 81 8 112 0 150 -39 17 -18 47 -37 66 -42 31
-9 25 -10 -47 -11 -71 -1 -99 -7 -210 -47 -70 -26 -151 -55 -179 -65 -27 -10
-171 -43 -320 -74 -595 -123 -642 -135 -1469 -371 -1968 -565 -2886 -861
-3955 -1279 -616 -240 -1078 -433 -1252 -521 -67 -34 -63 -36 147 -64 88 -12
288 -44 445 -71 749 -130 1182 -175 2360 -244 557 -33 1578 -118 1745 -145 33
-5 166 -19 295 -30 360 -32 1607 -156 1955 -196 922 -104 2788 -346 3475 -450
423 -64 465 -69 700 -84 332 -20 653 -114 1010 -296 192 -98 225 -117 360
-214 285 -206 548 -461 746 -725 116 -154 181 -280 287 -560 114 -298 151
-451 217 -905 18 -118 37 -249 43 -290 17 -110 16 -905 -1 -1045 -11 -91 -35
-218 -69 -362 -7 -32 14 -29 50 5 l28 27 -6 -65 c-14 -138 -102 -441 -165
-571 -49 -103 -63 -170 -58 -283 3 -68 10 -102 26 -134 12 -23 24 -42 26 -42
1 0 1 35 -1 78 -3 65 0 85 19 125 l23 49 0 -94 c1 -102 24 -175 70 -218 l24
-22 -6 73 c-7 93 5 143 35 147 14 2 22 -2 22 -10 0 -42 34 -120 71 -162 35
-39 102 -86 124 -86 3 0 -6 20 -21 45 -18 32 -28 65 -32 111 l-5 65 34 -20
c19 -12 44 -21 56 -21 23 0 77 41 94 71 15 28 1 44 -21 24 -25 -22 -51 -16
-69 16 -13 24 -13 32 2 79 19 59 22 141 7 171 -8 13 -6 36 5 81 9 34 18 102
20 150 2 49 7 93 10 98 3 4 9 80 15 167 6 118 14 174 31 223 25 72 28 168 9
239 -6 23 -8 55 -5 71 3 16 1 55 -5 87 -14 69 0 306 25 425 35 165 108 364
205 560 68 136 111 204 168 271 23 26 56 69 74 95 17 26 43 59 57 73 15 14 46
51 71 83 69 88 262 260 385 342 271 180 588 273 716 208 91 -46 178 -148 231
-269 37 -85 45 -121 63 -280 24 -217 21 -207 57 -203 31 3 32 4 45 83 43 253
110 413 213 509 81 74 132 97 222 99 67 2 81 -2 148 -35 138 -69 286 -195 443
-377 49 -58 110 -136 135 -175 25 -39 82 -127 127 -196 125 -190 257 -492 316
-720 33 -128 57 -397 44 -499 -4 -31 -9 -76 -10 -101 -2 -25 -6 -85 -10 -135
-6 -78 -4 -98 15 -150 15 -44 24 -102 31 -214 5 -85 12 -158 15 -163 4 -5 7
-48 9 -96 2 -48 11 -118 20 -157 13 -56 14 -78 5 -111 -9 -31 -9 -55 0 -100
24 -116 24 -127 -4 -153 -24 -23 -27 -23 -44 -8 -24 22 -32 21 -32 -2 0 -22
53 -70 78 -72 37 -3 58 4 79 23 20 19 23 19 29 4 10 -26 -4 -96 -31 -154 -29
-63 -18 -67 48 -17 57 43 88 94 103 165 10 50 13 55 35 52 13 -2 26 -6 29 -9
3 -3 5 -51 5 -108 0 -115 7 -120 50 -34 31 59 45 148 35 219 -4 30 -6 57 -4
59 7 8 54 -105 59 -144 4 -22 2 -59 -3 -82 -6 -24 -8 -43 -6 -43 3 0 14 21 25
48 47 107 31 282 -37 416 -65 127 -164 492 -164 605 l0 35 35 -34 c19 -18 37
-31 40 -28 3 2 -6 49 -20 104 -51 204 -57 278 -62 749 -5 472 -3 495 52 840
14 88 30 199 35 247 23 204 92 452 207 743 117 300 159 370 367 620 239 287
487 510 771 695 101 66 430 228 556 274 247 91 459 133 734 146 202 10 361 30
629 80 274 51 1182 175 1856 255 162 19 504 62 760 94 681 88 1001 124 1620
186 305 30 704 70 885 90 417 44 791 81 965 94 74 6 257 22 405 35 443 42 943
75 1440 96 132 6 359 24 505 40 146 16 362 39 480 50 118 11 240 25 270 30 30
5 80 12 110 15 30 4 154 22 275 41 121 19 254 39 295 44 41 6 138 21 215 35
77 13 198 33 269 42 120 17 162 33 119 46 -33 10 -438 194 -473 215 -33 20
-265 112 -520 207 -63 24 -225 86 -360 138 -693 268 -1563 570 -2010 698 -96
28 -335 99 -530 159 -195 60 -483 145 -640 190 -157 45 -406 117 -555 160
-495 145 -846 234 -1510 384 -293 66 -446 109 -570 157 -104 41 -117 43 -240
49 -90 4 -121 8 -100 13 17 4 47 12 67 18 21 5 39 17 43 28 10 33 77 55 145
47 37 -4 60 -3 60 3 0 5 -26 22 -57 38 -49 24 -70 28 -138 28 -102 0 -200 -12
-281 -35 -35 -9 -64 -14 -64 -10 0 4 28 15 63 25 125 35 177 74 177 133 0 20
4 42 8 48 11 18 48 34 76 34 33 0 33 18 0 30 -64 25 -143 5 -183 -45 -11 -15
-37 -31 -58 -37 -21 -5 -59 -23 -84 -39 -48 -30 -188 -83 -198 -74 -10 11 38
61 95 100 59 41 59 41 59 90 0 62 17 95 50 95 16 0 25 6 25 15 0 11 -12 15
-52 15 -102 0 -178 -38 -193 -97 -10 -40 -52 -100 -114 -163 -32 -32 -68 -79
-80 -104 -32 -70 -53 -86 -110 -86 -98 0 -259 36 -721 161 -219 59 -336 79
-467 79 -104 0 -119 3 -210 37 -90 33 -107 36 -208 37 -123 0 -189 -7 -320
-34 -240 -51 -1412 -167 -2324 -231 -340 -24 -999 0 -1336 47 -60 9 -139 20
-175 24 -83 11 -235 46 -321 75 -38 13 -162 80 -281 151 -117 70 -299 172
-405 226 l-192 99 -15 47 c-30 91 -90 350 -267 1149 -37 167 -231 779 -336
1058 -163 433 -343 752 -683 1210 -171 231 -287 369 -464 553 -213 223 -276
292 -276 304 0 14 -26 35 -67 53 -34 14 -44 35 -18 35 17 0 20 16 5 25 -20 13
7 37 146 126 209 135 224 146 218 164 -5 12 -19 14 -73 9 -104 -9 -648 14
-839 36 -286 33 -545 78 -618 109 -12 5 -65 44 -119 86 -320 250 -495 321
-730 294z m4235 -5689 c0 -5 -2 -10 -4 -10 -3 0 -8 5 -11 10 -3 6 -1 10 4 10
6 0 11 -4 11 -10z"/>
</g>
</svg>
