<?xml version="1.0" standalone="no"?>
<!DOCTYPE svg PUBLIC "-//W3C//DTD SVG 20010904//EN"
 "http://www.w3.org/TR/2001/REC-SVG-20010904/DTD/svg10.dtd">
<svg version="1.0" xmlns="http://www.w3.org/2000/svg"
 width="1536.000000pt" height="501.000000pt" viewBox="0 0 1536.000000 501.000000"
 preserveAspectRatio="xMidYMid meet">
<metadata>
Created by potrace 1.16, written by Peter Selinger 2001-2019
</metadata>
<g transform="translate(0.000000,501.000000) scale(0.100000,-0.100000)"
fill="#000000" stroke="none">
<path d="M5199 5000 c-11 -6 -19 -31 -23 -70 -4 -33 -11 -60 -16 -60 -4 0 -12
28 -17 63 l-8 62 -57 3 -57 3 -5 -33 c-3 -18 -7 -46 -8 -63 -4 -47 -22 -31
-30 26 -7 59 -17 69 -73 69 -51 0 -65 -13 -65 -64 0 -54 -14 -76 -29 -48 -6
11 -11 29 -11 40 0 27 -32 52 -68 52 -43 0 -62 -23 -62 -76 0 -49 -14 -59 -25
-16 -12 50 -33 72 -68 72 -54 0 -75 -23 -79 -83 -4 -54 -12 -48 -23 15 -7 45
-32 55 -93 38 -46 -12 -67 -39 -57 -73 4 -12 9 -30 11 -39 11 -37 -23 -17 -42
25 -19 41 -20 42 -67 41 -35 0 -53 -6 -69 -22 -21 -20 -21 -25 -10 -68 7 -26
11 -49 8 -51 -2 -3 -17 14 -32 36 -22 33 -32 41 -58 41 -17 0 -44 -10 -59 -23
l-28 -22 20 -47 c13 -32 17 -50 9 -54 -5 -4 -14 0 -19 7 -5 8 -19 29 -30 47
-11 17 -27 32 -35 32 -25 0 -84 -28 -90 -44 -5 -12 7 -71 23 -112 11 -29 -23
-13 -58 28 -35 40 -37 41 -67 29 -17 -7 -38 -21 -48 -32 -16 -17 -16 -23 -1
-73 12 -45 13 -57 2 -66 -10 -8 -20 -2 -42 29 -15 22 -35 41 -43 41 -9 0 -31
-12 -49 -27 l-33 -28 17 -49 c23 -66 8 -80 -40 -37 -20 17 -40 31 -45 31 -5 0
-22 -11 -37 -24 -27 -23 -27 -26 -15 -58 24 -58 25 -68 10 -68 -8 0 -25 11
-38 25 -29 30 -61 32 -86 4 -18 -20 -18 -21 4 -61 12 -23 20 -43 17 -46 -2 -2
-18 7 -35 22 -34 28 -51 32 -79 16 -27 -14 -33 -38 -16 -70 22 -42 19 -45 -16
-16 -29 25 -32 25 -60 10 -31 -15 -31 -17 -11 -74 3 -9 -6 -5 -21 9 -25 23
-27 23 -52 7 -29 -19 -28 -16 -15 -53 l11 -28 -24 29 c-23 28 -26 29 -55 17
-27 -11 -31 -17 -26 -40 5 -24 4 -24 -9 -8 -30 36 -81 13 -71 -34 5 -23 5 -23
-11 4 -18 31 -19 31 -46 17 -14 -8 -18 -18 -14 -38 l6 -27 -16 28 c-11 19 -22
27 -32 23 -8 -3 -17 -6 -19 -6 -2 0 -4 -8 -4 -17 0 -13 -3 -14 -12 -5 -18 18
-48 15 -48 -5 0 -12 -3 -14 -8 -6 -12 19 -110 15 -121 -5 -9 -16 -10 -16 -16
1 -8 18 -55 24 -55 7 0 -6 -8 -5 -19 2 -15 9 -23 9 -34 0 -12 -10 -16 -9 -21
4 -4 10 -12 14 -22 10 -9 -4 -23 -1 -30 5 -8 6 -20 9 -29 6 -8 -4 -17 -1 -21
4 -3 6 -14 9 -24 6 -11 -3 -21 1 -24 9 -3 8 -14 14 -25 14 -11 0 -23 5 -26 10
-3 6 -17 7 -29 4 -16 -4 -25 0 -29 10 -4 9 -17 16 -31 16 -13 0 -27 7 -30 16
-3 9 -13 14 -20 11 -8 -3 -17 1 -20 9 -3 8 -11 14 -18 13 -17 -3 -64 17 -72
29 -3 6 -18 13 -33 17 -25 6 -233 93 -241 100 -2 2 4 17 12 34 31 60 13 136
-43 184 -28 24 -41 27 -100 27 -60 0 -70 3 -92 26 -67 72 -153 72 -227 1 -65
-62 -76 -112 -46 -212 8 -30 14 -76 12 -102 -3 -47 -3 -48 -53 -66 -56 -21
-164 -94 -194 -133 -12 -15 -25 -43 -31 -63 -11 -42 -34 -66 -102 -105 -26
-14 -92 -69 -147 -120 -55 -51 -187 -163 -293 -249 -106 -86 -206 -172 -221
-192 -64 -81 -107 -202 -107 -300 l0 -51 68 -17 c37 -9 80 -17 96 -17 27 0 28
-1 12 -13 -17 -13 -16 -15 14 -40 43 -36 64 -40 188 -35 113 5 168 21 234 71
60 45 102 61 218 83 63 12 203 38 310 59 366 70 378 67 775 -185 190 -121 450
-239 636 -289 84 -22 223 -47 319 -56 121 -11 140 -16 140 -33 1 -27 37 -101
89 -182 43 -66 51 -86 65 -173 9 -54 42 -176 73 -272 64 -198 66 -172 -22
-299 -73 -105 -149 -257 -220 -436 -31 -80 -72 -174 -90 -210 -18 -36 -41 -94
-50 -128 -17 -69 -90 -245 -137 -335 -18 -33 -58 -83 -93 -116 -68 -63 -85
-88 -85 -121 0 -15 5 -20 14 -17 43 17 97 29 102 24 3 -3 -2 -19 -12 -35 -16
-27 -16 -33 -2 -68 20 -49 55 -70 142 -84 91 -14 108 -3 135 87 11 38 24 88
29 113 l9 45 7 -47 c5 -26 14 -49 21 -52 30 -11 47 33 75 201 42 246 46 259
107 363 91 156 138 224 261 378 121 152 210 283 243 357 16 35 35 109 65 254
11 54 27 -4 45 -170 20 -185 33 -268 78 -504 16 -82 38 -200 50 -261 25 -131
26 -167 6 -342 -11 -98 -23 -153 -45 -210 -31 -79 -49 -162 -35 -162 5 0 23
11 41 25 18 14 35 25 38 25 3 0 6 -22 6 -49 0 -73 16 -81 156 -81 94 0 115 3
135 18 l22 19 -16 119 c-21 143 -21 160 -1 112 15 -36 44 -56 64 -43 16 10 12
84 -10 186 -29 131 -43 423 -44 909 -1 458 -1 456 -81 614 -25 49 -44 90 -43
91 2 2 53 -6 113 -16 363 -63 694 -74 1030 -33 l50 6 52 -153 c29 -85 62 -192
72 -239 49 -210 51 -469 6 -605 -19 -59 -23 -91 -23 -200 0 -221 -38 -350
-141 -472 -39 -45 -66 -67 -104 -82 -54 -22 -196 -64 -257 -76 -50 -11 -90
-32 -132 -73 -36 -35 -50 -72 -27 -72 6 0 35 7 65 16 50 14 56 14 91 -3 35
-16 67 -18 378 -15 l340 2 21 24 c18 20 22 41 27 142 11 201 72 389 175 541
95 141 108 192 86 340 -22 145 -15 375 15 487 12 43 52 156 90 250 65 162 91
246 106 343 6 39 10 44 46 53 l39 11 102 -107 c133 -137 210 -198 453 -359
300 -198 420 -326 521 -556 25 -57 44 -114 44 -135 0 -44 21 -83 82 -152 100
-111 137 -245 122 -438 -9 -111 -12 -125 -38 -159 -46 -60 -122 -102 -244
-134 -23 -7 -58 -26 -77 -42 -38 -34 -81 -97 -71 -106 3 -3 23 -1 44 6 25 9
58 11 93 6 61 -8 265 -10 321 -4 28 3 42 12 60 38 14 21 38 39 63 48 43 15
108 72 129 113 7 14 46 68 87 121 41 52 81 109 88 127 19 45 6 95 -34 138 -55
58 -56 60 -76 136 -13 47 -23 133 -29 241 -11 200 -19 231 -70 294 -190 229
-313 453 -360 653 -35 153 -57 220 -100 310 -55 112 -104 175 -178 230 -57 41
-74 60 -54 60 14 0 389 208 477 265 107 69 159 95 255 129 41 15 107 42 145
60 50 25 95 37 160 45 50 7 108 21 131 31 35 18 63 20 225 20 189 0 645 13
1079 30 272 11 1752 31 2405 32 509 2 772 -13 1630 -87 778 -68 1045 -118
1568 -292 132 -44 171 -53 180 -44 16 16 -19 44 -110 90 -37 19 -80 47 -95 62
-20 21 -36 29 -62 29 -46 0 -86 16 -86 35 0 24 -50 50 -98 50 -33 0 -47 5 -53
18 -5 9 -13 25 -18 35 -8 16 -34 19 -86 10 -14 -2 -21 3 -23 20 -5 30 -34 45
-67 32 -36 -14 -37 -13 -30 10 8 26 -40 48 -67 31 -24 -15 -28 -14 -28 8 0 23
-42 36 -70 21 -17 -9 -20 -8 -20 10 0 26 -47 46 -72 31 -24 -15 -28 -14 -28 8
0 23 -42 36 -70 21 -26 -14 -28 -13 -32 12 -4 27 -53 46 -79 30 -13 -9 -18 -7
-22 7 -7 27 -55 36 -78 15 -18 -16 -19 -16 -19 5 0 13 -9 26 -25 33 -21 9 -28
8 -45 -7 -19 -18 -20 -17 -20 4 0 22 -34 43 -57 34 -7 -3 -20 2 -28 11 -21 21
-44 20 -67 -1 -17 -15 -18 -15 -18 5 0 39 -59 55 -92 25 -17 -15 -18 -15 -18
9 0 36 -52 55 -86 33 -32 -21 -43 -19 -50 10 -9 36 -76 56 -103 31 -26 -23
-54 -17 -61 13 -7 33 -52 48 -95 32 -46 -16 -55 -14 -55 13 0 19 -8 27 -36 36
-32 11 -39 10 -64 -8 -32 -24 -40 -20 -40 19 0 23 -5 29 -31 34 -24 5 -36 2
-53 -14 -28 -27 -34 -26 -38 1 -4 32 -51 47 -76 25 -23 -21 -32 -21 -32 -3 0
39 -90 66 -104 31 -9 -25 -36 -18 -36 9 0 19 -8 27 -36 36 -32 11 -38 10 -58
-9 -31 -29 -46 -26 -46 8 0 17 -6 31 -16 35 -27 11 -61 6 -74 -9 -20 -24 -50
-19 -50 8 0 49 -56 64 -96 26 -28 -26 -54 -19 -54 15 0 40 -64 51 -95 16 -21
-24 -35 -18 -35 16 0 41 -52 51 -92 17 -15 -13 -17 -12 -20 13 -2 20 -11 30
-32 37 -26 9 -32 7 -48 -17 -26 -35 -38 -33 -38 8 0 26 -5 35 -22 40 -35 9
-37 8 -63 -20 -27 -29 -45 -25 -45 10 0 31 -18 46 -57 46 -22 0 -36 -6 -43
-20 -16 -31 -40 -25 -40 10 0 51 -56 67 -92 25 -28 -32 -38 -32 -38 3 0 37
-17 52 -57 52 -25 0 -36 -6 -47 -27 -15 -30 -22 -23 -28 27 -3 21 -9 26 -39
28 -30 3 -41 -2 -58 -24 l-21 -27 0 30 c0 38 -16 53 -56 53 -23 0 -38 -8 -54
-27 l-21 -28 5 32 c4 26 1 35 -15 44 -29 15 -65 4 -74 -23 -7 -21 -8 -20 -12
9 -3 26 -10 34 -40 44 -35 11 -37 10 -64 -22 l-27 -34 -4 39 c-3 34 -7 41 -31
47 -25 7 -31 4 -48 -24 l-19 -32 0 31 c0 34 -13 44 -55 44 -15 0 -29 -9 -37
-22 -12 -23 -12 -23 -18 6 -3 21 -14 33 -37 43 -31 12 -34 11 -64 -20 l-31
-32 4 33 c5 35 -3 44 -55 56 -24 6 -30 2 -45 -24 -24 -42 -42 -38 -42 9 0 39
-1 40 -42 49 -45 10 -53 6 -85 -44 -11 -17 -12 -14 -11 18 2 45 3 44 -44 53
-33 6 -38 4 -52 -22 l-15 -28 -1 31 c0 53 -50 61 -79 12 l-20 -31 -3 38 c-3
33 -7 40 -33 47 -26 7 -33 4 -57 -23 l-27 -32 -3 34 c-3 28 -8 34 -38 42 -31
8 -37 6 -57 -18 l-23 -26 0 24 c0 29 -15 42 -53 49 -22 4 -33 -1 -53 -26 l-25
-31 3 34 c3 33 1 35 -36 44 -38 9 -41 8 -68 -24 l-28 -33 0 36 c0 34 -3 38
-35 44 -37 7 -65 -7 -65 -32 0 -7 -5 -16 -12 -20 -7 -4 -8 -3 -4 5 5 7 5 23 2
35 -10 42 -88 46 -101 5 -9 -27 -25 -24 -25 6 0 45 -76 47 -88 2 -6 -20 -7
-20 -12 8 -5 27 -9 30 -46 33 -35 3 -44 -1 -60 -25 l-18 -28 -6 30 c-5 27 -9
30 -48 33 -33 3 -44 -1 -49 -15 -6 -16 -8 -15 -13 7 -5 20 -13 26 -43 28 -28
2 -39 -1 -44 -15 -6 -16 -8 -15 -13 7 -5 20 -13 26 -40 28 -23 2 -38 -2 -46
-12 -10 -15 -12 -14 -17 4 -8 29 -69 28 -90 -2 l-16 -23 2 24 c3 33 -50 56
-66 30 -9 -14 -12 -14 -29 3 -18 18 -68 25 -68 10 0 -5 -7 -17 -16 -28 -15
-19 -15 -19 -9 2 14 52 -88 77 -110 27 -9 -21 -10 -21 -20 10 -8 24 -18 33
-42 38 -36 7 -44 3 -60 -31 -11 -24 -12 -24 -12 12 -1 35 -3 38 -38 44 -29 5
-39 3 -50 -11 -12 -17 -13 -17 -13 -2 0 19 -37 37 -76 37 -19 0 -29 -8 -39
-32 l-14 -33 -1 36 c0 40 -14 49 -78 49 -28 0 -35 -5 -47 -32 l-14 -33 -1 37
c0 42 -1 43 -57 53 -41 6 -42 6 -62 -32 l-21 -38 6 39 c8 45 -3 56 -59 56 -35
0 -39 -3 -57 -42 l-20 -43 0 48 c0 42 -3 49 -26 57 -45 18 -63 12 -84 -27
l-20 -38 2 38 c3 45 -12 58 -61 55 -30 -3 -36 -7 -47 -43 l-12 -40 -1 46 c-1
51 -10 59 -66 59 -37 0 -42 -5 -67 -65 l-17 -40 6 52 c6 50 5 53 -22 63 -50
19 -66 10 -89 -50 l-21 -55 -3 61 c-3 61 -3 62 -35 66 -54 6 -65 -1 -86 -55
l-20 -52 0 45 c-1 25 -8 56 -17 68 -13 19 -23 23 -62 20 -44 -3 -48 -6 -67
-43 l-20 -40 -3 50 c-2 27 -9 53 -15 57 -7 4 -33 8 -59 8 l-47 0 -16 -55 c-9
-30 -18 -55 -21 -55 -2 0 -1 27 3 59 6 58 5 60 -19 66 -58 15 -81 3 -110 -55
l-27 -55 -1 62 c0 57 -2 63 -24 69 -13 3 -38 4 -57 2 -27 -2 -38 -10 -52 -38
l-19 -35 6 32 c7 41 -14 63 -58 63 -45 0 -63 -17 -85 -80 l-18 -55 -8 67 c-4
37 -12 71 -19 76 -19 15 -95 23 -116 12 -12 -6 -23 -31 -32 -67 l-13 -58 -7
54 c-11 69 -21 81 -73 81 -51 0 -62 -12 -81 -82 l-13 -53 3 56 c2 31 0 62 -4
69 -10 16 -106 18 -122 2 -6 -6 -16 -34 -23 -64 l-13 -53 -1 52 c-1 65 -18 83
-76 83 -53 0 -69 -19 -80 -92 -9 -65 -25 -61 -25 6 0 66 -16 86 -69 86 -48 0
-57 -11 -67 -80 l-8 -55 -7 54 c-4 29 -11 57 -16 61 -14 14 -77 21 -94 10z"/>
</g>
</svg>
