<?xml version="1.0" standalone="no"?>
<!DOCTYPE svg PUBLIC "-//W3C//DTD SVG 20010904//EN"
 "http://www.w3.org/TR/2001/REC-SVG-20010904/DTD/svg10.dtd">
<svg version="1.0" xmlns="http://www.w3.org/2000/svg"
 width="1536.000000pt" height="179.000000pt" viewBox="0 0 1536.000000 179.000000"
 preserveAspectRatio="xMidYMid meet">
<metadata>
Created by potrace 1.16, written by Peter Selinger 2001-2019
</metadata>
<g transform="translate(0.000000,179.000000) scale(0.100000,-0.100000)"
fill="#000000" stroke="none">
<path d="M3770 1784 c-152 -19 -471 -92 -713 -165 -193 -58 -323 -109 -592
-237 -302 -142 -834 -378 -1030 -457 -312 -125 -402 -152 -547 -164 -157 -13
-245 -40 -438 -133 -80 -38 -208 -95 -285 -125 -77 -30 -146 -60 -152 -65 -40
-32 9 -95 83 -109 56 -11 68 -9 354 46 124 24 261 49 305 55 176 24 186 28
270 85 65 44 127 72 330 149 451 170 774 295 1150 446 429 173 531 205 830
265 407 82 611 98 900 71 301 -28 385 -49 710 -171 216 -81 349 -123 555 -175
647 -162 1001 -177 1780 -74 107 14 234 34 282 45 152 33 156 32 288 -71 130
-102 211 -145 355 -189 l100 -31 66 -78 c89 -103 425 -461 469 -499 56 -47
118 -86 229 -144 91 -48 111 -54 175 -57 114 -6 179 11 267 69 104 68 108 78
52 141 -49 53 -97 74 -228 98 l-106 19 -222 144 c-122 79 -238 153 -258 165
-19 12 -44 31 -55 43 -19 22 -19 22 6 16 46 -11 1259 11 1490 27 163 12 307
30 525 66 165 27 372 60 460 73 l160 24 30 -27 c17 -15 73 -59 125 -98 52 -39
142 -108 200 -152 114 -88 273 -172 405 -215 116 -38 314 -61 388 -45 66 13
94 42 83 85 -8 32 -126 152 -184 189 -24 15 -98 52 -164 83 -67 30 -174 85
-237 121 -147 83 -205 107 -317 127 -49 10 -93 19 -97 22 -15 9 338 172 427
198 49 14 142 30 206 36 170 15 919 6 1595 -19 816 -31 908 -36 1223 -73 322
-37 335 -36 340 24 3 37 2 38 -50 62 -31 14 -115 35 -198 50 -893 156 -1184
197 -1985 274 -394 38 -1585 126 -2110 156 -841 47 -2140 63 -2485 30 -275
-27 -445 -54 -660 -105 -269 -65 -883 -176 -1085 -197 -198 -20 -623 -23 -785
-5 -254 29 -400 59 -744 153 -322 88 -707 185 -816 204 -71 13 -163 18 -365
20 -148 2 -286 1 -305 -1z"/>
</g>
</svg>
