<?xml version="1.0" standalone="no"?>
<!DOCTYPE svg PUBLIC "-//W3C//DTD SVG 20010904//EN"
 "http://www.w3.org/TR/2001/REC-SVG-20010904/DTD/svg10.dtd">
<svg version="1.0" xmlns="http://www.w3.org/2000/svg"
 width="3256.000000pt" height="1784.000000pt" viewBox="0 0 3256.000000 1784.000000"
 preserveAspectRatio="xMidYMid meet">
<metadata>
Created by potrace 1.16, written by Peter Selinger 2001-2019
</metadata>
<g transform="translate(0.000000,1784.000000) scale(0.100000,-0.100000)"
fill="#000000" stroke="none">
<path d="M3916 17733 c3 -16 29 -75 58 -133 29 -58 56 -118 60 -135 4 -16 29
-91 56 -165 48 -135 142 -481 155 -574 4 -28 15 -72 26 -98 10 -27 19 -50 19
-52 0 -2 -16 -7 -35 -10 -19 -4 -69 -24 -112 -45 -43 -21 -98 -44 -123 -50
-61 -17 -343 -156 -459 -226 -51 -31 -114 -62 -140 -69 -25 -6 -75 -31 -111
-55 -35 -24 -78 -45 -94 -47 -36 -4 -80 -33 -193 -126 -48 -41 -101 -80 -117
-88 -15 -8 -99 -88 -185 -179 -86 -90 -170 -170 -188 -177 -17 -7 -68 -41
-112 -75 -45 -33 -100 -71 -121 -83 -22 -11 -66 -42 -97 -68 -115 -94 -289
-225 -335 -251 -25 -15 -62 -45 -81 -68 -20 -23 -40 -38 -45 -35 -14 9 -80
-49 -163 -141 -41 -46 -82 -83 -92 -83 -23 0 -107 -79 -165 -155 -25 -33 -69
-85 -96 -116 -28 -31 -65 -80 -82 -110 -106 -183 -160 -269 -169 -269 -17 0
-58 -48 -101 -115 -40 -63 -113 -156 -326 -413 -29 -34 -59 -74 -66 -88 -8
-14 -35 -47 -60 -73 -26 -25 -67 -73 -92 -106 -24 -33 -63 -80 -86 -105 -93
-101 -151 -197 -190 -312 -41 -125 -41 -136 7 -261 l31 -84 -26 -66 c-14 -36
-26 -83 -25 -104 1 -34 3 -30 26 42 13 44 28 84 32 88 5 4 21 -16 36 -46 l29
-54 -22 -51 c-25 -58 -26 -62 -11 -62 5 0 17 17 26 38 l16 37 13 -37 c11 -32
10 -52 -9 -151 -18 -98 -18 -162 -1 -145 2 3 12 52 20 109 9 57 17 105 19 107
2 2 15 -4 29 -13 24 -16 46 -16 90 1 14 5 16 -6 17 -82 0 -49 4 -98 9 -109 5
-13 9 22 9 97 l1 117 30 16 c39 20 42 19 62 -15 20 -36 34 -37 79 -7 19 12 44
23 57 24 12 1 37 12 54 25 18 12 40 21 50 20 9 -2 31 4 49 13 29 16 31 19 26
60 l-4 44 106 34 c100 32 107 33 126 17 39 -32 192 -103 208 -97 26 10 20 43
-13 80 -38 44 -38 50 2 42 103 -23 178 -91 239 -217 27 -57 29 -69 24 -128 -6
-59 -20 -120 -47 -208 -9 -30 -13 -33 -39 -27 -23 5 -34 1 -54 -21 -14 -15
-25 -35 -25 -44 0 -10 -7 -20 -15 -24 -8 -3 -21 -18 -27 -33 -7 -15 -22 -37
-35 -48 -20 -18 -21 -23 -10 -45 8 -15 29 -31 55 -40 31 -11 41 -18 36 -30 -4
-8 -9 -38 -11 -65 -7 -71 14 -88 101 -86 72 1 70 4 82 -82 3 -26 11 -50 17
-54 6 -4 8 2 4 18 -4 13 -10 48 -13 77 -7 51 -6 52 19 52 22 0 28 -6 37 -40 5
-22 15 -59 21 -82 26 -102 78 -204 79 -155 0 6 14 -13 31 -43 30 -56 55 -87
63 -79 2 2 -18 41 -44 86 -44 76 -104 234 -112 293 -2 20 2 26 20 28 18 3 25
-4 38 -35 33 -80 75 -166 79 -161 3 2 -13 46 -35 97 -22 51 -40 94 -40 97 0 2
7 4 15 4 9 0 21 -12 27 -27 73 -177 167 -336 248 -423 23 -25 35 -34 26 -20
-9 14 -45 68 -80 120 -70 104 -186 327 -186 356 0 2 10 4 23 4 17 0 37 -23 88
-103 37 -56 88 -142 115 -191 26 -49 50 -84 52 -78 5 15 -71 158 -143 268 -30
47 -56 90 -58 96 -1 6 12 14 30 18 31 7 33 6 77 -71 27 -46 83 -117 137 -173
94 -99 137 -129 76 -53 -76 92 -179 309 -157 331 13 13 32 -5 70 -65 18 -27
34 -49 36 -49 11 0 1 23 -31 71 -37 54 -37 64 5 73 23 6 29 -1 68 -72 49 -89
122 -186 153 -203 27 -14 23 -8 -47 83 -51 67 -124 187 -124 206 0 5 8 12 18
15 9 2 24 8 32 11 11 5 30 -12 64 -59 26 -36 49 -65 52 -65 11 0 0 21 -41 78
l-45 62 25 6 c14 4 27 5 29 3 2 -2 20 -33 40 -69 44 -76 86 -133 93 -127 2 3
-11 27 -30 54 -54 76 -89 141 -82 153 15 24 36 4 80 -76 26 -47 49 -83 52 -80
3 3 -15 43 -41 90 -43 81 -45 86 -27 96 11 5 24 10 30 10 5 0 32 -48 60 -106
28 -59 74 -137 102 -175 55 -75 197 -213 251 -243 18 -11 -20 31 -85 94 -65
62 -138 141 -162 174 -43 61 -135 239 -135 262 0 10 23 21 54 24 5 1 19 -24
31 -55 23 -55 44 -89 52 -82 2 2 -10 33 -27 68 -16 35 -30 71 -30 79 0 13 59
56 65 48 1 -2 26 -63 55 -137 30 -74 56 -129 57 -124 2 6 -5 32 -16 59 -94
238 -89 220 -61 229 11 3 42 23 70 43 135 99 172 123 257 166 51 26 95 51 99
57 3 6 37 31 75 55 37 25 72 50 76 57 10 17 116 81 180 109 26 11 64 34 83 50
57 48 269 180 360 225 47 23 101 56 120 73 19 18 58 47 85 65 59 38 89 70 81
84 -8 13 18 27 107 57 39 13 80 33 92 44 11 10 51 26 89 35 38 9 75 22 82 30
7 7 32 16 54 20 23 4 53 18 67 31 20 18 37 24 73 24 25 0 55 7 66 15 13 10 45
14 100 15 57 0 85 4 93 14 9 10 21 12 49 5 62 -14 98 -11 113 11 12 17 19 18
63 10 40 -8 54 -7 74 6 22 14 28 14 72 0 65 -21 97 -20 110 4 10 18 13 18 92
-20 45 -22 93 -40 105 -40 13 0 37 -7 53 -15 25 -13 70 -31 202 -81 20 -7 61
-29 90 -47 67 -44 211 -117 228 -117 7 0 46 -22 86 -49 103 -70 109 -73 136
-60 21 9 37 2 128 -56 113 -71 144 -84 169 -68 13 8 36 -1 101 -38 47 -27 107
-56 134 -64 27 -8 77 -31 112 -50 92 -51 168 -77 187 -62 8 7 16 17 18 23 3 7
38 -8 89 -37 47 -26 95 -48 108 -48 13 -1 90 -37 172 -81 192 -102 206 -108
271 -106 45 2 68 -5 139 -40 47 -23 108 -49 136 -57 27 -8 73 -29 102 -46 58
-37 110 -48 140 -32 17 9 32 5 87 -25 37 -19 77 -42 90 -50 36 -23 62 -100 75
-214 14 -137 40 -299 52 -330 9 -23 66 -228 103 -373 16 -64 48 -131 75 -162
10 -12 27 -66 39 -130 28 -142 48 -203 71 -215 12 -6 25 -39 40 -99 12 -50 28
-95 36 -102 8 -6 14 -20 14 -30 0 -11 15 -59 34 -107 41 -106 51 -140 66 -216
7 -33 21 -76 31 -96 11 -21 27 -93 38 -169 11 -73 24 -138 29 -144 10 -12 55
-180 66 -246 16 -89 81 -287 103 -307 17 -16 26 -43 38 -125 12 -72 23 -110
36 -125 15 -16 24 -55 39 -175 10 -85 23 -179 29 -209 5 -30 10 -80 10 -110 1
-35 9 -71 21 -95 11 -22 20 -48 20 -58 0 -10 7 -31 15 -46 15 -31 20 -117 10
-196 -5 -36 -18 -64 -44 -100 -47 -62 -70 -106 -64 -123 3 -6 -7 -26 -22 -44
-18 -21 -25 -38 -21 -53 5 -18 -6 -33 -55 -75 -34 -30 -68 -69 -76 -87 -7 -19
-58 -78 -113 -133 -55 -54 -110 -114 -123 -133 -13 -19 -54 -68 -92 -110 -38
-42 -73 -90 -79 -106 -6 -17 -72 -95 -147 -173 -74 -79 -153 -168 -174 -198
-43 -62 -170 -215 -185 -225 -27 -17 -111 -129 -106 -142 5 -13 -21 -47 -268
-338 -47 -55 -98 -122 -112 -150 -15 -27 -53 -81 -85 -120 -31 -38 -69 -92
-84 -120 -90 -164 -106 -200 -102 -224 4 -19 -13 -53 -66 -136 -49 -74 -72
-120 -73 -142 -1 -18 -8 -43 -17 -56 -27 -42 -199 -390 -218 -442 -10 -27 -29
-81 -43 -120 -14 -38 -23 -80 -20 -91 3 -13 -8 -49 -31 -93 -20 -40 -40 -91
-45 -114 -4 -23 -38 -114 -74 -202 l-65 -160 1 -115 c1 -63 -2 -142 -6 -175
-19 -155 -29 -209 -47 -248 -20 -46 -25 -97 -9 -113 7 -7 2 -47 -15 -124 -14
-62 -25 -126 -25 -142 0 -42 -72 -360 -142 -623 -102 -390 -214 -605 -381
-733 -89 -68 -137 -120 -160 -171 -11 -25 -84 -118 -164 -210 -156 -178 -180
-214 -169 -255 8 -31 59 -66 96 -66 34 0 329 106 351 126 10 9 19 28 21 42 3
24 7 26 59 26 53 1 60 5 163 79 105 76 110 78 177 84 47 4 78 12 95 25 31 25
84 102 93 136 9 32 58 68 113 82 80 22 138 106 138 201 0 21 12 70 26 109 21
55 33 74 56 86 27 14 31 14 42 -2 8 -10 20 -15 29 -11 19 7 52 68 62 117 4 19
18 47 30 62 13 15 31 51 40 80 10 29 25 62 35 73 27 31 29 39 51 135 14 68 26
97 44 113 21 19 28 46 55 192 16 94 30 187 30 208 0 33 3 37 25 37 34 0 60 45
81 140 9 41 29 109 44 150 15 41 34 95 41 119 8 25 20 46 30 48 19 5 31 32 50
103 6 25 16 51 22 58 15 17 84 143 130 239 19 39 45 76 57 83 12 6 39 39 61
73 23 35 49 64 62 67 11 3 37 29 57 57 19 28 47 62 60 75 14 13 36 40 49 61
16 26 30 37 46 37 25 0 48 24 80 83 13 25 27 37 41 37 24 0 49 24 59 60 13 44
67 131 79 127 23 -9 48 16 76 76 17 34 37 62 46 63 22 3 58 38 80 79 11 21 27
35 44 38 20 5 45 34 110 131 45 69 86 126 91 126 4 0 41 43 81 97 40 53 84
111 98 129 14 18 37 38 51 43 16 5 54 46 94 99 37 50 72 89 79 86 17 -7 42 15
79 68 68 99 112 147 134 147 15 1 43 26 89 83 36 46 78 88 93 94 15 6 62 52
104 102 42 49 87 92 100 96 13 3 46 34 74 68 63 77 197 208 213 208 6 0 40 27
75 61 57 54 66 59 85 49 35 -19 71 3 172 109 139 144 197 191 235 191 23 0 50
14 95 48 117 88 355 242 374 242 11 0 62 31 114 69 121 89 267 191 273 191 2
0 7 -22 11 -50 4 -31 13 -54 25 -62 18 -13 22 -30 41 -168 12 -98 29 -170 45
-195 7 -11 15 -56 20 -100 11 -120 21 -164 43 -188 15 -17 21 -42 26 -116 4
-66 11 -100 22 -112 11 -13 21 -57 30 -141 21 -188 33 -233 65 -243 10 -4 21
-16 23 -28 22 -106 43 -179 67 -223 22 -42 30 -78 40 -170 9 -81 17 -122 29
-134 8 -8 29 -70 45 -135 16 -66 33 -126 39 -134 6 -8 21 -68 32 -135 12 -67
34 -152 48 -189 14 -38 32 -96 40 -130 41 -184 59 -243 77 -259 12 -10 27 -50
40 -107 14 -60 27 -96 39 -104 21 -14 77 -163 105 -276 15 -61 23 -76 47 -91
37 -22 62 -79 128 -285 81 -256 139 -392 184 -434 17 -16 36 -58 57 -120 36
-112 75 -188 100 -196 9 -3 22 -12 28 -19 6 -7 103 -332 215 -722 113 -390
212 -730 222 -756 13 -38 15 -65 9 -132 -6 -72 -12 -93 -40 -138 -19 -29 -43
-70 -54 -90 -12 -20 -36 -49 -55 -64 -39 -32 -120 -64 -159 -64 -24 0 -264
-95 -384 -152 -24 -11 -60 -41 -83 -70 -33 -42 -40 -58 -40 -95 0 -53 33 -93
77 -93 116 2 545 39 557 49 8 7 25 9 40 5 16 -4 45 0 69 9 23 8 60 18 82 22
22 4 51 17 65 29 14 13 60 44 102 70 43 26 92 64 109 84 18 20 49 44 70 55 68
34 127 121 179 265 23 66 41 98 60 112 14 10 39 42 55 71 27 50 28 61 33 198
l4 146 -71 357 c-90 451 -230 1431 -207 1453 19 19 13 334 -8 432 -9 41 -13
91 -10 115 4 33 0 56 -19 98 -13 30 -32 89 -41 130 -9 41 -19 83 -22 93 -3 11
0 17 10 17 45 0 34 85 -35 255 -18 44 -31 87 -31 95 5 50 -1 78 -42 200 -25
74 -46 147 -46 162 0 15 -11 56 -24 90 -12 35 -36 107 -51 161 -25 91 -26 99
-11 116 23 26 20 51 -18 150 -19 48 -41 115 -50 147 -9 32 -24 89 -35 126 -17
57 -17 69 -5 79 8 6 14 24 14 40 0 30 -43 153 -61 175 -5 7 -7 24 -3 38 3 14
-1 46 -10 73 -8 26 -27 90 -40 141 -22 83 -23 92 -8 90 27 -5 27 114 -1 249
-23 112 -23 113 -3 133 20 19 20 20 -9 162 -16 79 -30 161 -31 183 -1 22 -10
77 -19 123 -15 69 -16 86 -5 107 11 21 10 35 -8 97 -21 73 -42 194 -42 242 0
19 5 26 20 26 31 0 39 27 24 84 -16 58 -18 90 -6 82 15 -9 35 12 35 38 0 14
-9 65 -18 111 -18 83 -18 86 0 99 22 16 22 51 1 153 -14 66 -14 75 1 101 15
26 15 35 2 88 -10 40 -11 68 -5 85 6 18 4 59 -6 123 -11 77 -12 99 -2 107 20
17 26 64 14 110 -9 32 -9 48 1 65 6 12 9 32 6 43 -3 11 1 25 9 32 22 18 16 53
-17 95 -26 33 -30 45 -26 77 5 33 -1 49 -39 107 -29 46 -64 82 -104 112 -33
23 -62 50 -65 59 -3 9 -43 48 -90 88 -59 50 -85 79 -85 94 0 36 -23 60 -134
141 -102 74 -116 90 -116 125 0 10 -16 38 -34 62 -19 24 -34 44 -33 45 1 2 29
-4 62 -12 33 -8 83 -16 110 -18 28 -2 104 -20 170 -40 88 -27 125 -35 140 -28
15 7 47 1 120 -24 114 -38 131 -40 156 -18 16 14 22 14 72 0 69 -20 86 -20
108 0 15 14 27 13 123 -5 132 -26 171 -26 194 -3 18 18 23 18 133 2 71 -11
121 -14 132 -8 11 6 42 2 90 -11 105 -29 189 -36 221 -19 24 12 39 12 114 -4
48 -9 116 -17 150 -18 35 0 98 -9 140 -19 43 -11 100 -22 129 -26 47 -6 55 -4
78 19 21 21 29 24 51 15 15 -5 36 -6 48 -2 11 4 44 9 71 10 28 1 61 3 75 3 14
1 75 -2 136 -6 72 -4 117 -3 130 4 14 7 48 8 110 1 255 -26 284 -24 284 26 l0
23 113 -5 c110 -6 114 -5 130 17 15 22 17 22 115 11 54 -7 116 -9 138 -6 21 3
93 9 158 14 101 8 122 12 135 29 22 28 73 34 182 22 110 -11 160 -4 174 27 9
21 17 22 180 27 295 9 451 20 468 34 8 7 47 16 86 21 47 5 77 13 92 27 19 17
39 19 198 22 101 2 181 8 189 14 6 6 12 23 12 38 l0 28 118 11 c231 24 256 28
275 52 17 21 22 22 105 14 48 -4 107 -8 132 -9 44 -1 45 0 44 30 l-2 31 139 5
c110 4 144 9 165 23 24 15 41 17 130 11 97 -6 104 -5 114 14 10 18 20 20 130
20 131 0 165 8 175 41 7 21 11 22 91 15 57 -4 85 -3 90 5 5 8 31 10 85 5 75
-6 78 -6 98 20 12 15 21 33 21 40 0 8 11 14 25 14 14 0 36 6 48 14 14 9 68 16
147 21 91 5 130 11 142 22 14 12 33 15 82 11 48 -4 71 -2 86 9 16 12 41 13
118 8 53 -4 129 -8 167 -10 39 -1 109 -6 158 -10 73 -7 90 -5 105 8 15 14 26
13 117 -9 109 -27 140 -25 150 7 7 22 9 22 130 -7 33 -8 76 -14 95 -13 19 1
55 -6 79 -15 24 -9 52 -14 62 -11 22 7 39 -45 39 -122 0 -28 5 -55 10 -58 10
-6 13 -66 9 -190 -2 -33 -2 -72 -1 -87 1 -16 3 -40 4 -55 1 -16 -2 -84 -5
-153 -22 -410 -19 -512 18 -579 8 -14 19 -46 26 -70 6 -25 23 -56 38 -70 18
-17 32 -45 40 -78 7 -29 22 -64 32 -78 11 -13 27 -47 35 -74 8 -28 23 -56 32
-63 10 -7 28 -42 41 -78 13 -36 32 -81 43 -100 11 -19 29 -68 40 -109 10 -41
25 -86 32 -100 7 -14 18 -54 25 -88 26 -134 91 -376 111 -408 12 -19 20 -50
20 -76 0 -57 19 -214 31 -262 7 -25 18 -41 33 -47 19 -7 24 -18 29 -62 4 -29
7 -68 7 -87 0 -71 22 -162 46 -191 17 -20 32 -63 50 -146 14 -64 37 -146 50
-181 13 -35 24 -85 24 -111 0 -26 4 -74 10 -106 8 -53 17 -69 42 -78 4 -2 12
-34 17 -71 5 -38 16 -74 24 -80 9 -7 23 -66 37 -147 12 -74 27 -141 33 -148 9
-11 34 -98 78 -272 23 -94 81 -276 93 -295 7 -11 18 -65 25 -119 11 -98 22
-126 46 -126 8 0 14 -32 18 -103 4 -56 11 -117 17 -134 11 -31 34 -48 51 -37
5 3 9 -27 9 -69 0 -103 8 -137 36 -147 19 -8 23 -19 29 -77 9 -80 20 -113 37
-113 10 0 13 -22 13 -82 0 -78 1 -83 23 -86 14 -2 22 -10 22 -23 0 -74 23
-366 30 -385 5 -13 16 -24 25 -24 10 0 15 -10 15 -33 0 -18 7 -42 15 -53 9
-12 14 -43 15 -89 0 -39 5 -76 10 -81 7 -7 7 -28 -1 -65 -6 -30 -14 -72 -18
-94 -5 -22 -15 -57 -24 -79 -10 -21 -17 -45 -17 -54 0 -8 -25 -45 -56 -83 -30
-37 -60 -84 -65 -103 -6 -22 -24 -46 -46 -63 -61 -46 -93 -84 -93 -109 0 -13
-4 -24 -8 -24 -5 0 -36 -26 -69 -57 -32 -32 -74 -70 -91 -86 -18 -15 -32 -33
-32 -41 0 -7 -26 -35 -57 -62 -32 -26 -70 -59 -84 -73 -14 -14 -53 -50 -87
-79 -36 -31 -62 -61 -62 -72 0 -12 -33 -47 -87 -92 -166 -140 -218 -190 -223
-216 -3 -18 -31 -47 -85 -90 -149 -119 -245 -212 -245 -236 0 -15 -18 -39 -52
-70 -29 -26 -73 -67 -98 -91 -49 -47 -168 -142 -240 -192 -25 -17 -81 -62
-125 -100 -44 -38 -114 -95 -155 -125 -137 -102 -193 -153 -230 -205 -33 -48
-124 -136 -174 -168 -11 -7 -138 -62 -281 -120 -143 -59 -278 -116 -299 -126
-22 -10 -44 -19 -48 -19 -5 0 -79 -30 -166 -67 -172 -72 -319 -162 -328 -199
-8 -31 3 -62 27 -74 20 -11 336 -17 740 -13 214 2 238 4 260 21 13 11 47 21
76 24 37 4 71 17 120 46 46 28 86 44 118 48 28 3 64 11 80 17 32 12 115 70
161 112 37 35 169 95 206 95 21 0 41 11 64 34 23 23 35 29 38 20 14 -36 48
-11 140 103 139 171 129 162 160 156 24 -5 36 4 93 66 51 55 72 71 94 71 21 0
39 14 79 62 110 132 147 167 167 162 15 -4 47 22 133 110 84 86 118 115 132
110 12 -4 34 12 75 53 32 32 119 120 193 196 74 75 142 137 150 137 9 0 45 29
80 65 44 45 71 64 83 61 12 -3 28 9 49 35 17 21 36 39 42 39 7 0 41 29 76 65
35 36 72 65 81 65 9 0 45 32 79 70 34 39 67 70 72 70 6 0 34 21 62 48 29 26
88 74 132 106 43 33 111 90 149 127 39 37 82 69 97 73 29 7 329 291 369 351
13 19 31 37 40 40 8 3 39 38 69 78 111 149 122 162 143 173 11 7 40 45 63 85
22 40 47 76 55 80 52 23 54 26 61 85 8 74 33 203 41 210 5 6 -55 190 -73 224
-5 9 -4 23 1 33 8 13 3 35 -16 83 -14 36 -28 78 -30 93 -2 16 -17 55 -34 87
-35 69 -48 114 -32 114 5 0 15 9 21 19 8 15 2 43 -23 120 l-33 100 23 -5 c20
-5 23 -2 23 22 0 16 -12 56 -26 89 -75 175 -95 230 -91 246 3 10 -6 48 -19 85
-23 62 -23 68 -8 85 14 15 14 25 5 71 -7 29 -23 84 -37 123 -21 59 -23 73 -13
93 11 19 10 46 -5 150 -10 70 -25 140 -33 155 -13 26 -13 31 1 46 22 24 21 33
-19 157 -36 112 -43 158 -25 169 12 8 5 82 -16 166 -19 77 -19 159 1 159 29 0
36 35 20 112 -21 97 -18 475 4 498 11 11 12 34 8 100 -4 58 -3 90 5 98 6 6 14
75 19 154 5 79 11 159 14 178 26 168 29 180 42 180 18 0 33 41 33 93 0 23 7
51 15 61 8 11 18 41 21 68 7 48 25 75 44 63 5 -3 10 -14 10 -23 0 -10 6 -26
13 -37 7 -11 19 -40 26 -65 7 -25 17 -49 21 -55 4 -5 11 -39 14 -75 4 -36 13
-74 21 -86 7 -12 17 -37 20 -57 4 -19 15 -44 24 -54 10 -10 22 -36 28 -58 28
-103 53 -151 103 -202 29 -29 58 -53 66 -53 8 0 32 -16 54 -37 29 -25 51 -37
74 -37 20 -1 46 -12 65 -29 38 -31 41 -32 66 -13 18 13 24 11 65 -19 65 -47
104 -65 142 -65 23 0 47 -11 77 -35 25 -20 56 -38 70 -42 14 -3 42 -19 60 -36
19 -16 55 -39 79 -49 24 -11 77 -49 118 -84 106 -93 183 -144 215 -144 15 0
31 -5 34 -10 4 -6 34 -33 67 -61 51 -42 66 -50 90 -45 30 6 53 -8 203 -120 86
-65 157 -98 192 -89 22 5 36 -4 98 -65 71 -68 81 -74 118 -71 10 2 62 -40 121
-95 107 -99 178 -154 203 -154 7 0 22 9 33 20 18 18 23 19 48 6 54 -28 238
-165 304 -226 65 -59 70 -61 107 -55 48 8 87 -10 191 -90 41 -31 86 -59 99
-62 14 -3 56 -30 95 -60 52 -40 75 -53 92 -49 24 6 72 -20 259 -143 109 -73
120 -77 144 -62 9 6 30 -2 65 -24 72 -46 203 -110 256 -126 25 -7 78 -33 118
-56 98 -58 191 -104 227 -114 71 -18 214 -85 255 -118 87 -72 190 -141 208
-141 10 0 34 -16 53 -36 18 -20 50 -44 69 -54 20 -10 74 -54 120 -97 47 -43
118 -100 158 -126 39 -27 72 -52 72 -57 0 -4 14 -23 31 -41 18 -19 44 -68 61
-114 16 -44 38 -87 49 -96 19 -14 52 -118 64 -204 32 -218 35 -230 59 -250 25
-20 33 -44 61 -190 24 -121 53 -227 69 -244 23 -26 71 -200 86 -316 14 -98 38
-202 58 -248 10 -23 22 -61 26 -82 4 -22 11 -44 16 -50 4 -5 11 -44 15 -85 3
-41 12 -86 19 -100 8 -14 17 -43 21 -65 4 -22 15 -65 26 -95 19 -55 38 -205
46 -355 2 -44 6 -87 10 -95 3 -8 5 -37 3 -63 -1 -42 1 -49 20 -54 19 -5 20
-10 14 -77 -9 -102 -8 -229 1 -318 8 -83 -4 -133 -63 -253 -29 -59 -304 -337
-339 -342 -68 -11 -320 -147 -440 -237 -59 -45 -68 -56 -66 -81 1 -17 12 -38
24 -48 21 -17 36 -17 178 -10 140 7 314 9 396 3 20 -1 85 26 200 83 152 75
225 107 332 147 44 17 119 99 132 146 6 22 11 57 11 80 0 33 6 46 36 75 89 85
140 201 128 290 -6 44 -3 51 39 111 56 79 91 148 107 215 9 35 17 50 27 46 46
-18 55 64 23 202 -11 48 -18 91 -15 95 3 5 -4 44 -15 86 -11 43 -20 88 -20
100 0 12 -11 61 -25 108 -20 68 -23 90 -14 104 9 15 4 42 -30 140 -36 103 -40
123 -29 141 10 17 8 44 -15 163 -45 239 -63 387 -49 409 7 10 12 31 12 46 0
39 -55 301 -80 381 -16 49 -20 81 -15 117 4 35 -5 108 -29 248 -20 108 -38
234 -42 280 -3 45 -14 129 -25 187 -22 121 -23 141 -8 138 29 -7 31 29 7 129
-23 92 -23 103 -9 117 18 19 18 19 -64 251 -31 88 -65 189 -75 225 -10 36 -23
78 -29 93 -6 16 -11 39 -11 51 0 13 -23 67 -51 120 -29 55 -48 103 -45 112 3
9 -10 44 -29 79 -21 37 -33 69 -29 79 4 10 -7 33 -29 62 -28 36 -35 52 -31 74
7 30 -19 55 -94 88 -22 10 -51 31 -65 47 -14 17 -62 53 -108 80 -46 28 -97 64
-114 81 -35 36 -105 74 -195 104 -124 42 -294 144 -303 183 -4 15 -23 31 -54
46 -91 44 -270 165 -279 189 -6 16 -53 50 -138 100 -89 53 -135 86 -146 107
-11 20 -48 48 -118 86 -102 57 -159 97 -222 155 -19 18 -64 52 -100 76 -138
93 -223 159 -249 193 -14 19 -57 60 -96 91 -143 114 -233 203 -228 223 3 13
-28 51 -116 140 -77 78 -121 130 -121 143 0 12 -32 54 -80 104 -44 46 -80 92
-80 101 0 10 -18 45 -39 77 -22 33 -38 63 -35 68 3 5 -8 30 -24 56 -70 109
-112 237 -109 332 1 36 -2 103 -7 150 -8 76 -7 83 7 71 18 -14 57 -6 58 12 0
7 2 75 3 152 1 77 6 179 10 228 8 81 11 87 31 87 13 0 27 6 33 13 6 7 13 157
18 397 7 385 7 385 30 413 28 33 28 33 9 112 -20 83 -20 223 1 246 14 15 13
28 -1 134 -12 84 -13 121 -6 128 17 17 13 74 -13 183 -14 55 -28 125 -31 155
-3 30 -11 84 -16 121 -7 42 -7 73 -1 85 6 12 4 42 -9 93 -10 41 -19 98 -19
125 -1 28 -14 104 -29 170 -24 102 -26 122 -14 136 8 9 11 24 7 35 -5 13 -4
16 4 9 6 -5 24 -43 40 -84 18 -45 39 -79 52 -86 21 -11 61 -91 126 -255 53
-131 77 -182 100 -210 11 -14 34 -63 50 -109 21 -61 36 -89 57 -105 20 -15 62
-89 143 -254 146 -297 427 -793 485 -857 74 -81 101 -117 152 -200 163 -266
487 -713 543 -749 14 -10 31 -15 38 -13 8 3 38 -19 67 -49 99 -101 212 -160
234 -124 3 6 44 -21 91 -60 85 -70 120 -88 150 -76 9 3 44 -7 78 -24 33 -16
84 -34 111 -39 28 -5 68 -17 89 -26 66 -28 481 -143 591 -165 167 -32 305 -41
461 -31 153 11 183 18 215 55 13 15 37 27 63 31 22 4 59 15 81 25 22 10 63 21
90 24 55 7 98 44 93 81 -3 18 -12 20 -95 23 -76 2 -91 5 -86 17 9 25 -15 43
-65 49 -216 25 -312 40 -312 47 0 5 4 9 9 9 5 0 13 9 16 20 4 13 15 20 33 20
30 0 60 15 50 25 -4 4 -47 12 -95 19 -64 9 -95 18 -109 32 -11 11 -59 30 -107
43 -58 15 -87 28 -87 37 0 8 -26 26 -57 40 -105 46 -223 118 -223 136 0 10
-12 25 -27 35 -16 9 -41 28 -57 41 -16 13 -52 35 -80 49 -63 32 -60 27 -45 51
18 28 5 41 -94 98 -45 26 -107 68 -137 94 -30 25 -90 73 -134 106 -43 32 -102
76 -130 97 -28 22 -60 45 -71 53 -19 14 -19 16 -2 25 31 18 20 54 -28 90 -48
37 -56 50 -26 42 13 -3 23 2 30 16 13 23 14 22 -93 111 -85 70 -101 93 -84
120 11 18 7 26 -43 77 -50 52 -139 165 -139 177 0 2 10 6 23 8 42 6 33 46 -30
132 l-59 79 22 23 c31 30 22 54 -47 129 -33 34 -59 71 -59 82 0 11 -31 57 -70
104 -48 57 -68 89 -64 101 3 12 -20 60 -65 132 -42 67 -71 125 -71 141 0 14
-13 45 -28 68 -66 97 -105 173 -103 201 1 18 -15 57 -46 110 -120 206 -133
232 -133 261 0 17 -17 60 -41 100 -23 39 -55 97 -71 130 -17 32 -52 90 -79
128 -38 55 -47 75 -43 97 5 23 -10 51 -90 169 -65 96 -96 151 -96 170 0 17
-19 55 -52 102 -29 41 -76 114 -106 162 -29 49 -78 123 -110 165 -31 43 -62
89 -69 104 -7 15 -50 76 -95 135 -46 59 -95 127 -110 149 -52 81 -248 302
-362 410 -82 77 -116 115 -116 131 0 26 -84 113 -181 190 -44 34 -58 51 -54
64 10 29 -9 53 -102 127 -96 76 -196 140 -285 182 -31 15 -71 39 -89 54 -17
15 -59 41 -92 58 -72 36 -133 74 -167 104 -14 12 -92 57 -175 99 -82 43 -167
91 -188 107 -54 43 -253 135 -381 179 -81 27 -112 42 -115 56 -5 28 -21 43
-45 43 -12 0 -49 9 -82 19 -32 11 -91 29 -130 41 -53 15 -73 25 -77 40 -3 11
-11 22 -19 24 -23 8 -332 104 -355 111 -14 4 -23 14 -23 25 0 30 -33 45 -198
93 -90 26 -158 51 -165 61 -17 24 -157 62 -315 88 -98 15 -139 26 -151 40 -32
34 -308 93 -494 105 -83 5 -100 9 -108 25 -6 11 -27 27 -47 35 -38 16 -242 55
-389 75 -70 9 -83 14 -83 29 0 10 -8 23 -18 28 -9 5 -100 19 -202 31 -102 12
-219 31 -260 42 -41 11 -100 22 -130 24 -30 3 -118 12 -195 21 -113 14 -143
21 -155 36 -13 16 -33 20 -110 23 -89 4 -216 17 -302 30 -23 3 -39 12 -43 23
-8 27 -49 41 -118 41 -34 0 -138 7 -232 15 -150 13 -171 17 -185 35 -13 18
-32 22 -145 30 -72 5 -188 10 -260 10 -98 0 -135 4 -149 15 -11 8 -29 15 -41
15 -12 0 -56 9 -98 19 -41 11 -113 22 -158 25 -62 3 -85 9 -92 21 -15 28 -52
34 -284 46 -169 8 -232 14 -244 25 -20 18 -200 34 -386 34 -135 0 -143 1 -143
19 0 11 -5 23 -11 27 -13 7 -207 7 -547 -2 -192 -5 -226 -4 -240 9 -14 13 -54
17 -202 20 -102 2 -192 7 -200 10 -50 18 -233 30 -365 24 -133 -7 -146 -6
-163 11 -24 24 -176 33 -575 37 -214 3 -281 6 -294 17 -12 10 -73 14 -252 16
-130 2 -241 8 -247 13 -6 5 -124 4 -279 -1 -157 -6 -273 -6 -279 -1 -16 13
-349 17 -487 7 -114 -9 -116 -8 -122 13 -6 26 -35 27 -187 6 -58 -8 -136 -15
-175 -15 -38 -1 -105 -7 -148 -14 -73 -12 -79 -11 -88 6 -12 23 -69 24 -190 2
l-89 -16 -19 23 c-18 22 -26 24 -118 23 -54 0 -137 -8 -185 -18 -76 -14 -380
-25 -488 -16 -67 5 -251 -11 -399 -35 -148 -24 -170 -26 -229 -14 -45 8 -101
10 -181 4 -64 -4 -129 -7 -146 -7 -16 1 -51 2 -77 3 -26 1 -89 -6 -140 -14
-167 -28 -262 -39 -353 -42 -49 -1 -137 -12 -194 -24 -73 -15 -107 -19 -115
-11 -17 17 -76 11 -176 -17 -52 -14 -108 -26 -125 -25 -39 1 -162 -25 -234
-50 -93 -32 -333 -79 -348 -67 -9 8 -38 3 -100 -15 -149 -43 -179 -49 -199
-38 -14 8 -51 -1 -147 -33 -93 -31 -139 -42 -165 -38 -20 3 -66 -3 -101 -12
-39 -10 -78 -14 -102 -10 -21 4 -72 1 -113 -6 -58 -9 -82 -9 -103 0 -22 9 -50
8 -123 -2 l-94 -14 -20 25 c-19 24 -22 24 -106 18 -74 -5 -89 -4 -101 10 -11
14 -27 15 -114 9 -86 -6 -103 -4 -114 9 -16 19 -110 21 -216 5 -38 -6 -140
-11 -225 -10 -141 1 -156 3 -170 21 -14 19 -29 19 -348 18 -308 -1 -334 0
-352 17 -18 16 -37 18 -135 17 -106 -2 -115 0 -115 17 0 37 -26 45 -144 44
-62 0 -145 -4 -184 -8 -69 -7 -72 -6 -72 14 0 31 -26 37 -147 30 -72 -4 -115
-3 -128 5 -13 7 -85 11 -195 11 -96 1 -182 5 -190 10 -8 6 -76 9 -152 7 -113
-2 -138 0 -138 12 0 28 -56 39 -160 32 -93 -6 -102 -5 -129 15 -28 20 -38 22
-127 16 -84 -5 -100 -3 -110 11 -11 15 -23 15 -140 2 -71 -7 -185 -12 -254
-10 -272 7 -318 4 -431 -27 l-105 -30 -28 51 c-16 28 -57 94 -91 146 -34 52
-73 115 -85 140 -36 70 -219 291 -364 438 -111 113 -149 144 -252 208 -66 40
-124 74 -128 74 -3 0 -4 -12 0 -27z"/>
</g>
</svg>
