<?xml version="1.0" standalone="no"?>
<!DOCTYPE svg PUBLIC "-//W3C//DTD SVG 20010904//EN"
 "http://www.w3.org/TR/2001/REC-SVG-20010904/DTD/svg10.dtd">
<svg version="1.0" xmlns="http://www.w3.org/2000/svg"
 width="1536.000000pt" height="497.000000pt" viewBox="0 0 1536.000000 497.000000"
 preserveAspectRatio="xMidYMid meet">
<metadata>
Created by potrace 1.16, written by Peter Selinger 2001-2019
</metadata>
<g transform="translate(0.000000,497.000000) scale(0.100000,-0.100000)"
fill="#000000" stroke="none">
<path d="M5462 4954 c-74 -19 -181 -63 -217 -87 -16 -12 -55 -42 -85 -68 -116
-98 -146 -105 -332 -69 -149 28 -286 40 -338 30 -36 -6 -54 -18 -90 -58 -63
-70 -123 -97 -273 -122 -137 -22 -136 -22 -307 25 -87 25 -146 7 -227 -68 -51
-47 -87 -104 -102 -164 -11 -41 -96 -159 -127 -176 -29 -16 -201 83 -228 131
-6 9 -31 66 -58 126 -26 61 -60 122 -75 138 -37 39 -81 38 -127 -3 -67 -58
-105 -174 -141 -429 -21 -151 -52 -265 -81 -300 -13 -15 -42 -35 -64 -44 -43
-17 -183 -36 -271 -36 -45 0 -60 -4 -77 -23 -29 -31 -48 -91 -67 -212 -16
-104 -40 -190 -59 -214 -12 -15 -38 -13 -217 14 -182 28 -219 6 -219 -130 0
-44 -4 -85 -8 -90 -23 -33 -153 -85 -211 -85 -20 0 -62 7 -92 16 -82 25 -133
20 -214 -20 -94 -46 -126 -81 -132 -143 -6 -51 -39 -96 -98 -133 -17 -10 -119
-36 -240 -59 -227 -45 -261 -57 -345 -120 -136 -102 -186 -157 -243 -263 -78
-146 -101 -217 -94 -299 6 -72 37 -170 65 -209 29 -38 73 -52 107 -34 35 18
33 19 37 -13 4 -35 40 -59 118 -79 122 -31 316 9 515 106 85 41 116 63 211
153 134 126 176 152 285 176 46 10 129 31 184 46 206 57 311 36 771 -151 187
-76 196 -84 415 -329 295 -332 337 -409 326 -609 -9 -186 -64 -327 -216 -554
-125 -187 -217 -263 -394 -327 -53 -19 -87 -49 -87 -77 0 -60 299 -98 387 -50
33 18 55 15 125 -18 74 -35 101 -37 145 -10 81 49 235 296 436 700 117 234
118 239 128 475 7 173 22 331 33 342 2 2 32 -29 67 -69 245 -277 300 -380 350
-650 l21 -117 -36 -151 c-20 -83 -46 -174 -57 -201 -26 -60 -86 -115 -171
-157 -35 -17 -72 -38 -83 -46 -20 -16 -20 -16 -1 -31 27 -20 268 -20 391 0 50
8 107 15 127 15 71 0 95 23 114 105 4 17 22 57 41 91 54 98 84 250 122 609 12
105 25 267 31 360 12 202 12 197 57 352 35 120 37 123 67 128 33 5 549 48
1081 91 176 13 385 31 465 39 219 22 198 28 244 -61 99 -194 209 -330 410
-511 78 -69 223 -206 324 -304 159 -155 186 -186 213 -244 29 -61 31 -73 27
-143 -5 -76 -64 -273 -109 -363 -25 -51 -84 -100 -178 -149 -78 -41 -131 -87
-131 -115 0 -32 28 -38 113 -27 45 6 117 14 159 16 98 6 172 37 215 92 17 21
61 89 98 149 37 61 87 135 111 165 98 126 108 199 48 380 -34 103 -38 130 -44
260 -6 114 -14 171 -39 265 -17 66 -31 122 -31 124 0 2 39 -33 88 -76 132
-120 500 -433 557 -474 28 -20 79 -53 115 -75 125 -75 170 -130 170 -208 0
-39 -6 -52 -37 -88 -65 -71 -201 -167 -262 -184 -106 -29 -120 -35 -178 -74
-99 -66 -143 -116 -143 -161 0 -45 24 -51 126 -29 49 10 110 24 136 31 40 11
58 11 105 0 115 -27 155 -26 214 8 50 28 59 30 124 24 84 -7 101 6 114 84 5
35 21 69 53 114 99 138 129 337 72 474 -8 20 -51 97 -95 172 -57 95 -99 182
-140 292 -69 181 -169 386 -240 495 -51 78 -87 106 -155 120 -44 10 -124 62
-124 81 0 26 87 111 205 201 l111 84 67 0 c36 0 146 7 244 16 98 9 257 17 353
17 155 1 207 -4 460 -40 625 -92 793 -101 1458 -85 603 16 1627 47 2151 67
472 18 696 19 757 4 33 -9 53 -22 72 -47 53 -70 136 -152 184 -183 49 -31 54
-32 211 -41 237 -14 512 -6 560 15 46 20 118 79 247 202 52 49 112 104 133
122 43 37 47 62 18 144 -48 141 -116 230 -210 276 -51 26 -64 28 -146 24 -133
-5 -145 -5 -335 4 -174 8 -381 -4 -461 -25 -44 -12 -125 -72 -134 -99 -12 -39
-64 -46 -340 -44 -531 3 -1488 51 -1965 99 -189 19 -207 28 -265 133 -62 114
-108 126 -220 60 -150 -89 -254 -56 -350 110 -25 42 -45 86 -45 98 0 68 -40
70 -167 6 -85 -42 -102 -47 -178 -51 -47 -3 -141 1 -210 7 -254 24 -303 64
-240 199 27 58 31 101 15 133 -17 31 -112 26 -229 -12 -75 -24 -109 -30 -156
-27 -76 5 -108 27 -182 128 -82 110 -130 157 -203 198 -36 20 -128 76 -205
125 -77 50 -264 155 -415 235 -151 80 -289 157 -306 172 -32 27 -157 71 -499
174 -448 135 -732 200 -1210 280 -336 56 -478 75 -675 91 -185 15 -240 24
-293 52 -45 23 -107 84 -107 105 0 59 -42 71 -148 42z"/>
</g>
</svg>
