<?xml version="1.0" standalone="no"?>
<!DOCTYPE svg PUBLIC "-//W3C//DTD SVG 20010904//EN"
 "http://www.w3.org/TR/2001/REC-SVG-20010904/DTD/svg10.dtd">
<svg version="1.0" xmlns="http://www.w3.org/2000/svg"
 width="1536.000000pt" height="963.000000pt" viewBox="0 0 1536.000000 963.000000"
 preserveAspectRatio="xMidYMid meet">
<metadata>
Created by potrace 1.16, written by Peter Selinger 2001-2019
</metadata>
<g transform="translate(0.000000,963.000000) scale(0.100000,-0.100000)"
fill="#000000" stroke="none">
<path d="M1215 9617 c-76 -20 -153 -59 -226 -114 -62 -47 -73 -51 -150 -61
-46 -6 -120 -14 -164 -17 -156 -12 -383 -62 -489 -109 -124 -55 -219 -191
-173 -248 6 -9 34 -18 62 -22 28 -3 68 -9 91 -14 23 -5 65 -5 95 0 161 25 291
20 494 -22 238 -49 346 -119 374 -241 18 -80 21 -452 4 -574 -19 -142 -73
-350 -168 -650 -110 -346 -146 -491 -146 -595 1 -161 66 -330 190 -493 32 -42
53 -83 65 -127 32 -113 114 -338 146 -398 54 -101 140 -203 212 -252 89 -60
105 -76 119 -119 21 -61 235 -279 255 -258 3 3 -2 20 -11 39 l-17 33 28 -26
c27 -24 66 -49 78 -49 2 0 6 7 8 15 2 10 23 1 79 -35 171 -110 356 -196 569
-262 52 -17 130 -44 174 -60 l78 -30 -6 -47 c-29 -197 -36 -274 -36 -396 0
-77 -7 -227 -15 -334 -12 -148 -13 -218 -5 -294 5 -54 10 -121 10 -148 0 -27
9 -73 19 -102 100 -275 141 -394 147 -423 7 -40 36 -83 146 -218 89 -109 129
-142 194 -162 71 -21 81 -17 37 15 -48 34 -64 58 -125 171 -37 69 -47 98 -51
153 -4 41 -17 91 -31 123 -22 47 -23 53 -7 44 49 -26 95 -98 157 -243 28 -68
46 -93 120 -168 106 -107 162 -140 252 -147 44 -3 63 -2 59 5 -4 6 -19 14 -34
17 -48 12 -130 73 -163 121 -24 35 -34 64 -41 116 -5 39 -11 74 -14 80 -4 5
-2 9 3 9 10 0 52 -46 131 -140 60 -71 147 -113 249 -118 40 -3 72 0 72 5 0 5
-33 24 -73 42 -86 37 -156 90 -121 91 11 0 46 -8 76 -19 52 -18 218 -33 218
-20 0 3 -15 11 -32 17 l-33 10 40 2 c22 1 54 5 70 9 l30 7 -50 26 c-63 33
-135 85 -135 98 0 6 25 8 68 4 52 -4 72 -2 87 9 24 19 16 28 -45 51 -25 9 -56
25 -70 36 l-25 20 47 0 c73 0 103 19 56 35 -23 8 -23 8 2 12 24 5 70 39 70 54
0 4 -17 10 -37 13 -21 4 -54 12 -73 19 l-35 11 63 7 c46 4 70 12 85 28 19 18
19 23 7 34 -8 7 -40 21 -71 30 -31 10 -62 24 -69 32 -11 13 -4 15 54 15 79 0
97 18 53 56 l-26 23 29 6 c34 7 60 29 60 51 0 7 -21 25 -47 39 l-48 25 37 -6
c33 -5 41 -2 70 27 l33 33 -35 6 c-38 7 -95 34 -105 50 -4 6 14 10 47 10 63 0
81 10 76 40 -2 15 -15 26 -42 35 -21 8 -45 20 -53 27 -11 12 -4 14 50 15 35 0
74 4 86 8 22 7 19 10 -30 37 -30 16 -60 35 -68 43 -12 11 -8 13 27 8 54 -7 79
2 62 22 -10 12 -9 15 8 15 11 0 25 7 32 15 10 12 8 21 -8 49 -15 25 -17 33 -6
29 21 -8 18 45 -6 92 -11 22 -20 40 -20 41 0 1 9 4 20 7 15 4 20 14 20 40 0
50 -18 96 -62 154 -65 88 -61 101 17 62 35 -18 46 -31 65 -78 69 -168 163
-319 370 -596 236 -315 434 -511 715 -710 232 -164 418 -326 542 -471 43 -49
107 -123 142 -164 35 -41 75 -99 89 -129 23 -50 26 -68 26 -186 1 -143 -19
-239 -106 -525 -77 -253 -246 -680 -354 -890 -59 -116 -179 -269 -252 -320
-37 -27 -43 -35 -40 -62 3 -30 -1 -33 -94 -83 -116 -61 -221 -96 -386 -129
-162 -32 -254 -75 -327 -153 -30 -32 -55 -61 -55 -65 0 -3 20 0 44 7 72 22
122 22 146 0 19 -17 39 -20 148 -22 88 -1 135 2 158 12 21 9 34 10 34 4 0 -8
31 -8 98 -3 53 5 115 7 137 6 59 -3 139 16 179 43 35 24 39 24 123 14 110 -14
214 -7 249 15 42 28 56 78 60 208 3 113 4 118 35 160 41 56 56 92 74 181 9 39
35 133 60 207 24 74 71 230 104 345 33 116 83 284 111 375 28 90 80 270 116
400 36 129 78 269 94 310 54 142 63 318 19 374 -12 15 -34 27 -60 31 -69 12
-261 182 -307 271 -11 21 -32 95 -47 164 -49 225 -138 499 -205 631 -12 22
-19 43 -17 46 6 5 441 -101 637 -157 80 -22 208 -53 285 -69 159 -33 276 -73
373 -127 190 -106 285 -183 327 -264 38 -75 343 -845 390 -985 24 -71 56 -188
70 -260 15 -71 44 -184 65 -250 28 -90 39 -146 44 -222 11 -166 35 -223 101
-239 80 -19 173 -104 298 -272 61 -82 81 -119 102 -185 14 -45 37 -93 49 -107
13 -14 27 -36 31 -50 23 -78 100 -177 156 -200 16 -7 32 -11 34 -8 3 2 -4 22
-15 43 -28 55 -27 148 1 195 12 20 26 68 33 113 l11 77 55 -34 c55 -34 130
-57 130 -39 0 5 -12 20 -26 34 -25 23 -54 76 -54 99 0 6 25 10 58 10 31 0 74
3 95 6 l38 7 -54 22 c-78 31 -114 60 -135 109 -28 61 -81 110 -171 156 -62 31
-88 51 -125 97 -29 36 -46 68 -46 85 0 46 -48 183 -80 226 -16 23 -58 62 -92
87 -34 25 -78 68 -97 97 -45 67 -143 285 -171 379 -12 41 -60 171 -107 289
-180 456 -212 602 -188 873 6 71 4 96 -9 131 -24 62 -49 81 -166 124 -335 125
-464 190 -566 285 -83 78 -106 112 -165 248 -77 177 -157 307 -244 394 -94 95
-160 132 -349 196 -82 28 -123 47 -115 52 220 127 336 219 434 340 l60 74 97
7 c149 11 753 25 1051 26 256 0 274 -1 420 -30 83 -16 220 -41 302 -54 251
-42 351 -87 595 -267 30 -22 99 -63 153 -91 54 -28 141 -81 195 -120 116 -83
124 -76 57 49 l-46 86 38 -23 c73 -44 139 -96 228 -178 49 -46 133 -112 185
-147 107 -71 122 -86 209 -207 34 -48 83 -105 109 -128 56 -51 132 -104 138
-98 2 3 -14 46 -36 98 -23 51 -39 94 -37 96 10 10 149 -145 207 -231 38 -55
85 -116 106 -136 47 -44 114 -94 114 -85 0 3 -16 45 -35 93 -19 48 -35 88 -35
88 0 1 35 -33 79 -76 61 -60 98 -87 165 -119 48 -23 89 -40 92 -38 2 3 -5 26
-16 52 -11 25 -29 67 -41 93 -11 27 -16 44 -12 38 5 -5 26 -32 47 -58 22 -27
66 -69 100 -94 68 -50 295 -187 301 -182 2 2 -7 49 -21 104 -25 103 -30 145
-16 145 4 -1 48 -55 97 -121 50 -67 110 -140 135 -163 42 -38 45 -39 48 -19 2
12 -8 50 -22 85 l-25 63 36 -40 c19 -22 57 -83 83 -135 53 -104 99 -155 193
-214 l57 -37 0 68 c0 37 5 86 12 108 l12 40 7 -50 c19 -130 103 -255 212 -311
32 -17 32 -17 10 27 -20 40 -29 153 -14 189 9 23 10 21 10 -18 1 -24 6 -53 13
-65 14 -26 128 -161 140 -165 8 -4 4 27 -8 66 -6 21 5 14 43 -29 32 -35 98
-79 119 -79 4 0 -2 10 -14 23 -46 49 -103 217 -74 217 6 0 21 -15 34 -32 l23
-33 5 50 6 50 12 -30 c30 -71 65 -133 98 -170 31 -35 35 -37 29 -15 -11 46
-18 139 -11 157 6 14 11 9 26 -25 34 -76 125 -205 186 -264 51 -50 125 -108
137 -108 2 0 -22 51 -54 113 -32 61 -58 116 -59 121 0 4 16 -6 35 -23 20 -17
38 -31 40 -31 3 0 -5 24 -16 53 -34 85 -34 84 -17 67 8 -8 62 -69 120 -135
124 -142 255 -268 268 -260 15 9 12 65 -5 121 -21 70 -19 74 13 23 32 -50 156
-169 176 -169 9 0 3 25 -21 85 -19 47 -33 91 -31 97 2 6 23 -16 47 -47 50 -66
252 -278 258 -271 10 9 -28 113 -57 159 -28 44 -28 47 -8 36 13 -7 49 -32 80
-56 53 -42 77 -71 126 -153 24 -40 129 -146 137 -139 3 3 0 20 -6 37 -6 17 -9
45 -7 64 l3 33 46 -70 c25 -38 61 -98 78 -132 39 -72 122 -176 174 -216 l36
-27 -16 52 c-8 29 -22 70 -30 91 -9 21 -13 40 -11 43 3 2 32 -28 64 -68 70
-87 256 -280 262 -273 8 8 -30 98 -64 152 -19 29 -31 53 -27 53 20 0 97 -79
143 -147 64 -93 99 -133 118 -133 14 0 12 39 -5 88 -3 9 8 -3 24 -28 50 -75
181 -185 200 -167 3 3 -18 50 -46 103 -27 54 -49 99 -48 100 1 2 89 -69 195
-157 105 -88 192 -156 192 -153 0 20 -419 539 -624 774 -280 320 -741 792
-1046 1071 -348 317 -778 665 -1205 974 -217 157 -785 536 -1015 677 -602 370
-1164 610 -2010 862 -176 52 -271 78 -720 196 -423 112 -1003 291 -1305 405
-77 29 -230 91 -340 138 -420 177 -783 286 -1305 391 -754 151 -1208 162
-1986 51 -305 -44 -596 -96 -794 -141 -532 -122 -821 -120 -1125 7 -126 52
-209 134 -236 231 -46 172 -36 462 27 748 21 98 144 476 254 783 45 128 48
195 15 358 -43 213 -113 332 -226 387 -104 50 -385 84 -484 59z"/>
</g>
</svg>
