<?xml version="1.0" standalone="no"?>
<!DOCTYPE svg PUBLIC "-//W3C//DTD SVG 20010904//EN"
 "http://www.w3.org/TR/2001/REC-SVG-20010904/DTD/svg10.dtd">
<svg version="1.0" xmlns="http://www.w3.org/2000/svg"
 width="1536.000000pt" height="1056.000000pt" viewBox="0 0 1536.000000 1056.000000"
 preserveAspectRatio="xMidYMid meet">
<metadata>
Created by potrace 1.16, written by Peter Selinger 2001-2019
</metadata>
<g transform="translate(0.000000,1056.000000) scale(0.100000,-0.100000)"
fill="#000000" stroke="none">
<path d="M6555 10545 c-38 -7 -108 -23 -155 -35 -47 -12 -139 -26 -206 -30
-130 -9 -152 -16 -237 -78 -45 -32 -74 -43 -184 -72 -54 -14 -73 -47 -73 -130
0 -34 -4 -70 -10 -80 -5 -10 -33 -26 -62 -36 -29 -9 -68 -30 -86 -45 -51 -45
-78 -47 -114 -10 -37 38 -51 38 -131 5 -34 -14 -94 -34 -132 -44 -39 -10 -152
-53 -250 -96 -179 -76 -181 -77 -290 -84 -83 -5 -136 -15 -215 -40 -101 -32
-107 -33 -175 -21 -116 19 -280 80 -465 173 -96 49 -200 96 -229 105 -115 33
-303 -13 -396 -97 -29 -26 -79 -66 -111 -88 -66 -45 -385 -363 -433 -431 -24
-34 -31 -55 -31 -90 0 -43 -12 -83 -62 -206 -12 -27 -40 -104 -65 -170 -100
-275 -122 -311 -287 -480 -65 -66 -140 -153 -166 -193 -27 -39 -80 -109 -118
-155 -37 -45 -88 -109 -112 -142 -24 -33 -98 -116 -165 -185 -83 -85 -147
-162 -199 -240 -42 -63 -110 -155 -151 -205 -81 -97 -117 -171 -119 -245 l-1
-45 110 -41 c131 -50 259 -79 308 -70 20 4 55 24 80 47 30 26 71 48 119 65 50
17 83 35 104 58 28 30 36 33 115 41 46 4 106 8 133 9 l48 1 39 -69 c85 -148
88 -228 19 -456 -50 -169 -121 -312 -250 -510 -124 -189 -225 -393 -365 -735
-123 -301 -211 -483 -293 -611 -46 -70 -83 -112 -165 -183 -107 -94 -121 -114
-133 -186 -13 -76 -17 -78 -101 -71 -110 10 -156 0 -227 -50 -33 -24 -86 -58
-116 -75 -80 -47 -191 -162 -228 -236 -18 -34 -41 -104 -52 -155 -28 -122 -53
-163 -156 -249 -143 -120 -148 -170 -35 -361 28 -48 60 -89 71 -93 11 -3 54
-1 95 4 129 18 129 18 163 -42 59 -105 196 -197 343 -232 40 -9 111 -15 175
-14 81 0 126 -5 174 -19 220 -66 459 -207 579 -339 31 -34 89 -115 130 -180
192 -304 222 -345 371 -497 237 -242 465 -434 720 -605 191 -128 284 -178 481
-257 215 -86 344 -124 569 -168 386 -75 594 -90 1140 -83 548 7 734 24 1230
108 129 22 312 53 405 69 94 16 263 41 375 55 113 14 349 48 525 75 586 91
621 94 1120 94 787 0 1327 -56 2160 -224 326 -66 443 -95 905 -225 482 -135
620 -183 892 -311 89 -42 226 -102 303 -134 77 -31 208 -87 292 -124 84 -36
165 -69 181 -72 35 -7 181 40 284 92 176 89 274 174 338 297 18 34 58 96 89
137 104 139 251 430 251 496 0 10 16 85 36 167 48 204 49 202 -89 299 -13 10
-22 39 -32 115 -23 162 -75 244 -125 198 -12 -11 -37 -48 -56 -85 -19 -36 -45
-78 -59 -95 l-25 -30 7 40 c13 67 7 304 -10 404 -16 97 -66 217 -93 228 -43
16 -109 -92 -159 -262 -32 -108 -98 -285 -106 -285 -3 0 -9 51 -12 113 -8 141
-28 210 -73 255 -66 66 -101 27 -153 -176 -27 -106 -50 -152 -75 -152 -7 0
-11 36 -12 103 -1 86 -6 118 -34 202 -44 138 -92 237 -125 263 -31 24 -67 29
-82 10 -27 -35 -55 -152 -73 -313 -21 -185 -30 -219 -58 -211 -9 2 -43 10 -75
17 -32 7 -60 15 -62 19 -2 3 -13 64 -25 134 -25 149 -41 200 -107 331 -59 119
-91 158 -130 153 -40 -4 -51 -36 -63 -179 -13 -152 -29 -296 -37 -326 -7 -29
-32 -29 -99 -2 l-51 22 -7 82 c-11 145 -76 313 -151 391 -55 58 -87 60 -107 7
-8 -21 -21 -66 -28 -100 -7 -35 -18 -71 -25 -80 -11 -15 -16 -10 -43 43 -17
33 -37 66 -46 73 -37 30 -83 -14 -146 -142 -64 -129 -100 -132 -100 -8 0 89
-24 172 -78 269 -82 147 -138 187 -166 120 -8 -18 -19 -73 -25 -121 -7 -48
-16 -100 -22 -114 -9 -25 -11 -24 -62 53 -63 95 -82 101 -114 34 -12 -25 -36
-87 -53 -137 -18 -51 -35 -91 -40 -88 -4 2 -10 55 -14 117 -7 125 -25 207 -62
285 -29 61 -94 123 -129 123 -44 0 -56 -35 -71 -207 -18 -220 -28 -240 -97
-214 -24 9 -25 13 -28 128 -4 105 -7 124 -32 176 -31 63 -72 93 -113 83 -27
-7 -36 -23 -94 -166 -51 -125 -56 -132 -89 -128 -25 3 -26 5 -32 95 -11 156
-53 239 -142 284 -51 27 -62 16 -76 -70 -14 -89 -25 -94 -51 -24 -43 117 -131
233 -176 233 -39 0 -54 -38 -69 -171 -16 -147 -23 -157 -93 -131 -53 20 -59
33 -61 132 -2 71 -22 126 -68 187 -34 44 -121 115 -133 108 -5 -3 -27 -64 -50
-135 -39 -124 -55 -156 -65 -128 -45 129 -87 198 -122 198 -28 0 -71 -33 -98
-77 -16 -23 -36 -43 -45 -43 -28 0 -117 34 -275 105 -158 71 -330 140 -685
275 -118 45 -284 113 -367 151 -84 38 -223 101 -308 139 -157 72 -806 296
-981 340 -49 12 -167 32 -263 44 l-175 22 83 45 c46 24 122 74 170 110 47 36
115 82 151 103 36 21 81 53 101 71 25 23 50 34 84 40 132 19 315 100 455 199
121 87 190 121 270 137 36 7 99 27 140 45 41 18 100 39 130 48 68 19 314 39
384 30 86 -11 86 -11 86 -124 0 -54 3 -105 6 -114 18 -46 142 15 174 87 11 23
20 51 20 62 1 48 10 49 136 22 66 -15 136 -29 157 -33 l38 -6 -7 -77 c-8 -95
3 -110 57 -83 25 13 42 35 64 80 23 47 35 61 53 61 22 1 22 -1 20 -86 -2 -100
6 -133 31 -133 33 0 86 45 118 100 56 96 44 90 171 83 l112 -6 0 -61 c0 -34
-6 -98 -14 -143 -17 -103 -9 -115 58 -89 68 26 118 88 152 187 26 75 29 81 32
50 5 -49 -14 -151 -49 -265 -17 -54 -27 -102 -22 -107 12 -12 114 6 159 27 71
34 148 140 200 276 26 67 44 80 44 31 0 -30 -21 -114 -61 -245 -17 -54 -29
-112 -27 -130 3 -32 4 -33 43 -30 77 6 137 32 190 86 66 67 108 149 142 277
20 73 33 104 43 104 23 0 23 -42 0 -224 -12 -93 -20 -190 -18 -217 3 -46 5
-49 28 -46 47 4 170 73 218 121 69 70 128 181 156 292 24 99 29 105 94 108 19
1 22 -4 22 -33 0 -67 -32 -201 -71 -298 -26 -64 -39 -108 -35 -123 10 -40 34
-55 85 -55 105 0 278 128 336 249 16 34 32 61 36 61 22 0 25 -182 7 -367 -14
-140 -9 -153 51 -153 95 0 201 95 276 246 37 74 55 173 71 376 l6 78 56 -6
c32 -4 60 -10 65 -13 4 -4 1 -97 -7 -207 -13 -182 -36 -318 -76 -453 -12 -44
-3 -51 71 -51 104 0 195 84 299 277 76 138 113 227 136 318 9 39 18 76 20 83
5 20 150 17 158 -4 13 -33 5 -379 -10 -459 -18 -96 -35 -379 -25 -426 9 -43
33 -48 96 -18 107 50 230 196 297 350 71 167 116 391 104 525 l-7 72 38 7 c45
8 57 -5 72 -76 15 -70 41 -285 41 -342 0 -126 67 -164 173 -98 89 56 190 268
205 431 l7 75 77 19 c83 20 122 16 137 -13 32 -58 36 -292 15 -678 -6 -95 -4
-117 10 -138 48 -73 160 4 291 200 87 130 129 253 142 415 6 76 8 81 14 45 5
-22 8 -89 8 -150 1 -118 14 -222 30 -238 7 -7 25 -6 53 2 51 16 153 115 185
181 12 25 49 102 82 171 34 70 67 131 73 137 8 5 22 6 34 2 21 -8 21 -12 16
-172 -5 -188 -3 -195 64 -177 57 16 139 105 194 214 l45 88 5 -166 c5 -154 7
-168 27 -188 59 -59 167 52 216 221 l25 85 4 -142 c2 -89 7 -146 14 -154 18
-17 49 -2 98 47 68 70 119 185 180 404 11 40 30 73 70 119 78 90 90 162 66
413 -19 202 -80 364 -298 788 -161 315 -179 345 -310 507 -105 131 -133 176
-229 373 -77 158 -110 204 -253 356 -52 55 -142 151 -199 213 -129 140 -247
240 -348 295 -231 126 -286 159 -344 201 -35 26 -122 76 -194 111 -124 60
-131 65 -155 110 -23 45 -31 51 -111 85 -55 23 -109 38 -152 42 -40 4 -85 16
-116 32 -28 14 -67 25 -89 25 -27 0 -63 14 -127 51 -116 66 -264 167 -338 228
-98 82 -345 170 -577 206 -158 25 -179 38 -246 151 -69 117 -91 130 -269 154
-54 8 -108 24 -165 50 -63 29 -112 43 -190 55 -158 23 -352 78 -518 145 -123
50 -159 60 -208 60 -97 0 -232 27 -280 55 -23 14 -85 36 -137 50 -52 14 -123
37 -157 51 -78 31 -105 28 -209 -27 -92 -49 -119 -48 -137 3 -29 85 -84 128
-259 203 -172 74 -275 105 -378 114 -56 6 -108 17 -128 27 -25 13 -66 20 -149
24 l-115 5 -80 51 c-117 75 -455 257 -602 324 -114 53 -183 88 -452 226 -86
45 -157 52 -276 29z m-817 -1182 c15 -11 33 -32 40 -46 11 -23 10 -33 -7 -72
-11 -24 -34 -65 -52 -91 -39 -57 -41 -105 -10 -270 11 -60 25 -165 31 -234 6
-69 20 -194 31 -278 23 -186 24 -278 3 -402 -9 -52 -17 -142 -18 -200 -1 -93
2 -111 25 -160 15 -30 50 -84 79 -120 69 -85 89 -132 100 -234 7 -54 23 -118
46 -177 52 -134 53 -178 14 -329 -31 -116 -34 -140 -40 -350 -8 -251 -13 -274
-86 -427 -48 -100 -69 -121 -152 -148 -122 -40 -167 0 -262 228 -18 43 -57
111 -87 150 -97 127 -119 206 -158 554 -40 372 -33 494 42 668 139 322 153
364 153 461 0 46 -7 70 -29 109 -190 336 -217 378 -277 438 -69 69 -101 79
-267 87 -91 4 -152 11 -159 18 -6 6 -23 35 -37 64 -31 63 -64 82 -138 81 -29
-1 -53 2 -53 6 0 12 57 89 118 159 48 54 55 68 54 101 -2 39 -1 39 63 66 48
21 90 51 166 122 178 165 229 188 431 199 75 4 160 16 218 30 109 27 179 26
218 -3z m2457 -429 c135 -17 362 -63 467 -95 39 -11 172 -61 297 -111 124 -50
323 -123 441 -163 118 -40 307 -107 420 -148 113 -41 288 -100 390 -130 231
-70 282 -90 433 -170 67 -35 165 -83 218 -106 64 -28 111 -56 140 -84 60 -58
233 -297 276 -381 114 -226 95 -545 -52 -864 -74 -158 -127 -187 -499 -268
-452 -98 -871 -167 -1081 -179 -164 -10 -217 -21 -367 -81 -176 -69 -228 -81
-423 -94 -182 -12 -285 -26 -334 -46 -18 -8 -72 -38 -120 -68 -174 -111 -298
-145 -521 -148 -97 -1 -133 3 -163 16 -70 31 -131 37 -215 21 -106 -21 -139
-19 -188 10 -35 21 -45 34 -60 77 -9 29 -37 81 -61 116 -65 91 -80 133 -99
272 -10 75 -34 186 -61 275 -60 202 -79 287 -98 435 -9 69 -29 182 -45 251
-17 70 -30 138 -30 152 0 14 16 76 36 139 34 107 36 118 30 208 -3 53 -19 165
-36 250 -67 348 -64 419 25 613 84 183 79 178 202 197 36 6 105 26 153 45 204
78 582 103 925 59z m-4519 -370 c65 -31 147 -135 221 -280 45 -89 105 -185
176 -282 60 -81 126 -176 147 -212 66 -111 103 -286 135 -649 9 -96 25 -231
36 -300 12 -73 25 -211 29 -326 6 -151 15 -234 36 -340 19 -96 27 -173 28
-245 0 -127 -12 -163 -114 -335 -39 -64 -93 -170 -121 -234 -69 -155 -147
-287 -214 -359 -137 -148 -424 -291 -590 -293 -76 -1 -90 7 -150 87 -45 62
-200 222 -395 409 -121 117 -165 178 -208 293 -35 92 -41 286 -17 503 29 264
47 324 132 438 80 106 94 145 96 254 2 87 0 97 -36 175 -23 52 -40 109 -45
150 -13 100 -8 438 6 509 17 84 2 241 -38 399 -34 135 -39 237 -14 289 19 40
217 250 271 288 43 30 150 50 358 66 179 14 234 13 271 -5z m9569 -953 c22
-10 70 -43 106 -72 36 -30 108 -78 160 -107 164 -92 569 -396 631 -474 35 -43
195 -323 223 -391 46 -110 39 -183 -19 -211 -44 -21 -137 -21 -206 0 -58 17
-119 72 -282 255 -84 94 -166 160 -326 260 -56 35 -149 93 -205 130 -56 36
-144 87 -196 115 -52 27 -111 65 -133 84 l-39 35 -11 136 c-17 206 -11 220
102 245 81 18 149 16 195 -5z m-9110 -5315 c66 -18 122 -41 290 -119 230 -106
377 -144 750 -192 157 -20 222 -33 305 -62 215 -73 233 -95 152 -185 -47 -52
-77 -66 -191 -89 -52 -11 -131 -36 -176 -55 -135 -61 -176 -73 -246 -74 -96 0
-412 46 -542 80 -369 95 -346 87 -442 150 -137 90 -144 97 -157 147 -6 25 -28
70 -48 102 -21 31 -41 70 -45 88 -6 30 -2 35 70 95 77 64 183 128 213 128 10
0 40 -6 67 -14z"/>
</g>
</svg>
