<?xml version="1.0" standalone="no"?>
<!DOCTYPE svg PUBLIC "-//W3C//DTD SVG 20010904//EN"
 "http://www.w3.org/TR/2001/REC-SVG-20010904/DTD/svg10.dtd">
<svg version="1.0" xmlns="http://www.w3.org/2000/svg"
 width="1536.000000pt" height="811.000000pt" viewBox="0 0 1536.000000 811.000000"
 preserveAspectRatio="xMidYMid meet">
<metadata>
Created by potrace 1.16, written by Peter Selinger 2001-2019
</metadata>
<g transform="translate(0.000000,811.000000) scale(0.100000,-0.100000)"
fill="#000000" stroke="none">
<path d="M4951 7873 c-221 -18 -436 -57 -571 -103 -183 -62 -340 -136 -430
-203 -130 -96 -207 -174 -360 -367 -168 -212 -345 -385 -432 -423 -23 -9 -62
-32 -87 -51 -171 -124 -554 -376 -571 -376 -12 0 -33 -13 -47 -30 -13 -16 -29
-30 -33 -30 -15 0 -82 -49 -97 -70 -8 -11 -23 -20 -33 -20 -10 0 -32 -13 -48
-30 -17 -16 -40 -30 -51 -30 -11 0 -25 -8 -30 -19 -6 -10 -37 -35 -70 -56 -33
-21 -62 -48 -65 -59 -3 -12 -66 -69 -141 -129 -75 -59 -145 -123 -156 -141
-11 -19 -33 -39 -49 -44 -16 -6 -36 -21 -44 -35 -16 -23 -105 -87 -123 -87 -5
0 -22 -14 -39 -31 -16 -17 -67 -56 -114 -87 -47 -31 -123 -83 -169 -116 -95
-67 -203 -129 -376 -217 -454 -231 -654 -350 -741 -441 -61 -64 -78 -103 -71
-164 10 -95 116 -194 207 -194 56 0 102 28 84 51 -6 8 -10 45 -10 83 l1 69 50
31 50 31 290 8 c329 8 423 20 558 73 131 50 246 90 287 99 l35 8 -40 -44 c-43
-47 -175 -222 -268 -355 l-56 -81 -143 -51 c-111 -39 -162 -52 -228 -57 -132
-10 -142 -17 -110 -78 l19 -34 -40 -12 c-68 -20 -76 -81 -18 -137 27 -26 35
-28 90 -26 33 2 78 10 101 18 58 20 59 18 3 -20 -80 -53 -115 -91 -115 -121
l0 -28 79 5 79 5 -20 -51 c-36 -90 -49 -139 -55 -219 l-6 -78 29 7 c16 4 30 7
30 8 1 1 25 44 54 96 28 52 49 84 46 70 -3 -14 -9 -59 -12 -101 -5 -60 -3 -82
11 -108 l17 -33 17 28 c10 16 68 124 129 239 l112 211 277 123 c309 137 626
267 808 331 139 48 305 129 456 222 58 35 112 68 120 72 8 3 68 42 134 86 261
173 465 284 577 314 29 8 76 21 103 30 28 8 61 17 75 20 14 3 77 18 140 34 82
21 153 31 245 36 136 6 217 21 302 55 44 17 59 18 123 10 122 -17 242 13 353
90 l44 30 90 -24 c152 -41 263 -98 263 -136 0 -35 29 -78 64 -96 19 -10 48
-36 66 -57 35 -45 85 -82 125 -92 22 -5 26 -11 22 -32 -8 -41 12 -90 58 -142
44 -49 51 -68 73 -185 25 -132 119 -267 256 -370 37 -27 69 -59 71 -70 2 -11
13 -96 23 -190 20 -177 19 -215 -11 -400 -8 -49 -15 -108 -15 -130 -1 -40 -30
-244 -77 -540 -38 -242 -121 -656 -132 -663 -17 -12 -63 -188 -57 -219 3 -17
-9 -96 -30 -188 -56 -256 -60 -295 -47 -443 7 -73 9 -172 5 -227 -6 -88 -10
-102 -44 -158 -31 -52 -54 -74 -138 -132 -56 -38 -128 -89 -160 -112 -33 -23
-106 -87 -162 -142 -94 -91 -102 -102 -96 -128 12 -48 64 -91 151 -124 75 -29
97 -33 335 -51 336 -25 418 -26 521 -6 47 9 121 19 165 22 224 16 249 22 286
63 10 11 21 40 24 64 5 36 1 55 -19 95 -24 48 -25 57 -32 339 -6 243 -4 307
10 397 16 112 72 288 150 480 25 59 89 230 144 380 153 421 155 426 214 486
63 64 144 119 157 106 28 -28 122 -269 221 -567 l112 -338 84 -127 c83 -124
221 -386 263 -500 12 -31 19 -66 15 -79 -7 -28 -77 -80 -171 -128 -144 -71
-202 -168 -212 -345 l-4 -96 28 -13 c16 -7 54 -15 84 -19 30 -3 64 -11 76 -19
11 -7 54 -25 95 -39 64 -23 95 -27 229 -32 93 -2 161 -9 169 -16 17 -13 280
-10 297 5 10 8 77 24 239 55 39 7 94 13 123 14 85 0 109 38 99 158 -6 84 -53
229 -127 398 -74 168 -113 289 -140 439 -24 137 -53 246 -82 314 -28 66 -87
444 -103 666 -4 50 -15 162 -26 250 -11 88 -22 241 -26 339 -6 174 -6 179 13
172 40 -16 326 -87 489 -121 313 -67 688 -117 1085 -145 254 -18 627 -23 745
-11 101 10 279 41 315 54 8 3 34 11 58 17 36 9 42 15 42 36 0 22 4 25 23 21
12 -3 84 -18 160 -33 123 -24 139 -30 153 -53 9 -14 67 -66 130 -116 63 -49
125 -104 138 -120 13 -17 33 -62 45 -101 13 -44 33 -85 55 -110 34 -40 34 -40
46 -195 14 -177 9 -278 -26 -507 -28 -190 -30 -313 -8 -472 29 -208 7 -371
-73 -540 -23 -47 -44 -107 -48 -133 -9 -66 -50 -111 -119 -131 -42 -13 -65
-28 -116 -81 l-63 -66 6 -79 c8 -98 26 -137 75 -157 29 -12 48 -13 90 -6 l54
10 16 -33 c21 -45 90 -61 172 -40 54 14 56 14 87 -10 l33 -25 184 21 c145 16
250 20 485 20 194 0 301 4 301 10 0 6 6 10 14 10 22 0 56 49 56 79 0 14 -7 51
-15 81 -8 30 -13 55 -12 57 2 1 25 -4 52 -12 26 -8 76 -15 109 -15 39 0 81 -8
116 -22 85 -33 246 -36 435 -8 118 18 212 24 439 28 l289 4 -5 237 c-5 222 -7
241 -32 316 -18 54 -31 127 -41 227 -16 158 -42 291 -110 568 -54 222 -69 350
-62 527 6 158 47 371 118 618 l43 150 6 240 c6 230 8 242 33 300 30 70 33 65
11 -25 -10 -42 -16 -118 -17 -215 -2 -157 19 -395 36 -406 5 -4 14 -51 19
-105 6 -55 15 -103 20 -109 7 -7 8 13 4 60 -4 51 -3 65 5 53 15 -26 29 -22 29
7 0 14 3 25 8 25 9 -1 67 -133 101 -232 15 -42 30 -81 35 -85 11 -12 -1 52
-45 227 -40 158 -73 330 -65 338 13 12 43 -83 77 -238 34 -163 143 -516 185
-603 22 -47 39 -43 37 9 -2 33 -1 35 7 14 4 -14 8 -39 9 -56 2 -47 38 -179 67
-245 30 -66 51 -80 29 -20 -8 25 -10 42 -4 48 7 7 5 43 -5 104 -27 163 -27
159 -2 103 13 -28 28 -54 33 -57 6 -4 8 -54 5 -119 -2 -62 -2 -111 1 -107 4 3
11 59 17 125 13 138 18 163 31 143 14 -23 11 -92 -3 -83 -9 5 -9 3 1 -9 7 -9
17 -14 22 -11 5 3 9 1 9 -5 0 -5 -5 -13 -11 -17 -6 -4 -7 -9 -2 -13 5 -3 15
-49 22 -101 10 -79 40 -180 53 -180 2 0 -3 37 -12 83 -10 45 -20 111 -23 147
l-7 65 24 -50 c28 -58 32 -49 11 21 -8 27 -15 50 -15 51 0 1 12 3 28 5 24 3
28 8 32 47 5 41 8 46 37 53 50 13 66 47 71 149 5 111 -9 213 -58 404 -85 336
-193 577 -350 784 -77 102 -100 139 -98 159 3 22 12 12 67 -71 35 -54 69 -101
75 -104 6 -4 5 1 -3 10 -8 10 -11 20 -8 23 3 3 18 -13 33 -35 15 -23 29 -39
31 -37 3 2 -17 37 -44 78 -76 113 -152 270 -159 325 -6 46 -3 43 53 -67 69
-136 118 -212 169 -260 42 -40 41 -38 -45 90 -85 127 -156 274 -176 365 -26
114 -14 120 29 17 22 -51 43 -95 49 -99 14 -8 1 28 -55 154 -27 62 -48 118
-46 124 2 7 17 -17 32 -52 16 -35 32 -66 36 -69 4 -3 36 -58 70 -123 34 -65
64 -116 67 -113 3 2 -38 88 -90 190 -53 102 -99 200 -102 218 -3 18 -5 69 -3
113 l3 80 48 -86 c49 -89 55 -105 35 -93 -7 4 -8 3 -4 -5 4 -6 12 -8 18 -5 7
4 8 2 4 -4 -4 -6 2 -24 13 -39 17 -24 61 -144 99 -273 l10 -35 1 37 c2 71
-115 355 -203 491 -25 40 -36 69 -36 95 l0 37 42 -64 c23 -35 44 -58 46 -51 3
7 -18 45 -46 85 -40 58 -52 83 -57 130 -7 55 -7 57 12 46 48 -25 121 -132 144
-208 14 -48 34 -47 25 1 -9 42 -67 128 -137 201 -56 59 -59 64 -69 135 -6 41
-13 86 -16 100 -5 21 3 17 50 -29 31 -30 58 -52 61 -49 6 5 -78 105 -111 133
-6 6 -19 60 -29 120 -9 61 -30 175 -45 255 -16 80 -34 194 -40 254 -14 140
-40 207 -128 338 -48 71 -72 116 -72 135 0 82 -125 229 -322 379 -57 43 -105
81 -108 84 -3 3 -59 41 -125 85 -322 214 -581 349 -865 451 -102 36 -223 81
-270 99 -47 18 -173 65 -280 105 -107 40 -206 77 -220 83 -14 5 -29 11 -35 12
-38 9 -194 35 -265 45 -73 9 -247 54 -259 66 -2 2 4 14 15 26 19 23 18 23 -7
0 l-27 -23 -98 25 c-311 80 -761 159 -1374 242 -221 30 -873 7 -1340 -46 -132
-15 -239 -20 -435 -20 l-260 0 -75 29 c-128 50 -265 74 -430 74 -147 0 -188
-6 -360 -53 -101 -28 -218 -37 -380 -29 -155 8 -378 40 -431 63 -67 28 -342
104 -514 141 -282 61 -710 85 -1034 58z m9534 -2722 c19 -63 109 -687 116
-811 1 -19 -7 -64 -18 -100 -11 -36 -24 -99 -27 -140 -8 -91 -25 -170 -36
-170 -5 0 -9 45 -9 99 -1 331 -51 957 -90 1131 l-9 39 34 -17 c19 -8 36 -23
39 -31z m-12175 -151 c0 -28 -279 -287 -495 -459 -19 -16 -19 -16 0 14 36 59
101 128 196 211 87 76 290 243 297 244 1 0 2 -5 2 -10z m12217 -1177 c-3 -10
-5 -4 -5 12 0 17 2 24 5 18 2 -7 2 -21 0 -30z m-17 -184 c-18 -43 -24 -28 -8
23 8 27 14 36 16 25 2 -10 -2 -32 -8 -48z m450 -291 c0 -5 -4 -8 -10 -8 -5 0
-7 -8 -4 -17 5 -15 4 -15 -4 -3 -6 8 -8 18 -6 22 3 4 -9 29 -26 55 l-31 48 40
-45 c23 -25 41 -48 41 -52z m-513 -40 c-3 -7 -5 -2 -5 12 0 14 2 19 5 13 2 -7
2 -19 0 -25z m60 -85 c-2 -21 -4 -4 -4 37 0 41 2 58 4 38 2 -21 2 -55 0 -75z
m491 70 c11 -21 17 -44 14 -52 -3 -9 0 -11 9 -6 8 5 11 5 7 0 -4 -4 1 -20 11
-34 40 -56 199 -446 187 -458 -3 -3 -29 46 -60 108 -148 307 -206 433 -201
437 2 3 14 -6 26 -19 l21 -24 -21 32 c-20 29 -27 53 -16 53 2 0 13 -17 23 -37z
m-94 -43 l7 -25 -14 25 c-8 14 -17 36 -21 50 l-7 25 14 -25 c8 -14 17 -36 21
-50z m58 -145 c11 -20 11 -20 -11 -1 -11 11 -21 26 -21 35 0 14 2 14 10 1 6
-8 16 -24 22 -35z m-383 -285 c-1 -28 -28 45 -28 75 0 26 2 25 15 -15 7 -25
13 -52 13 -60z m-52 23 c-3 -10 -5 -4 -5 12 0 17 2 24 5 18 2 -7 2 -21 0 -30z
m233 -80 c0 -44 -5 -41 -14 10 -5 27 -4 37 3 32 6 -3 11 -22 11 -42z m-183
-15 c-3 -7 -5 -2 -5 12 0 14 2 19 5 13 2 -7 2 -19 0 -25z m682 -181 c28 -89
53 -224 44 -239 -2 -5 -14 -8 -27 -8 -21 0 -24 6 -34 93 -6 51 -22 135 -36
187 -17 68 -21 99 -13 108 13 16 22 -5 66 -141z m-299 34 c0 -21 -16 -2 -25
29 -7 24 -7 24 9 5 8 -11 16 -27 16 -34z m-103 -13 c-3 -8 -6 -5 -6 6 -1 11 2
17 5 13 3 -3 4 -12 1 -19z m280 0 c-3 -8 -6 -5 -6 6 -1 11 2 17 5 13 3 -3 4
-12 1 -19z m-198 -112 c1 -94 -6 -80 -12 24 -3 51 -2 77 3 65 5 -11 9 -51 9
-89z m110 59 c0 -5 -4 -3 -9 5 -5 8 -9 22 -9 30 0 16 17 -16 18 -35z m134
-149 c4 -23 3 -35 -3 -30 -4 5 -11 32 -14 59 -7 58 7 33 17 -29z m-178 -31
c71 -161 86 -210 79 -264 -7 -53 -7 -54 -20 -28 -16 30 -94 337 -93 364 0 11
5 5 11 -12 5 -16 16 -43 23 -60z m94 -125 c0 -38 -37 62 -42 115 l-6 60 24
-80 c14 -44 24 -87 24 -95z m-2 108 c-3 -8 -6 -5 -6 6 -1 11 2 17 5 13 3 -3 4
-12 1 -19z m103 -43 c0 -5 -5 -3 -10 5 -5 8 -10 20 -10 25 0 6 5 3 10 -5 5 -8
10 -19 10 -25z m129 -65 c1 -62 -16 -116 -41 -135 -12 -8 -25 -11 -28 -7 -3 4
-4 53 -2 110 3 92 5 102 22 102 10 0 22 6 26 12 11 17 22 -23 23 -82z m-352
38 c-3 -7 -5 -2 -5 12 0 14 2 19 5 13 2 -7 2 -19 0 -25z m-62 -64 c13 -91 -8
-54 -30 51 -6 27 -5 28 8 12 8 -10 18 -38 22 -63z m294 -54 l1 -55 -19 25
c-15 19 -18 35 -14 80 2 30 7 62 10 70 8 21 22 -53 22 -120z m-232 63 c-3 -10
-5 -4 -5 12 0 17 2 24 5 18 2 -7 2 -21 0 -30z m-1694 -55 c8 -29 20 -82 26
-119 21 -124 54 -585 55 -764 1 -208 -13 -274 -82 -381 -22 -33 -41 -65 -43
-71 -8 -22 -177 -194 -182 -186 -3 5 -6 74 -6 153 0 80 -4 223 -9 318 -9 164
-8 176 14 265 18 71 24 119 24 210 0 141 19 224 66 282 18 22 49 74 70 115 32
63 39 87 42 153 2 42 6 77 7 77 2 0 10 -24 18 -52z m1857 -23 c0 -17 -2 -17
-10 -5 -5 8 -10 24 -10 35 0 17 2 17 10 5 5 -8 10 -24 10 -35z m62 -78 c-8
-35 -23 -51 -33 -35 -10 16 -12 72 -2 81 13 13 41 -24 35 -46z"/>
<path d="M4382 7840 c0 -14 2 -19 5 -12 2 6 2 18 0 25 -3 6 -5 1 -5 -13z"/>
<path d="M3580 7406 c0 -2 8 -10 18 -17 15 -13 16 -12 3 4 -13 16 -21 21 -21
13z"/>
<path d="M3500 7266 c0 -2 8 -10 18 -17 15 -13 16 -12 3 4 -13 16 -21 21 -21
13z"/>
</g>
</svg>
