<?xml version="1.0" standalone="no"?>
<!DOCTYPE svg PUBLIC "-//W3C//DTD SVG 20010904//EN"
 "http://www.w3.org/TR/2001/REC-SVG-20010904/DTD/svg10.dtd">
<svg version="1.0" xmlns="http://www.w3.org/2000/svg"
 width="925.000000pt" height="373.000000pt" viewBox="0 0 925.000000 373.000000"
 preserveAspectRatio="xMidYMid meet">
<metadata>
Created by potrace 1.16, written by Peter Selinger 2001-2019
</metadata>
<g transform="translate(0.000000,373.000000) scale(0.100000,-0.100000)"
fill="#000000" stroke="none">
<path d="M4820 3714 c-14 -2 -144 -10 -290 -19 -146 -9 -304 -23 -353 -31 -48
-8 -141 -14 -208 -14 -66 0 -170 -7 -231 -16 -92 -14 -126 -14 -197 -5 -61 8
-101 9 -140 1 -42 -8 -64 -7 -103 5 -38 11 -84 13 -206 9 -86 -3 -160 -8 -164
-10 -4 -3 -31 7 -60 22 -51 26 -59 27 -213 27 -102 -1 -192 -7 -249 -17 -54
-10 -109 -14 -137 -10 -34 5 -65 1 -111 -14 -82 -27 -258 -51 -328 -45 -40 3
-59 10 -71 26 -16 19 -20 20 -73 8 -60 -13 -184 -8 -244 11 -19 5 -64 7 -107
3 -61 -6 -82 -13 -110 -35 -24 -19 -56 -32 -103 -40 -37 -6 -88 -17 -114 -25
-31 -9 -71 -12 -115 -8 -73 6 -294 -27 -488 -72 -55 -13 -133 -31 -173 -40
-144 -34 -188 -91 -212 -277 -16 -128 -13 -191 13 -229 13 -19 26 -42 30 -52
4 -10 11 -15 17 -12 6 3 10 -3 10 -15 0 -15 5 -20 14 -17 9 4 20 -9 31 -36
l18 -42 7 30 c4 17 8 23 9 15 1 -17 37 -89 53 -105 6 -6 7 6 2 33 -8 52 0 54
22 5 16 -37 17 -38 24 -13 6 17 8 19 9 7 1 -10 9 -32 18 -50 l17 -32 7 25 c4
14 7 18 8 10 4 -56 123 -230 157 -230 18 0 17 24 -1 125 -8 44 -14 93 -15 109
0 28 1 28 18 13 29 -27 35 -20 28 31 l-6 47 19 -29 c11 -16 27 -34 37 -39 15
-9 16 -5 10 32 -7 44 9 56 34 26 18 -21 40 -19 40 5 0 22 29 27 47 9 13 -13
33 -4 33 15 0 12 165 86 192 86 7 0 -4 -14 -25 -31 -29 -24 -105 -114 -179
-214 -40 -53 -63 -75 -79 -75 -13 0 -19 -6 -17 -16 2 -10 -9 -23 -29 -33 -18
-9 -33 -24 -33 -33 0 -20 -16 -32 -25 -18 -13 21 -25 9 -25 -24 0 -25 -6 -38
-24 -49 -23 -15 -26 -15 -50 4 -15 12 -43 46 -64 77 l-37 57 -3 -34 c-2 -18 4
-56 13 -83 12 -38 13 -53 4 -64 -6 -7 -8 -21 -5 -30 4 -12 2 -15 -9 -10 -9 3
-15 0 -15 -10 0 -10 -6 -13 -18 -10 -15 5 -17 0 -17 -39 0 -54 17 -69 95 -85
30 -7 127 -30 215 -52 179 -45 279 -57 324 -38 18 7 43 34 65 69 62 101 123
130 335 161 420 61 775 38 989 -66 161 -77 183 -84 285 -84 87 0 97 2 148 33
82 49 133 74 172 85 l36 10 82 -89 c58 -63 84 -100 90 -127 5 -23 25 -55 50
-82 48 -50 67 -91 80 -169 7 -47 6 -62 -12 -98 -50 -103 -161 -155 -378 -174
-99 -9 -106 -11 -170 -53 -36 -24 -110 -85 -163 -135 -105 -98 -139 -113 -200
-91 -31 12 -39 10 -80 -14 -25 -14 -53 -35 -63 -46 -10 -11 -25 -20 -34 -20
-29 -1 -80 -35 -106 -70 -36 -48 -33 -64 9 -56 28 5 36 3 49 -18 22 -33 78
-50 141 -42 143 18 155 18 197 2 28 -11 75 -18 136 -19 l93 -1 48 46 c29 29
60 49 82 53 37 8 105 39 130 60 8 7 37 16 65 20 27 4 65 15 85 25 46 23 248
69 349 79 82 9 162 43 174 75 3 8 32 31 64 51 85 54 102 73 135 145 30 66 72
120 94 120 21 0 101 -98 133 -162 28 -55 31 -70 31 -152 0 -50 -5 -107 -10
-126 -59 -225 -236 -557 -367 -686 -75 -75 -140 -114 -187 -114 -15 0 -60 -16
-100 -35 -40 -19 -77 -35 -83 -35 -5 0 -28 -16 -50 -35 -39 -33 -84 -118 -70
-131 3 -4 20 -1 38 5 28 10 35 8 61 -14 16 -14 42 -25 56 -26 43 -2 54 -3 115
-18 55 -14 59 -13 87 7 38 29 71 28 100 -3 20 -21 33 -25 80 -25 31 0 60 4 66
9 5 5 47 11 92 13 l84 3 38 45 c22 25 56 74 77 109 21 36 55 85 76 110 47 57
74 116 92 203 27 126 199 429 312 550 35 37 65 79 68 95 3 15 22 75 42 133 32
92 37 117 38 200 0 52 4 136 9 186 8 81 7 95 -13 138 -11 27 -21 51 -21 53 0
3 42 2 93 -1 298 -21 386 -30 437 -48 30 -10 111 -28 180 -39 69 -11 159 -31
200 -45 108 -37 208 -40 440 -15 107 12 204 24 215 27 26 6 35 -11 70 -131 45
-154 98 -234 180 -271 27 -13 68 -42 90 -64 44 -46 102 -80 137 -81 45 -1 139
-45 178 -83 22 -21 55 -68 73 -105 46 -93 44 -174 -7 -326 -46 -137 -191 -422
-227 -448 -24 -17 -32 -18 -75 -7 -46 11 -52 11 -96 -13 -27 -14 -60 -39 -74
-56 -14 -18 -53 -52 -85 -77 -33 -25 -59 -49 -59 -54 0 -4 24 -2 53 5 28 7 64
16 80 19 l27 7 -30 -42 c-38 -53 -38 -60 0 -46 26 10 37 8 73 -11 52 -27 52
-27 103 0 l42 22 94 -19 c87 -17 100 -17 149 -3 44 12 60 22 87 59 17 24 47
61 64 81 37 43 45 61 63 143 7 33 32 103 55 155 113 257 137 325 149 423 19
164 18 170 -53 315 -68 137 -96 235 -96 333 0 45 2 50 18 44 9 -3 38 -10 64
-15 56 -11 91 -1 201 60 59 32 86 41 128 42 109 3 218 -53 258 -130 10 -21 33
-98 51 -172 40 -166 87 -300 140 -395 22 -40 40 -79 40 -88 0 -8 -10 -28 -23
-44 -59 -73 -88 -212 -62 -297 8 -27 15 -83 16 -125 1 -121 9 -125 53 -22 37
86 39 89 62 79 18 -9 30 -6 60 11 26 16 40 19 49 11 9 -8 15 0 25 35 9 32 21
50 44 63 17 10 48 33 69 51 34 31 37 37 37 88 0 51 3 58 40 95 34 34 40 47 40
82 0 23 -11 65 -25 94 -14 30 -25 66 -25 82 0 35 -42 115 -85 160 -57 60 -93
156 -109 288 -4 29 -20 105 -37 169 -16 63 -28 117 -26 119 2 2 76 -20 164
-50 130 -43 183 -67 274 -123 63 -38 144 -86 181 -107 95 -53 160 -115 203
-194 20 -37 55 -91 76 -119 32 -43 45 -53 69 -53 37 0 50 23 50 87 -1 110 -51
363 -95 476 -8 21 -59 88 -113 150 -53 62 -128 153 -167 203 -38 49 -101 116
-140 149 -38 33 -139 131 -225 219 -146 149 -446 435 -694 662 -155 141 -335
267 -541 380 -73 40 -270 118 -351 139 -69 18 -226 20 -343 4 -151 -20 -744
12 -966 53 -54 10 -720 20 -785 12z"/>
</g>
</svg>
