<?xml version="1.0" standalone="no"?>
<!DOCTYPE svg PUBLIC "-//W3C//DTD SVG 20010904//EN"
 "http://www.w3.org/TR/2001/REC-SVG-20010904/DTD/svg10.dtd">
<svg version="1.0" xmlns="http://www.w3.org/2000/svg"
 width="869.000000pt" height="1536.000000pt" viewBox="0 0 869.000000 1536.000000"
 preserveAspectRatio="xMidYMid meet">
<metadata>
Created by potrace 1.16, written by Peter Selinger 2001-2019
</metadata>
<g transform="translate(0.000000,1536.000000) scale(0.100000,-0.100000)"
fill="#000000" stroke="none">
<path d="M1875 15351 c-23 -10 -161 -27 -189 -23 -11 1 -35 -3 -54 -9 -26 -9
-31 -14 -21 -21 11 -7 9 -8 -5 -4 -10 4 -38 -4 -65 -18 -25 -13 -67 -30 -94
-36 -26 -7 -50 -17 -53 -21 -3 -5 -18 -9 -34 -9 -31 0 -80 -19 -80 -30 0 -4
-15 -13 -32 -20 -85 -32 -140 -63 -167 -98 -66 -81 -104 -136 -122 -179 -10
-24 -23 -42 -28 -39 -4 3 -16 -16 -26 -42 -10 -26 -24 -51 -32 -55 -7 -4 -13
-14 -13 -22 0 -8 -8 -22 -19 -32 -10 -10 -19 -33 -19 -51 -1 -40 -30 -123 -49
-138 -7 -6 -13 -19 -13 -29 0 -21 -33 -64 -68 -87 -25 -16 -41 -58 -23 -58 11
0 26 -39 23 -60 -1 -9 24 -32 58 -55 49 -32 60 -44 57 -62 -3 -15 1 -23 9 -23
16 0 19 -36 4 -45 -6 -4 -7 -13 -2 -22 13 -22 -4 -98 -33 -157 -44 -88 -26
-193 40 -226 17 -8 33 -19 37 -25 16 -21 7 -114 -16 -176 -13 -35 -29 -97 -35
-138 -6 -40 -16 -82 -22 -93 -9 -16 -7 -26 10 -49 17 -23 19 -33 11 -48 -12
-23 -13 -71 -2 -86 4 -6 21 -21 38 -33 18 -12 56 -51 85 -87 31 -39 74 -78
104 -95 27 -16 74 -47 104 -69 50 -37 59 -40 107 -38 60 4 119 38 161 94 21
28 117 93 137 93 3 0 6 -10 6 -23 0 -26 48 -107 90 -152 32 -33 173 -304 189
-360 12 -44 9 -54 -80 -250 -170 -379 -211 -595 -171 -911 8 -63 12 -71 69
-136 55 -63 71 -121 114 -398 12 -74 25 -159 29 -189 11 -66 65 -181 155 -326
58 -95 70 -122 86 -199 18 -88 34 -124 43 -95 2 8 6 21 9 29 2 8 16 -25 31
-75 15 -49 50 -157 77 -240 28 -82 57 -178 66 -211 l16 -61 -76 -105 c-92
-127 -190 -234 -266 -292 -123 -94 -325 -199 -616 -321 -77 -32 -158 -72 -180
-90 -22 -17 -75 -47 -117 -67 -195 -92 -357 -250 -425 -413 -10 -25 -24 -45
-31 -45 -8 0 -27 -13 -43 -29 -36 -37 -41 -104 -9 -143 l19 -25 -34 -64 c-41
-77 -46 -140 -14 -209 25 -56 54 -88 97 -105 18 -8 32 -21 32 -30 0 -32 33
-86 61 -100 39 -21 108 -19 154 5 l39 20 26 -25 c51 -49 144 -54 180 -10 10
12 18 11 51 -7 68 -35 105 -23 204 67 89 80 151 155 227 270 55 84 72 134 63
181 -4 25 -1 43 9 59 20 30 97 76 144 86 21 4 99 30 174 57 113 41 160 65 259
131 106 71 455 258 464 249 2 -2 7 -28 13 -58 l10 -55 2 45 2 45 8 -40 c5 -22
9 -65 11 -95 l2 -55 -238 -235 c-452 -448 -697 -740 -877 -1044 -42 -70 -105
-157 -149 -206 -152 -170 -215 -259 -288 -404 -61 -120 -75 -159 -97 -261 -48
-225 -101 -430 -132 -507 -30 -75 -31 -77 -19 -155 12 -76 12 -82 -25 -231
-21 -85 -45 -202 -53 -261 -18 -124 -17 -138 81 -686 41 -230 63 -387 84 -610
50 -524 53 -555 62 -555 11 0 10 214 -1 226 -5 5 -6 27 -1 49 l8 40 1 -48 c1
-29 5 -46 11 -42 7 4 10 -56 11 -172 0 -112 7 -226 19 -308 l18 -130 2 90 c1
50 5 113 9 140 l7 50 6 -60 c4 -34 2 -107 -6 -170 -12 -102 -12 -124 9 -300
13 -104 26 -230 30 -280 9 -135 16 -175 26 -150 4 11 9 36 10 55 1 19 7 -21
13 -90 11 -114 13 -122 23 -90 l11 35 1 -51 c1 -28 -2 -54 -6 -58 -4 -4 -8
-61 -8 -127 0 -110 1 -115 11 -71 10 38 12 41 12 17 1 -16 -7 -48 -18 -70 -11
-22 -19 -52 -20 -67 0 -14 -9 -65 -21 -113 -11 -48 -18 -90 -14 -93 8 -8 35
21 39 44 3 10 18 48 36 84 l31 65 -6 -74 c-21 -250 -180 -480 -426 -615 -37
-20 -113 -54 -170 -75 -57 -21 -139 -53 -182 -70 -83 -33 -257 -81 -367 -102
-113 -22 -185 -112 -147 -186 61 -118 375 -270 597 -289 55 -5 95 2 255 39
172 41 196 44 249 35 38 -5 69 -5 85 1 59 22 99 25 386 26 333 2 408 11 521
64 232 109 294 407 167 806 -55 174 -85 331 -75 401 6 42 0 163 -20 404 -49
585 -34 720 97 890 115 150 145 280 145 643 0 445 -92 922 -231 1200 -18 35
-25 57 -17 57 22 0 291 137 383 195 50 31 131 87 181 125 l92 69 5 -34 c13
-79 28 -276 36 -485 14 -309 44 -420 156 -568 44 -59 158 -157 215 -187 20
-10 132 -14 515 -16 469 -2 494 -1 590 19 320 69 705 251 1171 553 169 110
177 114 255 129 31 6 90 27 130 47 41 20 110 51 154 69 92 39 77 42 -60 14
-111 -23 -123 -24 -109 -10 5 5 43 16 84 25 102 21 250 66 250 77 0 4 -19 8
-42 9 -24 0 -51 4 -62 8 -15 6 -11 9 20 18 22 6 46 11 54 10 18 0 318 132 326
144 3 5 -65 -16 -152 -46 -86 -30 -168 -55 -183 -55 l-26 0 23 18 c23 18 63
34 297 119 146 53 148 67 5 28 -123 -32 -146 -33 -100 -1 21 13 64 28 105 35
39 6 106 19 150 29 l80 17 -105 5 c-88 4 -102 7 -84 17 11 7 61 17 110 23 109
14 134 19 134 32 0 6 -16 7 -37 4 -21 -3 -63 -7 -93 -10 -50 -5 -46 -3 35 18
106 27 125 35 125 48 0 6 -15 8 -37 4 -21 -3 25 20 101 51 l140 58 -63 5 -63
5 69 37 c108 57 151 66 273 57 205 -15 374 -81 527 -203 79 -64 295 -300 341
-374 13 -20 70 -131 127 -247 59 -120 119 -227 139 -250 l36 -40 31 35 c17 19
78 105 135 191 102 153 104 158 104 214 0 60 -15 84 -80 127 l-25 16 42 7 c54
9 93 44 93 84 0 61 -39 123 -90 143 l-25 10 28 14 c22 12 27 21 27 52 0 67
-52 112 -131 112 -35 0 -40 2 -34 18 4 9 10 51 12 92 5 71 3 78 -26 121 -34
51 -95 101 -254 209 -186 125 -231 175 -294 319 -73 168 -190 325 -291 390
-27 17 -78 38 -114 47 -114 28 -209 -6 -436 -154 -95 -62 -136 -83 -180 -92
-137 -27 -195 -54 -457 -210 -220 -131 -289 -166 -363 -185 -31 -8 -230 -39
-442 -70 -529 -77 -776 -121 -852 -150 -33 -13 -21 70 47 325 65 246 94 376
115 525 12 85 15 456 4 565 l-6 65 96 49 c279 141 443 419 477 808 22 262 -27
444 -173 634 -30 38 -66 98 -81 134 -42 96 -136 233 -302 440 -82 101 -180
232 -218 290 -170 258 -275 553 -292 825 -3 55 -13 147 -21 204 -8 58 -14 128
-14 157 0 114 -71 572 -146 944 -94 465 -194 814 -287 1000 -28 58 -51 113
-49 123 1 11 -7 21 -22 27 -29 11 -71 66 -56 75 15 9 2 25 -19 25 -23 0 -75
71 -59 81 15 9 1 29 -21 29 -27 0 -40 20 -34 51 5 26 2 30 -25 35 -28 6 -102
71 -102 91 0 4 -9 14 -21 21 -16 10 -18 16 -9 27 9 10 5 15 -18 20 -16 3 -42
19 -57 35 -28 29 -28 30 -6 30 12 0 19 4 16 10 -3 6 -21 10 -38 10 -30 0 -80
32 -131 83 -10 9 -24 17 -32 17 -19 0 -18 17 3 29 19 10 22 8 -52 25 -19 4
-19 4 3 11 21 7 18 11 -35 46 -47 31 -64 37 -90 33 -28 -5 -33 -3 -33 13 0 36
-34 56 -85 50 -45 -7 -45 -7 -45 24 0 41 -15 65 -44 73 -18 4 -26 14 -28 34
-2 22 -7 26 -26 24 -12 -2 -34 6 -48 17 -31 24 -66 28 -58 7 3 -8 0 -17 -6
-21 -7 -4 -10 -1 -9 6 4 19 -10 59 -21 59 -4 0 -7 13 -6 30 0 16 -3 29 -9 29
-5 0 -9 -7 -7 -15 2 -8 -5 -14 -15 -14 -10 0 -14 4 -8 8 15 10 18 71 5 87 -7
9 -8 15 0 20 17 10 11 25 -10 25 -18 0 -19 3 -10 21 7 12 8 25 2 32 -5 7 -14
45 -21 85 -7 39 -17 72 -22 72 -5 0 -9 16 -9 35 0 20 -7 47 -16 60 -15 23 -15
27 0 50 12 18 19 58 23 128 4 72 11 109 23 127 20 30 32 70 20 70 -5 0 -11
-12 -13 -27 -4 -28 -4 -28 -6 3 0 16 -6 35 -13 42 -7 7 -8 12 -2 12 5 0 9 21
8 48 -1 70 -2 72 -26 73 l-23 0 23 11 c25 13 28 44 7 72 -8 11 -15 28 -15 39
0 10 -16 33 -35 51 -31 30 -35 39 -35 85 0 44 -4 56 -26 74 -15 12 -48 42 -74
67 -25 25 -68 63 -94 85 -27 22 -62 54 -78 70 -17 17 -27 23 -24 15 5 -9 2 -8
-7 3 -8 9 -20 17 -27 17 -7 0 -18 7 -24 15 -6 9 -27 17 -46 18 -19 2 -48 10
-65 19 -36 18 -152 31 -180 19z m137 -23 c-9 -9 -15 -9 -24 0 -9 9 -7 12 12
12 19 0 21 -3 12 -12z m-342 -18 c-8 -5 -22 -9 -30 -9 -10 0 -8 3 5 9 27 12
43 12 25 0z m425 -30 c3 -6 -1 -7 -9 -4 -18 7 -21 14 -7 14 6 0 13 -4 16 -10z
m-756 -84 c-2 -2 -15 -9 -29 -15 -24 -11 -24 -11 -6 3 16 13 49 24 35 12z
m-195 -101 c-4 -8 -14 -15 -23 -15 -14 1 -13 3 3 15 25 19 27 19 20 0z m1365
-124 c0 -14 -1 -14 -6 -1 -3 8 -10 24 -15 35 -9 20 -9 20 6 1 9 -11 16 -27 15
-35z m71 -140 c0 -6 -4 -13 -10 -16 -5 -3 -10 1 -10 9 0 9 5 16 10 16 6 0 10
-4 10 -9z m10 -81 c0 -5 -4 -10 -10 -10 -5 0 -10 5 -10 10 0 6 5 10 10 10 6 0
10 -4 10 -10z m30 -210 c0 -5 -5 -10 -11 -10 -5 0 -7 5 -4 10 3 6 8 10 11 10
2 0 4 -4 4 -10z m-10 -30 c0 -5 -2 -10 -4 -10 -3 0 -8 5 -11 10 -3 6 -1 10 4
10 6 0 11 -4 11 -10z m0 -460 c0 -5 -2 -10 -4 -10 -3 0 -8 5 -11 10 -3 6 -1
10 4 10 6 0 11 -4 11 -10z m7 -132 c-3 -8 -6 -5 -6 6 -1 11 2 17 5 13 3 -3 4
-12 1 -19z m20 -30 c-3 -8 -6 -5 -6 6 -1 11 2 17 5 13 3 -3 4 -12 1 -19z m28
-48 c-3 -5 -15 -10 -26 -10 -11 0 -17 5 -14 10 3 6 15 10 26 10 11 0 17 -4 14
-10z m132 -227 c-3 -3 -11 -2 -17 2 -9 6 -9 10 1 16 14 8 27 -7 16 -18z m63
-12 c0 -14 -18 -23 -31 -15 -8 4 -7 9 2 15 18 11 29 11 29 0z m27 -112 c-15
-25 -37 -25 -37 0 0 20 17 31 37 24 9 -4 9 -9 0 -24z m173 -68 c0 -12 -20 -25
-27 -18 -7 7 6 27 18 27 5 0 9 -4 9 -9z m70 -61 c0 -5 -7 -7 -15 -4 -8 4 -15
8 -15 10 0 2 7 4 15 4 8 0 15 -4 15 -10z m125 -78 c-3 -3 -11 0 -18 7 -9 10
-8 11 6 5 10 -3 15 -9 12 -12z m435 -394 c0 -6 -6 -5 -15 2 -8 7 -15 14 -15
16 0 2 7 1 15 -2 8 -4 15 -11 15 -16z m-1629 -2937 l-5 -26 -7 30 c-4 17 -7
39 -7 50 -1 18 0 18 12 -4 7 -12 10 -35 7 -50z m687 -1573 c6 -18 9 -44 7 -58
-4 -20 -4 -21 3 -6 8 18 10 16 20 -14 17 -49 15 -64 -14 -91 l-27 -24 7 55 c8
62 1 64 -13 4 -7 -33 -9 -22 -10 64 -1 56 3 102 7 102 4 0 13 -15 20 -32z
m3572 -3592 c0 -2 -7 -7 -16 -10 -8 -3 -12 -2 -9 4 6 10 25 14 25 6z m-162
-211 c1 -1 -45 -14 -104 -29 -59 -15 -108 -25 -111 -22 -5 5 48 43 78 55 20 8
126 4 137 -4z m-311 -131 c-3 -3 -12 -4 -19 -1 -8 3 -5 6 6 6 11 1 17 -2 13
-5z m-4635 -2386 c-9 -32 -10 -31 -10 22 -1 46 1 52 10 33 8 -16 8 -32 0 -55z
m79 -640 c-25 -56 -29 -18 -4 44 14 35 19 39 21 21 2 -12 -6 -41 -17 -65z
m-31 -72 c0 -8 -4 -18 -10 -21 -5 -3 -10 3 -10 14 0 12 5 21 10 21 6 0 10 -6
10 -14z"/>
</g>
</svg>
