<?xml version="1.0" standalone="no"?>
<!DOCTYPE svg PUBLIC "-//W3C//DTD SVG 20010904//EN"
 "http://www.w3.org/TR/2001/REC-SVG-20010904/DTD/svg10.dtd">
<svg version="1.0" xmlns="http://www.w3.org/2000/svg"
 width="1536.000000pt" height="826.000000pt" viewBox="0 0 1536.000000 826.000000"
 preserveAspectRatio="xMidYMid meet">
<metadata>
Created by potrace 1.16, written by Peter Selinger 2001-2019
</metadata>
<g transform="translate(0.000000,826.000000) scale(0.100000,-0.100000)"
fill="#000000" stroke="none">
<path d="M5086 8244 c-9 -9 -16 -32 -16 -55 0 -24 -5 -42 -14 -45 -7 -3 -98 4
-201 15 -236 26 -291 27 -304 4 -8 -15 -12 -12 -32 22 -18 29 -25 35 -27 22
-5 -28 -61 -50 -137 -55 -65 -4 -73 -2 -102 22 -31 26 -32 26 -35 5 -2 -13
-18 -31 -38 -42 -19 -11 -64 -45 -100 -77 -113 -100 -176 -122 -220 -75 -27
29 -40 24 -111 -42 -26 -24 -57 -46 -69 -48 -13 -2 -30 -11 -39 -19 -9 -8 -36
-16 -61 -18 -37 -2 -46 -7 -48 -25 -2 -12 -9 -26 -15 -31 -7 -5 -95 -26 -197
-47 -102 -20 -198 -44 -215 -54 -16 -9 -38 -34 -48 -55 -10 -21 -89 -111 -176
-201 -112 -115 -166 -179 -185 -218 -27 -54 -27 -55 -9 -92 l18 -37 -33 -58
c-17 -32 -32 -65 -32 -73 0 -8 -44 -49 -98 -90 -124 -96 -166 -140 -167 -174
0 -23 -5 -28 -28 -30 -29 -2 -83 -37 -126 -83 -37 -38 -68 -117 -80 -200 -15
-103 -66 -205 -133 -264 -28 -26 -96 -70 -151 -98 -84 -43 -104 -58 -128 -97
-16 -24 -29 -54 -29 -65 -1 -37 -27 -70 -86 -111 -75 -52 -110 -103 -130 -190
-23 -102 -39 -143 -88 -225 -24 -40 -42 -78 -40 -85 7 -18 -95 -108 -204 -179
-71 -46 -103 -73 -108 -90 -8 -33 -32 -52 -76 -60 -23 -4 -42 -16 -52 -31 -9
-14 -25 -25 -35 -25 -11 0 -26 -3 -35 -6 -14 -5 -14 -8 -1 -27 24 -35 18 -45
-45 -77 -69 -35 -80 -51 -80 -117 0 -60 -6 -68 -52 -77 -25 -4 -44 -17 -63
-41 -57 -76 -217 -125 -469 -145 -71 -5 -131 -12 -134 -14 -2 -3 1 -37 7 -78
22 -141 105 -279 273 -453 54 -56 98 -109 98 -117 0 -8 13 -24 30 -36 36 -27
55 -62 74 -136 18 -67 12 -94 -43 -185 -48 -82 -57 -109 -76 -244 -8 -59 -19
-115 -24 -125 -10 -19 -1 -49 38 -124 l24 -46 -26 -31 c-22 -27 -24 -34 -15
-64 9 -30 6 -45 -27 -123 -72 -174 -68 -150 -55 -344 15 -228 15 -231 50 -275
22 -27 30 -49 30 -77 0 -21 11 -65 24 -98 31 -76 39 -110 42 -190 1 -36 7 -96
13 -135 8 -51 9 -116 1 -237 -12 -185 -28 -262 -68 -327 -57 -91 -56 -89 -62
-257 -4 -121 -9 -165 -20 -179 -13 -16 -10 -22 42 -70 82 -76 203 -152 278
-175 36 -11 106 -27 155 -36 120 -21 202 -13 317 31 49 19 94 32 99 29 5 -3 9
-18 9 -33 0 -74 93 -122 250 -129 91 -4 113 -1 165 18 77 29 180 58 227 65 48
7 94 53 109 108 6 23 26 87 44 142 18 55 47 162 64 239 34 151 52 200 99 264
35 50 48 103 57 229 6 94 20 153 36 153 5 0 9 23 9 50 0 31 8 66 20 90 12 24
20 59 20 91 0 46 4 55 39 90 24 25 48 39 64 39 31 0 37 15 37 101 0 89 10 109
56 109 41 0 74 15 74 34 0 13 59 42 135 66 74 23 95 38 95 68 0 15 9 42 20 60
25 40 25 42 1 42 -27 0 -51 37 -51 78 0 42 18 49 69 23 71 -37 153 -21 103 20
-30 23 -28 31 12 53 18 10 39 30 46 44 26 57 36 336 14 439 -5 28 -3 33 13 33
50 0 231 157 266 233 13 27 24 37 42 37 43 0 53 21 47 104 -6 103 1 126 38
126 22 0 30 5 30 18 0 31 34 52 100 63 73 12 80 15 80 35 0 9 11 34 25 58 20
35 24 53 23 111 -2 86 19 131 117 250 36 44 70 95 75 114 18 65 199 276 219
256 10 -11 45 -215 85 -495 52 -361 60 -463 60 -755 0 -324 -8 -389 -79 -600
-56 -165 -72 -235 -95 -415 -10 -80 -30 -219 -44 -310 -13 -91 -30 -212 -36
-270 -30 -285 -64 -335 -254 -373 -118 -24 -276 -105 -276 -141 0 -15 -21 -26
-50 -26 -22 0 -55 -39 -93 -110 -22 -41 -32 -51 -48 -47 -29 8 -42 -26 -37
-98 6 -67 28 -119 58 -135 11 -6 53 -15 95 -20 91 -12 122 -27 200 -98 60 -54
123 -91 158 -92 10 0 37 20 61 45 33 34 52 45 74 45 18 0 43 10 59 24 35 29
70 39 238 66 202 32 252 67 274 191 5 33 19 75 30 92 29 49 68 184 96 330 31
168 42 205 127 417 88 219 108 276 108 312 0 31 11 36 30 13 37 -44 68 14 100
185 12 63 41 203 65 310 52 229 71 367 81 579 7 165 13 202 32 209 8 2 12 -13
12 -50 0 -36 7 -65 23 -92 25 -45 47 -58 47 -27 0 26 12 27 33 3 27 -30 37
-112 47 -382 14 -362 23 -437 87 -730 48 -218 51 -355 10 -502 -35 -130 -69
-200 -167 -348 -123 -186 -135 -197 -259 -226 -126 -28 -285 -155 -355 -283
-27 -51 -56 -174 -56 -239 0 -50 20 -84 53 -93 15 -4 46 -24 67 -43 29 -26 49
-36 74 -36 18 0 72 -7 120 -15 67 -12 96 -13 128 -4 86 22 102 22 122 0 24
-26 40 -26 76 -1 35 25 96 36 262 49 70 5 137 15 150 22 13 6 44 31 69 54 48
45 107 65 192 65 23 0 59 5 80 11 33 9 42 18 59 57 21 48 22 115 2 298 -6 55
-4 63 16 82 12 11 22 31 22 44 -1 13 -4 104 -8 203 -8 222 6 318 66 440 62
129 138 519 140 720 1 82 13 145 31 156 11 6 9 16 -9 47 -12 21 -19 42 -16 45
3 3 12 78 19 166 10 119 19 172 35 208 l21 47 -23 31 c-16 21 -23 48 -26 92
-5 79 1 105 30 118 30 14 36 42 43 218 8 174 20 265 41 288 28 31 35 86 45
322 5 131 13 256 19 278 12 42 64 109 85 109 7 0 41 -9 75 -20 79 -25 137 -25
245 0 94 22 200 26 255 10 113 -34 438 -94 720 -135 176 -25 249 -47 323 -96
32 -21 62 -31 95 -34 68 -5 98 -11 321 -61 277 -63 405 -84 577 -94 82 -4 178
-14 212 -21 60 -11 64 -11 86 10 21 20 30 21 100 15 51 -5 76 -3 76 4 0 44
111 58 173 22 19 -11 52 -21 73 -23 38 -2 39 -1 39 32 0 61 40 50 75 -19 52
-103 224 -261 420 -388 145 -94 140 -89 111 -111 l-24 -19 26 -43 c14 -24 72
-93 128 -154 138 -148 199 -223 216 -263 8 -19 23 -36 33 -39 11 -3 24 -19 30
-37 5 -17 40 -76 76 -131 141 -214 204 -394 205 -586 1 -132 -11 -163 -91
-239 -38 -36 -76 -80 -85 -98 -16 -33 -36 -45 -86 -56 -15 -3 -55 -26 -89 -52
-78 -57 -120 -72 -223 -80 -118 -9 -229 -37 -328 -83 -47 -21 -104 -44 -127
-50 -69 -19 -222 -147 -222 -187 0 -8 -15 -28 -33 -44 -38 -33 -83 -121 -74
-144 5 -11 20 -16 52 -16 41 0 46 -2 59 -34 16 -38 80 -95 168 -148 76 -47
116 -49 259 -12 113 29 190 29 304 -1 89 -23 117 -36 111 -51 -6 -15 10 -20
93 -28 30 -3 62 -13 72 -22 14 -13 34 -15 91 -12 84 4 159 36 192 80 18 26 19
29 3 46 -23 26 -22 29 13 24 51 -7 100 8 139 44 48 43 131 161 179 257 31 60
42 73 64 75 26 3 27 5 22 50 -4 36 0 54 15 79 21 33 146 133 167 133 36 0 120
140 131 216 5 38 10 47 37 58 102 43 300 386 283 491 -7 44 -46 140 -133 328
-40 86 -69 157 -64 157 4 0 32 -11 62 -25 29 -14 63 -25 76 -25 15 0 26 -8 32
-25 6 -15 21 -27 42 -33 26 -7 32 -14 31 -30 -2 -16 4 -23 25 -28 51 -13 104
-45 250 -156 175 -131 238 -191 297 -279 50 -75 110 -198 120 -246 5 -26 2
-34 -15 -43 -20 -10 -20 -16 -14 -115 6 -94 5 -106 -15 -138 -11 -19 -21 -45
-21 -59 0 -14 -18 -46 -46 -78 -52 -61 -84 -119 -84 -153 0 -26 -28 -57 -52
-57 -26 0 -67 -40 -114 -110 -53 -82 -110 -116 -175 -107 -31 4 -46 0 -76 -22
-57 -42 -133 -128 -133 -150 0 -14 -11 -25 -33 -34 -45 -19 -120 -106 -158
-182 -43 -88 -38 -98 106 -181 44 -26 99 -64 122 -85 54 -49 173 -109 217
-109 18 0 78 16 132 36 134 48 198 50 253 6 45 -36 53 -38 84 -17 12 8 58 18
102 23 90 11 126 23 206 75 30 19 73 42 94 52 54 22 82 50 116 116 15 32 40
66 54 77 18 15 25 29 25 56 0 22 7 43 18 54 13 13 21 40 25 88 15 185 56 308
198 609 146 306 135 278 99 270 -38 -8 -40 9 -5 56 59 82 67 114 90 344 8 83
17 175 21 205 5 51 3 60 -33 120 -26 44 -87 114 -189 215 -198 196 -236 258
-289 461 -37 141 -49 273 -41 454 7 170 26 281 55 321 23 31 38 104 46 224 10
143 25 236 50 295 12 30 26 84 29 120 12 108 45 253 63 272 22 24 89 25 101 1
5 -10 12 -63 15 -118 8 -129 33 -270 64 -365 19 -59 26 -108 32 -230 8 -145
11 -161 44 -246 45 -115 83 -311 97 -510 8 -125 14 -154 31 -178 14 -18 24
-54 30 -103 6 -41 23 -109 40 -151 17 -42 53 -162 79 -267 89 -350 157 -526
373 -965 140 -284 214 -416 265 -475 17 -18 47 -64 67 -102 112 -205 208 -322
291 -353 73 -27 102 -26 109 3 13 49 -26 119 -199 362 -47 66 -91 138 -97 160
-17 59 -104 250 -149 327 -24 39 -45 91 -51 123 -13 73 -34 131 -58 160 -12
16 -21 50 -26 92 -9 90 -22 141 -61 243 -92 240 -165 650 -224 1260 -17 173
-40 366 -51 428 -28 156 -30 247 -6 264 18 13 17 16 -13 65 l-31 51 -10 198
c-5 110 -13 451 -19 759 -6 308 -15 580 -19 605 -5 25 -27 88 -49 140 -21 52
-60 154 -86 225 -26 72 -80 198 -121 282 -64 130 -81 157 -125 194 -27 23 -50
47 -50 54 0 20 -151 194 -292 336 -212 213 -361 323 -504 375 -51 19 -85 24
-159 24 -101 0 -111 5 -106 52 2 25 0 27 -45 30 -41 3 -50 7 -64 32 -10 19
-40 42 -86 65 -38 20 -83 46 -98 59 -35 27 -42 27 -49 2 -7 -27 -40 -26 -103
4 -72 33 -133 92 -160 152 -18 40 -30 54 -56 64 -19 7 -124 15 -248 19 -270 9
-274 11 -335 135 -27 54 -34 62 -68 70 -41 9 -154 -4 -197 -23 -14 -6 -36 -20
-50 -31 -14 -11 -42 -23 -61 -26 -30 -5 -41 -1 -71 25 -38 33 -96 50 -170 51
-55 0 -58 -7 -23 -40 32 -30 31 -36 -5 -49 -33 -11 -35 -10 -73 48 -26 41 -83
72 -129 72 -18 0 -52 -1 -74 -1 -23 -1 -69 6 -103 15 -96 25 -248 45 -340 45
-71 0 -82 -2 -77 -15 4 -10 -2 -19 -17 -24 -38 -15 -205 -32 -234 -25 -16 4
-49 26 -75 50 -37 35 -55 44 -83 44 -20 0 -46 7 -58 15 -20 13 -28 13 -71 0
-27 -8 -62 -15 -77 -15 -54 0 -130 -22 -158 -46 -23 -19 -40 -24 -83 -24 -30
0 -94 -9 -143 -20 -50 -10 -121 -22 -160 -25 -90 -9 -164 -29 -239 -67 -53
-27 -63 -29 -96 -19 -21 6 -102 11 -181 11 -205 0 -264 11 -391 71 l-106 50
-99 -7 c-85 -5 -106 -3 -158 15 -34 12 -72 34 -88 51 -27 28 -32 30 -105 29
-42 0 -85 -4 -95 -8 -17 -6 -17 -8 2 -25 12 -11 21 -29 21 -42 0 -28 -20 -74
-32 -74 -5 0 -33 22 -62 50 -53 50 -66 53 -66 18 0 -30 -23 -31 -123 -4 -120
33 -136 33 -182 -4 -20 -16 -51 -32 -69 -34 -17 -3 -51 -8 -75 -11 -25 -3 -78
-19 -119 -35 -40 -17 -82 -30 -93 -30 -11 0 -37 13 -57 30 -59 47 -204 129
-240 136 -24 5 -58 -2 -120 -25 -102 -36 -123 -38 -147 -11 -25 28 -35 25 -35
-9 0 -17 -4 -32 -10 -36 -5 -3 -55 4 -111 15 -60 12 -128 20 -168 18 -57 -3
-66 -6 -70 -23 -5 -27 -19 -35 -68 -35 -33 0 -48 6 -73 31 -23 24 -34 29 -43
20 -36 -36 -240 18 -320 85 -33 28 -78 31 -101 8z"/>
</g>
</svg>
