<?xml version="1.0" standalone="no"?>
<!DOCTYPE svg PUBLIC "-//W3C//DTD SVG 20010904//EN"
 "http://www.w3.org/TR/2001/REC-SVG-20010904/DTD/svg10.dtd">
<svg version="1.0" xmlns="http://www.w3.org/2000/svg"
 width="4727.000000pt" height="1528.000000pt" viewBox="0 0 4727.000000 1528.000000"
 preserveAspectRatio="xMidYMid meet">
<metadata>
Created by potrace 1.16, written by Peter Selinger 2001-2019
</metadata>
<g transform="translate(0.000000,1528.000000) scale(0.100000,-0.100000)"
fill="#000000" stroke="none">
<path d="M20275 15246 c-392 -105 -1027 -382 -1915 -833 -999 -507 -1718 -914
-2170 -1226 -510 -353 -919 -723 -1062 -961 l-36 -60 -248 -88 c-137 -49 -355
-125 -484 -169 -294 -102 -420 -148 -950 -349 -234 -89 -571 -216 -750 -282
-510 -189 -753 -305 -1053 -505 -159 -106 -433 -309 -637 -474 -165 -132 -205
-160 -341 -233 -150 -80 -731 -347 -801 -367 -245 -70 -687 -306 -878 -468
-30 -26 -89 -66 -130 -91 -41 -24 -192 -118 -335 -208 -335 -213 -512 -311
-743 -412 -310 -136 -520 -250 -867 -470 -259 -165 -837 -425 -1275 -573 -208
-71 -1263 -352 -1765 -471 -209 -49 -1001 -224 -1410 -310 -1423 -301 -1744
-383 -2020 -515 -211 -101 -310 -177 -358 -276 -32 -65 -38 -113 -26 -183 42
-224 258 -316 774 -329 175 -4 260 -1 510 21 328 29 958 90 1405 136 1107 115
1863 172 2775 211 651 27 1352 -36 1869 -170 338 -88 505 -119 816 -151 335
-35 446 -57 925 -180 149 -38 304 -77 345 -85 41 -9 104 -27 139 -41 76 -31
315 -87 461 -109 149 -22 396 -30 501 -16 77 10 114 8 319 -14 435 -48 480
-62 877 -269 607 -315 768 -385 1188 -516 300 -93 386 -126 950 -368 659 -282
718 -306 1030 -411 l269 -91 56 -83 c72 -107 166 -212 308 -338 538 -484 1147
-863 2387 -1486 1049 -527 1837 -875 2311 -1021 201 -62 274 -76 368 -69 100
7 136 18 206 59 141 85 212 313 196 633 -23 481 -182 875 -523 1298 -72 88
-98 127 -86 127 10 0 133 -11 273 -25 572 -55 1020 -90 1725 -135 469 -29 932
-42 1670 -47 817 -6 1011 -1 1655 38 1466 88 2346 178 3759 386 l523 77 72
-37 c90 -47 181 -120 244 -195 27 -33 93 -131 147 -218 474 -765 834 -1141
1555 -1621 597 -397 1099 -624 1472 -664 176 -20 376 11 514 78 186 90 321
261 386 488 19 68 23 104 23 235 0 138 -3 167 -29 265 -118 459 -420 817
-1231 1460 -426 338 -532 424 -581 477 -46 48 -93 118 -79 118 32 0 741 110
1130 175 605 101 633 105 1055 150 508 54 946 111 1240 161 146 25 384 65 530
89 294 50 338 58 790 151 456 95 1066 254 1608 421 136 41 312 95 392 118 190
56 580 179 700 221 52 18 185 61 295 94 387 118 1162 373 1375 452 118 44 253
94 300 110 331 117 804 335 1070 493 508 302 874 606 1162 965 42 52 150 199
239 327 148 208 375 513 645 863 93 122 311 440 428 627 l58 93 126 79 c70 43
282 173 472 288 592 360 933 579 1067 686 97 79 108 139 25 145 -60 5 -244
-69 -641 -257 -106 -51 -196 -90 -199 -86 -3 3 -7 30 -10 59 -3 40 3 79 22
143 14 48 51 192 81 318 82 339 135 492 268 770 124 260 136 291 226 590 133
440 161 571 161 749 0 119 -14 232 -32 253 -17 21 -56 15 -72 -9 -13 -21 -73
-204 -166 -508 -18 -58 -69 -202 -114 -320 -46 -118 -97 -255 -115 -305 -45
-123 -215 -445 -378 -715 -38 -63 -86 -145 -106 -182 -53 -94 -134 -200 -288
-375 -313 -353 -401 -444 -558 -569 -227 -182 -326 -236 -628 -343 -209 -73
-283 -93 -478 -128 -141 -25 -168 -27 -455 -27 -168 0 -458 4 -645 8 -378 10
-470 5 -809 -44 -342 -50 -1147 -226 -1601 -350 -551 -152 -1037 -247 -1675
-330 -749 -97 -2831 -108 -3905 -19 -630 52 -1021 123 -1730 315 -107 29 -395
113 -442 129 -10 3 -10 10 -1 32 43 98 130 157 623 421 690 368 1024 586 1284
837 155 149 244 268 326 435 82 166 116 305 117 468 0 346 -171 601 -482 721
-392 151 -967 53 -1800 -307 -817 -354 -1261 -677 -1864 -1355 -92 -104 -186
-200 -225 -228 -70 -52 -235 -139 -264 -139 -21 0 -442 187 -1157 513 -1379
628 -2131 946 -2940 1240 -1343 489 -1999 700 -2920 937 -1207 311 -2532 527
-3533 576 -76 4 -136 10 -135 14 2 5 74 84 161 177 177 191 301 342 399 488
255 383 369 740 371 1165 2 374 -85 572 -278 635 -27 9 -90 18 -140 21 -74 4
-106 0 -180 -20z"/>
</g>
</svg>
