<?xml version="1.0" standalone="no"?>
<!DOCTYPE svg PUBLIC "-//W3C//DTD SVG 20010904//EN"
 "http://www.w3.org/TR/2001/REC-SVG-20010904/DTD/svg10.dtd">
<svg version="1.0" xmlns="http://www.w3.org/2000/svg"
 width="1536.000000pt" height="656.000000pt" viewBox="0 0 1536.000000 656.000000"
 preserveAspectRatio="xMidYMid meet">
<metadata>
Created by potrace 1.16, written by Peter Selinger 2001-2019
</metadata>
<g transform="translate(0.000000,656.000000) scale(0.100000,-0.100000)"
fill="#000000" stroke="none">
<path d="M3060 6492 c-19 -16 -46 -35 -59 -41 -35 -19 -46 0 -19 35 l22 29
-25 -22 c-14 -13 -29 -23 -33 -23 -4 0 -16 -9 -28 -19 -14 -14 -26 -17 -41
-12 -20 8 -86 -19 -123 -50 -11 -9 -14 -8 -14 3 0 20 -47 15 -63 -7 -11 -14
-17 -16 -35 -6 -18 10 -25 8 -43 -10 -17 -17 -29 -20 -60 -16 -28 4 -39 1 -39
-8 0 -21 -52 -49 -94 -51 -28 -2 -45 -10 -61 -28 -12 -14 -32 -26 -43 -26 -11
0 -23 -4 -27 -10 -3 -5 -12 -7 -21 -3 -8 3 -23 -4 -34 -17 -13 -15 -26 -21
-40 -17 -13 3 -23 0 -27 -9 -3 -9 -13 -12 -24 -9 -12 4 -30 -2 -46 -14 -15
-13 -34 -19 -45 -16 -10 4 -18 2 -18 -3 0 -6 -20 -20 -45 -32 -25 -12 -45 -26
-45 -31 0 -5 -4 -9 -10 -9 -5 0 -33 -22 -62 -50 -64 -60 -94 -75 -186 -94 -62
-14 -112 -31 -164 -57 -10 -5 -23 -9 -30 -9 -6 0 -19 -7 -29 -16 -14 -13 -26
-14 -63 -6 -40 8 -46 7 -51 -9 -9 -28 -19 -24 -71 34 -41 45 -38 39 14 -33 12
-16 9 -17 -33 -15 -40 1 -52 8 -97 51 l-51 49 50 -60 c31 -37 52 -72 55 -92 5
-35 -7 -42 -32 -20 -8 6 -7 3 3 -9 9 -11 17 -25 17 -31 0 -16 -103 -101 -209
-173 -125 -85 -195 -138 -371 -285 -80 -66 -165 -136 -190 -155 -76 -57 -380
-363 -401 -402 -21 -41 -24 -103 -9 -159 12 -41 180 -240 305 -361 l80 -77
-40 -43 -40 -43 42 39 41 38 17 -26 c10 -15 14 -33 11 -43 -6 -14 -5 -15 5 -6
10 10 19 2 44 -40 44 -73 68 -79 131 -34 53 37 165 96 254 133 l54 22 84 -79
c46 -43 103 -93 128 -110 68 -47 223 -117 306 -139 40 -10 62 -19 50 -19 -13
-1 -37 -9 -53 -18 -27 -16 -32 -16 -86 1 -84 27 -209 87 -278 135 -33 22 -65
41 -71 41 -66 0 80 -201 226 -313 l65 -50 -47 5 c-60 7 -78 -9 -57 -50 7 -15
15 -31 17 -36 3 -4 -5 -5 -15 -2 -27 9 -53 -3 -53 -23 0 -9 11 -34 25 -56 13
-22 25 -50 25 -61 0 -53 90 -117 130 -92 17 11 23 9 47 -18 16 -16 34 -42 42
-56 7 -15 19 -24 26 -22 7 3 15 -2 18 -10 4 -9 15 -16 26 -16 16 0 24 -11 34
-47 l14 -48 0 58 c0 31 3 60 7 64 10 10 39 -23 54 -60 11 -28 12 -28 7 -5 -7
36 27 75 45 52 7 -7 16 -11 21 -8 5 3 9 1 9 -3 0 -5 7 -18 16 -29 15 -18 15
-18 5 3 -15 30 -14 33 9 33 12 0 20 7 20 16 0 12 7 15 25 12 18 -4 25 -1 25
10 0 10 7 13 26 9 21 -4 25 -1 21 14 -6 22 -3 23 25 8 18 -10 20 -9 15 5 -9
23 13 20 55 -9 33 -22 36 -23 31 -5 -5 21 11 28 22 10 3 -5 11 -10 16 -10 6 0
3 10 -5 22 -21 30 -20 41 4 33 16 -5 20 -2 20 14 0 22 14 28 25 11 12 -19 26
-10 20 11 -6 19 -4 21 14 16 11 -3 21 -1 21 3 0 5 16 14 35 20 19 6 45 24 59
40 13 16 27 26 30 23 3 -4 6 7 6 22 0 23 3 26 12 17 16 -16 28 -15 28 3 0 8 6
15 13 15 15 0 47 51 47 75 0 9 4 14 9 11 5 -3 12 6 16 21 3 14 15 38 26 51 10
14 19 32 19 41 0 24 73 91 151 140 103 64 217 113 429 184 229 76 297 104 402
163 74 42 80 44 106 30 15 -8 57 -19 92 -26 62 -11 89 -18 208 -61 58 -20 210
-116 334 -211 43 -33 116 -82 161 -110 88 -54 277 -231 277 -259 0 -9 -9 -36
-19 -60 -18 -40 -19 -56 -11 -179 5 -74 9 -150 10 -169 0 -29 2 -32 15 -21 13
11 15 7 15 -29 0 -22 4 -41 8 -41 8 0 32 -135 32 -178 0 -13 8 -39 19 -60 10
-20 22 -57 25 -82 17 -110 40 -199 66 -250 16 -30 31 -73 35 -95 18 -109 23
-127 33 -137 7 -7 12 -22 12 -35 0 -13 7 -26 15 -29 26 -11 16 -48 -31 -115
-58 -82 -111 -186 -173 -341 -118 -297 -246 -520 -393 -684 -86 -96 -110 -130
-163 -238 -57 -113 -70 -124 -198 -157 -88 -23 -130 -24 -227 -3 -126 26 -276
17 -312 -20 -8 -7 -34 -22 -58 -33 -100 -45 -196 -165 -170 -213 13 -25 21
-25 54 1 26 21 28 21 41 3 14 -18 15 -18 54 4 46 26 58 28 41 7 -6 -8 -9 -19
-5 -26 9 -13 44 -9 134 16 79 21 120 16 221 -25 215 -89 488 -124 649 -84 108
27 147 49 236 133 96 91 106 97 228 140 49 17 107 44 130 60 49 34 184 171
282 286 149 174 309 349 493 538 108 112 205 221 222 250 16 29 43 93 60 142
17 50 40 103 53 118 l22 28 57 -168 c32 -92 69 -216 82 -275 14 -58 37 -141
51 -184 34 -103 47 -236 43 -425 -3 -152 -3 -156 -37 -224 -25 -53 -54 -90
-117 -150 -117 -113 -174 -145 -275 -156 -57 -5 -87 -4 -100 4 -17 11 -141 -6
-250 -34 -72 -18 -148 -96 -149 -152 0 -23 25 -32 52 -20 18 8 26 4 48 -20 23
-26 37 -31 101 -38 119 -14 527 -30 609 -24 41 4 134 1 205 -5 257 -21 283
-23 328 -16 35 5 58 18 92 49 43 38 48 48 60 115 9 46 36 119 74 200 44 94 65
153 80 228 12 55 27 119 35 142 23 63 42 212 76 572 17 179 37 368 46 420 22
133 30 427 15 531 -10 68 -26 111 -82 231 -73 155 -81 182 -51 175 9 -3 76
-19 147 -36 378 -89 514 -120 555 -126 25 -4 114 -20 199 -37 85 -16 204 -35
265 -43 209 -25 351 -46 406 -61 177 -47 697 -39 1094 17 115 16 229 29 255
29 25 0 167 18 316 40 148 21 273 36 277 34 20 -12 6 -162 -33 -365 -48 -247
-55 -391 -24 -534 37 -176 156 -565 261 -855 47 -131 27 -180 -106 -247 -109
-55 -163 -62 -555 -73 -329 -9 -356 -13 -482 -75 -93 -46 -176 -132 -171 -179
3 -27 7 -31 36 -34 27 -3 32 -7 32 -30 0 -61 28 -64 179 -23 98 27 152 26 238
-4 113 -39 429 -52 890 -36 513 18 588 23 621 48 36 26 101 158 102 205 0 49
-13 110 -67 308 l-45 165 5 185 c6 231 22 307 127 620 72 216 98 315 115 443
5 38 19 65 72 135 81 106 186 230 357 422 71 80 161 184 198 232 40 50 75 85
82 82 18 -7 164 25 201 43 16 9 71 42 122 74 140 89 204 119 254 119 89 0 246
-96 366 -223 171 -182 343 -463 466 -762 72 -177 169 -373 232 -470 285 -442
492 -663 926 -990 264 -199 372 -251 434 -211 14 10 31 29 38 43 9 21 8 31
-11 64 -12 21 -22 49 -22 62 0 14 -6 30 -14 36 -9 8 -13 28 -12 60 l3 47 -51
18 c-28 10 -56 23 -63 28 -20 16 1 51 38 64 l34 12 -50 21 c-95 41 -136 64
-147 85 -15 28 -97 106 -112 106 -6 0 -29 9 -51 20 -22 11 -46 20 -55 20 -27
0 -139 105 -216 201 -127 159 -342 544 -399 713 -14 41 -37 128 -51 193 -113
524 -257 901 -482 1263 -115 185 -156 233 -365 424 -229 208 -232 211 -241
249 -9 38 -64 97 -157 167 -43 32 -91 70 -106 85 -15 15 -71 58 -123 96 -52
38 -122 92 -155 120 -43 35 -136 87 -325 180 -146 72 -295 151 -332 175 -37
25 -118 65 -180 89 -63 25 -188 81 -278 126 -212 104 -257 122 -605 240 -159
53 -369 125 -465 158 -254 88 -624 171 -758 171 -72 0 -528 44 -732 71 -509
67 -650 76 -1376 89 -461 9 -621 16 -712 34 -15 3 -340 10 -722 16 -751 12
-982 25 -1071 60 -28 12 -86 25 -128 31 -42 5 -108 14 -147 19 -71 9 -454 129
-479 150 -23 19 -88 50 -106 50 -9 0 -24 9 -34 20 -10 11 -26 20 -36 20 -10 0
-21 5 -24 10 -3 6 -15 10 -26 10 -10 0 -19 7 -19 15 0 12 -8 14 -40 9 -42 -7
-70 6 -70 32 0 8 -9 23 -20 34 -19 19 -22 19 -50 5 -39 -20 -80 -20 -80 1 0
12 -7 14 -30 9 -23 -5 -32 -3 -36 10 -6 15 -8 15 -25 -1 -22 -20 -49 -12 -49
16 0 26 -12 25 -36 -1 -13 -15 -28 -20 -55 -18 -20 2 -44 -3 -53 -10 -19 -16
-46 -8 -46 14 0 18 -12 19 -28 3 -9 -9 -12 -8 -12 5 0 19 -15 23 -25 6 -4 -6
-20 -9 -36 -7 -19 2 -35 -4 -49 -20 -11 -12 -25 -22 -31 -22 -14 0 -39 26 -39
41 0 7 -10 3 -23 -10 -21 -19 -25 -20 -37 -6 -10 12 -16 13 -27 4 -21 -18 -28
-1 -8 21 26 28 15 25 -25 -8z m-1080 -1699 c-1 -92 -77 -351 -149 -506 -20
-45 -50 -115 -66 -156 -20 -53 -43 -91 -81 -132 -36 -39 -56 -72 -64 -101 -23
-96 -31 -116 -50 -133 -15 -14 -20 -15 -20 -4 0 8 -46 66 -102 130 -195 220
-267 320 -254 354 4 11 14 10 47 -6 23 -12 66 -23 95 -26 70 -7 77 9 31 74
-51 72 -60 92 -48 107 8 9 24 11 58 5 70 -11 79 -11 102 9 l22 17 -41 53 -40
54 20 28 c32 45 153 152 212 188 59 35 218 81 286 82 l42 0 0 -37z m-572 -331
c2 -7 -7 -12 -23 -12 -24 0 -26 2 -15 15 14 17 31 16 38 -3z m-98 -184 c0 -13
-25 -9 -45 6 -17 12 -17 16 -5 31 13 15 15 15 32 -7 9 -13 18 -26 18 -30z
m-141 -120 c31 -55 111 -156 220 -277 40 -45 57 -71 47 -71 -27 0 -209 84
-271 126 -77 51 -195 162 -195 183 0 18 40 60 75 79 11 6 37 12 57 12 34 0 39
-4 67 -52z m-1 -417 c31 -15 85 -39 120 -51 34 -13 65 -27 68 -31 8 -13 -25
-69 -40 -69 -8 0 -40 20 -73 44 -60 46 -153 136 -140 136 4 0 33 -13 65 -29z
m10792 -1016 c-7 -8 -18 -15 -24 -15 -6 0 -2 7 8 15 25 19 32 19 16 0z m-260
-303 c0 -13 -12 -22 -22 -16 -10 6 -1 24 13 24 5 0 9 -4 9 -8z m-8340 -1977
c-51 -33 -70 -41 -70 -30 0 7 103 65 115 65 6 0 -15 -16 -45 -35z m-141 -15
c-49 -37 -69 -47 -69 -35 0 9 94 75 107 75 8 0 -9 -18 -38 -40z m301 -4 c0
-46 -10 -56 -54 -56 -22 0 -58 -4 -78 -9 -21 -5 -38 -5 -38 -1 0 11 65 59 102
75 50 21 68 19 68 -9z m2640 -125 l0 -38 -75 -7 c-42 -4 -82 -9 -90 -13 -8 -3
-15 0 -15 6 0 6 23 23 51 38 29 16 61 34 73 40 40 24 56 17 56 -26z m3537 13
c2 -7 -15 -19 -39 -27 -24 -8 -51 -18 -60 -22 -14 -5 -18 -2 -18 12 0 36 106
69 117 37z m-127 -54 c0 -5 -12 -18 -27 -30 -26 -20 -28 -20 -34 -3 -5 12 -1
24 12 35 19 16 49 15 49 -2z m-3972 -31 c-32 -38 -39 -41 -86 -43 -29 -1 -52
1 -52 5 0 15 44 42 97 59 79 26 79 26 41 -21z m208 6 c13 -4 39 -73 31 -81 -3
-3 -30 2 -61 11 -44 13 -66 14 -104 6 -26 -5 -49 -8 -51 -5 -8 7 40 52 73 68
28 14 69 14 112 1z m3952 -2 c5 -10 12 -33 15 -50 7 -36 7 -37 -88 -47 -27 -4
-79 -15 -114 -26 -36 -11 -67 -17 -70 -15 -7 8 69 83 108 107 38 24 98 47 123
48 10 0 21 -8 26 -17z m-4358 -33 c-6 -11 -18 -20 -28 -20 -13 0 -12 4 8 20
31 25 33 25 20 0z m4080 6 c0 -8 -7 -17 -16 -20 -30 -11 -37 -6 -19 14 21 23
35 26 35 6z"/>
<path d="M1040 5986 c0 -2 8 -10 18 -17 15 -13 16 -12 3 4 -13 16 -21 21 -21
13z"/>
<path d="M1070 5946 c0 -2 8 -10 18 -17 15 -13 16 -12 3 4 -13 16 -21 21 -21
13z"/>
<path d="M1120 5776 c0 -2 8 -10 18 -17 15 -13 16 -12 3 4 -13 16 -21 21 -21
13z"/>
<path d="M399 4023 c-13 -16 -12 -17 4 -4 9 7 17 15 17 17 0 8 -8 3 -21 -13z"/>
<path d="M294 3978 l-19 -23 23 19 c21 18 27 26 19 26 -2 0 -12 -10 -23 -22z"/>
<path d="M370 3980 c-6 -11 -8 -20 -6 -20 3 0 10 9 16 20 6 11 8 20 6 20 -3 0
-10 -9 -16 -20z"/>
<path d="M380 3929 c-12 -23 -20 -43 -18 -45 3 -2 14 17 26 41 27 56 20 60 -8
4z"/>
<path d="M451 3944 c0 -11 3 -14 6 -6 3 7 2 16 -1 19 -3 4 -6 -2 -5 -13z"/>
<path d="M442 3880 c0 -14 2 -19 5 -12 2 6 2 18 0 25 -3 6 -5 1 -5 -13z"/>
<path d="M312 3865 c-17 -37 -14 -45 4 -12 9 16 14 31 11 33 -2 2 -9 -7 -15
-21z"/>
<path d="M286 3805 c-9 -26 -7 -32 5 -12 6 10 9 21 6 23 -2 3 -7 -2 -11 -11z"/>
<path d="M1591 3014 c0 -11 3 -14 6 -6 3 7 2 16 -1 19 -3 4 -6 -2 -5 -13z"/>
<path d="M1521 2974 c0 -11 3 -14 6 -6 3 7 2 16 -1 19 -3 4 -6 -2 -5 -13z"/>
<path d="M1600 2985 c0 -5 5 -17 10 -25 5 -8 10 -10 10 -5 0 6 -5 17 -10 25
-5 8 -10 11 -10 5z"/>
<path d="M1560 2861 c0 -6 4 -13 10 -16 6 -3 7 1 4 9 -7 18 -14 21 -14 7z"/>
</g>
</svg>
