<?xml version="1.0" standalone="no"?>
<!DOCTYPE svg PUBLIC "-//W3C//DTD SVG 20010904//EN"
 "http://www.w3.org/TR/2001/REC-SVG-20010904/DTD/svg10.dtd">
<svg version="1.0" xmlns="http://www.w3.org/2000/svg"
 width="1536.000000pt" height="580.000000pt" viewBox="0 0 1536.000000 580.000000"
 preserveAspectRatio="xMidYMid meet">
<metadata>
Created by potrace 1.16, written by Peter Selinger 2001-2019
</metadata>
<g transform="translate(0.000000,580.000000) scale(0.100000,-0.100000)"
fill="#000000" stroke="none">
<path d="M7699 5678 c-323 -294 -490 -480 -736 -823 -68 -93 -173 -229 -235
-300 -62 -72 -124 -144 -138 -162 l-25 -31 -260 9 c-254 7 -385 16 -385 25 0
2 23 50 51 107 75 148 95 209 145 427 58 258 111 455 181 672 31 98 53 181 49
185 -9 9 -22 -6 -145 -182 -251 -357 -481 -737 -616 -1017 -88 -186 -102 -208
-123 -208 -53 0 -243 -33 -354 -61 -65 -16 -121 -29 -125 -29 -5 0 -8 69 -8
153 -1 105 -7 195 -22 292 -13 85 -25 220 -29 343 -4 112 -11 205 -16 209 -18
10 -94 -78 -202 -236 -125 -180 -168 -265 -197 -381 -23 -88 -23 -107 -3 -457
l7 -112 -151 -75 -150 -75 -12 47 c-6 26 -64 139 -129 252 -139 241 -170 301
-226 435 -22 55 -45 99 -50 98 -12 -2 -40 -86 -62 -182 -30 -136 -18 -507 23
-706 7 -38 25 -92 39 -118 14 -27 25 -50 25 -52 0 -5 -229 -145 -241 -148 -7
-1 -17 21 -23 48 -30 125 -142 261 -279 338 -47 26 -99 50 -116 53 -25 5 -31
2 -45 -24 -28 -55 -67 -225 -73 -322 -7 -123 8 -215 53 -308 20 -41 33 -76 31
-78 -16 -16 -295 -164 -309 -164 -13 0 -18 12 -23 48 -20 154 -88 408 -127
470 -38 61 -52 60 -104 -10 -64 -87 -94 -140 -121 -215 -29 -80 -29 -131 1
-301 l23 -134 -23 -8 c-80 -31 -256 -50 -269 -30 -4 6 6 52 22 103 36 121 38
215 4 308 -32 88 -51 114 -82 106 -23 -6 -173 -119 -231 -174 -31 -30 -48 -89
-57 -198 -6 -75 -7 -80 -28 -78 -24 3 -272 108 -285 121 -5 5 9 28 30 53 22
24 46 58 55 75 19 38 37 139 37 213 l0 54 -32 -7 c-47 -9 -156 -77 -205 -128
-23 -24 -55 -69 -70 -100 l-28 -57 -110 47 c-60 25 -111 47 -113 48 -2 1 9 30
24 65 22 51 28 85 32 167 3 62 1 102 -5 102 -5 0 -43 -35 -84 -77 -69 -72 -88
-103 -114 -189 -2 -8 -43 -12 -127 -12 -118 0 -128 -1 -248 -41 -112 -38 -141
-53 -275 -143 -186 -125 -240 -170 -266 -220 -25 -50 -19 -85 19 -99 17 -7
162 -12 387 -13 312 -1 369 -4 425 -19 108 -30 257 -108 422 -220 161 -109
382 -227 556 -296 147 -59 404 -140 747 -236 171 -48 331 -98 356 -112 26 -14
65 -44 86 -66 34 -36 42 -53 57 -126 21 -100 52 -174 93 -222 25 -28 41 -73
92 -262 56 -208 61 -232 50 -265 -63 -195 -145 -405 -219 -555 -48 -100 -96
-211 -105 -246 -28 -108 -42 -135 -95 -174 -86 -64 -77 -69 130 -65 110 2 183
7 190 14 6 6 15 37 20 70 12 72 88 276 137 364 53 98 80 129 283 330 212 210
233 240 233 346 l-1 64 31 -18 c16 -9 35 -30 42 -47 17 -39 70 -295 85 -405
16 -117 20 -507 7 -607 -8 -64 -8 -86 1 -95 10 -10 17 -8 35 10 49 48 97 83
133 98 22 9 54 30 72 47 64 61 64 57 40 336 -20 238 -21 255 -5 348 9 54 39
168 66 255 28 86 55 186 62 222 l11 66 52 -7 c100 -14 504 -8 641 10 185 25
398 70 555 118 74 23 144 44 155 46 17 3 25 -8 51 -74 17 -43 48 -118 69 -168
90 -213 195 -761 178 -930 -7 -70 -18 -95 -69 -156 -44 -52 -73 -113 -74 -151
0 -34 21 -37 68 -8 20 12 50 20 77 20 50 0 243 59 318 97 59 29 70 55 58 131
-5 32 -7 98 -4 147 4 68 0 121 -17 215 -21 118 -22 149 -21 545 1 255 -2 459
-9 519 -9 80 -9 100 2 107 19 12 28 0 123 -181 48 -91 111 -205 140 -255 28
-49 81 -147 118 -217 36 -70 113 -203 170 -295 69 -113 118 -204 146 -278 23
-60 56 -144 73 -185 91 -224 91 -217 -13 -326 -47 -49 -79 -91 -77 -100 3 -14
22 -17 133 -19 228 -5 364 22 395 80 8 16 10 38 6 67 -4 24 -10 125 -15 224
l-7 182 -43 88 c-34 70 -58 153 -121 409 -43 176 -95 371 -114 433 -20 63 -36
122 -36 133 0 10 18 83 40 161 23 79 66 245 96 369 l56 227 44 31 c24 17 59
52 77 77 63 92 53 86 171 95 122 9 171 30 226 99 38 49 75 60 194 60 165 0
419 -60 818 -195 1233 -416 1537 -486 2463 -570 494 -44 738 -57 1215 -62 538
-6 764 4 1095 47 127 16 264 30 306 30 85 0 139 8 139 21 0 26 -165 75 -292
85 l-80 7 239 79 c245 82 337 121 823 350 336 159 350 166 350 177 0 12 -37 3
-410 -99 -577 -158 -1711 -437 -1815 -446 -42 -4 -112 3 -236 25 -168 28 -406
78 -422 88 -4 2 113 106 260 230 878 740 1013 856 1001 868 -3 3 -26 -4 -50
-16 -53 -27 -688 -416 -1042 -639 -295 -186 -424 -255 -546 -295 l-86 -28
-129 37 c-411 117 -775 242 -809 276 -15 16 51 76 472 437 346 297 681 592
716 632 11 11 17 23 15 26 -3 2 -109 -58 -237 -135 -460 -277 -1010 -579
-1256 -690 l-160 -72 -180 77 c-210 91 -756 361 -756 374 0 48 91 150 195 221
39 25 149 93 245 150 303 179 420 260 801 560 80 63 194 153 253 199 59 45
105 85 102 88 -10 10 -92 -26 -616 -270 -877 -408 -1252 -575 -1424 -636 -95
-34 -71 -41 -265 77 -146 87 -377 202 -545 270 -66 26 -121 52 -123 57 -4 14
227 259 372 395 147 138 324 292 600 520 248 205 240 198 233 206 -13 12 -750
-377 -1098 -581 -63 -37 -194 -110 -290 -162 -96 -52 -229 -126 -295 -163
l-120 -67 -340 49 c-187 27 -342 51 -343 53 -2 2 32 59 76 127 97 150 148 244
246 455 111 239 212 423 356 648 143 225 154 245 141 245 -5 0 -69 -55 -142
-122z"/>
</g>
</svg>
