<?xml version="1.0" standalone="no"?>
<!DOCTYPE svg PUBLIC "-//W3C//DTD SVG 20010904//EN"
 "http://www.w3.org/TR/2001/REC-SVG-20010904/DTD/svg10.dtd">
<svg version="1.0" xmlns="http://www.w3.org/2000/svg"
 width="799.000000pt" height="236.000000pt" viewBox="0 0 799.000000 236.000000"
 preserveAspectRatio="xMidYMid meet">
<metadata>
Created by potrace 1.16, written by Peter Selinger 2001-2019
</metadata>
<g transform="translate(0.000000,236.000000) scale(0.100000,-0.100000)"
fill="#000000" stroke="none">
<path d="M3750 2049 c-80 -5 -194 -16 -255 -24 -276 -37 -479 -70 -620 -101
-38 -8 -119 -21 -180 -30 -60 -8 -116 -17 -123 -19 -17 -6 -200 -32 -282 -40
-36 -3 -117 -12 -180 -20 -283 -34 -510 -49 -578 -38 -225 36 -390 70 -712
148 -334 81 -353 85 -511 97 -112 9 -154 9 -173 0 -32 -14 -34 -46 -5 -70 67
-54 91 -78 104 -101 7 -14 22 -35 33 -47 49 -52 122 -230 122 -298 0 -54 58
-58 240 -15 149 34 285 36 486 4 93 -14 178 -30 189 -35 11 -5 56 -14 100 -21
44 -6 85 -16 91 -20 5 -5 62 -15 125 -24 156 -21 289 -49 292 -60 2 -9 -41
-19 -123 -30 -19 -2 -62 -9 -95 -15 -360 -65 -395 -75 -395 -107 0 -15 39 -16
463 -9 618 9 862 -9 715 -54 -24 -7 -54 -16 -68 -20 -14 -5 -51 -11 -83 -14
-56 -6 -110 -29 -243 -106 -28 -16 -143 -68 -255 -115 -213 -90 -304 -117
-599 -175 -215 -42 -246 -57 -173 -81 27 -8 96 -10 257 -5 217 6 255 10 386
40 36 8 92 20 125 26 207 41 657 188 870 285 17 8 51 23 77 34 l46 21 76 -25
c42 -14 82 -25 90 -25 12 0 112 -28 186 -52 19 -6 53 -15 75 -19 22 -4 83 -17
135 -28 52 -11 113 -22 135 -26 64 -10 278 -23 300 -18 11 2 76 8 145 13 69 6
142 13 162 16 28 4 39 2 43 -8 5 -13 -60 -123 -91 -155 -7 -7 -22 -34 -34 -60
-13 -26 -46 -88 -74 -136 -28 -48 -55 -96 -61 -105 -13 -24 -88 -126 -96 -132
-17 -13 -59 -85 -59 -101 0 -22 59 -59 94 -59 89 0 272 73 358 143 108 87 348
321 348 338 0 5 7 9 15 9 13 0 15 -8 9 -37 -11 -69 -44 -192 -69 -260 -45
-128 -67 -230 -55 -254 11 -19 18 -21 64 -16 28 3 72 17 98 32 91 51 148 121
339 420 58 90 166 313 184 379 21 78 67 231 70 234 1 1 31 9 66 18 35 8 87 21
114 29 69 19 96 24 200 36 50 5 110 12 135 16 56 7 212 -12 355 -45 61 -13
138 -28 171 -33 34 -4 97 -17 140 -27 44 -11 111 -25 149 -32 103 -18 489
-116 570 -144 39 -14 101 -34 139 -46 38 -12 107 -39 154 -62 102 -48 140 -55
194 -37 32 10 48 25 75 66 34 54 38 70 16 65 -7 -2 -13 6 -13 18 0 26 -1 26
-54 -11 -48 -34 -70 -32 -60 7 7 28 -2 30 -34 8 -33 -23 -56 -11 -48 26 4 22
2 30 -9 30 -7 0 -17 -4 -20 -10 -14 -23 -25 -7 -25 35 0 54 -14 58 -37 10 -24
-50 -45 -47 -37 5 4 22 4 40 0 40 -3 0 -19 -14 -35 -32 -32 -36 -51 -31 -51
13 0 35 -6 36 -37 8 -18 -18 -25 -20 -38 -9 -8 7 -15 23 -15 36 0 28 -7 30
-31 8 -22 -20 -51 -11 -48 13 3 33 -1 36 -20 19 -21 -19 -41 -14 -41 9 0 8
-11 12 -31 11 -22 -1 -35 5 -43 19 -6 11 -12 22 -13 24 -2 2 -9 -1 -16 -8 -11
-9 -32 -2 -95 34 -68 38 -177 89 -290 136 -27 11 -23 39 11 77 17 19 31 22 88
22 54 0 70 -4 78 -17 8 -15 13 -16 31 -5 23 14 40 8 40 -14 0 -17 16 -19 26
-2 5 7 11 5 21 -8 13 -18 15 -18 27 -1 18 23 36 22 36 -3 0 -23 18 -27 26 -5
9 22 31 18 38 -7 6 -23 6 -23 22 -3 11 14 18 16 21 8 7 -20 27 -15 42 9 l13
21 18 -23 c16 -21 20 -22 35 -10 14 12 18 12 26 -1 5 -8 9 -17 9 -21 0 -15 20
-8 20 6 0 21 21 31 31 15 5 -8 9 -24 9 -36 0 -26 15 -31 24 -8 8 23 25 18 32
-10 8 -33 28 -27 34 10 7 39 24 37 28 -2 4 -45 29 -43 38 3 7 40 37 45 42 6 5
-31 32 -28 32 3 0 32 31 34 63 5 l21 -21 8 22 c10 26 32 20 36 -9 4 -27 19
-28 27 -2 9 30 29 24 43 -12 12 -33 26 -30 35 7 3 16 7 13 20 -17 21 -46 33
-54 40 -27 7 25 27 16 27 -12 0 -10 3 -19 6 -19 10 0 54 50 52 58 -1 4 4 25
10 47 10 35 10 43 -7 65 -11 16 -32 27 -57 32 -352 62 -788 168 -923 224 -162
68 -186 75 -261 84 -41 4 -136 24 -210 44 -118 32 -158 38 -315 46 -99 5 -236
17 -305 25 -69 9 -161 20 -205 26 -44 5 -102 14 -130 19 -27 5 -115 19 -195
30 -80 11 -152 23 -160 25 -25 7 -473 65 -500 65 -14 0 -88 6 -165 14 -152 16
-416 18 -645 5z"/>
</g>
</svg>
