<?xml version="1.0" standalone="no"?>
<!DOCTYPE svg PUBLIC "-//W3C//DTD SVG 20010904//EN"
 "http://www.w3.org/TR/2001/REC-SVG-20010904/DTD/svg10.dtd">
<svg version="1.0" xmlns="http://www.w3.org/2000/svg"
 width="1536.000000pt" height="648.000000pt" viewBox="0 0 1536.000000 648.000000"
 preserveAspectRatio="xMidYMid meet">
<metadata>
Created by potrace 1.16, written by Peter Selinger 2001-2019
</metadata>
<g transform="translate(0.000000,648.000000) scale(0.100000,-0.100000)"
fill="#000000" stroke="none">
<path d="M13560 6473 c-162 -17 -360 -86 -484 -171 -253 -171 -695 -573 -965
-877 -246 -277 -777 -980 -877 -1162 -16 -29 -36 -53 -44 -53 -9 0 -51 14 -95
31 -159 61 -309 98 -468 115 -84 8 -224 27 -312 40 -190 29 -424 40 -1206 53
-602 10 -975 2 -1469 -31 -406 -28 -841 -30 -1355 -6 -235 11 -589 18 -970 20
-566 2 -615 1 -858 -22 -237 -22 -269 -23 -400 -11 -699 61 -1030 19 -1562
-199 -102 -41 -471 -154 -680 -207 -234 -59 -329 -79 -445 -93 -136 -16 -186
-26 -365 -75 -199 -55 -249 -62 -512 -75 -260 -12 -292 -21 -393 -116 -68 -65
-100 -113 -100 -153 0 -32 42 -69 86 -77 26 -4 55 -22 87 -51 26 -24 53 -43
60 -40 7 2 14 18 17 37 l5 33 23 -42 c26 -46 65 -77 83 -66 7 5 9 23 5 51 -3
24 -4 44 -1 44 3 0 16 -24 31 -52 43 -86 83 -120 98 -82 3 9 6 51 6 95 0 43 4
79 8 79 5 0 23 -18 41 -40 50 -62 120 -90 107 -42 -2 10 -8 28 -11 41 l-7 24
73 -6 c60 -6 184 -33 281 -63 10 -3 32 -32 49 -64 33 -62 117 -150 144 -150
19 0 20 -3 -10 65 -29 64 -29 100 0 45 50 -97 111 -161 168 -175 35 -9 35 -1
-7 93 -57 130 -60 197 -3 89 32 -62 111 -155 123 -145 4 4 0 42 -9 83 -17 77
-22 145 -11 145 4 0 25 -20 48 -45 43 -46 85 -62 71 -27 -4 9 -9 33 -12 52
l-6 35 41 -38 c43 -42 46 -41 56 16 6 34 10 37 40 37 25 0 35 -6 44 -25 14
-30 38 -33 47 -5 8 25 21 25 35 0 14 -27 28 -25 42 5 l12 26 24 -26 c29 -32
44 -28 56 13 11 39 21 40 40 4 32 -61 52 -61 73 3 l10 30 21 -42 c29 -56 41
-61 67 -31 21 24 22 25 33 7 17 -26 37 -24 56 6 20 30 33 32 41 5 8 -26 21
-25 62 6 33 25 37 26 96 16 34 -6 94 -14 132 -17 161 -14 237 -51 220 -106
-10 -29 -79 -104 -122 -130 -30 -19 -38 -20 -59 -9 -20 11 -27 11 -44 -5 -20
-18 -21 -18 -34 1 -14 18 -15 18 -35 0 -18 -16 -23 -17 -37 -5 -14 12 -20 10
-40 -15 -20 -23 -27 -26 -40 -16 -12 10 -18 9 -34 -5 -16 -14 -23 -16 -32 -7
-17 17 -24 15 -55 -19 l-29 -30 -26 20 c-34 27 -35 27 -53 -9 -15 -30 -16 -30
-42 -13 -25 16 -26 16 -43 -5 -16 -19 -20 -19 -36 -7 -27 20 -33 19 -45 -12
-10 -26 -12 -27 -23 -10 -18 24 -34 21 -48 -8 -13 -28 -23 -32 -32 -10 -9 24
-30 17 -51 -17 l-19 -32 -9 27 c-13 40 -41 34 -62 -13 -19 -42 -35 -52 -35
-22 0 9 -5 24 -10 32 -7 12 -13 11 -34 -9 -14 -13 -28 -32 -32 -43 -8 -27 -21
-22 -33 13 -13 38 -30 34 -56 -14 l-21 -36 -11 29 c-14 37 -27 38 -49 5 -16
-25 -17 -25 -36 -8 -19 17 -20 17 -38 -7 -16 -21 -20 -22 -34 -11 -14 12 -19
11 -36 -4 -20 -18 -21 -18 -35 1 -15 19 -15 19 -34 -4 -24 -27 -27 -27 -34 -2
-7 28 -24 25 -41 -7 -15 -29 -15 -30 -31 22 -7 25 -24 17 -46 -20 -24 -39 -35
-38 -44 5 -10 44 -29 37 -56 -22 l-23 -53 -4 53 c-4 75 -26 69 -65 -18 -45
-98 -63 -92 -87 25 -27 139 -49 160 -75 73 -8 -28 -15 -58 -15 -65 0 -7 -4
-13 -9 -13 -4 0 -14 40 -20 90 -7 49 -17 92 -22 96 -21 13 -60 -104 -66 -195
-3 -50 -9 -88 -14 -86 -9 6 -35 120 -44 198 -4 37 -11 57 -20 57 -23 0 -37
-61 -42 -182 -5 -104 -8 -118 -23 -118 -21 0 -30 37 -30 127 0 56 -2 64 -18
61 -24 -4 -58 -77 -67 -144 -8 -64 -24 -57 -25 11 0 22 -4 46 -9 54 -13 20
-36 1 -63 -53 -20 -38 -21 -39 -29 -18 -14 38 -24 31 -77 -53 -34 -55 -36 -63
-17 -106 58 -127 288 -205 635 -216 142 -4 209 -1 355 17 131 15 257 22 465
25 737 11 992 34 1745 156 149 24 206 30 265 25 41 -4 192 -2 335 4 247 10
341 17 760 56 221 21 743 25 885 7 52 -7 183 -14 290 -15 186 -3 197 -2 232
19 33 19 39 20 52 7 8 -8 18 -24 22 -37 12 -38 73 -128 168 -247 51 -63 150
-200 221 -305 70 -104 156 -225 189 -269 34 -43 119 -160 190 -260 146 -206
230 -308 366 -450 182 -188 596 -548 798 -693 97 -69 348 -201 490 -258 86
-34 266 -85 299 -85 8 0 28 13 44 29 21 22 29 39 29 66 0 61 -18 88 -189 290
-118 138 -367 530 -546 860 -21 39 -59 106 -85 150 -86 149 -181 366 -320 735
-73 193 -71 174 -19 167 24 -4 265 -10 534 -13 549 -8 684 -2 1000 48 202 31
351 52 825 118 397 55 592 89 610 104 8 7 85 26 170 41 85 15 313 70 505 122
193 52 395 103 450 114 103 21 223 53 358 96 120 38 646 132 917 162 228 26
581 45 696 37 53 -4 151 -21 230 -42 186 -47 317 -55 460 -25 174 36 275 70
409 137 129 64 385 228 392 251 3 6 -29 34 -69 61 -206 138 -404 223 -646 278
-116 26 -121 26 -482 25 -404 -2 -575 6 -1070 49 -184 16 -384 32 -445 35 -60
3 -129 8 -152 11 l-42 5 38 57 c41 60 44 67 121 252 100 242 193 424 348 685
290 487 381 627 557 860 162 215 314 445 350 530 49 118 -20 186 -185 183 -47
-1 -101 -3 -120 -5z m-13100 -3134 c0 -67 -8 -69 -35 -10 -20 45 -15 71 15 71
18 0 20 -6 20 -61z m148 31 c3 -21 2 -22 -12 -11 -19 16 -21 44 -3 39 6 -3 14
-15 15 -28z m-398 0 c0 -5 -2 -10 -4 -10 -3 0 -8 5 -11 10 -3 6 -1 10 4 10 6
0 11 -4 11 -10z m120 -17 c-1 -27 -1 -27 -15 -9 -19 25 -19 36 0 36 10 0 15
-10 15 -27z m1800 -23 c0 -5 -4 -10 -10 -10 -5 0 -10 5 -10 10 0 6 5 10 10 10
6 0 10 -4 10 -10z m-620 -30 c0 -5 -2 -10 -4 -10 -3 0 -8 5 -11 10 -3 6 -1 10
4 10 6 0 11 -4 11 -10z m-398 -44 c5 -21 6 -41 4 -43 -5 -5 -56 68 -56 80 0 5
10 7 22 5 17 -2 24 -13 30 -42z m290 -15 c1 -33 0 -57 -4 -55 -16 10 -59 94
-53 104 3 5 17 10 30 10 21 0 23 -5 27 -59z m-142 27 c0 -13 11 -54 25 -92 13
-39 23 -72 21 -74 -13 -12 -130 164 -120 180 3 4 21 8 40 8 29 0 34 -4 34 -22z
m676 -395 c-10 -10 -19 5 -10 18 6 11 8 11 12 0 2 -7 1 -15 -2 -18z m-1249
-179 c-1 -1 -15 -6 -31 -10 l-29 -7 7 83 c11 120 17 124 38 25 10 -49 17 -90
15 -91z m1079 139 c-10 -10 -19 5 -10 18 6 11 8 11 12 0 2 -7 1 -15 -2 -18z
m-976 -115 c0 -11 -7 -18 -20 -18 -17 0 -20 7 -20 39 0 21 3 54 7 72 6 34 7
34 19 -21 7 -30 13 -63 14 -72z m876 95 c-10 -10 -19 5 -10 18 6 11 8 11 12 0
2 -7 1 -15 -2 -18z m-91 -3 c3 -5 1 -10 -4 -10 -6 0 -11 5 -11 10 0 6 2 10 4
10 3 0 8 -4 11 -10z m-1039 -71 c18 -71 18 -79 -6 -79 -18 0 -20 7 -20 72 0
39 3 69 6 66 3 -3 12 -30 20 -59z m941 39 c-3 -8 -6 -5 -6 6 -1 11 2 17 5 13
3 -3 4 -12 1 -19z m-357 -38 c0 -11 -4 -20 -10 -20 -5 0 -10 9 -10 20 0 11 5
20 10 20 6 0 10 -9 10 -20z m-90 -16 c0 -8 -4 -14 -10 -14 -5 0 -10 9 -10 21
0 11 5 17 10 14 6 -3 10 -13 10 -21z m-100 -9 c0 -14 -4 -25 -10 -25 -11 0
-14 33 -3 43 11 11 13 8 13 -18z m-528 -20 c0 -19 1 -40 2 -47 1 -6 -5 -13
-11 -15 -9 -3 -13 10 -13 46 0 57 19 71 22 16z m-112 -39 c0 -26 -15 -43 -24
-28 -7 12 4 52 15 52 5 0 9 -11 9 -24z m2443 -203 c-7 -2 -19 -2 -25 0 -7 3
-2 5 12 5 14 0 19 -2 13 -5z"/>
</g>
</svg>
