<?xml version="1.0" standalone="no"?>
<!DOCTYPE svg PUBLIC "-//W3C//DTD SVG 20010904//EN"
 "http://www.w3.org/TR/2001/REC-SVG-20010904/DTD/svg10.dtd">
<svg version="1.0" xmlns="http://www.w3.org/2000/svg"
 width="1536.000000pt" height="648.000000pt" viewBox="0 0 1536.000000 648.000000"
 preserveAspectRatio="xMidYMid meet">
<metadata>
Created by potrace 1.16, written by Peter Selinger 2001-2019
</metadata>
<g transform="translate(0.000000,648.000000) scale(0.100000,-0.100000)"
fill="#000000" stroke="none">
<path d="M8155 6473 c-562 -22 -1026 -63 -1785 -158 -869 -109 -1252 -174
-1537 -260 l-146 -45 -496 0 c-545 0 -720 -8 -1101 -45 -342 -35 -835 -94
-885 -106 -22 -6 -132 -63 -245 -127 -344 -195 -426 -233 -640 -302 -224 -71
-313 -112 -408 -187 -37 -29 -158 -114 -269 -188 -258 -172 -241 -149 -397
-540 -52 -132 -115 -287 -141 -344 -25 -57 -60 -153 -77 -215 l-31 -111 6
-245 c11 -419 31 -707 63 -890 14 -80 64 -312 68 -317 1 -1 43 11 94 27 51 17
112 30 136 30 55 0 338 -96 451 -152 93 -47 152 -87 250 -173 145 -126 240
-178 352 -190 95 -11 99 -4 50 85 -65 115 -97 194 -115 280 -17 84 -17 93 27
300 17 79 21 88 73 142 55 57 57 58 111 58 36 0 61 -5 71 -15 8 -8 22 -48 30
-88 9 -39 31 -145 50 -235 l34 -163 -24 -42 c-13 -23 -26 -62 -29 -87 -27
-207 -29 -212 -160 -385 l-94 -124 34 -30 c29 -25 44 -30 117 -36 115 -9 285
24 538 107 123 40 160 58 247 124 85 65 143 138 172 217 25 68 26 103 6 177
-21 78 -19 136 9 216 55 164 118 248 249 335 50 34 103 72 117 85 14 12 48 28
75 34 85 18 149 42 182 66 43 32 71 30 124 -8 24 -18 71 -44 104 -58 191 -85
178 -75 215 -159 30 -67 52 -94 178 -223 l143 -147 -35 -108 c-19 -60 -40
-148 -47 -195 l-13 -87 -103 -82 c-187 -148 -322 -308 -439 -521 -88 -161
-130 -222 -225 -328 -91 -102 -191 -179 -266 -208 -107 -40 -201 -133 -172
-168 6 -8 21 -14 32 -14 16 0 12 -9 -27 -50 -46 -49 -56 -79 -36 -110 8 -12
35 -15 147 -15 l138 0 0 -35 c0 -30 4 -35 30 -41 17 -4 68 -7 115 -8 68 -1 93
3 123 19 43 23 94 25 121 5 31 -23 113 -19 174 10 30 14 63 25 73 25 29 0 251
75 349 118 65 29 89 45 106 72 13 19 52 73 88 120 36 47 93 123 127 169 49 65
78 94 133 129 199 127 420 278 496 338 103 82 346 319 401 390 29 38 39 60 39
87 0 20 7 62 15 94 8 31 15 75 15 98 0 35 5 43 41 69 l40 28 117 -11 c114 -12
120 -11 240 17 l124 29 116 -49 c148 -63 197 -75 331 -84 l108 -7 9 -111 c5
-61 9 -172 9 -246 -1 -121 -4 -146 -32 -246 -18 -61 -39 -155 -48 -210 -15
-91 -18 -101 -48 -124 -69 -53 -125 -112 -148 -155 -21 -39 -29 -45 -74 -56
-69 -15 -191 -76 -215 -107 -11 -13 -20 -34 -20 -46 0 -14 -15 -30 -46 -50
-107 -67 -197 -177 -181 -220 4 -11 24 -16 70 -18 l65 -3 -59 -72 c-62 -78
-82 -126 -70 -170 7 -27 9 -28 82 -28 41 0 139 3 218 7 l143 8 -5 -23 c-3 -12
-15 -46 -28 -75 l-24 -54 33 -29 c19 -17 44 -29 60 -29 39 0 215 63 261 93 22
15 69 33 105 41 36 9 82 22 102 31 l36 15 -7 -56 c-8 -65 10 -104 48 -104 44
0 170 50 221 88 28 20 62 43 76 49 14 6 55 33 91 59 36 27 80 57 98 66 18 10
39 34 49 55 10 21 35 56 56 78 53 55 175 241 230 352 85 169 275 793 321 1053
19 112 31 155 53 190 l28 45 549 6 c389 4 601 11 725 22 234 22 577 62 780 91
91 13 167 22 169 20 2 -2 9 -75 14 -161 12 -188 0 -372 -38 -568 -14 -71 -30
-163 -37 -202 -6 -40 -14 -73 -18 -73 -3 0 -75 -45 -159 -101 -85 -55 -171
-109 -192 -119 -21 -11 -50 -35 -64 -54 -27 -36 -59 -51 -169 -81 -49 -14 -69
-27 -116 -75 -32 -32 -74 -64 -95 -71 -56 -21 -120 -82 -149 -144 -32 -66 -32
-81 -4 -96 20 -11 107 -8 153 6 19 6 20 1 20 -62 l0 -68 33 -3 c61 -6 234 27
294 56 l56 28 9 -31 c6 -20 21 -37 45 -50 34 -18 42 -18 120 -6 175 27 277 32
309 16 27 -14 43 -14 167 0 187 21 236 32 312 70 36 17 92 43 125 56 48 19 79
42 151 115 50 50 107 117 126 150 19 32 65 100 101 149 97 130 136 217 232
520 47 149 98 304 115 345 37 95 55 164 94 373 l32 168 105 66 c232 146 262
163 293 162 70 -2 77 -9 140 -134 106 -209 180 -304 314 -406 35 -27 91 -81
125 -121 152 -183 232 -261 384 -374 119 -88 157 -122 170 -151 10 -21 25 -47
36 -59 18 -21 17 -23 -33 -100 l-50 -80 -91 -12 c-50 -7 -107 -21 -128 -31
-20 -11 -54 -22 -74 -26 -25 -5 -48 -19 -70 -45 -17 -20 -57 -48 -87 -62 -106
-50 -200 -141 -200 -193 0 -27 17 -35 75 -35 67 0 76 -6 69 -49 -4 -28 -2 -42
11 -54 24 -25 62 -23 252 12 l41 8 7 -44 c7 -51 28 -60 103 -47 26 4 83 7 127
6 50 -2 101 3 135 13 30 8 91 21 135 29 226 39 319 79 452 195 111 97 191 191
258 302 60 100 63 118 54 404 -7 225 -13 255 -94 420 -80 162 -310 467 -501
665 -61 63 -121 134 -133 158 -46 90 -63 267 -70 732 -7 477 -12 441 69 489
l45 26 240 0 240 -1 140 -41 c281 -83 466 -147 723 -249 259 -103 396 -143
489 -144 33 0 46 5 62 26 12 15 21 39 21 54 0 68 -343 478 -589 705 -234 214
-678 543 -853 631 -40 20 -122 58 -183 84 -116 49 -293 159 -501 311 -390 285
-684 423 -1301 613 -860 265 -1763 447 -2528 511 -357 30 -903 42 -1250 28z"/>
</g>
</svg>
