<?xml version="1.0" standalone="no"?>
<!DOCTYPE svg PUBLIC "-//W3C//DTD SVG 20010904//EN"
 "http://www.w3.org/TR/2001/REC-SVG-20010904/DTD/svg10.dtd">
<svg version="1.0" xmlns="http://www.w3.org/2000/svg"
 width="3872.000000pt" height="2088.000000pt" viewBox="0 0 3872.000000 2088.000000"
 preserveAspectRatio="xMidYMid meet">
<metadata>
Created by potrace 1.16, written by Peter Selinger 2001-2019
</metadata>
<g transform="translate(0.000000,2088.000000) scale(0.100000,-0.100000)"
fill="#000000" stroke="none">
<path d="M680 20840 c-112 -15 -233 -77 -286 -145 -27 -35 -74 -168 -74 -208
0 -29 -68 -169 -109 -225 -18 -24 -52 -55 -76 -70 -78 -47 -129 -182 -123
-325 l3 -72 40 -3 c33 -2 43 -9 59 -35 11 -19 21 -27 23 -19 4 10 8 10 19 1
11 -9 14 -7 14 15 0 31 26 36 35 6 8 -24 25 -27 25 -3 0 14 2 14 21 -3 15 -13
23 -15 26 -7 2 7 11 9 19 6 9 -3 14 1 14 13 0 14 3 15 12 6 18 -18 28 -14 28
11 1 21 1 21 14 4 14 -18 15 -18 25 0 8 14 11 15 11 3 1 -12 3 -11 14 3 9 12
16 14 21 7 12 -19 25 0 25 38 l1 37 20 -28 c21 -27 43 -29 32 -2 -6 18 8 20
25 3 9 -9 12 -9 12 1 0 8 6 11 15 7 9 -3 18 1 21 9 4 8 10 12 15 9 5 -3 20 7
33 21 15 16 27 22 31 15 9 -14 25 -3 25 19 0 10 14 23 33 32 18 8 33 23 35 34
2 17 70 73 76 63 1 -2 8 -11 15 -20 11 -15 10 -23 -10 -55 -28 -48 -99 -123
-116 -123 -7 0 -13 -5 -13 -12 0 -6 -3 -9 -6 -5 -6 5 -41 -20 -122 -88 -13
-11 -28 -30 -33 -42 -6 -16 -17 -23 -35 -23 -19 0 -25 -4 -21 -14 4 -11 1 -13
-10 -9 -12 5 -15 2 -10 -9 4 -11 -2 -18 -19 -22 -13 -4 -24 -13 -24 -21 0 -8
-4 -15 -10 -15 -5 0 -10 -7 -10 -15 0 -8 -3 -14 -7 -12 -5 1 -8 -1 -8 -4 0 -3
-17 -23 -38 -43 -29 -28 -37 -43 -33 -59 2 -12 -2 -31 -10 -41 -19 -27 -18
-53 4 -65 35 -19 252 -61 279 -55 39 9 48 18 84 82 62 111 212 244 388 346 36
21 126 62 200 91 251 99 431 135 674 137 242 1 425 -37 692 -145 207 -83 301
-137 670 -386 434 -292 404 -271 576 -406 84 -66 176 -138 204 -160 184 -141
321 -253 395 -322 46 -43 179 -166 294 -273 116 -107 287 -266 380 -353 182
-169 981 -975 1156 -1167 131 -144 179 -195 360 -390 80 -85 230 -248 335
-360 104 -113 302 -324 440 -470 267 -282 383 -409 670 -725 99 -109 232 -255
295 -325 63 -69 154 -169 201 -221 47 -52 222 -249 389 -439 166 -190 321
-365 344 -390 160 -178 738 -838 872 -995 27 -33 86 -102 130 -154 43 -51 135
-162 204 -246 69 -83 217 -261 330 -395 113 -133 219 -260 235 -280 17 -21 75
-91 130 -156 55 -65 198 -235 318 -378 588 -702 686 -818 1166 -1385 99 -118
186 -224 464 -565 89 -109 198 -243 242 -296 44 -53 114 -139 155 -190 41 -51
111 -136 154 -189 84 -102 166 -211 366 -486 226 -310 465 -761 594 -1118 53
-149 70 -225 95 -437 24 -192 18 -348 -19 -510 -70 -310 -80 -507 -35 -688 63
-258 170 -502 360 -822 155 -261 141 -206 122 -459 -10 -119 -29 -380 -43
-580 l-25 -363 -103 -157 c-133 -201 -231 -389 -296 -571 -29 -80 -69 -182
-90 -227 -52 -113 -194 -375 -236 -437 -62 -91 -92 -188 -103 -329 -20 -244
-39 -283 -232 -482 -48 -49 -92 -103 -98 -118 -30 -78 1 -120 96 -132 84 -10
182 -35 228 -58 33 -17 69 -22 200 -28 168 -7 190 -3 226 37 21 25 25 39 44
162 10 73 13 139 9 220 l-7 117 43 80 c23 44 52 94 64 110 12 17 71 111 131
210 60 99 151 250 203 335 52 85 149 250 216 365 67 116 150 246 185 290 79
101 99 139 116 228 33 175 128 582 159 684 67 226 181 573 188 573 4 0 33 -48
64 -107 31 -60 92 -172 136 -251 43 -78 78 -144 78 -146 0 -3 50 -89 112 -193
189 -319 168 -259 168 -473 0 -203 14 -317 75 -650 45 -245 65 -433 65 -626 0
-116 5 -175 21 -250 11 -55 27 -130 35 -169 39 -195 -10 -391 -114 -455 -59
-36 -82 -74 -82 -134 0 -36 6 -52 25 -71 l24 -25 361 0 c444 0 405 -17 397
174 -5 113 -10 147 -41 243 l-35 112 16 98 c22 132 21 610 -3 1115 -15 329
-16 392 -4 481 26 193 25 247 -5 319 -74 178 -146 365 -179 463 -45 138 -146
488 -142 492 2 2 34 -9 72 -25 271 -112 818 -317 1014 -380 295 -95 592 -163
850 -196 201 -25 552 -39 809 -31 l234 7 -7 -43 c-3 -24 -15 -152 -26 -284
-25 -289 -21 -503 15 -820 43 -371 45 -398 46 -510 1 -60 -4 -175 -10 -255 -6
-80 -11 -179 -11 -220 0 -109 -22 -188 -63 -223 -43 -37 -115 -57 -206 -57
-231 0 -409 -94 -486 -255 -70 -147 -71 -202 -4 -174 25 10 34 10 37 1 4 -14
25 -15 50 -3 100 51 145 54 167 12 12 -24 24 -31 57 -36 24 -3 303 -5 621 -3
565 3 579 3 594 23 13 17 14 54 9 250 -16 614 -18 755 -8 841 11 97 44 219
152 574 113 370 134 485 145 775 10 263 4 243 106 406 49 79 99 152 112 161
12 10 59 33 104 52 l82 35 77 -232 c93 -280 102 -299 198 -461 42 -70 102
-173 133 -229 85 -155 104 -178 230 -284 280 -236 404 -326 669 -491 289 -179
332 -214 568 -450 l218 -220 -4 -76 c-2 -58 -8 -82 -26 -105 -12 -17 -22 -37
-22 -45 0 -8 -13 -36 -30 -63 -88 -144 -81 -337 18 -462 26 -32 48 -22 56 25
l8 37 25 -27 c30 -33 44 -30 56 13 l8 33 20 -21 c26 -28 35 -21 42 30 8 62 31
80 108 83 56 2 79 11 180 62 149 76 237 135 326 218 119 110 233 288 233 363
0 27 -12 45 -68 100 -37 38 -107 115 -157 173 -109 129 -350 369 -430 430
-150 113 -295 233 -346 287 -62 65 -186 238 -274 383 -127 210 -259 372 -433
531 -57 53 -109 104 -114 113 -14 26 -27 241 -30 530 l-3 259 175 72 c96 40
251 103 344 141 93 37 182 79 197 91 36 31 86 110 109 174 30 81 59 115 135
157 38 22 124 70 190 107 233 132 256 143 395 178 74 19 243 64 375 100 414
113 767 205 845 221 41 8 125 26 185 40 173 39 798 103 1135 116 295 11 510 6
1040 -25 585 -34 953 -54 1085 -60 308 -13 523 -26 785 -45 151 -11 502 -36
780 -55 278 -20 694 -51 925 -70 434 -35 553 -42 1279 -76 625 -29 951 -38
1706 -49 371 -5 720 -11 775 -14 55 -3 253 -8 440 -11 360 -6 397 -8 650 -31
279 -25 482 -53 765 -105 293 -54 809 -167 900 -198 30 -11 98 -28 150 -39 52
-12 194 -44 315 -72 121 -29 224 -52 229 -53 18 -4 39 55 30 81 -8 23 -40 36
-304 124 -479 161 -651 209 -1011 287 -546 117 -988 179 -1474 206 -823 46
-1276 87 -1860 170 -55 8 -199 26 -320 39 -610 70 -1112 128 -1220 141 -66 8
-199 24 -295 35 -421 51 -948 154 -1500 293 -162 41 -385 96 -495 121 -806
188 -1078 261 -1700 458 -341 108 -1009 336 -1255 428 -141 53 -1496 508
-1620 544 -63 18 -153 43 -200 56 -47 12 -112 31 -144 41 -73 23 -375 89 -408
89 -13 0 -105 13 -204 29 -200 33 -537 77 -659 86 -132 10 -197 16 -266 26
-68 9 -177 15 -779 45 -393 20 -813 15 -1075 -12 -262 -26 -365 -15 -920 101
-143 30 -370 77 -505 105 -332 69 -438 97 -769 201 -352 112 -590 197 -836
301 -104 43 -208 87 -230 96 -218 89 -782 387 -1093 579 -247 152 -306 191
-627 423 -66 48 -246 176 -400 285 -154 110 -300 215 -325 235 -25 20 -90 72
-145 116 -351 276 -529 418 -609 485 -50 41 -266 221 -481 400 -214 178 -462
387 -549 464 -88 77 -183 160 -212 185 -28 25 -98 86 -154 135 -56 50 -126
110 -154 135 -136 116 -778 682 -841 740 -38 36 -92 85 -120 110 -104 91 -367
333 -599 549 -733 683 -1167 1091 -1381 1296 -351 338 -1057 996 -1260 1175
-65 58 -155 137 -199 176 -45 40 -207 184 -361 320 -820 727 -1151 1014 -1660
1439 -60 50 -143 119 -185 155 -319 272 -411 347 -624 518 -132 105 -277 220
-320 255 -44 34 -103 81 -132 104 -202 162 -1360 968 -1584 1103 -25 15 -119
73 -210 130 -538 335 -851 504 -1325 718 -378 170 -497 214 -725 273 -214 54
-340 69 -588 69 -214 -1 -584 -29 -635 -49 -44 -17 -100 -13 -179 13 -40 14
-102 27 -138 31 -36 3 -74 7 -85 9 -11 2 -45 0 -75 -4z"/>
</g>
</svg>
