<?xml version="1.0" standalone="no"?>
<!DOCTYPE svg PUBLIC "-//W3C//DTD SVG 20010904//EN"
 "http://www.w3.org/TR/2001/REC-SVG-20010904/DTD/svg10.dtd">
<svg version="1.0" xmlns="http://www.w3.org/2000/svg"
 width="1536.000000pt" height="1051.000000pt" viewBox="0 0 1536.000000 1051.000000"
 preserveAspectRatio="xMidYMid meet">
<metadata>
Created by potrace 1.16, written by Peter Selinger 2001-2019
</metadata>
<g transform="translate(0.000000,1051.000000) scale(0.100000,-0.100000)"
fill="#000000" stroke="none">
<path d="M3182 10501 c-18 -3 -32 -10 -31 -16 1 -12 -136 -63 -173 -64 -15 -1
-53 -14 -85 -31 -31 -16 -67 -30 -78 -30 -24 0 -145 -114 -145 -137 0 -8 5
-11 10 -8 6 3 10 -1 10 -9 0 -9 -8 -16 -18 -16 -18 0 -46 -35 -38 -48 2 -4 -7
-12 -20 -19 -24 -11 -32 -5 -14 13 5 5 11 31 13 57 3 26 11 55 19 65 8 9 26
36 41 59 l26 41 -40 -23 c-27 -15 -56 -46 -85 -91 -46 -71 -25 -52 34 31 19
26 36 44 39 41 3 -3 -34 -64 -81 -137 -48 -72 -90 -129 -93 -126 -3 3 5 22 17
42 12 20 20 38 17 41 -2 3 -20 -21 -38 -52 -19 -32 -46 -78 -61 -103 -15 -25
-26 -53 -25 -61 2 -8 -5 -33 -16 -54 -10 -22 -25 -61 -33 -88 -17 -55 -30 -60
-48 -18 -11 26 -12 14 -14 -103 -2 -72 -7 -148 -12 -167 -7 -27 -9 -16 -5 48
2 47 0 82 -5 82 -11 0 -19 -43 -23 -125 -2 -45 -4 -36 -6 35 -3 107 -13 86
-26 -53 -6 -69 -8 -76 -20 -60 -10 14 -16 15 -25 6 -14 -13 -5 -33 16 -33 9 0
14 -10 14 -27 0 -21 -3 -24 -10 -13 -18 29 -22 -1 -11 -81 7 -44 10 -83 7 -86
-3 -3 -1 -13 4 -22 5 -10 5 -23 1 -30 -6 -9 -10 -6 -15 11 -5 14 -9 18 -13 10
-2 -6 4 -40 15 -75 33 -105 34 -107 23 -107 -14 0 -46 65 -56 110 -14 69 -26
66 -20 -5 12 -169 11 -184 -4 -172 -12 10 -13 7 -7 -17 16 -66 18 -87 7 -99
-8 -10 -7 -29 5 -73 8 -32 13 -70 11 -84 -3 -24 -4 -23 -12 8 -4 17 -13 32
-21 32 -17 0 43 -132 97 -211 22 -33 38 -63 35 -67 -4 -3 -13 4 -21 16 -9 11
-22 28 -30 36 -8 8 -15 19 -15 23 0 5 -7 18 -15 29 -13 18 -14 18 -8 -5 4 -17
3 -22 -5 -17 -8 5 -12 -2 -12 -19 0 -19 19 -47 60 -93 33 -37 60 -71 60 -77
-1 -5 -26 17 -56 50 -30 33 -52 51 -49 40 6 -18 5 -18 -13 3 -11 12 -24 22
-28 22 -4 0 -18 10 -31 22 -13 12 -23 16 -23 9 0 -7 -5 -9 -10 -6 -6 4 -8 10
-6 14 3 4 1 13 -5 21 -7 12 -9 11 -9 -5 0 -11 14 -38 32 -59 22 -27 28 -40 19
-45 -8 -6 1 -24 31 -60 24 -29 51 -63 61 -75 10 -13 20 -40 22 -62 4 -38 30
-99 55 -129 8 -10 9 -15 2 -15 -6 0 -30 23 -54 51 -82 96 -292 219 -443 258
-110 29 -254 44 -307 32 -72 -17 -229 -77 -313 -120 -150 -78 -408 -289 -571
-468 -251 -274 -366 -473 -457 -788 -52 -179 -71 -314 -71 -515 -1 -174 1
-193 31 -323 44 -185 110 -330 245 -533 189 -285 419 -501 688 -647 89 -48
363 -135 480 -152 169 -25 381 -38 509 -31 252 13 502 59 676 124 85 32 289
114 342 138 17 8 36 14 43 14 10 0 200 87 245 112 11 6 70 38 130 71 61 32
124 69 141 82 17 13 67 41 110 63 83 40 152 84 246 154 31 24 82 63 115 87 32
24 69 54 83 66 32 29 80 59 80 51 0 -4 -19 -27 -41 -51 -23 -25 -37 -45 -32
-45 6 0 18 9 28 20 10 11 23 20 29 20 6 0 30 25 54 56 24 31 46 53 49 50 4 -3
-6 -19 -20 -34 -15 -16 -27 -32 -27 -36 0 -5 27 20 61 55 l60 64 -27 -50 c-15
-27 -32 -56 -37 -63 -5 -7 -8 -15 -5 -17 3 -3 24 25 47 62 22 38 41 62 41 55
0 -20 -28 -81 -50 -109 -22 -28 -25 -43 -10 -43 6 0 10 5 10 11 0 12 86 136
101 145 5 3 0 -18 -11 -46 -11 -28 -16 -49 -10 -45 13 8 13 -11 -1 -36 -22
-43 -59 -154 -44 -135 8 11 15 24 15 28 0 5 9 18 19 30 11 11 37 53 57 92 21
39 39 65 42 58 2 -7 8 -10 13 -6 5 3 9 0 9 -6 0 -6 4 -9 10 -5 5 3 3 -16 -5
-42 -25 -80 -28 -93 -18 -93 6 0 15 12 21 26 11 22 14 24 27 10 8 -8 15 -24
15 -35 0 -30 15 -26 40 9 12 17 24 30 28 30 7 0 18 -32 76 -225 51 -170 126
-342 182 -420 91 -126 222 -254 354 -344 139 -95 208 -128 283 -137 67 -8 178
16 255 55 60 31 142 105 142 128 0 7 5 13 11 13 5 0 21 25 35 55 38 88 32 242
-18 425 -11 41 -23 80 -26 85 -6 10 -49 127 -57 155 -3 8 -25 75 -50 149 -46
133 -53 190 -26 199 9 3 11 -2 6 -17 -4 -13 -2 -21 5 -21 7 0 10 -7 6 -17 -4
-11 2 -8 14 7 11 14 30 36 41 49 11 13 29 41 39 62 24 45 46 63 35 28 -7 -22
-3 -20 30 11 l36 35 -6 -30 c-4 -16 -14 -56 -22 -89 -8 -32 -12 -60 -9 -63 2
-3 10 15 16 38 27 111 33 129 46 140 8 7 17 9 20 7 6 -7 -25 -109 -37 -123
-12 -12 -11 -25 0 -25 5 0 19 30 32 66 22 61 41 85 56 70 3 -3 1 -18 -6 -32
-6 -15 -10 -28 -8 -30 2 -2 27 44 55 102 29 58 56 102 62 99 6 -4 6 -15 0 -31
-13 -32 -13 -74 -1 -74 5 0 14 21 21 48 6 26 19 62 29 81 l18 34 -1 -84 c-1
-82 19 -174 35 -163 4 2 1 20 -7 39 -16 39 -19 132 -4 155 7 11 10 12 10 2 0
-21 63 36 77 70 7 17 11 34 8 38 -8 14 17 60 32 60 11 0 13 -8 8 -32 l-6 -33
25 28 c15 15 26 36 26 45 0 11 3 13 11 5 8 -8 8 -17 -1 -32 -6 -12 -9 -30 -7
-39 3 -14 6 -12 14 7 10 24 10 24 28 -17 10 -23 23 -38 29 -35 6 3 5 0 -1 -8
-19 -19 -16 -47 7 -61 13 -9 20 -24 20 -45 0 -18 5 -33 10 -33 6 0 10 -11 10
-24 0 -14 5 -28 10 -31 14 -8 13 -1 -11 144 -11 69 -26 131 -32 136 -29 24
-50 116 -29 129 10 6 43 -30 35 -38 -4 -3 3 -6 15 -6 15 0 20 -5 16 -15 -4 -8
-2 -15 2 -15 5 0 9 -28 9 -62 1 -63 10 -172 21 -239 3 -22 1 -40 -5 -44 -6 -3
-11 -12 -11 -18 0 -7 4 -6 10 3 7 12 10 8 11 -15 0 -16 3 -39 6 -50 3 -11 6
-61 7 -112 0 -50 4 -86 8 -80 4 7 8 21 8 32 1 15 5 12 20 -15 11 -19 19 -43
20 -52 0 -9 7 -21 16 -26 10 -6 22 -35 29 -73 7 -35 14 -53 14 -39 1 20 3 22
11 10 5 -8 10 -49 10 -90 0 -56 3 -71 11 -60 11 16 5 -132 -7 -177 -4 -14 -2
-23 5 -23 6 0 11 12 12 28 0 15 3 21 6 15 10 -27 23 -11 24 30 l1 42 9 -50 c5
-27 6 -62 3 -77 -3 -15 -1 -35 5 -45 9 -16 10 -15 11 7 0 14 5 32 10 40 7 11
10 5 11 -25 0 -22 3 -34 6 -27 18 45 36 -58 38 -213 1 -117 3 -135 15 -135 6
0 10 30 11 68 1 37 4 92 8 122 6 48 7 38 14 -75 4 -72 4 -145 1 -164 -6 -30
-5 -33 13 -27 19 6 21 1 27 -91 4 -54 7 -160 7 -235 -1 -75 3 -139 7 -142 5
-3 8 18 6 47 -3 39 -1 46 5 27 19 -54 7 -146 -12 -97 -3 6 -6 -21 -6 -60 -1
-40 3 -73 8 -73 4 0 6 -11 3 -25 -2 -14 -9 -25 -14 -25 -5 0 -6 -5 -3 -11 13
-20 11 -79 -2 -79 -15 0 -15 3 -4 -38 6 -20 6 -32 0 -32 -5 0 -4 -10 3 -22 15
-28 19 -97 6 -122 -7 -13 -7 -16 1 -12 7 5 11 -1 11 -14 0 -13 -4 -19 -11 -14
-7 4 -10 1 -7 -7 3 -8 11 -14 19 -14 8 0 14 -12 16 -30 2 -25 0 -27 -8 -12
-18 32 -29 7 -14 -30 19 -46 19 -137 -1 -266 -9 -56 -17 -120 -18 -142 -2 -22
-4 -44 -6 -50 -2 -5 0 -18 5 -28 4 -11 -1 -42 -14 -81 -29 -85 -26 -91 9 -21
16 33 30 53 30 45 1 -8 6 -4 12 10 19 43 22 -5 3 -52 -16 -40 -15 -40 5 -35
24 6 25 0 6 -50 -8 -21 -17 -59 -20 -84 -5 -53 -35 -126 -100 -249 -50 -94
-54 -105 -30 -96 13 5 15 1 9 -21 -4 -16 -8 -39 -10 -53 -2 -14 -18 -58 -35
-99 -23 -52 -28 -77 -21 -84 8 -8 11 -6 11 7 0 21 41 118 47 112 2 -2 -3 -33
-11 -68 -9 -34 -15 -76 -15 -93 2 -44 -27 -192 -56 -282 -26 -81 -33 -139 -15
-128 13 8 13 -1 -5 -59 -8 -27 -15 -59 -14 -70 1 -12 8 6 17 39 9 33 18 52 20
42 3 -14 7 -16 18 -6 8 6 14 18 14 25 0 8 5 14 10 14 6 0 10 -21 10 -47 0 -70
9 -96 26 -82 9 7 11 16 6 23 -5 6 -5 46 0 91 6 44 10 94 9 111 0 17 6 39 15
50 8 10 13 14 9 7 -3 -7 1 -29 10 -49 19 -45 19 -50 0 -34 -13 11 -15 5 -15
-44 0 -31 -4 -56 -9 -56 -5 0 -4 -21 1 -48 5 -26 8 -56 6 -67 -1 -11 6 -35 16
-53 11 -22 18 -59 19 -112 2 -66 5 -80 20 -84 11 -3 17 -14 17 -35 0 -18 6
-34 14 -37 10 -4 16 -37 21 -120 5 -87 11 -117 22 -121 8 -3 12 -12 9 -20 -3
-8 -1 -24 5 -35 9 -17 13 -18 20 -7 8 13 16 -76 9 -106 -1 -5 -4 -52 -7 -102
-5 -70 -3 -93 6 -93 10 0 11 -14 6 -53 -4 -37 -3 -48 4 -37 6 8 11 23 11 34 0
12 5 16 15 12 9 -3 18 1 21 9 4 10 24 -5 68 -50 60 -64 62 -65 114 -65 29 0
63 5 74 11 17 9 35 6 90 -16 60 -23 79 -27 130 -21 33 3 80 15 104 26 35 15
51 17 72 9 15 -6 48 -7 76 -4 27 4 47 3 44 -1 -19 -40 -28 -65 -37 -104 -5
-25 -12 -56 -16 -70 l-7 -25 19 23 c43 52 45 -27 3 -89 -43 -64 -40 -96 15
-157 41 -46 51 -51 101 -58 30 -3 76 -2 102 3 35 7 56 6 80 -4 18 -7 67 -13
110 -13 134 0 194 0 292 -3 81 -2 99 1 125 18 55 38 97 47 167 35 35 -5 102
-10 150 -10 83 0 89 1 122 31 44 38 59 87 45 145 -8 29 -8 48 0 62 8 15 6 23
-9 37 -20 19 -27 55 -11 55 5 0 18 -11 29 -25 11 -14 26 -25 32 -25 10 0 9 5
-2 18 -32 36 -59 102 -49 120 9 16 10 16 16 -1 4 -9 11 -17 15 -17 10 0 -19
131 -31 144 -14 16 -10 26 7 19 11 -4 7 11 -16 57 -17 35 -28 66 -23 69 5 3 9
23 8 43 0 24 5 38 13 38 15 0 15 8 1 48 -15 42 -4 66 11 25 7 -18 16 -33 22
-33 6 0 7 8 3 18 -24 59 -36 104 -33 124 3 18 7 15 16 -19 7 -24 18 -43 23
-43 6 0 9 6 6 13 -10 28 -28 129 -24 134 3 3 9 -11 12 -31 11 -54 27 -44 20
12 l-6 47 25 -55 c13 -30 29 -56 35 -58 6 -2 0 20 -13 50 -30 65 -42 118 -27
118 7 0 7 8 0 27 -6 15 -12 66 -15 113 l-4 85 16 -57 c16 -57 36 -82 26 -33
-4 25 13 36 21 13 2 -7 8 -10 12 -6 4 4 2 22 -4 40 -8 22 -8 34 -1 36 14 5 12
34 -6 78 -10 24 -14 53 -10 78 3 29 2 35 -4 21 -8 -18 -9 -17 -9 8 -1 16 3 26
9 22 6 -4 10 7 10 27 0 25 3 29 10 18 7 -11 10 0 10 37 0 28 5 55 10 58 6 4 8
10 5 15 -3 4 4 10 16 13 l20 5 -21 39 c-11 21 -20 47 -20 58 1 18 3 17 24 -8
l23 -29 6 32 c4 17 3 40 -3 50 -5 9 -6 21 -2 25 4 3 8 16 8 28 4 61 25 216 32
242 5 17 21 54 36 82 14 29 26 60 26 68 0 9 5 13 10 10 6 -3 10 4 10 16 0 12
7 31 17 41 13 14 13 18 2 19 -8 1 -3 4 11 8 23 7 25 12 25 67 0 58 16 106 31
91 4 -4 2 -13 -4 -19 -15 -15 -16 -68 -2 -68 6 0 10 16 10 35 0 19 5 35 10 35
6 0 10 12 10 28 0 21 2 24 10 12 6 -10 8 34 6 128 -3 79 -2 141 1 138 3 -3 9
-40 14 -83 15 -129 19 -156 29 -172 7 -12 9 -12 10 -2 0 11 3 11 17 0 14 -12
16 -12 9 0 -5 7 -12 48 -17 90 -4 42 -10 101 -14 131 -8 67 9 48 19 -22 7 -44
25 -76 27 -46 0 7 4 4 9 -7 7 -17 9 -16 10 10 2 17 1 36 0 44 -1 8 4 17 10 21
8 5 9 28 3 81 -5 41 -6 88 -3 104 5 25 7 21 15 -30 5 -33 10 -68 11 -78 1 -10
4 -20 8 -24 3 -3 4 26 2 65 -5 90 8 85 24 -8 12 -73 26 -92 28 -38 0 17 5 34
11 37 7 5 5 23 -4 56 -17 53 -14 74 3 26 12 -34 32 -42 32 -13 0 10 -7 44 -15
76 -17 65 -15 83 5 37 15 -38 40 -49 40 -18 1 19 3 18 16 -8 14 -30 14 -30 9
18 -6 64 15 59 34 -9 14 -52 18 -60 26 -53 2 3 -2 29 -10 59 -8 30 -12 56 -10
58 6 6 26 -46 32 -86 9 -50 23 -38 16 14 -5 36 -3 46 7 42 14 -4 31 -44 55
-131 9 -32 19 -56 22 -54 2 3 -5 40 -16 81 -24 88 -24 86 -12 86 5 0 15 -24
21 -53 14 -57 29 -94 29 -67 0 8 -4 34 -8 58 -5 23 -5 42 0 42 9 0 29 -64 30
-100 1 -41 12 -60 28 -51 11 7 14 28 12 81 -3 90 13 86 28 -7 18 -108 22 -123
32 -123 5 0 9 12 10 28 l1 27 8 -25 c8 -25 8 -25 10 5 2 30 2 30 10 5 6 -16 7
11 4 70 l-4 95 20 -40 c11 -22 20 -45 20 -51 0 -6 11 -20 24 -31 13 -12 27
-35 31 -52 4 -17 11 -31 16 -31 10 0 3 46 -18 113 -8 27 -12 51 -9 54 9 9 37
-64 45 -119 5 -27 11 -51 15 -55 10 -11 7 39 -8 102 -13 53 -13 58 0 40 16
-22 20 -35 29 -108 8 -57 25 -53 26 6 0 38 1 40 11 19 6 -13 17 -21 24 -18 7
3 15 -2 18 -10 3 -9 10 -13 15 -9 5 3 13 0 17 -7 6 -9 10 -5 15 12 l6 25 12
-30 c10 -23 14 -26 21 -15 7 11 10 9 10 -12 0 -36 20 -47 21 -11 0 23 3 19 15
-19 8 -27 17 -48 21 -48 3 0 3 33 0 73 -3 43 -2 62 3 47 4 -14 8 -48 9 -76 1
-32 7 -56 15 -64 8 -6 17 -21 20 -33 6 -28 -3 126 -11 167 -5 29 -4 30 9 11 8
-11 20 -54 27 -95 7 -41 17 -84 21 -95 8 -19 9 -19 9 3 1 28 28 29 33 2 5 -33
23 -28 26 8 5 47 22 29 22 -24 0 -73 19 -49 22 29 l3 72 18 -57 c10 -32 20
-58 24 -58 3 0 3 30 0 68 -4 42 -3 60 3 47 5 -11 9 -32 9 -47 1 -15 5 -29 10
-32 14 -9 41 40 42 76 2 31 2 31 6 5 7 -44 21 -22 29 43 5 43 11 60 21 60 9 0
13 -6 9 -15 -5 -13 5 -20 27 -16 4 0 7 -8 7 -18 0 -11 5 -23 10 -26 6 -4 10
16 10 52 0 41 3 54 10 43 5 -8 10 -26 10 -40 0 -19 2 -22 10 -10 10 16 15 8
23 -40 4 -25 4 -25 12 -3 9 28 25 30 25 3 0 -11 -4 -20 -9 -20 -6 0 -6 -14 0
-34 5 -19 9 -38 8 -43 -3 -20 2 -27 11 -13 8 12 12 13 19 2 10 -17 17 7 27 91
8 70 23 62 31 -17 3 -32 12 -61 21 -68 13 -12 14 -7 8 39 -3 28 -3 54 2 57 5
3 10 -16 11 -41 1 -50 11 -74 11 -29 0 52 18 16 26 -51 4 -38 9 -59 12 -49 3
15 6 16 13 5 7 -11 9 -9 9 8 0 12 -6 23 -12 26 -10 3 -10 7 0 19 7 9 9 23 6
32 -4 10 3 26 20 43 15 14 29 37 32 50 4 13 14 28 24 33 13 7 16 17 12 32 -5
21 -4 22 11 9 15 -12 17 -11 17 3 0 18 25 22 36 5 9 -15 24 9 24 39 0 13 6 22
15 22 18 0 18 4 6 48 -8 26 -7 32 6 32 12 0 14 -10 11 -49 -2 -39 0 -47 10
-39 6 6 12 19 12 29 0 23 16 24 36 4 19 -19 29 -78 17 -100 -8 -14 -12 -12
-26 16 l-16 33 -6 -26 c-5 -19 -1 -35 16 -57 24 -32 32 -122 17 -170 -7 -19
-5 -22 7 -17 12 4 15 -2 15 -28 0 -18 -3 -36 -7 -39 -6 -7 -10 -28 -15 -92 -1
-16 -6 -33 -10 -36 -5 -3 -2 -12 7 -19 13 -11 15 -10 9 4 -6 17 4 21 21 8 12
-8 16 -30 19 -89 2 -49 21 -77 36 -53 11 17 11 17 14 -65 1 -27 5 -56 9 -63 5
-7 6 -21 2 -31 -3 -12 -1 -19 7 -18 31 1 48 -4 48 -13 0 -5 -11 -10 -24 -10
-14 0 -27 -4 -30 -9 -3 -5 2 -8 12 -7 12 1 18 -8 20 -32 3 -27 -1 -35 -18 -39
-15 -4 -18 -9 -10 -18 6 -7 8 -26 5 -41 -13 -75 -16 -129 -6 -114 6 8 11 23
11 33 0 10 4 16 9 13 5 -3 14 1 21 9 6 7 18 11 26 8 10 -4 12 -9 5 -16 -11
-11 -3 -38 18 -53 13 -10 13 -16 3 -38 -14 -30 -16 -49 -4 -43 9 7 9 -75 -1
-90 -11 -17 3 -63 19 -63 8 0 14 -5 14 -11 0 -6 -7 -8 -16 -5 -10 4 -13 2 -7
-7 4 -6 9 -36 10 -66 1 -30 7 -59 13 -65 15 -15 13 -59 -2 -50 -10 6 -10 4 -2
-7 18 -23 22 -67 14 -138 -8 -61 3 -161 17 -161 3 0 11 8 18 17 13 18 11 23
31 -77 3 -17 15 -35 27 -42 12 -6 27 -17 32 -24 11 -13 125 -54 150 -54 8 0
15 5 15 12 0 6 7 3 15 -8 14 -18 16 -18 29 -1 12 15 15 15 19 3 4 -10 16 -14
37 -11 16 2 30 0 30 -5 0 -5 8 -8 18 -8 19 1 61 -7 92 -17 13 -4 19 -2 18 5
-2 6 8 19 21 28 23 16 23 16 16 -17 -4 -18 -13 -44 -21 -59 -22 -43 -16 -56
11 -25 l26 28 -6 -41 c-4 -24 -2 -45 3 -48 6 -4 3 -21 -8 -44 -22 -44 -16 -57
10 -23 l18 25 25 -51 c21 -40 35 -54 67 -67 45 -18 173 -22 214 -6 20 7 38 5
77 -10 63 -25 176 -27 221 -4 26 14 40 14 86 5 87 -17 172 -14 209 9 26 15 48
19 120 17 95 -1 157 12 194 42 20 16 24 29 26 85 1 37 5 71 8 77 4 5 1 17 -7
26 -11 14 -10 15 10 9 13 -5 22 -3 22 3 0 6 -4 11 -9 11 -15 0 -41 64 -29 71
7 5 3 17 -11 37 -26 37 -54 102 -47 109 2 3 18 -21 35 -53 31 -63 60 -105 61
-90 0 5 -11 28 -25 51 -13 23 -21 45 -18 49 3 3 -6 29 -22 58 -20 37 -24 50
-13 45 12 -4 10 4 -7 36 -24 43 -85 210 -85 230 0 7 13 -12 28 -42 45 -91 51
-67 6 26 -23 48 -41 90 -39 93 2 4 -2 24 -10 46 -8 21 -14 46 -14 54 0 8 9 -8
19 -36 17 -50 98 -204 106 -204 7 0 -6 51 -21 85 -7 17 -20 48 -29 70 l-17 40
20 -25 c23 -28 38 -22 21 9 -6 13 -7 21 -1 21 5 0 1 21 -10 46 -12 25 -22 70
-24 100 -3 53 -2 55 16 38 18 -16 19 -16 19 0 0 9 -6 32 -14 50 -8 20 -10 38
-5 43 5 5 -6 53 -26 116 -38 118 -40 127 -24 127 5 0 8 -4 5 -9 -3 -5 6 -9 19
-9 23 1 35 22 18 30 -9 4 -63 102 -63 114 0 5 16 -13 35 -40 19 -27 37 -52 41
-55 9 -8 -41 87 -67 129 l-22 35 39 -36 c58 -53 124 -102 124 -92 0 5 -6 15
-12 23 -8 8 -1 6 15 -4 16 -10 31 -16 33 -13 3 3 -10 14 -28 25 -44 28 -102
88 -94 100 3 5 -6 45 -20 88 -43 136 -54 182 -59 257 l-5 72 26 -102 c14 -57
29 -103 34 -103 13 0 20 82 11 120 -18 68 -24 85 -32 90 -11 7 -34 149 -25
157 10 10 15 0 46 -87 34 -96 56 -134 72 -123 9 5 9 8 0 11 -7 2 -12 13 -12
23 0 11 -4 18 -9 15 -5 -4 -12 13 -16 36 -4 24 -13 52 -20 63 -10 16 -10 24
-1 37 11 15 14 14 30 -13 10 -17 20 -28 23 -25 3 2 -8 51 -23 108 -15 57 -28
115 -28 130 -1 14 -4 24 -8 21 -5 -2 -8 3 -8 12 0 10 5 13 12 9 8 -5 9 -2 4
12 -9 22 -26 192 -24 244 0 29 2 26 8 -15 13 -90 31 -162 43 -179 13 -17 14
54 3 229 -4 69 -4 72 3 20 4 -33 13 -69 20 -80 11 -17 11 -15 6 17 -4 24 -1
38 6 40 9 3 10 12 1 36 -14 42 -4 383 11 356 5 -9 11 -38 12 -63 3 -57 4 -59
13 -44 5 8 15 -14 26 -57 21 -79 33 -90 15 -14 -6 27 -12 72 -14 101 -2 28 -6
78 -9 110 l-5 58 16 -50 c14 -41 18 -45 21 -26 2 13 -3 49 -11 80 -16 60 -33
143 -42 204 -3 21 -10 35 -16 32 -5 -4 -9 1 -9 9 0 33 30 15 41 -24 13 -42 42
-79 34 -43 -2 10 -6 25 -10 34 -4 11 0 18 15 22 14 3 19 10 15 17 -4 7 -3 15
3 19 6 4 5 52 -4 146 -7 77 -13 169 -13 205 l1 65 14 -74 c8 -41 22 -84 31
-95 14 -20 15 -19 9 22 -8 51 9 49 18 -3 4 -19 11 -37 16 -40 15 -9 13 1 -20
131 -34 136 -35 140 -17 125 16 -13 31 -3 18 13 -5 6 -5 19 -2 30 6 14 10 9
20 -24 7 -23 15 -40 17 -37 3 3 -1 29 -10 59 -34 115 -73 308 -62 308 2 0 26
-43 52 -95 27 -53 61 -110 76 -128 l28 -32 -31 55 c-45 77 -85 169 -109 248
-11 37 -23 75 -26 85 -9 28 19 20 54 -16 18 -18 32 -41 32 -50 0 -9 3 -16 8
-15 4 2 19 -8 34 -22 27 -25 48 -72 74 -165 18 -66 24 -79 29 -73 3 2 -4 37
-16 77 -11 41 -18 75 -17 77 6 5 21 -8 71 -63 26 -29 47 -47 47 -41 0 6 12 -6
26 -27 36 -53 51 -67 59 -55 5 8 11 8 20 0 13 -11 59 -10 70 1 3 3 -4 14 -15
24 -11 10 -20 25 -20 34 0 10 17 -2 46 -31 26 -27 53 -48 62 -48 8 0 24 -8 35
-18 19 -17 20 -16 8 6 -21 39 -1 39 32 1 18 -20 42 -39 55 -42 24 -6 28 3 10
21 -6 6 -8 15 -4 19 4 4 12 0 17 -9 13 -24 75 -60 97 -56 10 1 29 -4 43 -13
47 -31 189 -99 206 -99 10 0 -22 19 -70 42 -80 38 -101 58 -78 72 8 6 118 -30
136 -44 28 -22 198 -56 218 -43 14 8 -14 23 -45 23 -15 0 -29 4 -32 9 -11 17
25 21 64 7 37 -13 39 -12 68 16 28 28 31 29 71 18 24 -6 45 -10 47 -8 2 2 -28
24 -66 49 -38 24 -70 47 -70 52 0 4 -7 7 -15 7 -8 0 -15 4 -15 9 0 4 12 6 28
4 l27 -4 -30 16 c-29 15 -28 15 45 10 41 -3 100 -7 130 -10 30 -2 46 -2 35 1
-11 3 -28 13 -38 22 -18 16 -18 17 0 24 11 5 0 7 -32 7 -113 -3 -125 10 -28
30 32 6 65 16 73 22 12 8 9 9 -13 5 -15 -4 -48 -9 -75 -11 l-47 -5 54 20 c30
11 56 22 58 24 3 2 -19 4 -49 3 -29 -1 -71 2 -93 6 -29 6 -36 6 -25 -2 12 -9
10 -11 -10 -11 -14 0 -31 4 -39 9 -16 10 2 16 134 46 72 17 107 35 68 35 -12
0 -32 -4 -45 -9 -13 -4 -48 -11 -78 -15 l-55 -6 40 18 c34 16 135 92 123 92
-2 0 -29 -12 -59 -26 -31 -15 -75 -28 -104 -29 -27 -2 -62 -6 -77 -10 -21 -5
-28 -4 -28 8 0 8 10 17 23 20 12 4 31 13 42 22 16 14 17 16 3 11 -48 -16 -50
-16 -15 4 20 11 37 22 37 25 0 6 -99 -30 -174 -64 -38 -17 -85 -31 -106 -31
-20 0 -40 -3 -44 -7 -11 -11 -176 -12 -176 -1 0 5 -18 7 -40 4 -22 -3 -40 -1
-40 4 0 16 -41 22 -57 8 -15 -11 -16 -11 -10 4 5 14 -4 23 -42 43 -27 13 -51
22 -53 19 -12 -11 -96 87 -98 114 0 4 -13 12 -28 17 -40 15 -142 88 -142 103
0 6 -7 12 -15 12 -8 0 -15 5 -15 10 0 6 -7 10 -15 10 -8 0 -15 5 -15 10 0 6
-19 30 -42 54 -24 24 -52 54 -62 67 l-19 22 28 -7 27 -7 -21 30 c-12 16 -20
36 -19 43 2 7 -2 12 -9 11 -19 -4 -143 160 -130 173 3 3 16 -11 29 -30 14 -20
28 -33 31 -29 4 3 7 -3 7 -14 0 -11 8 -27 18 -34 15 -13 16 -12 3 4 -11 14
-11 20 -1 32 7 9 8 15 2 15 -10 0 -111 121 -130 157 -15 27 -15 36 -2 28 15
-9 13 -5 -24 73 -30 59 -34 79 -31 123 3 40 -1 61 -16 85 -25 41 -25 53 1 23
27 -34 25 -16 -5 32 -14 22 -23 44 -20 50 4 5 1 8 -6 7 -6 -2 -14 3 -17 11 -3
9 0 11 8 6 17 -10 10 1 -52 83 -26 36 -48 69 -48 74 0 5 27 -19 59 -54 61 -65
97 -78 42 -15 -17 19 -31 40 -31 46 0 6 -5 11 -12 11 -6 0 -4 7 6 18 15 18 15
20 -4 37 -17 15 -50 69 -50 82 0 1 9 3 19 3 31 0 34 18 6 36 -14 9 -25 25 -25
35 0 11 -4 19 -9 19 -10 0 -148 112 -172 140 -8 9 -25 21 -38 25 -46 14 -11
16 46 2 77 -20 242 -42 250 -33 3 3 -3 6 -14 6 -11 0 -67 12 -124 26 -106 27
-226 79 -267 117 -24 22 -73 53 -138 86 -44 23 -66 61 -35 61 9 0 34 -9 56
-20 93 -48 51 -8 -64 60 -51 30 -88 40 -76 20 9 -14 5 -13 -40 10 -42 21 -55
20 -35 -5 7 -8 -21 0 -64 20 -55 25 -85 33 -103 29 -22 -6 -25 -4 -20 10 4 10
7 20 7 22 0 3 17 2 38 -2 68 -12 21 12 -88 45 -58 18 -118 38 -135 46 -16 7
-40 17 -53 20 -13 4 -27 17 -32 29 -6 17 -22 25 -65 35 -31 7 -54 16 -50 19 3
3 -13 16 -37 29 -24 12 -37 22 -30 23 22 0 13 18 -14 24 -15 4 -24 10 -20 13
3 4 -5 14 -20 23 -21 15 -23 18 -9 24 9 3 29 3 43 0 26 -5 26 -5 7 11 -11 9
-32 19 -47 22 -16 3 -28 10 -28 15 0 5 -4 6 -10 3 -5 -3 -10 -1 -10 4 0 6 -6
11 -13 11 -8 0 -22 9 -32 21 -19 20 -19 20 8 10 15 -6 27 -8 27 -4 0 4 6 0 13
-9 6 -9 23 -19 37 -22 23 -6 23 -5 6 6 -11 7 -28 21 -39 32 -11 10 -39 21 -63
24 -27 3 -44 10 -44 18 0 7 -8 13 -17 13 -37 0 -275 68 -340 97 -54 24 -48 36
8 14 28 -12 54 -18 57 -15 5 5 -80 45 -128 60 -21 7 -22 9 -7 14 13 5 8 12
-28 31 -25 13 -45 30 -45 36 0 7 -10 14 -23 18 -13 3 -57 21 -98 40 -74 35
-73 36 23 21 30 -5 31 -4 14 13 -9 11 -50 27 -94 37 -88 20 -102 28 -95 54 3
13 -2 20 -19 25 -14 5 -18 9 -10 13 20 8 3 23 -26 23 -15 0 -45 7 -67 15 l-40
15 55 -5 c30 -4 79 -11 109 -16 38 -8 56 -8 64 0 6 6 8 11 5 11 -21 0 -176 33
-190 41 -10 5 -57 21 -105 35 -48 14 -96 34 -106 45 -10 10 -25 19 -34 19 -9
0 -33 5 -53 11 -29 9 -36 15 -33 30 3 12 0 19 -8 20 -8 1 -25 2 -39 3 -14 1
-36 8 -50 14 -22 11 -19 12 25 6 45 -5 48 -4 30 8 -11 8 -39 20 -62 28 -32 10
-40 16 -33 25 12 15 -34 47 -126 91 -34 16 -60 33 -57 39 2 6 -5 19 -16 29
-11 10 -17 23 -15 30 5 13 -82 84 -126 103 -14 6 -44 19 -68 29 -61 25 -61 35
0 18 29 -7 69 -13 88 -13 29 1 25 4 -28 16 -48 11 -62 19 -60 31 2 12 -5 18
-22 20 -14 2 -32 10 -40 17 -8 7 -37 21 -64 31 -28 10 -71 33 -98 51 -26 18
-50 33 -54 33 -4 0 -23 10 -42 22 -30 19 -33 22 -16 28 15 6 14 8 -11 14 -15
4 -38 14 -49 23 -22 16 -20 16 84 -3 22 -4 23 -3 5 5 -11 5 -45 16 -75 24 -30
9 -45 16 -33 16 12 1 33 -3 47 -9 15 -5 26 -6 26 -1 0 15 -59 29 -148 36 -109
9 -159 23 -86 24 47 1 74 13 74 34 0 6 -62 8 -157 5 -115 -3 -146 -2 -115 5
50 12 56 25 10 20 -27 -3 -29 -2 -12 6 11 5 46 12 77 15 32 3 82 9 113 12 37
4 53 9 46 16 -9 9 -192 -3 -264 -18 -16 -3 -28 -3 -28 0 0 2 35 24 78 48 42
23 84 47 93 53 9 5 35 20 57 32 59 33 130 82 138 96 4 7 -1 5 -12 -5 -46 -40
-435 -242 -519 -270 -108 -35 -305 -88 -305 -82 0 3 -10 -2 -22 -10 -25 -18
-63 -22 -53 -6 3 6 4 10 2 10 -20 0 -181 -61 -267 -100 -59 -28 -110 -50 -114
-50 -4 0 -20 -9 -35 -19 -17 -12 -36 -18 -49 -14 -19 5 -17 8 22 37 24 17 67
49 94 71 28 22 61 48 74 58 48 38 -11 0 -126 -80 -65 -46 -122 -83 -127 -83
-5 0 -9 7 -9 15 0 24 -18 18 -22 -7 -5 -40 -58 -64 -155 -73 -109 -10 -166
-10 -220 0 -36 6 -43 12 -48 37 -6 27 -49 57 -63 43 -3 -3 -12 9 -19 26 -7 17
-17 28 -22 24 -6 -3 -16 3 -23 15 -7 11 -21 20 -30 20 -20 0 -24 16 -6 22 13
5 -22 27 -75 49 -18 7 -26 17 -23 26 3 8 2 12 -2 10 -4 -3 -15 5 -24 18 -17
22 -17 23 5 17 12 -3 25 -10 29 -16 5 -8 10 -8 18 0 9 9 2 16 -27 30 -21 11
-38 26 -38 34 0 25 -47 79 -92 106 -42 24 -58 42 -28 30 30 -11 14 21 -17 37
-21 10 -27 16 -15 16 30 1 18 15 -53 60 -39 24 -70 48 -70 53 0 4 -11 14 -25
20 -14 6 -25 16 -25 22 0 5 -17 27 -37 48 -56 58 -34 55 33 -5 70 -62 105 -87
161 -116 50 -25 60 -26 43 -6 -7 8 -18 15 -24 15 -24 0 -206 144 -206 163 0 6
10 1 23 -10 29 -26 133 -95 177 -118 l35 -18 -25 28 c-14 15 -49 43 -77 62
-52 34 -68 51 -38 39 27 -10 16 0 -37 34 -153 99 -218 160 -170 160 8 0 -10
17 -39 37 -30 20 -62 46 -73 57 -10 12 -22 20 -28 18 -5 -1 -21 7 -36 19 -17
14 -20 20 -9 16 11 -4 31 -10 45 -13 26 -6 25 -5 -6 15 -18 12 -37 21 -42 21
-6 0 -10 4 -10 9 0 5 -10 7 -22 4 -17 -3 -19 -2 -9 5 11 8 10 12 -6 21 -11 5
-23 8 -26 4 -12 -11 -98 9 -115 27 -14 15 -38 21 -115 26 -57 4 -97 11 -97 17
0 7 -5 6 -12 -1 -16 -16 -69 -16 -65 0 8 43 -109 4 -346 -114 -32 -16 -62 -26
-67 -23 -4 3 -20 -10 -35 -27 -29 -35 -73 -68 -90 -68 -5 1 -1 7 9 15 30 22
12 18 -57 -14 -34 -16 -78 -33 -97 -39 -19 -6 -66 -21 -105 -33 -59 -18 -104
-39 -84 -39 6 0 100 32 132 45 9 4 17 3 17 -3 0 -6 -6 -12 -12 -15 -19 -6 13
1 40 9 18 5 21 3 16 -10 -9 -24 21 -20 47 7 12 12 18 15 13 6 -5 -9 -50 -49
-101 -89 -51 -40 -95 -80 -98 -90 -4 -12 -12 -16 -25 -13 -12 3 -22 -1 -26
-10 -3 -9 -22 -21 -42 -28 -21 -7 -32 -14 -25 -16 7 -3 9 -12 5 -21 -5 -16 -4
-16 18 0 14 10 33 23 44 29 36 22 6 -10 -41 -42 l-46 -32 5 26 c4 23 3 25 -14
16 -10 -5 -16 -14 -13 -19 3 -4 -7 -18 -22 -30 -31 -25 -66 -69 -42 -55 17 11
-1 -14 -39 -52 -13 -13 -22 -29 -19 -36 8 -24 52 -4 116 52 96 83 111 93 81
54 -14 -17 -57 -56 -96 -87 -71 -54 -150 -149 -139 -166 3 -4 -11 -28 -31 -51
-22 -27 -31 -45 -24 -47 19 -7 61 20 56 35 -3 7 1 13 9 13 8 0 15 7 15 15 0 8
6 15 14 15 7 0 19 7 26 15 7 9 26 25 42 36 24 17 28 18 28 4 0 -8 -8 -19 -17
-22 -25 -9 -43 -35 -38 -51 3 -8 -6 -18 -22 -24 -16 -6 -46 -32 -68 -58 -22
-25 -59 -61 -82 -79 -24 -18 -43 -40 -43 -48 0 -7 -7 -26 -16 -41 -10 -15 13
5 48 43 36 39 69 67 73 63 5 -4 -17 -33 -49 -65 -31 -31 -56 -64 -56 -72 0 -9
-18 -36 -41 -61 -22 -25 -38 -37 -35 -27 3 11 2 15 -4 12 -6 -3 -10 -13 -10
-21 0 -31 35 -11 101 58 38 40 69 68 69 62 0 -5 -16 -26 -36 -45 -69 -65 -156
-181 -158 -208 0 -14 -7 -32 -13 -39 -15 -16 -17 -42 -4 -42 5 0 17 7 25 16
15 14 16 14 16 -1 0 -8 -6 -18 -14 -21 -7 -3 -26 -27 -40 -55 -15 -27 -31 -49
-37 -49 -5 0 -9 -6 -9 -13 0 -8 -10 -19 -22 -25 l-23 -11 25 -1 c19 0 8 -9
-45 -36 -38 -20 -74 -41 -80 -47 -5 -7 -38 -36 -72 -65 -34 -30 -61 -57 -60
-61 1 -4 -25 -33 -58 -64 -45 -43 -54 -57 -40 -57 16 -1 11 -9 -22 -38 -24
-21 -43 -41 -43 -45 0 -5 -11 -25 -25 -45 -14 -20 -25 -45 -25 -55 0 -25 -54
-101 -95 -134 -31 -25 -50 -53 -25 -38 14 8 13 1 -5 -41 -13 -32 -13 -35 0
-30 13 4 14 2 5 -14 -12 -23 -30 -26 -48 -8 -9 9 -12 8 -12 -6 0 -9 4 -14 10
-11 6 3 10 -1 10 -9 0 -9 -4 -16 -9 -16 -19 0 -128 72 -153 102 -16 18 -28 26
-28 19 0 -11 -4 -10 -18 2 -10 10 -26 17 -36 17 -23 0 -14 -31 28 -90 55 -77
50 -81 -32 -32 -42 24 -100 59 -128 77 -27 18 -70 43 -95 55 -24 12 -55 32
-69 44 -14 12 -47 28 -74 34 -27 7 -81 28 -120 46 -39 19 -95 37 -124 41 -43
6 -57 13 -76 38 -13 18 -26 41 -28 52 -2 11 -10 20 -18 20 -9 0 -21 18 -30 43
-11 33 -19 42 -37 42 -16 0 -23 6 -23 20 0 11 -4 20 -10 20 -5 0 -14 19 -20
43 -6 23 -18 56 -26 74 -8 17 -14 44 -15 60 0 24 -1 26 -9 8 -7 -16 -9 -13 -9
17 -1 20 -7 43 -15 51 -11 11 -12 30 -4 107 7 68 7 99 -1 112 -6 10 -11 25
-11 33 0 8 -4 15 -9 15 -5 0 -11 10 -13 23 -3 18 -6 14 -16 -18 -7 -22 -13
-56 -14 -75 -1 -27 -14 91 -18 170 -4 68 -14 110 -25 110 -7 0 -15 -3 -18 -7
-2 -5 -2 -1 0 7 11 39 13 151 3 145 -5 -3 -10 -13 -10 -21 0 -8 -8 -14 -17
-14 -13 0 -14 3 -5 12 7 7 12 36 12 65 0 30 7 68 16 86 10 18 13 32 7 34 -7 3
-7 20 -2 50 7 34 6 49 -3 54 -9 6 -9 11 0 22 7 8 13 27 13 43 3 53 40 141 80
190 72 88 121 136 156 150 18 8 33 18 33 23 0 5 17 12 37 16 35 6 37 8 18 21
-18 13 -18 14 7 14 34 0 58 9 58 22 0 7 -17 8 -45 5 -27 -4 -45 -3 -45 3 0 6
8 10 18 10 9 0 26 7 36 15 28 21 122 19 174 -5 23 -10 42 -15 42 -10 0 25 99
-45 149 -105 7 -9 19 -14 27 -11 10 4 14 -2 14 -18 0 -30 22 -50 38 -34 8 8
14 5 21 -14 5 -15 14 -29 19 -32 5 -3 13 -22 16 -41 4 -21 13 -35 21 -35 10 0
15 -11 15 -36 0 -24 4 -34 13 -31 7 2 16 -11 23 -32 6 -20 16 -35 22 -34 7 2
12 -8 12 -21 0 -14 4 -27 9 -30 5 -3 7 -50 4 -104 -5 -95 1 -154 33 -317 19
-99 42 -309 43 -392 2 -124 34 -144 117 -70 27 24 59 49 71 55 35 19 108 14
179 -13 98 -37 122 -22 102 68 -6 30 -28 67 -68 117 -48 61 -59 82 -62 119 -2
26 -2 48 1 51 10 8 11 71 2 65 -11 -6 -23 23 -15 36 3 5 -2 9 -10 9 -19 0 -21
17 -4 22 10 4 10 13 0 45 -15 52 -16 74 -1 53 8 -11 9 -6 4 20 -4 23 -3 30 3
20 14 -23 23 -82 12 -75 -15 9 -12 -7 5 -29 8 -11 15 -30 15 -42 0 -13 4 -25
9 -29 18 -10 6 99 -24 233 -4 15 -2 21 5 17 5 -3 10 -16 10 -28 0 -21 0 -21
17 2 14 20 14 27 3 45 -15 23 -31 106 -20 106 3 0 11 -12 17 -27 8 -22 10 -10
7 62 -2 50 -6 101 -8 115 -1 14 -4 46 -4 71 -2 36 -13 64 -52 127 -27 45 -47
88 -44 95 2 7 -7 24 -21 37 -14 13 -25 27 -25 32 0 5 -16 25 -35 45 -22 23
-35 46 -35 63 0 18 -8 31 -24 39 -13 7 -30 25 -37 39 -8 15 -28 39 -45 54 -61
54 -159 128 -170 128 -15 0 -103 50 -89 50 6 0 27 -5 48 -11 22 -6 41 -8 44
-5 9 8 -76 43 -123 51 -22 3 -53 15 -70 25 l-29 20 35 0 c28 1 32 3 18 11 -10
5 -75 13 -145 18 -71 4 -112 9 -93 10 19 1 44 6 55 11 12 5 -47 8 -144 9 -91
1 -167 5 -170 10 -8 12 -109 20 -149 12z m3551 -338 c-7 -2 -21 -2 -30 0 -10
3 -4 5 12 5 17 0 24 -2 18 -5z m-4643 -1784 c27 -23 52 -50 55 -60 3 -10 12
-16 20 -13 8 3 19 -4 26 -18 7 -12 23 -31 35 -41 13 -10 21 -24 18 -31 -6 -16
14 -33 45 -38 14 -1 27 -9 29 -17 3 -10 0 -12 -11 -8 -9 3 -17 1 -20 -6 -3
-11 -87 87 -87 104 0 5 -11 11 -24 15 -13 3 -44 29 -68 57 -94 112 -98 124
-18 56z m-383 -339 c69 -9 209 -49 278 -80 11 -4 40 -15 65 -23 170 -57 272
-128 284 -197 5 -31 4 -33 -8 -17 -19 24 -31 4 -15 -25 6 -13 22 -32 36 -43
l23 -20 -41 -45 c-151 -164 -239 -375 -239 -569 0 -54 32 -212 52 -259 l15
-33 11 38 c11 40 23 114 23 147 0 50 128 269 208 354 l31 34 33 -21 c19 -12
32 -29 32 -41 0 -12 9 -26 20 -32 11 -6 28 -17 37 -26 15 -12 15 -16 3 -29 -8
-8 -15 -18 -15 -23 0 -9 189 -154 211 -162 8 -3 11 -9 7 -13 -4 -4 -39 14 -78
40 -39 26 -73 45 -76 42 -5 -5 79 -67 90 -67 4 0 23 -13 45 -28 31 -23 36 -30
24 -40 -15 -14 -17 -32 -5 -32 17 0 125 -84 114 -88 -14 -4 -82 36 -82 49 0 5
-7 9 -15 9 -22 0 -18 -12 13 -37 32 -26 10 -32 -26 -7 -13 9 -26 13 -29 10 -8
-8 -11 -6 95 -66 91 -51 169 -108 128 -93 -13 4 -17 3 -13 -5 4 -6 24 -16 45
-23 41 -13 85 -39 78 -46 -7 -8 -186 76 -223 104 -22 17 -33 21 -33 12 1 -16
118 -90 230 -146 86 -42 73 -58 -15 -18 -32 14 -60 23 -62 21 -7 -7 45 -31
122 -56 89 -29 159 -59 153 -65 -3 -3 -49 8 -104 25 -125 38 -147 38 -64 0 64
-29 70 -43 7 -16 -27 11 -34 11 -45 -1 -26 -28 29 -75 126 -107 28 -10 52 -20
52 -23 0 -3 -33 -2 -72 1 -47 3 -64 2 -48 -3 21 -7 15 -9 -30 -11 -30 -2 -44
-5 -31 -7 13 -3 19 -8 14 -11 -6 -4 80 -8 190 -9 111 -1 216 -6 232 -12 22 -7
-21 -9 -155 -6 -201 5 -211 -7 -15 -19 112 -6 250 -24 243 -31 -3 -4 -148 8
-243 20 -32 3 -43 2 -30 -3 11 -5 70 -15 130 -22 61 -7 117 -16 125 -21 24
-14 -28 -11 -120 7 -45 8 -84 13 -87 10 -2 -2 19 -9 49 -15 29 -5 73 -15 98
-20 l45 -10 -54 5 c-30 3 -68 7 -85 10 -29 5 -30 4 -13 -10 10 -8 60 -20 110
-27 78 -11 87 -14 57 -20 -35 -6 -35 -6 -5 -9 74 -5 74 -18 0 -15 -51 3 -73 1
-60 -5 11 -5 31 -9 44 -9 13 -1 21 -4 18 -7 -16 -16 48 -46 115 -55 39 -5 73
-10 75 -12 12 -13 -222 -175 -347 -241 -30 -16 -79 -45 -109 -63 -90 -57 -288
-166 -438 -240 -79 -39 -157 -80 -175 -91 -44 -27 -191 -73 -368 -117 -119
-29 -163 -35 -244 -35 -55 1 -106 5 -115 9 -9 5 -54 12 -101 16 -80 7 -167 23
-402 75 -72 16 -138 40 -254 95 -283 136 -458 291 -589 524 -64 116 -89 180
-104 277 -6 38 -15 85 -21 104 -21 72 -4 436 23 485 6 11 25 74 43 140 58 215
161 490 223 590 91 149 279 343 378 391 32 16 79 41 105 56 47 27 185 73 243
81 61 8 173 7 252 -3z m3624 -2337 c12 -32 46 -106 76 -164 82 -161 103 -296
61 -385 -25 -54 -55 -72 -89 -53 -40 20 -155 127 -170 156 -7 16 -26 44 -41
63 -15 20 -52 85 -82 145 -51 104 -53 111 -40 137 18 35 27 36 14 2 -20 -52 0
-63 28 -14 11 18 23 28 32 25 11 -3 20 5 27 26 12 30 15 31 53 26 37 -5 42 -3
56 25 20 38 27 32 14 -12 -11 -37 -6 -50 12 -32 6 6 12 34 12 62 1 27 4 50 7
50 4 0 17 -26 30 -57z m1466 -485 c-2 -13 -4 -3 -4 22 0 25 2 35 4 23 2 -13 2
-33 0 -45z m1482 -2032 c-6 -25 -15 -49 -20 -52 -14 -8 -11 -24 5 -24 13 0 13
-10 -9 -106 -4 -18 -2 -40 4 -53 9 -16 8 -27 -4 -50 -8 -17 -15 -39 -15 -50 0
-11 -13 -43 -30 -70 -26 -45 -28 -54 -18 -83 6 -18 14 -36 18 -41 7 -8 -13
-117 -25 -137 -4 -7 -2 -16 5 -20 14 -8 -18 -79 -52 -117 -12 -13 -18 -29 -14
-38 3 -9 -1 -29 -9 -45 -17 -34 -19 -59 -5 -80 9 -13 13 -11 31 10 19 24 20
24 9 2 -9 -18 -8 -27 0 -38 7 -7 9 -21 6 -30 -4 -9 -2 -22 4 -29 7 -8 5 -25
-5 -55 -10 -28 -12 -46 -6 -50 7 -4 5 -15 -3 -31 -16 -31 -29 -126 -19 -132 5
-3 2 -63 -5 -134 -7 -70 -14 -146 -15 -169 -2 -32 -6 -40 -22 -42 -10 0 -25 4
-32 10 -7 6 -13 7 -14 2 0 -5 -4 0 -9 11 -5 11 -6 34 -4 51 4 20 0 35 -10 43
-9 8 -16 18 -16 23 0 6 7 5 15 -2 28 -23 28 -2 1 31 -41 48 -81 140 -66 149 9
6 8 14 -5 34 -10 14 -18 40 -20 56 -1 17 -10 39 -19 49 -13 14 -16 33 -14 77
l3 59 20 -63 c10 -35 25 -68 33 -75 12 -10 14 -4 10 33 -3 25 -12 68 -20 97
-13 46 -13 53 0 58 11 4 13 17 9 58 -3 28 -2 61 3 72 9 23 16 -29 25 -185 3
-64 10 -99 20 -109 13 -13 14 -11 5 19 -18 61 -8 276 11 264 16 -10 32 50 35
130 1 54 7 83 16 90 8 6 12 18 10 27 -1 9 4 22 13 29 8 7 15 21 15 32 0 10 5
16 10 13 6 -3 11 3 11 14 3 38 4 42 17 50 15 9 17 53 8 201 -6 87 -5 111 4 97
20 -31 32 -8 25 51 -5 41 -3 53 4 42 9 -12 11 -10 11 11 0 15 7 32 15 39 8 7
15 18 14 24 0 7 -2 6 -6 -1 -8 -22 -23 -14 -23 12 0 25 14 33 25 15 10 -15 23
-3 46 42 26 50 33 44 18 -16z m5447 -924 c-4 -3 -14 2 -24 12 -16 18 -16 18 6
6 13 -6 21 -14 18 -18z m-5604 -24 c-7 -7 -12 -8 -12 -2 0 14 12 26 19 19 2
-3 -1 -11 -7 -17z"/>
<path d="M3380 6111 c0 -10 35 -21 70 -21 14 0 20 4 15 9 -14 12 -85 22 -85
12z"/>
<path d="M2995 10440 c-3 -5 -1 -10 4 -10 6 0 11 5 11 10 0 6 -2 10 -4 10 -3
0 -8 -4 -11 -10z"/>
<path d="M2856 10397 c3 -10 9 -15 12 -12 3 3 0 11 -7 18 -10 9 -11 8 -5 -6z"/>
<path d="M2650 10250 c0 -5 5 -10 10 -10 6 0 10 5 10 10 0 6 -4 10 -10 10 -5
0 -10 -4 -10 -10z"/>
<path d="M6830 10181 c0 -5 5 -13 10 -16 6 -3 10 -2 10 4 0 5 -4 13 -10 16 -5
3 -10 2 -10 -4z"/>
<path d="M7160 9916 c0 -2 7 -7 16 -10 8 -3 12 -2 9 4 -6 10 -25 14 -25 6z"/>
<path d="M2353 9895 c-3 -9 -3 -18 -1 -21 3 -3 8 4 11 16 6 23 -1 27 -10 5z"/>
<path d="M7131 9906 c2 -2 28 -15 57 -30 43 -22 52 -24 52 -11 0 9 -4 14 -8
11 -4 -2 -27 4 -51 15 -41 18 -60 24 -50 15z"/>
<path d="M5750 9860 c-8 -5 -12 -11 -10 -14 3 -2 14 2 24 10 22 15 10 19 -14
4z"/>
<path d="M5660 9820 c-8 -5 -12 -12 -9 -15 4 -3 12 1 19 10 14 17 11 19 -10 5z"/>
<path d="M2291 9804 c0 -11 3 -14 6 -6 3 7 2 16 -1 19 -3 4 -6 -2 -5 -13z"/>
<path d="M5430 9600 c0 -5 4 -10 9 -10 6 0 13 5 16 10 3 6 -1 10 -9 10 -9 0
-16 -4 -16 -10z"/>
<path d="M2140 9470 c0 -16 2 -30 4 -30 2 0 6 14 8 30 3 17 1 30 -4 30 -4 0
-8 -13 -8 -30z"/>
<path d="M5345 9400 c-3 -5 3 -10 14 -10 12 0 21 5 21 10 0 6 -6 10 -14 10 -8
0 -18 -4 -21 -10z"/>
<path d="M9570 9309 c0 -5 5 -7 10 -4 6 3 10 8 10 11 0 2 -4 4 -10 4 -5 0 -10
-5 -10 -11z"/>
<path d="M9970 9100 c14 -4 32 -8 40 -9 13 -1 13 0 0 9 -8 5 -26 9 -40 9 l-25
-1 25 -8z"/>
<path d="M5145 9035 c-17 -13 -26 -27 -22 -31 4 -4 20 4 34 19 35 34 26 43
-12 12z"/>
<path d="M5164 8958 l-19 -23 23 19 c21 18 27 26 19 26 -2 0 -12 -10 -23 -22z"/>
<path d="M5126 8955 c-11 -8 -17 -17 -14 -20 2 -3 13 4 23 15 21 23 18 25 -9
5z"/>
<path d="M2061 8463 c35 -54 51 -67 42 -34 -3 10 -21 34 -40 52 l-35 34 33
-52z"/>
<path d="M13910 4570 c-13 -8 -12 -10 3 -10 9 0 17 5 17 10 0 12 -1 12 -20 0z"/>
<path d="M10973 2740 c0 -36 2 -50 4 -32 2 17 2 47 0 65 -2 17 -4 3 -4 -33z"/>
<path d="M11725 2140 c3 -5 11 -10 16 -10 6 0 7 5 4 10 -3 6 -11 10 -16 10 -6
0 -7 -4 -4 -10z"/>
<path d="M9305 1590 c3 -5 8 -10 11 -10 2 0 4 5 4 10 0 6 -5 10 -11 10 -5 0
-7 -4 -4 -10z"/>
</g>
</svg>
