<?xml version="1.0" standalone="no"?>
<!DOCTYPE svg PUBLIC "-//W3C//DTD SVG 20010904//EN"
 "http://www.w3.org/TR/2001/REC-SVG-20010904/DTD/svg10.dtd">
<svg version="1.0" xmlns="http://www.w3.org/2000/svg"
 width="1536.000000pt" height="719.000000pt" viewBox="0 0 1536.000000 719.000000"
 preserveAspectRatio="xMidYMid meet">
<metadata>
Created by potrace 1.16, written by Peter Selinger 2001-2019
</metadata>
<g transform="translate(0.000000,719.000000) scale(0.100000,-0.100000)"
fill="#000000" stroke="none">
<path d="M5729 7176 c-19 -10 -40 -11 -69 -6 -69 13 -231 -13 -297 -47 -21
-11 -53 -24 -70 -27 -18 -4 -49 -15 -70 -25 -21 -10 -54 -21 -74 -25 -21 -4
-48 -15 -62 -26 -14 -11 -27 -20 -30 -20 -3 0 -33 -16 -67 -35 -34 -19 -81
-38 -104 -41 -28 -5 -54 -19 -83 -45 -23 -21 -54 -41 -69 -45 -61 -15 -248
-145 -289 -201 -16 -21 -131 -139 -257 -262 -252 -246 -313 -320 -328 -400 -7
-38 -22 -66 -57 -109 -27 -31 -63 -82 -82 -112 -19 -30 -58 -91 -87 -136 -71
-108 -191 -431 -201 -543 -7 -74 3 -65 -241 -219 -261 -164 -435 -245 -612
-282 -92 -20 -122 -22 -264 -17 -339 12 -657 121 -949 326 -78 54 -168 121
-199 147 -31 27 -78 65 -103 84 -80 60 -249 242 -307 330 -82 125 -113 192
-184 404 -92 276 -99 326 -85 621 6 132 21 305 32 385 22 153 18 200 -17 200
-52 0 -183 -217 -250 -413 -71 -208 -72 -438 -3 -782 55 -276 176 -562 339
-807 162 -243 302 -395 471 -511 363 -249 507 -330 695 -393 119 -40 401 -113
442 -115 21 -1 19 -3 -13 -10 -58 -11 -309 -11 -385 2 -144 23 -396 92 -590
161 -272 97 -449 228 -661 488 -125 153 -173 231 -222 360 -76 199 -135 381
-161 497 -35 154 -55 189 -93 165 -33 -21 -73 -214 -73 -349 0 -267 54 -438
229 -727 96 -158 174 -259 301 -390 305 -316 669 -533 995 -596 33 -6 131 -27
218 -46 87 -19 213 -39 279 -44 210 -16 555 19 710 71 96 32 255 117 447 239
161 103 191 119 191 104 0 -30 26 -163 42 -214 11 -36 24 -115 28 -176 7 -91
14 -124 39 -182 20 -45 31 -87 31 -116 0 -70 29 -237 65 -381 22 -84 37 -178
45 -265 6 -74 18 -157 26 -185 24 -77 40 -423 24 -494 -8 -31 -14 -79 -14
-108 -1 -33 -7 -58 -18 -70 -23 -25 -44 -87 -58 -166 -6 -34 -20 -74 -31 -89
-22 -32 -24 -45 -6 -51 9 -3 9 -14 -2 -53 -20 -71 -30 -164 -30 -290 -1 -95 2
-113 17 -127 28 -26 44 -21 85 25 35 40 39 42 50 24 66 -103 106 -101 121 4
11 70 55 203 185 555 82 224 114 350 137 546 19 164 15 394 -11 589 -9 63 -18
216 -20 340 -3 124 -10 270 -15 325 -6 55 -15 163 -21 241 -12 152 -11 157 55
341 9 23 22 114 31 202 18 184 49 307 101 393 19 32 40 60 45 64 12 7 2 -36
-22 -92 -28 -67 -42 -152 -35 -218 7 -65 62 -262 79 -284 13 -16 41 -7 94 30
27 20 48 28 61 24 16 -5 26 3 51 42 39 61 126 122 175 122 27 0 39 7 61 36 15
20 46 44 69 54 22 9 65 33 93 53 29 19 76 44 105 55 29 11 106 47 171 81 64
34 127 61 140 61 13 0 50 16 83 36 47 29 73 38 129 44 51 5 91 17 145 43 81
40 115 45 146 22 10 -8 32 -15 47 -15 16 0 54 -7 84 -16 51 -15 63 -15 159 1
109 18 166 15 219 -13 53 -27 96 -64 127 -111 42 -62 124 -147 173 -179 22
-14 73 -57 113 -95 81 -80 102 -125 102 -229 0 -33 6 -89 14 -126 25 -117 35
-185 41 -272 4 -61 12 -99 30 -135 36 -75 92 -214 105 -265 6 -25 22 -70 35
-100 13 -30 42 -99 64 -152 l41 -98 -26 -67 c-36 -96 -65 -245 -65 -333 0
-146 20 -307 52 -416 18 -61 28 -117 25 -132 -3 -15 -1 -119 5 -232 25 -500
26 -563 13 -629 -9 -42 -10 -69 -4 -82 6 -10 10 -34 10 -53 0 -19 7 -57 16
-83 14 -42 16 -77 9 -263 -4 -118 -8 -244 -9 -279 l-1 -64 -54 -46 c-116 -98
-143 -128 -139 -157 10 -84 138 -103 670 -99 332 2 380 4 402 19 76 49 73 126
-11 297 -72 149 -76 165 -47 206 20 27 22 36 13 61 -9 26 -7 34 11 52 12 12
20 29 17 38 -30 104 -31 111 -18 136 9 15 11 39 8 62 -5 30 1 51 28 108 19 38
35 85 35 103 0 22 6 36 19 43 15 7 20 24 24 67 7 89 47 272 72 333 13 30 26
82 29 116 6 52 15 86 52 184 5 12 8 11 13 -5 5 -12 10 10 15 62 3 44 12 98 19
118 l13 38 21 -34 c12 -19 28 -57 36 -85 8 -28 22 -64 30 -80 8 -17 12 -45 10
-66 -4 -27 1 -47 16 -71 12 -19 21 -50 21 -70 0 -19 9 -63 19 -98 11 -35 22
-85 25 -110 8 -52 36 -96 155 -238 60 -71 98 -107 128 -121 23 -11 47 -20 53
-20 5 0 17 -11 25 -24 9 -13 30 -27 47 -30 21 -4 49 -25 83 -61 33 -36 61 -57
82 -61 21 -4 51 -26 86 -63 75 -79 104 -126 121 -201 15 -62 41 -100 70 -100
7 0 27 11 46 25 19 14 43 25 55 25 30 0 72 48 92 105 9 27 29 60 44 73 18 15
34 43 45 80 9 31 38 129 66 217 59 189 68 255 43 309 -24 50 -63 75 -153 98
-83 21 -114 35 -180 80 -37 26 -43 34 -37 55 3 14 1 31 -6 39 -8 10 -10 42 -6
108 6 84 4 97 -14 120 l-20 25 22 63 c12 38 19 76 16 95 -3 18 -1 35 4 39 5 3
9 22 9 42 0 104 9 183 21 198 11 14 11 18 -4 29 -19 14 -23 65 -5 83 8 8 8 15
0 25 -13 15 -6 109 10 140 6 12 4 24 -6 38 -8 12 -12 28 -9 35 3 8 0 21 -7 28
-8 10 -8 20 -2 33 7 12 7 25 0 37 -8 15 -7 17 8 12 148 -45 287 -59 764 -76
218 -8 306 -15 375 -30 50 -11 198 -40 330 -64 132 -25 279 -56 326 -70 109
-32 292 -104 301 -119 4 -7 8 -38 8 -70 0 -71 39 -231 75 -312 23 -51 28 -78
32 -180 3 -66 10 -129 16 -139 5 -11 11 -119 12 -250 1 -127 8 -276 15 -331
11 -93 11 -104 -7 -156 -11 -30 -18 -68 -16 -85 3 -16 -3 -49 -12 -74 -10 -25
-18 -67 -19 -95 -2 -43 -68 -222 -96 -260 -4 -5 -10 -23 -14 -38 -4 -16 -27
-48 -51 -72 -48 -46 -54 -68 -30 -102 23 -33 68 -37 257 -20 95 9 220 19 278
22 124 7 306 48 352 78 18 13 46 44 62 71 34 53 35 66 24 296 -5 95 -3 129 7
143 11 16 11 26 0 56 -9 27 -12 77 -9 171 3 73 7 136 9 140 3 5 7 86 8 182 4
168 10 206 44 288 8 19 20 78 26 130 7 67 16 101 29 116 10 11 18 24 18 28 0
5 12 31 26 60 15 28 26 63 25 79 -1 21 5 30 23 37 13 5 27 14 31 19 12 21 29
10 105 -66 80 -81 155 -143 172 -143 11 0 56 -36 120 -96 20 -19 41 -34 47
-34 11 0 81 -114 81 -132 0 -6 27 -44 60 -85 33 -40 60 -77 60 -82 0 -6 14
-26 31 -45 29 -33 69 -137 69 -179 0 -10 14 -39 32 -65 37 -54 78 -132 78
-149 0 -6 10 -13 22 -15 17 -2 24 -13 30 -43 5 -24 22 -52 41 -71 26 -26 32
-41 33 -76 0 -23 11 -71 24 -106 22 -60 22 -65 9 -130 -19 -88 -7 -192 21
-192 73 0 -12 -125 -124 -182 -79 -40 -106 -69 -106 -111 0 -19 6 -39 13 -44
32 -26 330 -39 397 -17 27 8 42 8 73 -4 32 -13 48 -14 96 -4 33 7 144 12 262
12 179 0 209 3 246 19 79 36 86 69 57 251 -9 58 -16 116 -14 130 7 71 2 191
-9 240 -7 30 -30 87 -50 125 -21 39 -44 91 -51 117 -7 27 -34 82 -61 124 -43
69 -48 83 -53 152 -3 43 -11 97 -16 121 -8 32 -8 46 0 51 8 5 -2 37 -29 97
-23 50 -41 104 -41 119 0 16 -15 97 -34 181 -18 84 -31 163 -29 176 3 13 -6
51 -20 84 -14 33 -23 72 -20 85 3 13 -5 57 -17 96 -12 39 -19 80 -16 90 4 10
-5 63 -20 118 -28 109 -27 164 6 199 17 18 18 25 8 58 -10 31 -9 40 6 56 15
17 16 24 5 60 -11 38 -11 43 10 65 13 14 20 30 16 36 -11 17 5 110 19 110 16
0 56 -50 136 -170 100 -150 180 -230 359 -358 42 -30 99 -68 127 -84 30 -17
64 -46 80 -71 50 -73 87 -117 100 -117 6 0 15 -7 18 -16 6 -15 8 -15 26 1 19
17 20 16 39 -27 23 -55 64 -95 111 -109 23 -7 40 -21 50 -42 36 -75 83 -53
100 48 6 33 15 70 20 82 7 17 4 31 -11 58 -14 24 -19 43 -14 63 5 26 0 34 -47
73 -120 101 -219 153 -316 166 -106 14 -250 196 -389 493 -88 187 -123 307
-144 498 -9 86 -9 106 3 125 11 15 12 31 6 52 -18 66 11 231 46 256 4 4 3 38
-4 76 -8 44 -10 95 -5 139 4 38 8 105 10 149 2 44 7 91 13 105 7 18 4 42 -8
86 -10 34 -16 72 -13 86 6 29 -19 153 -52 263 -13 44 -29 102 -35 129 -12 57
-67 169 -134 277 -25 40 -46 81 -46 91 0 38 -174 222 -251 265 -76 42 -150 87
-251 154 -48 31 -113 67 -143 78 -31 12 -73 33 -93 46 -20 14 -74 37 -118 51
-45 13 -99 37 -120 52 -61 43 -173 107 -247 140 -37 17 -80 40 -95 51 -15 10
-70 36 -122 56 -135 51 -180 73 -186 90 -4 11 -21 15 -58 15 -65 0 -96 9 -96
26 0 12 -5 12 -33 0 -19 -7 -40 -10 -48 -6 -8 5 -77 7 -154 6 -148 -2 -175 5
-175 46 0 22 -3 22 -42 2 -26 -14 -54 -16 -157 -11 -73 3 -147 12 -176 21 -27
9 -108 25 -180 37 -71 11 -159 27 -195 35 -170 39 -319 58 -490 61 -80 1 -163
5 -185 7 -22 3 -128 10 -235 17 -120 7 -205 17 -221 25 -55 27 -116 44 -184
50 -64 5 -162 22 -257 45 -20 5 -50 21 -66 34 -17 14 -37 25 -46 25 -8 0 -30
13 -48 28 -18 16 -42 31 -53 34 -91 25 -291 94 -390 133 -66 26 -138 52 -160
57 -50 12 -65 24 -65 55 0 19 -4 24 -17 19 -9 -4 -36 -4 -61 0 -40 6 -43 9
-38 30 6 22 5 23 -19 12 -18 -8 -35 -8 -58 -1 -18 5 -45 6 -62 2 -17 -5 -34
-4 -39 1 -13 13 -72 13 -97 0 -15 -8 -26 -7 -48 6 -28 17 -32 16 -86 -4 -31
-12 -62 -19 -68 -15 -15 9 -99 22 -193 29 -50 4 -88 1 -126 -10 -67 -19 -435
-31 -493 -15 -26 8 -41 7 -48 0 -6 -6 -28 -11 -49 -11 -45 0 -119 -15 -210
-42 -38 -11 -73 -16 -80 -12 -13 9 -54 14 -148 18 -30 1 -59 4 -65 5 -5 2 -23
2 -40 1 -16 0 -110 -2 -208 -2 -151 -1 -180 2 -196 16 -9 9 -21 13 -24 10 -4
-4 -13 -1 -21 5 -12 10 -20 10 -37 -3 -15 -10 -28 -12 -39 -6 -9 5 -35 11 -58
14 -22 3 -50 9 -61 15 -14 8 -29 7 -55 -4 -26 -11 -42 -13 -55 -6 -10 6 -21 7
-25 3 -12 -11 -80 -1 -98 15 -10 9 -24 13 -33 9 -9 -3 -26 -1 -38 5 -12 7 -22
8 -24 2 -4 -11 -71 -4 -79 8 -7 12 -14 11 -45 -5z m-5263 -340 l-20 -124 -19
24 c-10 14 -29 24 -43 24 -13 0 -24 3 -24 8 0 4 18 36 40 72 62 102 75 120 81
120 3 0 -4 -56 -15 -124z m-28 -686 l0 -45 -23 50 c-29 61 -29 68 -7 125 l17
45 6 -65 c4 -36 7 -85 7 -110z m37 -169 c7 -33 7 -34 -10 -17 -10 10 -19 37
-21 64 -4 47 -4 47 10 17 7 -16 17 -45 21 -64z m271 -617 c26 -32 79 -94 117
-136 38 -43 65 -78 60 -78 -4 0 -25 5 -46 11 -30 8 -42 19 -61 57 -13 26 -34
56 -45 66 -12 11 -36 49 -52 84 -24 50 -38 67 -64 78 -60 25 -111 137 -98 216
5 36 7 34 73 -101 38 -75 90 -164 116 -197z m-646 242 c0 -11 40 -194 45 -208
6 -14 2 -18 -14 -18 -14 0 -21 6 -21 20 0 21 -15 27 -25 10 -14 -22 -25 -8
-25 32 0 58 20 168 31 168 5 0 9 -2 9 -4z m996 -603 c-11 -11 -84 40 -109 77
-32 46 -17 41 48 -16 36 -32 63 -59 61 -61z m-783 -75 c21 -45 35 -83 33 -85
-2 -2 -19 15 -39 39 -32 41 -59 128 -39 128 5 0 25 -37 45 -82z m906 -10 c29
-25 31 -68 3 -68 -18 0 -62 38 -62 55 0 10 20 35 28 35 2 0 16 -10 31 -22z
m2212 -25 c13 -16 12 -17 -3 -4 -17 13 -22 21 -14 21 2 0 10 -8 17 -17z
m-2029 -104 c68 -44 150 -93 183 -109 98 -47 352 -127 490 -155 121 -25 143
-26 310 -21 99 3 199 8 223 12 41 6 42 6 33 -17 -17 -48 1 -66 74 -74 44 -4
64 -10 57 -17 -16 -16 -90 -22 -107 -8 -12 10 -21 10 -47 -1 -45 -19 -158 -16
-202 5 -34 16 -37 16 -73 -5 l-38 -22 -65 27 c-36 14 -81 29 -100 32 -19 4
-46 12 -60 19 -33 16 -180 28 -180 15 0 -18 -31 -11 -64 15 -40 30 -50 31 -82
6 -23 -18 -27 -19 -61 -4 -20 8 -62 32 -92 52 -31 21 -69 44 -86 52 -16 8 -59
54 -97 104 -37 49 -73 92 -80 94 -19 6 -78 81 -64 81 3 0 60 -36 128 -81z
m-988 -32 c15 -21 26 -40 24 -43 -11 -11 -56 39 -60 66 -3 17 -2 27 2 23 3 -4
19 -25 34 -46z m2731 -39 c-4 -24 -18 -57 -31 -75 -13 -17 -24 -36 -24 -42 0
-27 -196 -121 -252 -121 -13 0 -48 13 -79 28 l-57 28 107 48 c58 26 158 76
221 111 63 35 117 64 118 64 2 1 1 -18 -3 -41z m-2443 -293 c92 -87 207 -165
331 -226 48 -24 87 -46 87 -50 0 -12 -42 -18 -64 -9 -11 4 -38 22 -60 39 -21
17 -46 31 -55 31 -9 0 -35 19 -56 41 -43 44 -89 69 -129 69 -31 0 -117 93
-133 143 -6 21 -9 37 -6 37 3 0 41 -34 85 -75z m1426 -66 c43 -15 49 -39 17
-66 -32 -28 -51 -29 -65 -4 -13 26 -13 54 2 69 14 14 9 14 46 1z m386 -25 c9
-3 16 -16 16 -29 0 -24 -17 -35 -56 -35 -26 0 -31 18 -14 51 11 20 27 23 54
13z m496 -14 c0 -5 -4 -10 -9 -10 -6 0 -13 5 -16 10 -3 6 1 10 9 10 9 0 16 -4
16 -10z m-712 -48 c4 -23 -25 -55 -40 -46 -10 6 -10 58 -1 68 14 13 38 0 41
-22z m-1017 -174 c35 -12 56 -24 47 -26 -24 -5 -128 26 -128 38 0 14 8 13 81
-12z m1639 -11 c0 -37 -86 -77 -164 -77 -38 0 -59 -5 -68 -16 -44 -53 -46 -54
-125 -55 -118 -1 -226 -14 -231 -27 -2 -7 -17 -12 -34 -12 -19 0 -38 -8 -49
-21 -16 -19 -22 -20 -50 -10 -43 15 -79 14 -79 -2 0 -7 -6 -21 -13 -31 -12
-17 -19 -17 -138 -1 -110 16 -133 22 -204 60 -44 24 -102 55 -130 70 -96 50
-89 54 48 25 162 -33 295 -42 441 -30 158 12 294 33 399 62 119 31 328 76 365
77 21 1 32 -4 32 -12z m77 7 c-3 -3 -12 -4 -19 -1 -8 3 -5 6 6 6 11 1 17 -2
13 -5z m-1484 -85 c-3 -11 -13 -24 -23 -29 -28 -15 -76 40 -55 62 3 3 23 1 44
-4 31 -8 38 -14 34 -29z m1357 -44 c16 -20 6 -43 -25 -57 -22 -10 -28 -9 -35
3 -5 8 -7 23 -3 34 10 36 42 46 63 20z m-198 -112 c20 -18 22 -31 8 -53 -7
-12 -12 -12 -29 4 -21 19 -27 46 -14 59 9 10 15 9 35 -10z m-137 -4 c11 -17
-4 -58 -26 -70 -16 -8 -25 -7 -40 7 -19 17 -26 54 -12 67 10 11 71 8 78 -4z
m7102 -3004 c1 -5 -7 -26 -18 -45 -20 -32 -22 -33 -35 -15 -8 10 -14 27 -14
36 0 31 58 51 67 24z m-107 -193 c0 -5 -6 -17 -14 -28 -12 -16 -17 -17 -28 -6
-11 11 -10 16 6 28 22 16 36 18 36 6z m-116 -61 c3 -5 -1 -14 -8 -20 -16 -13
-32 2 -21 19 8 12 22 13 29 1z m2126 -300 c15 -29 13 -31 -30 -31 -33 0 -40 3
-40 19 0 18 14 27 47 30 7 0 17 -8 23 -18z m2004 -120 c10 -16 -5 -41 -25 -41
-21 0 -25 20 -7 38 14 14 25 15 32 3z m191 -22 c0 -20 -6 -25 -32 -27 -39 -4
-41 3 -11 35 26 28 43 25 43 -8z m245 15 c47 -19 51 -47 8 -52 -48 -6 -88 34
-61 61 8 9 7 9 53 -9z m-6852 -39 c4 -48 -5 -57 -45 -40 -40 17 -41 28 -6 61
34 32 47 27 51 -21z m202 -40 c0 -31 -21 -41 -51 -25 l-22 12 24 19 c33 26 49
24 49 -6z"/>
<path d="M105 5440 c-3 -5 -1 -10 4 -10 6 0 11 5 11 10 0 6 -2 10 -4 10 -3 0
-8 -4 -11 -10z"/>
</g>
</svg>
