<?xml version="1.0" standalone="no"?>
<!DOCTYPE svg PUBLIC "-//W3C//DTD SVG 20010904//EN"
 "http://www.w3.org/TR/2001/REC-SVG-20010904/DTD/svg10.dtd">
<svg version="1.0" xmlns="http://www.w3.org/2000/svg"
 width="1536.000000pt" height="1032.000000pt" viewBox="0 0 1536.000000 1032.000000"
 preserveAspectRatio="xMidYMid meet">
<metadata>
Created by potrace 1.16, written by Peter Selinger 2001-2019
</metadata>
<g transform="translate(0.000000,1032.000000) scale(0.100000,-0.100000)"
fill="#000000" stroke="none">
<path d="M6396 10305 c-11 -8 -34 -15 -51 -15 -18 0 -37 -8 -48 -20 -13 -16
-29 -20 -72 -20 -42 0 -55 -4 -55 -15 0 -18 -19 -28 -127 -66 -48 -17 -104
-39 -123 -49 -56 -29 -188 -149 -199 -181 -5 -16 -17 -32 -26 -35 -22 -9 -62
-82 -70 -129 -10 -63 -26 -105 -38 -106 -7 -1 -25 0 -42 1 -16 1 -27 -1 -23
-5 15 -15 -16 -48 -135 -142 -156 -125 -209 -160 -258 -173 -22 -6 -49 -20
-59 -30 -12 -12 -26 -17 -36 -13 -12 5 -15 3 -10 -6 19 -31 -127 -131 -168
-115 -13 5 -16 -1 -16 -28 0 -40 -15 -58 -49 -58 -15 0 -34 -7 -43 -14 -23
-17 -48 -77 -48 -115 0 -25 -5 -30 -30 -36 -22 -5 -30 -12 -30 -28 0 -29 -48
-95 -82 -113 -23 -12 -28 -21 -28 -53 0 -24 -6 -44 -16 -52 -15 -12 -16 -11
-9 11 7 22 6 23 -8 11 -24 -19 -30 -71 -14 -118 11 -33 12 -47 2 -70 -15 -34
-92 -113 -112 -113 -7 0 -23 -21 -33 -46 -17 -39 -23 -44 -41 -39 -17 6 -21 4
-16 -9 6 -16 -11 -39 -44 -57 -11 -5 -30 -34 -43 -62 -16 -37 -45 -72 -97
-120 -58 -53 -71 -70 -59 -77 12 -7 9 -13 -13 -34 -15 -14 -27 -36 -27 -50 0
-13 -16 -43 -35 -66 -19 -23 -35 -51 -35 -61 0 -11 -7 -22 -15 -25 -8 -3 -19
-22 -25 -43 -5 -20 -35 -65 -65 -100 -43 -49 -53 -66 -45 -77 15 -18 5 -48
-32 -90 -22 -25 -26 -34 -14 -34 13 0 14 -4 1 -41 -8 -23 -15 -59 -15 -80 0
-21 -6 -41 -14 -46 -7 -4 -15 -26 -18 -49 -3 -22 -22 -81 -41 -130 -34 -85
-67 -238 -54 -250 3 -4 18 7 32 22 l25 29 -6 -55 c-4 -30 -7 -59 -8 -65 0 -5
5 -9 13 -7 20 4 8 -62 -18 -95 -16 -20 -21 -39 -20 -87 0 -33 3 -55 6 -48 17
43 23 -13 23 -233 l0 -246 -42 24 c-24 13 -178 98 -342 188 -259 142 -310 174
-375 234 -42 39 -106 90 -143 114 -38 24 -143 101 -235 172 -92 70 -192 142
-223 159 -642 364 -702 390 -951 411 -173 15 -279 5 -408 -37 -97 -31 -152
-77 -172 -143 -16 -55 -6 -88 36 -108 33 -16 38 -16 92 2 84 27 251 32 350 10
242 -54 585 -234 883 -466 114 -88 473 -388 585 -488 44 -39 110 -92 147 -117
37 -25 86 -61 109 -80 42 -35 99 -101 99 -114 0 -4 -33 -22 -72 -40 -68 -31
-87 -34 -288 -51 -464 -40 -793 -18 -964 66 -28 14 -78 40 -111 60 -33 19
-127 60 -210 91 -254 96 -305 124 -398 217 -87 87 -273 303 -330 384 -166 232
-358 625 -387 795 -16 93 -3 122 60 126 43 3 46 1 64 -33 21 -38 60 -65 96
-65 11 0 37 15 57 33 31 29 37 41 41 90 l4 56 -53 56 c-154 163 -306 229 -409
177 -45 -22 -94 -96 -121 -180 -47 -151 -33 -367 42 -652 52 -197 229 -528
376 -702 105 -123 285 -318 350 -378 170 -156 690 -407 1050 -506 320 -88 543
-118 873 -118 264 0 399 13 605 60 305 68 381 76 325 34 l-24 -18 33 -31 c29
-27 32 -35 27 -66 -5 -27 -4 -34 7 -29 20 7 27 -37 27 -175 1 -145 14 -287 35
-370 12 -46 15 -82 10 -132 -7 -70 0 -84 25 -54 13 16 40 21 40 8 0 -5 -10
-36 -22 -71 -21 -60 -21 -63 -3 -75 17 -13 17 -22 7 -132 -10 -105 -8 -154 5
-118 8 23 41 58 48 51 4 -4 1 -24 -6 -45 -19 -56 -20 -448 -1 -486 16 -32 48
-835 38 -942 -4 -33 -17 -91 -31 -130 -13 -38 -25 -82 -25 -97 0 -31 18 -47
31 -27 13 21 12 -14 -8 -197 l-17 -160 22 -30 c13 -18 30 -69 43 -134 26 -129
54 -207 80 -220 10 -6 19 -20 19 -32 0 -41 39 -106 71 -117 19 -7 29 -17 29
-31 0 -59 108 -260 140 -260 27 0 43 -36 37 -78 -4 -19 -3 -32 0 -29 10 11 62
-26 94 -66 32 -40 33 -60 2 -36 -10 8 3 -9 28 -37 60 -65 72 -89 73 -144 1
-66 24 -64 96 9 39 40 72 88 101 146 l43 87 -2 116 c-3 164 -2 164 77 216 95
61 132 120 117 182 -9 35 -84 68 -138 61 -38 -5 -41 -3 -76 38 -7 8 -18 13
-23 9 -14 -8 -59 4 -59 16 0 6 12 16 27 23 l26 12 -39 11 c-34 10 -39 15 -36
38 2 17 -2 26 -12 26 -31 0 -34 57 -6 93 19 24 19 29 6 49 -26 42 -40 106 -28
131 7 13 13 114 16 257 2 129 9 253 15 275 24 85 32 145 42 290 7 105 14 156
25 173 13 20 14 29 3 53 -8 21 -9 48 -3 92 5 34 9 110 9 170 0 59 2 107 5 107
4 0 11 -5 18 -12 18 -18 16 60 -3 96 -9 17 -15 55 -15 97 0 58 3 70 20 79 23
12 27 70 9 117 -20 50 -15 172 8 225 29 63 41 129 53 282 10 133 23 201 40
211 6 3 10 38 10 76 0 39 4 68 9 65 11 -7 24 191 20 309 -2 50 -3 123 -1 164
2 60 5 72 17 67 8 -3 15 -1 15 5 0 5 11 14 24 19 17 6 26 18 28 37 2 20 8 28
22 26 15 -1 17 4 11 30 -17 85 -25 148 -25 214 0 77 13 100 37 67 13 -17 14
-10 8 58 -6 65 -4 82 10 104 12 19 16 42 13 82 -3 57 -3 57 25 54 30 -4 33 4
12 32 -17 22 -20 56 -6 56 5 0 11 -10 13 -21 2 -12 10 -27 19 -32 28 -17 69
18 98 84 26 59 37 67 71 49 14 -7 28 -3 61 20 44 30 79 39 79 20 0 -20 38 -9
86 25 27 19 57 35 67 35 10 0 40 -11 67 -25 59 -30 64 -31 50 -6 -16 30 -13
61 5 55 9 -4 15 -19 15 -35 0 -16 4 -29 8 -29 4 0 25 18 46 39 58 59 85 67
135 42 22 -12 45 -30 51 -40 5 -11 22 -21 37 -23 17 -2 27 -8 25 -17 -4 -20
96 -249 135 -308 34 -52 35 -56 44 -195 5 -79 18 -190 29 -248 11 -58 27 -162
35 -232 9 -71 18 -136 21 -145 16 -49 27 -73 35 -73 5 0 15 12 24 28 15 25 15
21 10 -74 -4 -55 -3 -112 0 -127 6 -23 10 -25 26 -16 11 5 24 7 29 4 6 -3 10
-53 10 -111 0 -105 0 -105 23 -99 18 6 20 5 10 -6 -42 -43 25 -452 81 -498 17
-14 44 -5 49 17 3 13 7 9 17 -13 8 -18 15 -89 18 -177 2 -82 8 -148 12 -148 4
0 14 10 23 22 15 23 15 23 25 -17 6 -22 18 -95 26 -162 17 -135 30 -160 90
-172 30 -6 31 -10 37 -66 4 -33 16 -84 28 -113 11 -29 21 -66 21 -82 0 -26 4
-30 29 -30 37 0 48 -14 56 -75 4 -27 21 -85 37 -127 40 -105 43 -134 23 -209
-25 -92 -29 -119 -17 -119 6 0 17 9 25 20 12 17 16 18 26 7 10 -13 30 -129 31
-180 0 -10 8 -21 18 -24 40 -15 42 -54 7 -123 -40 -80 -31 -178 21 -221 36
-30 44 -70 32 -173 -6 -53 -8 -99 -5 -102 3 -3 21 0 41 7 20 7 37 11 40 8 2
-2 7 -23 11 -46 6 -39 5 -43 -13 -43 -15 0 -22 -9 -28 -33 -11 -51 -7 -186 7
-203 6 -8 14 -56 17 -110 4 -83 2 -96 -13 -108 -17 -12 -17 -15 2 -57 l19 -44
-23 -155 c-17 -104 -21 -156 -14 -158 25 -8 9 -43 -29 -67 -66 -42 -127 -136
-153 -239 -18 -66 -31 -83 -104 -138 -33 -24 -55 -49 -59 -66 -4 -15 -15 -43
-26 -62 -19 -36 -22 -58 -12 -84 8 -21 26 -20 56 4 28 21 38 18 38 -15 0 -26
65 -129 104 -165 22 -20 29 -22 36 -10 8 12 16 11 57 -9 26 -13 73 -25 103
-28 89 -8 480 24 516 41 16 9 60 20 97 25 37 5 74 16 82 25 18 18 60 30 160
47 83 14 133 37 198 91 32 27 47 34 47 24 0 -10 9 -16 25 -16 29 0 34 24 9 51
-15 17 -14 20 8 41 13 13 45 38 71 55 44 31 58 51 87 131 7 17 19 32 26 32 10
0 14 15 14 55 0 36 4 55 12 55 6 0 40 19 75 41 35 23 88 47 118 54 81 19 185
102 185 147 0 7 -10 18 -22 23 -17 7 -27 25 -36 65 -17 67 -27 80 -61 80 -26
1 -26 1 5 14 46 20 51 36 21 58 -15 11 -41 46 -58 78 -17 33 -56 86 -85 119
-34 37 -54 68 -54 83 0 30 67 263 87 302 8 16 36 51 61 78 l45 49 -28 29 -29
30 24 33 c17 22 24 45 25 77 l0 45 50 3 c57 4 71 13 90 59 12 28 19 33 48 33
49 0 60 18 52 87 -4 43 -3 54 5 41 14 -22 60 -35 153 -44 74 -6 94 -15 62 -28
-15 -5 -21 -36 -7 -36 4 0 24 13 44 30 51 42 114 67 228 90 121 25 154 26 146
5 -3 -8 -9 -22 -12 -30 -10 -24 13 -17 49 15 19 17 43 30 53 30 10 0 30 12 45
26 l28 26 -20 -63 c-11 -35 -27 -78 -36 -96 -10 -18 -14 -35 -10 -39 13 -13
38 7 79 65 24 33 46 59 50 58 3 -1 21 -24 40 -52 18 -27 45 -56 60 -63 17 -8
33 -28 44 -57 18 -48 23 -52 41 -34 21 21 39 1 52 -57 28 -134 61 -155 61 -39
0 53 16 98 33 93 6 -3 31 -32 55 -66 52 -74 72 -80 72 -22 0 34 4 42 25 50 14
5 27 20 31 35 5 20 11 24 26 19 18 -5 19 -3 13 25 l-7 31 44 -25 c24 -14 59
-25 79 -25 23 0 39 -6 43 -15 3 -8 22 -22 43 -32 33 -16 38 -23 41 -55 2 -29
8 -37 25 -40 17 -2 21 -9 19 -28 l-4 -25 31 29 c17 17 31 27 31 23 0 -10 57
20 98 51 38 29 43 16 7 -18 -35 -33 -32 -50 8 -50 l32 -1 -34 -18 -34 -18 36
-7 c38 -7 57 -29 57 -65 0 -14 8 -22 25 -26 79 -16 79 -16 65 -25 -12 -7 -11
-13 8 -33 32 -33 28 -72 -18 -194 -22 -59 -40 -112 -40 -119 0 -8 14 -28 31
-45 18 -19 29 -38 25 -48 -2 -9 -23 -63 -44 -121 -44 -116 -76 -153 -158 -187
-24 -10 -44 -25 -44 -33 0 -8 9 -43 20 -78 21 -66 17 -93 -15 -106 -8 -3 -15
-14 -15 -23 0 -10 -7 -29 -16 -41 -9 -14 -13 -33 -10 -46 3 -13 -1 -31 -9 -42
-20 -27 -18 -58 6 -105 25 -51 52 -62 205 -88 65 -11 135 -26 154 -34 41 -17
220 -42 415 -57 159 -13 245 -5 389 34 103 29 131 45 141 83 10 40 23 53 56
53 32 0 57 -22 72 -64 9 -27 11 -28 18 -10 14 36 9 75 -16 112 -15 22 -25 50
-25 72 l1 35 28 -34 28 -34 32 65 c34 72 103 143 128 134 11 -5 13 -2 9 10 -4
9 0 24 8 33 14 15 12 22 -14 68 -16 28 -47 64 -69 80 -53 37 -56 49 -26 85 21
24 24 37 19 64 -5 30 1 42 55 114 36 48 66 101 75 131 23 77 54 119 102 140
40 18 43 23 50 67 9 65 21 92 52 125 32 34 44 35 32 1 -14 -35 -13 -36 12 -28
21 6 21 5 9 -10 -8 -10 -23 -15 -33 -13 -21 6 -23 -4 -6 -21 28 -28 65 -13
139 58 76 71 111 89 46 22 -20 -21 -37 -40 -37 -44 0 -11 135 23 189 47 29 14
62 25 71 25 26 0 52 -29 45 -49 -4 -9 6 -4 22 12 34 32 53 35 46 7 -6 -24 6
-25 52 -3 19 9 37 14 39 12 3 -3 -6 -45 -19 -94 -41 -148 -29 -203 21 -103 48
97 96 134 186 144 39 4 58 2 73 -9 19 -15 19 -15 -8 -53 -14 -22 -62 -79 -106
-129 -44 -49 -78 -92 -76 -94 2 -1 31 6 64 18 94 32 107 29 129 -34 l10 -30 1
36 c1 39 33 89 57 89 13 0 15 -12 12 -61 -2 -45 1 -63 10 -67 8 -2 16 5 19 17
8 33 23 21 44 -34 31 -83 118 -200 135 -182 2 1 -1 20 -6 42 l-9 39 39 -45
c35 -40 40 -43 59 -31 25 14 24 20 6 -93 -8 -49 -22 -157 -30 -240 -19 -179
-26 -208 -71 -301 -30 -61 -35 -83 -37 -145 -1 -77 13 -119 39 -119 8 0 34
-20 58 -45 33 -33 45 -41 50 -30 8 21 32 19 66 -6 27 -20 46 -22 246 -29 275
-9 699 4 777 23 33 9 86 33 125 60 38 24 93 57 124 71 44 21 58 33 62 54 22
119 15 159 -31 164 -46 5 -26 23 22 20 25 -2 45 -2 45 0 0 2 -11 30 -25 63
-31 75 -32 101 -3 108 18 5 19 8 8 21 -7 9 -19 16 -27 16 -25 0 -92 42 -109
68 -12 18 -13 27 -4 36 8 8 15 6 26 -8 12 -18 14 -18 14 -3 0 10 -7 29 -16 43
-14 20 -14 23 -2 19 35 -14 29 77 -11 166 -16 33 -21 65 -21 133 0 84 -2 94
-40 170 -22 45 -46 111 -53 148 -8 48 -18 72 -33 82 -38 27 -71 131 -89 281
-17 145 -54 350 -80 445 -25 92 -57 368 -50 435 6 53 102 504 123 580 5 18 4
82 -4 160 -7 72 -18 218 -24 325 -7 107 -16 199 -21 205 -5 5 -9 26 -9 46 0
32 -3 36 -20 32 -25 -7 -27 15 -3 32 17 12 16 16 -6 67 -13 29 -26 70 -31 90
-9 47 -76 231 -103 285 -18 37 -19 46 -8 83 18 61 5 177 -25 212 -24 29 -64
127 -64 156 0 10 -20 49 -45 87 -52 79 -62 109 -45 130 10 12 9 15 -7 15 -29
0 -113 95 -113 128 0 10 9 8 34 -7 36 -23 56 -27 56 -11 0 6 -7 10 -15 10 -8
0 -24 19 -36 43 -27 52 -142 166 -192 190 -36 17 -37 19 -37 72 0 30 -4 55
-10 55 -5 0 -13 12 -16 28 -4 15 -20 38 -36 52 -16 14 -45 53 -66 86 -81 134
-114 175 -167 211 -30 20 -55 40 -55 44 0 5 15 9 33 9 18 0 42 6 52 14 18 13
18 14 -3 25 -11 6 -34 11 -50 11 -16 0 -40 8 -53 19 -13 10 -40 21 -61 25 -30
5 -42 16 -68 56 -35 54 -124 140 -145 140 -7 0 -28 18 -45 40 -19 23 -45 43
-63 48 -27 7 -32 13 -29 35 2 21 -2 27 -17 27 -10 0 -46 20 -79 45 -33 25 -75
51 -93 59 l-34 14 29 12 c34 12 29 19 -27 40 -34 13 -43 21 -45 44 -3 26 -6
28 -43 24 -32 -3 -39 0 -39 15 0 10 -12 30 -27 44 -40 37 -163 95 -190 88 -21
-5 -21 -4 -6 26 13 27 14 33 1 45 -13 13 -18 11 -42 -11 -29 -27 -62 -28 -110
-3 -18 10 -18 12 -3 23 28 20 20 35 -30 56 -27 11 -53 27 -60 35 -6 9 -33 19
-60 22 -40 6 -49 11 -51 30 -3 19 -9 22 -47 22 -23 0 -56 7 -71 15 -16 8 -42
15 -57 15 -19 0 -39 10 -57 30 -21 22 -37 30 -62 30 -70 0 -222 64 -401 167
-45 27 -100 57 -122 68 -25 13 -39 27 -37 37 3 20 -26 28 -105 28 -77 0 -101
9 -176 66 -34 25 -73 48 -89 51 -16 3 -33 14 -38 24 -6 10 -26 21 -44 25 -19
3 -46 19 -60 34 -16 19 -39 31 -63 35 -147 22 -187 40 -177 80 10 40 -29 56
-168 69 -97 9 -123 14 -123 26 0 22 -46 25 -61 5 -18 -24 -59 -12 -95 26 -23
25 -42 33 -111 45 -46 9 -88 20 -95 26 -7 5 -13 30 -15 54 -4 54 -17 58 -40
14 -10 -19 -24 -38 -33 -42 -8 -5 -58 -9 -110 -9 -72 0 -105 5 -138 19 -44 20
-116 92 -177 177 -43 60 -84 85 -144 88 -25 1 -46 6 -46 10 0 10 82 87 93 87
4 0 7 5 7 11 0 8 -21 9 -69 4 -105 -10 -148 0 -165 38 -17 41 -91 124 -116
132 -13 4 -20 15 -20 30 0 41 -27 60 -142 101 -40 14 -87 37 -105 50 -36 28
-53 30 -53 9 0 -26 -21 -16 -31 15 -6 16 -19 32 -30 35 -11 4 -27 21 -36 38
l-18 32 -3 -29 c-3 -25 -6 -27 -30 -21 -15 3 -39 9 -54 12 -18 3 -28 12 -30
26 -4 28 -42 47 -95 47 -33 0 -43 -4 -43 -16 0 -11 -5 -14 -17 -9 -10 4 -50
10 -89 12 -81 6 -113 -6 -181 -68 -44 -40 -58 -44 -188 -55 l-80 -6 29 -25
c16 -13 25 -28 20 -32 -5 -4 -42 -20 -82 -34 -130 -48 -270 -31 -332 39 -45
52 -68 103 -51 113 16 10 12 19 -42 83 -33 39 -38 50 -28 62 18 22 3 39 -30
34 l-29 -5 27 29 c30 32 31 31 -21 52 -38 16 -39 17 -21 36 18 20 17 20 -44
20 -34 0 -71 4 -81 10 -36 19 -32 100 5 100 8 0 15 4 15 9 0 18 -30 39 -48 34
-13 -3 -29 7 -50 33 -36 44 -49 88 -32 109 10 12 5 18 -24 32 -36 17 -55 51
-41 73 4 6 -1 20 -10 30 -9 10 -14 23 -11 28 7 12 -16 22 -50 22 -28 0 -30 7
-7 40 16 23 16 24 -23 57 -21 19 -46 48 -54 66 -8 17 -35 42 -60 57 -56 33
-72 62 -64 116 l6 42 -39 -10 c-52 -14 -110 9 -124 51 l-11 30 -31 -20 c-47
-28 -108 -25 -137 6 -20 21 -33 25 -82 25 -46 0 -62 4 -75 20 -21 24 -31 24
-57 5z m644 -305 c0 -5 -12 -10 -26 -10 -14 0 -23 4 -19 10 3 6 15 10 26 10
10 0 19 -4 19 -10z m1418 -967 c5 -17 -26 -29 -40 -15 -6 6 -7 15 -3 22 9 14
37 9 43 -7z m930 -370 c2 -9 -7 -13 -27 -13 -21 0 -31 5 -31 16 0 19 51 16 58
-3z m1506 -673 c7 -7 1 -10 -16 -10 -34 0 -58 9 -58 22 0 12 60 2 74 -12z
m-6214 -3855 c0 -8 -4 -17 -10 -20 -6 -4 -10 5 -10 20 0 15 4 24 10 20 6 -3
10 -12 10 -20z m2410 -1992 c0 -13 -3 -13 -15 -3 -8 7 -15 19 -15 27 0 13 3
13 15 3 8 -7 15 -19 15 -27z m1786 22 c9 -21 -15 -47 -40 -43 -24 4 -34 37
-14 49 21 14 48 10 54 -6z m-1669 -542 c-3 -10 -5 -2 -5 17 0 19 2 27 5 18 2
-10 2 -26 0 -35z m5260 -45 c-2 -13 -4 -5 -4 17 -1 22 1 32 4 23 2 -10 2 -28
0 -40z m-5260 -674 c-12 -12 -37 5 -30 21 5 15 7 15 21 1 9 -9 13 -18 9 -22z
m5140 25 c8 -8 8 -20 2 -36 -11 -30 -41 -72 -51 -73 -14 0 -9 23 9 42 13 15
14 23 5 44 -7 13 -12 27 -12 29 0 10 36 5 47 -6z"/>
<path d="M5230 9461 c-18 -35 -11 -45 15 -21 14 13 25 27 25 32 0 16 -29 8
-40 -11z"/>
<path d="M7760 8950 c0 -5 18 -28 40 -51 32 -34 43 -40 53 -30 9 10 3 20 -30
52 -41 38 -63 48 -63 29z"/>
<path d="M4105 8130 c-16 -16 -24 -30 -19 -30 6 0 23 14 39 30 16 17 24 30 19
30 -6 0 -23 -13 -39 -30z"/>
<path d="M10995 7970 c-16 -7 -11 -9 20 -9 29 -1 36 2 25 9 -17 11 -19 11 -45
0z"/>
<path d="M14991 3494 c0 -11 3 -14 6 -6 3 7 2 16 -1 19 -3 4 -6 -2 -5 -13z"/>
<path d="M14981 3444 c0 -11 3 -14 6 -6 3 7 2 16 -1 19 -3 4 -6 -2 -5 -13z"/>
<path d="M9851 2219 c-13 -22 -21 -43 -18 -45 6 -6 41 42 50 69 12 32 -9 17
-32 -24z"/>
<path d="M13030 1750 c-25 -21 -30 -29 -18 -30 9 0 26 14 38 30 27 38 23 38
-20 0z"/>
<path d="M7100 1543 c0 -35 3 -44 10 -33 13 20 13 67 0 75 -6 4 -10 -12 -10
-42z"/>
<path d="M10960 1366 c0 -14 4 -27 9 -30 12 -8 22 20 15 39 -9 23 -24 18 -24
-9z"/>
<path d="M10970 1278 c-11 -18 -20 -40 -20 -48 1 -21 50 41 50 63 0 25 -8 21
-30 -15z"/>
<path d="M10710 753 c-34 -53 -39 -86 -14 -81 9 2 20 10 24 18 4 8 16 33 26
55 10 22 20 43 22 48 2 4 -4 7 -12 7 -9 0 -30 -21 -46 -47z"/>
</g>
</svg>
