<?xml version="1.0" standalone="no"?>
<!DOCTYPE svg PUBLIC "-//W3C//DTD SVG 20010904//EN"
 "http://www.w3.org/TR/2001/REC-SVG-20010904/DTD/svg10.dtd">
<svg version="1.0" xmlns="http://www.w3.org/2000/svg"
 width="1022.000000pt" height="289.000000pt" viewBox="0 0 1022.000000 289.000000"
 preserveAspectRatio="xMidYMid meet">
<metadata>
Created by potrace 1.16, written by Peter Selinger 2001-2019
</metadata>
<g transform="translate(0.000000,289.000000) scale(0.100000,-0.100000)"
fill="#000000" stroke="none">
<path d="M280 2874 c-84 -15 -113 -30 -222 -113 -29 -23 -59 -99 -51 -131 5
-18 11 -20 59 -15 30 4 66 13 82 21 33 17 45 17 59 3 8 -8 -7 -29 -58 -79
-116 -114 -92 -118 108 -18 130 64 151 71 216 76 94 5 119 -5 411 -167 370
-206 515 -273 751 -346 180 -56 235 -70 434 -111 216 -44 223 -49 235 -164 13
-138 127 -297 264 -369 35 -18 97 -57 138 -86 40 -29 79 -55 85 -57 17 -6 -14
-121 -51 -195 -16 -32 -30 -65 -30 -74 0 -21 -54 -63 -104 -79 -58 -19 -112
-73 -136 -136 -21 -59 -26 -92 -8 -59 33 61 129 128 157 111 5 -4 23 5 39 19
40 34 61 33 54 -3 -3 -15 -13 -38 -23 -51 -11 -13 -19 -30 -19 -37 0 -7 -7
-17 -15 -21 -17 -10 -45 -112 -45 -163 1 -34 1 -34 29 25 15 33 35 66 43 73 9
7 29 37 44 68 40 79 54 87 54 33 0 -24 -5 -71 -10 -104 -6 -36 -6 -72 -1 -90
7 -21 10 -24 10 -10 1 11 9 36 20 55 10 19 24 67 31 105 7 39 16 86 19 105 l7
34 18 -39 c10 -22 23 -46 28 -52 15 -19 28 -5 19 20 -5 12 -12 45 -16 72 l-7
50 26 -24 c35 -33 44 -19 18 28 -12 21 -22 48 -22 58 0 11 20 73 45 139 25 65
45 124 45 131 0 16 5 16 66 -1 75 -21 220 -54 314 -70 69 -12 282 -36 325 -36
7 0 11 -41 12 -107 0 -77 9 -151 31 -258 47 -229 47 -228 18 -351 -14 -60 -28
-123 -31 -140 -8 -40 -113 -166 -167 -200 -37 -23 -55 -27 -177 -33 -150 -8
-184 -20 -215 -72 -19 -32 -13 -35 24 -14 33 19 66 19 74 0 5 -13 43 -15 260
-15 284 0 266 -5 266 75 0 38 9 56 63 132 108 150 101 132 107 277 l5 131 64
155 c58 140 64 164 70 247 3 51 11 96 16 101 6 5 30 27 55 50 40 36 55 42 127
55 l80 14 22 -105 c27 -128 54 -183 119 -244 83 -78 220 -136 449 -192 119
-29 199 -68 275 -136 50 -45 57 -56 84 -142 43 -136 35 -282 -17 -314 -7 -4
-42 -8 -78 -9 -36 -1 -80 -3 -98 -4 -31 -1 -103 -52 -103 -72 0 -9 93 -4 109
6 5 2 14 -2 21 -11 10 -11 32 -15 94 -13 45 1 92 6 106 11 33 12 99 84 107
117 10 40 31 55 74 52 21 -1 49 1 61 5 20 6 16 9 -30 30 -46 20 -52 26 -52 53
0 16 -5 33 -10 36 -6 4 -7 11 -4 17 4 5 -3 22 -14 38 -16 21 -24 59 -36 169
-9 77 -21 149 -27 159 -6 10 -57 41 -114 70 -113 57 -118 62 -246 208 -82 94
-136 140 -183 157 -11 5 -16 13 -12 23 3 9 6 53 6 99 l0 83 38 7 c51 9 106 42
125 74 18 31 49 42 177 65 253 45 1460 83 1810 57 337 -25 716 -76 978 -132
392 -84 770 -188 1096 -302 88 -31 221 -74 295 -97 262 -77 682 -170 770 -170
56 0 25 18 -70 41 -241 57 -555 173 -879 324 -331 155 -426 197 -584 260 -226
89 -539 203 -826 300 -135 46 -277 95 -317 109 -181 65 -830 234 -1150 300
-582 119 -950 161 -1793 201 -173 8 -353 19 -400 25 -47 5 -251 19 -455 31
-383 22 -687 22 -895 -1 -352 -37 -675 -49 -845 -30 -314 35 -470 80 -845 242
-494 214 -532 226 -715 233 -60 2 -121 2 -135 -1z"/>
</g>
</svg>
