<?xml version="1.0" standalone="no"?>
<!DOCTYPE svg PUBLIC "-//W3C//DTD SVG 20010904//EN"
 "http://www.w3.org/TR/2001/REC-SVG-20010904/DTD/svg10.dtd">
<svg version="1.0" xmlns="http://www.w3.org/2000/svg"
 width="1536.000000pt" height="894.000000pt" viewBox="0 0 1536.000000 894.000000"
 preserveAspectRatio="xMidYMid meet">
<metadata>
Created by potrace 1.16, written by Peter Selinger 2001-2019
</metadata>
<g transform="translate(0.000000,894.000000) scale(0.100000,-0.100000)"
fill="#000000" stroke="none">
<path d="M13290 8925 c-7 -8 -29 -15 -49 -15 -20 0 -41 -4 -47 -10 -6 -6 -24
-4 -49 5 -54 19 -72 18 -92 -5 -14 -15 -25 -18 -59 -13 -40 5 -44 3 -55 -21
-11 -24 -17 -26 -74 -26 -65 0 -85 -11 -85 -46 0 -15 7 -24 23 -27 12 -2 0 -5
-28 -6 -63 -2 -79 -12 -73 -44 4 -23 1 -26 -39 -36 -24 -7 -46 -18 -49 -25 -3
-8 -23 -26 -45 -40 -55 -37 -75 -70 -60 -102 10 -22 8 -30 -14 -58 -30 -40
-32 -62 -4 -76 19 -11 20 -13 4 -37 -19 -29 -30 -170 -15 -188 6 -7 3 -28 -6
-55 -13 -39 -13 -52 1 -124 15 -74 15 -85 0 -126 -19 -53 -11 -158 12 -167 18
-7 11 -57 -20 -155 -18 -58 -19 -69 -6 -84 8 -9 13 -25 11 -35 -2 -10 1 -27 7
-37 13 -24 -5 -137 -25 -167 -18 -26 -18 -44 2 -66 15 -16 15 -20 0 -41 -9
-13 -38 -30 -64 -38 -35 -11 -48 -21 -50 -37 -2 -12 -12 -25 -23 -28 -10 -4
-26 -14 -35 -22 -9 -9 -39 -20 -66 -24 -28 -5 -58 -15 -68 -24 -9 -8 -35 -15
-60 -15 -25 0 -51 -7 -61 -16 -15 -14 -23 -14 -80 1 -38 10 -84 15 -114 12
-27 -2 -61 0 -75 5 -20 8 -28 5 -42 -12 l-18 -22 -81 31 c-86 33 -109 37 -125
21 -6 -6 -27 -4 -58 5 -27 8 -73 15 -101 15 -29 0 -66 5 -84 11 -27 9 -35 8
-51 -6 -19 -17 -22 -17 -78 4 -59 22 -86 21 -96 -5 -7 -19 -117 -19 -218 2
-44 9 -94 13 -111 10 -49 -10 -58 -10 -110 5 -42 12 -49 11 -64 -4 -16 -15
-16 -18 1 -36 17 -19 16 -20 -71 -25 -48 -3 -114 -7 -146 -8 -58 -3 -77 -14
-77 -49 0 -12 -24 -17 -122 -27 -68 -7 -154 -12 -192 -12 -51 0 -74 -4 -88
-16 -10 -10 -41 -19 -70 -21 -43 -4 -58 -10 -78 -35 -22 -25 -39 -32 -105 -45
-44 -8 -91 -21 -105 -28 -14 -8 -56 -19 -94 -24 -37 -6 -76 -16 -85 -24 -9 -8
-31 -17 -50 -21 -19 -3 -42 -13 -51 -21 -10 -9 -44 -20 -76 -25 -43 -7 -65
-16 -79 -33 -12 -15 -36 -27 -60 -31 -22 -4 -60 -14 -85 -21 -25 -8 -67 -18
-95 -22 -40 -6 -52 -13 -62 -34 -9 -18 -24 -29 -47 -33 -19 -4 -45 -15 -59
-26 -13 -11 -43 -22 -67 -26 -23 -4 -54 -17 -68 -29 -81 -67 -271 -167 -415
-219 -51 -18 -108 -44 -128 -57 -20 -14 -61 -31 -92 -38 -62 -13 -375 -177
-417 -217 -14 -13 -75 -42 -135 -64 -61 -23 -119 -45 -130 -51 -54 -26 -131
-80 -152 -105 -12 -16 -45 -40 -72 -54 -125 -63 -171 -91 -181 -109 -6 -12
-41 -30 -91 -46 -51 -17 -93 -39 -114 -59 -18 -17 -61 -49 -95 -70 -34 -22
-67 -50 -72 -62 -6 -12 -22 -27 -36 -33 -13 -7 -56 -32 -93 -56 -54 -35 -69
-50 -69 -69 0 -29 -88 -104 -162 -138 -40 -18 -48 -26 -48 -49 0 -21 -7 -29
-30 -38 -17 -5 -33 -17 -36 -25 -6 -14 -121 -93 -201 -136 -48 -26 -58 -43
-42 -72 9 -18 8 -24 -7 -36 -11 -7 -26 -19 -34 -25 -9 -7 -23 -25 -33 -40 -10
-16 -54 -51 -98 -79 -43 -27 -79 -56 -79 -63 0 -22 -49 -74 -109 -114 -73 -51
-177 -162 -186 -199 -4 -20 -27 -46 -71 -82 -38 -31 -102 -101 -154 -169 -315
-411 -1305 -1456 -1704 -1796 -498 -427 -968 -686 -1401 -774 -298 -61 -671
-43 -940 45 -199 65 -349 155 -486 293 -77 77 -104 113 -135 176 -37 76 -39
85 -42 193 -3 99 -1 123 24 205 15 50 27 103 28 117 1 22 -3 25 -41 28 -55 4
-100 -36 -147 -129 -71 -142 -85 -333 -36 -494 52 -168 185 -378 301 -475 136
-113 454 -269 699 -343 361 -109 805 -109 1235 -1 168 43 308 91 580 201 523
212 1053 476 2040 1018 634 349 847 457 1216 620 96 43 260 117 364 165 209
97 563 246 733 309 106 39 113 40 233 40 72 0 159 7 208 16 46 9 85 14 87 12
2 -2 -11 -38 -31 -79 -50 -109 -80 -236 -109 -468 -32 -243 -53 -335 -106
-444 -44 -91 -184 -314 -264 -421 -68 -90 -76 -107 -119 -236 -27 -84 -33
-117 -29 -157 3 -35 -9 -128 -39 -294 l-43 -243 -41 -40 c-71 -69 -110 -178
-159 -446 -22 -118 -20 -133 13 -172 42 -47 135 -63 279 -48 110 12 115 13
148 43 17 15 26 17 48 8 15 -5 37 -10 49 -10 13 0 35 -15 53 -37 l31 -37 109
-4 c104 -4 111 -6 143 -34 29 -26 40 -29 73 -25 54 7 66 20 80 88 l12 59 133
0 c129 0 135 1 156 24 l23 24 39 -29 c43 -32 80 -37 113 -13 49 34 16 140 -73
228 -73 74 -112 91 -211 91 -73 1 -87 4 -130 31 l-49 30 -1 69 c-3 138 16 452
31 535 9 47 26 101 39 120 12 19 33 62 46 95 45 117 121 252 179 321 64 76
101 109 361 325 292 244 417 388 517 599 70 145 107 290 136 524 l22 178 65
-6 c36 -3 84 -6 108 -6 42 0 44 -2 64 -47 18 -42 20 -59 15 -153 -4 -58 -12
-123 -18 -145 -18 -63 -4 -222 37 -415 34 -160 38 -189 38 -335 0 -149 -3
-174 -42 -365 -23 -113 -49 -227 -57 -254 -8 -27 -15 -70 -15 -95 0 -81 51
-263 112 -405 32 -73 37 -125 23 -232 -6 -45 -4 -54 19 -81 14 -17 26 -37 26
-45 0 -14 -44 -79 -104 -153 -26 -33 -28 -38 -14 -52 9 -8 31 -18 49 -22 28
-6 35 -12 42 -43 6 -27 21 -46 53 -70 38 -29 43 -38 44 -71 0 -21 4 -47 10
-57 12 -22 61 -40 110 -40 21 0 50 -6 65 -14 30 -16 91 -11 115 9 8 7 32 15
54 18 21 3 46 13 55 21 12 11 41 13 126 11 93 -2 116 -6 145 -25 32 -19 46
-21 159 -18 l123 4 25 -33 c20 -26 33 -33 59 -33 28 0 40 8 78 56 26 31 46 59
46 64 0 4 34 10 76 12 57 4 82 10 105 27 l30 22 80 -30 c95 -37 115 -38 130
-10 23 44 -16 131 -103 225 -67 72 -111 93 -234 109 -112 15 -236 51 -291 85
-20 12 -35 30 -38 47 -11 49 -44 112 -112 211 -74 110 -233 424 -233 462 0 14
-5 60 -12 102 -13 88 -1 233 33 402 25 122 64 201 200 406 132 201 191 320
213 436 9 49 23 118 31 154 34 159 36 369 4 505 -12 50 -22 121 -23 159 l-1
70 100 32 c55 18 102 31 104 28 2 -2 8 -133 12 -291 4 -159 12 -319 18 -358 6
-38 12 -142 14 -230 3 -153 4 -163 32 -220 19 -41 53 -84 107 -136 43 -42 78
-81 78 -87 0 -6 18 -33 39 -60 57 -71 141 -112 232 -112 63 0 119 14 119 30 0
3 -34 16 -75 28 -88 26 -129 59 -167 134 -38 76 -45 133 -23 203 17 53 17 61
2 133 -10 43 -17 86 -16 97 0 18 2 18 17 -5 82 -120 179 -199 286 -232 82 -26
210 -21 281 11 58 26 105 67 105 93 0 21 -3 21 -70 7 -67 -14 -155 1 -235 40
-77 38 -121 82 -154 151 -22 46 -26 67 -24 130 2 70 0 78 -41 155 -31 57 -43
92 -43 121 0 22 -6 56 -13 76 -16 43 0 265 28 372 l17 69 70 30 c39 16 161 73
273 128 173 83 204 96 209 81 19 -57 58 -117 184 -287 78 -104 161 -212 184
-240 23 -27 47 -60 53 -71 6 -12 27 -29 46 -38 73 -35 100 -72 130 -186 16
-58 37 -127 48 -155 34 -84 10 -178 -67 -264 -37 -41 -36 -51 4 -51 40 0 106
37 150 85 47 51 66 111 76 233 4 46 11 80 15 75 4 -4 15 -29 25 -55 10 -27 39
-73 66 -103 55 -63 64 -99 57 -228 -4 -60 -12 -98 -32 -141 -14 -32 -26 -63
-26 -69 0 -6 17 -7 41 -4 83 11 154 115 166 241 16 173 -71 452 -193 614 -50
67 -52 86 -7 55 45 -32 61 -35 203 -42 100 -6 145 -12 175 -26 103 -49 200
-204 235 -374 20 -101 23 -107 40 -96 39 24 61 185 41 301 -16 91 -86 234
-148 301 -92 101 -247 168 -414 180 -85 6 -94 9 -177 58 -82 48 -89 56 -124
121 -20 38 -56 125 -79 194 -23 69 -51 141 -62 162 l-20 36 46 74 c25 40 60
105 78 143 18 39 47 93 65 120 18 28 53 102 77 165 39 97 49 142 71 290 14 97
26 199 26 227 l0 51 73 43 c47 28 113 84 193 163 102 102 139 148 233 291 120
181 159 255 215 404 19 51 45 105 58 118 31 34 129 100 182 124 23 10 51 27
61 39 10 11 24 20 31 20 36 0 66 27 96 87 l31 63 61 0 c77 0 112 17 205 100
l71 63 127 -46 c71 -25 176 -63 236 -85 148 -55 318 -96 362 -88 50 10 88 47
120 118 39 88 38 131 -5 193 -51 75 -100 109 -100 70 0 -26 -24 -16 -40 17
-18 39 -39 47 -47 19 -3 -12 -7 -21 -10 -21 -15 0 -52 26 -74 53 -23 27 -29
29 -43 18 -20 -16 -54 -4 -105 38 -26 21 -32 32 -27 49 4 12 14 22 22 22 11 0
13 -6 9 -20 -8 -25 20 -27 53 -5 21 16 22 15 16 -15 -6 -26 -4 -30 14 -30 12
0 31 13 44 30 16 23 29 30 48 28 22 -3 25 -7 22 -35 -4 -41 14 -43 57 -7 33
27 51 25 51 -7 0 -18 2 -18 35 -5 34 15 35 15 35 -10 0 -28 16 -31 42 -7 11 9
18 11 18 5 0 -25 30 -10 68 33 69 78 78 178 32 342 -35 124 -38 129 -120 206
-104 98 -241 201 -386 289 -144 89 -206 134 -229 168 -9 14 -34 37 -55 52 -21
15 -71 68 -110 117 -39 50 -81 93 -93 96 -12 3 -42 -1 -66 -10 -24 -8 -51 -15
-61 -15 -24 0 -228 125 -275 169 -62 58 -96 81 -120 81 -30 0 -113 39 -215
100 -46 28 -90 48 -98 45 -8 -3 -35 10 -61 29 -89 64 -129 78 -151 51z m1330
-1650 c0 -8 -6 -15 -14 -15 -17 0 -28 14 -19 24 12 12 33 6 33 -9z m83 -36
c-4 -12 -11 -18 -20 -15 -8 3 -17 6 -20 6 -4 0 2 9 12 20 21 23 35 18 28 -11z"/>
</g>
</svg>
