<?xml version="1.0" standalone="no"?>
<!DOCTYPE svg PUBLIC "-//W3C//DTD SVG 20010904//EN"
 "http://www.w3.org/TR/2001/REC-SVG-20010904/DTD/svg10.dtd">
<svg version="1.0" xmlns="http://www.w3.org/2000/svg"
 width="1536.000000pt" height="863.000000pt" viewBox="0 0 1536.000000 863.000000"
 preserveAspectRatio="xMidYMid meet">
<metadata>
Created by potrace 1.16, written by Peter Selinger 2001-2019
</metadata>
<g transform="translate(0.000000,863.000000) scale(0.100000,-0.100000)"
fill="#000000" stroke="none">
<path d="M6428 8619 c-32 -4 -81 -15 -110 -22 -47 -13 -301 -87 -352 -103 -18
-6 -18 -4 3 24 29 41 27 43 -17 28 -67 -24 -137 -63 -173 -97 l-34 -34 -120
-1 c-115 -1 -129 -3 -312 -57 -313 -91 -426 -109 -728 -112 -151 -1 -214 -6
-258 -19 -124 -35 -324 -61 -575 -75 -144 -9 -148 -10 -231 -50 -47 -23 -92
-41 -100 -41 -9 0 -30 -17 -47 -37 l-31 -37 -39 17 c-101 43 -176 45 -248 6
l-37 -20 -30 26 c-17 14 -34 25 -37 25 -4 0 -20 -26 -37 -58 -34 -64 -43 -67
-124 -31 -24 11 -46 17 -49 14 -3 -3 -11 -31 -17 -63 l-11 -57 -75 -5 -74 -5
60 -37 c33 -21 67 -42 75 -47 12 -8 9 -15 -14 -38 -31 -30 -56 -81 -56 -112 0
-19 3 -19 45 8 44 28 131 58 140 49 3 -2 -73 -87 -168 -189 -355 -377 -409
-411 -690 -429 -281 -19 -366 -10 -717 76 -404 98 -435 107 -548 160 -216 102
-294 117 -364 69 -46 -31 -88 -113 -88 -173 0 -61 25 -97 126 -182 56 -48 81
-76 76 -84 -5 -6 -40 -49 -77 -96 -83 -103 -175 -242 -221 -331 -46 -93 -110
-283 -130 -387 -42 -225 26 -390 157 -380 44 3 44 3 84 81 22 44 51 87 65 97
30 21 85 40 116 40 22 0 21 -2 -18 -77 -36 -70 -40 -84 -36 -132 4 -47 10 -59
40 -87 44 -39 123 -59 203 -49 l55 7 46 -51 c124 -138 286 -165 730 -122 110
11 243 22 297 26 l97 7 93 -46 c134 -66 197 -80 352 -80 135 1 235 19 337 63
42 18 148 38 148 28 0 -2 -7 -21 -15 -40 -24 -57 -20 -96 11 -107 53 -20 108
-12 158 24 34 24 64 36 101 41 50 6 56 4 116 -35 81 -52 143 -70 243 -70 l81
0 34 -57 c139 -236 312 -414 486 -501 65 -32 187 -73 275 -91 53 -11 56 -14
89 -70 51 -89 156 -215 273 -326 l105 -100 33 -100 c156 -475 415 -1081 596
-1395 49 -86 86 -204 174 -565 71 -287 122 -536 151 -740 41 -288 13 -508 -92
-724 -55 -113 -113 -179 -255 -293 -39 -31 -90 -80 -114 -108 l-42 -50 48 -22
c58 -25 248 -40 469 -36 77 1 208 -1 290 -6 248 -13 537 19 659 73 25 10 46
17 49 15 9 -9 414 -34 557 -34 207 0 788 36 840 51 64 19 127 81 145 142 36
121 1 308 -89 482 -17 34 -29 80 -37 145 -16 133 -17 521 -1 655 44 369 128
796 228 1159 40 145 112 367 122 378 4 3 72 -7 152 -23 318 -63 695 -116 994
-139 167 -13 565 -13 697 0 391 39 674 139 899 317 50 40 82 59 84 51 3 -7 21
-67 41 -133 105 -347 328 -940 488 -1295 38 -85 87 -195 109 -245 22 -49 51
-133 65 -185 21 -82 24 -110 20 -205 -6 -137 -33 -233 -122 -432 -123 -277
-181 -361 -313 -451 -102 -70 -150 -121 -189 -200 -20 -41 -24 -58 -16 -71 22
-36 53 -41 258 -41 123 0 205 -4 211 -10 26 -26 161 -42 344 -43 205 0 576 19
657 34 130 25 159 161 71 328 -23 42 -50 94 -62 116 -15 29 -22 63 -25 124 -6
155 48 350 155 560 93 182 99 216 83 475 -25 404 -11 689 41 829 36 97 37 97
104 20 32 -37 147 -165 255 -283 415 -453 551 -620 623 -765 77 -154 170 -556
172 -740 l1 -100 -53 -86 c-59 -97 -118 -157 -215 -218 -155 -99 -180 -200
-60 -253 61 -27 297 -40 738 -42 383 -1 479 9 591 64 80 39 99 74 91 169 -10
122 -81 282 -211 477 -85 129 -92 163 -76 364 34 439 32 535 -15 677 -14 43
-77 182 -140 308 l-114 230 -11 120 c-22 222 -86 422 -184 568 -106 158 -131
295 -123 667 6 249 16 362 63 691 32 221 42 493 25 636 -76 620 -399 1196
-1002 1788 -393 385 -793 647 -1191 780 -252 84 -279 87 -998 110 -1095 36
-1675 78 -2442 175 l-297 37 -248 138 c-354 197 -405 231 -503 331 l-85 86 44
-5 c39 -5 42 -4 29 10 -10 9 -48 19 -99 24 -116 13 -120 15 -74 44 l40 23 -30
9 c-17 4 -110 8 -207 7 -177 0 -178 0 -178 22 0 25 -15 29 -145 40 -73 6 -275
-9 -310 -23 -11 -4 -15 3 -15 27 l0 33 -56 -7 c-31 -3 -96 -21 -145 -40 l-89
-33 0 38 0 39 -42 -1 c-24 -1 -69 -5 -100 -10z m578 -6861 c36 -205 71 -440
79 -521 15 -155 31 -209 81 -275 25 -32 26 -39 22 -120 -7 -149 -31 -184 -286
-415 -167 -151 -155 -150 -222 -12 -62 126 -92 242 -94 360 l-1 100 52 111
c77 163 207 630 268 957 14 76 25 152 25 169 0 17 3 28 6 25 4 -3 35 -174 70
-379z"/>
</g>
</svg>
