<?xml version="1.0" standalone="no"?>
<!DOCTYPE svg PUBLIC "-//W3C//DTD SVG 20010904//EN"
 "http://www.w3.org/TR/2001/REC-SVG-20010904/DTD/svg10.dtd">
<svg version="1.0" xmlns="http://www.w3.org/2000/svg"
 width="1536.000000pt" height="620.000000pt" viewBox="0 0 1536.000000 620.000000"
 preserveAspectRatio="xMidYMid meet">
<metadata>
Created by potrace 1.16, written by Peter Selinger 2001-2019
</metadata>
<g transform="translate(0.000000,620.000000) scale(0.100000,-0.100000)"
fill="#000000" stroke="none">
<path d="M6773 6171 c-121 -58 -292 -249 -419 -472 -35 -63 -148 -280 -249
-484 -220 -443 -262 -515 -317 -555 -93 -68 -189 -81 -758 -110 -860 -43
-1170 -74 -1945 -196 -655 -103 -1932 -366 -2690 -555 -249 -62 -321 -85 -363
-116 -45 -34 -41 -58 21 -118 126 -121 407 -279 668 -374 204 -75 274 -90 449
-101 141 -9 256 -29 330 -58 30 -12 25 -14 -85 -37 -150 -31 -245 -91 -245
-152 0 -53 107 -121 275 -177 44 -14 176 -48 293 -76 117 -27 301 -72 410
-100 917 -238 1037 -259 1661 -290 112 -5 223 -10 246 -10 l43 0 17 -97 c71
-411 265 -1004 449 -1370 159 -318 401 -598 601 -694 122 -59 168 -28 224 156
67 214 77 639 24 946 -27 156 -28 153 46 180 42 16 71 62 71 115 0 44 -28 94
-135 238 -84 114 -99 153 -92 245 9 125 72 258 135 282 19 8 138 9 392 3 624
-15 944 -11 1195 14 486 50 1048 118 1590 193 160 22 326 41 370 42 93 1 112
-7 198 -82 84 -74 245 -202 299 -239 62 -43 95 -48 136 -22 44 27 67 68 103
183 17 56 39 105 52 117 33 31 249 136 309 150 77 18 158 56 158 74 0 22 -40
46 -77 46 -38 0 -51 15 -20 24 12 4 193 44 402 91 209 46 450 100 535 119 85
20 180 39 210 42 59 6 58 7 206 -93 40 -28 57 -33 105 -33 37 0 61 5 68 14 7
8 17 57 23 110 l11 95 81 27 c44 15 106 40 136 55 79 41 532 129 663 129 106
0 175 -56 345 -282 393 -522 735 -836 1247 -1143 262 -157 496 -265 576 -265
63 0 90 92 65 221 -28 147 -84 278 -361 854 -213 441 -252 530 -289 659 -54
183 -46 315 39 653 61 241 115 387 221 590 121 233 509 900 545 937 12 14 34
20 65 21 58 2 77 23 100 104 8 31 60 146 115 256 110 219 125 269 90 304 -28
28 -74 27 -169 -5 -168 -56 -457 -231 -717 -434 -599 -468 -1029 -918 -1430
-1495 -260 -374 -362 -494 -408 -481 -118 35 -215 52 -478 86 -168 22 -313 42
-322 46 -9 3 -23 16 -31 29 -9 13 -41 33 -73 45 -72 27 -86 39 -130 117 -35
63 -74 103 -100 103 -23 0 -86 -36 -174 -99 -134 -96 -168 -98 -549 -36 -510
84 -3089 415 -3233 415 -42 0 -46 9 -17 35 47 42 17 90 -102 165 -98 62 -153
112 -178 160 -51 100 -90 316 -90 503 0 223 -35 439 -107 655 -44 133 -64 172
-103 206 -41 34 -79 33 -157 -3z"/>
</g>
</svg>
