<?xml version="1.0" standalone="no"?>
<!DOCTYPE svg PUBLIC "-//W3C//DTD SVG 20010904//EN"
 "http://www.w3.org/TR/2001/REC-SVG-20010904/DTD/svg10.dtd">
<svg version="1.0" xmlns="http://www.w3.org/2000/svg"
 width="1536.000000pt" height="669.000000pt" viewBox="0 0 1536.000000 669.000000"
 preserveAspectRatio="xMidYMid meet">
<metadata>
Created by potrace 1.16, written by Peter Selinger 2001-2019
</metadata>
<g transform="translate(0.000000,669.000000) scale(0.100000,-0.100000)"
fill="#000000" stroke="none">
<path d="M8770 6680 c-1030 -48 -2416 -227 -3115 -401 -194 -49 -515 -149
-972 -305 -235 -80 -473 -160 -528 -177 l-100 -30 -550 -8 c-559 -7 -700 -15
-904 -50 -348 -59 -903 -241 -1336 -437 -174 -79 -252 -124 -537 -314 -580
-385 -728 -508 -728 -606 0 -96 102 -210 218 -243 23 -7 42 -18 42 -25 0 -42
133 -105 252 -119 29 -4 94 -19 143 -33 84 -25 103 -27 275 -27 324 1 528 57
950 262 353 171 570 239 704 219 63 -10 232 -96 384 -195 68 -45 125 -81 127
-81 1 0 12 14 22 31 l20 30 39 -48 c21 -26 135 -147 254 -268 118 -121 261
-279 317 -350 166 -212 378 -431 701 -725 l82 -75 44 -175 c90 -362 119 -601
120 -985 1 -307 -4 -363 -51 -550 -15 -64 -26 -140 -29 -209 l-4 -109 -39 -42
c-48 -52 -72 -96 -74 -139 -2 -24 -16 -48 -54 -89 -66 -73 -96 -136 -101 -213
-4 -57 -2 -64 26 -95 l31 -34 123 1 c68 1 141 6 163 12 35 10 49 9 95 -9 78
-30 172 -24 229 14 52 35 110 123 152 231 42 109 127 309 184 431 l47 100 15
-28 15 -29 21 20 c70 66 135 230 146 367 l7 90 14 -45 c7 -25 16 -48 20 -52 3
-5 19 44 35 107 16 63 33 115 37 115 5 0 8 -27 8 -60 0 -76 18 -242 31 -295 6
-22 22 -67 35 -101 l24 -61 -44 -94 c-60 -126 -83 -211 -69 -250 9 -23 7 -39
-8 -79 -25 -65 -25 -161 0 -215 25 -55 76 -103 141 -133 146 -66 551 -50 778
32 90 32 247 134 232 150 -4 4 -285 -55 -331 -69 -16 -5 -16 -2 -6 30 8 29 7
42 -6 71 -17 35 -17 35 12 72 36 47 51 92 51 154 l0 49 -46 -36 c-26 -19 -57
-35 -70 -35 -13 0 -24 1 -24 3 0 12 60 147 102 231 103 204 149 390 118 472
-14 36 5 863 25 1126 21 279 47 546 55 557 4 7 33 7 90 -1 56 -8 279 -12 650
-13 l565 -2 140 -32 c370 -87 669 -224 768 -354 14 -18 51 -98 82 -177 32 -80
113 -266 180 -415 181 -398 239 -541 320 -794 l18 -55 -37 -31 c-21 -17 -110
-71 -198 -121 -278 -154 -346 -225 -292 -302 15 -22 13 -25 -75 -108 -162
-153 -192 -264 -94 -356 39 -37 84 -54 263 -101 192 -50 279 -53 421 -18 l96
24 184 -16 c469 -43 697 -46 837 -12 140 34 204 86 266 219 l42 90 31 -66 c39
-83 90 -135 140 -143 21 -3 76 -14 123 -25 500 -115 1020 -78 1276 90 125 82
238 217 263 314 14 55 4 88 -129 426 -148 378 -222 615 -266 855 -15 82 -19
150 -18 380 0 259 16 512 33 543 4 8 19 -14 39 -60 18 -40 41 -84 52 -98 l20
-25 1 65 c0 36 4 88 7 115 l7 50 29 -80 c44 -124 126 -280 225 -426 86 -129
248 -335 257 -327 2 3 -3 54 -10 114 -8 60 -13 110 -12 112 2 1 26 -28 53 -66
192 -263 657 -723 1009 -998 279 -218 615 -413 834 -484 163 -53 329 -70 438
-43 32 8 29 51 -7 100 -36 49 -94 94 -326 253 -253 173 -332 236 -481 384
-170 169 -282 329 -453 643 -187 344 -341 730 -605 1508 -184 546 -265 752
-396 1010 -193 380 -375 610 -760 959 -628 569 -1225 938 -1815 1121 -231 71
-433 111 -690 136 -145 13 -813 19 -1035 9z m2295 -4975 c32 -80 158 -337 233
-471 68 -123 142 -270 158 -318 13 -37 13 -41 -7 -62 -12 -13 -56 -35 -98 -49
-42 -14 -91 -34 -109 -45 -34 -21 -71 -87 -72 -126 0 -19 -8 -23 -53 -28 -110
-14 -187 -71 -187 -138 0 -36 -16 -9 -48 82 -17 47 -34 94 -38 105 -5 12 5 6
24 -15 l31 -35 1 140 c1 334 28 550 128 1013 6 29 4 31 37 -53z"/>
</g>
</svg>
