<?xml version="1.0" standalone="no"?>
<!DOCTYPE svg PUBLIC "-//W3C//DTD SVG 20010904//EN"
 "http://www.w3.org/TR/2001/REC-SVG-20010904/DTD/svg10.dtd">
<svg version="1.0" xmlns="http://www.w3.org/2000/svg"
 width="1536.000000pt" height="802.000000pt" viewBox="0 0 1536.000000 802.000000"
 preserveAspectRatio="xMidYMid meet">
<metadata>
Created by potrace 1.16, written by Peter Selinger 2001-2019
</metadata>
<g transform="translate(0.000000,802.000000) scale(0.100000,-0.100000)"
fill="#000000" stroke="none">
<path d="M13188 7962 c-33 -68 -77 -123 -84 -104 -3 6 -11 12 -19 12 -13 0
-22 -18 -49 -103 -8 -27 -32 -71 -52 -99 -36 -48 -38 -50 -78 -45 -23 2 -52 8
-65 12 -17 6 -22 5 -17 -3 5 -8 0 -12 -13 -12 -11 0 -23 -4 -26 -10 -3 -5 -21
-10 -39 -10 -25 0 -35 -5 -39 -20 -3 -12 -14 -20 -25 -20 -11 0 -34 -11 -50
-25 -17 -14 -35 -25 -41 -25 -15 0 -14 -17 2 -23 7 -4 6 -6 -4 -6 -9 -1 -22
-7 -29 -15 -6 -8 -26 -16 -43 -18 -23 -2 -31 -8 -29 -19 1 -10 -6 -19 -18 -22
-11 -3 -20 -9 -19 -14 3 -19 -2 -25 -14 -14 -18 14 -114 -25 -120 -49 -3 -13
-19 -19 -62 -22 -31 -3 -60 -10 -64 -16 -15 -25 -76 -62 -102 -62 -15 0 -29
-7 -33 -15 -3 -8 -11 -15 -19 -15 -7 0 -30 -9 -52 -20 -22 -11 -46 -20 -55
-20 -12 0 -12 -2 -2 -9 18 -11 -7 -21 -56 -21 -26 0 -33 -3 -23 -9 9 -6 -5
-11 -45 -14 -93 -8 -163 -22 -176 -35 -7 -7 -23 -12 -37 -12 -21 0 -23 -2 -11
-10 13 -8 13 -10 -1 -10 -9 0 -27 -9 -41 -19 -16 -13 -33 -18 -47 -14 -15 4
-21 1 -19 -8 2 -11 -8 -13 -41 -11 -30 3 -41 1 -37 -7 5 -7 -4 -14 -23 -17
-17 -4 -36 -13 -42 -20 -6 -8 -28 -14 -48 -14 -20 0 -49 -7 -64 -15 -25 -13
-32 -13 -58 0 -27 15 -29 14 -29 -5 0 -16 -7 -20 -32 -20 -18 0 -44 -3 -58 -7
l-25 -7 25 -7 c24 -7 24 -7 -5 -8 -16 0 -39 6 -50 15 -18 13 -21 13 -35 -4 -8
-10 -41 -26 -72 -37 -47 -15 -63 -16 -83 -7 -32 15 -48 15 -40 2 12 -19 -28
-24 -57 -7 -16 9 -26 12 -23 7 9 -14 -42 -31 -70 -24 -13 3 -29 12 -36 20 -6
8 -19 14 -28 13 -10 0 -12 -2 -3 -6 27 -11 -2 -23 -54 -23 -34 0 -53 -4 -49
-10 3 -5 0 -10 -8 -10 -21 0 -143 44 -234 84 -46 20 -136 50 -200 67 -65 17
-142 39 -171 50 -29 10 -63 19 -76 19 -12 0 -76 16 -142 35 -160 48 -674 150
-854 170 -80 9 -181 22 -225 30 -136 24 -329 39 -780 60 -71 4 -177 15 -235
26 -58 10 -175 26 -260 34 -102 11 -179 24 -225 40 -71 25 -98 29 -355 65 -80
11 -235 36 -345 56 -121 21 -261 39 -355 45 -85 5 -229 19 -320 29 -298 36
-554 53 -1000 66 -220 7 -229 6 -345 -19 -66 -15 -183 -38 -260 -52 -77 -13
-179 -36 -227 -50 -48 -14 -109 -28 -135 -32 -26 -3 -59 -11 -73 -18 -14 -7
-61 -16 -106 -20 -76 -6 -132 -22 -94 -26 8 -1 -12 -5 -45 -9 -99 -12 -364
-60 -450 -81 -118 -30 -164 -47 -450 -164 -143 -59 -312 -126 -375 -150 -63
-24 -153 -59 -200 -79 -47 -20 -102 -36 -122 -36 -36 0 -52 -14 -25 -23 16 -5
-43 -23 -123 -37 -105 -18 -110 -20 -110 -34 0 -9 -19 -16 -57 -20 -32 -4 -76
-9 -98 -13 -36 -6 -37 -7 -15 -13 21 -6 14 -9 -40 -22 l-65 -16 45 -2 c35 -1
41 -3 25 -10 -11 -5 -41 -12 -67 -15 -27 -3 -48 -10 -48 -16 0 -5 -15 -9 -34
-9 -24 0 -35 -5 -38 -18 -3 -12 -26 -24 -67 -37 -44 -13 -75 -31 -109 -62 -26
-25 -74 -58 -107 -74 -78 -38 -145 -89 -225 -170 -59 -60 -119 -142 -91 -125
25 16 8 -13 -52 -84 -55 -67 -83 -105 -138 -187 -9 -14 -20 -43 -23 -65 -4
-22 -14 -54 -23 -72 -23 -44 -33 -97 -22 -117 6 -11 4 -29 -6 -53 -8 -19 -15
-43 -15 -52 0 -15 2 -15 21 2 22 19 22 19 14 -6 -4 -14 -16 -43 -27 -64 -22
-44 -77 -299 -78 -361 0 -22 -7 -67 -15 -100 -8 -33 -14 -78 -14 -100 l0 -40
15 25 15 25 -5 -30 c-3 -16 -10 -77 -16 -134 -6 -59 -22 -136 -35 -176 -16
-46 -23 -82 -19 -102 6 -29 -10 -95 -40 -165 -9 -21 -16 -47 -16 -59 0 -18 2
-19 15 -9 23 19 29 -12 17 -88 -12 -72 -5 -95 24 -71 16 13 16 12 7 -6 -6 -11
-21 -62 -33 -112 -21 -89 -22 -94 -5 -129 14 -30 15 -43 6 -82 -16 -67 -41
-250 -40 -297 l0 -40 15 28 c24 45 26 26 4 -38 -11 -32 -20 -72 -20 -89 1 -29
2 -30 15 -13 12 17 13 9 8 -58 -5 -57 -3 -79 7 -85 10 -6 10 -23 0 -88 -8 -45
-10 -88 -5 -98 4 -11 8 -21 7 -24 0 -3 -6 -53 -12 -110 -6 -58 -13 -113 -16
-123 -6 -18 -5 -18 20 -2 l26 17 -15 -35 c-8 -20 -21 -91 -29 -159 -8 -68 -19
-136 -25 -151 -16 -42 -14 -87 4 -87 20 0 20 -112 0 -170 -8 -23 -15 -57 -15
-74 1 -30 1 -31 13 -8 7 12 16 20 20 16 4 -4 4 -72 0 -151 -4 -100 -3 -143 5
-143 6 0 14 -9 17 -21 5 -16 12 -19 30 -15 14 4 25 1 28 -7 3 -6 6 -3 6 7 1
18 2 18 19 3 14 -13 21 -14 30 -5 9 9 12 7 12 -12 0 -23 0 -23 21 -4 12 10 39
26 62 34 45 17 62 41 105 151 14 39 28 65 30 59 6 -18 42 58 42 89 0 15 3 49
6 75 7 47 8 45 54 -116 54 -187 96 -307 152 -428 22 -47 45 -115 53 -151 8
-36 24 -90 35 -120 42 -106 91 -320 100 -441 7 -99 14 -131 44 -205 20 -48 51
-110 70 -138 82 -123 322 -345 395 -365 41 -11 71 2 121 55 67 70 66 70 190
-30 83 -67 148 -95 222 -95 47 0 72 12 114 56 26 29 38 34 75 34 192 0 197
235 9 420 -48 48 -95 81 -171 120 -155 82 -244 143 -330 229 -70 68 -79 83
-99 146 -39 129 -97 547 -88 632 2 25 39 65 190 211 297 286 525 444 798 552
58 23 132 57 165 75 33 19 95 47 137 64 43 17 86 35 95 41 10 5 49 24 87 40
39 17 91 46 118 65 26 19 50 35 52 35 2 0 -2 -25 -9 -55 -15 -67 -27 -82 -210
-275 -179 -189 -245 -269 -281 -340 -25 -48 -29 -69 -32 -163 -6 -159 21 -213
197 -400 45 -48 81 -90 81 -95 0 -5 37 -47 83 -93 134 -136 265 -352 341 -561
55 -154 101 -230 167 -278 22 -16 106 -56 187 -90 81 -34 195 -84 254 -112
118 -54 191 -64 258 -36 38 17 84 56 92 78 4 12 16 11 74 -3 39 -9 115 -20
170 -23 97 -7 100 -6 131 20 40 34 77 108 68 137 -4 11 -52 68 -108 126 -109
113 -150 140 -292 188 -134 46 -178 70 -241 128 -139 129 -268 387 -350 702
-41 156 -45 236 -15 315 26 70 146 276 290 500 186 288 247 363 426 515 165
141 241 224 295 324 25 47 53 89 62 95 13 8 36 4 90 -13 40 -13 109 -32 154
-42 44 -9 157 -46 250 -82 213 -81 251 -90 564 -133 63 -9 124 -20 135 -24 11
-5 40 -11 65 -14 145 -16 241 -32 575 -92 l370 -67 575 -7 c316 -5 675 -9 797
-9 l221 -1 17 -98 c10 -53 35 -170 56 -258 50 -207 63 -330 56 -519 -5 -123
-10 -165 -32 -232 -34 -108 -44 -197 -45 -380 0 -135 3 -161 25 -232 28 -89
39 -105 171 -242 51 -53 101 -114 113 -136 11 -23 30 -92 41 -155 28 -157 47
-212 90 -261 56 -63 119 -93 235 -112 55 -9 156 -29 225 -45 69 -16 158 -32
198 -36 72 -7 75 -8 110 -51 83 -100 182 -140 388 -159 108 -10 164 -20 199
-35 112 -50 236 -29 272 45 9 20 20 36 24 36 4 0 56 -12 116 -27 142 -35 278
-38 319 -7 35 25 48 78 39 154 -6 47 -13 61 -46 92 -22 21 -46 38 -53 38 -7 0
-62 25 -122 56 -59 30 -152 70 -205 89 -54 19 -115 43 -136 53 -49 26 -120
101 -180 194 -27 40 -78 116 -115 168 -55 80 -135 216 -195 332 -10 20 -16
105 -23 320 -8 256 -12 301 -30 353 -11 33 -29 123 -40 200 -11 77 -33 200
-50 274 -60 263 -98 528 -86 594 6 31 12 37 66 57 77 29 191 96 415 247 305
204 524 383 638 521 43 52 66 72 79 69 13 -4 27 10 54 50 20 30 42 57 49 59 7
3 16 15 19 27 9 37 164 211 195 219 15 4 38 20 52 35 13 15 16 21 7 14 -12 -9
-18 -10 -18 -2 0 6 11 17 25 23 14 6 25 14 25 18 0 11 81 100 91 100 5 0 2
-11 -7 -25 -21 -32 -11 -32 30 0 33 25 63 34 51 15 -3 -5 -4 -10 -1 -10 3 0
24 28 48 62 39 59 43 61 48 38 6 -24 7 -23 32 18 15 26 28 39 33 33 9 -16 25
-4 25 20 0 10 7 19 15 19 9 0 18 7 21 15 4 8 12 15 20 15 7 0 11 6 8 14 -3 7
3 16 13 20 10 3 36 17 58 31 22 14 53 25 69 25 22 0 40 11 67 42 21 23 36 45
33 50 -3 4 2 8 10 8 8 0 21 10 27 23 6 12 20 30 31 40 18 18 20 18 39 1 18
-16 19 -16 19 1 0 15 3 16 12 7 20 -20 28 -14 28 21 0 43 25 77 56 77 15 0 24
6 24 15 0 13 4 14 21 5 17 -9 23 -8 35 7 10 13 16 15 22 6 6 -9 22 2 57 37 27
28 54 50 59 50 5 0 18 7 28 17 10 9 18 11 18 5 0 -16 48 10 53 30 3 10 26 23
59 32 53 16 55 16 142 -14 48 -16 140 -39 204 -50 159 -29 239 -50 453 -121
101 -33 262 -80 358 -104 139 -35 183 -50 225 -78 119 -81 204 -107 351 -107
113 0 190 11 283 42 55 17 76 19 165 12 136 -10 163 -7 224 22 65 31 104 77
179 214 96 174 106 196 111 257 10 109 -22 202 -125 361 -48 75 -110 173 -137
217 -27 44 -77 114 -110 155 -33 41 -89 112 -124 158 -34 46 -118 141 -186
211 -67 70 -140 155 -162 187 -55 80 -160 211 -253 314 -42 47 -104 122 -138
166 -48 64 -78 92 -139 131 -89 58 -203 116 -317 163 -122 51 -134 66 -146
180 -15 129 -35 203 -77 280 -20 36 -46 92 -57 125 -21 59 -22 60 -56 57 -19
-2 -37 -8 -38 -13 -2 -5 -14 5 -26 23 -32 49 -47 45 -78 -20z m-12115 -2524
c19 -24 53 -71 74 -105 l40 -61 6 -209 c7 -223 21 -356 41 -388 7 -11 25 -58
41 -105 36 -111 97 -245 180 -400 l67 -125 -10 -330 c-12 -369 -15 -392 -84
-510 -23 -38 -79 -120 -125 -182 -111 -149 -177 -192 -503 -332 -53 -23 -137
-66 -189 -97 -51 -30 -94 -54 -96 -52 -1 2 -5 76 -8 166 -6 144 -5 162 9 162
12 0 15 6 10 23 -16 56 -17 118 -2 196 8 46 18 86 20 89 3 3 12 -1 20 -7 11
-9 10 6 -7 69 -17 65 -19 85 -9 100 7 11 15 80 18 160 7 128 9 140 25 135 16
-5 17 -2 4 47 -11 38 -11 54 -3 59 8 5 9 51 5 156 -5 119 -3 155 8 177 8 16
12 39 8 56 -4 23 -2 30 11 30 13 0 16 12 16 69 0 39 5 73 10 76 6 3 10 28 10
55 0 58 7 80 26 80 11 0 14 28 14 147 0 131 2 145 15 127 13 -17 14 -14 15 39
0 50 3 60 20 64 23 6 23 6 8 72 -11 48 -10 53 12 83 18 25 25 50 30 113 4 44
12 90 18 102 7 12 12 32 12 44 0 18 2 19 15 9 18 -15 20 -9 30 64 4 27 15 65
25 83 16 31 19 32 28 16 10 -17 11 -17 32 2 12 11 28 32 36 47 20 38 37 35 77
-14z"/>
<path d="M11238 6943 c7 -3 16 -2 19 1 4 3 -2 6 -13 5 -11 0 -14 -3 -6 -6z"/>
<path d="M12675 5180 c-3 -5 -2 -10 4 -10 5 0 13 5 16 10 3 6 2 10 -4 10 -5 0
-13 -4 -16 -10z"/>
<path d="M247 1783 c-4 -3 -7 -11 -7 -17 0 -6 5 -5 12 2 6 6 9 14 7 17 -3 3
-9 2 -12 -2z"/>
</g>
</svg>
