<?xml version="1.0" standalone="no"?>
<!DOCTYPE svg PUBLIC "-//W3C//DTD SVG 20010904//EN"
 "http://www.w3.org/TR/2001/REC-SVG-20010904/DTD/svg10.dtd">
<svg version="1.0" xmlns="http://www.w3.org/2000/svg"
 width="4755.000000pt" height="1492.000000pt" viewBox="0 0 4755.000000 1492.000000"
 preserveAspectRatio="xMidYMid meet">
<metadata>
Created by potrace 1.16, written by Peter Selinger 2001-2019
</metadata>
<g transform="translate(0.000000,1492.000000) scale(0.100000,-0.100000)"
fill="#000000" stroke="none">
<path d="M33285 14903 c-822 -21 -1852 -78 -2600 -144 -565 -49 -2262 -236
-3170 -349 -799 -99 -936 -112 -1575 -155 -454 -30 -651 -45 -1185 -90 -553
-47 -705 -53 -1379 -60 -728 -7 -888 -15 -1451 -71 -937 -93 -1178 -135 -1780
-309 -538 -156 -865 -272 -1520 -540 -577 -236 -866 -334 -1620 -549 -518
-148 -762 -223 -1050 -323 -928 -322 -1648 -700 -2795 -1468 -398 -266 -529
-360 -1095 -785 -643 -484 -911 -670 -1283 -891 -192 -115 -606 -325 -765
-388 -385 -152 -731 -144 -1257 29 -193 63 -317 119 -621 283 -695 373 -1338
646 -1720 731 -343 76 -823 110 -1226 87 -307 -18 -470 -54 -668 -147 -70 -32
-92 -38 -171 -42 -50 -2 -122 1 -160 7 l-69 12 0 92 c0 80 -4 99 -27 142 -64
121 -205 205 -344 205 -91 0 -153 -20 -310 -100 -169 -87 -197 -96 -240 -80
-53 20 -86 63 -145 188 -48 99 -65 126 -91 140 -17 9 -52 36 -77 58 -36 32
-57 43 -96 49 -27 4 -67 16 -89 27 -39 20 -42 20 -94 3 -38 -12 -68 -15 -103
-10 -40 6 -61 2 -105 -15 -40 -17 -67 -21 -102 -17 -30 3 -63 -1 -92 -11 -25
-8 -70 -14 -100 -13 -51 1 -60 -2 -115 -43 -33 -24 -78 -49 -100 -56 -26 -8
-67 -39 -115 -85 -41 -39 -93 -82 -115 -95 -22 -13 -59 -39 -82 -57 -23 -19
-66 -44 -95 -57 -63 -28 -75 -41 -166 -176 l-71 -105 -123 -64 c-68 -35 -134
-72 -148 -81 -14 -10 -59 -32 -100 -49 -41 -18 -90 -44 -109 -59 -18 -15 -66
-52 -105 -82 -77 -59 -214 -199 -236 -240 -7 -14 -34 -54 -60 -90 -27 -36 -57
-87 -67 -115 -11 -27 -51 -102 -90 -167 -48 -80 -80 -147 -102 -215 -60 -189
-101 -428 -101 -592 0 -96 1 -103 25 -126 14 -12 61 -37 104 -55 73 -29 79
-34 90 -69 14 -48 38 -71 52 -50 5 8 9 24 9 37 0 26 2 27 40 7 18 -9 32 -26
36 -43 12 -56 25 -91 39 -102 11 -9 17 -5 29 19 9 16 16 40 16 51 0 18 4 20
23 14 59 -18 77 -34 77 -68 0 -66 43 -166 71 -166 17 0 39 60 39 105 0 25 2
45 5 45 4 0 19 -7 35 -15 22 -11 31 -25 35 -53 12 -68 30 -117 45 -120 19 -3
40 42 40 85 0 38 -1 38 45 16 34 -16 35 -18 35 -73 0 -86 40 -201 69 -200 19
1 41 77 41 140 0 39 2 70 5 70 2 0 16 -5 30 -12 22 -10 25 -17 25 -63 0 -100
37 -235 64 -235 23 0 44 66 49 148 3 46 8 86 10 89 3 3 18 1 32 -4 26 -8 26
-10 30 -113 3 -106 20 -180 49 -225 19 -29 34 -32 43 -8 4 10 11 21 16 24 5 4
13 62 18 130 5 67 11 125 14 127 2 2 19 -1 38 -7 l34 -12 5 -107 c7 -135 40
-231 81 -232 4 0 7 6 7 14 0 7 6 19 13 25 10 7 16 48 20 127 4 64 9 119 12
122 3 3 22 0 43 -6 l38 -12 12 -82 c13 -90 47 -171 75 -176 10 -2 17 3 17 12
0 9 5 16 10 16 6 0 10 39 10 96 l0 96 38 -7 c46 -9 62 -21 62 -50 0 -36 37
-145 56 -166 22 -24 34 -24 34 0 0 10 7 21 15 25 12 4 14 19 8 81 l-6 76 39
-7 c21 -3 41 -8 43 -10 2 -2 14 -33 27 -70 34 -100 104 -179 104 -119 0 14 4
24 9 20 18 -11 19 11 5 79 -8 37 -12 71 -10 75 2 3 24 5 48 3 42 -4 45 -6 72
-57 48 -92 126 -157 126 -105 0 11 7 20 15 20 19 0 20 -4 -11 75 -28 75 -24
85 31 85 23 0 35 -7 47 -28 24 -40 114 -122 134 -122 12 0 15 6 10 25 -5 19
-3 23 9 19 22 -9 19 18 -10 67 -14 24 -25 50 -25 57 0 27 40 9 92 -43 61 -61
84 -70 74 -29 -6 21 -4 25 8 21 24 -10 26 4 5 44 l-19 39 27 6 c53 14 183 -13
268 -55 144 -71 243 -199 343 -443 82 -199 103 -284 109 -428 4 -101 1 -144
-15 -223 -20 -94 -24 -103 -131 -270 -325 -509 -471 -664 -933 -988 -80 -57
-132 -87 -142 -83 -10 4 -19 -2 -26 -18 -15 -31 -114 -92 -118 -72 -6 24 -21
16 -46 -25 -32 -50 -94 -90 -107 -70 -8 11 -13 9 -27 -11 -21 -31 -69 -78 -94
-91 -15 -8 -18 -6 -18 18 0 27 -15 62 -22 53 -22 -29 -40 -67 -48 -107 -10
-43 -23 -62 -42 -63 -4 0 -10 16 -14 35 -3 19 -10 35 -15 35 -11 0 -39 -54
-39 -74 0 -14 -57 -52 -66 -44 -2 2 -7 22 -12 43 -4 21 -13 40 -19 42 -11 4
-43 -66 -43 -96 0 -23 -56 -47 -64 -28 -3 8 -11 4 -23 -10 -26 -31 -72 -47
-80 -28 -4 12 -9 13 -19 4 -8 -6 -14 -17 -14 -24 0 -11 -184 -104 -237 -119
-52 -16 -49 -57 14 -153 81 -123 197 -207 335 -242 212 -54 410 -33 770 85
364 119 600 239 1303 661 388 234 573 331 980 518 613 282 710 304 1105 250
407 -56 600 -122 975 -338 282 -162 498 -248 762 -304 110 -23 151 -26 298
-26 255 0 413 33 915 188 495 153 682 189 1465 286 385 47 596 98 778 190 107
53 176 107 238 185 28 35 54 64 58 64 19 0 92 -63 152 -131 36 -41 115 -139
174 -219 126 -169 205 -249 320 -325 224 -149 425 -196 757 -175 361 23 666
62 1167 150 396 69 751 116 751 98 0 -3 -12 -32 -26 -64 -44 -99 -114 -313
-150 -459 -48 -193 -52 -279 -23 -490 27 -194 31 -412 10 -653 l-12 -143 29
-62 c34 -71 38 -86 52 -217 12 -111 23 -144 53 -157 31 -14 75 3 92 38 17 31
35 140 35 211 0 26 5 71 12 100 l12 53 8 -55 c5 -30 22 -122 38 -205 17 -82
36 -204 43 -270 15 -124 31 -173 113 -336 57 -114 142 -166 214 -131 44 22 51
54 15 70 -65 30 -93 205 -46 289 28 48 26 59 -22 198 -24 66 -39 134 -47 200
-5 55 -12 116 -15 135 -2 19 15 -21 39 -90 50 -144 132 -313 177 -364 37 -43
92 -62 132 -47 36 14 34 32 -6 72 -49 49 -80 139 -73 210 4 46 1 67 -24 127
-33 82 -79 238 -116 397 -34 148 -43 347 -20 425 13 43 32 208 36 310 0 8 24
-30 53 -85 66 -127 88 -159 236 -335 122 -145 161 -200 365 -519 93 -146 116
-175 165 -209 31 -22 98 -79 150 -126 93 -84 175 -136 216 -136 31 0 65 28 65
53 0 27 -15 50 -89 137 -30 36 -62 74 -70 85 -25 35 221 -216 294 -299 48 -56
99 -98 166 -143 136 -88 178 -106 276 -111 70 -4 88 -1 128 18 51 24 81 61 71
86 -4 12 -14 15 -34 11 -34 -7 -116 10 -162 33 -45 23 -117 100 -136 145 -8
19 -14 49 -14 68 0 43 -9 53 -105 123 -86 63 -165 132 -165 144 0 5 39 -18 88
-50 163 -107 228 -130 311 -110 50 12 91 41 91 64 0 9 -19 15 -54 19 -30 3
-75 14 -100 25 -59 26 -142 105 -149 140 -4 20 -29 46 -84 88 -114 89 -302
264 -384 358 -98 113 -155 202 -190 297 -17 46 -54 126 -83 178 -29 53 -64
125 -79 161 -27 69 -128 377 -222 675 -31 99 -77 230 -101 292 -24 61 -44 115
-44 120 0 4 69 25 153 47 603 152 1190 361 1608 572 39 19 73 34 75 32 2 -2
19 -64 38 -138 19 -74 67 -236 106 -360 110 -349 153 -536 180 -795 18 -174
23 -539 11 -790 -25 -499 -35 -594 -91 -809 -16 -64 -30 -135 -30 -157 0 -101
-69 -338 -139 -477 -104 -207 -381 -560 -571 -728 -41 -36 -145 -121 -230
-188 -85 -66 -195 -162 -245 -211 -111 -112 -158 -143 -294 -196 -200 -77
-552 -159 -963 -224 -256 -40 -326 -56 -409 -90 -34 -13 -118 -38 -186 -55
-152 -37 -220 -64 -311 -123 -127 -82 -187 -150 -174 -199 7 -29 50 -33 137
-14 224 48 267 45 280 -20 8 -46 55 -97 102 -113 26 -9 119 -15 288 -18 334
-6 2257 15 2366 26 174 17 215 59 212 214 l-3 89 44 -49 c58 -63 71 -53 51 42
-8 39 -15 92 -15 118 0 44 3 49 35 69 63 37 69 58 75 294 l5 211 60 70 c347
405 801 945 857 1018 61 81 101 154 136 250 17 44 42 109 58 145 43 101 45
222 6 421 -39 192 -52 300 -52 409 1 322 116 826 285 1244 29 72 99 230 155
351 212 454 302 720 384 1128 l32 158 59 -96 c84 -136 216 -309 324 -425 184
-199 402 -358 789 -579 383 -217 522 -320 777 -576 170 -169 258 -268 476
-535 211 -259 295 -376 361 -503 33 -65 80 -144 104 -174 46 -59 72 -118 107
-243 18 -66 21 -102 21 -295 0 -312 -25 -471 -132 -850 -101 -355 -121 -459
-120 -610 1 -97 -3 -145 -16 -190 -25 -86 -133 -292 -178 -342 -68 -73 -146
-98 -493 -158 -262 -45 -331 -61 -406 -91 -33 -14 -116 -38 -184 -54 -157 -37
-226 -65 -329 -134 -102 -68 -156 -125 -156 -165 0 -59 23 -61 218 -21 148 31
181 24 199 -39 16 -56 44 -86 102 -108 42 -16 88 -18 506 -17 253 1 564 3 690
6 229 5 231 5 350 40 66 20 142 46 169 57 128 56 340 227 382 308 10 21 40 75
67 119 56 96 119 245 172 404 47 143 60 169 152 302 92 133 143 230 143 270 0
47 -35 93 -108 145 -37 26 -92 68 -122 94 -49 42 -56 52 -57 87 -2 45 -25 94
-89 195 l-44 67 30 93 c16 50 38 130 49 177 44 190 112 706 133 1009 15 224 6
291 -64 495 -78 230 -116 279 -351 455 -273 204 -439 422 -652 856 -117 238
-189 417 -305 759 -147 435 -250 666 -430 971 -119 202 -150 279 -150 383 0
64 26 199 45 227 7 11 127 89 266 174 970 591 1776 1108 2086 1340 198 148
334 286 521 529 43 57 72 104 72 118 0 16 6 24 16 24 9 0 47 24 83 53 114 93
440 321 906 637 165 112 419 287 565 390 591 416 940 626 1400 840 742 346
2170 842 3350 1164 1400 381 2375 551 3705 646 756 53 1531 56 2630 10 2472
-105 3943 -343 5615 -909 497 -168 791 -289 1200 -492 1133 -566 2089 -1310
2815 -2194 105 -129 264 -340 440 -585 168 -235 256 -330 303 -330 71 0 91 71
52 185 -83 242 -509 896 -865 1330 -315 383 -731 809 -1100 1125 -839 718
-2008 1401 -3220 1883 -914 363 -1952 669 -3056 901 -1297 273 -3085 477
-4599 526 -267 9 -1110 11 -1395 3z m-18747 -11638 l-1 -60 -8 45 c-4 25 -7
77 -7 115 l1 70 7 -55 c5 -30 8 -82 8 -115z"/>
</g>
</svg>
