<?xml version="1.0" standalone="no"?>
<!DOCTYPE svg PUBLIC "-//W3C//DTD SVG 20010904//EN"
 "http://www.w3.org/TR/2001/REC-SVG-20010904/DTD/svg10.dtd">
<svg version="1.0" xmlns="http://www.w3.org/2000/svg"
 width="1536.000000pt" height="960.000000pt" viewBox="0 0 1536.000000 960.000000"
 preserveAspectRatio="xMidYMid meet">
<metadata>
Created by potrace 1.16, written by Peter Selinger 2001-2019
</metadata>
<g transform="translate(0.000000,960.000000) scale(0.100000,-0.100000)"
fill="#000000" stroke="none">
<path d="M15304 9588 c-5 -7 -11 -157 -15 -333 -9 -398 -24 -527 -89 -792 -86
-352 -298 -781 -608 -1229 -231 -334 -422 -566 -652 -793 -454 -448 -785 -688
-1310 -951 -449 -225 -799 -350 -1163 -415 -72 -13 -233 -44 -357 -69 -573
-115 -974 -144 -1530 -112 -722 43 -870 64 -1470 215 -387 97 -494 129 -585
171 -33 16 -137 56 -230 90 -94 34 -246 93 -340 130 -282 112 -817 311 -980
363 -345 111 -657 154 -1515 207 -591 37 -752 66 -957 175 -160 84 -287 200
-465 424 -132 165 -181 249 -410 696 -262 511 -367 679 -488 788 -90 81 -196
122 -425 167 -175 33 -261 28 -769 -46 -337 -49 -454 -62 -666 -72 -139 -7
-193 -13 -217 -25 -62 -33 -82 -94 -40 -122 14 -8 122 -30 253 -51 237 -37
396 -77 556 -139 51 -20 121 -45 155 -55 78 -23 82 -26 98 -63 18 -44 2 -83
-45 -107 -61 -31 -280 -51 -754 -70 -272 -11 -293 -16 -274 -71 19 -54 36 -56
443 -62 385 -6 504 -16 690 -59 173 -39 230 -46 454 -53 286 -8 314 -15 390
-95 33 -34 114 -150 196 -281 217 -346 477 -710 706 -989 202 -245 267 -356
329 -560 80 -264 98 -302 200 -413 112 -123 354 -307 434 -331 58 -18 176 -83
183 -102 3 -8 -15 -68 -39 -132 -25 -64 -51 -139 -57 -167 -22 -89 -184 -357
-238 -392 -15 -10 -47 -64 -82 -137 -32 -67 -105 -200 -163 -297 -135 -224
-182 -313 -168 -317 5 -2 32 9 58 24 165 95 397 344 495 532 21 39 42 72 48
72 16 0 10 -58 -15 -132 -13 -40 -27 -104 -29 -143 -3 -39 -22 -121 -42 -184
-19 -63 -34 -119 -32 -124 3 -10 19 8 80 93 20 28 46 49 66 56 54 18 101 101
177 319 29 83 81 233 117 335 61 177 161 425 178 444 17 19 940 -423 1159
-556 58 -35 135 -87 172 -115 81 -62 115 -73 234 -73 l91 0 41 -90 c23 -49 49
-118 57 -152 23 -89 91 -213 150 -272 28 -28 82 -68 120 -89 80 -43 165 -103
165 -116 0 -13 -29 -30 -304 -175 -378 -200 -527 -294 -567 -359 -11 -18 -33
-75 -49 -127 -56 -178 -182 -375 -265 -411 -78 -35 -166 -185 -185 -316 -10
-72 -5 -133 11 -133 5 0 30 44 55 98 61 128 68 136 105 117 40 -21 63 -19 100
12 l32 27 15 -22 c8 -12 21 -22 28 -22 14 0 19 14 28 84 8 60 23 65 37 15 7
-24 17 -50 22 -57 15 -19 35 4 42 47 13 79 13 79 78 110 76 36 143 92 161 135
8 17 64 90 126 161 138 160 160 192 171 252 5 26 17 55 27 64 9 9 91 55 182
102 91 47 214 112 274 145 l110 59 75 -29 c42 -15 182 -66 312 -112 427 -154
860 -349 962 -435 69 -57 126 -130 133 -170 16 -84 -13 -244 -97 -538 -27 -98
-78 -284 -111 -413 l-61 -235 -7 -200 c-4 -110 -10 -209 -15 -220 -32 -76 -99
-117 -232 -140 -48 -8 -110 -20 -138 -26 -74 -17 -196 -69 -192 -83 2 -6 44
-14 103 -19 54 -4 155 -17 224 -28 129 -21 154 -32 172 -79 l9 -24 12 24 c12
24 33 39 119 85 77 41 117 83 160 169 91 180 114 271 128 496 15 244 27 332
75 575 87 438 110 617 95 747 -16 138 -44 166 -284 283 -204 100 -321 172
-431 265 -132 112 -312 304 -440 470 -234 303 -351 403 -587 500 -69 28 -79
35 -87 65 -11 40 0 106 30 174 36 85 38 86 226 90 l166 3 81 82 c68 69 102 94
206 151 69 38 158 88 198 112 l74 43 586 10 c669 11 1166 27 1297 40 757 78
1483 217 2100 404 248 76 667 218 800 273 243 99 681 377 955 604 199 165 536
480 676 631 205 221 217 236 324 373 51 66 108 137 127 159 159 177 516 878
632 1238 71 224 142 555 160 748 18 196 9 698 -14 771 -7 22 -20 25 -31 7z"/>
</g>
</svg>
