<?xml version="1.0" standalone="no"?>
<!DOCTYPE svg PUBLIC "-//W3C//DTD SVG 20010904//EN"
 "http://www.w3.org/TR/2001/REC-SVG-20010904/DTD/svg10.dtd">
<svg version="1.0" xmlns="http://www.w3.org/2000/svg"
 width="1536.000000pt" height="529.000000pt" viewBox="0 0 1536.000000 529.000000"
 preserveAspectRatio="xMidYMid meet">
<metadata>
Created by potrace 1.16, written by Peter Selinger 2001-2019
</metadata>
<g transform="translate(0.000000,529.000000) scale(0.100000,-0.100000)"
fill="#000000" stroke="none">
<path d="M1315 5271 c-109 -24 -198 -54 -330 -113 l-100 -45 -110 9 c-152 13
-211 6 -445 -52 -236 -59 -276 -77 -307 -140 -28 -55 -29 -103 -2 -183 28 -83
142 -301 186 -355 19 -24 90 -84 157 -134 66 -51 184 -145 261 -211 222 -189
311 -242 842 -507 860 -427 1032 -534 1588 -989 164 -134 283 -215 416 -281
103 -52 159 -93 159 -117 0 -32 -323 -153 -582 -219 -76 -19 -162 -43 -191
-54 -61 -23 -156 -103 -211 -179 -59 -80 -57 -81 98 -81 96 0 146 -4 177 -16
24 -8 61 -17 81 -20 20 -3 54 -12 74 -20 47 -20 72 -13 164 44 l74 46 286 1
c157 1 341 7 410 14 69 7 188 13 265 13 139 1 141 1 240 -37 55 -21 136 -49
180 -62 44 -14 89 -32 99 -41 31 -27 68 -121 171 -432 97 -293 98 -296 98
-395 1 -110 -14 -186 -48 -255 -37 -73 -52 -82 -162 -91 -107 -10 -179 -24
-233 -47 -52 -22 -120 -73 -136 -103 -13 -26 -11 -28 62 -93 62 -54 81 -66
110 -66 19 0 83 -10 142 -22 92 -18 116 -20 171 -10 55 9 72 8 129 -10 86 -26
149 -21 193 16 17 15 57 40 88 56 102 52 119 78 151 230 28 131 35 149 102
247 30 43 67 110 82 148 35 89 89 299 116 451 13 76 26 123 36 130 39 30 178
24 319 -13 51 -13 102 -14 326 -9 166 5 355 3 505 -5 191 -9 273 -9 409 1 167
13 171 13 220 -9 90 -40 281 -267 401 -478 75 -132 71 -177 -21 -219 -95 -44
-171 -49 -407 -30 -228 19 -288 16 -358 -19 -25 -12 -74 -31 -110 -40 -122
-34 -190 -80 -190 -128 0 -19 8 -29 88 -112 58 -61 131 -92 240 -105 51 -6
119 -19 151 -30 l58 -20 114 36 c107 33 126 36 304 44 169 8 319 23 725 75
194 25 376 87 454 155 37 33 38 35 34 92 -4 50 -21 92 -131 311 -224 445 -238
518 -121 634 55 55 121 91 204 111 125 30 244 24 554 -24 88 -14 277 -41 420
-60 367 -49 415 -63 497 -144 52 -52 74 -114 67 -185 -7 -62 -31 -95 -68 -95
-73 0 -490 -89 -603 -129 -82 -28 -149 -81 -104 -81 8 0 34 -16 59 -35 25 -20
69 -42 101 -50 31 -8 73 -24 94 -35 29 -15 57 -20 118 -20 44 0 105 -7 135
-15 101 -27 448 -12 520 23 42 21 59 61 59 148 1 103 18 163 72 257 46 79 51
94 50 145 -1 128 -31 444 -45 475 -8 19 -31 47 -52 63 -58 42 -62 46 -34 40
14 -3 131 -26 260 -51 295 -58 706 -146 1097 -236 497 -113 713 -153 963 -179
58 -6 420 -15 805 -20 l700 -8 120 -30 c274 -70 473 -99 490 -72 26 41 -212
251 -414 365 -280 159 -508 234 -1147 380 -1168 266 -1847 442 -2152 556 -503
189 -1046 469 -1587 819 -227 148 -357 222 -565 326 -707 352 -1418 546 -2182
595 -490 31 -1513 -30 -2063 -124 -181 -30 -201 -32 -435 -31 -286 2 -360 13
-484 73 -88 43 -187 125 -252 211 -103 136 -317 253 -944 517 -349 147 -567
213 -965 292 -420 84 -688 106 -850 72z"/>
</g>
</svg>
