<?xml version="1.0" standalone="no"?>
<!DOCTYPE svg PUBLIC "-//W3C//DTD SVG 20010904//EN"
 "http://www.w3.org/TR/2001/REC-SVG-20010904/DTD/svg10.dtd">
<svg version="1.0" xmlns="http://www.w3.org/2000/svg"
 width="1536.000000pt" height="1386.000000pt" viewBox="0 0 1536.000000 1386.000000"
 preserveAspectRatio="xMidYMid meet">
<metadata>
Created by potrace 1.16, written by Peter Selinger 2001-2019
</metadata>
<g transform="translate(0.000000,1386.000000) scale(0.100000,-0.100000)"
fill="#000000" stroke="none">
<path d="M2191 13797 c-6 -35 -11 -78 -11 -96 0 -17 -7 -47 -14 -66 -15 -34
-16 -35 -74 -35 -49 0 -62 -4 -81 -24 -14 -15 -30 -22 -42 -19 -15 4 -23 -3
-34 -31 -24 -58 -40 -56 -104 13 -55 59 -77 70 -115 55 -34 -13 -16 -94 55
-241 27 -57 49 -105 49 -108 0 -2 -12 -11 -27 -19 -16 -8 -85 -56 -155 -108
-70 -51 -152 -108 -182 -127 -30 -19 -81 -65 -112 -103 -88 -106 -150 -157
-269 -223 -97 -53 -124 -75 -240 -191 -71 -72 -164 -167 -205 -210 -47 -50
-131 -120 -225 -187 -130 -93 -160 -120 -226 -202 -134 -167 -166 -260 -170
-485 l-3 -145 42 -130 c46 -145 72 -257 72 -315 0 -48 30 -74 112 -97 57 -16
58 -17 58 -53 0 -20 5 -52 11 -70 l12 -32 66 4 c50 4 90 16 166 51 120 54 163
67 233 67 37 0 54 4 58 15 4 10 20 15 51 15 75 0 165 28 193 61 24 27 75 48
197 79 30 7 41 15 37 25 -9 23 41 30 72 10 24 -16 26 -16 39 2 11 15 35 19
157 24 78 4 190 15 248 24 62 10 127 14 158 11 48 -6 52 -5 52 15 0 16 3 19
13 11 14 -12 87 -11 87 1 0 4 9 7 20 7 11 0 20 5 20 12 0 7 16 -3 35 -22 35
-34 51 -24 18 12 -9 10 -11 18 -6 18 6 0 16 -7 24 -16 12 -14 61 -44 74 -44 3
0 5 5 5 10 0 6 -8 10 -18 10 -19 0 -42 18 -42 34 0 5 8 2 18 -7 26 -24 51 -21
61 7 10 25 30 36 67 36 17 0 24 6 24 19 0 23 45 61 71 61 9 0 31 12 48 26 25
21 34 24 46 14 8 -6 19 -8 26 -4 8 5 7 9 -5 16 -35 20 -3 27 34 8 53 -27 66
-26 46 5 -9 13 -16 30 -16 37 0 8 5 6 11 -4 5 -10 17 -18 24 -18 17 0 20 16 5
25 -5 3 -10 13 -10 21 0 10 10 7 40 -12 26 -18 45 -24 57 -19 16 7 15 9 -6 14
-26 7 -41 35 -33 64 3 11 25 27 49 38 41 17 45 18 78 2 27 -13 38 -14 47 -5 9
9 7 12 -9 12 -11 0 -26 7 -33 15 -10 12 -9 15 7 15 10 0 35 12 54 26 23 17 42
24 59 20 15 -2 32 2 43 12 39 35 218 4 258 -44 10 -12 13 -12 23 1 9 13 17 14
44 4 23 -8 41 -8 62 -1 27 10 35 7 82 -29 55 -42 88 -55 112 -46 9 4 22 -7 36
-30 20 -35 22 -36 69 -30 43 5 53 2 96 -28 26 -19 62 -37 79 -41 24 -4 38 -17
61 -57 17 -28 36 -53 43 -55 11 -3 12 0 2 18 -6 12 -9 25 -5 28 7 7 28 -16 51
-54 16 -25 29 -11 14 15 -8 17 -8 21 3 21 8 0 17 -9 20 -20 5 -20 27 -28 27
-10 0 19 26 10 54 -19 16 -16 40 -32 55 -36 79 -19 230 -81 259 -106 18 -16
39 -29 46 -29 8 0 19 -7 26 -15 7 -8 19 -15 26 -15 17 0 155 -110 184 -147 11
-14 23 -43 26 -65 4 -21 12 -38 19 -38 21 0 46 -36 52 -76 8 -54 21 -77 40
-70 21 9 43 -12 43 -39 0 -13 10 -54 22 -91 11 -38 24 -98 27 -134 6 -63 7
-65 46 -87 37 -20 42 -28 54 -83 11 -47 17 -60 32 -60 11 0 19 -7 19 -17 0
-10 14 -56 30 -103 17 -46 30 -103 30 -127 0 -52 20 -58 41 -10 8 17 18 32 23
32 5 0 22 -40 38 -90 24 -72 30 -110 32 -190 2 -79 11 -136 44 -270 71 -292
195 -1065 212 -1320 10 -158 26 -246 111 -597 94 -394 103 -449 102 -690 -1
-204 -1 -207 -26 -240 -57 -77 -133 -282 -197 -538 -17 -69 -61 -219 -97 -335
-96 -307 -118 -387 -147 -520 -14 -66 -32 -125 -40 -130 -8 -7 -15 -37 -18
-80 -3 -58 -13 -89 -55 -180 -28 -60 -54 -132 -58 -160 -4 -27 -27 -117 -51
-200 -53 -176 -108 -395 -159 -624 -21 -96 -61 -231 -96 -328 -100 -277 -108
-329 -80 -589 17 -158 24 -198 43 -230 22 -38 23 -46 23 -289 l0 -250 -49
-115 c-148 -351 -226 -692 -226 -993 0 -92 3 -117 16 -128 25 -21 42 -62 54
-132 12 -65 12 -65 68 -100 84 -51 112 -64 157 -71 33 -6 46 -3 68 14 37 29
50 22 65 -36 17 -65 58 -126 132 -199 l61 -60 84 3 c48 1 111 11 147 22 52 16
65 17 78 6 21 -19 139 -76 156 -76 36 0 108 51 209 149 l110 106 23 85 c15 59
22 105 19 148 -3 69 -13 82 -59 82 -34 0 -34 1 -6 70 20 48 23 72 22 200 0
103 -7 181 -23 270 -12 69 -24 170 -28 226 -6 96 -5 101 18 122 23 22 23 22 6
70 -21 58 -21 63 -1 55 14 -5 15 2 9 63 -5 53 -4 66 5 54 9 -12 10 -6 6 25
-16 101 -18 163 -7 182 8 16 7 24 -4 33 -35 29 -3 77 33 49 16 -13 16 -12 0 7
-22 25 -23 54 -3 100 14 34 14 35 -11 46 -31 14 -28 44 4 40 22 -3 30 12 12
23 -5 3 -10 39 -10 78 l1 72 20 -27 c11 -16 27 -28 35 -28 21 0 17 8 -20 41
-43 37 -57 86 -30 106 16 12 17 15 4 23 -12 8 -13 13 -2 27 7 10 15 26 18 36
4 9 10 17 15 17 11 0 43 70 40 88 -1 6 6 12 15 12 12 0 15 6 10 24 -6 25 8 44
19 26 15 -25 22 -7 7 19 -15 28 -15 31 1 49 9 10 17 29 17 43 0 13 5 31 10 39
8 13 13 13 31 2 30 -19 36 -6 8 17 -21 16 -22 22 -11 42 6 13 16 37 22 53 6
16 13 26 17 22 9 -9 35 63 34 94 -1 13 15 48 35 78 28 42 39 75 54 154 19 98
43 157 68 166 8 2 12 -8 12 -32 0 -25 4 -36 15 -36 22 0 29 42 22 136 -4 62
-3 84 6 84 7 1 21 8 33 18 16 13 20 28 20 71 -1 61 17 80 34 35 15 -37 22 -25
10 16 -12 43 -4 70 21 70 16 0 19 7 19 54 0 38 6 61 19 77 22 27 20 28 45 -26
10 -22 21 -35 23 -28 2 7 0 21 -6 32 -6 11 -11 28 -11 37 0 15 3 14 24 -5 14
-13 29 -20 35 -16 7 4 3 13 -11 25 -21 17 -23 25 -21 122 l1 103 39 5 38 5 -3
57 c-4 61 4 102 18 93 5 -3 19 0 30 7 18 11 23 10 40 -12 24 -31 24 -23 4 46
-19 65 -15 123 9 138 14 9 21 6 41 -19 30 -37 32 -32 40 90 8 118 21 164 49
174 18 7 25 3 39 -23 l17 -31 1 26 c0 15 -7 46 -15 69 -19 53 -19 84 -2 99 11
8 17 5 27 -17 12 -24 14 -25 18 -7 2 11 15 46 28 77 15 37 24 77 24 112 0 38
6 66 20 88 18 30 18 34 3 50 -14 16 -14 20 3 45 10 16 21 52 24 82 6 64 29 88
55 56 10 -12 14 -14 11 -5 -2 8 -12 38 -22 67 -17 50 -17 54 1 86 14 27 15 38
6 55 -10 19 -8 27 13 55 13 17 27 49 31 70 4 20 11 39 15 42 5 3 1 23 -8 46
-14 37 -14 47 1 128 22 116 22 137 -9 261 l-26 105 22 40 22 40 -55 150 c-97
265 -127 396 -127 548 l0 92 26 -27 c21 -20 29 -43 40 -108 12 -76 29 -108 56
-110 4 0 10 -16 14 -35 3 -19 14 -37 23 -40 9 -3 49 -65 89 -138 l72 -132 0
-80 c-1 -44 4 -96 11 -115 8 -24 13 -130 14 -345 1 -236 6 -329 18 -390 113
-573 241 -1105 337 -1400 48 -146 62 -211 95 -446 15 -101 41 -254 60 -339 78
-357 80 -376 79 -620 -1 -161 -8 -278 -23 -410 -13 -107 -26 -305 -31 -470 -5
-157 -16 -332 -25 -390 -20 -145 -19 -255 4 -305 36 -80 211 -215 276 -214 17
0 77 15 135 34 l105 33 31 -61 c58 -113 130 -168 245 -186 102 -17 136 -7 192
52 31 33 50 47 54 39 2 -7 24 -22 46 -34 79 -42 247 -22 310 36 16 15 30 44
38 82 17 73 18 312 2 594 -11 198 -13 210 -52 335 -48 149 -61 220 -130 731
-13 89 -8 122 15 103 27 -22 27 1 1 29 -24 25 -26 31 -15 59 10 28 9 34 -15
63 -30 36 -30 33 -31 227 -1 87 3 144 9 146 6 2 5 10 -3 20 -18 21 -19 102 -2
122 10 12 10 19 2 27 -7 7 -12 23 -12 38 1 24 2 23 15 -8 8 -17 21 -32 30 -32
12 0 9 11 -15 53 -16 30 -30 67 -30 83 l1 29 22 -28 c13 -15 26 -24 30 -21 4
4 -2 13 -13 21 -15 11 -18 21 -13 45 5 24 1 34 -15 47 -13 10 -29 44 -41 89
-17 61 -18 72 -5 61 8 -7 22 -26 31 -43 9 -17 18 -26 20 -19 3 7 -7 32 -21 56
-32 54 -34 81 -6 72 25 -8 25 0 0 25 -15 15 -20 33 -20 69 0 44 2 49 20 44 25
-7 26 4 3 30 -15 16 -18 39 -19 136 0 64 -4 133 -8 154 -7 29 -5 42 7 55 15
16 15 19 -4 31 -19 11 -21 21 -18 89 3 60 -1 85 -15 111 -13 24 -23 79 -32
180 -8 80 -23 176 -34 213 -23 77 -25 95 -7 101 8 3 6 13 -10 35 -28 38 -32
72 -7 51 8 -7 24 -30 35 -51 11 -21 24 -38 29 -38 17 0 11 16 -21 56 -38 48
-59 87 -59 111 0 14 8 10 30 -17 l30 -35 -24 50 c-13 28 -27 70 -30 95 l-6 45
20 -25 c13 -17 8 2 -16 53 -41 91 -67 204 -58 251 5 27 1 39 -20 61 -30 32
-33 45 -9 45 14 0 13 3 -6 21 -20 19 -21 23 -7 44 14 22 14 24 -9 39 -14 9
-25 23 -25 31 0 22 17 18 34 -7 9 -12 18 -19 22 -16 3 4 -10 21 -30 39 -40 35
-70 84 -61 99 3 6 16 5 32 -1 35 -13 41 -4 14 25 -18 19 -19 25 -8 34 11 9 25
-5 72 -73 32 -47 59 -85 61 -85 2 0 1 15 -2 33 -4 27 -1 24 20 -20 14 -30 60
-90 109 -141 65 -69 86 -99 95 -133 13 -50 41 -96 42 -67 0 9 -5 29 -12 43 -6
14 -8 28 -4 32 11 11 130 -114 198 -208 64 -89 85 -109 68 -64 -19 50 7 23 34
-34 15 -33 34 -65 42 -72 21 -17 17 4 -7 35 -21 27 -20 56 2 56 7 0 26 -16 43
-36 17 -20 43 -49 57 -64 15 -16 24 -32 21 -35 -16 -16 96 -103 229 -178 26
-15 83 -61 128 -103 46 -43 85 -73 92 -69 14 9 70 -45 126 -123 27 -37 51 -61
59 -58 7 3 18 -2 24 -10 7 -8 25 -14 41 -14 23 0 31 -7 43 -34 17 -40 42 -61
34 -28 -11 41 21 23 108 -58 65 -61 96 -83 130 -92 37 -10 60 -28 115 -85 38
-40 69 -67 69 -61 -1 18 -20 40 -58 67 -58 41 -27 34 38 -8 41 -26 75 -41 95
-41 28 0 33 -4 39 -31 9 -46 7 -145 -5 -219 -5 -36 -14 -146 -19 -245 -6 -99
-14 -211 -19 -250 -13 -94 -13 -359 -1 -486 6 -57 24 -151 41 -208 17 -56 37
-141 45 -187 8 -47 19 -97 25 -112 6 -15 14 -63 19 -108 6 -59 22 -116 60
-215 36 -93 54 -154 58 -199 3 -45 10 -69 22 -77 9 -6 22 -31 29 -55 17 -55
45 -111 65 -127 9 -8 16 -23 16 -35 0 -12 9 -25 22 -31 14 -6 27 -25 34 -50 9
-34 12 -37 21 -21 9 17 11 17 16 -5 13 -56 40 -287 35 -300 -9 -22 -121 -79
-157 -79 -26 0 -31 -4 -31 -25 0 -19 -5 -25 -22 -25 -12 0 -37 -5 -55 -12 -23
-8 -39 -9 -50 -2 -12 7 -22 3 -43 -16 -15 -14 -58 -36 -96 -49 -80 -28 -120
-53 -129 -81 -6 -17 -15 -20 -74 -20 -58 0 -81 -6 -180 -50 -62 -27 -129 -61
-148 -76 -38 -29 -75 -83 -67 -96 3 -5 30 -20 60 -33 70 -31 78 -63 39 -157
-5 -13 2 -19 35 -29 32 -10 60 -10 135 0 103 13 135 9 227 -34 31 -14 71 -25
96 -25 28 0 53 -7 69 -20 24 -19 49 -19 38 1 -8 12 21 12 65 -1 26 -8 39 -6
58 6 23 15 24 15 17 -8 l-7 -23 21 23 c23 23 31 22 68 -11 28 -25 43 -15 18
13 -17 18 -17 20 0 26 9 4 31 0 49 -9 29 -14 33 -13 43 1 8 14 17 15 49 6 29
-7 46 -6 68 5 22 11 36 11 66 2 47 -14 71 -15 50 -1 -22 14 -5 23 19 10 12 -6
21 -20 21 -30 0 -11 4 -20 9 -20 6 0 6 12 1 30 -9 32 3 41 18 14 7 -12 11 -13
17 -5 5 9 13 7 30 -9 16 -15 30 -20 45 -15 20 6 20 8 6 24 -26 28 -20 48 7 23
21 -20 47 -29 47 -17 0 3 -9 14 -20 25 -26 26 -25 33 7 47 21 10 29 10 41 0
13 -10 14 -9 10 3 -6 18 8 50 22 50 6 0 10 -9 10 -20 0 -11 4 -20 9 -20 6 0 7
15 4 34 -4 29 -2 34 18 39 35 10 37 9 31 -18 -5 -27 12 -35 22 -10 3 8 12 15
20 15 8 0 16 14 20 34 8 44 70 96 115 96 26 0 31 4 31 25 0 28 41 61 64 52 11
-4 16 3 18 26 2 26 7 32 26 31 17 0 22 5 22 23 0 18 5 23 25 23 18 0 28 7 35
26 6 14 14 22 20 19 6 -4 10 7 10 24 0 32 16 41 38 19 9 -9 12 -7 12 12 0 19
13 33 50 57 43 28 88 81 188 217 12 17 22 42 22 57 0 42 -63 157 -136 248 -57
71 -66 86 -56 102 10 15 8 18 -11 21 -29 4 -34 34 -8 43 20 6 19 8 -10 32 -26
22 -30 32 -27 60 3 28 -2 40 -34 74 -47 50 -75 134 -59 180 9 27 8 33 -12 49
-17 15 -22 27 -20 63 2 68 39 128 58 97 10 -16 25 -12 19 5 -5 11 1 15 21 15
15 0 25 3 23 8 -2 4 -10 19 -17 34 -16 32 -6 79 30 137 16 27 23 31 30 20 5
-8 9 -25 10 -39 l0 -25 11 23 c16 32 29 23 47 -31 9 -25 37 -70 63 -99 25 -29
70 -82 100 -118 30 -36 76 -81 102 -101 26 -20 57 -51 68 -70 11 -19 34 -49
51 -68 16 -19 36 -49 43 -67 10 -24 21 -34 41 -36 21 -2 29 -10 33 -33 9 -41
38 -95 51 -95 7 0 5 10 -5 25 -9 13 -16 34 -16 45 0 20 0 20 31 -2 17 -13 33
-35 36 -50 4 -21 11 -28 29 -28 17 0 29 -10 43 -37 16 -31 21 -35 26 -21 6 15
15 11 60 -27 34 -30 55 -56 59 -75 7 -38 26 -39 26 -2 l1 27 22 -26 c12 -15
30 -40 39 -58 19 -35 35 -40 40 -13 2 10 19 -13 43 -60 41 -80 67 -107 40 -41
-29 70 8 48 78 -46 29 -39 42 -50 48 -40 9 16 7 18 79 -69 28 -35 63 -68 76
-74 13 -6 24 -19 24 -29 0 -10 11 -26 25 -35 17 -11 25 -25 25 -44 0 -21 7
-30 29 -40 57 -23 78 -116 41 -177 -24 -40 -103 -94 -203 -137 -59 -25 -83
-42 -109 -77 -26 -34 -54 -54 -122 -87 -110 -53 -195 -134 -249 -238 -42 -81
-44 -94 -19 -94 25 0 61 -35 68 -68 3 -15 11 -45 17 -67 12 -38 14 -40 49 -38
20 1 79 19 130 39 121 47 190 54 246 25 31 -16 60 -21 116 -21 216 0 449 67
631 181 61 39 92 53 97 46 4 -7 8 2 8 20 0 32 27 73 115 178 24 28 45 65 49
86 3 19 13 44 20 55 14 18 15 18 35 -6 l21 -25 -10 28 c-5 16 -10 36 -10 45 0
13 5 11 20 -8 21 -27 22 -26 20 40 -2 58 9 86 67 172 39 58 48 67 54 52 5 -13
8 -4 9 26 3 66 13 96 33 92 14 -2 17 5 17 37 0 22 12 77 27 123 24 74 27 80
33 53 4 -20 8 2 13 67 4 54 16 141 27 194 11 53 20 128 20 166 0 65 -3 74 -35
118 -46 62 -108 118 -154 138 -20 8 -69 16 -111 17 -67 1 -75 4 -75 21 0 16
-10 20 -58 25 -35 4 -65 13 -75 23 -16 16 -14 17 26 10 28 -4 42 -3 42 5 0 6
-5 11 -11 11 -5 0 -7 5 -4 10 4 6 -21 10 -68 10 -60 0 -77 4 -91 19 -17 19
-17 20 21 24 36 3 35 4 -9 5 -41 2 -54 8 -88 41 -22 21 -40 45 -40 52 0 8 -22
22 -49 32 -49 17 -101 65 -101 92 0 8 7 18 17 23 14 9 14 11 -6 22 -18 9 -21
17 -16 37 4 19 1 29 -15 40 -17 12 -20 25 -20 85 l0 71 25 -23 c32 -30 32 -17
0 22 -26 31 -32 62 -15 73 7 4 7 12 0 25 -15 28 -12 70 4 70 8 0 18 -5 21 -10
3 -5 12 -10 18 -10 7 0 -1 10 -16 21 -26 20 -27 23 -12 39 14 15 13 18 -5 35
-41 37 -16 48 31 14 35 -25 40 -6 7 29 -17 17 -23 37 -25 75 0 29 -4 77 -8
107 -5 40 -4 51 4 40 9 -13 11 -12 11 5 0 11 -5 27 -10 35 -7 11 -4 16 13 20
17 4 23 14 25 40 4 55 10 64 28 50 12 -10 17 -11 27 -1 7 7 8 12 2 11 -37 -8
-49 37 -21 76 14 18 15 18 20 2 18 -54 21 -41 24 80 1 72 6 132 10 132 4 0 13
-9 20 -20 17 -27 36 -27 22 0 -8 16 -8 22 3 26 12 4 12 11 1 42 -16 46 -17 92
-3 129 l11 28 15 -23 c36 -53 44 -1 16 115 -15 68 -15 73 1 98 18 27 37 29 89
10 15 -6 17 -1 17 38 0 25 -7 80 -16 122 -24 116 -3 188 38 132 11 -15 24 -27
30 -27 6 0 4 8 -4 18 -33 37 -34 102 -2 102 11 0 13 6 9 21 -4 12 -4 65 0 119
7 96 7 98 34 103 27 6 27 7 23 64 -3 47 0 63 16 83 17 21 22 22 36 11 14 -12
16 -11 16 4 0 9 -7 44 -16 78 -24 92 -4 158 32 110 12 -17 13 -17 14 3 0 11
-7 41 -16 66 -16 49 -16 128 1 128 6 0 16 -18 23 -40 17 -51 48 -57 37 -7 -3
17 -17 93 -30 167 -21 119 -22 136 -9 143 29 17 34 54 18 138 -16 87 -14 107
8 62 7 -15 21 -29 32 -31 17 -4 16 -2 -3 25 -13 17 -25 56 -31 103 -6 41 -17
84 -25 97 -21 32 -20 136 1 154 15 12 18 11 28 -6 6 -10 24 -33 39 -49 23 -23
30 -27 38 -15 4 8 14 14 20 14 7 0 18 28 25 64 16 77 34 101 60 81 14 -12 18
-12 30 4 12 17 17 17 44 6 39 -16 50 -6 22 20 -26 25 -28 50 -6 92 13 25 13
32 3 39 -11 6 -10 9 3 14 16 6 15 11 -6 53 -29 59 -57 148 -100 329 -33 133
-64 213 -108 275 -16 23 -17 31 -7 50 10 18 9 23 -2 27 -8 2 -29 19 -47 37
-28 28 -33 39 -27 63 5 25 0 36 -32 72 -28 32 -33 41 -18 36 11 -3 30 -9 42
-12 21 -7 21 -5 10 19 -7 14 -17 26 -24 26 -15 0 -71 47 -83 71 -12 22 6 69
27 69 7 0 13 5 13 10 0 6 -4 10 -9 10 -22 0 -118 101 -171 179 -31 47 -77 111
-101 141 -24 30 -52 72 -61 93 -9 20 -21 37 -27 37 -5 0 -39 36 -76 81 -37 45
-83 90 -102 101 -48 29 -71 82 -88 203 -16 113 -42 177 -115 285 -41 61 -100
173 -100 191 0 6 -20 29 -44 50 -25 22 -52 59 -65 88 -12 29 -35 59 -53 73
-18 12 -80 67 -138 122 -121 114 -163 147 -240 186 -42 21 -96 70 -212 189
-86 89 -161 161 -168 161 -6 0 -78 64 -159 143 -115 111 -166 152 -222 182
-41 21 -94 57 -119 80 -25 24 -108 90 -184 148 -77 59 -193 152 -258 209 -228
195 -582 436 -1108 753 -416 251 -450 273 -450 285 0 26 -82 95 -178 151 -114
67 -393 209 -409 209 -6 0 -23 17 -38 38 -16 20 -46 56 -69 80 -32 34 -47 42
-76 42 -30 0 -39 6 -59 39 -20 32 -33 41 -82 55 -43 12 -70 27 -106 62 -55 53
-293 187 -418 235 -84 32 -109 48 -87 56 23 9 12 22 -27 33 -25 6 -42 18 -46
30 -5 15 -15 20 -39 20 -40 0 -71 21 -63 44 4 9 13 16 22 16 8 0 15 5 15 11 0
7 -12 9 -32 5 -43 -7 -109 8 -125 30 -17 23 -16 34 2 34 8 0 15 7 15 15 0 12
-16 15 -84 15 -88 0 -112 11 -80 35 11 8 17 15 14 15 -3 1 -60 5 -128 9 -69 5
-128 13 -134 19 -9 9 -6 12 11 12 31 0 61 18 61 35 0 12 -17 15 -89 15 -85 0
-90 1 -121 30 -43 40 -87 51 -162 39 -33 -5 -68 -7 -79 -4 -23 8 -25 28 -4 45
29 24 1 32 -64 19 -55 -10 -64 -10 -78 4 -15 15 -15 17 0 23 32 12 17 23 -35
26 -46 3 -53 6 -56 26 -3 18 -10 22 -45 24 -23 1 -51 2 -62 2 -11 1 -32 9 -47
19 -16 11 -54 21 -90 24 -42 4 -70 12 -84 24 -16 15 -29 18 -67 13 -44 -6 -47
-5 -66 27 l-21 34 25 8 c14 5 25 13 25 18 0 13 -44 11 -134 -6 -70 -13 -81
-14 -95 -1 -9 9 -42 26 -72 40 l-56 25 -139 -39 c-208 -56 -249 -60 -211 -21
22 24 -43 2 -104 -35 -32 -19 -77 -37 -104 -41 -47 -6 -47 -6 -35 16 19 36 3
37 -45 3 -50 -35 -65 -38 -95 -20 -14 9 -24 9 -42 0 -13 -6 -49 -21 -80 -32
-32 -12 -60 -26 -63 -31 -4 -5 -21 -9 -38 -9 -23 0 -47 -12 -82 -41 -54 -44
-60 -45 -148 -14 -58 21 -109 13 -246 -38 -50 -19 -91 -30 -91 -26 0 5 23 23
50 40 72 44 66 55 -26 51 -42 -3 -93 1 -113 7 -32 9 -43 7 -86 -14 -50 -26
-85 -32 -85 -15 0 5 9 14 20 20 26 14 27 40 1 33 -13 -3 -20 2 -25 21 -8 33
-26 33 -56 1 -23 -25 -54 -33 -64 -17 -3 5 8 16 25 26 16 9 29 26 29 37 0 10
-2 19 -5 19 -14 0 -62 -30 -79 -49 -21 -23 -70 -29 -64 -8 3 6 19 21 36 32 17
11 31 26 32 33 0 17 -9 15 -54 -11 l-40 -22 -27 28 c-19 18 -38 27 -61 27 -30
0 -33 3 -35 32 -4 50 -18 56 -64 30 -38 -22 -59 -22 -59 -1 0 5 11 15 25 21
23 10 35 38 17 38 -4 0 -37 -10 -72 -22 -45 -15 -65 -18 -68 -10 -2 7 -14 12
-26 12 -13 0 -31 9 -41 20 -14 15 -26 18 -59 14 -36 -5 -47 -2 -74 21 -29 24
-37 26 -81 20 -45 -6 -50 -5 -56 15 -14 44 -78 56 -172 33 -20 -4 -23 -1 -23
22 0 17 -5 25 -12 22 -8 -2 -12 -16 -10 -31 3 -20 0 -26 -8 -21 -7 4 -64 11
-128 16 -83 6 -126 14 -154 29 -31 16 -38 17 -38 5 0 -20 -16 -19 -116 10 -88
25 -246 35 -258 16 -3 -5 -29 -8 -57 -7 -45 1 -53 -2 -60 -21 -10 -27 -22 -29
-39 -8 -11 14 -15 14 -33 -2 -17 -16 -39 -18 -221 -15 -133 2 -215 -1 -244 -9
-32 -9 -46 -9 -55 0 -15 15 -101 14 -164 -3 l-52 -14 -34 32 c-19 17 -58 59
-87 94 -52 62 -111 105 -161 117 -26 6 -27 5 -38 -58z"/>
</g>
</svg>
