<?xml version="1.0" standalone="no"?>
<!DOCTYPE svg PUBLIC "-//W3C//DTD SVG 20010904//EN"
 "http://www.w3.org/TR/2001/REC-SVG-20010904/DTD/svg10.dtd">
<svg version="1.0" xmlns="http://www.w3.org/2000/svg"
 width="1536.000000pt" height="605.000000pt" viewBox="0 0 1536.000000 605.000000"
 preserveAspectRatio="xMidYMid meet">
<metadata>
Created by potrace 1.16, written by Peter Selinger 2001-2019
</metadata>
<g transform="translate(0.000000,605.000000) scale(0.100000,-0.100000)"
fill="#000000" stroke="none">
<path d="M2060 6036 c-14 -7 -36 -17 -50 -21 -22 -7 -23 -6 -12 8 12 14 10 15
-22 6 -20 -6 -41 -7 -47 -4 -5 4 -21 0 -34 -9 -31 -20 -46 -20 -39 -1 7 18 -9
19 -36 3 -17 -11 -22 -10 -29 1 -7 10 -12 8 -24 -9 -10 -15 -16 -17 -19 -8 -3
9 -15 6 -45 -14 -40 -26 -74 -31 -102 -13 -10 5 -22 -2 -40 -23 -29 -34 -86
-56 -188 -72 -37 -6 -110 -20 -161 -32 -81 -18 -101 -19 -146 -9 -52 12 -53
11 -87 -21 -23 -21 -69 -45 -130 -67 -52 -19 -137 -55 -189 -79 -52 -24 -113
-47 -135 -52 -22 -4 -56 -14 -75 -21 -50 -18 -209 -96 -248 -122 -196 -128
-197 -130 -196 -230 0 -40 6 -91 13 -115 10 -37 18 -46 54 -61 30 -13 44 -15
50 -7 5 8 10 6 17 -4 8 -13 10 -12 10 3 0 24 27 22 35 -3 9 -29 25 -25 25 6 0
25 2 26 40 21 24 -3 41 -1 44 7 3 7 14 1 28 -15 24 -28 66 -54 74 -46 3 2 -5
20 -16 40 -25 42 -10 60 24 28 21 -20 46 -28 46 -15 0 3 -5 14 -10 25 -10 17
-7 19 27 21 47 2 52 1 82 -8 20 -6 23 -4 18 9 -4 12 -1 17 11 17 9 0 35 7 57
14 22 8 52 12 68 9 20 -4 27 -2 27 11 0 10 9 16 24 16 14 0 27 4 31 9 3 6 76
32 163 60 211 67 232 72 231 58 0 -12 -320 -172 -342 -172 -7 0 -17 -6 -22
-13 -9 -11 -14 -8 -25 15 l-15 28 -3 -37 c-3 -33 -7 -38 -48 -54 -42 -16 -45
-16 -64 1 -19 18 -20 17 -20 -6 0 -32 -49 -58 -66 -34 -16 22 -24 18 -24 -11
0 -19 -4 -25 -15 -21 -8 4 -17 2 -20 -3 -11 -17 -23 -11 -28 13 -3 20 -5 18
-20 -14 -12 -28 -25 -38 -58 -48 -43 -13 -58 -6 -59 27 0 6 -4 12 -10 12 -5 0
-10 -16 -10 -35 0 -24 -5 -35 -15 -35 -8 0 -15 5 -15 10 0 18 -18 10 -23 -10
-8 -31 -24 -24 -31 15 -9 44 -26 36 -26 -11 0 -19 -4 -34 -10 -34 -5 0 -10 5
-10 10 0 6 -4 10 -10 10 -5 0 -10 -7 -10 -15 0 -8 -6 -13 -12 -10 -7 2 -23 -9
-36 -25 l-23 -29 20 -20 c31 -31 121 -53 219 -53 78 -1 101 4 222 45 224 76
331 95 615 108 116 5 262 13 325 18 129 9 283 -4 444 -39 187 -41 317 -97 451
-197 133 -98 225 -158 321 -207 51 -26 99 -55 108 -65 10 -11 26 -63 37 -117
11 -55 31 -118 45 -141 57 -98 289 -227 593 -330 58 -20 110 -40 115 -44 10
-9 32 -75 105 -314 91 -299 131 -460 131 -531 0 -23 7 -55 15 -70 26 -51 14
-123 -31 -190 -26 -38 -26 -38 -2 -22 37 24 85 105 104 175 17 63 17 67 -4
156 -38 159 -62 268 -62 275 0 8 52 -82 83 -143 11 -22 32 -54 47 -71 15 -17
60 -85 100 -150 40 -65 94 -140 119 -165 25 -25 63 -76 85 -113 21 -36 41 -66
43 -66 15 0 -22 103 -95 260 -9 19 -18 40 -21 45 -2 6 3 4 12 -4 15 -12 17
-11 17 8 0 14 6 21 20 21 14 0 21 9 26 34 4 24 10 33 20 29 14 -5 20 18 7 31
-4 4 -8 27 -8 51 -1 26 -9 52 -18 63 -22 24 -21 31 2 25 16 -4 19 -1 14 16 -3
12 -14 26 -25 32 -13 7 -16 14 -10 22 12 16 7 80 -7 85 -6 2 -9 8 -6 12 3 5
-4 15 -15 23 -11 7 -17 17 -13 21 11 11 13 76 2 76 -5 0 -9 4 -9 10 0 10 -16
31 -77 101 -18 20 -33 40 -33 45 0 5 -9 25 -19 45 -11 20 -16 41 -13 46 5 8
112 -11 332 -57 179 -37 350 -73 380 -79 l55 -11 0 -173 c0 -266 26 -324 250
-555 157 -163 287 -271 455 -380 505 -329 549 -363 599 -464 37 -73 37 -85 10
-174 -20 -65 -26 -73 -168 -214 -80 -81 -243 -234 -361 -342 -259 -235 -317
-296 -375 -397 -58 -100 -97 -140 -216 -218 -90 -59 -130 -80 -304 -158 -92
-41 -126 -80 -138 -158 -7 -44 2 -47 30 -9 12 16 38 37 58 47 31 14 41 15 60
5 27 -15 81 -7 140 19 22 10 63 26 90 36 28 10 79 32 115 50 36 17 83 39 105
49 39 17 39 16 -27 -46 -71 -67 -81 -89 -76 -159 l3 -44 25 43 c25 45 82 88
100 77 16 -10 46 13 143 107 73 71 92 97 128 173 55 117 99 168 99 115 0 -27
22 -70 47 -93 19 -17 20 -16 15 38 -3 42 0 63 16 94 25 47 69 175 83 240 9 42
17 53 86 106 389 302 552 452 613 565 31 58 35 73 34 138 -1 62 -6 83 -38 146
-20 41 -62 103 -94 138 -94 104 -166 203 -240 333 -7 13 -6 11 173 -132 254
-204 407 -381 463 -533 61 -168 75 -302 48 -455 -42 -233 -179 -700 -246 -840
-44 -91 -130 -185 -208 -228 -59 -32 -295 -79 -498 -99 -159 -16 -189 -29
-224 -98 -11 -22 -20 -41 -20 -44 0 -3 24 6 53 19 65 31 117 33 117 6 0 -24
33 -33 114 -31 118 3 126 2 119 -17 -7 -17 -5 -17 21 0 23 15 40 18 99 13 94
-8 90 -8 318 1 221 9 226 11 248 83 l12 40 30 -35 c34 -39 56 -47 39 -14 -15
26 -8 119 13 179 20 59 44 173 58 280 15 115 88 399 138 537 40 111 104 356
122 462 21 132 -47 289 -267 617 -168 250 -195 303 -270 531 -86 261 -144 370
-293 555 l-71 88 67 176 68 177 165 75 c91 41 216 96 279 123 62 26 122 57
132 67 22 25 168 72 221 72 32 0 39 3 34 15 -7 18 4 19 39 3 23 -10 28 -10 37
6 8 15 18 17 59 11 45 -6 49 -5 49 14 0 25 11 26 50 6 17 -9 40 -13 53 -10 13
4 47 -3 77 -15 l54 -21 -18 20 c-26 29 -9 26 66 -9 62 -29 108 -39 108 -21 0
4 38 8 85 7 60 -1 89 2 97 11 14 18 35 16 103 -7 72 -25 73 -25 77 3 4 27 32
25 90 -4 33 -17 38 -17 38 -4 0 13 7 15 37 9 21 -4 50 -13 65 -20 35 -18 48
-18 48 1 0 12 8 11 46 -6 l46 -19 -6 20 c-21 69 -21 67 12 37 26 -25 33 -27
53 -17 26 15 105 7 170 -15 39 -14 47 -14 82 0 27 11 43 13 52 5 8 -7 29 -7
63 0 29 5 59 7 67 4 9 -4 24 1 34 10 17 16 23 15 94 -9 91 -30 97 -30 97 -6 0
32 16 33 80 8 54 -22 60 -23 60 -8 0 29 10 31 61 10 28 -10 61 -19 76 -19 21
0 24 2 13 15 -7 8 -10 15 -7 15 2 0 24 -7 47 -15 59 -21 63 -19 45 15 -17 33
-12 36 25 15 34 -20 38 -19 32 10 -3 20 0 25 17 25 12 0 32 -5 43 -11 12 -7
61 -13 110 -15 73 -3 88 -1 88 11 0 18 0 18 66 -1 57 -16 110 -16 107 1 -1 6
26 11 59 13 33 1 65 5 72 9 6 4 23 6 37 5 20 -3 28 2 32 19 5 17 11 20 29 15
13 -3 54 -9 92 -13 68 -6 69 -6 63 16 -8 31 11 35 74 17 65 -20 62 -20 54 4
-9 29 12 33 70 15 68 -20 78 -19 70 5 -6 20 -4 21 44 14 45 -6 51 -5 45 10 -6
16 10 21 56 18 8 0 19 6 23 14 5 9 21 15 40 14 51 -3 57 -1 50 16 -5 15 0 16
40 12 29 -4 56 0 73 8 14 8 40 14 56 14 16 0 27 4 24 9 -10 16 19 20 68 9 53
-11 101 -4 90 14 -5 7 0 9 14 6 12 -4 22 -2 22 3 0 5 15 9 34 9 19 0 38 4 41
10 3 5 18 7 34 4 23 -5 29 -2 34 16 5 21 9 22 69 14 106 -13 113 -12 110 14
-4 27 24 30 87 7 39 -13 41 -13 41 5 0 28 13 31 60 15 39 -14 180 -18 180 -5
0 3 -7 16 -16 28 -17 25 -13 27 19 10 12 -6 37 -13 56 -15 28 -3 32 -1 27 14
-6 15 -4 15 14 -2 17 -15 23 -16 29 -6 6 9 26 11 79 6 57 -6 75 -4 93 9 15 10
44 16 77 16 47 0 53 2 42 15 -10 12 -9 15 8 15 11 0 39 -7 62 -15 50 -18 100
-20 100 -4 0 6 7 9 15 5 8 -3 15 -2 15 3 0 4 30 7 68 6 56 -2 70 1 83 18 15
19 16 19 90 -2 93 -26 89 -26 89 4 0 31 17 32 70 5 47 -24 60 -25 60 -6 0 26
15 26 69 0 61 -28 86 -31 77 -9 -7 19 -7 19 39 -1 21 -8 41 -12 44 -7 10 16
38 22 49 11 8 -8 9 -5 5 11 -6 22 12 30 19 9 3 -7 20 -13 39 -14 19 0 43 -4
53 -9 16 -7 18 -5 13 8 -5 14 3 12 44 -9 41 -20 56 -23 78 -16 17 6 46 6 72 2
36 -7 46 -6 57 8 12 15 16 15 61 -11 58 -32 71 -34 71 -7 0 27 22 25 59 -6 23
-19 31 -22 31 -10 0 27 20 28 51 2 35 -29 65 -35 55 -10 -4 12 1 10 23 -5 34
-25 41 -26 41 -7 0 9 7 13 20 11 11 -2 20 1 20 8 0 8 3 8 12 -1 18 -18 35 -14
42 11 l6 22 23 -26 c12 -15 36 -29 52 -33 17 -4 38 -9 47 -12 13 -4 15 0 11
17 -5 18 0 16 41 -15 49 -37 62 -42 68 -27 2 6 27 4 62 -4 41 -10 63 -11 75
-3 13 8 28 3 66 -21 48 -30 50 -31 57 -11 10 26 21 25 55 -4 25 -22 29 -22 40
-7 10 14 15 13 45 -16 37 -36 64 -44 54 -16 -6 14 -3 14 16 -3 39 -36 44 -35
40 7 -5 45 4 51 19 12 10 -26 11 -27 24 -10 18 25 72 14 98 -20 20 -24 58 -29
84 -10 8 5 18 1 30 -12 21 -25 33 -27 33 -6 0 8 5 15 10 15 18 0 11 19 -21 55
-38 43 -94 75 -194 110 -27 10 -57 23 -65 30 -8 7 -33 16 -55 20 -38 6 -87 24
-129 47 -10 5 -35 12 -55 14 -50 6 -94 15 -106 23 -8 5 -63 17 -162 35 -12 2
-27 7 -34 12 -12 7 -33 11 -90 18 -14 1 -30 5 -35 8 -5 3 -40 11 -79 17 -38 7
-85 17 -103 22 -17 6 -41 7 -53 4 -11 -4 -26 -2 -33 4 -8 6 -33 13 -57 15 -70
6 -129 18 -129 25 0 4 -30 9 -67 10 -114 6 -118 6 -130 14 -13 9 -247 19 -445
20 -76 1 -138 5 -138 10 0 4 -15 5 -34 2 -48 -10 -228 -9 -311 0 -80 9 -154
10 -161 2 -3 -3 -19 -1 -35 3 -16 5 -42 5 -58 0 -16 -4 -32 -5 -36 -2 -6 6
-272 5 -375 -2 -30 -2 -98 -7 -150 -10 -52 -4 -111 -9 -130 -13 -19 -3 -51 -7
-70 -8 -45 -4 -118 -12 -200 -24 -37 -5 -70 -5 -76 0 -6 5 -13 6 -17 3 -9 -9
-76 -23 -142 -30 -33 -3 -71 -11 -85 -16 -14 -5 -61 -11 -105 -13 -85 -4 -266
-16 -325 -21 -19 -2 -99 -6 -178 -8 -78 -3 -150 -9 -160 -14 -9 -5 -28 -6 -42
-2 -14 4 -33 3 -44 -2 -12 -7 -22 -6 -29 1 -7 7 -16 7 -31 -1 -30 -16 -426
-13 -426 3 0 4 -33 7 -73 7 -41 -1 -90 5 -111 12 -20 6 -43 9 -51 6 -7 -2 -15
0 -17 6 -4 10 -49 16 -140 20 -27 1 -48 5 -48 10 0 5 -12 8 -27 7 -16 -1 -41
1 -58 4 -16 4 -52 9 -80 11 -78 6 -205 26 -260 41 -27 8 -99 22 -160 31 -60 9
-125 18 -142 21 -18 3 -33 9 -33 14 0 5 -22 9 -50 9 -51 0 -126 15 -170 33
-14 6 -36 11 -50 12 -47 4 -205 38 -216 46 -6 5 -14 6 -17 3 -3 -4 -26 4 -51
16 -25 12 -64 23 -88 25 -24 2 -54 7 -68 10 -14 3 -52 8 -85 11 -33 3 -77 12
-98 20 -21 8 -49 11 -63 8 -13 -3 -30 -1 -38 5 -8 6 -44 14 -80 18 -37 3 -69
10 -72 14 -3 5 -16 9 -30 9 -13 0 -24 4 -24 9 0 5 -20 9 -45 9 -45 0 -131 17
-170 33 -11 4 -45 13 -75 19 -30 7 -63 16 -72 21 -10 5 -33 9 -51 9 -18 0 -58
9 -90 20 -31 11 -69 20 -85 20 -15 0 -37 7 -48 15 -10 8 -33 15 -51 15 -17 0
-35 5 -38 10 -4 6 -10 8 -15 5 -5 -3 -17 -1 -27 4 -10 5 -46 15 -80 22 -34 7
-60 16 -58 19 2 4 -39 12 -91 20 -52 7 -97 16 -99 21 -3 4 -22 8 -43 8 -20 0
-68 5 -107 12 -38 6 -83 13 -100 14 -16 2 -37 5 -45 8 -8 3 -22 6 -30 6 -72 5
-162 21 -175 32 -6 4 -50 6 -98 3 -53 -2 -87 0 -87 6 0 6 -9 6 -23 1 -28 -11
-128 -8 -177 6 -19 5 -146 9 -282 9 -137 -1 -248 3 -248 8 0 4 -11 5 -24 2
-13 -3 -88 -8 -166 -11 -79 -3 -147 -8 -152 -11 -19 -12 -147 -16 -298 -9 -59
3 -162 -9 -200 -23 -28 -10 -40 -10 -40 -1 0 6 -7 6 -17 1 -18 -10 -148 -27
-170 -23 -6 1 -14 -3 -18 -8 -3 -6 -12 -8 -19 -5 -15 6 -173 -20 -226 -37 -19
-6 -55 -15 -80 -20 -87 -16 -165 -34 -175 -40 -5 -4 -21 -5 -35 -4 -14 1 -33
-1 -42 -6 -10 -5 -18 -5 -20 1 -2 6 -22 4 -51 -5 -34 -10 -61 -12 -95 -6 -26
5 -73 8 -105 7 -43 -1 -56 2 -53 11 4 9 -5 13 -30 13 -36 0 -101 27 -90 37 6
7 -17 22 -71 48 -19 8 -30 20 -27 28 2 7 -8 17 -26 24 -20 8 -28 16 -24 26 3
9 -8 25 -30 42 -20 15 -36 32 -36 38 0 5 -16 29 -35 53 -19 23 -35 47 -35 52
0 6 -16 20 -36 32 -19 12 -33 24 -31 27 10 9 -45 53 -66 53 -22 1 -22 1 1 14
l24 13 -32 13 c-21 9 -29 18 -25 28 7 18 -11 32 -40 32 -34 1 -51 16 -37 33
10 12 8 16 -10 21 -13 3 -33 6 -45 6 -24 0 -31 14 -13 25 22 14 -4 25 -56 25
-37 0 -54 4 -54 13 0 8 -16 13 -47 15 -26 1 -51 6 -57 12 -13 13 -36 12 -66
-4z m3563 -5206 c-3 -12 -8 -19 -11 -16 -5 6 5 36 12 36 2 0 2 -9 -1 -20z"/>
</g>
</svg>
