<?xml version="1.0" standalone="no"?>
<!DOCTYPE svg PUBLIC "-//W3C//DTD SVG 20010904//EN"
 "http://www.w3.org/TR/2001/REC-SVG-20010904/DTD/svg10.dtd">
<svg version="1.0" xmlns="http://www.w3.org/2000/svg"
 width="1536.000000pt" height="1144.000000pt" viewBox="0 0 1536.000000 1144.000000"
 preserveAspectRatio="xMidYMid meet">
<metadata>
Created by potrace 1.16, written by Peter Selinger 2001-2019
</metadata>
<g transform="translate(0.000000,1144.000000) scale(0.100000,-0.100000)"
fill="#000000" stroke="none">
<path d="M8110 11433 c-37 -4 -225 -33 -370 -58 -106 -18 -146 -24 -188 -29
-18 -3 -39 -10 -47 -16 -8 -7 -20 -10 -27 -7 -7 2 -21 0 -31 -5 -10 -5 -32
-11 -50 -14 -18 -3 -39 -7 -47 -8 -8 -1 -26 -6 -38 -10 -13 -4 -34 -9 -45 -11
-55 -8 -131 -26 -141 -33 -6 -5 -23 -9 -38 -10 -15 -1 -81 -19 -145 -41 -65
-21 -158 -49 -208 -60 -316 -74 -417 -101 -470 -126 -33 -15 -67 -29 -75 -31
-86 -22 -286 -89 -365 -123 -11 -5 -60 -22 -110 -39 -49 -16 -115 -40 -145
-52 -30 -12 -80 -30 -110 -40 -63 -21 -258 -106 -274 -119 -6 -5 -36 -19 -66
-31 -57 -22 -221 -103 -371 -183 -102 -54 -104 -55 -194 -96 -38 -18 -79 -38
-90 -44 -48 -26 -136 -67 -145 -67 -6 0 -10 -4 -10 -10 0 -5 -5 -10 -11 -10
-20 0 -213 -102 -249 -131 -19 -16 -41 -29 -48 -29 -20 0 -172 -120 -172 -136
0 -4 -16 -32 -36 -62 -30 -44 -104 -239 -104 -272 0 -9 59 -98 92 -139 13 -15
64 -50 113 -76 l90 -48 -37 37 c-21 20 -47 55 -57 77 -19 39 -19 39 1 50 17 9
23 8 31 -6 25 -45 120 -116 135 -100 8 8 -21 87 -34 92 -15 5 -12 35 4 41 7 2
37 -20 68 -50 92 -87 101 -86 59 8 -14 32 -23 60 -20 63 7 6 39 -12 89 -53 45
-35 55 -28 27 17 -27 44 -26 55 3 63 20 5 34 -3 72 -40 62 -62 85 -62 44 -1
-27 41 -25 62 5 67 26 5 41 -7 88 -72 l17 -25 -3 45 c-2 25 -7 52 -11 61 -14
31 22 30 53 -2 32 -32 45 -26 45 21 1 21 5 25 31 23 17 -1 42 -4 56 -8 22 -6
26 -4 25 17 -1 17 5 24 22 26 16 3 34 -10 67 -45 48 -52 62 -41 25 19 -26 43
-25 45 8 40 18 -2 36 -16 51 -38 13 -19 28 -34 33 -34 5 0 8 21 7 48 -3 41 -1
47 17 50 16 2 25 -5 34 -28 15 -36 19 -34 30 16 6 26 5 41 -2 45 -7 4 5 11 26
14 28 6 41 3 56 -10 21 -19 53 -9 64 21 5 14 12 11 43 -20 53 -53 66 -46 42
23 -12 34 -7 45 27 55 16 5 25 -2 42 -33 19 -34 39 -51 59 -51 5 0 -1 33 -14
67 -4 13 1 11 24 -9 36 -34 57 -37 50 -5 -3 12 -9 34 -12 49 -7 26 -4 25 40
-19 47 -46 48 -46 41 -17 -19 79 -5 91 39 35 32 -41 63 -66 72 -57 3 3 1 11
-5 18 -5 7 -15 30 -20 51 -9 32 -8 38 8 47 27 14 28 14 50 -30 26 -51 45 -43
36 16 -3 25 -2 44 4 44 5 0 32 -23 60 -50 54 -55 56 -53 38 17 -10 41 -9 47 7
59 29 21 43 17 50 -16 4 -16 10 -32 15 -35 11 -7 31 29 40 70 8 41 34 43 56 6
28 -47 50 -41 45 12 -2 16 20 47 33 47 3 0 6 -7 6 -16 0 -8 6 -22 14 -29 12
-12 16 -12 26 0 7 8 10 21 7 29 -7 19 18 40 38 32 9 -3 21 -19 28 -35 12 -28
13 -29 25 -11 7 11 12 33 12 50 0 42 32 41 53 -2 l16 -33 17 40 c19 47 14 41
41 49 19 6 23 2 29 -21 9 -38 32 -73 48 -73 11 0 12 8 4 40 -22 85 24 98 65
18 l27 -53 -2 60 c-3 54 -1 60 18 63 16 2 25 -7 39 -38 21 -46 31 -42 43 15 9
45 30 53 48 17 10 -21 11 -21 27 -4 10 10 17 26 17 34 0 9 8 18 19 21 14 3 23
-6 39 -44 26 -62 47 -66 38 -6 -3 23 -2 49 4 57 7 12 12 8 21 -18 9 -26 14
-30 24 -22 8 6 15 21 17 33 4 28 35 34 54 10 13 -17 14 -17 20 5 10 35 42 28
46 -10 l3 -33 30 42 30 42 68 1 c114 0 178 -43 140 -94 -15 -21 -88 -66 -106
-66 -3 0 -7 8 -10 18 -2 12 -9 6 -22 -23 -11 -22 -21 -42 -22 -44 -1 -2 -9 2
-18 9 -12 10 -15 10 -16 -1 -1 -8 -4 -3 -8 11 -6 21 -9 16 -14 -27 -5 -37 -13
-56 -27 -63 -15 -8 -20 -6 -25 11 -9 28 -28 19 -41 -21 -6 -19 -17 -36 -24
-38 -7 -3 -10 0 -6 6 3 6 -1 17 -9 26 -9 8 -16 31 -17 51 -2 52 -15 22 -25
-55 -8 -61 -9 -63 -37 -65 -15 0 -34 -9 -42 -19 -8 -12 -21 -17 -34 -13 -13 3
-27 -2 -38 -13 -25 -26 -57 -33 -71 -16 -7 8 -10 20 -6 26 10 17 -11 11 -26
-7 -8 -9 -13 -18 -11 -20 8 -11 0 -33 -13 -33 -8 0 -15 9 -15 20 0 11 -4 20
-10 20 -5 0 -10 -18 -10 -41 0 -38 -1 -40 -27 -37 -22 2 -29 9 -33 33 l-6 30
-16 -31 c-10 -17 -14 -41 -11 -52 6 -26 -4 -28 -29 -6 -14 14 -20 14 -33 4 -8
-7 -15 -19 -15 -26 0 -8 -7 -14 -15 -14 -8 0 -15 7 -15 16 0 9 -6 14 -12 11
-7 -2 -13 -15 -13 -28 0 -40 -53 -31 -67 12 -6 19 -47 -8 -59 -38 -7 -20 -12
-23 -23 -14 -14 12 -27 2 -39 -29 -4 -11 -7 -9 -12 8 -4 12 -11 22 -16 22 -12
0 -29 -35 -29 -59 0 -12 -4 -21 -10 -21 -5 0 -10 9 -10 20 0 14 -5 18 -17 13
-10 -4 -21 -11 -25 -17 -5 -7 -8 -6 -8 3 0 11 -5 10 -20 -4 -11 -10 -20 -28
-20 -40 0 -13 -7 -25 -15 -29 -8 -3 -15 -1 -15 5 0 6 -7 18 -16 26 -8 9 -13
24 -11 34 3 11 2 19 -3 19 -8 0 -27 -43 -32 -75 -3 -16 -6 -14 -20 14 -15 32
-17 32 -27 14 -5 -11 -8 -36 -5 -55 5 -27 2 -37 -10 -41 -9 -4 -16 -1 -16 6
-1 19 -51 52 -59 38 -4 -6 -15 -9 -23 -6 -20 8 -27 -3 -37 -57 l-8 -43 -18 40
c-16 38 -18 39 -32 20 -8 -11 -13 -34 -11 -52 4 -37 -9 -47 -37 -27 -27 20
-32 18 -39 -18 l-7 -33 -24 28 -24 27 -14 -27 c-10 -19 -12 -36 -6 -50 11 -30
-2 -29 -39 2 -26 21 -31 23 -42 10 -7 -8 -13 -26 -14 -40 -1 -29 -17 -32 -52
-8 -22 14 -27 14 -35 2 -5 -8 -9 -24 -9 -36 0 -28 -36 -32 -56 -5 -13 16 -15
16 -33 -6 -11 -12 -21 -28 -24 -35 -3 -9 -7 -9 -18 0 -12 10 -25 6 -67 -22
-58 -39 -65 -41 -82 -20 -11 13 -15 13 -41 -1 -16 -8 -29 -21 -29 -30 0 -25
-30 -28 -55 -4 -28 26 -49 18 -42 -16 5 -30 -6 -31 -26 -1 l-15 22 -16 -37
c-18 -41 -32 -54 -39 -36 -3 8 -21 -3 -49 -29 -49 -48 -78 -54 -101 -20 l-15
22 -20 -25 c-12 -14 -21 -33 -22 -43 0 -14 -4 -16 -19 -8 -14 8 -23 5 -40 -10
-11 -11 -21 -26 -21 -33 0 -8 -6 -18 -13 -24 -10 -9 -17 -4 -31 19 -15 26 -20
29 -32 17 -7 -7 -16 -27 -20 -43 -5 -26 3 -42 51 -107 50 -69 66 -83 142 -124
l86 -47 106 -1 c81 0 125 5 186 23 44 12 87 24 95 26 126 28 230 63 230 76 0
5 9 9 20 9 12 0 33 6 48 14 15 7 36 12 47 10 10 -1 24 1 30 5 5 4 57 25 115
45 118 43 127 46 190 74 25 11 68 28 95 37 28 9 62 25 77 35 15 11 31 20 35
20 4 0 46 18 93 41 95 47 108 53 235 102 146 56 226 85 300 107 39 11 104 32
145 45 41 13 91 26 110 30 19 3 44 10 55 15 11 4 47 13 80 20 33 7 87 21 120
31 33 11 80 22 104 25 24 3 55 10 68 15 13 5 35 9 48 9 12 0 42 9 66 20 24 10
48 15 52 11 11 -11 52 -1 155 38 121 45 183 42 517 -25 140 -28 356 -96 472
-149 90 -42 140 -76 229 -158 121 -113 163 -250 113 -374 -12 -32 -28 -67 -36
-78 -7 -11 -13 -32 -13 -48 0 -16 -10 -38 -24 -52 -14 -13 -27 -34 -31 -45 -3
-11 -10 -20 -15 -20 -5 0 -11 -9 -15 -19 -10 -33 -105 -185 -120 -194 -8 -4
-15 -13 -15 -19 0 -13 -74 -112 -108 -145 -12 -12 -25 -36 -28 -53 -4 -17 -13
-30 -21 -30 -8 0 -11 -4 -8 -10 3 -5 2 -10 -4 -10 -13 0 -26 -14 -106 -120
-38 -51 -89 -113 -113 -139 -23 -25 -45 -58 -48 -72 -3 -15 -17 -32 -30 -40
-13 -7 -24 -19 -24 -27 0 -7 -16 -32 -35 -54 -19 -22 -33 -44 -32 -48 1 -5
-14 -30 -35 -58 -20 -27 -50 -73 -66 -103 -16 -30 -71 -126 -122 -214 -118
-203 -171 -310 -210 -424 -35 -105 -39 -165 -12 -182 18 -11 18 -15 -12 -88
l-30 -76 2 -195 c0 -107 4 -205 7 -217 l5 -21 82 25 c46 14 99 33 118 43 19
10 66 33 104 51 41 21 80 49 99 72 17 21 39 37 51 37 56 0 92 19 171 88 6 5
26 27 45 48 19 22 60 67 90 100 153 168 197 225 325 424 75 116 255 464 255
493 0 5 11 33 24 61 80 171 82 178 146 541 12 65 28 128 36 139 8 11 14 30 14
42 0 23 64 153 84 169 7 6 18 24 25 42 7 17 21 39 32 49 10 9 19 21 19 26 0 9
23 35 52 57 15 11 22 10 45 -9 63 -50 171 -148 213 -195 25 -27 74 -80 110
-117 111 -114 189 -201 229 -256 22 -30 58 -72 80 -94 23 -22 41 -44 41 -49 0
-5 3 -9 8 -9 4 0 13 -13 20 -29 7 -15 34 -50 60 -77 56 -58 103 -122 134 -184
12 -25 25 -47 29 -50 16 -13 48 -91 59 -148 7 -34 16 -62 20 -62 4 0 7 -6 8
-12 8 -90 11 -110 19 -120 6 -7 14 -31 18 -53 5 -22 10 -47 13 -55 3 -8 5
-116 4 -240 0 -195 -7 -295 -26 -375 -69 -302 -79 -335 -136 -445 -132 -255
-120 -238 -170 -246 -25 -4 -56 -8 -70 -9 -14 -1 -83 -10 -155 -20 -147 -19
-182 -22 -420 -29 -93 -4 -183 -8 -200 -10 -16 -3 -109 -10 -205 -16 -96 -6
-211 -16 -255 -21 -44 -5 -118 -14 -165 -19 -122 -14 -345 -73 -463 -123 -113
-47 -281 -143 -330 -187 l-32 -28 107 -52 107 -52 78 20 c43 11 123 28 178 37
55 9 116 20 135 25 19 5 71 12 115 16 125 10 685 6 714 -5 14 -5 46 -12 71
-15 75 -10 94 -14 120 -24 24 -9 24 -10 5 -17 -18 -7 -86 -37 -127 -57 -10 -4
-22 -8 -28 -8 -6 0 -45 -15 -88 -34 -76 -34 -338 -124 -377 -130 -11 -2 -56
-15 -100 -29 -44 -14 -96 -28 -115 -31 -20 -3 -51 -12 -70 -20 -34 -14 -199
-47 -250 -50 -14 -1 -30 -5 -36 -9 -7 -4 -23 -7 -35 -6 -13 0 -44 -2 -69 -5
-59 -7 -132 -14 -200 -21 -126 -11 -176 -18 -187 -27 -6 -5 -69 -11 -139 -14
-70 -3 -135 -9 -143 -13 -26 -13 -772 0 -871 15 -72 10 -538 26 -912 31 -319
4 -411 2 -525 -12 -76 -9 -194 -21 -263 -26 -131 -11 -172 -15 -230 -24 -19
-3 -71 -9 -115 -15 -44 -5 -125 -19 -180 -31 -55 -12 -109 -23 -120 -24 -11
-2 -29 -6 -40 -8 -11 -3 -60 -15 -110 -26 -49 -12 -124 -30 -165 -41 -41 -11
-98 -22 -126 -24 -28 -3 -73 -12 -100 -20 -175 -58 -426 -141 -524 -174 -63
-22 -137 -44 -163 -51 -27 -6 -65 -19 -85 -28 -20 -9 -44 -17 -53 -18 -9 -1
-27 -12 -40 -24 -19 -18 -50 -27 -62 -18 -2 1 -12 -5 -22 -13 -10 -8 -27 -14
-38 -12 -10 2 -16 -1 -13 -6 6 -11 -16 -22 -44 -22 -9 0 -23 -7 -30 -15 -7 -8
-22 -15 -34 -15 -28 0 -94 -24 -108 -38 -7 -7 -19 -12 -28 -12 -27 0 -111 -36
-103 -45 5 -4 2 -5 -5 -1 -6 4 -19 0 -27 -8 -9 -8 -22 -13 -30 -10 -8 3 -40
-9 -72 -27 -32 -19 -64 -34 -71 -35 -8 -2 -22 -10 -31 -18 -10 -9 -23 -16 -29
-16 -7 0 -20 -4 -30 -9 -9 -6 -42 -22 -72 -36 -68 -33 -137 -70 -154 -84 -7
-6 -29 -12 -50 -15 -23 -3 -47 -14 -61 -30 -16 -17 -30 -24 -41 -19 -14 5 -16
3 -10 -13 5 -15 4 -16 -5 -7 -14 14 -59 -3 -59 -24 0 -7 -11 -13 -24 -13 -14
0 -28 -5 -31 -10 -4 -6 -28 -21 -55 -35 -27 -13 -65 -36 -85 -50 -21 -13 -41
-22 -46 -19 -16 9 -170 -85 -267 -163 -29 -24 -59 -43 -67 -43 -8 0 -15 -7
-15 -16 0 -10 -6 -14 -15 -10 -8 3 -14 0 -12 -6 1 -7 -6 -12 -15 -13 -18 0
-102 -69 -183 -150 -27 -27 -59 -55 -70 -60 -14 -8 -24 -33 -37 -100 -10 -50
-16 -101 -13 -114 6 -23 8 -24 73 -16 108 13 238 9 295 -9 62 -20 69 -26 125
-93 35 -43 41 -56 33 -71 -6 -11 -9 -32 -8 -47 1 -16 -4 -30 -12 -33 -8 -3
-11 0 -7 7 4 6 2 11 -3 11 -14 0 -14 -17 0 -25 12 -8 -11 -47 -48 -81 -13 -12
-21 -28 -17 -37 6 -17 -11 -32 -21 -17 -3 5 -13 10 -21 10 -11 0 -13 -6 -9
-21 5 -14 0 -28 -12 -42 -11 -12 -32 -44 -48 -72 -16 -27 -32 -52 -36 -55 -4
-3 -12 -17 -18 -32 -8 -22 -7 -28 7 -31 16 -4 16 -5 0 -6 -15 -1 -57 -61 -43
-61 3 0 -9 -14 -25 -32 -38 -40 -85 -137 -144 -299 -25 -68 -56 -155 -70 -193
-14 -39 -23 -72 -21 -74 3 -3 0 -11 -6 -18 -6 -8 -9 -20 -6 -27 3 -7 -3 -19
-13 -25 -11 -6 -18 -19 -18 -29 2 -26 -25 -111 -53 -165 -5 -10 -9 -23 -9 -29
0 -6 -22 -57 -50 -113 -79 -161 -121 -341 -151 -632 -16 -168 -8 -219 48 -302
75 -111 69 -108 155 -87 75 19 85 26 174 125 45 51 123 169 130 196 4 13 10
24 14 24 5 0 23 24 40 52 18 29 49 72 69 94 51 59 93 119 131 189 19 33 71
114 117 180 46 66 97 140 113 165 15 25 49 70 74 100 97 116 126 155 155 210
17 32 38 63 46 70 8 7 15 18 15 26 0 7 6 17 13 21 16 9 62 63 187 215 47 56
112 130 146 163 33 33 107 110 164 170 150 160 303 317 331 340 13 11 63 52
109 91 47 40 99 80 117 90 18 11 77 54 133 97 55 42 104 77 108 77 4 0 34 20
67 45 33 25 64 45 68 45 5 0 54 30 110 67 115 77 148 97 196 119 19 9 49 27
66 40 18 13 41 24 53 24 12 0 25 6 29 14 4 7 23 21 41 30 17 9 32 21 32 26 0
9 41 24 80 29 6 0 10 7 10 15 0 8 16 16 42 20 24 4 47 15 55 26 10 14 22 19
39 16 14 -3 27 1 32 10 9 16 103 53 215 85 37 11 75 23 85 28 40 20 94 41 106
41 11 0 45 14 96 39 8 4 35 8 60 10 24 2 56 9 70 16 14 7 41 12 60 10 19 -1
46 2 60 7 49 19 141 31 479 63 125 12 685 28 826 24 11 0 101 -2 200 -4 175
-3 257 -11 360 -35 50 -12 131 -13 813 -8 177 2 322 0 322 -3 0 -4 10 -7 23
-7 57 1 206 -12 237 -20 20 -5 96 -10 170 -11 74 -1 162 -4 195 -7 33 -2 137
-6 232 -8 94 -2 177 -7 184 -12 11 -6 203 -11 764 -16 99 -1 315 2 480 6 614
14 566 15 559 -7 -5 -17 -90 -185 -137 -272 -9 -16 -37 -75 -62 -130 -38 -81
-47 -112 -48 -162 -3 -93 8 -100 124 -86 98 13 162 40 234 98 22 18 65 47 95
66 30 18 64 41 74 51 11 10 26 18 33 18 7 0 13 4 13 8 0 5 20 19 45 32 50 25
147 105 139 113 -3 3 3 8 14 11 11 4 23 13 26 21 3 8 11 15 18 15 16 0 61 49
95 102 13 21 29 38 36 38 11 0 24 18 68 92 9 15 27 42 41 60 35 47 115 217
127 270 6 24 17 57 26 74 8 16 15 37 15 46 0 9 12 26 28 38 15 12 56 49 92 83
36 34 92 85 125 112 33 28 137 127 230 220 129 129 177 185 198 227 23 46 135
208 177 256 6 7 35 56 64 110 29 53 69 125 89 159 19 34 38 71 42 82 3 12 11
21 16 21 6 0 8 4 4 9 -3 5 -1 12 4 15 8 5 116 221 186 374 16 34 33 62 37 62
4 0 8 7 8 15 0 8 5 15 11 15 6 0 8 8 4 19 -3 11 -1 22 5 26 6 4 9 13 6 20 -3
8 11 51 31 97 36 83 83 243 83 284 0 12 7 40 15 64 8 23 24 107 36 186 11 80
27 160 35 179 17 41 18 87 3 102 -7 7 -7 31 -2 74 12 88 7 455 -8 559 -6 47
-18 100 -25 119 -18 42 -18 75 0 90 10 8 24 5 57 -13 72 -40 216 -82 354 -105
126 -21 216 -43 263 -67 33 -17 135 -3 164 23 10 9 25 12 38 8 65 -21 134 5
147 54 10 38 -4 166 -22 200 -15 29 -15 33 1 48 20 21 15 81 -15 171 -12 34
-21 68 -21 77 0 8 -4 15 -10 15 -5 0 -7 6 -4 14 3 8 -2 26 -12 41 -11 17 -17
43 -16 69 3 51 -39 199 -67 237 -12 16 -21 32 -21 37 0 12 -95 155 -146 220
-55 70 -49 61 -109 151 -108 158 -273 305 -470 418 -73 42 -150 80 -175 88
-30 8 -145 51 -180 67 -30 13 -33 14 -85 23 -22 4 -43 11 -46 17 -3 5 -10 9
-14 8 -4 0 -16 21 -25 48 -16 45 -46 100 -61 112 -4 3 -35 60 -69 127 -35 67
-77 136 -94 154 -17 18 -39 49 -50 68 -10 20 -27 47 -38 61 -10 14 -39 57 -63
95 -105 167 -199 290 -215 280 -8 -5 -56 46 -52 58 1 4 -3 7 -8 7 -6 0 -10 6
-10 13 0 19 -46 60 -62 55 -7 -3 -45 25 -84 62 -88 83 -235 180 -439 290 -44
24 -103 58 -132 77 -28 18 -57 33 -63 33 -14 0 -84 31 -301 133 -64 30 -147
66 -185 80 -73 27 -179 69 -229 92 -16 7 -54 23 -82 35 -30 13 -50 27 -46 33
4 6 -3 8 -19 4 -14 -4 -28 -4 -32 0 -4 4 -12 8 -19 9 -7 1 -46 14 -87 29 -82
29 -192 55 -255 60 -22 1 -40 4 -40 5 0 1 -22 4 -50 6 -173 12 -214 15 -245
18 -99 11 -284 16 -655 18 l-410 1 -26 24 c-14 13 -41 26 -60 29 -59 8 -123
11 -159 7z"/>
</g>
</svg>
