<?xml version="1.0" standalone="no"?>
<!DOCTYPE svg PUBLIC "-//W3C//DTD SVG 20010904//EN"
 "http://www.w3.org/TR/2001/REC-SVG-20010904/DTD/svg10.dtd">
<svg version="1.0" xmlns="http://www.w3.org/2000/svg"
 width="1536.000000pt" height="592.000000pt" viewBox="0 0 1536.000000 592.000000"
 preserveAspectRatio="xMidYMid meet">
<metadata>
Created by potrace 1.16, written by Peter Selinger 2001-2019
</metadata>
<g transform="translate(0.000000,592.000000) scale(0.100000,-0.100000)"
fill="#000000" stroke="none">
<path d="M7005 5909 c-451 -34 -921 -152 -1215 -306 -159 -83 -276 -165 -553
-387 -302 -242 -458 -348 -632 -431 -220 -106 -377 -148 -620 -167 -100 -7
-183 -8 -250 -2 l-100 9 -3 38 c-2 25 11 78 40 160 l42 122 7 260 c4 143 10
273 14 288 6 23 0 38 -34 87 -23 32 -55 86 -71 119 -28 55 -34 61 -61 61 -18
0 -56 15 -91 37 -51 31 -69 37 -113 37 -79 -2 -127 -31 -251 -151 -99 -97
-113 -115 -133 -173 -44 -123 -129 -286 -286 -545 -87 -143 -184 -313 -215
-379 -41 -83 -67 -124 -87 -136 -15 -9 -68 -57 -118 -106 -109 -108 -169 -141
-505 -279 -298 -122 -425 -189 -680 -355 -250 -164 -400 -241 -534 -275 -114
-29 -177 -31 -296 -10 -86 15 -215 20 -244 9 -11 -4 -16 -19 -16 -49 0 -40 4
-47 62 -100 168 -151 389 -180 736 -95 64 16 243 69 397 118 154 49 295 93
312 97 l33 7 0 -106 c0 -57 -4 -116 -10 -130 -9 -25 -12 -26 -102 -26 -122 0
-165 -21 -279 -131 -59 -57 -121 -104 -194 -148 -137 -81 -176 -116 -209 -190
-63 -141 -88 -380 -47 -459 11 -21 27 -79 35 -128 25 -142 54 -243 96 -329 82
-170 319 -445 431 -499 30 -14 78 -29 107 -33 48 -5 52 -4 61 19 5 14 13 59
16 99 11 121 21 146 66 175 23 14 67 45 99 68 67 50 226 121 390 177 215 73
353 44 376 -77 10 -53 -28 -159 -85 -240 -81 -116 -150 -149 -372 -179 -64 -8
-140 -22 -169 -31 l-53 -16 49 -49 c168 -171 529 -197 811 -59 174 86 227 174
413 691 53 145 114 295 143 349 101 188 114 221 152 390 45 199 66 259 109
304 56 60 122 57 372 -18 67 -20 119 -27 300 -36 351 -18 436 -41 524 -137 28
-30 98 -128 157 -216 79 -121 129 -185 197 -252 108 -107 169 -143 433 -259
178 -78 328 -162 367 -205 17 -18 16 -20 -26 -49 -56 -40 -162 -149 -281 -292
-116 -140 -152 -175 -242 -237 -38 -26 -77 -61 -86 -78 -10 -16 -25 -73 -34
-125 -9 -52 -24 -108 -34 -125 -25 -44 -84 -72 -212 -100 -62 -14 -123 -32
-134 -39 -42 -27 -76 -239 -41 -252 8 -3 61 2 118 10 56 9 132 17 167 19 63 2
64 2 74 -28 16 -49 26 -55 86 -55 58 0 122 25 218 85 l42 26 11 -22 c16 -29
75 -52 99 -39 11 5 30 31 43 57 20 43 23 63 24 177 l0 129 68 49 c37 27 145
97 239 155 270 166 344 220 458 333 122 120 181 211 225 346 22 68 30 84 43
79 9 -4 45 -15 81 -25 90 -25 112 -35 133 -57 27 -30 236 -686 287 -899 25
-106 60 -307 60 -346 0 -52 -43 -81 -245 -164 -92 -37 -133 -76 -150 -139 -7
-28 -11 -53 -9 -56 2 -3 29 -2 61 3 80 13 207 4 275 -20 l56 -20 29 30 c15 16
82 62 147 101 114 68 201 139 223 181 10 19 11 18 42 -3 41 -29 70 -24 98 18
39 57 58 139 44 186 -69 241 -81 319 -111 743 -21 297 -41 466 -64 567 -8 33
-13 61 -12 62 13 14 143 24 241 20 94 -4 157 -14 290 -46 222 -53 296 -63 437
-59 l116 3 69 -66 c123 -119 296 -215 532 -294 82 -28 127 -48 129 -58 5 -26
-36 -95 -86 -145 -26 -26 -90 -80 -142 -121 -52 -41 -105 -86 -117 -100 -21
-26 -21 -29 -6 -92 28 -121 3 -207 -110 -372 -75 -110 -107 -187 -114 -274 -6
-69 9 -106 47 -118 32 -10 66 18 115 95 25 39 49 70 53 70 5 0 17 -7 28 -15
10 -8 36 -15 56 -15 33 0 43 7 103 74 76 84 106 101 171 93 44 -5 45 -4 60 32
8 20 51 100 96 179 44 78 94 177 111 220 27 68 31 90 33 189 2 96 5 116 22
138 118 150 368 117 680 -88 134 -88 177 -127 248 -221 37 -48 78 -91 104
-106 84 -50 124 -86 147 -131 33 -68 53 -154 53 -234 0 -67 -2 -73 -32 -102
-37 -35 -76 -56 -192 -104 -43 -17 -95 -46 -114 -63 -35 -30 -71 -96 -72 -128
0 -24 78 -32 196 -18 158 17 256 15 309 -9 25 -11 48 -27 51 -35 9 -23 44 -2
142 88 46 41 98 84 116 96 29 17 34 27 40 72 3 29 20 109 36 178 17 69 34 158
37 199 8 100 -7 126 -114 197 -105 69 -136 111 -233 310 -118 241 -171 291
-338 320 -150 26 -311 121 -439 257 -87 95 -150 189 -297 451 -65 115 -128
225 -141 244 -13 20 -21 40 -18 45 12 20 94 46 208 66 159 28 213 56 345 176
141 129 217 182 303 213 62 23 87 27 187 26 99 0 126 -4 195 -28 118 -40 210
-93 400 -228 400 -284 699 -469 1005 -622 226 -112 366 -170 715 -296 521
-188 712 -276 1160 -535 565 -327 686 -414 864 -624 54 -63 112 -100 159 -101
21 0 22 4 22 69 0 38 -4 71 -9 73 -5 2 -37 41 -72 88 -217 295 -562 619 -970
910 -79 57 -331 227 -559 378 -770 510 -959 653 -1279 967 -195 191 -331 342
-659 730 -643 760 -946 1052 -1372 1320 -254 159 -789 392 -1235 538 -767 252
-1553 364 -2200 316z"/>
</g>
</svg>
