<?xml version="1.0" standalone="no"?>
<!DOCTYPE svg PUBLIC "-//W3C//DTD SVG 20010904//EN"
 "http://www.w3.org/TR/2001/REC-SVG-20010904/DTD/svg10.dtd">
<svg version="1.0" xmlns="http://www.w3.org/2000/svg"
 width="1536.000000pt" height="389.000000pt" viewBox="0 0 1536.000000 389.000000"
 preserveAspectRatio="xMidYMid meet">
<metadata>
Created by potrace 1.16, written by Peter Selinger 2001-2019
</metadata>
<g transform="translate(0.000000,389.000000) scale(0.100000,-0.100000)"
fill="#000000" stroke="none">
<path d="M9720 3875 c-118 -17 -512 -116 -571 -144 -24 -11 -77 -38 -117 -60
-45 -24 -104 -45 -157 -56 -112 -24 -135 -39 -160 -105 -20 -53 -22 -55 -80
-73 -33 -10 -100 -24 -150 -32 -154 -25 -853 -103 -1255 -140 -414 -38 -798
-76 -1002 -100 -153 -18 -175 -18 -126 0 20 8 58 26 83 41 58 34 46 44 -50 44
-56 0 -111 -12 -263 -55 -105 -30 -217 -66 -248 -80 -31 -14 -69 -25 -85 -25
-55 0 -235 -31 -414 -71 -99 -22 -236 -51 -305 -64 -69 -13 -213 -51 -319 -84
-331 -103 -540 -139 -741 -126 -129 9 -639 72 -724 90 -86 18 -429 61 -601 75
-71 6 -157 15 -190 20 -117 17 -216 12 -321 -16 -241 -64 -287 -75 -430 -99
-83 -14 -216 -39 -295 -56 -148 -31 -244 -38 -336 -24 -42 6 -58 4 -79 -10
-21 -13 -47 -17 -123 -16 -53 0 -114 -4 -136 -10 -22 -6 -112 -14 -200 -19
-88 -4 -177 -13 -197 -19 -45 -14 -89 -53 -113 -99 -20 -40 -15 -50 10 -22 17
19 45 27 45 14 0 -4 -16 -24 -35 -45 -19 -22 -35 -49 -35 -62 1 -21 1 -21 17
4 15 24 83 67 83 53 0 -3 -9 -19 -21 -35 -24 -33 -40 -117 -21 -105 7 4 12 13
12 19 0 22 61 87 81 87 23 0 23 -7 4 -53 -26 -62 -17 -74 18 -24 27 39 37 47
65 47 30 0 32 -2 32 -37 l1 -38 20 38 c17 32 24 37 55 37 27 0 37 -5 41 -20 3
-11 10 -17 15 -14 6 4 8 -2 3 -15 -8 -26 3 -27 21 -3 12 16 13 15 14 -6 0 -13
4 -20 10 -17 6 4 10 -6 11 -22 0 -27 1 -27 11 -6 19 39 26 25 22 -39 l-5 -63
28 52 c31 60 46 68 39 21 -16 -99 -9 -111 24 -40 27 59 50 80 50 47 0 -18 16
-20 24 -2 5 9 7 9 12 0 3 -7 12 -9 20 -6 8 3 14 -1 14 -8 0 -9 13 -15 33 -16
17 -1 54 -13 81 -26 48 -23 49 -25 28 -36 -12 -6 -22 -9 -22 -6 0 4 -7 -1 -16
-9 -8 -9 -27 -19 -42 -23 -15 -3 -39 -15 -54 -26 -14 -11 -31 -16 -37 -13 -6
4 -11 0 -11 -10 0 -11 -6 -15 -20 -11 -12 3 -20 0 -20 -7 0 -6 -9 -17 -21 -24
-17 -11 -23 -11 -37 0 -13 11 -15 11 -10 -4 11 -27 -5 -31 -24 -6 l-19 23 7
-27 c7 -30 -4 -36 -25 -16 -10 11 -11 10 -6 -4 7 -18 3 -21 -47 -32 -23 -5
-31 0 -58 40 -37 53 -48 52 -26 -1 32 -75 11 -75 -60 3 -29 31 -53 52 -54 46
0 -5 16 -36 35 -68 27 -46 31 -58 19 -63 -19 -7 -40 11 -71 64 -14 24 -28 42
-31 39 -3 -3 5 -33 17 -66 12 -33 19 -65 16 -70 -8 -14 -57 12 -106 57 -21 19
-39 31 -39 26 0 -14 41 -67 75 -96 17 -14 27 -28 24 -31 -9 -10 -61 12 -87 36
-19 19 -22 19 -22 5 0 -22 34 -55 73 -72 30 -13 31 -14 7 -15 -28 0 -90 34
-90 50 0 5 -5 10 -10 10 -18 0 16 -53 55 -87 63 -56 100 -68 190 -65 44 2 424
3 845 3 844 0 1026 -8 1130 -46 36 -13 90 -32 120 -43 30 -11 147 -50 260 -87
l205 -67 80 8 c44 4 128 7 187 6 58 -2 164 4 235 14 261 34 701 -9 929 -91 52
-18 166 -72 252 -119 202 -110 270 -140 372 -166 46 -12 95 -27 109 -35 15 -7
73 -29 130 -49 125 -43 178 -74 324 -190 66 -52 143 -103 187 -124 113 -52
208 -110 275 -167 94 -79 381 -293 475 -353 47 -30 123 -87 170 -127 118 -100
133 -109 176 -102 25 4 49 0 81 -16 l45 -22 26 30 c23 28 31 30 91 30 l66 0 5
60 c3 33 9 66 13 73 5 7 29 12 55 12 48 0 92 21 92 43 0 6 -17 36 -37 66 -35
51 -38 59 -36 118 2 46 -2 71 -13 89 -25 38 -160 132 -249 173 -108 51 -421
244 -467 288 -48 47 -82 125 -75 175 8 56 42 119 95 175 l47 49 190 47 c105
25 451 96 770 156 319 61 632 124 695 139 232 58 453 133 642 218 279 125 403
161 504 147 67 -9 155 -75 387 -288 237 -219 282 -256 337 -283 50 -24 66 -27
165 -27 98 0 125 5 245 39 186 53 242 56 406 17 159 -37 223 -40 250 -10 26
29 64 47 124 60 57 12 70 28 70 89 0 45 20 71 79 102 l32 18 -3 92 c-2 65 2
103 12 126 17 38 8 60 -33 80 -14 7 -49 39 -77 72 -63 73 -73 74 -227 26 -65
-20 -151 -38 -218 -45 -130 -14 -230 -37 -380 -86 -73 -24 -137 -38 -191 -42
-76 -5 -82 -4 -103 18 -33 35 -87 153 -111 243 -21 74 -21 81 -6 113 18 38 59
66 131 89 28 9 82 39 120 66 118 83 367 223 635 357 140 70 307 155 370 188
63 34 156 77 205 96 50 19 169 65 265 102 210 81 205 80 353 110 189 39 320
50 632 49 317 0 365 -5 768 -79 177 -33 673 -142 1002 -219 300 -71 712 -128
785 -109 75 20 21 79 -120 129 -82 30 -486 181 -590 221 -208 81 -797 269
-965 309 -362 86 -638 135 -870 154 -153 12 -535 13 -685 0 -224 -18 -757 -91
-918 -126 -245 -52 -394 -66 -862 -84 -278 -11 -483 -28 -738 -60 -84 -11
-163 -20 -175 -20 -22 0 -22 1 3 21 56 45 117 74 204 96 50 13 107 32 126 42
22 11 70 21 129 25 64 5 103 14 125 27 17 10 43 19 58 19 35 0 78 20 78 35 0
28 -122 56 -234 54 -39 -1 -114 -7 -166 -14z"/>
</g>
</svg>
