<?xml version="1.0" standalone="no"?>
<!DOCTYPE svg PUBLIC "-//W3C//DTD SVG 20010904//EN"
 "http://www.w3.org/TR/2001/REC-SVG-20010904/DTD/svg10.dtd">
<svg version="1.0" xmlns="http://www.w3.org/2000/svg"
 width="1536.000000pt" height="689.000000pt" viewBox="0 0 1536.000000 689.000000"
 preserveAspectRatio="xMidYMid meet">
<metadata>
Created by potrace 1.16, written by Peter Selinger 2001-2019
</metadata>
<g transform="translate(0.000000,689.000000) scale(0.100000,-0.100000)"
fill="#000000" stroke="none">
<path d="M935 6880 c-33 -4 -159 -8 -280 -9 -245 -1 -297 -9 -397 -63 -99 -53
-168 -145 -204 -275 -13 -45 -16 -101 -15 -253 0 -140 -5 -241 -19 -359 -11
-90 -18 -166 -15 -169 7 -7 110 25 157 49 21 11 65 44 99 74 65 59 104 72 167
60 101 -19 92 -22 92 24 0 53 12 59 157 71 137 11 143 8 143 -72 0 -41 -5 -54
-35 -87 -43 -48 -88 -144 -109 -236 -48 -212 -56 -248 -56 -266 0 -28 -32 -87
-80 -143 -22 -27 -39 -54 -37 -60 9 -27 248 17 337 62 47 24 56 33 69 72 25
78 207 288 311 359 70 48 297 171 377 205 97 41 134 43 195 13 57 -28 104 -77
193 -204 62 -87 169 -199 261 -274 33 -28 96 -90 138 -139 80 -91 120 -125
135 -115 5 3 20 -12 32 -32 43 -71 84 -115 199 -213 100 -86 143 -131 216
-225 15 -20 15 -20 9 3 -6 20 9 13 97 -46 119 -80 210 -133 324 -190 44 -22
86 -48 94 -57 10 -12 15 -13 21 -3 6 9 18 1 45 -27 36 -39 37 -39 30 -12 -6
27 -5 27 16 16 35 -19 117 -107 138 -150 23 -44 35 -52 20 -14 -17 44 -38 82
-67 116 l-28 34 30 -23 c16 -13 44 -44 62 -69 33 -46 33 -46 33 -17 l1 29 14
-25 c8 -14 14 -19 15 -10 0 30 24 -10 30 -52 l6 -43 10 44 9 45 20 -30 c12
-18 21 -52 23 -93 5 -74 21 -64 22 14 l1 50 22 -30 c90 -121 194 -196 382
-276 135 -57 223 -83 475 -139 305 -69 373 -87 453 -124 l76 -34 30 -99 c16
-54 41 -140 55 -191 31 -112 60 -170 119 -242 108 -131 256 -409 307 -576 25
-81 30 -115 28 -176 l-3 -75 53 -57 c43 -48 52 -64 52 -94 0 -20 -9 -51 -19
-69 -24 -39 -106 -105 -152 -122 -74 -28 -75 -32 -11 -26 85 7 152 38 206 95
56 60 85 117 94 185 l7 54 87 -82 87 -82 32 -180 c32 -182 47 -355 35 -417 -3
-19 -22 -58 -41 -88 -24 -36 -34 -62 -30 -76 3 -13 -1 -27 -10 -34 -10 -9 -15
-32 -15 -75 0 -80 -17 -126 -89 -244 -32 -53 -80 -134 -106 -181 -86 -152
-143 -225 -248 -313 -41 -35 -58 -56 -63 -82 -8 -44 -26 -59 -94 -80 -30 -9
-66 -21 -79 -26 -94 -38 -190 -52 -393 -55 -223 -4 -246 -9 -306 -59 -35 -29
-69 -85 -53 -85 6 0 32 13 58 30 69 44 160 40 202 -10 15 -17 31 -19 181 -20
91 0 181 -1 200 0 19 0 152 0 294 0 143 -1 263 3 268 8 5 5 13 47 18 93 7 72
17 111 46 189 4 12 9 11 24 -8 23 -27 73 -44 108 -35 25 6 25 6 -11 25 -21 10
-39 28 -43 42 -8 33 13 171 32 208 20 38 157 215 259 333 189 219 229 293 207
389 -33 142 -40 401 -12 445 6 10 33 -4 106 -56 402 -285 998 -613 1092 -601
26 4 26 5 -31 60 -32 31 -109 96 -172 144 -63 48 -115 89 -115 91 0 2 30 -12
68 -31 183 -91 483 -172 614 -164 85 5 69 25 -87 106 -77 40 -131 70 -120 67
104 -33 276 -48 297 -27 27 27 -39 79 -297 231 -159 95 -476 303 -470 309 2 2
32 -5 67 -17 143 -46 368 -79 368 -53 0 16 -70 54 -188 103 -56 23 -101 44
-99 46 2 2 48 -2 101 -8 53 -6 108 -8 123 -5 26 7 26 8 7 26 -10 10 -46 30
-79 43 l-60 25 84 -5 c103 -7 105 4 10 56 l-64 36 52 5 c95 10 96 41 3 97 -47
29 -50 32 -29 37 124 23 136 39 52 71 -57 22 -64 30 -33 40 11 3 24 14 30 24
12 23 -19 53 -75 72 l-40 12 35 10 c78 20 72 46 -16 74 -58 18 -63 23 -39 43
39 32 9 55 -85 65 -88 10 -110 25 -103 69 5 32 3 36 -23 42 -15 4 -46 2 -68
-4 -23 -6 -43 -9 -45 -6 -3 2 8 17 23 33 41 43 27 55 -52 46 -72 -8 -67 -13
-46 55 5 17 2 20 -23 20 -16 0 -55 -5 -87 -11 -32 -6 -60 -8 -62 -6 -3 2 20
23 51 47 30 23 55 46 55 51 0 5 -27 9 -60 9 -33 0 -60 3 -60 8 1 4 11 20 24
36 l24 29 83 -78 c46 -43 121 -103 167 -133 113 -74 406 -221 631 -317 258
-110 958 -460 1066 -533 50 -33 104 -75 122 -94 42 -45 83 -124 83 -163 0 -18
11 -46 25 -65 14 -19 25 -39 25 -46 0 -7 15 -21 33 -31 29 -18 39 -38 106
-219 101 -275 112 -321 118 -494 2 -80 9 -157 15 -172 6 -15 32 -43 57 -62 82
-58 134 -159 148 -283 5 -49 3 -55 -33 -103 -22 -28 -59 -64 -84 -79 -40 -25
-52 -27 -113 -23 -58 4 -75 1 -122 -23 -56 -27 -105 -78 -105 -108 0 -24 19
-21 41 8 12 14 43 32 75 42 l56 17 76 -39 c109 -56 171 -47 255 37 l44 44 34
-23 c51 -35 66 -28 29 13 -36 42 -35 68 7 118 20 24 24 36 19 65 -4 20 -11 79
-17 131 -8 72 -16 104 -34 132 -14 21 -25 49 -25 62 0 14 -14 65 -31 113 -47
134 -48 145 -6 165 20 9 38 26 42 38 8 26 -1 38 -17 22 -20 -20 -55 -13 -77
14 -45 57 -73 138 -122 354 -46 200 -52 242 -58 380 -6 150 -7 157 -36 202
-18 30 -64 74 -120 116 -49 38 -155 127 -235 198 -80 71 -206 182 -280 245
-74 64 -160 147 -191 185 -129 158 -299 454 -299 521 0 24 2 26 15 12 9 -8 25
-37 36 -65 14 -34 18 -40 15 -20 l-4 30 20 -25 c14 -18 12 -10 -7 29 -15 30
-24 57 -21 60 4 3 20 -7 36 -23 54 -52 42 -18 -16 44 -57 62 -65 83 -22 60 35
-18 57 -45 84 -102 23 -48 26 -36 8 25 -7 25 23 12 31 -13 4 -10 11 -19 17
-19 10 0 4 119 -9 165 -4 15 -2 17 6 9 7 -6 16 -49 20 -95 l8 -84 2 69 c1 64
2 68 16 50 13 -17 13 -14 0 25 -8 24 -13 46 -11 49 11 11 27 -14 42 -66 24
-85 34 -86 34 -2 l0 75 21 -32 c12 -18 23 -33 26 -33 6 0 5 2 -32 85 -14 33
-20 53 -12 45 22 -24 59 -120 52 -138 -5 -13 -3 -14 6 -5 9 9 7 30 -7 90 -10
43 -19 85 -20 94 0 8 -9 28 -19 45 l-17 29 26 -29 c15 -16 25 -34 23 -41 -3
-6 -1 -18 4 -26 7 -11 9 -11 9 -1 0 7 4 10 10 7 6 -4 6 3 0 21 -14 36 -7 41
11 6 8 -15 17 -29 21 -32 4 -3 18 -30 32 -60 31 -65 33 -55 7 29 -10 34 -17
61 -15 61 3 0 0 10 -6 23 -11 22 -11 22 5 2 20 -24 55 -101 55 -121 0 -8 4
-14 9 -14 12 0 19 120 9 142 -5 9 -11 45 -15 80 -6 62 -6 63 14 46 25 -23 58
-90 78 -158 l15 -55 -5 65 c-4 36 -9 76 -12 90 -6 23 -5 24 11 11 9 -8 29 -34
43 -58 54 -93 28 -15 -33 95 -41 75 -27 74 16 -1 16 -29 30 -45 30 -37 0 14
-18 85 -35 140 l-7 25 25 -24 c14 -13 28 -31 30 -40 3 -9 3 2 1 24 -2 23 -6
50 -9 60 -6 18 -6 19 5 2 6 -9 15 -15 20 -12 14 9 78 -75 100 -129 20 -51 20
-51 13 -11 -3 22 -12 57 -19 79 -19 54 -18 56 17 16 24 -27 28 -29 18 -10 -6
14 -23 40 -36 58 -27 37 -49 97 -31 86 8 -5 9 1 5 17 l-6 24 20 -24 c17 -21
19 -21 19 -5 1 18 2 18 17 -1 15 -19 15 -19 9 10 -3 17 -8 40 -12 53 -4 12 -2
22 4 22 17 0 112 -91 128 -122 9 -17 18 -27 21 -24 3 3 -11 40 -30 83 -20 43
-38 99 -41 125 -3 27 -8 60 -12 75 l-6 28 26 -30 c14 -16 30 -45 36 -62 7 -18
16 -33 21 -33 12 0 12 0 -6 50 -8 24 -13 45 -11 48 9 9 26 -10 26 -29 0 -11 4
-18 9 -14 6 3 14 -3 20 -12 17 -29 13 -9 -8 38 -10 24 -22 60 -26 79 l-7 35
43 -45 c24 -25 50 -54 56 -65 11 -17 11 -16 3 7 -5 15 -18 44 -28 65 -23 46
-38 103 -23 88 15 -16 61 -111 61 -128 0 -24 18 -30 25 -8 5 18 -1 55 -22 126
-5 18 -4 19 12 5 10 -8 27 -28 37 -45 l20 -30 -4 38 c-2 20 -1 37 2 37 3 0 16
-17 29 -37 22 -38 22 -38 17 -8 -16 95 -17 115 -8 115 6 0 13 -8 15 -17 4 -17
5 -17 6 0 1 11 9 17 25 17 19 0 26 -7 34 -37 l10 -38 1 36 c1 34 2 35 44 37
131 7 372 35 493 57 177 33 271 57 634 161 246 71 574 156 828 214 l52 12 74
-70 c41 -39 84 -75 95 -82 18 -9 21 -8 21 10 0 12 -7 34 -15 50 -28 53 -8 32
38 -42 25 -40 59 -86 74 -103 l28 -30 3 28 c2 16 -4 49 -12 74 -9 26 -14 48
-13 50 2 1 40 -52 84 -120 79 -120 139 -195 149 -185 2 3 -4 42 -14 87 -11 44
-18 81 -16 81 1 0 28 -36 59 -80 57 -81 82 -101 71 -55 -4 14 -5 25 -3 25 10
0 75 -109 81 -135 10 -44 27 -85 37 -85 8 0 16 48 21 120 2 22 9 36 18 38 12
2 22 -17 39 -70 30 -92 81 -208 92 -208 5 0 9 9 9 19 0 30 -38 224 -66 333
-13 53 -24 100 -23 105 0 4 24 -55 52 -132 29 -77 70 -173 91 -213 40 -74 169
-222 194 -222 17 0 23 -14 -75 181 -74 146 -150 329 -138 329 3 0 41 -55 86
-122 147 -220 299 -418 321 -418 6 0 7 15 3 40 -4 22 -3 40 2 40 5 0 41 -27
79 -60 82 -71 101 -77 79 -23 -8 20 -14 38 -12 39 2 2 30 -20 62 -49 56 -50
63 -49 40 6 -10 24 6 22 65 -8 54 -27 70 -31 52 -13 -29 29 -7 24 55 -13 70
-40 94 -37 52 7 -27 29 -17 31 21 4 38 -27 92 -49 108 -43 6 3 12 18 12 33 l0
29 41 -14 c23 -8 51 -15 62 -15 17 0 19 5 14 33 l-5 34 64 -24 c72 -26 144
-31 144 -10 0 21 -53 98 -111 161 -30 33 -49 57 -44 55 6 -2 53 -25 105 -51
112 -55 192 -82 307 -104 97 -18 158 -16 158 6 0 8 -40 36 -90 63 -49 27 -81
45 -70 42 176 -64 428 -124 462 -110 29 10 -3 30 -172 105 -171 76 -748 361
-742 367 2 2 46 -17 98 -41 244 -113 545 -227 855 -324 229 -72 395 -115 426
-110 37 6 -56 49 -583 268 -757 315 -1124 475 -1249 544 -163 91 -239 127
-370 179 -234 92 -441 141 -745 177 -337 39 -499 45 -870 29 -417 -17 -1047
-18 -1245 0 -405 35 -754 102 -1095 211 -71 23 -186 60 -255 81 -416 133 -986
277 -1324 334 -425 72 -915 78 -1511 19 -292 -28 -480 -57 -1065 -164 -443
-81 -553 -98 -710 -110 -260 -19 -463 -9 -706 36 -504 92 -963 356 -1229 706
-227 298 -328 396 -495 483 -191 98 -373 136 -685 140 -115 2 -237 0 -270 -5z
m8764 -2611 c16 -46 14 -48 -9 -11 -22 37 -24 42 -11 42 5 0 14 -14 20 -31z
m-333 -236 c-7 -7 -26 7 -26 19 0 6 6 6 15 -2 9 -7 13 -15 11 -17z m-109 -131
c6 -4 15 -21 19 -37 l7 -30 -32 29 c-17 17 -31 33 -31 38 0 10 21 10 37 0z
m-410 -544 c-3 -8 -6 -5 -6 6 -1 11 2 17 5 13 3 -3 4 -12 1 -19z m-133 -76
c31 -45 36 -80 5 -42 -28 36 -51 80 -41 80 5 0 21 -17 36 -38z m-184 -52 c0
-5 3 -17 6 -27 4 -14 1 -13 -15 6 -25 27 -27 43 -6 35 8 -4 15 -10 15 -14z"/>
</g>
</svg>
