<?xml version="1.0" standalone="no"?>
<!DOCTYPE svg PUBLIC "-//W3C//DTD SVG 20010904//EN"
 "http://www.w3.org/TR/2001/REC-SVG-20010904/DTD/svg10.dtd">
<svg version="1.0" xmlns="http://www.w3.org/2000/svg"
 width="1401.000000pt" height="519.000000pt" viewBox="0 0 1401.000000 519.000000"
 preserveAspectRatio="xMidYMid meet">
<metadata>
Created by potrace 1.16, written by Peter Selinger 2001-2019
</metadata>
<g transform="translate(0.000000,519.000000) scale(0.100000,-0.100000)"
fill="#000000" stroke="none">
<path d="M885 5150 c-21 -17 -50 -47 -65 -68 -31 -42 -85 -175 -125 -306 -15
-48 -30 -84 -34 -80 -11 13 -61 195 -61 222 0 27 -24 39 -44 23 -16 -13 -50
-120 -61 -191 l-7 -44 -26 49 c-31 62 -42 69 -67 44 -18 -17 -20 -33 -20 -132
0 -70 7 -143 18 -196 18 -83 18 -84 -2 -105 -16 -17 -23 -42 -27 -100 l-7 -77
-56 -39 c-78 -55 -96 -72 -114 -106 -26 -51 -49 -183 -42 -244 9 -73 62 -216
119 -322 29 -53 43 -89 36 -93 -5 -3 -14 -15 -20 -25 -13 -24 11 -50 46 -50
24 0 28 -8 25 -43 -2 -10 10 -24 28 -35 37 -21 48 -57 25 -83 -20 -22 -13 -46
17 -58 22 -8 22 -8 2 -22 -41 -30 -35 -79 9 -79 15 0 18 -4 13 -17 -19 -45
-17 -61 9 -78 17 -12 26 -26 26 -44 0 -52 32 -120 78 -170 45 -47 137 -101
174 -101 9 0 29 18 45 40 29 41 43 50 43 27 0 -20 33 -47 56 -47 40 0 139 140
185 260 37 97 60 123 130 148 69 24 269 67 361 78 72 8 190 -10 316 -48 54
-16 126 -38 161 -49 101 -30 321 -137 380 -186 30 -24 100 -74 155 -110 56
-36 138 -91 184 -120 46 -30 147 -86 225 -124 78 -37 162 -82 187 -99 25 -16
50 -30 55 -30 22 0 82 -76 94 -118 16 -55 74 -184 100 -220 10 -15 24 -46 30
-68 6 -23 20 -52 30 -66 36 -45 125 -106 238 -162 111 -56 112 -56 202 -56 59
0 104 5 129 16 41 16 66 52 56 79 -4 9 0 23 8 33 20 23 29 49 21 67 -8 22 -56
45 -92 45 -20 0 -35 8 -45 22 -22 31 -20 38 9 38 17 0 28 7 34 23 11 29 6 39
-27 60 -20 12 -22 17 -9 17 29 0 59 37 48 59 -10 17 -4 18 92 18 67 -1 136 6
202 20 186 40 169 41 265 -28 125 -90 162 -109 279 -145 58 -18 167 -54 241
-78 74 -25 208 -65 296 -90 169 -47 346 -117 426 -168 50 -32 63 -60 61 -139
-1 -51 -80 -191 -179 -319 -166 -213 -187 -289 -119 -425 38 -76 69 -112 199
-225 47 -41 130 -124 183 -185 183 -206 259 -265 341 -265 44 0 43 26 -4 71
-20 18 -40 42 -45 51 -8 16 -7 17 16 8 48 -18 115 -10 115 14 0 7 -25 34 -55
60 -48 41 -58 56 -72 108 -15 54 -30 76 -82 123 -16 15 -78 105 -95 140 -8 17
-18 61 -22 100 -6 73 -22 97 -99 149 -26 18 -27 22 -22 78 8 89 78 190 320
463 60 68 77 94 77 118 0 50 -44 129 -90 162 -89 64 -89 65 5 34 50 -16 126
-39 170 -50 44 -11 121 -36 171 -55 51 -19 152 -52 225 -75 352 -106 486 -182
545 -307 53 -112 67 -177 73 -347 6 -152 8 -163 37 -226 24 -50 47 -79 104
-130 197 -173 260 -243 260 -287 0 -15 -9 -21 -38 -24 -59 -8 -217 -116 -234
-160 -10 -24 8 -68 27 -68 9 0 37 11 63 25 50 26 72 31 72 15 0 -5 13 -16 30
-25 41 -21 135 -19 189 5 24 11 50 20 58 20 31 0 82 40 88 71 12 55 -5 146
-36 191 -35 53 -36 82 -4 114 14 14 25 27 25 30 0 3 9 17 20 31 26 34 25 67
-5 132 -35 75 -86 143 -178 236 -43 44 -95 105 -116 137 -38 56 -46 81 -94
290 -42 181 -115 289 -240 353 -172 90 -416 321 -565 535 -149 215 -269 354
-337 395 l-47 27 48 35 c27 20 96 58 154 85 58 28 233 112 390 188 322 156
339 163 476 185 301 49 290 46 939 256 338 110 336 109 535 180 96 34 270 94
385 134 116 40 235 84 265 98 118 53 304 118 510 176 118 34 238 70 265 80
115 41 111 40 630 172 88 22 194 49 235 60 118 29 326 59 700 101 102 11 214
24 250 28 36 5 191 12 345 15 228 6 313 4 460 -9 99 -10 236 -21 305 -26 69
-5 193 -14 275 -20 197 -15 183 -14 238 -12 44 2 48 4 45 24 -5 38 -71 64
-238 97 -836 163 -952 177 -1373 168 -549 -12 -936 -47 -1567 -141 -124 -19
-254 -37 -290 -40 -36 -2 -119 -18 -185 -35 -66 -17 -174 -42 -240 -55 -188
-39 -377 -83 -541 -126 -83 -22 -171 -44 -195 -49 -24 -5 -159 -38 -299 -74
-268 -68 -519 -120 -676 -138 -155 -18 -717 -7 -979 20 -121 13 -242 30 -268
38 -27 7 -79 16 -115 19 -104 8 -512 88 -887 172 -71 16 -200 42 -285 57 -85
15 -180 34 -210 42 -62 16 -261 53 -450 84 -154 25 -651 44 -920 35 -228 -7
-572 -54 -723 -100 -45 -13 -100 -27 -122 -31 -94 -16 -398 -161 -648 -309
-43 -26 -120 -67 -170 -93 -82 -41 -101 -47 -174 -51 -80 -4 -212 18 -237 40
-6 4 -17 8 -26 8 -9 0 -47 21 -86 47 -87 59 -372 193 -495 234 l-95 31 4 34
c5 45 -29 63 -87 46 -53 -16 -53 -16 -32 24 31 57 12 76 -71 71 -21 -1 -38 -1
-38 1 0 18 50 88 94 132 31 30 56 60 56 67 0 33 -82 27 -132 -9 -16 -11 -31
-19 -33 -17 -2 2 6 42 17 88 20 87 18 131 -7 131 -8 0 -41 -36 -75 -79 -33
-44 -64 -82 -69 -85 -4 -3 -3 19 4 49 14 59 10 95 -10 95 -7 0 -32 -18 -57
-39 l-45 -40 9 55 c10 65 43 134 104 221 50 70 58 109 22 98 -49 -15 -156 -77
-186 -108 -17 -18 -47 -59 -66 -92 l-36 -59 6 49 c10 90 26 149 60 223 31 69
38 91 35 120 -2 21 -37 13 -76 -18z"/>
</g>
</svg>
