<?xml version="1.0" standalone="no"?>
<!DOCTYPE svg PUBLIC "-//W3C//DTD SVG 20010904//EN"
 "http://www.w3.org/TR/2001/REC-SVG-20010904/DTD/svg10.dtd">
<svg version="1.0" xmlns="http://www.w3.org/2000/svg"
 width="618.000000pt" height="426.000000pt" viewBox="0 0 618.000000 426.000000"
 preserveAspectRatio="xMidYMid meet">
<metadata>
Created by potrace 1.16, written by Peter Selinger 2001-2019
</metadata>
<g transform="translate(0.000000,426.000000) scale(0.100000,-0.100000)"
fill="#000000" stroke="none">
<path d="M580 4225 c0 -8 -9 -15 -20 -15 -11 0 -20 5 -20 10 0 6 -4 10 -9 10
-20 0 -23 -129 -5 -229 16 -92 16 -102 1 -133 -16 -34 -94 -114 -130 -134 -9
-6 -29 -41 -42 -78 -31 -84 -32 -86 -125 -152 -103 -73 -104 -75 -122 -109 -8
-16 -32 -61 -52 -98 l-37 -68 3 -131 c3 -150 9 -162 69 -135 19 8 42 17 52 21
9 3 16 11 15 17 -3 11 22 20 95 33 40 7 43 -12 8 -48 -17 -18 -31 -40 -31 -49
0 -9 -5 -17 -12 -17 -6 0 -3 -9 7 -20 10 -12 19 -34 19 -50 1 -16 4 -30 9 -30
4 0 16 0 27 0 10 0 34 15 52 34 18 19 77 54 133 81 55 26 114 57 130 69 17 13
64 42 105 66 41 24 95 62 120 85 53 48 127 94 165 101 15 3 48 -3 74 -12 46
-18 269 -173 306 -214 54 -59 345 -240 527 -326 42 -20 79 -43 82 -51 4 -8 -1
-39 -10 -69 -10 -36 -15 -92 -14 -171 0 -65 0 -167 1 -227 0 -83 5 -122 20
-165 19 -53 20 -73 14 -336 -5 -234 -3 -300 11 -400 20 -141 32 -509 21 -645
-8 -105 -25 -162 -68 -231 -17 -26 -29 -60 -29 -79 0 -26 -11 -44 -59 -94
-165 -169 -160 -189 43 -188 210 0 325 9 352 26 33 23 33 26 -17 184 -7 22 -7
56 1 110 17 118 41 222 54 232 6 5 24 20 40 33 l30 24 2 160 c0 88 4 165 8
171 3 6 11 48 16 94 6 46 22 151 37 235 l27 152 43 30 c24 17 43 38 43 47 0 8
6 14 13 12 13 -5 60 -156 106 -343 28 -114 61 -332 61 -402 0 -17 11 -62 24
-100 14 -37 28 -86 32 -108 11 -65 29 -90 116 -162 45 -37 104 -89 131 -115
43 -42 49 -51 42 -75 -4 -16 -9 -49 -12 -74 -4 -38 -1 -51 19 -73 28 -34 121
-68 157 -59 63 16 149 96 172 160 5 16 19 33 30 38 12 6 37 35 56 66 30 49 33
61 26 90 -6 20 -17 36 -29 39 -10 3 -30 13 -44 22 -14 9 -51 24 -83 32 -60 16
-100 41 -126 80 -9 13 -35 48 -58 78 -53 68 -101 181 -120 281 -14 76 -13 81
16 211 17 74 31 159 31 190 0 41 7 71 25 106 14 27 25 59 25 70 0 12 14 52 30
90 17 38 30 75 30 84 0 9 7 16 15 16 30 0 239 -66 300 -94 80 -38 244 -81 370
-96 50 -6 178 -10 285 -8 107 1 214 -1 238 -6 l42 -8 0 -46 c1 -55 33 -139 77
-200 18 -24 35 -58 38 -75 4 -18 18 -68 31 -112 68 -218 71 -380 10 -470 -25
-37 -127 -166 -152 -193 -28 -29 -136 -108 -182 -131 -51 -26 -104 -87 -100
-114 7 -48 203 -126 319 -127 41 0 51 4 78 35 22 25 31 46 31 70 0 40 40 97
167 237 84 93 116 122 148 132 11 3 36 20 54 37 37 34 37 27 11 204 -15 103
-12 378 5 492 8 54 15 105 15 113 0 8 27 -13 59 -47 45 -45 75 -67 118 -83 32
-12 67 -30 78 -40 11 -10 54 -34 95 -53 70 -31 84 -43 198 -172 226 -253 262
-329 262 -548 0 -69 -4 -137 -10 -152 -5 -14 -32 -52 -59 -85 -57 -68 -64 -84
-53 -125 l9 -30 218 2 c197 1 220 3 232 19 20 27 16 73 -12 132 -13 29 -27 76
-30 105 -3 29 -10 86 -16 128 -5 42 -9 94 -8 115 4 157 -3 339 -15 368 -7 18
-35 50 -62 72 -27 21 -59 50 -71 64 -30 33 -121 212 -167 327 -20 51 -52 120
-71 153 -18 33 -30 62 -25 65 5 3 9 18 9 33 -1 15 6 54 16 87 14 52 15 104 10
400 -6 350 -13 428 -47 528 -11 32 -17 62 -13 65 4 4 44 -31 89 -78 72 -74 91
-102 144 -210 34 -69 74 -168 90 -220 28 -90 62 -274 62 -332 0 -17 7 -31 19
-38 28 -14 31 -13 31 13 0 12 7 30 14 40 11 14 11 28 0 80 -7 34 -14 78 -14
97 -1 50 -62 283 -95 360 -52 124 -92 205 -121 246 -101 141 -145 191 -209
239 -185 140 -227 173 -315 243 -52 42 -114 94 -138 115 -24 21 -78 55 -120
75 -76 36 -79 37 -218 40 -110 3 -154 0 -200 -13 -44 -13 -115 -19 -280 -22
-236 -5 -297 1 -469 51 -44 13 -111 32 -150 44 -38 11 -122 39 -185 62 -63 23
-129 46 -146 51 -17 5 -51 24 -75 41 -92 68 -161 100 -269 126 -108 26 -147
30 -300 37 -187 8 -281 14 -425 30 -71 8 -186 17 -255 20 -69 4 -159 11 -199
16 -83 10 -271 71 -313 101 -33 23 -153 78 -170 78 -7 0 -26 7 -43 16 -120 63
-300 96 -417 76 -114 -20 -228 -31 -243 -26 -8 4 -15 11 -15 18 0 6 -17 29
-38 51 -42 46 -56 66 -77 113 -16 35 -25 41 -25 17z"/>
</g>
</svg>
