<?xml version="1.0" standalone="no"?>
<!DOCTYPE svg PUBLIC "-//W3C//DTD SVG 20010904//EN"
 "http://www.w3.org/TR/2001/REC-SVG-20010904/DTD/svg10.dtd">
<svg version="1.0" xmlns="http://www.w3.org/2000/svg"
 width="2798.000000pt" height="2376.000000pt" viewBox="0 0 2798.000000 2376.000000"
 preserveAspectRatio="xMidYMid meet">
<metadata>
Created by potrace 1.16, written by Peter Selinger 2001-2019
</metadata>
<g transform="translate(0.000000,2376.000000) scale(0.100000,-0.100000)"
fill="#000000" stroke="none">
<path d="M26580 23725 c-30 -9 -80 -32 -110 -53 l-55 -37 -120 1 c-153 1 -234
-10 -299 -43 -28 -14 -143 -87 -256 -161 -177 -117 -221 -152 -320 -251 -149
-150 -254 -299 -380 -538 -117 -222 -153 -311 -255 -620 -41 -125 -80 -241
-86 -258 -11 -27 -27 -97 -73 -305 -9 -41 -34 -144 -56 -228 -22 -84 -40 -167
-40 -183 0 -17 -16 -124 -35 -237 -36 -220 -87 -550 -130 -847 -46 -314 -163
-1002 -210 -1235 -135 -661 -317 -1255 -561 -1826 -347 -816 -724 -1428 -1242
-2016 -353 -403 -862 -865 -1153 -1050 -192 -122 -532 -284 -821 -392 -284
-105 -694 -236 -741 -236 -24 0 -68 9 -100 20 -53 19 -60 19 -95 5 -20 -9 -62
-40 -92 -69 -50 -49 -62 -56 -129 -71 l-75 -16 -134 67 -135 68 -56 -30 c-43
-22 -69 -46 -113 -105 l-57 -76 -92 -12 c-86 -11 -93 -11 -113 8 -12 11 -50
31 -86 44 -36 14 -99 41 -140 61 -81 39 -113 43 -163 22 -35 -14 -102 -82
-132 -134 -11 -17 -24 -32 -29 -32 -5 0 -52 33 -104 73 -130 100 -137 103
-169 82 -14 -10 -64 -54 -110 -98 l-83 -80 -54 13 c-33 8 -74 10 -104 6 -42
-5 -60 -2 -104 18 -84 40 -183 76 -207 76 -37 0 -93 -35 -166 -105 l-70 -67
-91 18 c-76 14 -103 16 -159 6 -37 -6 -76 -19 -86 -28 -18 -17 -21 -17 -57 1
-50 24 -129 45 -172 45 -26 0 -51 -11 -95 -45 -33 -25 -63 -45 -67 -45 -3 0
-16 -16 -29 -36 l-22 -37 -69 6 c-39 3 -90 14 -115 23 -38 15 -52 16 -89 6
-30 -8 -51 -9 -70 -2 -14 6 -70 15 -123 20 -53 6 -112 13 -132 16 -30 5 -45
-1 -105 -41 -98 -67 -114 -84 -114 -118 l0 -30 -134 6 c-155 7 -170 1 -184
-68 -8 -39 -9 -40 -67 -53 -54 -12 -66 -11 -125 7 -36 11 -87 27 -115 35 -27
7 -74 24 -104 35 -31 13 -80 23 -114 24 -53 1 -62 -1 -83 -26 -16 -19 -24 -40
-24 -66 0 -63 -19 -145 -37 -158 -23 -17 -79 -16 -133 3 -80 28 -182 43 -318
45 -169 4 -166 5 -168 -127 -1 -67 -6 -100 -15 -108 -8 -7 -72 -38 -144 -69
l-130 -56 -168 -11 c-175 -11 -200 -17 -249 -64 -24 -21 -28 -33 -28 -80 0
-71 -13 -79 -101 -65 -70 12 -197 5 -250 -13 -19 -6 -45 -20 -58 -32 -26 -23
-68 -109 -79 -164 -6 -26 -17 -42 -41 -56 -30 -17 -39 -18 -77 -8 -25 7 -85
12 -134 12 l-89 0 -39 -38 c-21 -20 -58 -69 -81 -109 -23 -40 -47 -76 -54 -80
-6 -4 -43 -20 -81 -34 l-69 -26 -71 29 c-171 70 -263 39 -359 -121 -26 -45
-40 -57 -75 -69 -38 -12 -47 -12 -78 3 -50 24 -154 39 -209 30 -39 -5 -58 -16
-103 -58 -30 -29 -72 -75 -93 -103 -29 -39 -50 -56 -93 -73 -54 -23 -56 -23
-108 -5 -31 10 -85 18 -130 18 -95 1 -111 -12 -170 -131 l-41 -83 -91 -49
c-50 -27 -109 -59 -132 -72 -40 -22 -42 -22 -76 -6 -23 11 -61 17 -101 17 -55
0 -70 -4 -95 -25 -36 -30 -68 -103 -78 -172 -6 -46 -10 -53 -38 -63 -84 -31
-135 -59 -184 -98 -50 -41 -55 -42 -101 -36 -98 13 -173 -67 -195 -206 -8 -48
-192 -233 -251 -252 -33 -11 -45 -23 -70 -67 -16 -30 -86 -115 -155 -190 -533
-578 -1025 -1145 -1156 -1332 -30 -42 -115 -143 -190 -225 -151 -165 -472
-553 -506 -612 -30 -51 -106 -153 -133 -177 -12 -11 -57 -65 -100 -120 -276
-352 -800 -908 -1090 -1156 -348 -299 -774 -555 -1200 -722 -216 -85 -324
-112 -610 -153 -145 -21 -234 -12 -350 37 -191 79 -338 192 -579 446 -519 543
-698 698 -1013 873 -366 204 -740 303 -1198 317 -176 5 -194 4 -235 -14 -62
-28 -148 -98 -156 -127 -19 -79 82 -134 446 -240 287 -84 386 -117 513 -170
282 -117 500 -260 702 -461 132 -131 219 -236 475 -575 267 -352 338 -439 460
-561 217 -219 439 -343 700 -390 110 -20 557 -18 780 4 1050 104 1587 254
2685 753 589 267 1337 657 2195 1144 1039 590 1255 678 1877 764 l182 25 115
-39 c63 -22 173 -63 243 -91 70 -28 171 -67 223 -86 52 -18 147 -54 210 -80
l115 -45 71 -122 c61 -103 74 -133 83 -194 6 -40 25 -114 42 -165 24 -74 32
-119 39 -229 8 -124 7 -142 -11 -188 -10 -27 -19 -70 -19 -93 0 -24 -7 -93
-16 -153 -11 -79 -13 -145 -9 -239 6 -120 3 -153 -36 -415 -39 -268 -42 -299
-43 -515 -1 -267 12 -424 49 -591 30 -133 104 -378 140 -464 13 -31 44 -123
70 -205 57 -183 70 -304 62 -575 -6 -202 -24 -327 -56 -381 -23 -40 -72 -210
-101 -354 -22 -111 -27 -295 -9 -359 10 -36 8 -45 -29 -120 -54 -107 -172
-447 -179 -513 -8 -72 11 -130 63 -196 66 -85 81 -90 269 -92 126 -2 166 -6
190 -19 42 -22 142 -21 206 4 46 17 63 18 148 10 53 -5 103 -10 112 -10 10 0
23 -16 32 -38 17 -42 49 -62 100 -62 51 0 141 27 214 64 62 31 73 33 118 25
28 -4 83 -8 122 -8 70 -1 73 -2 88 -31 9 -16 20 -30 25 -30 5 0 26 -12 47 -26
49 -33 95 -28 173 20 32 20 69 36 82 36 13 0 41 9 62 19 21 11 70 25 109 32
40 6 92 15 117 19 86 14 128 106 116 249 -4 42 -7 94 -6 115 2 92 -122 260
-245 331 -33 19 -110 60 -170 91 l-110 56 0 57 c0 41 -7 67 -23 95 -22 37 -23
46 -29 450 -7 527 -16 470 203 1253 75 268 123 458 169 676 24 112 34 301 28
547 -6 219 -5 233 11 227 33 -13 171 -46 276 -66 208 -41 554 -71 821 -71
l117 0 12 -67 c17 -101 51 -231 155 -593 104 -360 193 -697 254 -955 92 -389
105 -501 71 -613 -17 -60 -26 -73 -64 -100 -24 -17 -90 -89 -147 -159 -57 -71
-141 -168 -187 -218 -45 -49 -86 -101 -89 -114 -8 -34 30 -140 104 -291 47
-97 78 -145 135 -210 67 -76 91 -95 239 -185 212 -129 277 -161 374 -188 151
-41 277 -23 400 58 71 48 87 78 93 186 6 114 12 122 55 78 41 -42 248 -148
362 -184 44 -15 114 -29 155 -32 71 -5 77 -8 120 -47 134 -126 285 -196 420
-196 62 0 99 64 100 173 0 41 5 43 54 23 103 -43 251 -55 306 -26 36 19 23
158 -24 271 -6 13 1 17 39 22 35 3 55 13 80 37 73 71 83 140 26 194 -27 26
-28 30 -23 96 2 38 2 80 -2 94 -3 14 -50 70 -104 124 -53 55 -179 184 -278
288 l-182 190 -4 74 c-3 59 -12 92 -40 155 -64 142 -166 490 -247 842 l-40
171 -2 713 -1 712 208 72 c115 40 268 96 339 124 282 115 762 367 1080 567 58
37 108 64 111 61 9 -9 -15 -256 -46 -477 -19 -135 -34 -208 -48 -236 -12 -23
-57 -146 -102 -275 -155 -446 -160 -492 -106 -974 58 -509 150 -1101 227
-1455 155 -710 171 -988 87 -1483 -16 -100 -31 -218 -32 -262 -1 -72 2 -86 29
-135 28 -50 38 -59 115 -98 128 -64 197 -75 425 -68 120 3 262 15 385 32 107
15 229 28 270 29 88 1 123 17 174 77 47 54 81 160 73 226 -3 26 -24 88 -46
138 -61 138 -75 204 -75 384 -1 136 3 171 28 285 32 146 32 165 -4 420 -17
117 -23 219 -27 466 -7 386 4 599 62 1257 25 277 45 558 45 625 0 161 -18 495
-29 528 -6 18 0 57 20 135 67 252 138 659 189 1089 l22 180 46 75 c29 48 82
111 148 175 86 85 103 106 109 140 9 54 58 173 110 270 24 44 55 111 69 149
14 38 42 86 60 107 51 56 72 157 46 224 -8 21 -5 47 15 118 18 68 25 117 25
185 0 70 4 99 17 118 12 19 16 48 16 112 0 90 -8 115 -54 174 -19 23 -23 45
-28 160 -4 73 -3 156 2 183 5 28 7 78 5 111 -3 49 -10 69 -33 100 -27 35 -30
48 -33 124 l-3 85 69 38 c95 50 177 110 447 326 338 271 414 338 700 625 425
425 677 729 1124 1355 309 431 663 986 913 1431 225 399 496 976 660 1405 183
478 366 1123 513 1810 30 143 73 328 94 410 102 387 220 1118 276 1700 55 580
105 1554 105 2077 0 227 10 275 62 300 46 22 64 47 89 127 19 62 40 279 43
443 l1 66 37 11 c41 13 94 68 104 109 4 15 17 40 30 55 13 15 26 44 29 65 10
59 16 72 28 72 38 1 134 54 195 109 l70 62 33 -14 c142 -59 423 -85 590 -53
47 9 99 16 117 16 18 0 43 10 62 26 59 50 87 136 94 289 2 50 12 119 21 155
13 50 16 93 13 187 -5 113 -7 127 -38 189 -20 42 -43 72 -61 83 -24 13 -29 23
-29 56 0 72 -25 151 -65 207 l-39 53 -13 180 c-15 209 -39 328 -89 440 -20 44
-47 109 -62 144 -30 75 -159 274 -226 348 -25 28 -84 77 -129 107 -45 31 -101
72 -124 90 -23 19 -91 53 -150 77 -96 38 -119 43 -203 46 -63 2 -114 -2 -150
-12z"/>
</g>
</svg>
