<?xml version="1.0" standalone="no"?>
<!DOCTYPE svg PUBLIC "-//W3C//DTD SVG 20010904//EN"
 "http://www.w3.org/TR/2001/REC-SVG-20010904/DTD/svg10.dtd">
<svg version="1.0" xmlns="http://www.w3.org/2000/svg"
 width="1536.000000pt" height="1282.000000pt" viewBox="0 0 1536.000000 1282.000000"
 preserveAspectRatio="xMidYMid meet">
<metadata>
Created by potrace 1.16, written by Peter Selinger 2001-2019
</metadata>
<g transform="translate(0.000000,1282.000000) scale(0.100000,-0.100000)"
fill="#000000" stroke="none">
<path d="M9775 12791 c-748 -190 -1433 -540 -2038 -1043 l-107 -90 -143 21
c-237 35 -331 42 -613 48 -289 6 -492 -4 -744 -37 -740 -98 -1487 -364 -2178
-774 l-107 -64 -105 74 c-800 559 -1163 787 -1571 989 -222 109 -331 153 -618
245 -435 139 -483 158 -746 285 -233 113 -313 147 -427 183 -106 34 -266 57
-333 47 -51 -8 -51 -9 -14 -110 45 -123 118 -205 324 -364 82 -64 182 -148
221 -188 40 -39 95 -83 124 -98 72 -36 267 -156 365 -224 320 -221 579 -442
1110 -945 185 -176 409 -384 589 -547 l40 -36 -41 -86 c-70 -146 -146 -247
-381 -507 -52 -57 -80 -110 -244 -445 -200 -409 -251 -523 -323 -720 -363
-1002 -275 -2483 210 -3545 102 -223 231 -433 420 -685 985 -1313 2765 -2426
5150 -3220 322 -107 713 -227 963 -295 948 -256 1212 -304 2312 -420 563 -59
743 -81 987 -120 l183 -30 212 12 c313 16 605 -7 970 -77 111 -21 161 -25 311
-25 l179 0 61 32 c33 18 85 55 114 82 136 124 148 284 35 471 -56 94 -228 259
-362 348 -208 138 -375 203 -544 213 -55 3 -168 19 -250 35 -339 67 -688 117
-1446 204 -1279 147 -1789 227 -2360 371 -777 194 -1657 550 -2425 979 -395
220 -937 569 -1300 836 -82 61 -204 145 -270 186 -498 314 -539 349 -843 703
-97 113 -213 246 -257 295 -434 483 -696 976 -786 1480 -20 111 -24 163 -23
355 0 169 4 248 17 318 112 603 589 1107 1177 1243 124 29 375 36 498 15 158
-27 224 -61 477 -241 86 -62 197 -130 260 -161 102 -50 244 -94 305 -94 51 -1
52 -9 20 -121 -17 -57 -102 -318 -190 -579 -236 -705 -302 -954 -340 -1295
-15 -137 -12 -428 6 -556 13 -99 67 -336 79 -347 2 -2 21 6 42 19 142 86 198
179 308 515 53 162 93 261 149 373 215 429 461 764 976 1331 67 74 182 209
255 300 73 91 165 196 205 234 129 121 221 148 574 166 116 6 243 18 284 26
162 33 494 163 660 257 173 99 207 112 297 112 67 0 89 -4 135 -27 204 -100
388 -353 720 -988 185 -354 282 -518 433 -729 478 -666 1053 -1014 1805 -1092
151 -15 403 -6 502 18 74 18 75 19 72 48 -5 51 -51 133 -92 165 -21 17 -77 49
-124 71 -52 24 -87 47 -91 59 -8 25 -99 164 -144 220 -20 24 -101 119 -182
211 -246 282 -318 390 -468 694 -44 88 -140 284 -214 435 -157 319 -260 484
-381 606 -101 102 -172 148 -406 262 -286 139 -364 223 -364 392 0 100 31 170
114 250 109 107 262 185 630 322 268 99 389 151 557 239 447 234 835 521 1437
1068 300 272 415 364 646 518 288 191 494 301 905 483 337 149 555 276 640
373 58 66 118 184 113 223 l-3 29 -175 -1 c-270 -2 -421 -27 -950 -159 -348
-87 -584 -154 -924 -265 -276 -89 -315 -104 -381 -150 -25 -17 -71 -43 -102
-57 -54 -25 -61 -26 -196 -20 -165 7 -178 5 -595 -94 -500 -119 -732 -160
-977 -174 -122 -8 -213 4 -425 52 -124 28 -128 28 -480 28 l-355 1 -165 42
c-109 28 -197 45 -260 49 l-95 6 -48 44 c-56 52 -131 88 -277 133 -169 52
-300 119 -300 153 1 21 122 182 223 296 190 214 414 394 892 714 193 129 294
203 282 205 -10 2 -20 16 -24 33 -5 29 -6 29 -72 28 -37 0 -114 -13 -176 -28z"/>
</g>
</svg>
