<?xml version="1.0" standalone="no"?>
<!DOCTYPE svg PUBLIC "-//W3C//DTD SVG 20010904//EN"
 "http://www.w3.org/TR/2001/REC-SVG-20010904/DTD/svg10.dtd">
<svg version="1.0" xmlns="http://www.w3.org/2000/svg"
 width="1536.000000pt" height="365.000000pt" viewBox="0 0 1536.000000 365.000000"
 preserveAspectRatio="xMidYMid meet">
<metadata>
Created by potrace 1.16, written by Peter Selinger 2001-2019
</metadata>
<g transform="translate(0.000000,365.000000) scale(0.100000,-0.100000)"
fill="#000000" stroke="none">
<path d="M1790 3639 c-63 -5 -155 -18 -205 -30 -70 -17 -118 -21 -215 -20 -69
0 -156 -4 -195 -9 -38 -5 -135 -14 -215 -19 -84 -6 -164 -17 -190 -26 -25 -9
-85 -27 -135 -41 -127 -36 -509 -215 -559 -262 -74 -71 -96 -166 -55 -246 11
-23 31 -46 45 -53 26 -12 64 -7 64 10 0 5 9 2 21 -9 20 -18 21 -18 32 1 10 18
11 17 22 -15 14 -41 28 -48 41 -19 9 19 12 14 27 -38 9 -33 23 -66 31 -73 13
-10 17 -8 26 15 5 14 10 38 11 53 0 16 7 -1 17 -39 18 -66 45 -119 61 -119 5
0 12 12 15 28 4 15 12 45 17 66 l11 39 18 -40 c23 -53 38 -61 46 -26 3 15 9
39 13 53 8 25 8 25 15 -7 4 -17 19 -44 34 -58 l27 -27 8 33 c5 19 13 44 18 57
9 22 10 22 35 6 22 -15 27 -15 35 -3 5 8 9 21 9 29 1 11 6 8 20 -9 l20 -23 13
31 c10 23 16 28 25 19 8 -8 15 -8 25 1 19 15 42 6 62 -25 19 -29 45 -32 45 -4
0 25 26 26 52 4 16 -16 18 -15 24 0 5 13 9 14 21 4 13 -10 19 -8 34 10 16 21
65 42 96 42 14 0 11 -16 -11 -79 -9 -24 -16 -53 -16 -65 0 -15 -18 -32 -58
-58 -32 -21 -65 -38 -74 -38 -8 0 -23 -9 -33 -20 -17 -19 -19 -19 -37 -4 -17
16 -19 15 -29 -14 -7 -22 -18 -32 -31 -32 -11 0 -22 -8 -25 -20 -3 -11 -9 -20
-14 -20 -5 0 -14 9 -21 20 -19 30 -28 24 -28 -16 0 -30 -3 -34 -19 -29 -14 4
-20 -1 -25 -20 -8 -30 -17 -31 -41 -5 -21 23 -45 26 -45 5 0 -24 -22 -65 -36
-65 -7 0 -26 12 -43 26 l-31 26 -11 -26 c-7 -14 -18 -26 -26 -26 -7 0 -13 -4
-13 -10 0 -18 -18 -11 -25 10 -8 26 -30 26 -48 0 -13 -19 -15 -17 -36 39 -34
94 -57 96 -55 4 l2 -55 -24 28 -23 29 -2 -35 c-1 -34 -2 -33 -32 33 -17 37
-34 67 -38 67 -11 0 -21 -56 -15 -80 3 -11 9 -29 12 -41 5 -18 3 -20 -16 -14
-20 6 -21 4 -15 -32 4 -21 11 -52 16 -70 12 -37 95 -118 143 -138 51 -21 203
-5 371 40 l140 38 265 -9 c146 -5 346 -9 445 -8 175 0 185 2 355 42 249 58
310 66 463 59 141 -6 233 -21 419 -68 133 -33 169 -48 249 -100 95 -63 329
-306 329 -342 0 -56 43 -217 89 -339 28 -74 51 -143 51 -153 0 -10 -16 -47
-36 -83 -42 -75 -112 -258 -161 -422 -18 -63 -57 -160 -84 -216 -37 -74 -51
-113 -51 -145 -2 -73 32 -115 52 -66 7 19 9 16 10 -18 1 -53 13 -73 34 -56 12
10 17 9 26 -9 13 -24 30 -18 30 11 0 26 16 24 23 -2 8 -31 26 -14 33 33 l7 40
16 -47 c9 -26 20 -48 25 -49 5 0 14 14 20 32 l12 34 14 -26 c18 -34 29 -33 37
5 4 20 10 28 19 25 24 -9 37 35 35 126 0 62 4 98 14 118 8 16 59 84 113 152
189 238 270 374 309 518 20 76 22 222 4 318 -7 34 -10 66 -7 71 3 5 32 2 63
-7 47 -12 137 -15 473 -16 401 -1 418 -2 495 -24 44 -13 86 -26 92 -30 9 -6
10 -45 2 -162 -6 -102 -6 -186 0 -245 6 -49 13 -124 17 -165 3 -41 10 -97 15
-125 16 -86 40 -373 38 -456 -2 -58 -7 -83 -19 -94 -26 -23 -94 -43 -221 -65
-216 -36 -332 -66 -403 -106 -71 -39 -117 -92 -109 -125 8 -29 19 -31 53 -11
27 17 35 18 68 7 25 -9 38 -20 40 -34 4 -23 22 -27 40 -9 9 9 82 13 260 14
188 1 259 5 297 17 28 8 95 20 150 25 188 19 298 46 329 81 28 31 63 132 86
246 11 61 30 142 40 182 53 196 90 507 90 750 l0 142 53 40 c85 64 177 109
257 125 130 27 132 27 175 -56 55 -107 134 -221 222 -323 64 -74 102 -106 214
-181 153 -102 250 -147 544 -254 293 -106 364 -149 351 -212 -9 -46 -98 -201
-143 -249 -66 -71 -111 -98 -194 -114 -105 -22 -123 -31 -163 -83 -41 -52 -49
-90 -15 -72 15 8 24 8 34 0 10 -9 19 -9 35 0 12 6 33 10 48 9 25 -2 95 5 185
17 29 5 37 2 37 -10 0 -29 22 -29 46 1 15 20 39 34 68 42 62 15 199 130 283
237 46 59 121 190 192 334 56 115 60 128 51 160 -5 20 -20 50 -32 66 -31 41
-215 215 -308 291 -41 33 -84 70 -95 82 -19 22 -139 111 -149 111 -3 0 -34 22
-69 48 -35 27 -102 72 -149 100 -47 29 -90 57 -96 64 -5 7 -12 44 -14 82 l-3
69 60 33 c59 33 291 122 370 143 81 21 482 100 560 110 95 13 306 27 620 41
257 12 634 66 1010 144 39 8 104 20 145 27 184 29 665 179 911 284 214 92 797
238 1114 279 141 18 795 41 904 32 42 -4 209 -13 371 -21 162 -8 340 -21 395
-30 754 -118 1095 -189 1403 -291 89 -30 176 -54 192 -54 35 0 50 24 29 45
-18 18 -256 127 -334 153 -169 57 -553 168 -665 192 -30 7 -80 21 -111 31
-186 61 -965 184 -1624 256 -230 25 -283 27 -650 28 -512 0 -658 -11 -1150
-85 -71 -11 -213 -31 -315 -45 -102 -14 -203 -30 -225 -35 -22 -6 -175 -19
-340 -31 -250 -17 -365 -20 -690 -16 -249 3 -402 8 -424 15 -19 7 -105 21
-190 33 -86 11 -185 27 -221 34 -36 7 -103 19 -150 25 -47 6 -142 22 -211 35
-70 14 -231 38 -358 55 -127 17 -277 39 -334 50 -56 11 -130 20 -165 20 -35 0
-141 11 -235 24 -180 26 -293 39 -492 56 -149 13 -366 42 -645 86 -261 41
-367 50 -711 65 -301 12 -334 10 -689 -36 -400 -53 -702 -73 -840 -56 -106 12
-343 56 -419 76 -91 24 -311 73 -376 84 -33 5 -125 25 -205 45 -80 19 -185 40
-235 46 -103 11 -387 11 -555 -1z"/>
</g>
</svg>
