<?xml version="1.0" standalone="no"?>
<!DOCTYPE svg PUBLIC "-//W3C//DTD SVG 20010904//EN"
 "http://www.w3.org/TR/2001/REC-SVG-20010904/DTD/svg10.dtd">
<svg version="1.0" xmlns="http://www.w3.org/2000/svg"
 width="3992.000000pt" height="2108.000000pt" viewBox="0 0 3992.000000 2108.000000"
 preserveAspectRatio="xMidYMid meet">
<metadata>
Created by potrace 1.16, written by Peter Selinger 2001-2019
</metadata>
<g transform="translate(0.000000,2108.000000) scale(0.100000,-0.100000)"
fill="#000000" stroke="none">
<path d="M39037 19098 c-75 -58 -229 -352 -535 -1023 -242 -532 -426 -927
-691 -1490 -29 -60 -73 -155 -99 -210 -100 -215 -604 -1219 -787 -1565 -106
-201 -320 -608 -475 -905 -330 -630 -267 -516 -699 -1260 -429 -738 -438 -752
-611 -1031 -79 -126 -206 -330 -283 -454 -77 -124 -201 -324 -277 -445 -75
-121 -197 -317 -270 -435 -116 -187 -436 -689 -624 -980 -77 -117 -401 -623
-516 -803 -47 -73 -109 -171 -139 -218 -127 -196 -173 -267 -466 -724 -850
-1325 -1175 -1829 -1240 -1925 -39 -58 -138 -204 -220 -325 -82 -121 -189
-279 -238 -351 l-89 -131 -141 144 c-78 80 -155 152 -172 160 -16 9 -48 32
-71 53 -22 21 -72 52 -110 70 -84 40 -465 273 -618 377 -142 96 -1217 810
-1458 968 -101 65 -239 163 -308 216 -132 102 -354 322 -458 452 -244 308
-272 582 -74 745 171 140 316 151 1090 82 68 -6 134 -15 148 -20 58 -22 118 0
86 32 -6 6 -293 95 -639 199 -512 154 -649 198 -743 243 -63 30 -320 138 -570
239 -529 214 -628 256 -770 331 -156 81 -274 133 -840 366 -536 221 -1111 441
-1385 530 -228 74 -603 167 -1020 254 -581 121 -701 138 -878 125 -62 -4 -195
-13 -297 -19 -418 -24 -1043 -84 -1665 -160 -142 -17 -593 -59 -855 -80 -426
-34 -684 -43 -1065 -37 -603 9 -913 48 -1371 172 -319 86 -720 262 -1146 502
-175 98 -187 107 -173 123 25 28 112 51 230 61 189 16 190 17 216 153 30 160
63 212 267 421 382 391 805 809 957 946 554 501 1110 941 1444 1144 122 73
587 306 761 380 74 32 202 91 284 132 121 61 160 86 212 137 52 50 64 68 64
93 0 40 -38 86 -82 99 -104 31 -533 -67 -1031 -235 -1259 -427 -1531 -536
-1982 -796 -454 -261 -580 -339 -742 -459 -229 -170 -268 -198 -443 -321 -172
-121 -524 -413 -897 -743 -318 -281 -552 -460 -779 -594 -490 -289 -829 -450
-1304 -618 -74 -26 -198 -70 -275 -98 -77 -28 -239 -81 -360 -117 -121 -37
-256 -78 -300 -91 -44 -14 -336 -96 -650 -184 -872 -244 -1784 -463 -2305
-554 -173 -30 -518 -91 -767 -135 -514 -92 -1351 -219 -1648 -250 -110 -12
-267 -31 -350 -42 -351 -47 -1023 -75 -1538 -63 -310 7 -340 4 -304 -23 18
-15 132 -49 202 -62 89 -15 414 -49 544 -56 63 -3 119 -9 125 -14 57 -46 788
-174 1396 -246 168 -20 537 -65 820 -100 650 -81 783 -96 1220 -140 195 -19
454 -46 575 -60 512 -57 804 -86 1025 -99 706 -45 835 -51 1055 -49 357 2
1081 59 1510 118 340 48 898 139 1550 254 661 116 902 142 1108 121 199 -20
307 -52 577 -167 819 -351 1558 -547 2259 -598 417 -31 650 -15 1237 86 128
22 272 48 322 59 146 32 356 53 462 46 184 -11 283 -64 367 -195 66 -103 204
-230 358 -329 155 -100 667 -327 917 -406 159 -50 290 -82 468 -116 l116 -21
80 -102 c125 -158 224 -301 327 -474 96 -161 344 -623 415 -774 22 -46 110
-232 197 -414 211 -444 472 -1042 555 -1275 22 -61 45 -120 51 -131 13 -25
139 -167 254 -287 l79 -84 2711 -1625 c2557 -1535 2945 -1771 3090 -1881 l60
-46 215 -5 c118 -3 302 -4 408 -1 l194 5 23 29 c20 26 27 28 61 22 22 -4 56
-16 78 -27 58 -30 60 -15 4 49 -50 59 -147 91 -280 92 l-47 0 58 77 c32 43
175 264 319 490 473 744 930 1445 1493 2288 305 457 650 974 766 1150 460 698
597 907 865 1317 153 236 314 480 358 543 130 187 485 679 625 865 71 94 167
251 260 425 46 87 1184 1780 1689 2514 138 201 259 379 268 397 10 18 117 196
238 395 122 199 309 515 417 703 107 187 250 429 316 536 191 309 195 315 222
381 14 34 57 180 96 323 65 237 292 995 534 1786 92 300 299 994 496 1665 55
187 113 378 129 425 40 122 58 221 75 430 9 102 20 221 25 265 13 105 13 436
0 566 -17 163 -64 374 -110 490 -109 275 -350 649 -484 749 -111 83 -218 119
-259 88z m-11249 -13643 c188 -14 725 -128 1129 -240 325 -90 972 -315 1118
-388 28 -14 80 -34 116 -45 61 -19 361 -177 417 -220 l24 -18 -90 -131 c-143
-208 -529 -730 -608 -823 -126 -148 -197 -186 -330 -175 -170 13 -376 86 -694
245 -243 122 -395 213 -564 339 -446 334 -906 896 -1001 1223 -20 71 -9 121
37 165 82 77 153 88 446 68z"/>
</g>
</svg>
