<?xml version="1.0" standalone="no"?>
<!DOCTYPE svg PUBLIC "-//W3C//DTD SVG 20010904//EN"
 "http://www.w3.org/TR/2001/REC-SVG-20010904/DTD/svg10.dtd">
<svg version="1.0" xmlns="http://www.w3.org/2000/svg"
 width="1536.000000pt" height="537.000000pt" viewBox="0 0 1536.000000 537.000000"
 preserveAspectRatio="xMidYMid meet">
<metadata>
Created by potrace 1.16, written by Peter Selinger 2001-2019
</metadata>
<g transform="translate(0.000000,537.000000) scale(0.100000,-0.100000)"
fill="#000000" stroke="none">
<path d="M1623 5350 c-116 -21 -230 -59 -285 -95 -21 -14 -40 -25 -43 -25 -9
0 -86 -52 -142 -95 -29 -22 -88 -67 -132 -100 -45 -33 -109 -82 -143 -109 -35
-26 -75 -54 -89 -61 -14 -8 -31 -21 -39 -30 -7 -9 -74 -54 -149 -101 -75 -47
-172 -108 -216 -136 -44 -28 -120 -73 -170 -100 -108 -60 -159 -106 -191 -173
-29 -61 -31 -125 -4 -182 18 -40 22 -43 57 -43 55 0 113 11 108 20 -3 5 13 11
35 15 22 4 40 11 40 17 0 6 12 8 29 5 20 -4 31 -2 34 7 3 9 15 12 31 9 16 -3
26 -1 26 6 0 8 11 10 35 5 29 -5 34 -4 29 9 -4 11 10 20 55 35 33 11 69 18 81
15 14 -4 20 -1 18 8 -2 9 7 15 25 17 15 2 27 8 27 13 0 5 11 9 25 9 14 0 25 3
25 8 0 4 15 13 33 20 49 20 127 61 282 145 129 70 245 123 245 112 0 -2 -44
-30 -97 -61 -54 -32 -119 -72 -144 -91 -26 -18 -51 -33 -57 -33 -5 0 -13 -7
-16 -16 -3 -8 -10 -13 -15 -10 -5 3 -11 -4 -14 -15 -4 -15 -11 -20 -21 -16
-10 4 -16 1 -16 -8 0 -8 -9 -15 -20 -15 -12 0 -20 -7 -20 -16 0 -10 -6 -14
-14 -11 -8 3 -17 -1 -20 -9 -3 -9 -10 -12 -16 -9 -6 3 -13 -1 -16 -10 -4 -9
-12 -14 -19 -11 -7 2 -15 -4 -18 -15 -3 -13 -11 -17 -21 -13 -9 4 -16 1 -16
-6 0 -7 -7 -10 -15 -6 -9 3 -15 0 -15 -10 0 -10 -6 -14 -15 -10 -9 3 -15 0
-15 -10 0 -11 -6 -13 -20 -9 -14 4 -20 2 -20 -9 0 -10 -6 -13 -15 -10 -10 4
-15 0 -15 -11 0 -14 -3 -15 -14 -6 -12 10 -15 8 -18 -11 -2 -13 -7 -23 -13
-23 -5 0 -15 -4 -22 -8 -6 -4 -14 -1 -16 5 -4 8 -8 4 -13 -10 -4 -14 -12 -21
-20 -18 -8 3 -14 1 -14 -5 0 -6 -7 -9 -15 -5 -9 3 -15 -1 -15 -11 0 -12 -3
-13 -14 -4 -11 10 -16 8 -21 -8 -4 -12 -12 -18 -21 -14 -8 3 -14 -1 -14 -10 0
-19 -24 -29 -39 -14 -8 8 -11 5 -11 -12 0 -19 -3 -21 -14 -12 -11 9 -15 7 -19
-10 -4 -14 -11 -20 -21 -16 -10 4 -16 1 -16 -7 0 -7 -3 -27 -6 -44 -6 -27 -2
-33 27 -51 65 -40 105 -30 278 63 86 46 203 112 261 146 98 59 297 166 365
197 17 8 41 21 55 29 14 8 41 22 60 30 19 9 49 22 65 29 17 7 46 18 65 23 91
25 210 67 260 92 103 52 186 72 297 72 96 1 106 -1 165 -31 76 -39 177 -120
246 -198 113 -128 259 -272 297 -294 22 -12 76 -41 120 -64 118 -62 175 -95
223 -132 24 -18 52 -33 62 -33 10 0 72 -36 138 -80 97 -65 144 -106 245 -213
113 -120 133 -137 216 -180 51 -26 97 -45 102 -41 6 3 18 -1 27 -10 32 -28
108 -56 211 -76 127 -26 147 -35 162 -74 60 -164 56 -247 -27 -493 -52 -157
-64 -217 -64 -341 0 -76 -7 -147 -21 -214 -25 -121 -24 -334 1 -378 14 -24 15
-21 21 55 8 94 13 109 50 152 21 24 30 48 35 93 3 33 10 58 14 55 4 -3 16 -56
26 -120 16 -101 16 -129 5 -233 -9 -93 -9 -125 0 -146 7 -14 16 -26 20 -26 12
0 20 -153 10 -189 -17 -54 -4 -49 23 9 14 30 28 79 31 109 13 119 20 124 50
32 23 -70 93 -141 198 -200 77 -43 80 -43 120 -31 27 8 59 31 90 62 47 50 57
73 35 81 -10 3 -10 7 -1 19 19 22 28 105 14 121 -8 11 -7 21 4 44 12 24 13 37
5 58 -9 24 -7 32 11 52 13 12 17 23 11 23 -7 0 -12 13 -12 29 0 17 -4 33 -10
36 -15 9 -12 25 4 25 24 0 34 50 18 83 -12 23 -12 33 -2 52 7 12 13 54 14 93
0 38 4 68 7 66 3 -2 16 -34 29 -71 13 -37 29 -77 36 -88 7 -11 29 -63 48 -115
20 -52 41 -104 48 -115 52 -88 148 -332 148 -376 0 -25 28 -80 48 -95 19 -14
20 -135 2 -228 -10 -56 -24 -86 -71 -155 -100 -148 -349 -432 -418 -476 -46
-30 -101 -39 -125 -22 -16 12 -17 19 -6 75 32 159 -75 305 -248 343 -34 7 -63
7 -97 -1 -53 -12 -115 -38 -115 -49 0 -3 37 -6 83 -6 69 0 89 -4 124 -24 80
-46 110 -119 82 -199 -7 -21 -7 -41 0 -64 18 -59 63 -163 80 -181 15 -18 14
-20 -7 -37 -56 -46 -130 -64 -272 -66 -74 -1 -145 -2 -157 -3 -29 -1 -83 -48
-83 -72 0 -23 8 -23 34 -4 28 21 67 19 73 -4 6 -25 103 -34 272 -26 134 6 228
27 260 56 10 10 36 21 57 25 69 12 93 30 105 79 6 25 13 45 14 45 2 0 17 -13
33 -30 36 -36 78 -44 47 -10 -18 20 -18 22 -1 53 35 61 97 138 289 357 231
266 252 294 268 367 12 50 10 68 -10 169 -13 62 -21 120 -18 129 5 10 20 15
52 15 42 0 46 2 40 20 -4 12 -2 20 5 20 6 0 15 12 20 26 8 21 6 33 -10 59 -15
24 -17 34 -8 37 8 3 -3 22 -30 53 -23 26 -42 58 -42 71 0 12 -4 25 -9 29 -5 3
-9 18 -9 33 1 15 -7 42 -16 61 -22 42 -45 152 -46 216 -1 28 -7 83 -14 122 -7
40 -8 73 -4 73 19 0 12 392 -10 510 -18 99 -19 198 -4 227 16 27 41 -23 62
-124 18 -85 81 -271 111 -324 8 -15 24 -44 36 -66 11 -21 60 -82 107 -135 98
-110 178 -168 348 -252 62 -31 131 -67 153 -80 22 -13 99 -56 170 -95 183
-102 230 -130 315 -191 41 -29 95 -64 121 -77 84 -41 192 -189 294 -398 42
-88 135 -626 120 -696 -17 -74 -68 -63 -121 27 -69 118 -154 168 -284 167 -82
0 -142 -26 -192 -81 -37 -41 -63 -82 -53 -82 4 0 21 11 39 25 48 37 100 55
156 55 91 0 159 -45 146 -96 -12 -46 11 -77 105 -144 l91 -64 -24 -18 c-49
-37 -110 -50 -264 -57 -133 -5 -155 -9 -174 -26 -45 -40 -47 -90 -3 -55 30 24
73 27 73 5 0 -36 89 -48 265 -35 188 13 229 30 327 131 84 88 96 113 81 164
-10 31 -9 33 16 38 15 3 37 14 50 24 l22 18 -32 0 c-29 0 -33 4 -45 45 -8 25
-23 126 -34 225 -11 99 -27 234 -36 300 -8 66 -19 166 -24 222 -12 129 -28
161 -125 248 -41 37 -75 71 -75 76 0 5 9 9 20 9 17 0 19 5 14 25 -5 20 -1 27
20 36 29 13 35 29 11 29 -20 0 -19 17 1 28 15 8 14 13 -7 41 -14 19 -32 31
-45 31 -13 0 -26 5 -29 10 -3 6 -15 10 -25 10 -27 0 -70 21 -64 31 3 5 -4 9
-15 9 -11 0 -25 9 -31 20 -6 11 -19 20 -29 20 -26 0 -186 162 -253 255 -31 44
-57 84 -57 88 0 4 -9 19 -21 34 -11 14 -20 30 -20 35 0 5 -25 52 -55 104 -30
53 -55 99 -55 103 0 4 -13 17 -30 29 -16 13 -30 29 -30 37 0 8 -18 27 -40 41
-22 15 -40 30 -40 34 0 4 -11 19 -25 34 -17 18 -25 39 -25 62 0 42 27 172 40
196 6 10 10 31 10 46 0 16 3 32 7 36 8 8 27 85 44 176 22 125 52 194 96 221
18 11 33 25 33 29 0 16 61 80 76 80 8 0 17 -7 20 -15 9 -23 19 -18 39 19 13
24 23 32 37 28 10 -2 18 1 18 8 0 6 6 10 13 7 6 -2 25 2 40 10 26 13 30 13 42
-3 7 -10 10 -25 7 -33 -10 -26 17 -1 34 30 12 24 18 28 29 19 10 -8 14 -8 18
2 3 9 12 6 31 -11 14 -14 26 -20 26 -15 0 5 5 16 10 24 9 13 13 11 30 -10 l19
-25 14 34 c13 30 15 32 25 15 8 -15 13 -16 26 -5 9 7 25 11 36 8 10 -3 24 1
31 9 16 19 35 18 44 -3 6 -16 8 -15 26 7 19 25 19 25 35 5 l15 -20 15 20 c14
19 16 19 25 3 14 -25 28 -22 60 8 27 25 27 26 34 5 8 -27 33 -27 43 0 7 19 9
19 21 5 17 -20 31 -21 31 -1 0 20 17 19 29 -2 9 -16 12 -16 20 -3 10 14 27 17
126 23 22 1 50 9 63 18 17 12 33 14 63 9 33 -6 42 -4 54 13 10 15 20 18 42 13
15 -3 39 -9 52 -11 12 -3 29 -1 36 5 10 9 20 7 41 -6 26 -17 27 -17 43 2 16
19 82 26 98 10 10 -10 61 -7 68 5 5 7 13 5 25 -6 21 -19 98 -11 107 12 4 9 9
10 17 4 13 -11 115 -11 121 0 3 4 22 1 42 -6 25 -9 42 -10 50 -4 6 6 28 7 47
4 28 -6 37 -4 42 9 5 14 10 14 42 1 39 -17 72 -12 72 11 0 12 4 12 25 -2 29
-19 112 -15 125 7 6 9 12 10 22 2 7 -6 28 -14 46 -18 25 -5 33 -3 38 9 5 13 9
14 20 5 11 -9 19 -8 36 3 15 9 38 13 62 10 21 -2 41 0 45 6 4 7 19 7 49 -1 35
-9 45 -9 52 2 6 10 19 12 49 7 32 -5 41 -3 41 8 0 11 7 13 30 6 17 -5 43 -5
61 0 18 5 36 7 40 4 5 -3 15 -2 22 3 6 4 34 6 61 5 33 -2 55 3 66 13 13 11 33
15 66 13 44 -3 49 -1 52 19 3 21 5 21 25 9 12 -8 43 -18 69 -21 39 -6 49 -4
54 9 5 13 14 15 33 11 19 -4 35 1 54 15 22 17 35 20 71 15 35 -6 46 -4 53 10
8 14 13 14 37 4 20 -10 43 -10 97 -2 44 7 82 8 102 2 24 -7 33 -5 40 6 6 11
28 15 92 15 47 0 87 5 90 10 4 7 33 9 73 6 37 -2 92 0 122 4 30 4 59 4 64 -1
5 -4 18 -3 28 2 11 6 26 8 33 5 8 -3 17 -1 20 3 3 5 20 5 39 1 23 -5 36 -4 39
3 2 8 13 7 35 -2 36 -15 62 -9 62 14 0 16 15 20 24 7 5 -8 161 -25 211 -24 11
0 40 1 65 3 25 1 68 1 95 0 28 0 57 -1 65 -1 8 0 32 -3 53 -6 23 -4 43 -2 52
6 13 10 23 9 55 -5 32 -14 45 -16 67 -7 30 12 71 11 93 -3 8 -5 74 -10 147
-11 109 -2 135 0 140 11 4 12 9 12 26 3 12 -6 57 -11 101 -10 51 1 88 -4 106
-13 19 -10 50 -13 92 -11 46 3 68 -1 80 -12 14 -12 21 -12 32 -3 11 9 20 10
36 1 11 -6 51 -10 88 -9 63 2 76 0 112 -14 26 -10 44 -11 77 -3 23 5 43 2 74
-13 28 -14 47 -18 58 -11 11 6 21 4 33 -7 9 -8 33 -18 52 -23 30 -7 39 -5 50
11 11 17 15 17 25 5 7 -8 26 -14 43 -14 16 1 33 -4 36 -9 10 -15 72 -27 72
-14 0 16 42 13 84 -4 20 -9 51 -15 69 -13 18 1 43 -4 56 -11 18 -10 25 -10 31
-1 6 9 14 8 33 -5 14 -9 52 -19 84 -22 32 -3 85 -19 119 -34 72 -34 79 -35 96
-10 12 16 20 18 50 12 20 -5 40 -11 46 -15 6 -3 18 2 28 11 12 13 19 14 22 5
2 -6 11 -12 21 -12 9 0 26 -6 37 -14 25 -18 55 -23 73 -11 34 21 210 -15 252
-52 13 -11 26 -12 59 -4 24 5 46 15 51 22 5 9 12 10 21 3 17 -13 56 -15 63 -3
4 5 24 0 47 -12 22 -11 46 -18 54 -15 7 3 29 -1 48 -9 44 -18 106 -20 107 -2
0 6 4 2 9 -10 7 -18 17 -23 48 -23 21 0 43 5 50 12 9 9 17 6 36 -11 14 -13 31
-21 38 -19 7 3 32 -8 55 -24 37 -25 46 -27 65 -17 14 8 23 8 25 2 4 -12 51 -5
59 8 3 5 12 2 20 -6 28 -28 47 -19 42 20 -4 38 10 46 33 19 12 -15 14 -14 20
7 7 27 -12 80 -43 123 -17 23 -19 33 -9 47 6 10 11 24 11 30 0 24 -65 91 -133
136 -40 26 -84 59 -98 73 -15 14 -46 32 -69 40 -24 8 -53 24 -64 36 -29 31
-117 64 -170 64 -23 0 -113 16 -199 35 -185 42 -576 102 -812 125 -55 6 -130
14 -167 20 -37 5 -88 10 -114 10 -27 0 -84 5 -128 10 -45 6 -169 17 -276 25
-203 16 -301 26 -510 50 -181 21 -486 33 -1615 64 -393 10 -925 -4 -1285 -35
-432 -37 -705 -46 -1170 -40 -656 9 -1017 26 -1055 52 -13 10 -52 14 -121 14
-55 0 -127 5 -160 10 -32 6 -84 15 -114 21 -30 5 -120 26 -200 46 -80 20 -176
42 -215 50 -82 17 -218 55 -225 63 -3 4 -36 11 -75 17 -38 5 -124 22 -190 36
-253 55 -311 60 -755 64 -228 3 -514 -1 -635 -6 -121 -6 -362 -18 -535 -26
-173 -8 -389 -24 -480 -36 -128 -16 -194 -19 -295 -15 -140 7 -280 31 -306 53
-8 7 -24 13 -35 14 -10 0 -39 16 -64 35 -25 18 -76 55 -114 81 -38 26 -71 54
-73 64 -3 9 -13 21 -23 25 -22 11 -110 91 -111 102 -1 10 -139 120 -207 164
-31 21 -61 41 -67 45 -5 5 -29 17 -52 27 -23 10 -52 29 -64 42 -12 13 -28 24
-35 24 -6 0 -25 7 -40 15 -16 8 -36 15 -45 15 -9 0 -19 6 -22 13 -3 8 -40 19
-94 27 -48 7 -106 19 -128 25 -71 23 -230 24 -342 5z"/>
</g>
</svg>
