<?xml version="1.0" standalone="no"?>
<!DOCTYPE svg PUBLIC "-//W3C//DTD SVG 20010904//EN"
 "http://www.w3.org/TR/2001/REC-SVG-20010904/DTD/svg10.dtd">
<svg version="1.0" xmlns="http://www.w3.org/2000/svg"
 width="1211.000000pt" height="1536.000000pt" viewBox="0 0 1211.000000 1536.000000"
 preserveAspectRatio="xMidYMid meet">
<metadata>
Created by potrace 1.16, written by Peter Selinger 2001-2019
</metadata>
<g transform="translate(0.000000,1536.000000) scale(0.100000,-0.100000)"
fill="#000000" stroke="none">
<path d="M4575 15346 c-113 -19 -235 -65 -421 -157 -412 -203 -642 -405 -1287
-1131 -276 -311 -558 -577 -747 -707 -125 -86 -297 -181 -545 -302 -741 -361
-1410 -681 -1476 -708 -31 -12 -67 -34 -80 -48 -23 -24 -23 -25 -5 -38 10 -8
59 -24 110 -37 82 -21 112 -23 306 -22 326 2 843 46 1155 100 385 65 667 131
770 180 28 13 88 55 135 94 52 43 120 89 175 115 121 59 527 205 760 272 169
49 201 56 285 56 79 1 108 -4 172 -26 126 -43 311 -128 683 -312 395 -195 398
-197 500 -360 67 -106 211 -392 254 -505 43 -111 186 -609 292 -1015 48 -187
113 -424 144 -527 104 -347 392 -1191 465 -1363 40 -93 92 -223 116 -288 47
-128 236 -497 342 -667 136 -217 390 -549 559 -731 67 -72 84 -97 101 -150 38
-119 46 -174 46 -294 0 -109 -3 -129 -32 -214 -48 -138 -103 -237 -193 -345
-102 -122 -219 -227 -417 -373 -86 -64 -190 -143 -230 -177 -74 -60 -378 -403
-507 -569 -94 -122 -290 -419 -325 -492 -67 -140 -96 -292 -130 -675 -11 -129
-27 -284 -35 -345 -8 -60 -21 -182 -30 -270 -21 -216 -47 -379 -110 -705 -30
-151 -68 -367 -85 -479 -17 -112 -51 -312 -76 -444 -77 -413 -85 -468 -91
-622 -3 -106 0 -185 11 -270 l15 -120 -37 -33 c-20 -17 -63 -42 -95 -53 -35
-13 -69 -35 -87 -55 -66 -75 -45 -198 23 -136 69 62 98 49 95 -44 -1 -39 3
-69 11 -78 19 -23 58 -20 66 4 6 20 60 70 76 70 5 0 18 -20 29 -45 24 -56 50
-59 78 -11 11 18 39 46 63 62 53 36 77 76 89 150 7 41 18 68 40 93 17 20 52
63 78 95 51 65 166 208 351 436 65 80 194 246 288 370 153 202 201 261 204
249 0 -2 5 -224 9 -494 9 -509 18 -668 50 -820 34 -164 110 -343 171 -401 l30
-29 162 1 c149 1 172 4 280 33 165 44 194 57 206 92 8 23 16 29 38 29 15 -1
39 -7 53 -15 69 -40 92 1 41 72 -54 75 -71 83 -182 83 -83 0 -99 3 -99 16 0
35 292 747 425 1034 36 80 134 325 216 545 82 220 178 459 214 530 262 535
757 992 1012 935 74 -17 124 -49 203 -129 193 -195 405 -531 509 -807 58 -155
134 -325 271 -614 150 -315 249 -541 355 -810 29 -74 92 -223 140 -330 48
-107 93 -212 101 -233 13 -36 12 -38 -9 -46 -43 -16 -198 -31 -451 -41 -412
-18 -495 -25 -525 -47 -62 -47 -92 -133 -47 -141 10 -2 33 4 50 13 28 15 40
16 85 6 28 -6 63 -11 77 -11 15 0 41 -7 60 -16 32 -15 35 -15 64 6 26 18 39
21 73 16 126 -20 215 -26 332 -21 223 10 484 35 528 50 68 24 112 20 135 -12
18 -25 22 -26 48 -15 21 10 46 11 118 2 118 -15 765 -8 817 9 52 16 89 48 110
95 39 85 19 174 -107 498 -240 619 -302 819 -435 1423 -33 154 -86 363 -116
465 -217 734 -327 1159 -533 2045 -102 438 -155 651 -241 975 -64 242 -108
638 -80 723 10 30 17 37 39 37 34 0 127 -51 318 -173 335 -212 400 -241 554
-241 86 -1 111 2 134 17 15 10 25 24 23 30 -2 6 -37 21 -78 33 -179 50 -371
178 -714 475 -223 193 -339 279 -457 340 -77 39 -98 54 -98 71 0 11 15 59 34
107 95 238 124 437 76 534 -26 54 -59 82 -88 73 -22 -7 -38 -42 -111 -237 -60
-163 -99 -251 -136 -309 -41 -65 -49 -42 -31 96 30 222 17 549 -25 672 -39
114 -107 196 -157 190 -54 -7 -62 -33 -103 -365 -41 -323 -63 -461 -77 -475
-5 -5 -42 7 -83 26 -81 37 -419 159 -624 225 -362 117 -594 297 -940 731 -199
250 -373 545 -510 866 -58 136 -333 861 -368 969 -142 448 -271 963 -366 1465
-119 630 -143 932 -161 2000 -10 570 -18 683 -60 838 -69 254 -305 523 -577
661 -125 63 -676 216 -958 266 -124 23 -359 28 -460 11z m1798 -12611 c12
-138 0 -250 -35 -326 -45 -96 -462 -576 -614 -705 -73 -62 -84 -52 -54 48 29
97 126 349 160 418 62 123 279 432 435 619 92 111 92 111 108 -54z m4058 58
c96 -103 335 -444 479 -683 81 -134 357 -700 568 -1165 52 -116 123 -273 158
-350 35 -77 64 -148 64 -157 0 -44 -320 -87 -543 -73 l-114 7 -57 127 c-32 69
-90 196 -129 281 -38 85 -97 236 -129 335 -81 244 -245 815 -274 947 -52 245
-104 778 -75 778 4 0 28 -21 52 -47z"/>
</g>
</svg>
