<?xml version="1.0" standalone="no"?>
<!DOCTYPE svg PUBLIC "-//W3C//DTD SVG 20010904//EN"
 "http://www.w3.org/TR/2001/REC-SVG-20010904/DTD/svg10.dtd">
<svg version="1.0" xmlns="http://www.w3.org/2000/svg"
 width="873.000000pt" height="661.000000pt" viewBox="0 0 873.000000 661.000000"
 preserveAspectRatio="xMidYMid meet">
<metadata>
Created by potrace 1.16, written by Peter Selinger 2001-2019
</metadata>
<g transform="translate(0.000000,661.000000) scale(0.100000,-0.100000)"
fill="#000000" stroke="none">
<path d="M5496 6359 c3 -35 12 -86 21 -114 8 -27 28 -99 44 -160 51 -187 56
-206 98 -333 23 -68 71 -239 107 -380 107 -414 131 -503 152 -579 57 -200 121
-656 142 -1003 6 -96 14 -204 18 -240 4 -36 7 -202 7 -370 0 -249 -3 -319 -17
-380 -21 -95 -50 -179 -62 -180 -11 -1 -61 116 -70 163 -4 19 -15 46 -26 60
-11 14 -20 29 -20 34 0 5 -11 25 -26 44 -14 19 -34 52 -44 74 -18 36 -45 82
-162 273 -18 30 -76 120 -129 200 -189 289 -230 336 -634 732 -239 234 -422
398 -524 471 -36 25 -72 52 -230 172 -128 99 -129 99 -301 215 -200 134 -590
329 -855 427 -33 12 -103 38 -155 57 -126 48 -395 138 -410 138 -16 0 -120 44
-181 76 -26 13 -52 24 -58 24 -7 0 -57 23 -113 50 -56 28 -103 48 -106 46 -8
-9 91 -106 203 -199 61 -50 135 -114 165 -142 30 -28 110 -96 178 -151 68 -54
146 -118 175 -142 29 -24 79 -63 112 -88 33 -25 76 -60 95 -77 82 -75 160
-138 236 -193 167 -122 294 -222 329 -258 6 -6 28 -24 50 -41 66 -49 506 -479
625 -611 20 -21 63 -69 95 -105 101 -110 202 -225 235 -266 84 -104 113 -137
165 -193 96 -104 231 -284 300 -399 35 -58 102 -189 148 -291 115 -251 140
-368 117 -549 -23 -187 -75 -381 -136 -508 -49 -102 -144 -223 -175 -223 -29
0 -194 66 -219 87 -11 10 -33 30 -48 44 -29 28 -97 69 -113 69 -7 0 -8 -12 -4
-30 9 -41 -2 -68 -28 -72 -16 -2 -21 -9 -20 -26 2 -14 -3 -22 -12 -22 -8 0
-85 22 -172 49 -87 27 -174 52 -193 56 -19 4 -127 38 -240 75 -306 100 -442
141 -665 199 -218 57 -582 156 -680 187 -60 18 -153 45 -205 59 -52 13 -147
43 -210 66 -63 23 -140 47 -170 54 -30 7 -77 19 -105 28 -27 8 -97 29 -155 46
-58 17 -179 54 -269 81 -91 28 -169 50 -174 50 -28 0 -276 120 -478 233 -128
70 -147 80 -169 83 -8 1 -42 9 -75 18 -39 11 -100 16 -180 16 -168 0 -245 -23
-277 -83 -24 -46 87 -183 222 -274 102 -68 132 -83 220 -105 105 -28 401 -36
560 -15 69 9 138 12 173 8 31 -4 63 -4 70 1 6 4 28 5 47 2 51 -9 264 -72 316
-95 64 -27 212 -74 329 -104 55 -14 132 -35 170 -47 63 -19 146 -41 465 -124
52 -13 122 -33 155 -43 33 -11 98 -29 145 -41 83 -22 158 -44 318 -94 42 -14
120 -38 172 -55 52 -16 140 -46 195 -66 55 -19 150 -52 210 -71 61 -20 129
-45 153 -56 24 -11 58 -24 75 -29 18 -4 77 -24 132 -44 55 -20 121 -44 147
-53 61 -22 64 -26 31 -48 -25 -17 -45 -19 -170 -17 -158 2 -147 7 -143 -64 1
-28 -3 -35 -34 -50 -27 -13 -41 -14 -59 -6 -31 14 -77 6 -70 -13 3 -9 -1 -14
-12 -14 -14 0 -15 -3 -6 -14 7 -8 11 -23 9 -33 -4 -26 75 -65 122 -58 92 11
180 27 226 41 88 25 100 22 300 -72 101 -47 201 -70 273 -61 25 3 84 18 130
32 108 34 145 30 201 -21 23 -22 48 -43 56 -47 8 -4 14 -15 14 -22 0 -11 12
-15 39 -15 22 0 42 -4 45 -9 5 -8 55 -16 166 -28 147 -16 380 7 530 52 84 25
135 26 207 4 65 -20 187 -93 248 -149 40 -36 153 -113 201 -138 22 -10 68 -29
104 -41 36 -12 85 -32 110 -44 56 -26 205 -150 289 -241 71 -77 163 -165 201
-193 107 -80 347 -139 476 -118 l49 9 -50 7 c-154 24 -261 55 -225 66 8 2 21
7 29 9 28 9 -11 33 -65 40 -30 3 -54 9 -54 13 0 4 14 12 30 18 24 9 30 17 30
42 0 24 5 31 20 32 11 1 25 2 31 3 9 1 38 -44 55 -89 7 -17 9 -15 12 13 2 24
8 32 20 30 13 -2 16 3 14 24 -3 25 -1 26 25 19 30 -9 142 -67 157 -82 15 -14
26 -11 26 6 0 26 26 28 68 6 51 -26 122 -51 122 -42 0 3 -15 15 -32 26 -18 11
-48 30 -68 43 -40 25 -144 76 -177 86 -40 13 -172 89 -249 146 -251 182 -319
245 -442 405 -52 68 -79 102 -88 110 -6 5 -43 51 -83 102 -106 136 -187 201
-351 282 -47 23 -92 46 -100 51 -26 15 -88 40 -99 40 -6 0 -19 4 -29 9 -31 16
-66 30 -115 45 -99 33 -115 58 -76 130 22 42 33 57 67 91 12 12 22 27 22 33 0
6 8 19 19 29 10 10 49 54 86 98 37 44 102 117 145 163 51 53 92 109 117 157
23 45 44 75 54 75 29 0 78 132 58 156 -6 8 -6 27 1 55 13 57 6 731 -9 894 -15
156 -95 538 -172 820 -98 356 -110 397 -197 640 -67 189 -81 223 -174 425 -17
36 -43 94 -58 131 -41 99 -297 575 -325 606 -28 30 -142 197 -195 286 -28 45
-63 97 -79 116 l-29 35 4 -65z m1458 -5661 c33 -22 73 -84 61 -96 -3 -3 -13 5
-23 19 -9 13 -32 41 -50 62 -39 43 -36 46 12 15z m116 -134 c0 -17 -22 -14
-28 4 -2 7 3 12 12 12 9 0 16 -7 16 -16z m64 -40 c20 -8 21 -34 1 -34 -8 0
-15 2 -15 4 0 2 -3 11 -6 20 -7 18 -4 19 20 10z m105 -106 c10 -28 -3 -35 -25
-14 -8 9 -20 16 -25 16 -5 0 -9 5 -9 10 0 6 11 10 25 10 17 0 28 -7 34 -22z
m61 -34 c0 -10 7 -13 23 -9 18 5 25 -1 38 -32 10 -21 16 -39 14 -41 -2 -2 -17
-4 -34 -4 -38 -1 -63 18 -41 32 11 7 10 12 -10 28 -15 12 -21 25 -17 36 8 20
27 12 27 -10z m120 -65 c0 -15 5 -18 24 -13 20 5 25 0 40 -35 23 -59 22 -61
-31 -55 -53 7 -75 20 -51 29 13 5 14 13 7 38 -12 42 -11 70 1 62 6 -3 10 -15
10 -26z"/>
</g>
</svg>
