<?xml version="1.0" standalone="no"?>
<!DOCTYPE svg PUBLIC "-//W3C//DTD SVG 20010904//EN"
 "http://www.w3.org/TR/2001/REC-SVG-20010904/DTD/svg10.dtd">
<svg version="1.0" xmlns="http://www.w3.org/2000/svg"
 width="654.000000pt" height="233.000000pt" viewBox="0 0 654.000000 233.000000"
 preserveAspectRatio="xMidYMid meet">
<metadata>
Created by potrace 1.16, written by Peter Selinger 2001-2019
</metadata>
<g transform="translate(0.000000,233.000000) scale(0.100000,-0.100000)"
fill="#000000" stroke="none">
<path d="M865 2305 c-49 -14 -125 -30 -167 -35 -64 -7 -85 -15 -127 -45 -28
-20 -93 -52 -145 -70 -118 -42 -136 -54 -290 -200 -123 -117 -126 -121 -126
-163 0 -24 5 -52 11 -63 5 -11 13 -58 16 -104 3 -47 8 -83 11 -80 3 3 16 -5
29 -17 20 -19 23 -19 23 -4 0 14 4 15 20 6 16 -8 18 -8 14 4 -7 17 17 16 39
-3 13 -10 16 -9 19 11 3 21 6 20 52 -24 57 -55 101 -78 148 -77 30 0 31 1 13
12 -38 23 -95 90 -95 113 0 28 55 64 97 64 24 0 29 4 29 22 -1 14 6 24 19 27
11 3 20 13 20 21 0 8 8 14 18 14 12 -1 17 6 17 22 0 27 36 54 110 80 25 9 74
30 109 45 l64 29 -27 -32 c-45 -55 -50 -76 -47 -188 1 -58 -1 -140 -5 -184 -5
-66 -9 -79 -25 -83 -16 -5 -17 -8 -7 -21 10 -12 10 -16 1 -19 -7 -2 -9 -11 -6
-20 5 -13 2 -15 -15 -11 -23 6 -31 -7 -9 -16 8 -3 6 -10 -8 -21 -15 -12 -32
-15 -62 -11 -35 5 -41 3 -36 -10 3 -8 19 -18 34 -21 31 -6 50 -24 31 -31 -6
-2 -8 -10 -5 -19 4 -10 2 -14 -4 -10 -5 3 -10 -1 -10 -9 0 -9 13 -18 29 -21
15 -3 28 -9 28 -13 0 -4 19 -4 43 1 23 4 80 8 127 9 120 1 127 8 132 130 4
135 41 209 172 344 l95 99 68 -55 c37 -30 111 -78 163 -106 52 -28 122 -73
155 -99 51 -42 64 -59 87 -118 15 -39 32 -88 38 -111 5 -22 28 -69 51 -104 36
-56 40 -67 33 -104 -9 -53 -168 -379 -207 -423 -33 -38 -92 -71 -177 -98 -30
-10 -68 -31 -84 -47 -31 -31 -28 -52 3 -24 19 17 20 17 31 -3 14 -26 30 -26
81 0 53 26 59 19 14 -16 -41 -31 -41 -42 -1 -23 21 9 37 9 72 0 35 -10 51 -9
81 2 21 8 59 20 85 27 45 13 68 37 68 73 0 8 15 23 33 33 24 14 46 45 82 117
30 59 82 136 132 197 45 55 87 107 92 117 9 15 15 12 57 -28 61 -59 78 -98 64
-149 -17 -63 -159 -349 -192 -387 -34 -39 -93 -71 -178 -99 -30 -10 -68 -31
-84 -47 -31 -31 -28 -52 3 -24 19 17 20 17 31 -3 14 -26 30 -26 81 0 53 26 59
19 14 -16 -41 -31 -41 -42 -1 -23 21 9 37 9 72 0 35 -10 51 -9 81 2 21 8 59
20 85 27 45 13 68 37 68 73 0 8 15 23 33 33 24 14 46 45 82 117 31 60 82 136
134 199 99 120 120 162 121 237 0 44 -6 64 -30 100 -19 29 -26 48 -20 54 6 6
74 9 167 7 87 -2 192 -4 233 -5 88 -1 92 -7 65 -93 -10 -32 -15 -69 -12 -89 7
-41 79 -192 119 -248 19 -26 26 -46 22 -61 -3 -13 -1 -26 5 -29 6 -4 11 -11
11 -16 0 -14 -71 -46 -161 -74 -77 -23 -132 -57 -117 -72 4 -3 21 2 38 11 31
16 33 16 54 -4 29 -27 47 -26 92 4 43 29 64 33 41 7 -27 -29 -21 -45 8 -26 24
16 27 15 44 0 15 -14 29 -16 65 -11 26 4 49 11 52 16 7 13 72 39 95 39 23 0
49 37 49 72 0 15 -11 71 -25 125 -14 54 -25 115 -25 136 0 21 -6 50 -14 65
-14 27 -12 30 37 92 96 118 121 140 160 140 43 0 148 -68 258 -166 82 -74 116
-94 204 -119 86 -25 107 -37 184 -115 38 -38 94 -83 124 -100 61 -34 73 -46
110 -112 15 -26 36 -53 46 -60 26 -19 43 -56 36 -78 -7 -23 -54 -50 -86 -50
-47 0 -154 -68 -136 -86 4 -4 17 0 31 9 22 15 25 15 41 -3 17 -19 18 -19 67 0
l51 19 -24 -26 -24 -26 25 8 c14 4 38 7 53 7 16 -1 41 6 55 15 17 11 23 12 15
3 -7 -8 -13 -20 -13 -27 0 -11 4 -11 20 -1 15 10 22 10 32 0 23 -23 53 -13 91
32 20 25 49 51 65 58 21 11 27 20 26 45 -2 32 -67 149 -129 230 -31 40 -64
113 -109 236 -36 97 -183 217 -266 217 -29 0 -29 1 -86 163 -19 53 -34 108
-34 122 0 13 -4 35 -10 50 l-10 26 68 -6 c242 -21 469 -100 632 -221 120 -89
182 -148 298 -283 112 -130 193 -203 200 -182 4 11 -167 274 -276 426 -167
231 -512 523 -857 725 -149 87 -462 244 -573 287 -60 23 -87 26 -252 33 -224
9 -388 38 -628 112 -310 94 -277 89 -592 97 -157 4 -305 4 -330 0 -106 -18
-521 -1 -676 27 -149 27 -200 26 -299 -1z"/>
</g>
</svg>
