<?xml version="1.0" standalone="no"?>
<!DOCTYPE svg PUBLIC "-//W3C//DTD SVG 20010904//EN"
 "http://www.w3.org/TR/2001/REC-SVG-20010904/DTD/svg10.dtd">
<svg version="1.0" xmlns="http://www.w3.org/2000/svg"
 width="1536.000000pt" height="251.000000pt" viewBox="0 0 1536.000000 251.000000"
 preserveAspectRatio="xMidYMid meet">
<metadata>
Created by potrace 1.16, written by Peter Selinger 2001-2019
</metadata>
<g transform="translate(0.000000,251.000000) scale(0.100000,-0.100000)"
fill="#000000" stroke="none">
<path d="M323 2495 c-29 -8 -85 -30 -125 -49 -148 -71 -233 -199 -182 -276 20
-30 126 -140 135 -140 3 0 25 -18 50 -41 24 -22 45 -35 47 -29 3 7 11 5 24 -7
20 -18 21 -18 16 20 -2 20 0 37 5 37 4 0 7 10 5 22 -2 12 7 33 18 46 12 13 28
32 36 42 20 23 88 36 99 18 6 -10 11 -8 23 7 14 19 15 19 22 -9 6 -26 8 -27
19 -13 16 22 25 21 25 -2 0 -26 18 -37 26 -17 9 24 21 19 32 -11 9 -27 9 -28
16 -5 10 30 26 28 26 -3 0 -27 15 -34 24 -10 8 22 26 18 26 -7 0 -20 1 -21 20
-3 11 10 20 16 21 14 0 -2 2 -14 3 -26 4 -33 13 -38 26 -14 13 26 30 27 30 3
0 -10 6 -27 14 -38 14 -18 15 -18 21 9 10 37 35 35 35 -3 0 -36 16 -39 32 -5
14 32 24 32 32 -1 l7 -25 18 22 18 22 12 -34 13 -34 13 30 13 30 12 -30 12
-30 10 28 c11 30 38 37 38 10 0 -16 1 -16 17 0 17 17 18 16 29 -15 l12 -33 11
28 c11 28 31 29 31 1 0 -8 5 -14 10 -14 6 0 10 9 10 20 0 11 5 20 10 20 6 0
10 -6 10 -14 0 -7 6 -19 14 -25 11 -9 15 -6 20 14 7 29 21 33 30 8 6 -15 8
-14 20 2 13 18 14 18 20 -3 9 -28 22 -28 30 1 6 20 7 21 20 5 12 -17 14 -16
24 5 l11 22 7 -22 c8 -29 21 -29 29 -2 5 15 10 17 20 9 9 -8 15 -8 20 0 4 6
14 2 25 -12 l19 -23 1 22 c0 18 5 22 33 20 17 -2 37 -6 44 -10 7 -4 16 0 22
10 9 16 12 16 21 3 7 -12 10 -12 10 -1 0 7 6 11 13 8 8 -3 43 1 78 9 35 7 84
13 109 14 42 0 146 -22 157 -34 11 -11 -20 -77 -45 -94 -15 -10 -79 -45 -142
-78 -63 -32 -118 -63 -121 -68 -4 -5 -14 -6 -22 -3 -11 4 -18 -1 -22 -14 -5
-14 -13 -19 -26 -16 -11 3 -23 -2 -30 -11 -7 -12 -12 -14 -15 -4 -9 19 -24 14
-24 -8 0 -23 -10 -26 -28 -8 -9 9 -12 7 -12 -11 0 -16 -5 -21 -17 -19 -10 2
-23 -3 -30 -12 -10 -13 -13 -13 -25 3 -13 18 -15 17 -26 -8 -12 -27 -13 -27
-27 -9 -14 18 -15 18 -21 -3 -7 -25 -19 -29 -30 -11 -5 7 -12 5 -22 -8 -10
-13 -16 -15 -19 -6 -7 17 -23 15 -23 -3 0 -20 -17 -19 -29 3 -9 15 -11 14 -19
-8 -9 -22 -11 -23 -17 -7 -10 23 -25 22 -25 -3 0 -27 -16 -25 -25 3 -6 22 -7
21 -17 -5 -9 -27 -28 -39 -28 -18 0 6 -4 10 -10 10 -5 0 -10 -7 -10 -15 0 -23
-16 -18 -28 11 -13 27 -32 24 -32 -5 0 -29 -13 -33 -27 -9 l-13 23 -6 -22 c-6
-23 -24 -32 -24 -13 0 6 -4 10 -10 10 -5 0 -10 -7 -10 -15 0 -8 -5 -15 -10
-15 -6 0 -13 7 -16 15 -9 21 -21 18 -27 -7 -5 -17 -9 -19 -21 -9 -11 9 -16 9
-22 0 -5 -9 -10 -7 -20 5 -11 16 -13 16 -18 -1 -6 -20 -46 -26 -58 -9 -5 7
-13 4 -22 -9 -14 -20 -15 -20 -29 -1 -12 17 -14 17 -20 2 -9 -23 -23 -20 -31
7 l-7 22 -11 -22 c-12 -24 -28 -31 -28 -12 0 8 -5 8 -15 -1 -12 -10 -18 -10
-30 0 -9 7 -15 8 -15 2 0 -5 -23 -10 -50 -10 -49 -1 -52 1 -92 51 -43 54 -45
51 -22 -30 5 -17 2 -23 -9 -23 -9 0 -19 4 -22 10 -3 5 -14 14 -23 19 -15 8
-17 1 -17 -68 0 -58 5 -84 19 -105 l18 -29 127 7 c272 14 577 43 835 78 167
23 171 22 276 -17 30 -11 97 -20 205 -25 131 -7 208 -18 410 -59 138 -27 291
-55 340 -61 151 -19 425 2 600 46 124 32 182 29 290 -15 43 -18 109 -41 145
-51 36 -10 103 -30 150 -45 127 -40 259 -75 281 -75 10 0 56 -14 103 -32 l83
-31 12 -66 c18 -96 87 -291 179 -498 132 -299 173 -363 243 -384 46 -14 62 -5
33 19 -21 16 -44 53 -44 69 0 4 26 -18 58 -49 77 -76 115 -92 167 -72 13 5 9
11 -21 28 -21 12 -51 44 -72 76 -34 54 -34 55 -6 29 61 -56 105 -79 153 -79
42 0 82 13 71 23 -3 2 -16 8 -31 13 -21 8 -181 164 -167 164 3 0 40 -16 82
-35 42 -20 81 -33 87 -29 7 4 -23 41 -72 91 l-84 84 38 -6 c29 -6 37 -4 37 8
0 18 -41 49 -138 108 -93 54 -109 75 -116 147 -13 124 -28 230 -42 283 -8 31
-14 59 -14 63 0 3 105 3 233 0 133 -3 288 0 362 6 237 20 390 32 415 32 23 1
169 13 463 38 60 6 112 12 117 15 4 3 45 7 91 10 46 2 100 9 119 16 19 6 62
13 95 15 33 2 89 10 125 19 126 29 226 48 305 56 44 4 93 12 108 18 16 6 46
11 67 11 21 0 84 9 140 20 160 31 158 32 206 -53 60 -105 122 -182 216 -273
85 -82 168 -130 324 -190 144 -54 374 -94 545 -94 l90 0 41 -88 c120 -259 162
-351 175 -392 27 -84 42 -109 84 -140 55 -39 73 -40 53 -2 -7 15 -14 41 -14
57 0 29 2 28 28 -20 20 -37 40 -57 77 -77 71 -39 79 -35 45 19 -17 26 -30 58
-30 71 0 24 1 24 44 -12 56 -45 89 -58 132 -50 48 9 50 20 7 41 -44 21 -81 87
-82 146 -1 37 -1 37 38 37 22 0 43 5 47 11 3 6 -28 44 -73 87 -90 88 -121 141
-157 267 -49 175 -108 309 -151 345 -8 7 -15 19 -15 27 0 7 -7 16 -15 19 -8 3
-17 13 -20 22 -12 39 -186 119 -295 137 -24 4 -51 11 -60 16 -21 11 -180 38
-270 44 -41 4 -90 8 -107 11 l-33 5 0 64 0 65 293 0 c160 0 398 -5 527 -10
301 -12 2353 -30 3455 -30 1743 0 2738 37 2997 110 46 13 55 26 34 49 -9 10
-14 25 -11 34 9 21 -9 29 -39 17 -29 -11 -31 -8 -16 21 15 28 -13 36 -56 16
l-33 -16 11 25 c18 39 -2 52 -47 31 l-34 -16 5 28 c8 39 -4 43 -54 21 -41 -19
-42 -19 -32 0 29 54 -15 68 -77 25 -20 -13 -38 -23 -40 -21 -2 2 1 15 7 30 5
15 10 32 10 38 0 17 -60 1 -102 -27 -41 -27 -48 -19 -23 25 34 60 0 64 -88 9
l-49 -29 21 34 c22 35 27 71 11 81 -12 8 -76 -20 -117 -51 -36 -27 -40 -23
-18 16 8 14 14 36 15 49 0 22 -3 23 -45 18 -25 -2 -68 -16 -95 -30 l-49 -26
27 49 c25 45 26 50 11 65 -15 15 -20 14 -69 -4 -29 -11 -70 -32 -91 -46 -45
-29 -46 -28 -20 17 26 45 32 70 22 87 -12 19 -99 -11 -157 -55 -49 -38 -52
-35 -24 27 22 50 26 89 8 89 -22 0 -132 -56 -147 -74 -8 -9 -22 -21 -32 -27
-16 -8 -15 -2 7 57 26 69 25 84 -5 84 -25 0 -134 -73 -166 -111 -14 -17 -25
-29 -25 -27 0 2 16 39 35 83 32 74 33 80 16 83 -25 4 -94 -31 -155 -79 -27
-22 -51 -37 -53 -35 -3 2 14 37 38 76 50 85 46 98 -30 80 -55 -13 -150 -66
-194 -108 l-28 -27 10 27 c5 15 21 49 36 77 29 57 31 79 10 87 -25 10 -115
-27 -196 -81 l-78 -52 15 36 c29 67 34 82 34 103 0 18 -4 19 -37 13 -59 -11
-114 -43 -176 -104 l-58 -56 35 77 c20 43 33 85 30 93 -15 39 -127 -4 -214
-82 l-50 -45 30 71 c17 38 30 77 30 85 0 49 -141 -9 -225 -91 -49 -49 -50 -41
-5 46 11 22 20 49 20 61 0 56 -157 -10 -219 -92 -44 -59 -52 -48 -16 22 35 69
31 96 -13 92 -49 -4 -89 -28 -154 -93 -32 -31 -58 -56 -58 -53 0 2 11 29 25
60 26 60 25 94 -3 94 -33 -1 -106 -41 -174 -96 l-68 -55 19 48 c27 70 30 107
9 111 -29 6 -119 -42 -183 -96 -33 -28 -61 -50 -62 -48 -2 1 8 35 22 75 14 40
23 76 20 82 -20 31 -121 -8 -214 -81 l-52 -41 26 50 c41 81 32 97 -42 76 -45
-14 -87 -40 -146 -93 -22 -18 -40 -32 -43 -30 -2 2 4 27 13 56 11 33 13 56 7
62 -21 21 -171 -36 -250 -97 l-34 -25 0 51 0 51 -46 0 c-33 0 -70 -11 -130
-39 l-84 -40 3 32 c2 31 0 32 -40 35 -36 3 -98 -19 -185 -66 -4 -2 -8 9 -10
25 -3 27 -5 28 -58 27 -34 -1 -79 -11 -117 -27 l-63 -26 0 23 c0 52 -59 57
-169 16 -67 -26 -71 -25 -71 10 0 18 -6 33 -15 36 -8 4 -54 -6 -101 -21 -88
-27 -114 -27 -114 -1 0 26 -16 27 -106 6 l-88 -21 -21 27 -21 26 -78 -16 c-98
-20 -115 -20 -138 1 -21 19 -52 19 -166 2 -65 -11 -74 -10 -92 6 -16 14 -29
16 -82 10 -78 -9 -358 -5 -693 11 -60 3 -155 6 -210 7 -55 1 -105 5 -111 9 -7
4 -101 7 -210 7 -110 -1 -206 1 -214 4 -20 7 -474 28 -578 27 -46 -1 -89 3
-96 9 -8 7 -88 10 -232 8 -120 -2 -229 0 -241 4 -12 5 -62 5 -110 0 -48 -4
-93 -4 -99 1 -6 4 -110 7 -230 6 -121 -1 -225 2 -233 6 -7 5 -58 5 -112 1 -72
-5 -104 -3 -114 5 -11 9 -38 10 -97 4 -46 -4 -171 -7 -278 -7 -107 1 -214 -2
-238 -7 -26 -5 -45 -4 -49 3 -4 6 -37 7 -92 2 -47 -4 -124 -9 -171 -10 -47 -2
-106 -7 -132 -13 -29 -6 -50 -6 -56 0 -6 6 -44 5 -103 -2 -52 -7 -103 -11
-114 -10 -28 4 -25 4 -560 -4 -461 -7 -684 -9 -695 -5 -3 1 -34 3 -70 5 -145
8 -374 29 -415 38 -16 4 -49 1 -73 -7 -31 -9 -65 -11 -125 -5 -85 8 -105 12
-222 48 -82 25 -110 19 -145 -29 -12 -17 -28 -31 -36 -31 -8 0 -33 -17 -57
-39 -56 -52 -84 -64 -207 -95 -214 -54 -410 -57 -615 -9 -119 28 -215 71 -340
153 -113 73 -204 93 -302 65z"/>
</g>
</svg>
