<?xml version="1.0" standalone="no"?>
<!DOCTYPE svg PUBLIC "-//W3C//DTD SVG 20010904//EN"
 "http://www.w3.org/TR/2001/REC-SVG-20010904/DTD/svg10.dtd">
<svg version="1.0" xmlns="http://www.w3.org/2000/svg"
 width="1536.000000pt" height="575.000000pt" viewBox="0 0 1536.000000 575.000000"
 preserveAspectRatio="xMidYMid meet">
<metadata>
Created by potrace 1.16, written by Peter Selinger 2001-2019
</metadata>
<g transform="translate(0.000000,575.000000) scale(0.100000,-0.100000)"
fill="#000000" stroke="none">
<path d="M7630 5743 c-581 -42 -818 -66 -1080 -108 -279 -45 -343 -52 -595
-67 -280 -16 -1414 -16 -1595 0 -127 11 -249 17 -910 42 -297 12 -601 32 -855
56 -223 22 -686 30 -871 15 -220 -18 -458 -72 -577 -132 -23 -12 -85 -25 -160
-34 -224 -27 -372 -85 -597 -235 -158 -106 -324 -266 -364 -353 l-27 -57 21
-86 c38 -163 141 -308 290 -410 38 -26 70 -55 70 -63 0 -64 179 -262 290 -321
57 -31 74 -35 140 -35 102 0 201 33 287 96 75 56 143 90 227 114 48 14 84 16
180 12 140 -6 276 -37 481 -112 177 -64 797 -330 975 -418 168 -83 506 -301
514 -332 3 -11 6 -111 6 -223 0 -111 5 -246 11 -300 12 -113 51 -308 73 -372
9 -25 16 -48 16 -52 0 -4 -19 -20 -42 -35 -96 -60 -217 -167 -473 -421 -149
-147 -307 -302 -351 -345 -117 -112 -171 -221 -198 -403 -11 -68 -24 -111 -55
-172 -72 -143 -84 -227 -55 -370 24 -116 124 -292 174 -305 26 -7 38 10 42 63
l3 44 26 -40 c33 -49 126 -151 150 -164 27 -15 48 -1 55 37 5 25 17 41 45 60
l39 26 46 -39 c25 -22 58 -47 73 -57 46 -28 80 -2 61 47 -7 20 -4 31 20 61 16
20 32 45 35 56 6 18 8 18 43 -6 43 -29 46 -30 66 -9 12 11 14 26 10 55 -5 29
-2 46 12 66 15 22 19 46 19 108 0 73 -4 87 -38 154 l-38 73 75 162 c41 88 80
179 85 202 6 22 21 49 33 61 43 38 264 168 482 283 324 171 410 252 442 421 8
46 35 129 58 184 65 151 75 180 112 314 19 68 36 126 39 129 5 5 233 -163 351
-259 l70 -57 12 -127 c7 -70 32 -226 57 -348 46 -229 105 -632 105 -715 0 -61
-43 -230 -75 -292 -29 -58 -39 -64 -154 -97 -47 -13 -104 -35 -127 -48 -54
-32 -182 -168 -189 -202 -4 -16 -15 -53 -26 -83 -28 -78 -36 -172 -16 -188 13
-11 24 -10 63 7 64 29 107 28 128 -4 9 -13 31 -32 49 -41 40 -21 47 -31 47
-69 1 -86 38 -107 97 -55 49 44 123 76 203 90 36 6 93 20 128 32 55 19 67 20
95 9 18 -7 42 -15 55 -18 15 -4 35 -27 59 -69 20 -35 44 -66 52 -69 18 -7 65
41 93 93 15 27 23 32 55 32 55 0 113 18 151 47 48 36 108 26 208 -38 43 -27
83 -49 90 -49 21 0 31 24 38 85 5 46 13 66 34 88 62 65 22 201 -113 383 -71
95 -99 165 -116 294 -17 127 4 363 51 600 47 234 85 586 84 785 0 200 1 195
-123 425 -45 83 -81 152 -81 154 0 3 15 0 33 -6 18 -6 152 -13 302 -15 437 -8
608 19 1250 198 596 166 682 184 885 183 112 0 192 -7 289 -23 154 -26 343
-71 415 -99 l49 -19 2 -324 c2 -369 2 -373 125 -954 83 -391 87 -420 73 -559
-21 -202 -98 -349 -253 -483 l-84 -73 -66 0 c-122 0 -175 -15 -277 -77 -112
-67 -156 -114 -213 -227 -36 -71 -41 -88 -30 -101 7 -8 21 -15 32 -15 14 0 18
-5 14 -17 -21 -75 -17 -123 9 -123 8 0 30 14 48 30 19 17 46 30 59 30 22 0 28
-8 42 -57 10 -32 19 -64 22 -70 5 -17 22 -16 74 2 23 8 98 18 166 21 l124 7 0
-30 c0 -45 21 -67 56 -59 16 4 97 13 180 20 l152 12 103 52 c57 28 146 63 197
76 108 29 166 60 240 129 97 92 131 193 182 535 41 269 73 443 115 622 55 233
58 268 51 550 -5 234 -16 335 -41 392 -6 15 5 23 60 48 37 16 72 30 78 30 7 0
23 -39 35 -88 13 -48 30 -111 38 -140 21 -74 93 -207 188 -345 148 -214 146
-212 309 -400 128 -148 202 -249 288 -394 112 -188 112 -188 117 -281 4 -77 3
-85 -19 -109 -24 -25 -25 -25 -132 -19 -178 9 -233 -22 -368 -207 -130 -178
-153 -248 -77 -232 26 6 28 4 28 -25 0 -44 30 -53 94 -29 61 23 128 33 161 25
22 -6 25 -12 25 -50 0 -29 6 -48 18 -59 25 -23 33 -22 81 13 l42 31 80 -12
c69 -11 89 -10 154 5 41 10 111 35 155 57 119 57 151 53 200 -25 38 -63 81
-57 100 13 7 27 19 41 42 53 65 31 132 94 161 150 15 30 27 64 27 76 0 11 5
24 10 27 6 3 10 15 10 25 0 10 14 53 31 96 39 96 47 191 26 291 -17 77 -50
153 -151 338 -93 170 -120 241 -176 455 -70 269 -115 386 -281 737 -22 45 -39
86 -39 92 0 6 21 44 46 86 59 97 114 224 159 369 20 64 39 116 41 116 2 0 25
-8 51 -19 26 -10 107 -35 178 -55 214 -61 183 -43 615 -351 701 -501 1020
-660 1543 -770 372 -79 872 -97 1067 -39 85 25 112 86 65 142 -35 42 -83 58
-278 92 -328 58 -619 131 -782 195 -226 89 -509 262 -790 481 -422 329 -719
589 -1090 954 -441 434 -580 565 -721 681 -157 128 -463 353 -621 456 -232
151 -627 357 -858 448 -182 71 -574 200 -714 234 -249 61 -757 123 -1156 141
-203 9 -590 11 -695 3z"/>
</g>
</svg>
