<?xml version="1.0" standalone="no"?>
<!DOCTYPE svg PUBLIC "-//W3C//DTD SVG 20010904//EN"
 "http://www.w3.org/TR/2001/REC-SVG-20010904/DTD/svg10.dtd">
<svg version="1.0" xmlns="http://www.w3.org/2000/svg"
 width="1536.000000pt" height="454.000000pt" viewBox="0 0 1536.000000 454.000000"
 preserveAspectRatio="xMidYMid meet">
<metadata>
Created by potrace 1.16, written by Peter Selinger 2001-2019
</metadata>
<g transform="translate(0.000000,454.000000) scale(0.100000,-0.100000)"
fill="#000000" stroke="none">
<path d="M5574 4510 c-32 -16 -66 -35 -75 -41 -13 -10 -22 -8 -45 9 -39 28
-111 44 -138 30 -12 -6 -37 -26 -57 -44 l-35 -35 -39 31 c-21 16 -45 30 -54
30 -21 0 -132 -53 -171 -81 l-30 -23 -63 20 -63 21 -71 -31 c-38 -17 -77 -37
-85 -43 -34 -28 -62 -31 -97 -10 -18 11 -46 20 -61 19 -33 -1 -190 -78 -190
-93 0 -5 -15 -16 -32 -24 -27 -11 -37 -11 -58 0 -16 8 -48 10 -89 7 -53 -4
-73 -11 -112 -39 -26 -18 -54 -45 -63 -58 -16 -24 -21 -25 -112 -25 -91 0 -98
-2 -139 -31 -23 -17 -48 -42 -56 -55 -12 -23 -16 -24 -70 -18 -32 4 -82 3
-111 0 -53 -7 -55 -8 -122 -92 -47 -58 -74 -83 -85 -80 -100 30 -111 30 -143
0 -48 -45 -88 -105 -88 -131 l0 -24 -35 26 c-22 18 -41 25 -54 20 -21 -6 -110
-120 -132 -168 -11 -24 -14 -25 -28 -13 -20 16 -98 36 -117 29 -22 -8 -84
-115 -84 -145 0 -34 -19 -36 -81 -8 -24 11 -49 20 -54 20 -15 0 -95 -124 -95
-148 0 -40 -23 -34 -79 22 -31 31 -61 56 -67 56 -19 0 -112 -105 -118 -134 -9
-38 -22 -24 -37 39 -6 28 -13 56 -15 63 -4 16 -103 -32 -122 -60 -18 -25 -27
-17 -42 38 l-13 46 -44 -6 c-23 -3 -54 -8 -66 -12 -21 -5 -27 1 -48 51 l-24
57 -63 -5 c-47 -4 -62 -1 -62 8 0 8 -12 27 -26 44 -21 25 -34 31 -64 31 -21 0
-50 -4 -65 -10 -24 -9 -31 -5 -78 45 -51 54 -52 55 -92 46 -22 -5 -70 -13
-107 -16 l-68 -7 6 30 c4 17 1 32 -5 36 -6 4 -48 -6 -94 -22 -45 -16 -118 -34
-162 -41 -225 -32 -274 -53 -435 -187 -47 -38 -121 -96 -165 -129 -136 -99
-167 -137 -181 -223 -6 -39 -4 -43 43 -91 27 -28 62 -55 77 -61 43 -16 145
-12 258 10 143 28 409 53 493 46 136 -11 243 -55 500 -206 359 -211 632 -330
949 -416 166 -45 228 -69 254 -97 11 -12 34 -59 51 -105 17 -46 55 -121 85
-166 l55 -82 24 -320 25 -319 -123 -185 c-137 -206 -315 -461 -390 -560 -28
-36 -83 -120 -123 -187 -72 -120 -108 -160 -181 -198 -37 -19 -81 -62 -81 -79
0 -11 110 -20 256 -21 57 0 76 4 93 19 17 15 23 16 36 6 29 -24 64 -3 89 53
16 34 25 45 25 31 1 -12 8 -27 16 -34 24 -20 52 13 66 79 15 74 116 285 159
335 19 21 91 88 160 148 170 149 367 344 395 393 36 60 46 144 52 427 4 181 9
258 17 258 10 0 265 -253 324 -321 17 -20 25 -50 37 -135 8 -60 28 -201 44
-314 16 -113 37 -286 46 -385 9 -99 22 -216 30 -260 7 -44 17 -105 21 -135 3
-30 12 -66 19 -80 18 -35 96 -120 111 -120 7 0 12 17 12 43 1 23 2 54 4 69 l3
28 38 -45 c45 -53 84 -62 71 -17 -4 15 -7 44 -5 64 1 21 -5 53 -13 73 -17 39
-9 45 19 15 10 -11 29 -20 42 -20 19 0 23 5 23 33 0 17 -11 56 -25 85 -31 67
-31 70 0 64 37 -7 33 23 -15 116 -22 42 -45 101 -50 131 -23 122 -4 601 30
780 11 61 -1 139 -30 188 l-19 33 152 0 c557 0 1180 99 1827 290 l134 39 56
-49 c30 -28 124 -107 209 -177 171 -141 277 -256 287 -310 4 -20 4 -74 1 -122
-7 -117 -34 -186 -104 -262 -59 -64 -220 -189 -300 -235 -97 -55 -115 -71
-169 -145 -59 -85 -147 -170 -203 -199 -70 -36 -121 -80 -151 -132 -52 -92
-37 -112 59 -79 48 16 66 18 90 10 27 -9 29 -13 20 -35 -5 -14 -9 -39 -9 -56
0 -29 2 -30 30 -25 16 4 53 22 81 42 28 19 59 35 69 35 15 0 42 16 160 96 101
69 100 68 113 50 17 -23 36 -13 75 40 22 30 50 52 80 65 26 11 50 26 54 32 5
7 19 48 33 93 14 44 38 100 53 125 42 66 166 193 285 293 155 129 182 177 182
326 0 114 -8 132 -126 287 -78 102 -139 207 -127 218 3 3 40 -19 81 -48 103
-74 244 -145 542 -272 488 -208 600 -276 664 -404 16 -31 65 -115 108 -187 73
-120 81 -138 97 -226 18 -96 18 -144 -1 -325 -7 -66 -12 -76 -48 -113 -55 -57
-102 -79 -206 -96 -49 -8 -107 -20 -128 -28 -90 -31 -173 -98 -156 -126 8 -13
56 -13 91 0 18 7 30 7 40 0 9 -8 107 -10 316 -8 l304 4 37 34 c62 56 77 88 78
171 2 112 9 133 44 139 27 5 30 10 33 44 2 22 -3 58 -11 80 -8 23 -18 60 -21
84 -4 24 -26 83 -50 131 -47 93 -60 149 -71 296 -19 257 -50 310 -300 510 -77
62 -158 132 -180 156 -39 42 -296 353 -323 389 -11 15 -6 23 37 66 34 34 55
67 71 112 25 69 44 85 141 121 46 18 70 36 132 104 71 79 81 86 183 131 258
114 478 171 844 220 299 40 351 42 447 13 l83 -24 52 20 c29 10 82 30 118 43
83 30 93 30 202 -6 100 -33 94 -34 178 25 39 27 51 30 120 30 68 0 80 -3 108
-27 39 -33 130 -63 164 -55 14 4 46 25 72 48 37 33 71 50 149 76 56 18 117 33
136 33 18 0 70 -17 115 -37 56 -26 100 -38 142 -41 60 -4 61 -4 120 44 110 90
173 105 262 61 124 -62 183 -57 284 24 57 45 66 50 98 44 20 -4 52 -23 76 -45
54 -50 128 -74 197 -65 86 12 153 42 190 86 46 53 69 51 133 -12 l52 -52 94
-4 93 -5 51 41 c29 22 54 41 56 41 2 0 20 -14 39 -31 45 -40 141 -89 176 -89
15 0 56 18 91 40 34 22 66 40 71 40 4 0 16 -9 25 -19 10 -11 48 -32 84 -46 36
-15 79 -36 94 -47 27 -19 30 -19 78 -3 28 9 63 30 79 46 16 16 32 29 35 29 3
0 42 -36 88 -80 79 -76 85 -80 128 -80 58 1 122 30 151 69 26 36 64 42 74 11
10 -30 81 -86 141 -110 l54 -22 55 41 c49 37 58 41 95 35 31 -5 44 -14 59 -39
15 -25 33 -37 82 -54 78 -26 93 -26 118 0 26 28 62 22 79 -14 9 -19 32 -37 65
-53 65 -30 107 -31 114 -4 8 29 25 25 45 -10 10 -17 33 -37 52 -45 34 -14 66
-12 66 6 0 4 19 -1 43 -11 69 -32 100 -23 57 15 -13 12 -18 25 -14 40 5 22
-16 78 -35 90 -5 3 -29 1 -52 -4 -61 -14 -89 1 -82 44 5 28 0 39 -34 75 l-39
43 -56 -17 c-31 -9 -67 -16 -80 -16 -21 0 -24 4 -20 33 5 43 -34 101 -70 105
-15 2 -57 -6 -95 -18 -48 -15 -81 -19 -110 -15 -41 6 -43 8 -43 41 0 25 -9 44
-37 75 -36 39 -39 41 -83 35 -25 -3 -77 -16 -117 -27 -57 -17 -81 -20 -120
-13 l-48 9 3 41 c3 37 -1 43 -56 96 -33 31 -71 60 -85 63 -33 9 -116 -29 -176
-79 -44 -37 -76 -50 -106 -44 -15 3 -15 6 4 30 30 37 26 59 -17 101 -54 53
-94 48 -222 -28 -55 -32 -118 -49 -136 -37 -5 4 -24 30 -42 58 -55 88 -56 88
-158 69 -48 -9 -109 -27 -135 -41 -27 -13 -52 -24 -56 -24 -4 0 -18 18 -31 40
-13 23 -46 55 -76 75 l-52 35 -70 -20 c-38 -12 -84 -26 -102 -32 -19 -5 -49
-24 -68 -40 l-34 -30 -20 25 c-11 13 -50 42 -87 65 -38 22 -76 49 -86 60 -18
20 -18 20 -115 -5 -53 -13 -114 -35 -134 -49 -27 -17 -51 -24 -88 -24 -27 0
-50 4 -50 10 0 13 -91 64 -172 96 l-68 27 -63 -17 c-39 -11 -83 -32 -116 -57
-98 -74 -134 -77 -240 -15 -42 25 -88 47 -102 51 -26 6 -150 -37 -217 -76 -46
-27 -81 -24 -117 9 -16 16 -61 47 -98 70 l-68 42 -42 -24 c-32 -19 -163 -66
-182 -66 -2 0 -22 29 -44 65 -34 54 -46 65 -69 65 -26 0 -111 -21 -240 -61
-90 -28 -106 -25 -160 24 -78 71 -188 147 -213 147 -13 0 -64 -11 -114 -25
-49 -14 -102 -25 -117 -25 -36 0 -185 71 -245 117 l-47 36 -62 -12 c-91 -16
-121 -14 -134 9 -6 11 -43 37 -83 57 -71 36 -74 37 -207 39 l-134 3 -16 32
c-11 24 -44 49 -134 101 -111 65 -121 68 -162 62 -25 -3 -82 -3 -129 1 -67 5
-85 10 -90 24 -4 15 -99 88 -184 143 -20 13 -57 19 -140 23 l-114 5 -58 55
c-60 58 -77 63 -139 45 -69 -20 -162 -31 -174 -21 -6 6 -49 26 -95 46 l-83 35
-102 -21 c-149 -31 -155 -32 -169 -21 -6 5 -47 24 -89 42 l-77 31 -92 -31 -92
-31 -26 24 c-26 24 -103 47 -160 47 -16 0 -54 -14 -85 -30 -54 -29 -58 -30
-86 -15 -17 9 -66 29 -109 45 l-80 29 -66 -23 c-36 -13 -71 -28 -78 -35 -15
-15 -54 -14 -85 4 -15 8 -45 23 -68 34 l-41 20 -59 -29z"/>
</g>
</svg>
