<?xml version="1.0" standalone="no"?>
<!DOCTYPE svg PUBLIC "-//W3C//DTD SVG 20010904//EN"
 "http://www.w3.org/TR/2001/REC-SVG-20010904/DTD/svg10.dtd">
<svg version="1.0" xmlns="http://www.w3.org/2000/svg"
 width="1536.000000pt" height="382.000000pt" viewBox="0 0 1536.000000 382.000000"
 preserveAspectRatio="xMidYMid meet">
<metadata>
Created by potrace 1.16, written by Peter Selinger 2001-2019
</metadata>
<g transform="translate(0.000000,382.000000) scale(0.100000,-0.100000)"
fill="#000000" stroke="none">
<path d="M8349 3810 c-8 -4 -54 -10 -104 -14 -158 -11 -157 -11 -410 -67 -55
-12 -152 -35 -215 -52 -63 -16 -133 -34 -155 -38 -22 -5 -94 -20 -160 -34
-346 -73 -571 -94 -1035 -96 -184 0 -344 0 -354 0 -11 0 -23 6 -27 13 -6 8 -9
9 -9 2 0 -7 -33 -14 -87 -18 -49 -4 -126 -11 -173 -16 -47 -5 -110 -12 -140
-15 -30 -2 -73 -7 -95 -9 -58 -7 -150 -15 -230 -22 -140 -11 -354 -48 -635
-111 -36 -8 -85 -18 -110 -23 -25 -5 -88 -19 -140 -30 -52 -12 -115 -26 -140
-31 -25 -5 -61 -15 -80 -21 -19 -7 -39 -12 -45 -13 -10 -1 -65 -15 -135 -35
-71 -21 -299 -83 -443 -121 -172 -46 -234 -68 -377 -137 -117 -56 -218 -92
-330 -118 -41 -9 -82 -20 -90 -25 -16 -7 -213 -56 -370 -90 -146 -32 -398 -75
-495 -85 -11 -1 -60 -7 -110 -13 -49 -6 -126 -16 -170 -21 -44 -5 -168 -21
-275 -35 -107 -14 -215 -28 -239 -30 -24 -3 -89 -12 -145 -20 -55 -9 -144 -20
-196 -26 -52 -5 -104 -11 -115 -14 -32 -8 -175 -33 -235 -40 -118 -15 -224
-46 -247 -74 -13 -14 -23 -35 -23 -45 0 -25 57 -146 69 -146 5 0 12 12 16 28
l7 27 16 -32 c19 -39 39 -43 44 -8 4 34 20 34 36 1 17 -34 31 -33 44 5 l11 32
15 -29 15 -29 14 32 c16 40 21 41 33 8 12 -33 28 -32 32 2 4 35 22 40 36 8 15
-33 30 -32 38 3 11 44 16 47 40 17 23 -29 44 -27 44 6 0 35 37 23 50 -17 15
-44 34 -39 38 9 4 41 28 52 34 15 5 -33 25 -33 43 1 16 31 45 42 45 17 0 -7 7
-19 15 -26 12 -10 15 -7 20 13 10 40 33 41 49 4 l14 -32 13 33 c15 37 25 40
34 11 8 -25 29 -20 33 9 4 29 16 28 30 -3 16 -34 30 -31 39 6 l9 31 13 -26
c17 -30 41 -35 41 -8 0 32 13 34 36 5 24 -30 22 -31 40 27 4 10 11 6 29 -15
21 -25 26 -28 35 -15 5 8 10 21 10 28 0 20 35 14 45 -9 13 -28 29 -26 35 3 8
30 36 35 43 7 6 -22 27 -18 27 7 0 21 18 17 30 -6 15 -28 25 -25 40 11 l13 31
14 -26 c17 -33 41 -33 49 -1 7 29 20 32 47 8 18 -17 19 -17 32 0 15 21 24 21
46 1 16 -14 18 -14 29 6 l11 21 18 -23 18 -22 7 22 c8 24 17 27 33 11 8 -8 18
-6 38 7 21 14 28 15 35 5 5 -8 16 -11 29 -6 16 5 27 1 37 -12 12 -16 15 -16
24 -3 5 8 11 20 13 25 2 6 10 5 20 -3 13 -11 19 -11 37 0 18 11 23 11 34 -5
11 -14 15 -15 25 -4 13 16 131 21 131 6 0 -6 7 -6 19 1 23 12 231 12 306 0 28
-4 47 -8 43 -9 -4 0 -78 -10 -165 -21 -87 -11 -172 -23 -189 -26 -18 -3 -35
-1 -38 5 -5 7 -15 6 -31 -5 -13 -9 -28 -13 -34 -10 -5 3 -21 2 -36 -4 -19 -7
-31 -7 -40 0 -9 7 -16 6 -25 -5 -15 -18 -46 -20 -54 -2 -3 8 -8 7 -16 -5 -13
-21 -41 -23 -58 -6 -9 9 -15 8 -25 -5 -8 -12 -30 -19 -71 -22 -32 -2 -61 -7
-64 -10 -3 -2 -11 0 -19 6 -10 9 -18 7 -34 -7 -17 -15 -23 -16 -41 -5 -17 11
-23 9 -43 -9 l-23 -22 -17 26 c-22 33 -39 34 -31 1 5 -18 2 -25 -8 -25 -8 0
-16 7 -20 15 -8 22 -36 18 -36 -4 0 -27 -20 -38 -32 -17 -12 22 -31 20 -46 -5
-9 -13 -19 -18 -32 -14 -10 3 -28 0 -39 -7 -17 -10 -23 -9 -39 6 -19 17 -40 7
-28 -13 3 -5 -3 -11 -14 -14 -10 -3 -21 0 -23 7 -3 8 -10 8 -26 -1 -11 -7 -33
-13 -49 -13 -15 0 -34 -6 -41 -12 -10 -11 -14 -10 -22 4 -14 25 -39 22 -39 -4
-1 -21 -2 -22 -14 -6 -18 24 -32 22 -41 -5 -4 -13 -8 -17 -12 -9 -7 17 -43 15
-43 -3 0 -20 -10 -19 -25 2 -12 17 -35 11 -35 -10 0 -13 -64 -17 -76 -4 -13
13 -34 8 -34 -8 0 -13 -4 -14 -20 -5 -11 6 -26 7 -33 3 -12 -8 -20 -9 -97 -13
-25 -2 -50 -7 -57 -12 -7 -6 -30 -11 -52 -12 -22 -1 -43 -5 -47 -9 -4 -4 -18
-4 -30 -1 -18 5 -24 2 -24 -10 0 -18 -15 -22 -25 -6 -10 15 -35 12 -35 -5 0
-19 -16 -19 -24 0 -8 22 -26 18 -26 -6 0 -19 -4 -20 -34 -15 -24 5 -36 3 -39
-6 -3 -10 -10 -8 -26 6 -25 22 -24 23 -37 -30 -9 -36 -8 -45 10 -70 31 -44 35
-45 121 -38 44 3 98 8 120 10 22 1 65 6 95 10 30 4 69 8 85 10 17 1 89 10 160
19 72 8 150 18 175 21 25 2 61 7 80 9 37 5 113 11 270 20 95 6 221 19 315 33
99 14 443 7 570 -12 66 -10 123 -20 126 -21 4 -3 65 -13 124 -20 11 -1 27 -5
35 -8 8 -3 42 -11 75 -18 33 -7 62 -13 65 -14 60 -14 79 -19 100 -28 14 -5 36
-12 49 -14 13 -2 37 -11 52 -19 15 -7 35 -14 44 -14 10 0 29 -7 43 -15 15 -7
83 -32 152 -55 68 -23 130 -46 137 -52 7 -6 27 -12 45 -14 18 -1 33 -3 33 -4
0 -1 11 -3 24 -6 13 -2 79 -23 145 -46 67 -23 130 -42 141 -44 11 -1 40 -10
65 -19 25 -9 63 -21 85 -27 22 -6 45 -17 52 -25 6 -8 14 -14 17 -14 14 2 106
-43 106 -51 0 -5 4 -7 9 -4 5 3 14 -1 21 -9 7 -8 20 -15 30 -15 10 0 23 -6 29
-14 7 -8 23 -17 37 -20 14 -4 64 -25 112 -48 48 -22 92 -42 97 -43 6 -2 35
-13 64 -25 51 -22 80 -58 65 -81 -3 -5 0 -9 7 -9 14 0 49 -38 49 -54 0 -6 21
-33 45 -59 25 -27 45 -52 45 -58 0 -5 8 -9 17 -9 9 0 14 -3 11 -6 -8 -8 18
-36 259 -280 117 -118 234 -231 260 -251 27 -20 54 -42 61 -49 6 -7 32 -23 57
-35 25 -12 45 -26 45 -31 0 -15 37 -8 54 11 13 14 16 28 11 55 -4 20 -12 36
-18 36 -6 0 -7 3 -4 6 8 8 -79 174 -126 241 -47 68 -138 275 -126 287 5 6 211
-64 266 -89 17 -8 38 -15 47 -15 9 0 24 -4 34 -10 29 -15 85 -38 127 -50 22
-6 47 -14 55 -17 17 -7 27 -10 55 -17 11 -3 35 -9 54 -15 18 -6 36 -10 40 -9
3 1 13 -1 21 -5 39 -14 158 -42 185 -42 17 0 32 -3 35 -7 3 -4 26 -10 50 -13
107 -12 237 -27 265 -31 96 -13 329 -15 466 -4 121 10 161 10 178 1 17 -10 26
-10 37 -1 7 7 20 10 27 7 8 -3 27 3 43 14 18 11 37 16 52 12 14 -3 27 -1 31 6
4 6 24 12 45 13 20 1 39 5 42 10 3 4 9 6 13 3 5 -2 23 0 42 6 19 5 52 14 74
19 39 8 179 37 222 46 65 13 365 96 408 113 28 10 70 26 95 34 67 22 274 104
360 143 42 19 79 34 84 34 4 0 33 12 64 26 31 14 72 32 90 40 104 44 294 138
402 199 47 26 130 71 185 100 55 29 116 60 135 71 19 10 37 19 40 20 29 9 70
30 70 36 0 4 6 8 13 8 8 0 28 7 45 15 l31 16 83 -83 c46 -46 106 -102 133
-125 78 -64 235 -219 235 -233 0 -7 6 -10 14 -7 9 4 32 -11 56 -33 23 -22 50
-42 61 -45 10 -4 19 -11 19 -16 0 -5 5 -9 10 -9 6 0 20 -9 32 -20 12 -11 29
-20 38 -20 9 0 26 -9 38 -20 12 -11 25 -20 30 -20 5 0 31 -16 58 -35 27 -19
53 -35 58 -35 5 0 24 -11 42 -25 18 -14 37 -25 42 -25 5 0 26 -11 47 -25 20
-14 50 -29 66 -32 16 -3 29 -9 29 -13 0 -3 6 -7 13 -7 6 0 20 -4 29 -8 10 -4
24 1 38 15 24 24 21 48 -16 97 -13 17 -24 35 -24 38 0 4 -22 36 -50 71 -27 35
-50 66 -50 70 0 3 -13 26 -30 50 -16 25 -33 56 -36 69 -3 14 -10 25 -15 25 -5
0 -9 6 -9 13 0 6 -6 23 -13 37 -7 14 -37 69 -65 123 -29 53 -52 104 -52 111 0
8 -18 49 -41 91 -22 42 -38 80 -35 83 4 3 26 -4 50 -16 24 -12 48 -22 54 -22
5 0 38 -16 72 -35 34 -19 68 -35 75 -35 8 0 17 -5 20 -10 3 -6 15 -10 26 -10
10 0 19 -4 19 -8 0 -5 24 -19 53 -31 28 -12 59 -27 67 -32 8 -5 40 -21 70 -35
30 -15 72 -37 92 -50 20 -13 43 -25 50 -26 7 -2 15 -6 18 -9 11 -12 97 -57
143 -74 26 -10 47 -22 47 -27 0 -5 6 -8 13 -5 6 2 23 -3 37 -13 44 -29 108
-59 114 -53 3 4 6 1 6 -5 0 -6 10 -14 23 -17 12 -4 36 -13 52 -20 17 -7 66
-25 110 -40 44 -15 89 -31 100 -36 11 -5 31 -11 45 -13 14 -2 49 -10 79 -16
45 -10 55 -10 68 3 27 27 6 59 -95 145 -53 45 -117 100 -142 123 -25 22 -61
52 -80 67 -63 49 -213 207 -282 297 -12 17 -26 31 -30 33 -5 2 -8 10 -8 17 0
7 -4 15 -8 17 -5 2 -28 30 -52 63 -24 33 -46 62 -50 65 -3 3 -27 32 -52 65
-26 33 -67 82 -92 109 -25 27 -46 50 -46 51 0 1 46 12 103 24 56 13 111 27
122 31 29 11 132 41 158 45 12 3 42 9 67 15 61 13 158 29 211 35 24 3 60 7 79
10 41 6 126 17 155 19 11 1 40 6 65 9 25 4 72 10 105 12 33 2 80 7 105 10 59
8 497 9 575 2 33 -4 96 -11 140 -17 44 -6 94 -13 110 -15 26 -4 96 -20 133
-31 7 -2 16 -4 20 -5 4 0 22 -7 41 -15 18 -8 44 -14 57 -14 13 0 24 -4 24 -9
0 -5 17 -12 38 -16 36 -6 102 -33 112 -45 3 -3 12 -5 20 -5 8 1 22 -5 32 -13
9 -7 22 -15 30 -16 28 -5 58 -18 58 -25 0 -4 16 -13 35 -21 19 -8 35 -17 35
-22 0 -4 7 -8 15 -8 9 0 39 -17 68 -38 29 -21 75 -51 102 -67 28 -16 73 -46
102 -67 29 -21 56 -38 62 -38 5 0 11 -4 13 -8 2 -5 23 -24 48 -43 25 -19 63
-50 84 -69 21 -19 53 -48 71 -65 18 -16 39 -35 47 -41 11 -9 92 -95 281 -295
9 -11 17 -21 17 -23 0 -2 16 -21 36 -42 19 -22 45 -52 57 -68 12 -15 31 -39
42 -52 11 -13 38 -48 59 -79 22 -30 43 -55 48 -55 4 0 8 -9 8 -19 0 -11 8 -26
19 -33 10 -7 21 -22 25 -33 3 -11 19 -36 36 -55 16 -19 30 -41 30 -47 0 -7 3
-13 8 -13 4 0 23 -26 42 -57 18 -32 39 -63 45 -69 6 -6 31 -42 55 -80 25 -38
52 -76 60 -85 27 -30 50 -63 50 -72 0 -7 95 -139 125 -174 5 -6 21 -26 35 -44
49 -65 129 -134 191 -166 56 -29 65 -31 83 -19 32 21 23 63 -21 107 -31 30
-149 234 -153 261 0 4 -3 13 -5 20 -3 7 -31 90 -64 183 -114 329 -140 401
-186 515 -104 258 -178 405 -284 564 -92 137 -193 306 -242 401 -19 38 -45 88
-57 110 -21 40 -48 98 -75 167 -9 20 -25 71 -36 113 -19 67 -23 102 -21 175 0
8 -2 29 -6 45 -8 42 28 133 69 176 19 18 66 65 105 104 54 52 72 76 72 96 0
39 -41 50 -200 55 -110 3 -152 0 -225 -17 -387 -88 -618 -127 -798 -134 -76
-3 -143 -2 -149 1 -6 4 -75 8 -152 9 -156 2 -344 13 -357 21 -9 5 -48 12 -114
19 -53 6 -122 14 -165 20 -19 3 -73 10 -120 16 -47 6 -100 13 -119 14 -18 2
-52 6 -75 9 -22 3 -79 8 -126 11 -47 4 -92 8 -100 10 -8 2 -76 7 -150 10 -74
4 -142 8 -150 10 -8 2 -55 6 -105 9 -176 13 -220 17 -250 21 -16 3 -61 7 -100
10 -38 3 -83 8 -100 10 -16 2 -66 7 -110 10 -44 4 -91 8 -105 10 -14 2 -70 6
-125 10 -55 3 -127 11 -160 16 -59 8 -104 13 -235 24 -198 17 -266 24 -370 42
-52 9 -103 16 -112 17 -10 0 -18 4 -18 9 0 5 -10 7 -22 6 -13 -2 -29 0 -37 5
-17 11 -75 26 -121 31 -19 2 -53 7 -75 10 -22 2 -62 8 -90 11 -74 10 -90 12
-90 14 0 2 -27 7 -85 14 -25 3 -67 10 -95 15 -27 5 -90 16 -140 25 -49 9 -106
22 -125 30 -19 8 -50 20 -68 26 -43 17 -99 69 -106 100 -3 14 -8 59 -10 100
-7 93 -18 105 -121 116 -22 2 -52 8 -66 13 -14 5 -32 5 -40 1z"/>
</g>
</svg>
