<?xml version="1.0" standalone="no"?>
<!DOCTYPE svg PUBLIC "-//W3C//DTD SVG 20010904//EN"
 "http://www.w3.org/TR/2001/REC-SVG-20010904/DTD/svg10.dtd">
<svg version="1.0" xmlns="http://www.w3.org/2000/svg"
 width="2176.000000pt" height="800.000000pt" viewBox="0 0 2176.000000 800.000000"
 preserveAspectRatio="xMidYMid meet">
<metadata>
Created by potrace 1.16, written by Peter Selinger 2001-2019
</metadata>
<g transform="translate(0.000000,800.000000) scale(0.100000,-0.100000)"
fill="#000000" stroke="none">
<path d="M1588 7949 c-53 -5 -190 -27 -303 -49 -113 -22 -256 -44 -318 -50
-133 -11 -163 -20 -237 -70 -30 -20 -113 -65 -184 -99 -114 -55 -137 -71 -205
-139 -71 -71 -81 -86 -125 -192 -29 -70 -59 -125 -76 -142 -16 -15 -36 -41
-46 -59 -30 -59 -20 -220 16 -239 24 -13 170 -20 192 -9 9 5 19 5 22 0 3 -5
17 -8 31 -8 13 0 22 3 19 8 -6 11 10 12 20 2 14 -14 36 -11 36 6 0 12 7 17 22
16 13 -1 26 3 30 8 4 7 12 6 22 -2 15 -12 20 -8 17 12 -2 11 14 8 27 -5 9 -9
12 -8 12 5 0 9 3 17 8 18 49 5 107 36 139 74 16 18 43 51 61 74 47 58 66 66
92 39 11 -12 20 -28 20 -36 0 -7 -19 -46 -42 -85 -43 -73 -192 -237 -216 -237
-7 0 -11 -4 -8 -8 8 -13 -43 -54 -56 -46 -7 5 -9 2 -5 -9 7 -19 -40 -57 -62
-49 -9 3 -11 0 -6 -8 6 -10 4 -12 -9 -7 -13 5 -17 3 -13 -6 4 -10 -4 -14 -24
-14 -47 0 -66 -25 -65 -86 l1 -52 65 -22 c70 -24 124 -29 163 -14 13 5 68 46
123 92 122 101 233 174 389 255 217 113 372 152 561 141 144 -8 280 -59 431
-164 93 -64 523 -396 658 -508 180 -149 523 -416 625 -487 94 -65 496 -322
640 -410 100 -60 315 -174 666 -354 356 -181 729 -383 809 -437 90 -62 157
-134 192 -207 56 -120 65 -161 73 -370 14 -351 56 -437 377 -772 51 -53 93
-100 93 -105 0 -5 -36 -119 -79 -253 -44 -135 -103 -319 -131 -410 -47 -151
-55 -169 -104 -230 -65 -80 -164 -228 -199 -295 -13 -28 -48 -109 -75 -181
-73 -188 -110 -265 -187 -389 -93 -150 -120 -212 -148 -335 -24 -103 -53 -175
-99 -237 -25 -34 -111 -106 -176 -147 -65 -41 -93 -115 -55 -148 17 -14 117
-57 173 -73 14 -4 32 -13 40 -21 23 -20 92 -42 168 -55 37 -6 107 -24 155 -41
87 -31 88 -31 113 -12 40 30 85 172 83 259 -3 103 -2 106 11 154 12 46 86 135
121 146 10 4 125 164 254 357 255 379 321 471 402 559 51 55 103 146 103 181
0 42 84 348 139 508 72 209 184 491 197 493 5 1 39 -81 75 -183 36 -102 108
-288 159 -414 l93 -230 8 -125 c16 -237 51 -408 149 -746 11 -38 27 -130 35
-204 22 -199 33 -257 64 -351 16 -47 32 -102 35 -122 7 -40 6 -43 -99 -323
-36 -96 -54 -157 -50 -172 l5 -23 320 0 320 0 1 73 c0 39 3 92 5 117 2 25 -4
86 -12 137 -16 96 -16 95 21 333 19 119 19 252 1 450 -8 85 -22 333 -32 550
l-17 395 -32 80 c-18 44 -54 129 -79 189 -56 132 -148 395 -144 412 2 8 38 1
118 -23 139 -41 435 -116 545 -137 183 -35 262 -41 573 -41 l313 0 -7 -80 c-3
-44 1 -186 10 -315 9 -129 23 -350 31 -490 15 -243 37 -435 70 -590 22 -104
19 -215 -9 -344 -13 -61 -27 -142 -31 -180 -7 -87 -22 -115 -83 -158 -70 -51
-130 -67 -262 -71 -159 -5 -218 -25 -291 -97 -40 -39 -62 -72 -78 -113 -11
-32 -19 -63 -16 -68 9 -14 43 -11 69 6 22 15 24 14 29 -5 6 -24 39 -27 57 -5
16 20 30 19 45 -2 12 -17 16 -16 57 4 41 21 43 22 50 4 3 -11 12 -22 18 -26 6
-3 225 -6 487 -5 364 0 479 3 486 13 13 18 0 281 -28 577 -41 439 -40 456 93
825 108 299 133 389 167 600 15 88 30 165 33 172 4 6 110 134 236 283 154 182
232 267 236 258 4 -7 35 -106 69 -219 72 -242 200 -597 235 -650 25 -38 434
-385 562 -476 154 -110 392 -249 539 -313 83 -36 193 -89 246 -117 90 -49 276
-187 327 -243 38 -42 62 -101 62 -158 0 -48 -4 -57 -39 -93 -92 -96 -84 -272
17 -386 42 -47 121 -96 135 -85 7 6 23 12 37 14 19 2 24 8 21 23 -11 61 -12
135 -2 135 7 0 14 -7 18 -15 11 -31 123 -73 123 -47 0 5 -7 23 -16 40 -8 17
-18 47 -21 66 -6 38 -10 37 112 51 64 7 168 75 223 144 78 98 153 345 137 449
-11 76 -45 100 -470 337 -115 64 -246 142 -290 173 -101 72 -250 220 -390 387
-157 188 -258 289 -357 356 -56 38 -89 67 -92 82 -5 20 -16 342 -32 902 l-7
230 129 44 c209 72 276 99 303 125 14 13 49 29 76 35 115 25 474 82 670 105
897 109 965 111 1585 42 469 -53 677 -73 845 -81 66 -3 226 -12 355 -20 129
-8 350 -19 490 -24 140 -6 379 -16 530 -22 323 -13 1263 -13 1600 1 308 12
796 13 1013 0 94 -5 260 -14 369 -20 244 -13 931 -81 1144 -114 252 -39 325
-55 394 -88 141 -66 310 -65 345 2 20 39 19 51 -10 106 -14 26 -25 55 -25 65
0 9 -12 31 -26 48 -28 33 -132 71 -196 71 -56 0 -144 19 -200 44 -29 13 -73
27 -98 31 -25 4 -81 16 -125 27 -87 22 -202 41 -335 57 -92 11 -162 18 -580
56 -151 14 -365 34 -475 44 -110 11 -245 22 -300 26 -110 7 -400 34 -680 65
-99 10 -252 24 -340 30 -359 26 -988 113 -1525 211 -199 36 -578 134 -865 222
-115 36 -304 93 -420 127 -457 134 -789 252 -1240 443 -244 103 -574 224 -745
273 -85 24 -646 134 -920 179 -139 23 -294 43 -518 65 -245 24 -640 101 -1402
274 -409 92 -689 149 -1066 215 -751 132 -1096 174 -1634 196 -441 18 -1013
51 -1245 71 -753 64 -1402 209 -2284 509 -626 212 -991 383 -1651 770 -283
166 -501 275 -612 305 -169 46 -356 59 -580 39z"/>
</g>
</svg>
