<?xml version="1.0" standalone="no"?>
<!DOCTYPE svg PUBLIC "-//W3C//DTD SVG 20010904//EN"
 "http://www.w3.org/TR/2001/REC-SVG-20010904/DTD/svg10.dtd">
<svg version="1.0" xmlns="http://www.w3.org/2000/svg"
 width="1536.000000pt" height="718.000000pt" viewBox="0 0 1536.000000 718.000000"
 preserveAspectRatio="xMidYMid meet">
<metadata>
Created by potrace 1.16, written by Peter Selinger 2001-2019
</metadata>
<g transform="translate(0.000000,718.000000) scale(0.100000,-0.100000)"
fill="#000000" stroke="none">
<path d="M11368 7171 c-74 -24 -104 -51 -146 -134 -44 -85 -64 -163 -61 -232
2 -26 -6 -56 -21 -85 -47 -88 -26 -211 41 -248 27 -15 29 -21 23 -54 -7 -47
16 -128 54 -189 24 -37 30 -60 34 -120 3 -57 12 -90 36 -142 27 -55 33 -81 36
-150 3 -89 18 -131 66 -182 16 -16 38 -54 50 -84 11 -30 27 -63 35 -75 24 -33
18 -49 -41 -115 -60 -66 -88 -85 -145 -95 -20 -3 -48 -19 -64 -36 -34 -36 -44
-37 -113 -8 -53 22 -55 22 -118 5 -63 -16 -67 -16 -127 4 -41 14 -77 19 -104
16 -30 -3 -43 -1 -43 8 0 28 -42 50 -99 51 -31 1 -64 2 -74 3 -10 0 -47 30
-82 66 -37 38 -72 65 -84 65 -11 0 -42 -7 -68 -16 l-47 -16 -31 36 c-19 23
-42 38 -65 42 -39 8 -50 19 -50 51 0 31 -28 44 -76 33 -77 -18 -80 -17 -118
64 -19 41 -39 77 -44 80 -5 3 -62 0 -126 -6 -114 -11 -117 -11 -144 11 -15 12
-39 29 -54 39 -15 9 -39 38 -53 64 -30 55 -50 63 -135 55 -53 -5 -61 -3 -92
24 -26 22 -43 28 -79 29 -36 0 -55 7 -84 30 -21 17 -43 30 -50 30 -7 0 -43
-14 -79 -31 l-67 -31 -35 41 c-20 22 -42 41 -49 41 -8 0 -31 -12 -52 -26 -30
-20 -44 -24 -68 -18 -16 4 -50 7 -75 6 -43 -2 -47 1 -106 63 -69 75 -103 84
-144 40 -13 -14 -27 -25 -32 -25 -4 0 -27 13 -50 30 -64 46 -84 41 -183 -45
-103 -89 -95 -89 -243 -10 -37 19 -38 19 -149 -71 l-38 -32 -104 39 c-57 22
-110 37 -120 34 -9 -3 -38 -32 -65 -65 -28 -33 -55 -60 -60 -60 -6 0 -33 11
-60 25 -58 28 -67 25 -160 -51 -49 -40 -62 -46 -91 -41 -28 5 -38 0 -66 -29
-37 -38 -48 -39 -188 -7 -79 18 -101 13 -125 -27 -15 -27 -22 -30 -48 -25 -25
6 -35 2 -64 -26 -32 -31 -34 -32 -53 -15 -19 17 -21 17 -66 -3 -26 -12 -60
-21 -76 -21 -16 0 -67 -22 -116 -50 -48 -27 -92 -50 -99 -50 -6 0 -23 -9 -37
-20 l-25 -20 -73 35 c-41 19 -82 35 -92 35 -27 0 -87 -33 -148 -82 -49 -40
-58 -44 -97 -40 -37 4 -50 -1 -87 -27 -56 -40 -146 -61 -268 -61 l-97 0 -44
-45 c-53 -56 -83 -65 -212 -65 l-102 0 -40 -64 c-39 -62 -42 -64 -99 -77 -42
-9 -69 -23 -99 -50 -62 -56 -78 -61 -162 -57 l-76 3 -21 -37 c-11 -20 -49 -67
-84 -103 l-64 -66 -57 3 c-66 3 -79 -5 -116 -68 -22 -37 -34 -46 -87 -64 -79
-26 -77 -24 -109 -91 -25 -53 -29 -57 -70 -63 -103 -16 -130 -32 -183 -109
-44 -62 -57 -74 -98 -87 -25 -8 -53 -22 -61 -30 -18 -19 -46 -103 -46 -139 0
-25 -7 -31 -48 -49 -26 -11 -58 -23 -72 -27 -39 -12 -51 -25 -82 -92 -21 -48
-38 -69 -75 -94 -27 -18 -52 -39 -56 -46 -5 -8 -21 -27 -37 -43 -15 -16 -36
-53 -45 -82 -10 -29 -33 -69 -51 -88 -19 -20 -72 -106 -118 -192 -48 -90 -102
-174 -125 -198 -23 -24 -41 -46 -41 -50 0 -12 -188 -259 -228 -300 -18 -19
-138 -190 -265 -380 -201 -301 -242 -357 -326 -440 -193 -191 -332 -284 -473
-314 -127 -27 -301 -38 -433 -26 -193 17 -312 50 -544 153 -218 96 -264 108
-340 85 -89 -27 -82 -74 21 -146 40 -28 116 -87 168 -132 126 -108 209 -159
362 -220 200 -80 305 -100 532 -100 271 0 502 41 756 133 282 103 631 297
1160 645 312 206 361 233 460 261 41 11 142 43 223 71 287 97 453 130 652 130
130 0 152 -3 245 -30 l103 -31 176 12 176 13 125 -34 c137 -36 298 -96 457
-171 87 -40 103 -51 103 -71 0 -57 -40 -389 -48 -405 -13 -24 -143 -140 -207
-185 -27 -19 -89 -56 -136 -82 -47 -27 -98 -58 -113 -69 -41 -34 -176 -364
-181 -442 -2 -33 -15 -104 -29 -158 -22 -85 -33 -109 -79 -170 -33 -43 -57
-87 -61 -109 -4 -23 -24 -57 -51 -89 -80 -94 -91 -141 -54 -244 34 -97 134
-223 198 -248 21 -9 41 -23 44 -31 9 -23 80 -38 165 -35 52 2 84 -2 99 -11 22
-14 26 -14 93 25 19 11 65 15 191 15 94 0 180 5 197 11 25 9 42 8 79 -5 55
-19 124 -21 141 -4 19 19 14 54 -13 109 -37 72 -88 124 -157 159 -50 25 -73
30 -130 30 -72 0 -109 13 -142 49 -16 17 -18 33 -14 108 3 73 10 102 40 170
50 116 104 195 157 232 64 43 151 143 260 296 105 147 158 206 216 239 22 13
131 60 243 105 111 45 282 115 380 157 l177 76 58 -64 c61 -66 103 -143 159
-295 l32 -88 -3 -200 -2 -200 31 -85 c44 -121 78 -179 130 -218 73 -56 340
-312 355 -343 8 -15 15 -45 15 -66 0 -60 26 -153 48 -175 29 -30 165 -45 274
-31 68 8 87 8 106 -4 17 -10 56 -14 150 -13 70 1 143 -3 162 -9 52 -16 69 -13
82 14 11 24 15 25 97 25 47 0 101 4 119 9 17 5 114 11 214 12 159 3 185 6 200
21 28 28 23 88 -12 136 -41 57 -130 122 -177 129 -68 10 -91 31 -112 99 -18
60 -18 64 -1 116 14 41 19 104 24 277 l7 225 74 185 c97 244 180 496 209 641
8 37 62 98 109 121 23 12 93 57 155 101 63 44 115 78 117 76 5 -5 53 -226 70
-323 11 -67 11 -83 0 -95 -22 -26 -36 -90 -42 -206 l-6 -111 36 -55 c20 -30
44 -72 53 -93 9 -22 29 -58 44 -80 15 -22 30 -49 34 -60 3 -11 30 -37 59 -57
28 -20 89 -64 134 -96 100 -72 179 -103 467 -178 356 -93 435 -121 480 -167
65 -68 75 -102 69 -237 -3 -65 -3 -130 1 -145 8 -32 52 -75 77 -75 25 0 91 67
138 140 l38 58 17 -73 c34 -144 78 -194 142 -164 43 21 74 86 81 169 4 44 9
66 14 58 5 -7 9 -22 9 -33 0 -11 16 -46 35 -76 38 -62 73 -79 158 -79 29 0 67
-11 110 -30 95 -45 129 -48 161 -17 36 36 34 86 -4 156 -29 53 -28 70 4 71 5
0 17 6 25 14 14 12 28 11 95 -2 100 -20 110 -14 114 64 2 56 1 61 -39 109 -23
28 -50 70 -61 95 -28 64 -64 108 -116 141 -37 23 -57 29 -104 29 -74 0 -156
39 -214 102 -48 52 -114 161 -123 203 -5 22 -13 30 -30 31 -13 1 -35 16 -52
37 -20 25 -69 55 -171 105 -196 96 -239 127 -418 297 -85 82 -185 173 -222
203 -38 30 -68 59 -68 66 0 26 61 485 72 540 12 62 35 96 66 96 23 0 129 68
158 101 12 13 25 34 28 46 4 12 21 34 37 48 29 23 37 25 143 25 124 0 128 1
207 77 40 39 49 43 67 34 11 -6 39 -11 62 -11 39 0 48 6 116 72 67 64 76 70
96 60 63 -31 136 -18 222 39 l49 33 21 -30 c73 -100 82 -109 123 -118 31 -6
55 -4 92 8 65 21 62 21 115 -15 54 -36 229 -119 304 -144 82 -27 196 -19 251
18 29 20 61 30 100 34 49 5 66 13 135 65 60 45 83 57 100 52 63 -20 365 -182
400 -216 32 -31 170 -97 227 -109 66 -14 240 9 426 56 220 57 324 107 422 206
74 74 123 156 129 219 6 69 -9 72 -116 22 -130 -61 -185 -73 -370 -79 -180 -6
-258 4 -332 42 -25 13 -60 29 -78 36 -40 15 -139 120 -163 175 -10 22 -25 80
-33 128 l-14 88 42 52 c42 51 134 131 180 156 21 11 27 10 39 -2 32 -32 121
-82 212 -119 93 -38 98 -39 216 -39 67 0 150 5 184 11 87 16 157 -6 231 -74
66 -60 81 -102 90 -261 l7 -113 31 7 c17 4 45 14 62 23 48 25 231 225 259 282
66 137 98 341 76 485 -23 150 -70 249 -182 383 -27 32 -49 65 -49 73 0 8 -20
36 -44 62 -24 26 -51 62 -61 81 -19 38 -100 121 -160 165 -22 16 -58 46 -80
66 -50 46 -84 65 -157 85 -45 12 -61 22 -72 44 -14 26 -37 40 -92 56 -15 4
-24 17 -29 41 -8 43 -45 84 -76 84 -20 0 -21 3 -15 43 32 194 38 261 39 402 1
118 -4 180 -16 234 -48 208 -158 453 -239 534 -54 54 -76 57 -96 14 -11 -24
-12 -56 -2 -190 7 -90 9 -207 6 -262 -10 -140 -51 -335 -90 -430 -19 -44 -42
-104 -53 -134 -21 -63 -34 -70 -151 -81 -74 -7 -91 -6 -151 15 -96 32 -107 39
-186 115 -38 37 -81 71 -95 75 -14 4 -41 23 -61 41 -33 32 -40 35 -105 36 -38
1 -112 -2 -164 -6 -85 -7 -117 -5 -308 28 -116 19 -224 42 -240 50 -15 7 -52
17 -82 21 -30 4 -69 15 -85 25 -17 11 -66 29 -110 41 -44 12 -88 25 -97 30 -9
5 -96 94 -192 198 -155 167 -184 203 -241 305 l-64 116 14 41 c28 78 12 135
-57 215 -18 20 -17 22 52 87 78 75 87 101 45 143 -24 24 -24 27 -10 54 26 50
20 67 -30 85 -24 10 -42 21 -40 26 3 4 30 19 60 33 58 26 80 57 63 89 -5 11
-5 25 2 38 15 26 -7 62 -53 86 -36 19 -185 28 -229 14z m-3115 -5623 c-3 -408
-13 -653 -31 -735 l-7 -33 -62 79 c-73 92 -78 103 -64 129 8 16 6 26 -12 48
-21 27 -22 39 -25 243 -5 294 7 367 105 639 25 71 26 72 62 72 l36 0 -2 -442z"/>
</g>
</svg>
