<?xml version="1.0" standalone="no"?>
<!DOCTYPE svg PUBLIC "-//W3C//DTD SVG 20010904//EN"
 "http://www.w3.org/TR/2001/REC-SVG-20010904/DTD/svg10.dtd">
<svg version="1.0" xmlns="http://www.w3.org/2000/svg"
 width="1536.000000pt" height="773.000000pt" viewBox="0 0 1536.000000 773.000000"
 preserveAspectRatio="xMidYMid meet">
<metadata>
Created by potrace 1.16, written by Peter Selinger 2001-2019
</metadata>
<g transform="translate(0.000000,773.000000) scale(0.100000,-0.100000)"
fill="#000000" stroke="none">
<path d="M13075 7723 c-352 -33 -957 -223 -1350 -423 -301 -153 -347 -184
-506 -348 -220 -225 -407 -477 -564 -756 -147 -263 -211 -426 -222 -568 -3
-38 -9 -68 -12 -68 -3 0 -60 11 -126 25 -148 30 -367 62 -529 76 -198 18 -517
-3 -755 -50 l-144 -28 -100 49 c-119 58 -226 86 -362 95 -200 12 -551 -36
-746 -101 l-101 -34 -96 40 c-112 45 -210 70 -372 94 -155 22 -542 15 -785
-15 -306 -38 -462 -74 -675 -158 -63 -25 -156 -54 -206 -64 -114 -23 -341
-101 -504 -172 -160 -69 -425 -159 -560 -188 -90 -20 -135 -23 -315 -23 l-210
-1 -89 37 c-186 78 -289 159 -606 479 -260 262 -313 303 -514 400 -146 70
-256 99 -397 106 -229 12 -498 -53 -769 -186 -30 -15 -84 -35 -120 -45 -99
-28 -183 -76 -356 -208 -88 -66 -215 -158 -284 -204 -69 -46 -151 -103 -182
-127 -31 -23 -90 -63 -130 -88 -112 -72 -282 -222 -328 -291 -51 -76 -64 -125
-55 -206 5 -48 11 -65 24 -69 9 -2 27 -24 40 -48 13 -24 32 -52 44 -62 20 -18
20 -18 13 7 -23 87 -23 88 27 35 52 -54 71 -55 38 -1 -30 49 -6 53 42 8 26
-26 37 -31 37 -20 0 9 -4 20 -10 23 -16 10 -12 32 7 39 11 4 28 -4 50 -26 l35
-33 -7 37 c-6 31 -4 37 14 43 15 5 32 -2 58 -24 36 -30 63 -40 63 -23 0 4 -4
12 -9 17 -5 6 -12 21 -16 35 -7 23 -5 22 34 -13 59 -53 83 -51 36 5 -21 25
-33 58 -21 58 2 0 20 -16 41 -35 44 -42 54 -39 31 9 -25 53 -19 60 19 21 50
-49 70 -47 40 5 -29 51 -16 57 30 13 52 -49 76 -49 45 1 -11 19 -20 44 -20 57
l1 24 17 -21 c20 -24 61 -48 69 -41 2 3 -3 20 -12 37 -21 40 -6 63 23 37 28
-25 46 -22 31 4 -15 28 8 45 32 23 15 -14 49 -20 49 -8 0 3 -5 14 -10 24 -17
31 7 34 41 5 18 -14 33 -24 35 -22 2 2 -2 17 -8 35 -16 41 -5 50 32 28 23 -13
30 -14 30 -4 0 8 -5 19 -12 26 -14 14 -16 12 55 50 l59 30 48 -20 c27 -11 67
-36 89 -55 46 -39 110 -158 118 -221 5 -38 1 -49 -41 -111 -25 -38 -46 -72
-46 -75 0 -23 -37 -85 -48 -81 -10 3 -11 -4 -6 -30 5 -31 4 -34 -12 -28 -14 5
-16 3 -10 -13 16 -37 12 -49 -12 -46 -23 3 -23 3 -8 -27 21 -39 20 -44 -5 -31
-28 16 -34 6 -15 -22 25 -35 21 -53 -6 -34 -36 25 -42 19 -19 -20 26 -43 21
-53 -14 -30 -20 13 -25 14 -25 3 0 -8 9 -22 20 -32 29 -26 13 -39 -18 -14 -32
25 -41 10 -17 -27 21 -33 14 -40 -19 -19 -30 20 -34 9 -10 -36 20 -40 11 -49
-20 -20 -37 35 -50 22 -25 -24 l21 -39 -36 27 c-43 34 -50 15 -11 -31 30 -35
18 -51 -20 -26 -20 13 -25 14 -25 2 0 -7 7 -24 16 -36 13 -19 13 -22 1 -22 -8
0 -20 7 -27 15 -18 21 -33 19 -26 -5 21 -69 23 -67 -22 -31 -48 37 -53 30 -17
-24 15 -20 24 -40 21 -43 -3 -3 -29 9 -57 26 -27 18 -52 32 -55 32 -12 0 0
-23 29 -56 35 -41 38 -40 -41 -18 -36 10 -26 -17 18 -50 30 -22 38 -35 34 -50
-9 -37 19 -61 68 -60 98 2 158 59 309 289 109 167 238 356 284 418 17 22 35
49 41 59 13 22 52 48 139 91 103 51 198 119 345 249 36 31 84 63 105 70 29 9
40 19 40 33 0 23 29 38 58 29 17 -5 19 -3 15 20 -6 30 0 31 49 11 42 -18 53
-13 34 16 -7 12 -11 22 -9 24 3 3 104 -26 148 -43 8 -3 18 -5 22 -4 4 1 18
-12 32 -28 13 -17 31 -30 38 -30 29 0 97 -91 164 -219 31 -60 39 -71 44 -53 4
17 17 0 64 -82 81 -144 206 -301 206 -258 0 4 -14 27 -30 52 -27 40 -60 104
-60 117 0 3 30 -23 66 -56 37 -34 75 -61 84 -61 10 0 48 -17 84 -39 81 -47
273 -102 286 -82 5 9 13 10 26 3 11 -5 25 -7 32 -5 15 6 64 -25 137 -86 27
-22 53 -41 57 -41 17 0 7 40 -17 68 -14 17 -22 33 -17 36 4 2 34 -6 67 -19 60
-25 143 -96 188 -162 12 -18 28 -33 35 -33 21 0 14 64 -13 114 -22 42 -23 46
-5 36 10 -5 22 -15 25 -20 3 -5 15 -15 27 -21 19 -10 20 -9 16 15 -5 25 -4 26
16 13 65 -43 191 -247 211 -343 20 -94 69 -179 146 -257 65 -65 88 -105 103
-180 14 -61 56 -7 56 71 0 33 1 34 18 19 10 -10 36 -46 57 -82 20 -36 41 -62
45 -60 10 6 6 86 -4 106 -4 8 6 -2 23 -21 17 -19 41 -56 53 -82 13 -26 27 -47
32 -48 5 0 6 27 3 60 -3 33 -3 60 0 60 2 0 30 -20 61 -43 31 -24 62 -42 68
-40 6 2 14 -10 18 -27 3 -17 19 -61 35 -98 18 -42 32 -93 35 -137 13 -133 14
-138 43 -130 l26 6 -7 -63 c-19 -168 -19 -163 -1 -178 14 -11 22 -12 48 -1 65
26 62 27 81 -41 15 -58 16 -67 1 -100 -17 -42 -20 -135 -5 -188 5 -20 25 -62
45 -94 45 -75 52 -132 30 -233 -29 -128 -123 -293 -215 -377 -23 -21 -40 -40
-37 -42 2 -3 26 3 53 12 155 52 261 144 337 292 58 112 74 179 83 357 l7 140
15 -45 c8 -25 30 -68 49 -96 18 -29 40 -75 49 -104 10 -35 31 -69 61 -101 l46
-49 -7 -58 c-8 -71 3 -104 49 -148 28 -26 35 -40 35 -72 0 -53 -25 -132 -71
-226 -21 -43 -36 -83 -33 -87 12 -20 66 25 112 94 61 92 99 194 121 329 l18
103 12 -50 c15 -67 30 -188 31 -252 0 -61 9 -71 39 -39 49 52 89 412 60 548
-16 76 -30 98 -122 196 -45 48 -109 119 -141 157 -33 39 -83 95 -111 125 -36
39 -66 86 -100 160 -26 58 -55 114 -65 125 -9 11 -38 67 -63 123 -25 57 -75
156 -111 220 -87 157 -87 161 -34 190 l43 23 18 -23 c38 -50 126 -132 202
-190 44 -33 119 -94 167 -136 72 -61 90 -82 99 -116 25 -92 90 -171 167 -203
44 -18 53 -29 97 -115 81 -157 117 -337 95 -480 -7 -46 -17 -93 -21 -105 -13
-36 5 -27 38 19 82 114 118 298 96 479 -19 144 -74 306 -138 399 -30 44 -52
80 -48 80 14 0 162 -85 213 -123 30 -22 89 -71 131 -109 42 -37 82 -68 88 -68
6 0 36 -37 65 -82 57 -88 102 -203 131 -331 19 -85 28 -98 46 -66 28 54 -17
288 -90 465 l-40 99 42 -47 c23 -26 74 -94 112 -152 39 -58 76 -106 83 -106
35 -1 -3 114 -117 350 -58 119 -104 186 -155 225 -35 26 -312 128 -438 160
-35 9 -85 30 -113 47 -51 30 -135 106 -135 120 0 11 89 10 190 -3 47 -5 143
-10 213 -9 l128 0 116 -70 c64 -38 121 -70 128 -70 7 0 23 9 36 19 l24 19 -24
33 c-19 26 -21 31 -7 26 10 -4 88 -14 174 -23 86 -9 182 -24 213 -35 69 -24
82 -24 102 -1 24 26 22 31 -25 53 l-43 20 86 -4 c58 -3 101 -12 134 -26 26
-11 58 -21 71 -21 16 0 45 -24 96 -80 74 -81 97 -93 128 -65 14 13 22 12 69
-6 29 -11 99 -26 155 -34 85 -12 104 -12 121 -1 20 13 23 11 48 -28 43 -69
236 -256 263 -256 8 0 14 -2 14 -4 0 -17 -103 -302 -111 -304 -5 -2 -16 -28
-24 -57 -12 -39 -48 -97 -137 -217 -129 -174 -210 -324 -242 -448 -16 -62 -16
-67 2 -120 11 -30 40 -100 65 -156 84 -187 84 -185 54 -342 -29 -151 -28 -169
17 -268 46 -102 151 -189 268 -225 75 -23 98 -24 98 -5 0 31 -21 67 -43 75
-30 12 -117 108 -117 130 1 9 7 27 15 41 19 34 19 148 -1 226 -13 55 -14 68
-1 104 l14 42 21 -33 c11 -19 45 -86 75 -150 33 -71 67 -128 86 -145 17 -15
31 -33 31 -39 0 -16 73 -73 117 -91 49 -21 178 -31 187 -15 8 13 -37 61 -57
61 -24 0 -75 39 -96 73 -19 32 -20 39 -9 80 15 58 1 94 -65 164 -45 48 -50 58
-56 115 -6 57 -26 108 -42 108 -3 0 -18 11 -33 25 -23 21 -26 30 -20 61 5 28
0 48 -26 99 -34 66 -35 92 -6 130 15 20 15 20 16 -3 0 -32 27 -92 53 -121 70
-76 214 -117 190 -54 -3 7 -30 30 -59 49 -34 23 -57 46 -61 62 -3 14 -3 113 0
221 4 121 2 213 -4 243 -8 35 -8 53 0 62 7 8 18 43 25 78 9 42 30 91 62 144
26 43 59 102 72 129 38 78 36 77 100 47 30 -15 66 -37 78 -50 13 -12 28 -22
34 -22 5 0 56 -20 113 -44 172 -74 366 -194 558 -347 94 -75 112 -85 204 -114
118 -38 271 -127 471 -276 167 -125 203 -155 352 -302 147 -145 196 -205 291
-355 82 -130 126 -214 152 -289 9 -28 40 -88 69 -131 28 -44 50 -84 48 -89 -1
-4 8 -35 21 -68 28 -73 24 -131 -12 -178 -29 -38 -74 -54 -242 -87 -60 -12
-126 -30 -145 -40 -45 -23 -117 -100 -136 -145 -29 -69 -52 -65 347 -65 346 0
363 1 394 20 62 38 209 279 236 384 10 40 9 51 -8 84 -17 36 -18 53 -12 203
14 306 14 301 -26 349 -19 23 -35 48 -35 54 0 21 -77 133 -128 188 -26 28
-114 105 -196 171 -82 66 -189 155 -238 198 -49 42 -144 115 -211 162 -67 47
-158 113 -202 146 -44 33 -150 102 -235 153 -188 112 -213 135 -239 217 -10
34 -31 77 -45 95 -34 45 -116 105 -154 112 -57 12 -63 24 -192 436 -98 315
-156 428 -249 488 -115 73 -259 98 -381 65 -30 -8 -56 -15 -57 -15 -12 0 6 38
57 120 33 53 76 131 95 172 l35 76 61 -19 c69 -22 149 -25 149 -7 0 6 -10 22
-22 35 -25 27 -27 27 82 8 156 -27 202 -17 150 35 -23 23 -17 24 64 9 73 -13
110 -6 101 20 -8 26 23 32 115 25 84 -7 289 11 304 26 6 6 3 17 -9 30 -10 11
-16 22 -14 24 2 1 41 8 87 14 98 14 105 17 92 42 -9 17 -5 18 84 17 52 -1 98
2 102 6 15 15 -31 47 -69 49 -74 3 -54 21 44 42 l56 12 13 -35 c7 -20 39 -94
70 -166 32 -71 74 -188 94 -260 48 -173 168 -528 181 -532 24 -7 39 17 37 59
-1 33 1 38 8 22 68 -164 282 -619 306 -652 1 -2 12 -1 23 3 29 9 27 26 -19
200 -43 163 -49 195 -21 124 10 -25 27 -59 38 -75 11 -16 59 -98 107 -182 47
-84 112 -188 143 -230 82 -112 176 -222 189 -222 18 0 44 35 44 61 0 33 -18
89 -79 247 -36 95 -49 140 -45 161 4 18 11 28 19 25 6 -3 38 -41 71 -85 58
-79 77 -90 98 -57 8 13 1 44 -27 130 -32 98 -77 264 -77 283 0 3 44 -33 97
-80 118 -104 168 -139 183 -130 18 11 4 50 -45 123 -45 68 -82 164 -166 436
-22 71 -37 131 -35 134 5 5 107 -76 119 -95 4 -7 13 -13 20 -13 7 0 30 -12 51
-26 23 -16 42 -22 47 -17 6 6 -12 55 -46 126 -30 65 -55 120 -55 122 0 3 -27
76 -61 163 -49 127 -58 160 -49 175 8 14 5 39 -15 111 -14 52 -25 97 -25 101
0 5 38 5 84 2 64 -4 98 -13 138 -33 59 -30 128 -75 154 -101 21 -22 66 -53 77
-53 17 0 5 35 -23 67 -16 18 -30 37 -30 42 0 10 161 -48 248 -89 95 -46 128
-36 81 24 -25 32 -23 32 108 6 122 -24 209 -54 337 -114 54 -25 105 -46 112
-46 28 0 23 21 -13 61 -35 39 -36 42 -13 35 142 -39 325 -75 388 -76 27 0 28
17 2 45 l-21 22 163 6 c144 6 244 16 316 32 25 6 29 31 7 55 -14 15 -6 19 97
43 62 14 165 30 228 36 152 13 360 52 360 68 0 19 -34 33 -79 33 -23 0 -41 3
-41 8 1 4 39 25 87 47 357 165 705 534 819 866 59 174 65 218 67 454 2 194 -1
241 -25 400 -15 99 -37 213 -48 254 -19 66 -157 416 -177 448 -5 6 -36 50 -71
97 -34 47 -74 108 -89 136 -17 33 -68 91 -146 166 -114 111 -124 117 -268 190
-293 146 -639 293 -774 328 -230 59 -497 86 -680 69z m420 -93 c41 -15 43 -39
7 -72 -18 -15 -39 -28 -47 -28 -32 0 -12 -26 35 -47 54 -23 64 -47 34 -78 -9
-9 -15 -17 -13 -19 2 -1 51 -12 109 -24 117 -25 193 -58 198 -85 9 -46 -70
-83 -200 -93 l-80 -7 39 -13 c21 -8 39 -14 41 -14 1 0 2 -8 2 -18 0 -21 -24
-46 -55 -59 -11 -5 -44 -24 -73 -42 -48 -31 -51 -36 -37 -51 37 -41 5 -75 -80
-85 -54 -6 -271 -48 -319 -62 -28 -8 -10 14 35 43 46 29 49 42 12 49 -47 10
-93 34 -93 48 0 20 21 43 55 61 l30 15 -42 1 c-24 0 -69 -9 -100 -19 -80 -27
-122 -32 -167 -21 -44 10 -59 26 -46 50 9 17 109 78 255 158 l80 43 -115 -6
c-63 -3 -137 -8 -163 -11 -62 -8 -109 10 -105 40 3 23 102 80 238 137 89 37
82 32 75 52 -7 16 -74 31 -192 43 -89 9 -106 36 -43 69 26 14 210 39 345 48
120 8 356 6 380 -3z m-1318 -263 c-8 -19 -41 -65 -72 -102 l-57 -67 60 7 c49
5 62 4 69 -9 7 -13 16 -11 67 14 69 35 102 38 111 11 3 -11 16 -21 28 -23 42
-6 27 -62 -48 -187 -37 -61 -65 -114 -62 -117 2 -3 35 7 72 21 37 14 76 25 87
25 48 0 30 -78 -40 -171 -69 -93 -94 -136 -82 -144 5 -3 10 -15 10 -27 0 -18
4 -19 38 -14 42 8 35 0 -33 -36 -22 -11 -88 -65 -146 -119 -99 -93 -129 -113
-129 -89 0 6 -8 10 -18 10 -49 0 -53 44 -12 141 l29 69 -29 0 c-25 0 -31 5
-38 31 l-8 32 -48 -54 c-27 -30 -70 -83 -97 -119 -49 -67 -91 -100 -128 -100
-38 0 -37 16 6 208 4 16 1 22 -11 22 -35 0 -5 105 73 258 l22 43 -23 -12 c-46
-24 -144 -98 -183 -139 -43 -45 -76 -63 -100 -54 -26 10 -16 56 35 162 27 56
47 102 44 102 -12 0 -194 -96 -231 -122 -83 -60 -62 -20 44 83 160 155 501
409 550 409 8 0 29 10 46 22 16 12 71 39 121 59 99 41 109 39 83 -24z m2376
-125 c128 -70 236 -166 308 -276 67 -101 184 -325 175 -333 -3 -4 -24 2 -46
12 -22 10 -43 16 -46 13 -3 -3 9 -29 26 -56 67 -109 55 -152 -34 -132 -37 8
-37 8 -22 -13 56 -79 89 -143 90 -176 1 -35 0 -36 -41 -39 -50 -4 -106 22
-178 83 -27 24 -68 54 -89 69 -35 24 -41 25 -56 11 -15 -14 -21 -9 -67 48 -52
64 -151 161 -213 210 l-35 28 30 -7 c30 -7 30 -7 -16 43 -55 59 -71 86 -63
107 12 31 78 19 232 -43 28 -11 52 -17 52 -13 0 4 -43 56 -95 115 -52 59 -95
116 -95 126 0 38 52 41 144 6 37 -14 69 -25 72 -25 9 0 -67 112 -116 172 -58
68 -73 95 -65 108 13 21 63 8 148 -38z m-1013 -652 c94 -12 172 -31 364 -91
143 -45 133 -38 257 -191 68 -83 83 -109 108 -185 16 -48 37 -122 46 -163 21
-94 31 -383 17 -503 -9 -80 -14 -95 -53 -152 -41 -61 -145 -152 -214 -188 -67
-34 -338 -84 -582 -107 -231 -22 -935 20 -962 58 -3 4 -42 16 -86 26 -44 10
-93 25 -110 33 -16 7 -105 34 -197 58 -92 24 -205 60 -250 81 -46 20 -90 37
-99 39 -51 10 -99 30 -99 41 0 23 51 156 115 299 34 77 74 169 89 205 17 41
53 96 99 151 39 48 103 125 140 170 145 179 388 310 713 385 167 38 527 55
704 34z m635 -86 c8 -3 15 -1 15 5 0 6 14 11 31 11 24 0 45 -15 107 -77 95
-96 252 -300 252 -329 0 -15 -85 6 -158 39 -42 20 -86 38 -97 41 -13 4 -33 31
-54 73 -18 38 -56 106 -83 153 -28 47 -53 89 -56 94 -3 5 2 6 11 3 10 -4 24
-10 32 -13z m-2774 -106 c11 -21 7 -145 -8 -240 -3 -24 -2 -38 5 -38 6 0 38
29 73 65 99 104 118 93 147 -85 8 -52 17 -97 19 -99 2 -2 14 1 27 9 33 17 55
7 63 -30 l6 -31 26 25 c15 14 30 26 33 26 4 0 -17 -42 -46 -92 -30 -51 -73
-139 -97 -195 -32 -75 -49 -102 -62 -103 -10 0 -31 -10 -48 -22 -27 -20 -30
-21 -46 -5 -9 9 -19 36 -23 59 l-6 43 -16 -35 c-8 -19 -27 -46 -42 -60 -33
-30 -56 -20 -69 30 -5 19 -17 40 -28 48 -10 7 -24 33 -30 58 l-11 44 -35 -35
c-49 -50 -82 -46 -103 13 -8 23 -20 42 -28 42 -7 0 -21 19 -31 41 -16 35 -20
38 -25 21 -4 -11 -20 -39 -37 -62 -24 -33 -35 -41 -57 -38 -27 3 -31 11 -47
110 l-6 36 -37 -24 c-23 -15 -48 -46 -66 -80 -29 -55 -57 -80 -81 -71 -8 4
-15 34 -20 81 -7 74 -6 77 36 168 67 149 161 316 180 321 10 3 26 -1 36 -8 45
-30 66 -26 102 20 38 52 92 88 115 79 21 -8 29 -41 24 -104 -2 -39 0 -49 10
-45 8 3 17 5 22 5 5 0 23 25 41 56 64 113 115 150 140 102z m-9669 -599 c15
-24 30 -58 34 -76 l6 -32 -38 10 c-22 6 -46 17 -54 23 -45 38 -163 59 -188 34
-15 -15 -81 -11 -100 5 -27 22 -173 -6 -245 -46 -105 -59 -126 -270 -44 -437
38 -76 73 -100 152 -98 28 0 75 -1 105 -2 95 -4 164 42 244 163 59 90 110 141
162 163 19 8 36 14 39 14 9 0 5 -41 -6 -61 -5 -11 -9 -30 -6 -42 3 -18 7 -15
25 23 12 25 22 55 22 67 0 21 4 22 129 25 71 2 133 7 138 11 12 13 -45 55
-100 73 -27 9 -45 20 -40 24 17 16 121 41 214 50 l95 10 127 -40 c69 -22 133
-48 142 -57 9 -9 30 -41 48 -71 l31 -55 11 34 c7 19 19 35 28 37 29 6 40 -36
34 -132 -4 -74 -4 -81 4 -38 11 63 34 122 48 122 6 0 18 -11 26 -24 14 -21 15
-37 6 -120 -13 -116 -14 -196 -2 -215 8 -12 11 -8 16 15 20 92 28 123 45 162
20 44 46 55 57 25 4 -10 17 -26 30 -36 27 -22 28 -44 8 -150 -8 -43 -15 -88
-15 -98 0 -34 16 -12 35 46 21 67 40 78 70 43 20 -24 23 -39 27 -198 4 -129 9
-175 19 -186 12 -12 18 0 38 84 12 53 29 104 36 112 7 8 15 31 17 50 3 30 7
35 31 38 23 3 30 -2 42 -32 12 -29 13 -49 4 -113 -6 -43 -9 -99 -6 -125 6 -43
24 -88 38 -88 3 0 12 43 19 96 10 67 18 98 29 102 8 3 17 0 19 -6 2 -6 15 -28
29 -49 27 -39 59 -122 72 -186 11 -50 18 -55 26 -17 6 29 9 31 38 24 18 -3 35
-12 39 -18 4 -6 13 -11 20 -11 11 0 46 -60 82 -137 5 -10 7 -10 12 0 11 23 30
12 69 -40 l40 -53 5 39 c3 22 10 41 16 43 6 2 30 -19 54 -47 23 -27 45 -50 50
-50 4 0 13 20 19 45 15 60 37 59 91 -5 24 -28 49 -50 58 -48 8 2 22 22 30 46
7 23 20 42 27 42 8 0 30 -20 51 -45 25 -31 40 -42 45 -34 4 7 13 10 21 7 18
-7 99 -128 93 -139 -3 -4 -18 -14 -34 -22 -28 -14 -29 -13 -41 12 -12 25 -12
25 -26 6 -8 -11 -13 -28 -10 -37 2 -10 1 -18 -4 -18 -9 0 -69 67 -86 96 -14
23 -22 17 -30 -22 -5 -24 1 -39 31 -78 34 -45 32 -52 -7 -18 -10 8 -18 12 -18
7 0 -4 -7 -2 -15 5 -9 7 -18 10 -22 7 -8 -8 -70 41 -125 99 -23 24 -45 44 -49
44 -15 0 -19 -34 -6 -54 8 -12 22 -34 33 -51 l19 -30 -40 24 c-22 14 -59 39
-82 58 -23 18 -44 33 -48 33 -4 0 -5 -13 -3 -29 3 -23 1 -27 -14 -23 -13 3
-18 -1 -18 -17 0 -11 -3 -21 -6 -21 -14 0 -54 27 -112 76 -35 30 -68 51 -74
48 -5 -4 -27 11 -49 32 -71 69 -66 9 6 -73 26 -29 43 -53 38 -53 -14 0 -106
66 -152 110 -40 38 -46 40 -57 25 -9 -12 -21 -15 -47 -10 -21 4 -37 3 -41 -4
-12 -19 -79 36 -135 109 -30 39 -59 70 -67 70 -7 0 -14 -12 -16 -27 -3 -25 -6
-22 -39 37 -20 36 -40 75 -43 88 -9 26 -31 29 -45 5 -8 -14 -11 -7 -16 33 -9
64 -21 86 -35 64 -5 -8 -10 -24 -11 -35 -2 -36 -16 28 -24 104 -7 69 -21 92
-32 51 -6 -23 -35 -26 -53 -5 -6 8 -27 49 -46 92 -18 43 -38 79 -44 81 -6 2
-10 -14 -10 -39 0 -32 -3 -40 -11 -32 -6 6 -17 9 -24 7 -15 -6 -42 30 -84 113
-36 72 -48 83 -59 52 -8 -20 -11 -17 -41 30 -18 28 -35 51 -37 51 -3 0 -8 -8
-12 -19 -7 -18 -9 -17 -43 4 -22 14 -47 45 -65 79 -16 31 -34 56 -41 56 -7 0
-13 -19 -15 -47 l-3 -48 -28 48 c-16 27 -33 45 -39 41 -11 -7 -6 -134 7 -169
7 -16 6 -18 -6 -7 -18 16 -29 15 -29 -3 0 -20 -6 -19 -40 5 -22 16 -29 17 -33
6 -3 -8 1 -22 8 -33 26 -33 16 -33 -27 -1 l-43 33 3 115 c3 92 0 119 -12 135
-14 17 -17 18 -26 5 -6 -8 -12 -24 -14 -35 -41 -220 -71 -349 -100 -421 -19
-49 -49 -127 -67 -173 -30 -79 -39 -92 -168 -228 -90 -95 -168 -191 -231 -282
-52 -76 -126 -177 -165 -224 -63 -79 -70 -85 -73 -62 -2 17 12 51 42 100 64
101 89 160 131 305 20 69 47 148 59 175 23 51 140 224 206 305 21 25 70 98
110 163 76 125 181 264 206 274 7 3 14 13 14 23 0 26 -94 45 -145 31 -52 -14
-130 -67 -166 -112 -18 -23 -55 -51 -94 -70 -56 -27 -80 -33 -175 -39 l-111
-7 -212 -106 c-207 -103 -535 -249 -589 -262 -21 -5 -37 1 -73 25 -43 30 -47
35 -41 64 16 80 128 218 256 316 79 61 127 107 119 115 -16 15 -241 -166 -294
-238 -52 -69 -95 -147 -95 -174 0 -15 -2 -16 -10 -3 -28 43 -1 200 41 233 125
101 157 123 476 323 34 21 177 138 275 224 102 90 218 152 323 174 47 10 116
13 210 11 l140 -3 27 -43z m13248 -1 c29 -48 78 -187 91 -263 7 -36 15 -65 19
-65 4 0 12 18 19 40 41 137 99 -52 65 -214 -22 -108 -72 -251 -99 -282 -13
-15 -21 -33 -18 -39 6 -18 -16 -30 -30 -16 -8 8 -18 -3 -36 -42 -14 -28 -34
-53 -43 -55 -23 -4 -56 50 -64 105 -3 24 -10 40 -15 37 -13 -8 -13 -7 32 122
54 154 59 174 50 174 -5 0 -12 -19 -17 -42 -7 -32 -9 1 -9 122 0 91 -6 216
-14 277 -11 91 -11 118 -1 143 16 40 45 39 70 -2z m-341 -211 l25 -38 18 34
c27 53 67 57 68 8 0 -8 5 -77 11 -154 10 -134 1 -339 -20 -452 -7 -36 -8 -37
-14 -15 -3 14 -9 43 -12 64 l-7 40 -20 -33 c-17 -26 -26 -32 -48 -29 -24 4
-28 -1 -44 -44 -14 -40 -21 -48 -41 -48 -53 0 -68 84 -50 276 8 86 -5 138 -28
115 -21 -21 -47 -12 -64 23 -15 32 -15 38 11 128 14 51 26 99 26 106 0 7 13
12 33 12 23 0 41 8 57 25 34 36 69 30 99 -18z m-3316 -115 c9 -9 30 -58 48
-107 46 -130 65 -165 92 -165 38 0 44 -15 35 -82 -4 -34 -10 -63 -12 -66 -3
-2 -16 19 -30 47 -15 28 -33 51 -41 51 -9 0 -20 12 -26 27 -12 32 -38 63 -52
63 -28 0 24 -255 84 -409 28 -69 30 -84 18 -92 -26 -17 -44 -5 -86 59 -32 48
-45 60 -49 47 -4 -9 -13 -14 -20 -11 -21 8 -26 -11 -14 -50 14 -41 1 -64 -35
-64 -23 0 -48 42 -92 153 -8 20 -18 37 -22 37 -19 -1 -29 -21 -39 -79 -12 -69
-34 -111 -58 -111 -8 0 -29 23 -46 50 -17 28 -32 50 -34 50 -1 0 -2 -39 -1
-87 1 -93 -18 -153 -48 -153 -17 0 -76 72 -153 188 -61 92 -65 92 -82 0 -14
-74 -29 -87 -69 -58 -25 19 -33 21 -46 10 -8 -7 -17 -11 -20 -9 -2 3 -11 45
-20 94 -13 74 -15 131 -9 325 6 231 7 234 25 211 11 -13 19 -31 19 -41 0 -10
11 -25 24 -33 13 -9 29 -32 36 -52 6 -19 14 -35 16 -35 17 0 44 24 44 39 0 58
51 161 80 161 24 0 48 -43 65 -111 10 -41 22 -85 27 -99 l9 -24 12 24 c7 14
22 29 33 34 17 8 25 27 37 88 19 98 45 152 74 156 30 4 53 -34 60 -103 3 -30
9 -58 13 -60 7 -4 11 2 50 87 27 59 55 71 86 35 l22 -26 6 22 c9 35 44 87 59
87 8 0 21 -8 30 -18z m-948 -415 c1 -284 0 -280 61 -599 5 -26 5 -26 -33 -17
-56 13 -73 11 -73 -8 0 -9 10 -28 23 -41 l22 -25 -100 6 c-55 4 -119 9 -142
13 -38 6 -43 4 -43 -13 0 -10 5 -24 12 -31 9 -9 4 -12 -23 -12 -39 0 -185 32
-244 54 -43 15 -55 13 -55 -9 0 -21 35 -51 133 -115 l88 -58 -98 3 c-102 2
-271 38 -360 76 -53 23 -83 24 -83 5 0 -28 53 -76 133 -122 l82 -45 -90 7
c-49 4 -106 8 -126 9 -19 0 -61 9 -92 20 -44 15 -60 16 -69 7 -9 -9 -2 -20 28
-48 l39 -37 -44 7 c-24 3 -53 13 -64 21 -12 8 -29 15 -39 15 -18 0 -26 39 -11
54 4 4 8 13 9 19 0 7 2 20 2 30 1 9 9 17 17 17 8 0 15 9 15 20 0 11 4 20 9 20
5 0 11 15 15 32 5 26 2 36 -14 48 -16 12 -20 22 -15 43 8 30 15 32 65 16 19
-6 63 -14 97 -18 62 -7 62 -7 57 16 -6 21 -3 23 30 23 21 0 58 -5 83 -12 40
-10 47 -9 55 5 7 13 23 17 67 17 53 0 58 2 57 23 -1 20 5 23 69 31 51 6 91 4
150 -7 44 -8 82 -13 84 -12 1 2 -22 18 -52 35 -64 36 -82 54 -73 75 8 23 37
19 165 -25 64 -22 125 -40 134 -40 38 0 22 21 -45 58 -40 22 -81 49 -92 61
-28 31 -14 51 35 51 24 0 58 5 76 12 32 12 34 15 28 48 -3 19 -1 41 3 48 5 7
-1 42 -15 84 -23 71 -23 73 -5 98 30 40 44 97 43 173 0 46 5 81 14 97 8 14 19
35 24 48 8 16 19 22 43 22 l33 0 0 -273z m1805 28 c52 -15 118 -38 146 -51 28
-13 54 -24 57 -24 4 0 15 -8 26 -17 10 -10 35 -31 55 -46 24 -18 36 -36 36
-52 0 -27 -10 -35 -54 -45 -30 -6 -30 -7 24 -24 69 -23 117 -52 131 -79 10
-17 8 -24 -11 -39 -12 -10 -29 -18 -37 -18 -8 0 -39 -7 -69 -16 -66 -19 -69
-35 -14 -81 42 -36 50 -62 25 -83 -9 -7 -13 -21 -9 -35 9 -36 -56 -65 -148
-65 -32 0 -58 -4 -58 -9 0 -4 32 -22 70 -39 70 -31 92 -54 72 -74 -8 -8 -30
-8 -79 0 -37 7 -152 23 -254 36 -186 24 -242 40 -292 85 -11 9 -38 23 -60 31
-46 17 -62 41 -73 108 -6 41 -5 43 25 53 41 14 45 37 26 127 -19 92 -19 102 2
102 14 0 14 3 -4 23 -45 50 -39 82 18 97 l39 11 -36 34 c-41 39 -42 65 -1 79
25 9 81 1 235 -32 20 -4 22 -2 17 20 -4 17 -1 31 11 42 21 22 54 18 184 -19z
m1750 -87 c0 -7 -7 -26 -16 -43 -20 -38 -44 -108 -39 -113 9 -10 122 -18 157
-12 60 11 92 -1 96 -34 3 -24 -7 -39 -58 -88 -44 -43 -59 -63 -51 -71 6 -6 11
-22 11 -35 0 -16 5 -22 13 -19 8 3 43 8 79 12 53 6 68 4 81 -10 9 -9 17 -21
17 -26 0 -6 -23 -35 -51 -65 -29 -30 -48 -54 -43 -54 5 0 45 7 88 15 44 8 81
13 84 10 7 -7 9 -6 -103 -50 -55 -22 -107 -47 -115 -55 -18 -18 -136 -62 -226
-85 -208 -52 -609 -90 -829 -79 -228 11 -226 15 34 59 176 30 235 43 238 55 2
8 9 23 14 33 8 16 2 17 -80 17 -72 0 -93 4 -112 19 -22 17 -22 21 -10 45 28
52 121 96 201 96 32 0 50 5 53 14 8 20 -14 44 -42 48 -13 2 -29 11 -35 20 -23
38 38 84 204 157 l55 24 -43 7 c-39 6 -61 21 -62 42 0 3 12 20 26 37 17 21 35
31 54 31 34 0 230 50 325 84 83 29 85 29 85 14z m-6630 -50 c14 -40 43 -100
73 -153 19 -34 22 -54 21 -135 0 -52 -6 -114 -13 -138 -32 -113 -8 -280 65
-445 22 -52 31 -84 26 -93 -13 -24 -106 67 -175 170 -56 83 -81 102 -93 71
-15 -39 76 -257 158 -378 22 -32 38 -60 36 -63 -7 -7 -103 61 -189 134 -82 70
-115 88 -102 57 5 -14 0 -13 -31 1 -27 14 -39 15 -48 6 -14 -14 33 -115 87
-185 20 -27 30 -47 23 -47 -22 0 -156 78 -218 125 -90 69 -144 134 -244 293
-31 49 -50 50 -54 4 -10 -96 86 -286 212 -422 22 -24 32 -37 21 -29 -11 9 -27
20 -35 24 -13 8 -13 7 0 -10 13 -17 13 -18 0 -10 -8 4 -36 23 -61 42 -61 43
-73 43 -65 -2 4 -20 3 -35 -3 -35 -5 0 -11 -7 -13 -15 -2 -12 -15 -9 -67 15
-96 46 -151 90 -226 185 -37 47 -73 84 -79 82 -6 -2 -10 -22 -9 -46 2 -54 54
-149 118 -219 31 -35 49 -62 47 -74 -2 -11 4 -28 14 -39 16 -17 16 -19 0 -25
-10 -4 -15 -13 -12 -20 7 -18 -7 -17 -68 1 -69 21 -122 54 -201 125 -103 94
-113 42 -13 -67 37 -39 39 -43 15 -34 -14 6 -44 20 -67 31 -37 19 -44 18 -41
-2 2 -12 -15 -10 -56 7 -26 11 -50 33 -76 70 -39 56 -65 66 -47 19 15 -39 12
-42 -10 -9 -11 17 -27 53 -36 80 -20 61 -31 75 -45 55 -13 -20 -3 -92 21 -148
l20 -47 -23 28 c-50 60 -51 7 -1 -58 19 -26 34 -49 32 -51 -8 -7 -117 97 -153
146 -39 53 -72 68 -60 28 16 -53 65 -126 129 -196 56 -59 63 -70 36 -53 -30
18 -36 18 -40 6 -4 -12 -16 -9 -60 19 -55 35 -74 38 -64 11 5 -13 0 -13 -37 0
-48 17 -72 14 -63 -10 5 -13 2 -15 -17 -10 -26 6 -314 45 -333 45 -7 0 -36 29
-65 64 -55 66 -84 86 -126 86 -38 0 -31 -30 21 -95 44 -53 45 -56 17 -42 -39
21 -101 90 -120 136 -17 41 -12 133 8 157 7 9 23 14 36 11 14 -2 23 1 23 8 0
6 6 25 13 41 8 16 21 45 29 64 l16 35 12 -32 c7 -18 16 -33 21 -33 12 0 11 51
-1 70 -6 10 -4 20 6 31 14 16 18 14 53 -24 27 -29 43 -38 56 -34 12 5 16 15
13 32 l-5 24 29 -24 c16 -14 33 -25 38 -25 15 0 21 36 10 64 -5 15 -10 29 -10
32 0 11 66 2 81 -12 26 -24 42 -8 35 36 -4 24 -1 43 8 55 13 18 16 17 65 -24
28 -24 60 -56 72 -72 20 -28 47 -35 41 -10 -1 6 -4 26 -6 44 -3 18 -9 45 -15
60 -13 35 -14 74 -2 82 5 3 26 -20 46 -50 44 -66 78 -95 104 -88 15 4 29 -8
56 -46 20 -28 43 -51 51 -51 17 0 18 33 3 62 -6 11 -13 56 -15 99 -4 62 -2 79
9 79 17 0 35 -21 77 -90 18 -30 37 -58 43 -62 17 -10 29 2 24 23 -9 35 15 20
75 -46 33 -36 66 -65 74 -65 22 0 17 43 -11 93 -28 49 -39 147 -18 154 6 2 33
-26 60 -62 26 -36 62 -85 79 -108 42 -59 60 -56 57 11 -1 28 1 52 5 52 4 0 25
-22 45 -50 21 -27 42 -50 47 -50 22 0 19 25 -9 86 -17 36 -28 70 -25 75 3 5
-2 36 -12 68 -29 105 2 173 45 99 40 -69 87 -128 101 -128 16 0 46 -27 79 -70
16 -20 22 -22 32 -13 10 10 10 23 2 60 -6 26 -9 51 -7 55 10 16 35 7 63 -24
27 -30 51 -32 51 -3 0 8 -14 55 -31 105 -29 87 -35 158 -15 163 6 1 36 -37 68
-84 74 -109 162 -196 183 -179 20 16 11 52 -27 115 -88 144 -96 162 -109 237
-19 115 0 116 65 5 49 -84 102 -141 123 -133 9 4 25 -2 37 -13 12 -10 29 -21
38 -23 10 -1 37 -32 60 -68 24 -36 50 -65 58 -65 30 0 22 46 -19 114 -44 72
-54 100 -20 57 25 -31 36 -33 44 -5 4 13 -3 40 -19 73 -14 29 -26 60 -26 68 0
8 -11 48 -25 88 -32 95 -45 210 -23 210 9 0 23 -20 33 -47 29 -79 95 -204 104
-199 4 3 25 -13 46 -34 43 -44 58 -48 82 -24 18 17 21 87 5 106 -15 20 -62
175 -62 209 0 40 24 38 40 -3z m4049 -434 c12 -15 21 -33 21 -40 0 -8 25 -67
57 -131 56 -117 56 -119 62 -232 l6 -113 -44 48 c-24 27 -68 82 -97 122 -57
76 -74 87 -74 49 0 -57 120 -357 210 -524 33 -61 40 -86 47 -160 9 -93 7 -123
-7 -123 -5 0 -36 37 -70 83 -105 143 -118 156 -140 150 -11 -3 -20 -11 -20
-18 0 -28 76 -220 187 -474 29 -68 52 -126 49 -128 -7 -7 -67 89 -114 182 -46
92 -73 123 -90 103 -8 -10 -3 -54 19 -162 16 -82 31 -152 34 -156 2 -4 -5 -7
-18 -6 -19 1 -26 15 -53 109 -18 59 -37 113 -42 120 -5 7 -13 31 -17 55 -8 50
-32 56 -70 18 l-25 -25 -19 27 c-32 46 -67 229 -87 455 -3 42 -10 80 -15 83
-16 9 -69 -26 -75 -50 -3 -14 -4 -76 -2 -139 1 -63 0 -113 -4 -111 -16 10 -91
282 -113 407 -7 45 -35 50 -75 12 l-26 -25 -74 161 c-70 154 -73 163 -59 188
25 44 46 39 110 -29 l58 -62 5 34 c22 132 29 165 41 188 20 38 42 54 62 45 10
-4 30 -7 44 -6 28 2 45 -23 55 -87 3 -21 14 -49 24 -62 l19 -25 21 28 c41 52
66 34 110 -78 29 -74 40 -88 40 -49 0 43 19 103 38 122 14 14 16 32 14 89 -3
55 1 82 17 117 23 54 49 60 80 20z"/>
<path d="M855 5449 c-54 -50 -108 -136 -135 -215 -22 -64 -25 -84 -10 -84 6 0
10 6 10 13 0 31 83 181 126 227 35 37 56 51 88 57 53 11 56 37 4 41 -32 3 -44
-3 -83 -39z"/>
<path d="M976 5392 c-3 -5 13 -44 35 -88 22 -43 38 -87 37 -99 -3 -23 -123
-106 -181 -126 -46 -15 -80 -2 -105 41 -9 16 -20 30 -24 30 -33 0 40 -106 78
-116 31 -8 87 17 187 83 39 26 69 54 73 67 6 25 -28 124 -63 179 -24 39 -29
42 -37 29z"/>
<path d="M496 5105 c-25 -101 -12 -190 28 -190 27 0 31 22 7 30 -28 9 -36 46
-24 121 9 62 1 89 -11 39z"/>
<path d="M1680 4810 c0 -35 -26 -74 -89 -132 -64 -60 -121 -89 -121 -62 0 9 5
24 10 35 8 13 7 19 0 19 -19 0 -42 -68 -30 -90 14 -25 31 -25 82 1 104 53 218
227 161 247 -8 2 -13 -5 -13 -18z"/>
<path d="M12355 4840 c3 -5 8 -10 11 -10 2 0 4 5 4 10 0 6 -5 10 -11 10 -5 0
-7 -4 -4 -10z"/>
<path d="M6706 4377 c3 -10 9 -15 12 -12 3 3 0 11 -7 18 -10 9 -11 8 -5 -6z"/>
</g>
</svg>
