<?xml version="1.0" standalone="no"?>
<!DOCTYPE svg PUBLIC "-//W3C//DTD SVG 20010904//EN"
 "http://www.w3.org/TR/2001/REC-SVG-20010904/DTD/svg10.dtd">
<svg version="1.0" xmlns="http://www.w3.org/2000/svg"
 width="1536.000000pt" height="818.000000pt" viewBox="0 0 1536.000000 818.000000"
 preserveAspectRatio="xMidYMid meet">
<metadata>
Created by potrace 1.16, written by Peter Selinger 2001-2019
</metadata>
<g transform="translate(0.000000,818.000000) scale(0.100000,-0.100000)"
fill="#000000" stroke="none">
<path d="M1590 8155 c-30 -13 -61 -24 -69 -25 -13 0 -95 -45 -181 -99 -30 -19
-50 -16 -70 10 -13 17 -19 18 -43 7 -15 -7 -27 -16 -27 -20 0 -17 -164 -188
-180 -188 -33 0 -70 -42 -112 -128 -24 -48 -50 -94 -60 -103 -9 -10 -21 -43
-28 -76 -19 -94 -29 -119 -65 -155 -19 -18 -35 -38 -35 -45 0 -6 -111 -122
-248 -257 -136 -136 -263 -270 -282 -299 -19 -28 -53 -74 -76 -102 -117 -143
-126 -175 -89 -312 35 -127 51 -157 119 -220 36 -34 56 -60 56 -75 0 -13 7
-36 15 -52 8 -15 15 -33 15 -38 0 -6 11 -23 24 -38 13 -16 43 -63 67 -105 24
-43 50 -87 56 -99 16 -26 16 -66 2 -103 -14 -34 -21 -145 -9 -138 5 3 16 -7
24 -22 9 -15 40 -48 69 -73 30 -25 75 -73 101 -107 25 -34 61 -73 79 -87 49
-38 149 -96 164 -96 26 0 24 29 -5 72 -44 65 -85 149 -75 158 4 4 29 10 55 13
41 4 53 0 99 -30 128 -86 258 -127 267 -83 1 9 -22 44 -53 80 -30 35 -55 67
-55 70 0 4 22 10 48 12 30 3 63 15 87 31 22 15 46 27 55 27 8 0 28 14 43 30
16 17 33 30 38 30 5 0 9 6 9 13 0 24 61 107 79 107 9 0 22 5 29 12 14 14 64
-37 95 -95 10 -21 28 -42 38 -48 10 -5 34 -31 51 -57 58 -84 152 -191 176
-198 12 -3 28 -1 36 5 11 9 16 5 26 -19 7 -16 19 -35 27 -42 8 -6 28 -38 44
-70 32 -63 49 -67 49 -13 0 48 16 52 41 10 12 -19 29 -40 39 -45 9 -5 20 -23
23 -40 4 -16 13 -30 21 -30 7 0 16 -7 19 -14 3 -8 21 -22 38 -32 32 -16 33
-16 50 5 l18 21 43 -50 c24 -27 48 -50 54 -50 6 0 25 -22 42 -50 28 -45 52
-64 52 -41 0 5 20 8 43 7 41 -1 47 -5 96 -64 30 -36 58 -61 66 -58 7 2 25 -9
40 -24 l28 -29 23 24 c13 14 30 25 38 25 8 0 19 8 24 17 9 15 12 15 30 2 107
-78 115 -82 132 -71 14 8 24 1 58 -38 49 -57 159 -133 180 -125 17 6 72 -41
72 -63 0 -10 7 -12 26 -8 20 5 30 1 46 -19 11 -14 24 -22 30 -18 6 3 22 -7 34
-22 19 -24 25 -27 38 -16 13 11 20 7 44 -21 75 -86 82 -96 82 -131 0 -20 6
-37 14 -40 7 -3 17 -18 20 -34 11 -41 93 -210 107 -219 7 -4 20 2 30 15 l19
23 6 -42 c8 -52 57 -118 106 -145 44 -24 55 -44 64 -127 4 -35 11 -68 15 -74
6 -7 1 -30 -12 -60 -18 -42 -19 -54 -9 -85 9 -25 9 -46 1 -73 -5 -21 -8 -66
-5 -100 5 -55 3 -66 -25 -116 -17 -30 -42 -78 -55 -107 -24 -51 -31 -56 -91
-65 -12 -2 -21 -12 -23 -26 -2 -12 -7 -22 -12 -22 -8 0 -22 -34 -24 -59 -1 -9
-21 -20 -49 -27 -28 -7 -63 -26 -87 -47 -21 -20 -53 -43 -69 -52 -19 -9 -31
-23 -31 -35 0 -14 -7 -20 -24 -20 -19 0 -27 -8 -35 -32 -7 -21 -33 -51 -71
-81 -33 -26 -67 -61 -76 -79 -26 -50 -121 -175 -139 -182 -9 -3 -23 -22 -31
-43 -9 -20 -37 -62 -63 -92 -25 -31 -54 -72 -64 -91 -10 -20 -61 -87 -113
-150 -53 -63 -109 -142 -125 -175 -49 -98 -208 -316 -298 -406 -46 -46 -87
-93 -93 -104 -26 -56 -42 -77 -64 -85 -13 -5 -24 -17 -24 -26 0 -10 -5 -14
-15 -10 -21 8 -45 -3 -45 -20 0 -9 -12 -14 -34 -14 -19 0 -37 -4 -40 -9 -12
-19 -134 -83 -249 -131 -67 -28 -153 -65 -191 -83 -70 -33 -126 -84 -126 -115
0 -10 -21 -42 -46 -72 -25 -30 -50 -65 -55 -78 -10 -26 -12 -76 -3 -85 3 -3
34 10 69 29 l62 34 17 -24 c15 -23 15 -28 -1 -61 -25 -52 -7 -66 49 -38 l43
20 33 -21 c30 -20 32 -24 26 -63 -5 -38 -4 -43 13 -43 10 0 36 12 57 26 36 24
41 25 82 14 30 -9 78 -11 147 -6 137 8 391 25 395 25 1 1 22 19 47 42 24 22
48 38 54 35 5 -4 12 3 16 14 4 12 23 32 43 45 66 43 89 69 116 130 44 97 86
151 86 109 0 -11 6 -14 23 -9 39 12 67 35 104 86 19 27 38 47 41 44 3 -3 18 7
34 22 l28 27 0 -27 c0 -15 3 -27 8 -27 4 0 29 16 56 35 53 38 71 44 62 20 -11
-29 17 -14 99 51 45 37 125 90 178 118 174 93 208 121 376 303 29 32 63 76 75
98 12 22 29 40 38 40 10 0 38 28 63 62 24 34 57 70 72 80 15 10 57 47 93 82
36 35 86 74 111 87 25 12 75 47 110 77 35 29 87 65 115 79 28 13 89 61 136
107 61 59 108 94 164 122 43 22 91 54 105 71 19 23 28 27 31 17 4 -10 15 -5
42 20 l36 35 0 -27 c0 -37 20 -26 55 28 20 33 35 45 54 46 14 1 34 2 44 3 10
1 27 12 37 26 19 24 20 24 20 4 0 -43 15 -32 47 37 21 45 40 73 52 76 13 3 26
22 36 54 15 44 19 48 36 38 26 -14 37 -5 61 50 19 45 19 83 1 158 -4 18 -1 23
15 23 17 0 20 7 20 52 0 29 -9 76 -19 105 -12 35 -15 53 -7 55 8 3 7 18 -5 50
-8 26 -13 49 -10 51 2 3 16 2 31 -2 28 -8 69 -75 107 -179 22 -60 30 -68 49
-53 23 19 32 12 63 -49 19 -36 36 -55 49 -56 10 -1 26 -5 35 -8 24 -10 39 15
50 85 14 89 21 93 38 19 6 -25 13 -66 17 -92 6 -55 24 -62 67 -28 14 11 27 20
29 20 3 0 11 -18 18 -40 14 -41 27 -49 48 -28 9 9 12 8 12 -5 0 -9 6 -17 14
-17 9 0 16 -17 21 -50 9 -65 47 -114 82 -105 20 5 28 -2 55 -45 17 -27 37 -50
44 -50 8 0 14 -5 14 -10 0 -6 11 -15 23 -19 13 -5 31 -25 41 -45 9 -19 21 -38
26 -41 9 -6 33 66 46 138 7 41 21 49 28 15 3 -13 8 -36 11 -52 l6 -29 23 22
c18 17 26 19 31 10 5 -8 16 4 32 34 13 26 28 47 33 47 5 0 12 -18 17 -41 9
-46 23 -54 38 -21 5 12 12 22 15 22 3 0 16 -20 28 -45 12 -25 28 -45 36 -45
17 0 26 -31 26 -92 0 -51 6 -58 25 -31 21 28 41 8 52 -53 16 -82 30 -115 53
-121 18 -5 45 -60 52 -108 3 -15 10 -19 29 -17 23 3 30 -4 55 -54 16 -32 38
-60 50 -64 16 -7 28 -28 45 -81 15 -47 32 -81 51 -97 29 -26 40 -53 58 -145 7
-36 23 -73 44 -100 32 -43 56 -105 56 -147 0 -13 3 -20 7 -17 3 4 15 0 25 -10
13 -11 18 -30 18 -63 0 -35 4 -50 17 -54 9 -4 20 -3 25 2 13 13 58 -33 58 -58
0 -10 5 -22 10 -25 6 -3 10 -17 10 -30 0 -35 10 -54 26 -48 9 3 14 -2 14 -17
0 -16 4 -20 15 -16 9 3 15 0 15 -10 0 -11 9 -9 35 11 19 15 39 24 44 21 15 -9
41 -66 41 -89 0 -13 5 -17 15 -13 16 6 35 -21 35 -52 0 -11 -12 -36 -26 -57
-14 -21 -25 -45 -25 -54 1 -9 1 -35 1 -58 -1 -35 4 -44 30 -63 l31 -22 -3
-101 c-3 -95 -1 -105 23 -147 15 -25 50 -67 78 -95 29 -27 67 -72 85 -100 19
-27 43 -58 55 -69 25 -22 57 -15 46 12 -20 47 -18 61 11 73 16 7 49 12 74 13
44 1 45 1 48 38 2 29 11 44 40 67 l37 29 30 -24 c54 -43 77 -25 49 37 -17 39
-17 40 5 67 36 45 52 90 62 178 5 47 16 104 25 127 9 23 19 56 23 72 4 17 13
29 19 28 6 -2 14 21 17 52 6 45 2 72 -20 143 -35 114 -43 135 -82 210 -35 67
-41 97 -21 105 9 3 1 18 -22 43 -47 52 -97 125 -116 170 -13 30 -13 38 -3 45
11 6 9 19 -9 60 -16 39 -19 55 -10 60 16 10 -3 73 -48 161 -29 56 -33 70 -23
86 15 24 -9 99 -57 180 -19 31 -39 75 -44 97 -6 22 -17 55 -25 73 -8 18 -15
45 -15 60 0 15 -11 46 -24 69 -22 38 -23 44 -9 52 13 7 14 14 6 38 -14 38 -6
83 18 106 25 24 25 29 -16 102 -30 53 -34 67 -25 89 5 15 14 25 19 21 21 -12
21 17 0 66 -18 41 -20 52 -9 59 10 6 9 19 -10 64 -21 53 -22 60 -8 94 14 36
13 39 -14 76 -15 21 -28 43 -28 47 0 12 47 12 54 0 3 -4 19 -11 36 -14 19 -4
34 -16 42 -32 14 -32 24 -32 32 0 4 14 10 25 15 25 9 0 33 -47 46 -87 9 -30
21 -29 29 2 9 36 31 31 49 -12 l15 -38 1 38 c1 20 6 37 11 37 6 0 10 6 10 14
0 21 21 31 31 15 6 -11 9 -10 14 3 12 30 53 1 67 -46 14 -51 17 -54 28 -36 7
11 11 11 24 1 14 -11 16 -11 16 4 0 12 5 15 16 11 11 -4 18 1 21 14 9 33 21
22 29 -25 5 -38 10 -45 28 -45 14 0 28 10 36 25 l14 26 13 -23 c7 -13 12 -19
13 -14 0 5 6 3 14 -3 11 -10 16 -6 24 16 l10 28 14 -33 c15 -33 28 -33 28 0 0
25 29 68 46 68 8 0 17 -7 20 -15 8 -21 24 -19 25 3 0 10 3 12 6 5 7 -20 23
-15 23 7 0 10 9 24 20 30 18 10 22 7 36 -25 l14 -36 24 26 24 26 12 -36 c11
-35 13 -36 31 -19 10 9 21 25 24 35 9 28 21 23 49 -17 l25 -37 7 27 c7 28 31
35 40 11 11 -27 24 -16 24 20 0 19 4 35 8 35 16 0 47 -42 58 -79 11 -35 11
-35 18 -11 4 16 22 33 49 47 43 22 117 37 117 25 0 -4 16 -7 37 -7 34 0 37 -3
49 -40 8 -28 12 -33 13 -17 1 26 8 28 32 6 22 -20 49 -12 49 16 0 29 17 25 35
-10 9 -17 21 -30 29 -30 7 0 21 -9 31 -20 10 -11 26 -20 37 -20 21 0 22 6 -1
-100 l-18 -85 28 -3 c34 -4 49 -41 49 -118 0 -29 5 -56 10 -59 6 -3 10 -39 10
-80 0 -68 2 -75 26 -93 21 -15 29 -32 37 -78 13 -80 11 -121 -12 -211 -26
-102 -29 -156 -11 -178 8 -10 13 -29 11 -44 -2 -17 5 -31 22 -46 24 -19 24
-22 14 -92 -9 -66 -8 -74 12 -99 17 -22 21 -40 21 -106 0 -69 -3 -84 -25 -112
-14 -18 -25 -36 -25 -39 0 -3 -31 -38 -69 -77 -51 -52 -68 -76 -64 -90 3 -11
0 -20 -6 -20 -6 0 -42 -31 -81 -70 -38 -38 -86 -78 -107 -89 -22 -11 -44 -31
-51 -45 -6 -15 -33 -40 -58 -56 -26 -16 -72 -56 -103 -88 -31 -33 -80 -71
-109 -86 -29 -15 -55 -33 -58 -41 -10 -26 -42 -26 -140 0 -101 26 -180 33
-169 15 4 -6 -5 -10 -21 -10 -27 0 -104 -38 -104 -51 0 -5 -18 -13 -40 -19
-27 -7 -44 -19 -49 -34 -5 -12 -23 -44 -40 -71 -20 -32 -31 -62 -31 -86 0 -21
-7 -64 -15 -95 -10 -40 -12 -62 -4 -75 14 -28 32 -23 67 16 l32 34 52 -18 c29
-10 94 -36 143 -56 87 -37 94 -38 230 -42 77 -2 156 -9 176 -14 34 -11 41 -8
150 58 63 38 126 80 140 93 91 86 122 111 162 130 26 12 51 28 58 36 6 8 18
14 26 14 8 0 29 11 46 24 18 13 82 49 142 81 61 31 117 63 125 70 26 22 138
75 159 75 11 0 33 11 50 26 18 15 50 28 80 33 27 4 63 18 79 32 17 13 49 38
72 54 23 17 67 57 98 90 31 33 76 72 98 86 31 21 49 43 73 93 17 36 31 74 31
85 0 27 21 81 31 81 5 0 9 21 8 48 -1 77 8 200 17 213 4 7 10 53 14 103 4 50
21 156 39 236 18 84 29 157 25 173 -5 22 0 32 20 48 15 12 26 31 26 44 0 13
11 32 24 42 19 15 26 37 40 117 13 75 24 107 42 129 14 16 30 49 36 73 8 29
17 43 25 40 9 -4 13 5 13 30 0 42 27 98 69 141 17 18 31 37 31 43 0 15 21 12
42 -7 17 -15 18 -14 18 41 0 68 25 162 45 169 16 7 36 49 61 132 16 49 23 61
43 63 13 2 26 12 28 23 3 10 13 19 22 19 9 0 25 9 34 21 14 16 21 18 32 9 11
-9 18 -2 35 37 l22 48 16 -23 15 -23 23 28 c17 21 25 25 34 16 7 -6 18 -9 26
-6 20 7 43 -10 63 -48 10 -19 27 -35 39 -37 19 -3 49 -69 87 -190 4 -15 12
-21 22 -18 10 4 24 -16 51 -73 33 -70 39 -77 55 -67 15 9 22 6 45 -22 15 -18
36 -32 47 -32 10 0 46 -27 80 -60 33 -33 85 -85 115 -115 31 -30 61 -55 69
-55 13 0 116 -74 201 -145 25 -21 68 -52 96 -70 28 -18 73 -53 101 -78 28 -24
55 -46 60 -48 4 -2 22 -23 39 -46 56 -78 315 -306 464 -411 52 -36 123 -90
158 -119 45 -39 69 -52 82 -48 13 4 37 -7 72 -33 65 -47 250 -142 279 -142 11
0 39 -13 62 -29 23 -16 73 -42 110 -59 37 -17 91 -52 120 -77 28 -25 57 -45
64 -45 21 0 92 -69 95 -93 2 -12 8 -22 15 -22 30 0 38 -27 38 -134 0 -107 0
-108 32 -144 22 -25 34 -51 39 -84 7 -55 19 -73 44 -73 21 0 38 -41 47 -118 5
-41 11 -56 25 -60 40 -10 17 -43 -108 -148 -35 -29 -73 -81 -131 -177 l-81
-137 2 -125 c2 -123 11 -156 36 -140 7 4 18 23 26 41 16 37 2 34 182 38 22 1
28 -4 30 -24 9 -79 33 -94 57 -36 13 31 21 36 71 46 31 7 80 20 109 30 l52 18
21 -49 c12 -28 27 -49 36 -49 15 0 36 54 36 93 0 12 16 25 48 38 173 74 295
149 311 192 5 15 17 30 26 33 11 5 15 22 15 69 0 36 5 65 11 67 7 2 7 12 0 32
-6 15 -8 32 -5 37 3 6 -4 32 -15 60 -26 58 -42 131 -41 176 0 18 -6 43 -14 55
-8 13 -14 37 -14 53 1 17 -7 45 -16 64 -10 18 -15 39 -12 48 3 8 0 26 -8 41
-8 15 -12 39 -9 53 3 16 -11 63 -41 133 -49 115 -51 120 -36 111 28 -17 26 13
-6 78 -19 39 -32 78 -29 84 2 7 -9 46 -25 87 -33 81 -35 97 -19 113 7 7 3 28
-15 71 -30 71 -34 107 -11 98 24 -9 18 25 -20 107 -37 80 -41 92 -26 82 5 -3
13 -1 16 5 17 27 -103 176 -297 370 -65 65 -118 123 -118 130 0 7 -16 31 -35
54 -124 143 -187 212 -326 359 -111 117 -158 173 -162 195 -7 32 -71 102 -252
272 -77 73 -99 100 -147 190 -31 58 -70 139 -86 180 -15 41 -54 114 -85 163
-52 80 -97 159 -97 171 0 2 9 2 20 -1 11 -3 20 -3 20 0 0 4 -38 68 -84 144
-99 165 -116 196 -116 220 0 12 10 6 33 -22 17 -22 41 -49 52 -59 20 -20 55
-67 119 -162 23 -33 47 -56 67 -63 44 -15 49 -14 49 9 0 27 37 26 67 -1 16
-16 26 -19 35 -12 19 16 154 -28 367 -119 51 -21 99 -37 107 -34 7 3 39 -8 71
-24 62 -32 92 -37 110 -19 18 18 61 2 108 -42 47 -44 71 -46 77 -7 2 17 9 22
24 21 40 -4 41 94 2 148 -16 21 -17 30 -7 52 10 23 9 30 -15 57 -14 17 -26 38
-26 46 0 8 -20 36 -44 62 -42 45 -44 50 -39 90 5 38 3 44 -16 49 -12 3 -28 20
-36 39 -11 27 -20 34 -42 34 -32 0 -76 27 -68 40 12 19 -7 60 -27 60 -24 0
-78 52 -78 75 0 21 -25 58 -67 100 -32 32 -35 33 -61 19 -35 -18 -61 -18 -68
1 -4 9 -19 15 -39 15 -36 0 -51 14 -47 42 2 11 -8 20 -32 28 -20 6 -53 31 -73
54 -21 23 -57 53 -81 66 -27 15 -45 33 -49 50 -3 14 -25 42 -47 62 -32 29 -38
39 -27 46 10 7 10 14 2 30 -6 11 -11 33 -11 47 0 34 -9 51 -86 158 -36 50 -70
111 -79 139 -18 62 -68 129 -191 257 -52 54 -94 102 -94 107 0 4 -17 36 -37
72 -35 58 -49 71 -164 147 -70 46 -139 90 -155 98 -16 8 -39 27 -51 41 -12 14
-60 44 -105 67 -45 23 -132 70 -193 104 -60 34 -173 90 -250 125 -77 35 -160
76 -185 91 -69 43 -121 65 -243 104 -62 20 -132 45 -157 55 -25 10 -130 42
-234 71 -104 29 -195 59 -203 67 -8 8 -72 25 -144 37 -115 21 -227 54 -253 77
-6 4 -53 8 -105 9 -145 1 -251 12 -261 29 -7 11 -26 12 -117 2 -59 -6 -211
-16 -338 -22 -126 -6 -246 -13 -265 -16 -19 -3 -109 -9 -200 -14 -91 -5 -180
-12 -197 -16 -27 -5 -33 -3 -33 11 0 20 -6 20 -240 -15 -116 -17 -155 -19
-195 -11 -27 6 -77 13 -110 16 -62 6 -105 26 -105 49 0 9 -24 15 -85 20 -88 6
-127 20 -118 42 4 10 -10 9 -59 -2 -63 -15 -99 -22 -213 -44 -66 -12 -376 -20
-415 -10 -24 6 -24 6 -5 17 11 6 16 15 12 19 -4 4 -76 11 -160 14 -140 6 -158
9 -228 38 -42 18 -105 36 -140 41 -143 21 -209 34 -209 42 0 5 -21 9 -47 9
-76 0 -226 19 -250 31 -12 7 -19 18 -16 25 4 11 -7 14 -50 14 -31 0 -67 4 -82
10 -21 8 -24 14 -19 35 4 18 2 27 -11 31 -9 4 -21 16 -26 28 -5 11 -13 28 -18
36 -5 8 -12 22 -14 30 -3 9 -23 25 -46 35 -24 12 -39 25 -36 33 3 7 -5 12 -20
12 -16 0 -28 9 -37 27 -10 21 -23 29 -53 34 -22 4 -53 14 -70 23 -16 9 -51 16
-77 16 -27 0 -48 5 -48 10 0 6 -13 10 -28 10 -15 0 -33 5 -40 12 -9 9 -20 9
-49 -1 -32 -12 -38 -12 -49 4 -10 14 -21 16 -54 10 -32 -5 -44 -3 -53 9 -11
16 -16 15 -60 -1 -46 -17 -49 -17 -58 0 -6 9 -14 17 -20 17 -5 0 -54 -27 -109
-60 -115 -70 -197 -104 -297 -125 -27 -5 -33 -3 -33 10 0 13 -7 12 -43 -10
-45 -26 -101 -33 -112 -15 -6 10 -50 7 -97 -7 -12 -3 -18 1 -18 13 0 13 -6 11
-26 -11 -22 -24 -31 -27 -65 -22 -22 3 -52 0 -67 -5 -22 -9 -47 -5 -127 17
-55 15 -127 41 -161 57 -34 15 -68 28 -76 28 -8 0 -23 7 -34 15 -10 8 -25 15
-32 15 -29 0 -83 33 -78 46 4 10 -4 14 -30 14 -34 0 -36 1 -32 30 l4 29 -102
-5 c-96 -4 -104 -3 -114 16 -13 24 -41 25 -104 4 -37 -13 -53 -14 -72 -5 -14
6 -34 11 -44 11 -11 0 -20 5 -20 10 0 6 -13 10 -29 10 -16 0 -31 6 -33 12 -4
10 -20 9 -73 -4 -49 -11 -75 -13 -88 -6 -10 5 -25 7 -33 4 -8 -3 -14 -1 -14 4
0 6 -18 10 -41 10 -31 0 -40 3 -36 14 10 26 -109 29 -214 6 -110 -24 -119 -24
-119 -6 0 17 -22 26 -63 26 -18 0 -43 7 -57 15 -14 8 -32 17 -40 21 -8 4 -19
13 -25 20 -6 7 -54 14 -120 18 -128 7 -155 13 -149 31 4 10 -24 12 -130 10
-121 -3 -135 -1 -139 15 -4 15 -14 17 -80 12 -41 -2 -109 -1 -151 3 -70 6 -77
9 -93 36 -16 27 -21 29 -78 29 -33 0 -91 -9 -130 -19 -69 -19 -70 -19 -84 0
-17 24 -24 24 -91 -6z m-853 -2426 c38 -18 50 -32 83 -98 21 -42 75 -130 118
-196 44 -66 78 -122 76 -124 -9 -10 -181 117 -249 183 -64 63 -175 207 -175
226 0 5 21 12 48 18 26 5 49 10 51 11 3 0 24 -8 48 -20z m-59 -443 c13 -27 21
-50 19 -53 -5 -5 -97 96 -97 107 0 5 12 5 28 1 19 -5 33 -21 50 -55z"/>
</g>
</svg>
