<?xml version="1.0" standalone="no"?>
<!DOCTYPE svg PUBLIC "-//W3C//DTD SVG 20010904//EN"
 "http://www.w3.org/TR/2001/REC-SVG-20010904/DTD/svg10.dtd">
<svg version="1.0" xmlns="http://www.w3.org/2000/svg"
 width="1536.000000pt" height="670.000000pt" viewBox="0 0 1536.000000 670.000000"
 preserveAspectRatio="xMidYMid meet">
<metadata>
Created by potrace 1.16, written by Peter Selinger 2001-2019
</metadata>
<g transform="translate(0.000000,670.000000) scale(0.100000,-0.100000)"
fill="#000000" stroke="none">
<path d="M6637 6668 c-60 -81 -235 -432 -330 -663 -89 -214 -125 -285 -147
-285 -4 0 -11 19 -15 41 -4 23 -19 66 -33 97 l-25 55 7 206 c3 113 11 238 16
276 20 139 23 195 12 195 -14 0 -145 -396 -181 -550 -16 -69 -42 -190 -56
-270 -28 -158 -35 -184 -41 -177 -10 10 -123 388 -138 460 -21 102 -20 220 3
358 29 169 33 215 26 249 -6 29 -8 30 -19 13 -20 -28 -82 -180 -110 -267 -14
-43 -48 -175 -76 -292 -54 -230 -64 -264 -79 -264 -40 0 -94 253 -106 500 -7
128 -12 160 -24 160 -29 0 -97 -298 -131 -580 -6 -47 -13 -195 -16 -330 -7
-324 -11 -350 -47 -275 -9 20 -53 91 -97 159 -44 68 -89 149 -101 182 -11 32
-38 165 -60 294 -43 255 -55 310 -68 310 -26 0 -90 -238 -118 -433 -10 -72
-21 -116 -27 -114 -6 2 -19 18 -29 35 -15 26 -21 65 -27 197 -5 91 -12 170
-15 175 -20 32 -54 -58 -74 -195 -31 -212 -38 -650 -15 -1005 7 -115 1 -113
-77 30 -64 118 -116 191 -213 300 -97 108 -122 157 -191 368 -57 173 -89 237
-106 210 -12 -19 -11 -312 2 -443 11 -113 4 -175 -19 -183 -19 -6 -57 88 -102
252 -74 269 -90 281 -90 69 1 -82 5 -177 10 -213 24 -177 66 -377 106 -504 24
-78 47 -158 51 -178 9 -58 -18 -49 -71 25 -45 63 -126 144 -270 271 -83 74
-152 160 -235 296 -74 121 -80 128 -92 110 -13 -19 -5 -128 22 -281 33 -196
15 -198 -86 -9 -38 73 -76 135 -83 138 -30 10 -1 -270 53 -512 40 -176 86
-301 187 -504 50 -100 88 -185 85 -188 -16 -17 -293 260 -424 423 -88 111
-109 125 -123 88 -6 -15 -10 -63 -10 -108 0 -92 -7 -127 -24 -127 -6 0 -17 9
-24 20 -7 11 -17 20 -24 20 -17 0 -4 -190 20 -285 33 -134 34 -135 19 -135 -7
0 -55 38 -106 85 -51 47 -97 85 -101 85 -12 0 -20 -28 -20 -74 0 -54 -21 -86
-44 -67 -14 12 -15 6 -9 -54 8 -92 -8 -84 -69 30 -54 100 -70 121 -88 110 -9
-6 -11 -29 -7 -81 3 -41 2 -76 -3 -79 -4 -3 -20 9 -34 26 -15 17 -30 28 -34
24 -12 -12 -14 -204 -2 -272 19 -110 -12 -108 -90 7 -76 111 -103 116 -114 21
-4 -33 -11 -63 -16 -66 -4 -3 -22 6 -38 20 l-29 25 -7 -40 c-8 -49 -25 -60
-45 -31 -56 79 -91 100 -91 52 0 -25 -36 -68 -71 -87 -26 -13 -30 -13 -35 0
-14 37 -60 25 -105 -28 -23 -26 -29 -29 -42 -17 -26 21 -57 3 -77 -45 -28 -65
-70 -55 -70 17 0 75 -18 86 -70 42 -27 -22 -35 -25 -51 -15 -31 20 -46 14
-111 -44 -102 -92 -109 -93 -230 -56 -133 41 -234 56 -323 47 -169 -16 -468
-151 -587 -265 -74 -71 -83 -96 -47 -129 41 -38 307 -131 376 -131 61 0 301
-90 505 -189 314 -152 619 -261 931 -332 353 -80 386 -83 787 -84 l366 -1 49
-24 c47 -24 53 -31 113 -147 42 -81 85 -146 130 -198 174 -199 162 -175 246
-520 60 -248 63 -269 77 -679 l13 -349 -35 -31 c-44 -38 -73 -82 -64 -96 9
-15 220 -12 374 6 74 8 138 11 142 7 5 -5 -25 -44 -67 -86 -89 -92 -95 -119
-28 -128 23 -3 49 -13 58 -22 21 -20 117 -23 277 -7 134 14 216 37 235 65 9
14 18 73 24 171 13 205 12 885 -1 1058 -15 190 -11 201 81 200 36 0 147 -5
248 -11 366 -20 924 19 1232 88 177 39 483 126 644 183 71 25 130 45 131 43 4
-4 35 -101 49 -152 7 -27 38 -104 68 -170 99 -216 226 -547 263 -685 20 -74
48 -162 62 -195 50 -118 42 -149 -52 -209 -75 -49 -87 -105 -22 -106 26 0 22
-8 -39 -72 -47 -49 -55 -63 -52 -90 l3 -33 60 -1 c86 -3 85 -2 85 -23 0 -29
42 -34 177 -22 188 18 346 56 367 90 4 5 1 83 -5 171 -9 124 -9 231 0 461 13
332 20 425 55 709 14 107 28 231 31 274 10 109 28 177 76 274 63 129 95 147
494 286 138 48 300 112 360 141 190 92 426 155 585 155 136 0 464 -27 605 -50
447 -72 1219 -274 1540 -403 61 -24 134 -49 163 -56 80 -17 732 -221 772 -241
19 -10 69 -27 110 -39 154 -43 416 -159 600 -266 69 -40 161 -91 205 -113 44
-22 121 -66 170 -99 50 -32 115 -73 146 -90 30 -17 186 -116 345 -220 347
-227 363 -237 371 -230 13 13 -11 57 -76 144 l-70 92 42 5 c23 3 123 8 222 11
251 9 466 29 629 59 141 27 156 31 156 46 0 15 -36 22 -210 36 -96 8 -274 28
-395 44 -121 17 -301 39 -400 50 -204 22 -279 36 -294 54 -13 15 5 123 39 241
24 84 24 85 5 85 -21 0 -95 -70 -156 -147 -32 -39 -58 -63 -71 -63 -36 0 -234
152 -222 171 8 14 184 65 359 104 278 63 353 84 635 179 359 122 590 218 590
247 0 14 -47 6 -260 -46 -243 -60 -310 -72 -548 -95 -114 -11 -274 -28 -357
-39 -247 -32 -275 -34 -275 -21 0 15 62 111 210 325 136 197 188 285 168 285
-7 0 -48 -31 -90 -68 -258 -226 -321 -278 -487 -403 -218 -163 -271 -195 -301
-179 -28 15 -25 37 9 54 37 19 176 169 161 174 -6 2 -68 -6 -138 -18 -70 -12
-134 -22 -142 -23 -10 -1 -15 7 -15 28 0 39 -24 43 -94 15 -53 -21 -91 -26
-91 -12 0 15 34 58 102 128 37 40 68 77 68 83 0 18 -54 13 -137 -14 -43 -14
-89 -25 -101 -25 -22 0 -23 3 -17 40 4 25 3 40 -3 40 -6 0 -43 -16 -83 -35
-81 -38 -116 -44 -126 -19 -7 20 6 30 161 128 60 38 130 90 155 115 l46 46
-38 3 c-22 2 -87 -8 -146 -22 -59 -14 -113 -26 -119 -26 -20 0 -14 23 18 73
16 26 27 47 25 47 -12 0 -166 -81 -245 -129 -89 -53 -114 -60 -144 -38 -39 28
-16 50 147 133 164 85 272 151 302 184 18 19 17 20 -11 20 -16 0 -107 -16
-202 -37 -207 -44 -223 -40 -141 36 36 34 48 51 37 51 -9 0 -79 -30 -155 -66
-208 -100 -282 -121 -334 -94 -47 26 -42 28 470 237 356 145 431 178 431 190
0 13 -130 -8 -450 -75 -394 -82 -430 -87 -430 -67 0 8 43 48 95 89 52 42 122
103 157 135 100 96 70 87 -303 -87 -335 -156 -417 -183 -396 -130 6 17 169 91
474 218 269 112 488 220 539 265 25 22 34 35 24 36 -51 4 -119 -7 -224 -37
-66 -19 -163 -46 -216 -59 -88 -22 -304 -91 -405 -128 -54 -20 -175 -33 -175
-18 0 22 377 321 493 390 34 21 48 41 29 41 -15 0 -366 -177 -515 -259 -81
-45 -210 -120 -288 -166 -77 -47 -144 -85 -149 -85 -12 0 -150 83 -150 90 0
10 321 197 390 228 88 39 262 146 525 323 229 154 294 203 284 213 -8 9 -108
-35 -383 -166 -126 -60 -282 -132 -345 -160 -64 -28 -165 -73 -226 -100 -126
-57 -173 -74 -181 -66 -14 15 39 83 160 206 139 142 386 372 474 442 28 23 52
46 52 52 0 24 -382 -219 -576 -366 -73 -56 -206 -157 -295 -225 -226 -172
-283 -195 -338 -137 l-21 23 29 40 c26 36 398 388 641 605 136 122 403 343
542 449 145 111 167 142 78 112 -100 -33 -213 -95 -336 -182 -71 -51 -153
-107 -182 -124 -29 -18 -81 -54 -115 -81 -82 -63 -218 -143 -369 -216 -136
-64 -168 -76 -168 -61 0 20 349 452 563 695 136 155 105 153 -65 -5 -57 -52
-197 -177 -313 -276 -115 -99 -322 -280 -460 -403 -354 -315 -371 -327 -418
-289 -54 42 -41 63 255 396 203 228 278 318 410 494 52 70 155 200 229 289
183 220 264 340 231 340 -18 0 -192 -141 -270 -219 -82 -82 -446 -400 -677
-591 -99 -81 -165 -128 -165 -115 0 26 161 297 420 705 129 203 154 249 145
258 -3 3 -51 -39 -106 -94 -90 -88 -158 -165 -417 -473 -40 -47 -111 -142
-158 -211 -210 -311 -369 -525 -397 -534 -43 -15 -82 3 -80 38 5 73 433 751
739 1171 190 260 259 363 251 371 -31 31 -345 -288 -594 -603 -61 -77 -95
-104 -111 -89 -10 11 14 46 336 483 53 72 105 146 116 163 18 31 18 32 -1 21
-34 -18 -170 -149 -317 -306 -78 -83 -276 -317 -441 -520 -165 -204 -335 -410
-379 -458 -68 -77 -82 -88 -103 -82 -45 11 -73 36 -73 64 0 82 291 565 645
1071 128 183 162 240 145 240 -5 0 -101 -89 -212 -198 -250 -243 -388 -372
-399 -372 -31 0 23 162 121 365 37 77 71 151 75 165 l7 25 -25 -25 c-13 -14
-155 -200 -314 -415 -159 -214 -340 -459 -403 -543 l-115 -154 -37 5 c-20 3
-62 17 -94 31 -56 26 -57 27 -51 61 12 75 295 621 497 960 39 66 103 182 141
258 96 191 93 210 -14 100 -36 -38 -114 -124 -173 -193 -159 -183 -499 -554
-531 -580 -28 -22 -28 -22 -31 -1 -6 36 38 169 143 441 85 220 145 387 145
406 0 2 -4 4 -10 4 -5 0 -16 -15 -23 -32 -8 -18 -52 -91 -99 -163 -108 -165
-315 -510 -356 -595 -38 -77 -159 -243 -171 -236 -28 17 68 323 181 581 124
282 169 405 149 405 -14 0 -84 -83 -164 -194 -81 -115 -298 -440 -339 -510
-28 -48 -48 -59 -48 -28 0 52 121 480 177 630 3 7 -3 12 -16 12 -14 0 -23 -8
-27 -27 -4 -16 -27 -61 -53 -102 -25 -41 -98 -178 -161 -305 -63 -126 -121
-232 -127 -234 -41 -12 16 151 212 613 75 176 141 339 146 362 15 73 2 78 -44
18 -149 -195 -230 -296 -252 -313 -14 -11 -46 -57 -71 -103 -25 -46 -74 -119
-109 -164 -34 -44 -77 -108 -94 -142 -19 -39 -38 -63 -48 -63 -14 0 -15 9 -9
69 7 81 78 370 136 554 22 71 40 134 40 139 0 13 -54 -58 -103 -134 -126 -199
-280 -552 -374 -860 -8 -26 -23 -22 -23 5 0 35 -34 159 -100 362 -72 225 -85
285 -77 378 9 104 80 440 127 597 22 74 40 140 40 147 0 22 -18 14 -43 -19z"/>
</g>
</svg>
