<?xml version="1.0" standalone="no"?>
<!DOCTYPE svg PUBLIC "-//W3C//DTD SVG 20010904//EN"
 "http://www.w3.org/TR/2001/REC-SVG-20010904/DTD/svg10.dtd">
<svg version="1.0" xmlns="http://www.w3.org/2000/svg"
 width="1536.000000pt" height="554.000000pt" viewBox="0 0 1536.000000 554.000000"
 preserveAspectRatio="xMidYMid meet">
<metadata>
Created by potrace 1.16, written by Peter Selinger 2001-2019
</metadata>
<g transform="translate(0.000000,554.000000) scale(0.100000,-0.100000)"
fill="#000000" stroke="none">
<path d="M11593 5499 c3 -23 29 -90 58 -148 l53 -106 6 -175 5 -175 34 -49
c35 -50 35 -50 -16 -29 -7 3 -13 0 -13 -6 0 -6 24 -22 54 -35 29 -13 57 -29
61 -36 4 -6 -12 -2 -35 10 -50 26 -92 23 -45 -3 43 -23 28 -21 -49 8 -37 14
-69 25 -73 25 -4 0 9 -16 28 -36 36 -39 37 -38 -33 -18 -21 6 -21 5 -9 -10 27
-33 -21 -44 -83 -20 -16 6 -18 4 -13 -9 6 -15 -3 -17 -73 -17 -75 0 -130 13
-130 32 0 4 -5 8 -11 8 -6 0 -9 -9 -6 -20 4 -15 0 -20 -14 -20 -24 0 -25 -16
-1 -29 16 -9 16 -11 -4 -32 l-22 -21 -11 21 c-7 12 -16 19 -22 16 -6 -4 -6
-13 1 -24 11 -22 -14 -36 -84 -46 -34 -5 -53 -15 -69 -35 -33 -41 -261 -166
-330 -181 -63 -14 -84 -29 -40 -29 39 0 11 -17 -42 -25 -59 -9 -75 -15 -75
-27 0 -6 11 -7 27 -3 32 8 33 9 -31 -40 -30 -23 -55 -35 -67 -32 -28 7 -35
-13 -8 -21 18 -5 10 -8 -31 -12 -51 -6 -53 -7 -30 -17 18 -9 20 -12 8 -12 -10
-1 -18 -5 -18 -11 0 -5 -20 -10 -45 -10 -25 0 -45 -4 -45 -10 0 -5 15 -10 33
-10 l32 -1 -28 -15 c-22 -12 -35 -13 -59 -5 -50 18 -67 14 -38 -9 14 -11 19
-20 13 -20 -7 0 -13 -5 -13 -11 0 -6 9 -9 20 -6 11 3 18 1 14 -4 -3 -5 -23 -9
-44 -9 -48 0 -60 -15 -19 -24 l31 -6 -23 -31 c-19 -27 -26 -30 -55 -26 -37 6
-47 -8 -14 -18 11 -3 20 -10 20 -13 0 -16 -199 -212 -244 -241 -47 -29 -56
-31 -140 -31 -109 0 -192 19 -283 62 -38 18 -72 34 -78 36 -5 3 4 -10 20 -28
l30 -33 -64 7 c-36 4 -86 16 -113 26 -47 18 -48 18 -37 -2 11 -20 9 -20 -27
-14 -22 4 -60 17 -87 30 -44 21 -47 22 -42 5 5 -16 2 -18 -24 -14 -17 3 -44 7
-61 10 -16 2 -30 0 -30 -5 0 -6 -41 -10 -97 -10 -67 0 -93 -3 -83 -10 11 -7 0
-10 -37 -10 -29 0 -98 -5 -155 -12 -99 -11 -101 -12 -68 -24 30 -10 32 -13 16
-20 -11 -4 -45 -13 -75 -19 -34 -7 -55 -16 -53 -24 1 -6 -43 -32 -100 -58
-197 -89 -414 -206 -540 -289 -220 -146 -424 -231 -691 -285 -182 -37 -260
-60 -354 -105 -60 -29 -80 -45 -115 -92 -139 -189 -119 -173 -454 -362 -285
-160 -317 -175 -477 -230 -330 -111 -513 -184 -683 -271 -255 -130 -423 -187
-761 -259 -101 -22 -168 -42 -215 -66 -62 -31 -91 -38 -311 -69 -1036 -150
-2335 -300 -3037 -350 -336 -25 -507 -56 -637 -116 -64 -30 -113 -77 -113
-108 0 -30 37 -67 89 -90 71 -30 155 -47 321 -66 80 -9 456 -54 835 -100 380
-47 823 -100 985 -119 1162 -138 1911 -198 2167 -176 139 12 820 125 2083 345
267 47 493 85 502 85 11 0 28 -26 49 -72 l33 -71 14 34 c9 22 12 50 7 87 -6
45 -3 61 19 106 14 29 41 70 59 91 l34 40 28 -55 c23 -46 29 -51 37 -36 6 10
8 35 5 55 -8 66 44 156 92 156 25 0 26 3 32 60 6 65 13 81 95 218 93 154 144
198 578 502 l269 188 158 -37 c314 -72 643 -115 779 -101 36 4 99 18 140 32
107 37 137 42 168 31 22 -9 36 -7 69 11 23 11 49 21 57 21 9 0 31 13 49 30 32
28 41 30 110 30 114 0 423 -19 507 -31 134 -20 396 -125 775 -312 624 -308
1164 -650 1670 -1056 568 -457 973 -701 1162 -701 122 0 159 105 88 246 -116
231 -749 821 -1649 1539 -311 248 -1124 805 -1385 950 -83 45 -119 70 -110 75
42 23 404 100 471 100 16 0 91 20 166 45 136 44 207 80 369 185 74 47 88 52
134 51 96 -2 337 -50 551 -110 126 -36 221 -73 548 -216 460 -201 608 -255
775 -285 175 -31 1303 -175 1311 -168 2 2 -210 91 -471 198 -260 107 -472 196
-471 197 1 2 236 -49 521 -112 285 -63 520 -113 522 -112 1 2 -86 84 -194 182
-251 229 -721 692 -870 857 -135 149 -247 290 -297 373 -19 32 -106 145 -193
250 -321 386 -784 804 -943 850 -14 4 -68 23 -120 42 -159 59 -278 92 -445
123 -314 60 -522 137 -626 235 -61 57 -73 58 -66 4z"/>
</g>
</svg>
