<?xml version="1.0" standalone="no"?>
<!DOCTYPE svg PUBLIC "-//W3C//DTD SVG 20010904//EN"
 "http://www.w3.org/TR/2001/REC-SVG-20010904/DTD/svg10.dtd">
<svg version="1.0" xmlns="http://www.w3.org/2000/svg"
 width="1536.000000pt" height="672.000000pt" viewBox="0 0 1536.000000 672.000000"
 preserveAspectRatio="xMidYMid meet">
<metadata>
Created by potrace 1.16, written by Peter Selinger 2001-2019
</metadata>
<g transform="translate(0.000000,672.000000) scale(0.100000,-0.100000)"
fill="#000000" stroke="none">
<path d="M11050 6710 c-494 -21 -1107 -61 -2040 -135 -882 -69 -1267 -95
-1437 -95 -80 0 -112 5 -206 35 -133 42 -290 77 -447 102 -160 25 -591 25
-770 -1 -296 -41 -579 -105 -1034 -231 -318 -88 -607 -159 -976 -240 -1057
-231 -1138 -251 -1355 -321 -310 -101 -495 -245 -773 -602 -56 -72 -113 -139
-127 -150 -14 -12 -136 -64 -269 -117 -278 -109 -389 -161 -498 -232 -145 -95
-279 -133 -471 -133 -164 0 -267 -33 -339 -107 -51 -53 -161 -222 -208 -319
-94 -195 -115 -349 -81 -589 36 -251 35 -250 177 -319 l80 -40 -4 -53 c-4 -43
0 -59 18 -86 55 -79 191 -148 392 -197 68 -17 164 -41 213 -55 157 -42 255
-57 421 -62 173 -6 294 4 449 38 260 57 546 186 822 372 160 107 174 114 230
119 76 7 145 42 220 112 42 38 79 62 126 80 93 35 265 83 361 101 l83 16 134
-35 c74 -19 208 -59 299 -88 l164 -54 93 -153 c199 -328 379 -561 557 -720
l49 -44 99 -376 c206 -787 196 -738 209 -931 7 -112 9 -272 5 -445 -6 -271
-15 -362 -39 -377 -6 -4 -34 -8 -62 -8 -27 0 -67 -5 -89 -11 -87 -24 -207
-186 -191 -259 9 -41 50 -65 133 -80 53 -9 108 -8 272 5 359 28 447 51 498
126 21 30 23 43 19 109 -3 52 -13 99 -35 155 -26 64 -32 95 -32 154 0 154 58
433 143 692 64 192 160 449 168 449 10 0 178 -510 229 -695 77 -280 78 -502 2
-586 -23 -24 -40 -31 -108 -43 -99 -17 -130 -33 -182 -91 -39 -45 -110 -191
-98 -203 12 -12 386 -14 534 -3 313 23 442 79 442 192 0 20 -13 65 -29 100
-52 119 -71 250 -52 379 6 41 16 183 21 315 13 301 34 566 61 748 12 78 22
143 24 145 2 2 14 -3 27 -11 156 -101 872 -194 1873 -243 369 -18 1220 -15
1465 5 970 80 1662 265 2154 575 49 31 90 55 92 54 1 -2 25 -48 53 -104 88
-176 236 -374 578 -776 117 -137 232 -275 256 -306 76 -99 79 -109 84 -282 6
-177 -13 -299 -63 -409 -26 -59 -29 -62 -56 -56 -46 11 -160 -14 -215 -45 -60
-34 -112 -95 -147 -170 -32 -69 -33 -110 -3 -138 69 -65 179 -73 502 -38 268
29 500 61 556 76 21 6 49 24 64 42 25 29 27 38 23 97 -4 75 -42 166 -101 244
-45 58 -46 80 -11 213 27 107 120 389 180 549 30 81 37 114 38 175 0 69 -4 84
-48 183 -26 60 -46 111 -43 113 7 7 403 -413 455 -483 l49 -65 22 -156 c28
-198 30 -368 4 -436 -23 -61 -52 -84 -126 -96 -160 -26 -261 -147 -262 -312 0
-42 5 -81 10 -87 7 -6 124 -7 340 -1 544 15 675 37 739 123 16 22 21 43 21 90
0 69 -29 142 -92 234 l-36 52 5 483 c5 484 1 574 -29 632 -9 17 -73 87 -143
156 -232 229 -249 302 -253 1125 -2 433 -1 468 20 600 38 240 47 361 47 650 1
401 -24 568 -105 725 -117 223 -282 434 -543 695 -331 331 -701 602 -1071 785
-302 149 -572 223 -972 265 -179 19 -830 27 -1133 15z"/>
</g>
</svg>
