<?xml version="1.0" standalone="no"?>
<!DOCTYPE svg PUBLIC "-//W3C//DTD SVG 20010904//EN"
 "http://www.w3.org/TR/2001/REC-SVG-20010904/DTD/svg10.dtd">
<svg version="1.0" xmlns="http://www.w3.org/2000/svg"
 width="1536.000000pt" height="506.000000pt" viewBox="0 0 1536.000000 506.000000"
 preserveAspectRatio="xMidYMid meet">
<metadata>
Created by potrace 1.16, written by Peter Selinger 2001-2019
</metadata>
<g transform="translate(0.000000,506.000000) scale(0.100000,-0.100000)"
fill="#000000" stroke="none">
<path d="M7108 5042 c-129 -66 -222 -185 -641 -822 -144 -220 -160 -239 -216
-251 -94 -21 -616 -94 -1486 -209 -863 -113 -881 -117 -1305 -249 -548 -171
-1062 -359 -1376 -504 -331 -154 -629 -225 -1269 -307 -451 -57 -666 -97 -760
-141 -73 -34 -70 -61 8 -100 93 -48 315 -72 817 -89 306 -10 400 -18 895 -80
545 -68 584 -76 892 -184 162 -57 363 -118 508 -155 132 -34 247 -64 256 -67
11 -3 22 -36 39 -117 31 -151 93 -374 130 -472 36 -93 99 -201 217 -373 181
-264 387 -527 484 -617 148 -139 423 -313 477 -303 46 9 16 101 -151 458 -57
124 -119 264 -136 313 -48 136 -123 398 -116 405 3 3 86 -75 183 -175 191
-195 240 -229 360 -251 49 -9 52 -8 47 9 -16 49 -154 326 -262 524 -191 351
-245 455 -236 455 5 0 89 -14 188 -31 179 -31 182 -31 445 -25 396 8 1067 62
1520 122 107 14 537 86 955 160 l760 135 30 -38 c122 -153 246 -295 344 -394
125 -125 192 -167 299 -190 46 -10 70 -24 127 -73 137 -117 403 -276 461 -276
51 0 69 47 61 159 -13 181 -101 343 -411 759 -83 112 -131 184 -124 187 7 2
184 32 393 65 924 148 1413 218 1720 245 359 32 937 97 1648 185 373 47 371
47 469 -35 35 -29 203 -187 373 -350 313 -300 594 -548 753 -663 189 -136 526
-271 779 -311 59 -9 103 -6 103 8 0 4 -123 158 -273 342 -441 542 -672 845
-779 1022 -55 91 -80 187 -109 406 -45 351 -48 756 -10 1061 52 402 62 763 23
802 -15 15 -87 -35 -167 -116 -86 -86 -120 -149 -539 -997 -306 -619 -305
-617 -404 -661 -41 -19 -53 -19 -161 -8 -255 25 -599 65 -1301 150 -404 49
-866 105 -1027 124 -609 74 -1619 240 -2053 338 -148 33 -233 64 -379 137
-449 225 -750 535 -880 903 -38 110 -55 143 -83 162 -30 21 -66 20 -110 -2z"/>
</g>
</svg>
