<?xml version="1.0" standalone="no"?>
<!DOCTYPE svg PUBLIC "-//W3C//DTD SVG 20010904//EN"
 "http://www.w3.org/TR/2001/REC-SVG-20010904/DTD/svg10.dtd">
<svg version="1.0" xmlns="http://www.w3.org/2000/svg"
 width="1040.000000pt" height="763.000000pt" viewBox="0 0 1040.000000 763.000000"
 preserveAspectRatio="xMidYMid meet">
<metadata>
Created by potrace 1.16, written by Peter Selinger 2001-2019
</metadata>
<g transform="translate(0.000000,763.000000) scale(0.100000,-0.100000)"
fill="#000000" stroke="none">
<path d="M756 7595 c-11 -8 -28 -15 -38 -15 -10 0 -31 -9 -46 -19 -15 -11 -96
-38 -181 -61 -156 -42 -391 -125 -435 -153 -25 -17 -36 -65 -36 -159 0 -60 16
-69 62 -36 38 27 104 58 124 58 10 0 14 -12 14 -38 0 -33 -6 -43 -45 -76 -81
-67 -92 -105 -35 -125 25 -8 34 -6 67 21 49 38 79 54 123 61 38 7 61 -7 93
-55 13 -21 26 -28 48 -28 19 0 43 -10 61 -26 17 -14 37 -23 45 -20 8 4 19 6
24 6 5 0 9 19 9 41 0 41 0 41 33 36 50 -8 101 13 127 50 25 37 26 37 115 -2
33 -15 78 -49 121 -92 58 -57 76 -84 110 -163 51 -116 100 -246 152 -405 22
-66 53 -156 70 -200 16 -44 52 -143 79 -220 44 -122 249 -546 288 -595 7 -8
41 -71 76 -139 36 -70 90 -155 124 -196 33 -40 78 -96 100 -124 95 -123 138
-172 194 -222 48 -42 66 -66 86 -116 30 -75 33 -164 9 -239 -9 -29 -18 -105
-21 -185 -7 -158 4 -204 68 -305 21 -33 55 -98 75 -145 45 -103 85 -167 170
-271 36 -43 88 -115 115 -160 51 -82 165 -228 180 -228 4 0 10 -9 14 -19 7
-24 -99 -354 -126 -391 -11 -15 -22 -51 -26 -90 -3 -36 -12 -74 -19 -85 -13
-22 -26 -259 -21 -405 1 -47 0 -263 -2 -481 -2 -275 0 -398 7 -403 18 -11 30
24 37 104 12 135 35 293 55 375 42 175 72 356 66 403 -16 143 -18 175 -12 207
4 20 11 33 15 31 12 -8 48 -114 55 -161 3 -22 21 -71 40 -110 19 -38 39 -86
45 -105 21 -73 57 -169 70 -183 15 -19 66 -150 86 -222 18 -64 66 -218 100
-318 16 -46 32 -76 38 -74 12 4 12 10 2 87 -3 25 -10 83 -16 130 -6 47 -17
114 -24 150 -8 36 -19 97 -25 135 -6 39 -18 95 -25 126 -8 31 -15 67 -15 80 0
13 -11 47 -25 74 -40 82 -32 98 19 40 54 -61 198 -237 246 -299 34 -43 60 -59
60 -34 0 13 -26 67 -105 218 -31 58 -67 134 -81 170 -15 35 -37 79 -50 96 -13
17 -24 33 -24 36 0 3 -18 35 -39 71 -22 35 -47 80 -55 98 -15 31 -41 73 -87
140 -37 52 -34 66 17 89 25 12 48 30 51 40 3 11 21 29 40 40 22 13 33 26 29
35 -13 36 21 23 72 -27 76 -73 169 -146 231 -183 78 -46 173 -107 211 -137 38
-29 184 -98 207 -98 7 0 31 -9 52 -20 45 -23 179 -60 216 -60 50 0 85 -28 116
-93 16 -34 29 -68 29 -76 0 -7 14 -40 32 -73 38 -71 241 -279 426 -437 67 -57
122 -107 122 -112 0 -5 21 -33 47 -61 28 -31 66 -92 92 -147 41 -87 45 -100
45 -175 -1 -136 -65 -294 -147 -359 -22 -18 -70 -60 -106 -93 -80 -74 -101
-85 -215 -114 -70 -17 -112 -21 -205 -20 -113 3 -189 -8 -251 -34 -41 -17
-124 -98 -140 -136 l-12 -30 -269 0 c-232 0 -269 -2 -269 -15 0 -13 142 -15
1215 -15 1073 0 1215 2 1215 15 0 13 -41 15 -307 15 -239 0 -304 3 -295 12 18
18 14 74 -12 170 l-25 88 38 113 c20 63 45 126 54 140 54 83 70 187 43 282
-20 72 -58 165 -82 205 -28 46 -50 118 -64 209 -6 40 -15 82 -21 92 -5 11 -14
117 -19 237 -5 119 -14 233 -19 252 -6 19 -11 38 -11 41 0 4 37 9 83 12 265
19 467 49 672 100 55 14 120 28 145 32 102 16 171 41 307 110 80 41 180 88
225 104 79 31 82 31 271 31 l191 0 165 -46 c92 -25 200 -58 241 -74 41 -16
103 -36 138 -45 35 -9 96 -28 135 -42 40 -14 92 -32 117 -39 25 -7 95 -31 155
-54 61 -22 133 -47 160 -55 28 -8 97 -30 155 -50 58 -19 125 -42 150 -50 25
-7 63 -21 85 -29 22 -8 51 -15 65 -16 13 0 58 -11 100 -25 158 -51 352 -68
700 -60 146 3 299 10 340 16 107 14 237 62 371 135 140 77 173 105 166 140 -3
16 1 28 9 31 14 5 47 63 40 70 -2 2 -30 6 -61 7 -34 2 -61 9 -66 17 -8 11 -13
10 -28 -8 -10 -12 -30 -36 -45 -53 -14 -17 -31 -30 -38 -28 -13 2 -45 -17
-138 -83 -26 -18 -46 -27 -48 -20 -5 16 -32 13 -39 -5 -3 -8 -12 -13 -21 -9
-8 3 -21 0 -28 -6 -22 -18 -234 -11 -249 9 -9 11 -16 10 -43 -5 -29 -16 -34
-16 -45 -3 -8 10 -28 15 -57 14 -88 -2 -160 8 -160 22 0 10 -9 12 -31 7 -24
-4 -34 -2 -41 10 -5 10 -18 17 -28 17 -11 0 -20 5 -20 10 0 6 -9 10 -19 10
-11 0 -26 7 -35 15 -8 8 -21 15 -28 15 -8 0 -19 5 -24 10 -7 7 -19 8 -38 1
-24 -10 -28 -8 -38 15 -8 16 -19 24 -32 23 -49 -3 -68 2 -73 20 -2 10 -16 24
-29 30 -13 6 -24 17 -24 26 0 8 -7 15 -15 15 -8 0 -15 -9 -15 -20 0 -11 -4
-20 -9 -20 -23 0 -41 14 -41 30 0 16 -6 18 -36 13 l-36 -6 16 25 c19 28 12 42
-15 28 -26 -14 -124 1 -125 20 -1 8 -2 21 -3 27 -1 9 -8 10 -27 3 -32 -12 -55
-12 -74 0 -12 7 -12 12 -2 22 6 6 12 20 12 29 0 15 -8 16 -60 12 -53 -5 -60
-4 -60 12 0 13 -5 16 -26 11 -39 -10 -66 2 -62 27 2 16 -2 21 -13 19 -28 -4
-84 25 -84 45 0 10 -6 17 -14 15 -25 -5 -51 9 -51 30 0 15 -5 19 -17 15 -46
-13 -48 -12 -46 11 2 17 -2 22 -22 22 -14 0 -25 4 -25 8 0 5 -19 12 -42 18
-33 7 -44 14 -46 32 -3 18 -10 22 -38 22 -37 0 -46 15 -14 25 40 13 15 35 -40
35 -16 0 -31 4 -35 9 -3 5 -19 12 -35 16 -26 6 -29 10 -24 31 7 27 2 29 -26
12 -15 -10 -26 -9 -54 5 -43 20 -46 34 -9 39 45 5 36 22 -19 38 -46 13 -53 19
-50 38 3 19 -1 22 -35 22 -21 0 -55 5 -76 11 -33 9 -36 13 -31 34 6 23 4 25
-32 22 -40 -2 -43 2 -33 43 3 10 -3 14 -16 13 -11 -2 -35 0 -53 2 -29 5 -31 9
-26 32 6 23 5 25 -17 17 -36 -11 -61 -10 -66 3 -2 7 7 13 23 15 46 5 39 25
-11 31 -26 4 -53 14 -61 22 -9 8 -27 15 -42 15 -36 0 -60 15 -38 23 28 11 17
27 -16 27 -18 0 -47 9 -64 19 -26 16 -30 24 -26 49 4 28 3 29 -35 28 -32 -1
-38 2 -41 22 -4 26 -10 27 -34 5 -16 -14 -18 -14 -18 -1 0 18 -29 28 -80 28
-42 0 -65 13 -65 37 0 15 -10 18 -66 21 -60 3 -66 5 -62 22 4 16 0 18 -34 13
-34 -4 -47 1 -103 40 -49 33 -64 49 -63 66 2 18 -2 21 -33 21 -31 0 -35 3 -29
20 5 16 2 20 -19 20 -24 0 -25 2 -14 25 14 31 4 43 -24 26 -16 -10 -23 -10
-32 -1 -8 9 -5 16 12 27 33 23 27 33 -23 33 -38 0 -45 3 -45 20 0 24 -8 25
-31 4 -16 -14 -19 -14 -38 5 -12 12 -28 21 -36 21 -8 0 -17 11 -21 25 -5 21
-12 25 -41 25 -29 0 -33 3 -28 19 4 13 0 20 -16 24 -16 4 -19 11 -14 26 5 18
2 21 -20 21 -37 0 -87 37 -80 59 6 19 -18 35 -69 46 -25 5 -28 9 -22 35 5 29
-14 56 -22 32 -6 -18 -22 -4 -22 18 0 13 -5 17 -15 14 -21 -9 -53 5 -37 15 9
5 10 15 3 33 -7 18 -25 31 -68 47 -52 19 -59 25 -58 49 0 25 -3 27 -45 30 -25
1 -55 5 -67 7 -25 6 -31 33 -11 53 20 20 1 25 -30 6 -34 -19 -61 -13 -69 15
-3 11 -13 21 -24 24 -25 7 -24 23 1 30 54 14 -5 37 -97 37 -43 0 -57 13 -27
24 9 3 49 6 91 6 55 0 74 3 71 13 -6 15 -70 25 -170 26 -59 1 -78 4 -78 15 0
18 -31 26 -109 26 -64 0 -64 0 -46 20 22 24 12 39 -15 22 -16 -10 -21 -9 -30
8 -12 23 -30 27 -30 6 0 -19 -26 -40 -34 -27 -4 5 -2 12 4 16 25 15 6 24 -42
18 -52 -6 -53 -6 -35 14 9 11 17 22 17 25 0 3 -29 3 -65 0 -56 -4 -65 -2 -65
12 0 11 -9 16 -30 16 -23 0 -30 4 -30 20 0 18 -7 20 -70 20 -56 0 -70 3 -70
15 0 10 -10 15 -30 15 -20 0 -30 5 -30 15 0 10 -10 15 -29 15 -16 0 -43 3 -60
6 -25 5 -29 9 -20 20 6 8 8 21 5 30 -6 16 -8 16 -24 0 -17 -14 -82 -23 -82
-11 0 3 5 14 12 25 17 27 3 36 -26 16 -32 -20 -56 -21 -56 -1 0 8 -9 15 -19
15 -11 0 -22 4 -25 9 -4 5 -29 12 -56 16 -28 4 -50 11 -50 16 0 5 -24 9 -54 9
-30 0 -58 5 -62 11 -3 6 -19 9 -35 5 -22 -4 -31 -1 -39 15 -6 11 -15 17 -21
14 -5 -4 -9 1 -9 10 0 14 -5 16 -27 9 -43 -13 -116 -10 -121 4 -3 9 -15 10
-40 6 -32 -6 -35 -5 -28 12 12 32 12 39 -4 35 -43 -11 -120 -13 -120 -2 0 6
-9 11 -20 11 -10 0 -24 9 -30 20 -12 22 -36 27 -42 9 -5 -15 -68 -1 -68 15 0
7 5 17 12 24 17 17 0 28 -22 14 -32 -20 -70 -15 -70 8 0 18 -7 20 -72 20 -82
0 -102 8 -92 35 6 16 3 17 -22 11 -77 -17 -94 -18 -94 -7 0 6 -15 11 -34 11
-28 0 -33 3 -29 19 4 16 0 18 -46 13 -46 -4 -51 -3 -51 15 0 26 -25 47 -72 63
-33 10 -37 15 -32 36 7 27 3 28 -43 15 -24 -7 -35 -6 -44 5 -6 8 -22 14 -36
14 -31 0 -72 41 -79 80 -5 25 -11 30 -35 30 -18 0 -29 5 -29 14 0 8 -11 17
-25 20 -13 3 -35 17 -48 30 -13 13 -29 25 -36 27 -7 3 -15 23 -18 47 -6 45
-11 50 -32 30 -10 -11 -16 -8 -32 12 -11 14 -22 36 -25 50 -3 15 -15 30 -27
35 -17 8 -22 19 -22 45 0 30 -4 35 -26 38 -32 4 -49 37 -49 92 0 22 -4 40 -10
40 -5 0 -10 9 -10 20 0 16 -7 20 -30 20 -24 0 -30 4 -30 23 0 12 -7 41 -15 65
-8 23 -12 54 -9 67 3 14 2 25 -4 25 -13 0 -72 92 -72 113 0 8 -14 30 -31 47
-65 65 -87 117 -104 243 -4 27 -11 47 -18 47 -15 0 -41 29 -61 68 -11 22 -12
32 -3 41 8 8 8 14 -1 23 -7 7 -12 22 -12 34 0 14 -8 25 -20 29 -29 9 -45 42
-29 61 6 8 10 15 8 17 -2 1 -13 7 -24 13 -14 8 -20 22 -20 47 0 26 -7 40 -27
57 -16 12 -28 30 -28 40 0 11 -9 34 -20 52 -11 18 -20 45 -20 61 0 20 -5 27
-20 27 -13 0 -20 7 -20 20 0 15 -7 20 -27 20 l-28 1 28 15 c32 17 35 34 6 34
-18 0 -20 4 -14 30 6 26 4 30 -14 30 -14 0 -21 6 -21 19 0 14 -10 20 -46 25
-26 3 -60 6 -76 6 -25 0 -28 3 -23 21 7 21 5 22 -79 17 -67 -3 -86 -1 -86 9 0
16 -40 17 -92 1 -31 -9 -44 -9 -59 0 -23 14 -20 15 -43 -3z m3391 -7431 c-3
-3 -20 -4 -39 -2 l-33 4 35 16 c31 15 35 15 38 1 2 -8 2 -17 -1 -19z m128 6
c4 -6 -8 -10 -30 -10 -22 0 -34 4 -30 10 3 6 17 10 30 10 13 0 27 -4 30 -10z"/>
<path d="M6800 141 c0 -9 24 -21 41 -21 5 0 9 7 9 15 0 9 -9 15 -25 15 -14 0
-25 -4 -25 -9z"/>
</g>
</svg>
