<?xml version="1.0" standalone="no"?>
<!DOCTYPE svg PUBLIC "-//W3C//DTD SVG 20010904//EN"
 "http://www.w3.org/TR/2001/REC-SVG-20010904/DTD/svg10.dtd">
<svg version="1.0" xmlns="http://www.w3.org/2000/svg"
 width="1536.000000pt" height="1274.000000pt" viewBox="0 0 1536.000000 1274.000000"
 preserveAspectRatio="xMidYMid meet">
<metadata>
Created by potrace 1.16, written by Peter Selinger 2001-2019
</metadata>
<g transform="translate(0.000000,1274.000000) scale(0.100000,-0.100000)"
fill="#000000" stroke="none">
<path d="M2466 12730 c-212 -23 -375 -85 -485 -187 -43 -40 -104 -119 -194
-253 -159 -234 -187 -259 -402 -364 -82 -41 -242 -119 -355 -174 -242 -119
-377 -202 -531 -326 -253 -204 -401 -429 -466 -708 -24 -99 -27 -134 -27 -288
0 -195 12 -286 69 -507 34 -128 75 -245 115 -324 26 -50 78 -109 97 -109 8 0
34 16 57 35 57 47 85 50 191 26 117 -28 255 -40 336 -30 198 24 559 137 949
297 80 33 179 67 220 77 123 28 166 44 297 111 159 82 224 98 363 89 169 -11
360 -42 382 -62 72 -65 265 -544 317 -787 28 -127 52 -200 106 -311 51 -107
75 -175 75 -214 0 -98 320 -578 566 -848 156 -172 413 -357 669 -483 164 -81
300 -128 480 -166 72 -15 131 -28 132 -29 7 -4 -40 -234 -58 -288 -33 -97
-107 -232 -156 -288 -49 -54 -79 -72 -133 -83 -57 -11 -108 -50 -119 -94 -15
-53 12 -137 54 -172 15 -13 21 -10 47 23 17 20 36 37 44 37 35 0 30 -150 -10
-276 -37 -116 -56 -217 -63 -324 -6 -105 4 -163 30 -168 39 -8 239 223 273
315 22 60 73 151 235 421 70 117 135 234 144 260 32 88 34 92 57 92 33 0 85
-35 185 -124 48 -43 129 -102 179 -132 51 -30 95 -61 98 -70 7 -17 -42 -70
-139 -151 l-50 -41 80 -39 c77 -37 83 -38 178 -36 64 1 97 -2 97 -9 0 -23 -74
-145 -143 -237 -40 -52 -131 -156 -203 -231 -179 -188 -203 -246 -102 -244 60
0 159 35 303 105 151 73 294 166 462 301 141 113 216 168 231 168 12 0 131
-85 269 -191 105 -82 161 -119 178 -119 4 0 3 25 -1 57 l-7 56 34 -7 c19 -3
69 -29 112 -56 72 -46 91 -43 36 5 -30 27 -99 115 -99 126 0 5 4 9 8 9 16 0
150 -95 336 -238 238 -184 406 -296 538 -360 57 -28 144 -77 193 -110 268
-177 649 -514 735 -648 40 -64 55 -139 40 -210 -36 -170 -200 -366 -995 -1184
-412 -423 -628 -666 -673 -758 -11 -20 -29 -88 -41 -150 -25 -127 -54 -202
-136 -347 -142 -253 -202 -411 -193 -506 7 -64 21 -79 75 -79 27 0 46 -5 49
-13 2 -7 -11 -54 -30 -103 -19 -49 -43 -129 -53 -177 -16 -79 -16 -90 -2 -115
23 -42 56 -36 94 18 33 47 71 71 143 90 51 13 122 75 147 126 9 20 21 63 25
96 15 103 45 104 93 2 59 -123 73 -148 90 -158 27 -17 45 14 52 92 12 132 17
140 173 286 71 66 78 96 91 391 13 272 20 317 64 382 49 71 60 74 105 30 73
-71 99 -24 118 212 14 177 23 219 60 293 42 84 240 305 694 778 394 410 626
667 702 777 62 91 78 206 39 286 -29 60 -132 158 -296 283 -406 309 -596 514
-730 789 -60 123 -71 163 -50 191 13 18 32 19 405 17 429 -3 681 -15 799 -39
202 -42 602 -324 946 -668 277 -277 431 -480 598 -786 46 -85 103 -184 125
-220 128 -202 210 -348 356 -640 321 -637 433 -931 517 -1350 37 -188 47 -361
37 -622 -13 -326 -52 -567 -114 -709 -49 -112 -59 -171 -45 -266 12 -83 35
-140 63 -157 28 -17 39 4 49 88 14 133 71 207 166 219 50 6 98 37 119 78 8 17
19 69 25 116 9 85 39 173 57 173 31 0 48 -70 92 -395 48 -356 92 -511 161
-570 56 -46 73 -30 81 76 6 68 31 133 70 182 23 29 23 31 20 300 -1 154 2 278
7 286 19 29 44 -3 111 -141 37 -79 85 -162 104 -185 44 -50 121 -92 139 -74 8
8 12 66 12 184 0 205 -8 234 -96 366 -59 90 -75 120 -103 202 -9 25 -42 86
-73 135 -31 49 -76 132 -100 184 -105 225 -130 274 -224 446 -114 209 -168
323 -284 594 -168 396 -385 970 -505 1335 -60 182 -147 349 -298 570 -92 134
-158 217 -292 360 -375 403 -687 851 -720 1035 -6 35 -42 118 -100 232 -49 98
-90 184 -90 192 0 19 66 46 250 102 85 26 191 62 235 81 46 19 118 39 170 47
50 8 109 21 133 30 133 48 395 212 597 373 178 142 307 278 415 438 l95 140
149 -18 c193 -25 227 -17 411 88 213 122 384 185 615 227 92 16 158 21 330 21
230 1 299 -5 620 -58 250 -42 380 -59 387 -52 13 14 -15 54 -83 122 -89 87
-203 168 -283 200 -83 34 -435 135 -936 269 -459 122 -620 169 -755 218 -116
42 -137 54 -192 105 -26 24 -69 53 -95 63 -67 28 -104 49 -133 76 -46 42 -195
103 -523 213 -179 60 -347 121 -373 134 -45 22 -98 42 -344 129 -121 43 -291
123 -506 238 -279 149 -509 251 -644 285 -36 9 -82 21 -102 26 -20 5 -64 30
-97 55 -98 73 -238 119 -496 163 -195 33 -1079 140 -1262 152 -225 15 -950 6
-1128 -15 -212 -24 -436 -77 -955 -226 -571 -164 -615 -167 -842 -48 -111 57
-194 139 -241 238 -65 136 -100 285 -157 665 -48 321 -105 516 -215 740 -171
347 -517 742 -830 948 -244 161 -444 220 -830 247 -208 15 -761 21 -869 10z"/>
</g>
</svg>
