<?xml version="1.0" standalone="no"?>
<!DOCTYPE svg PUBLIC "-//W3C//DTD SVG 20010904//EN"
 "http://www.w3.org/TR/2001/REC-SVG-20010904/DTD/svg10.dtd">
<svg version="1.0" xmlns="http://www.w3.org/2000/svg"
 width="1536.000000pt" height="883.000000pt" viewBox="0 0 1536.000000 883.000000"
 preserveAspectRatio="xMidYMid meet">
<metadata>
Created by potrace 1.16, written by Peter Selinger 2001-2019
</metadata>
<g transform="translate(0.000000,883.000000) scale(0.100000,-0.100000)"
fill="#000000" stroke="none">
<path d="M12750 8820 c-882 -44 -1620 -171 -2295 -394 -88 -30 -286 -103 -440
-164 -458 -180 -703 -249 -1130 -321 -582 -97 -1331 -122 -2023 -66 -620 51
-1071 70 -1407 60 -1172 -33 -1967 -195 -2638 -537 -629 -321 -1076 -800
-1332 -1428 -26 -63 -55 -120 -64 -127 -36 -27 -322 -163 -405 -192 -50 -18
-131 -41 -180 -52 -312 -68 -454 -175 -499 -376 -12 -53 -16 -57 -52 -70 -21
-7 -77 -16 -124 -19 -112 -7 -132 -17 -51 -24 l65 -5 -52 -39 c-29 -22 -51
-42 -48 -44 2 -2 37 12 77 33 52 27 89 39 133 42 l60 5 75 -73 c44 -43 118
-99 173 -133 66 -41 96 -64 92 -74 -3 -8 -56 -91 -119 -185 -349 -526 -501
-873 -551 -1260 -73 -566 151 -1147 624 -1617 343 -341 689 -584 1181 -830
667 -334 1395 -577 2255 -754 1188 -244 2359 -232 3509 34 801 186 1411 456
2169 959 672 447 1269 983 1792 1609 281 338 628 830 730 1037 89 181 154 401
191 650 22 144 30 523 14 670 -63 611 -323 1032 -810 1310 -171 97 -814 347
-1429 556 -149 50 -270 93 -269 94 25 21 269 177 348 222 294 167 1556 811
1810 923 432 190 914 262 1405 209 157 -17 270 -39 695 -136 410 -94 1094
-243 1113 -243 30 0 -250 187 -419 279 -390 214 -835 356 -1399 447 -182 30
-480 39 -775 24z m-6400 -2180 c279 -19 778 -40 1075 -45 320 -6 425 -12 425
-24 0 -4 -35 -30 -77 -56 -450 -285 -750 -736 -913 -1372 -6 -24 -15 -43 -20
-43 -5 0 -14 26 -20 58 -103 510 -310 1003 -576 1369 -41 56 -74 106 -74 112
0 13 -2 13 180 1z m-1525 -681 c164 -53 247 -181 247 -382 0 -91 -28 -277 -41
-277 -9 0 -80 75 -119 126 -82 108 -158 295 -187 462 -8 46 -15 88 -15 92 0
10 44 2 115 -21z m5313 -805 l92 -7 0 -37 c0 -21 -7 -77 -15 -126 -56 -326
-217 -575 -515 -800 -58 -43 -240 -187 -405 -319 -526 -423 -952 -751 -962
-741 -9 9 411 1282 453 1375 79 174 224 343 389 453 179 120 320 167 610 201
55 7 261 7 353 1z m-7258 -780 c250 -176 487 -367 557 -449 290 -338 702 -565
1113 -614 266 -31 722 -46 890 -28 l65 7 40 -71 c189 -339 523 -584 939 -689
188 -47 419 -78 611 -81 66 -1 68 -1 30 -10 -84 -20 -367 -69 -535 -94 -463
-66 -855 -90 -1350 -82 -1059 17 -1905 195 -2669 563 -158 76 -179 90 -240
151 -130 133 -191 324 -191 598 0 184 44 361 139 560 64 135 123 221 228 336
l88 95 55 -34 c30 -19 134 -90 230 -158z"/>
</g>
</svg>
