<?xml version="1.0" standalone="no"?>
<!DOCTYPE svg PUBLIC "-//W3C//DTD SVG 20010904//EN"
 "http://www.w3.org/TR/2001/REC-SVG-20010904/DTD/svg10.dtd">
<svg version="1.0" xmlns="http://www.w3.org/2000/svg"
 width="1536.000000pt" height="695.000000pt" viewBox="0 0 1536.000000 695.000000"
 preserveAspectRatio="xMidYMid meet">
<metadata>
Created by potrace 1.16, written by Peter Selinger 2001-2019
</metadata>
<g transform="translate(0.000000,695.000000) scale(0.100000,-0.100000)"
fill="#000000" stroke="none">
<path d="M4470 6935 c-14 -8 -32 -14 -40 -15 -8 0 -42 -21 -75 -46 -33 -25
-79 -55 -101 -65 -52 -24 -60 -33 -75 -92 -9 -39 -19 -53 -49 -72 -39 -25 -55
-54 -64 -120 -3 -26 -14 -46 -28 -57 -48 -35 -58 -49 -58 -75 -1 -44 -26 -102
-53 -123 -24 -19 -57 -95 -57 -130 0 -10 -16 -37 -35 -61 -19 -24 -35 -51 -35
-60 0 -9 -18 -38 -40 -65 -21 -26 -42 -61 -46 -77 -3 -17 -31 -78 -60 -136
-98 -191 -290 -397 -503 -539 -146 -98 -231 -142 -330 -172 -67 -21 -86 -22
-205 -16 -72 4 -138 6 -146 6 -68 -3 -113 3 -235 29 -77 17 -191 38 -253 46
-135 18 -490 20 -763 4 -220 -12 -330 -3 -515 41 -301 72 -504 144 -619 221
-40 27 -76 49 -80 49 -14 0 6 -53 39 -104 38 -59 132 -149 214 -205 61 -41
316 -152 447 -194 193 -63 336 -89 620 -112 222 -19 303 -34 378 -70 96 -45
208 -162 193 -201 -3 -8 0 -27 8 -42 7 -15 16 -74 19 -135 l5 -107 -42 -34
c-55 -45 -255 -175 -336 -219 l-65 -36 -105 20 c-145 27 -297 49 -347 49 l-41
0 14 -46 c8 -26 23 -129 35 -230 l20 -184 -34 -57 c-50 -83 -141 -268 -167
-340 -19 -54 -22 -76 -18 -185 3 -113 6 -128 35 -190 36 -77 99 -172 137 -207
28 -26 30 -25 41 41 3 20 11 38 17 40 7 3 69 -15 138 -38 144 -50 259 -68 509
-84 125 -7 185 -7 215 1 22 6 133 53 244 105 218 101 559 238 867 349 236 85
312 118 350 155 62 60 331 97 620 86 169 -6 233 -18 381 -67 161 -53 221 -101
260 -207 92 -256 135 -333 244 -443 79 -79 267 -217 319 -234 13 -4 62 -67
120 -154 54 -81 140 -204 191 -272 51 -68 104 -148 117 -176 38 -82 33 -131
-36 -375 -33 -118 -78 -288 -100 -377 -47 -192 -85 -277 -170 -384 -81 -100
-92 -107 -167 -107 l-61 0 -88 -83 c-70 -67 -86 -88 -83 -108 3 -23 7 -24 90
-29 78 -4 91 -8 114 -32 l27 -26 -23 -56 -24 -56 23 -24 23 -24 51 24 c66 30
115 40 130 25 23 -23 82 -11 185 39 88 42 106 48 123 37 10 -6 19 -15 19 -19
0 -11 56 -38 79 -38 32 0 80 48 93 93 6 23 13 44 14 45 1 2 20 -8 41 -22 43
-30 65 -32 87 -10 13 13 16 39 14 147 -1 113 3 149 26 252 41 174 61 221 194
441 136 226 160 272 232 438 57 133 75 202 85 324 7 76 5 91 -26 187 -18 58
-30 107 -27 110 3 3 133 -12 289 -34 511 -72 553 -75 904 -74 176 0 455 8 620
16 273 14 301 14 310 0 122 -193 216 -292 420 -444 88 -66 157 -126 187 -163
58 -72 124 -204 133 -266 4 -25 20 -84 36 -133 20 -60 29 -108 29 -152 0 -60
-5 -74 -71 -204 -38 -77 -88 -160 -110 -184 -56 -65 -132 -88 -306 -96 -115
-6 -135 -9 -155 -28 -13 -11 -46 -32 -74 -46 -29 -15 -75 -48 -104 -74 -42
-38 -51 -53 -46 -69 6 -18 17 -22 87 -27 55 -5 91 -13 114 -27 30 -19 48 -20
306 -20 151 1 347 5 436 9 149 8 167 11 207 35 93 55 111 108 131 391 13 175
20 228 46 318 52 185 45 233 -92 563 -43 105 -85 217 -94 250 -17 66 -32 432
-18 450 4 6 62 23 128 38 332 77 560 206 841 476 88 85 185 169 215 187 53 32
281 111 441 155 70 19 109 22 248 23 201 0 194 2 635 -155 514 -183 925 -306
1175 -349 162 -29 287 -39 580 -50 344 -13 1371 -25 1398 -17 26 9 29 42 5 54
-46 24 -366 90 -663 136 -91 14 -268 42 -395 62 -287 45 -454 86 -637 159
-175 70 -280 125 -423 223 -305 208 -878 694 -1064 901 -163 182 -377 460
-566 736 -121 175 -244 278 -449 375 -132 63 -220 95 -716 262 -228 77 -541
185 -694 239 -364 129 -590 184 -1146 279 l-245 42 -245 -5 c-416 -10 -653
-50 -1165 -197 -209 -60 -301 -92 -620 -213 -392 -148 -695 -247 -888 -287
-86 -18 -157 -25 -157 -16 0 28 52 108 104 160 57 57 68 75 85 134 11 37 25
112 32 167 6 55 22 128 35 163 32 85 32 155 -1 215 -13 26 -31 88 -40 139 -20
115 -36 150 -84 181 -31 21 -39 34 -50 79 -13 61 -49 104 -97 117 -20 5 -40
24 -63 59 -29 45 -40 53 -88 67 -42 12 -58 23 -74 49 -21 36 -50 53 -109 62
-26 4 -41 13 -45 25 -7 22 -65 59 -94 59 -11 0 -38 16 -60 35 -31 29 -46 35
-81 35 -38 0 -47 5 -77 40 -37 43 -54 47 -93 25z"/>
</g>
</svg>
