<?xml version="1.0" standalone="no"?>
<!DOCTYPE svg PUBLIC "-//W3C//DTD SVG 20010904//EN"
 "http://www.w3.org/TR/2001/REC-SVG-20010904/DTD/svg10.dtd">
<svg version="1.0" xmlns="http://www.w3.org/2000/svg"
 width="1536.000000pt" height="726.000000pt" viewBox="0 0 1536.000000 726.000000"
 preserveAspectRatio="xMidYMid meet">
<metadata>
Created by potrace 1.16, written by Peter Selinger 2001-2019
</metadata>
<g transform="translate(0.000000,726.000000) scale(0.100000,-0.100000)"
fill="#000000" stroke="none">
<path d="M6121 7239 c-13 -5 -35 -17 -50 -28 -14 -10 -42 -21 -62 -25 -57 -10
-113 -57 -135 -111 -16 -40 -27 -51 -75 -75 -31 -16 -70 -41 -88 -56 -32 -27
-71 -91 -71 -117 0 -8 -10 -22 -21 -33 -40 -35 -79 -97 -79 -125 0 -15 -19
-63 -41 -106 l-41 -78 8 -130 c14 -234 10 -332 -16 -400 -52 -136 -161 -196
-355 -196 -130 0 -216 29 -400 139 -68 40 -263 122 -415 175 -152 52 -365 81
-716 97 -298 13 -431 12 -609 -5 -256 -25 -636 -30 -810 -11 -82 9 -193 21
-245 26 -142 15 -481 86 -595 124 -160 54 -337 145 -480 247 -71 51 -170 120
-219 153 -175 120 -212 147 -277 198 -99 79 -240 198 -278 235 -18 18 -37 30
-42 27 -10 -6 7 -48 37 -89 12 -16 34 -52 50 -79 30 -53 112 -165 208 -285
177 -221 489 -486 741 -630 188 -107 498 -233 815 -331 86 -27 182 -57 215
-68 114 -38 273 -70 447 -91 49 -6 125 -16 171 -21 45 -6 134 -15 197 -21 63
-5 144 -14 180 -19 36 -5 93 -10 128 -10 34 0 62 -4 62 -9 0 -5 -37 -16 -82
-24 -197 -38 -291 -60 -408 -97 -330 -103 -591 -168 -784 -195 -55 -8 -145
-21 -199 -30 -137 -21 -439 -45 -560 -45 -119 0 -345 28 -572 70 -88 16 -186
34 -218 40 -73 14 -316 95 -379 126 -66 33 -64 10 4 -62 111 -118 301 -219
600 -320 168 -57 501 -144 552 -144 16 0 66 -6 110 -14 398 -69 801 -89 1086
-52 74 9 206 26 293 37 87 11 218 24 290 30 73 5 182 14 242 19 171 14 420 12
490 -5 94 -22 292 -89 375 -128 48 -22 91 -51 119 -81 25 -25 43 -47 40 -49
-2 -3 -31 -24 -64 -48 -131 -96 -256 -203 -387 -333 l-138 -136 -67 0 c-38 0
-97 -7 -133 -15 -103 -24 -307 -95 -321 -111 -17 -21 -5 -103 25 -161 33 -66
96 -144 179 -224 l68 -65 -36 -55 c-99 -146 -167 -358 -166 -519 0 -88 30
-216 71 -304 77 -168 237 -297 478 -385 154 -56 353 -77 396 -42 13 11 6 25
-59 109 -102 135 -121 214 -66 288 50 69 281 314 295 314 8 0 45 -10 82 -21
239 -74 555 -318 650 -503 23 -43 25 -56 19 -110 -7 -60 -65 -238 -100 -306
-10 -19 -33 -54 -52 -77 -64 -80 -76 -140 -32 -164 26 -13 156 12 242 46 131
54 346 200 421 286 46 53 149 261 170 343 41 157 286 489 455 617 87 67 166
104 286 135 90 24 117 26 280 26 127 0 202 -5 254 -16 84 -19 216 -84 307
-153 32 -24 78 -56 102 -70 37 -22 49 -39 86 -117 57 -120 115 -206 211 -317
147 -168 343 -312 487 -358 20 -7 39 -19 42 -27 3 -8 -10 -36 -28 -62 -46 -64
-69 -113 -100 -207 -29 -86 -76 -342 -76 -410 0 -26 -7 -52 -19 -66 -68 -88
-87 -194 -53 -305 31 -101 71 -157 137 -195 30 -17 57 -35 60 -39 3 -4 10 -77
16 -161 11 -170 21 -214 50 -229 10 -6 19 -19 19 -29 0 -11 13 -33 29 -50 32
-34 73 -41 107 -16 21 14 45 85 59 170 12 78 13 78 52 39 40 -41 78 -58 109
-50 33 9 50 96 34 183 -9 53 -8 74 4 112 36 116 27 231 -25 307 -27 39 -66
129 -86 196 -4 12 19 44 73 100 92 99 128 152 193 292 27 58 54 106 60 106 6
0 45 -7 88 -16 148 -30 135 -21 155 -99 43 -167 97 -295 199 -472 96 -168 238
-386 261 -405 20 -14 21 -19 10 -43 -19 -42 -25 -134 -13 -200 6 -33 31 -101
56 -151 25 -50 45 -98 45 -106 0 -18 -67 -48 -106 -48 -42 0 -83 -28 -104 -72
-11 -23 -20 -48 -20 -56 0 -9 -11 -30 -25 -48 -14 -18 -25 -40 -25 -48 0 -9
-9 -16 -20 -16 -11 0 -20 -4 -20 -10 0 -7 155 -10 445 -10 l444 0 16 30 c20
38 20 185 0 220 -20 36 -19 38 24 36 48 -1 71 17 71 58 0 24 -12 45 -54 90
-61 65 -69 82 -85 183 -12 82 -45 163 -85 210 l-27 32 -3 198 c-6 349 -51 528
-205 823 -11 19 -21 51 -24 71 l-5 36 116 6 c189 10 393 59 565 136 l64 29 75
-76 c118 -122 225 -246 248 -291 19 -38 20 -47 10 -104 -7 -34 -9 -84 -5 -112
6 -49 3 -56 -47 -141 -72 -121 -74 -123 -149 -187 -121 -102 -155 -177 -200
-435 -33 -187 -34 -240 -10 -467 10 -98 22 -139 70 -233 31 -61 61 -88 69 -64
2 7 9 12 17 12 7 0 18 14 25 31 l13 30 29 -35 c28 -35 103 -86 125 -86 10 0
28 83 36 160 3 36 21 31 55 -16 37 -51 73 -61 107 -30 40 36 115 191 115 239
1 83 27 165 80 258 66 114 73 170 41 301 l-22 87 22 43 c42 83 130 218 152
233 12 8 32 15 46 15 40 0 105 75 130 151 43 131 26 284 -45 408 -39 67 -74
139 -74 152 0 6 44 -30 98 -79 205 -190 397 -320 632 -430 95 -45 352 -134
422 -147 79 -15 197 -158 274 -332 68 -153 132 -374 118 -407 -3 -6 -23 -24
-44 -41 -55 -43 -83 -121 -73 -204 4 -40 2 -51 -20 -77 -24 -29 -43 -39 -149
-81 -24 -9 -55 -27 -69 -41 -25 -22 -69 -117 -69 -148 0 -12 63 -14 408 -14
l407 0 46 73 c57 88 149 286 179 384 38 126 19 196 -125 442 -59 102 -70 152
-85 391 -18 293 -51 395 -149 462 -29 20 -76 44 -105 53 -54 17 -58 19 -151
60 -137 60 -170 133 -195 436 -10 112 -30 215 -66 337 -6 20 -3 22 31 22 89 0
257 -64 362 -137 131 -91 213 -220 322 -505 33 -84 76 -189 96 -233 20 -44 48
-111 62 -150 53 -146 161 -341 272 -490 76 -102 221 -244 291 -285 115 -67
203 -107 268 -120 69 -14 195 -9 265 12 155 44 405 344 492 588 90 250 108
402 82 665 -25 257 -51 400 -92 520 -35 103 -150 290 -219 354 -35 33 -33 18
11 -104 19 -55 39 -122 43 -150 5 -27 17 -111 29 -185 25 -161 26 -280 6 -432
-25 -179 -35 -226 -87 -383 -30 -88 -152 -337 -177 -360 -34 -30 -115 -26
-174 8 -91 54 -153 126 -207 242 -28 59 -62 146 -76 194 -14 47 -39 129 -55
181 -41 137 -67 271 -79 417 -12 144 -42 434 -64 628 -9 72 -20 186 -26 255
-24 292 -57 464 -127 670 -127 376 -350 793 -572 1070 -112 141 -446 469 -597
588 -157 124 -402 294 -464 323 -25 12 -126 61 -225 110 -99 48 -218 103 -265
122 -213 87 -506 159 -800 197 -47 6 -125 17 -175 25 -385 62 -862 56 -1305
-16 -291 -47 -589 -135 -787 -230 -193 -94 -484 -300 -680 -484 -107 -99 -157
-128 -309 -180 -179 -62 -313 -85 -521 -92 l-183 -6 0 28 c0 18 15 44 45 78
66 75 90 154 82 268 -7 86 -6 89 27 147 69 123 76 195 26 288 -18 33 -39 67
-49 78 -13 15 -16 43 -16 160 -1 156 -9 187 -68 261 -29 36 -33 49 -38 125 -9
124 -30 164 -152 285 -57 56 -116 109 -133 117 -32 17 -100 33 -179 43 -27 4
-70 19 -95 33 -42 25 -52 27 -153 24 -80 -2 -115 2 -137 13 -33 17 -160 20
-199 4z"/>
</g>
</svg>
