<?xml version="1.0" standalone="no"?>
<!DOCTYPE svg PUBLIC "-//W3C//DTD SVG 20010904//EN"
 "http://www.w3.org/TR/2001/REC-SVG-20010904/DTD/svg10.dtd">
<svg version="1.0" xmlns="http://www.w3.org/2000/svg"
 width="1461.000000pt" height="1536.000000pt" viewBox="0 0 1461.000000 1536.000000"
 preserveAspectRatio="xMidYMid meet">
<metadata>
Created by potrace 1.16, written by Peter Selinger 2001-2019
</metadata>
<g transform="translate(0.000000,1536.000000) scale(0.100000,-0.100000)"
fill="#000000" stroke="none">
<path d="M11030 15328 c-58 -94 -203 -498 -515 -1431 -481 -1441 -743 -2323
-985 -3322 -203 -840 -337 -1348 -420 -1595 -32 -96 -160 -474 -283 -840
l-225 -665 -35 1 c-19 1 -81 22 -138 48 -57 26 -124 55 -148 63 -25 9 -46 24
-48 34 -6 21 -54 55 -146 103 -78 40 -103 59 -288 217 -321 275 -472 449 -842
970 -48 68 -130 183 -182 254 -52 72 -118 170 -146 218 -29 49 -95 143 -147
210 -52 67 -97 129 -100 137 -2 8 -22 53 -43 99 -30 64 -39 96 -39 137 0 42
-4 55 -19 64 -11 5 -23 20 -26 32 -4 13 -19 36 -33 51 -15 15 -33 47 -42 70
-11 30 -25 47 -48 59 -59 29 -91 68 -57 68 21 0 19 8 -13 61 -75 129 -128 156
-261 138 -133 -19 -497 -151 -914 -333 -108 -47 -284 -124 -390 -170 -105 -46
-266 -111 -357 -144 -91 -33 -273 -103 -405 -155 -418 -166 -815 -304 -1125
-392 l-185 -53 -28 20 c-15 11 -48 50 -72 86 -61 94 -267 316 -355 385 -108
83 -271 186 -343 215 -119 48 -397 40 -621 -18 -312 -82 -496 -202 -647 -423
-35 -50 -94 -129 -132 -176 -38 -47 -79 -106 -92 -131 -15 -29 -39 -129 -69
-280 -69 -358 -81 -495 -51 -580 8 -24 13 -52 9 -62 -3 -10 2 -43 11 -74 l16
-56 36 7 c32 6 40 3 74 -31 52 -51 69 -42 69 36 0 65 7 72 47 41 30 -25 53
-17 53 18 1 74 28 93 56 39 30 -60 58 -55 70 11 9 48 21 61 55 61 22 0 32 -7
44 -31 21 -40 45 -34 59 15 12 44 21 48 117 60 l55 7 20 -43 c25 -57 46 -56
59 4 5 26 15 52 21 58 12 12 199 50 247 50 24 0 39 -8 58 -32 33 -40 55 -33
64 20 7 45 4 44 133 63 l83 13 30 -37 c45 -55 69 -46 69 24 0 37 12 42 156 69
148 27 168 26 182 -5 18 -38 62 -26 62 17 0 26 24 34 213 72 l168 34 9 -23 c5
-12 21 -32 36 -44 33 -26 54 -14 54 30 0 43 29 65 102 78 85 15 103 14 139 -5
32 -16 59 -7 59 21 0 41 83 60 113 25 24 -28 35 -25 51 15 19 45 49 50 94 14
29 -22 42 -17 42 16 0 36 26 48 215 98 195 52 281 70 450 92 66 9 176 31 245
50 208 58 683 121 726 97 17 -10 16 -12 -17 -26 -20 -8 -72 -20 -116 -25 -126
-16 -473 -136 -653 -226 -36 -18 -107 -49 -159 -69 -101 -40 -207 -92 -256
-126 -43 -29 -149 -60 -209 -60 -39 0 -54 -4 -63 -19 -12 -20 -151 -74 -218
-85 -23 -4 -52 -3 -67 3 -22 8 -28 6 -46 -18 -14 -20 -40 -34 -89 -49 -113
-35 -110 -35 -132 -11 l-20 22 -20 -24 c-11 -13 -20 -27 -21 -31 0 -11 -275
-98 -309 -98 -16 0 -33 4 -36 10 -3 5 -15 15 -26 20 -17 10 -22 6 -34 -24 -19
-44 -36 -53 -214 -110 l-144 -45 -27 19 c-16 11 -38 20 -49 20 -17 0 -21 -6
-21 -31 0 -35 -25 -49 -152 -81 -72 -18 -79 -18 -108 -3 -37 19 -60 14 -60
-14 0 -31 -37 -49 -156 -76 l-108 -24 -29 34 c-34 42 -55 44 -63 8 -13 -65
-19 -69 -105 -91 l-82 -20 -32 34 c-35 37 -64 44 -66 17 -1 -10 -2 -29 -2 -43
-1 -16 -11 -29 -29 -38 -30 -14 -53 -6 -110 39 -37 30 -63 19 -54 -23 8 -39
-7 -58 -45 -58 -23 0 -36 9 -61 45 -18 25 -38 45 -45 45 -17 0 -33 -41 -33
-86 0 -24 -4 -34 -12 -32 -21 7 -55 65 -62 105 -12 77 -38 82 -56 10 -6 -23
-13 -48 -15 -54 -6 -19 -34 -4 -51 28 -9 18 -23 29 -35 29 -19 0 -20 -5 -17
-47 6 -65 66 -288 90 -338 57 -115 259 -339 343 -380 106 -52 376 -55 520 -5
186 64 381 225 583 481 50 63 109 132 131 152 55 50 157 99 336 164 83 30 186
68 230 85 67 25 103 32 220 40 77 5 210 7 295 4 85 -3 187 -5 225 -3 178 6
464 -3 549 -17 50 -8 129 -18 176 -21 207 -16 385 -55 519 -115 47 -21 118
-46 156 -55 100 -25 176 -59 264 -118 67 -46 142 -85 193 -101 9 -3 29 -23 43
-45 15 -24 42 -49 67 -62 24 -12 97 -55 163 -97 94 -59 143 -99 230 -187 61
-61 148 -148 195 -191 47 -44 134 -133 195 -199 60 -65 126 -130 146 -145 20
-14 67 -54 104 -88 l68 -62 -36 -72 c-37 -74 -76 -208 -97 -328 -7 -36 -33
-119 -58 -185 l-47 -120 -135 -135 c-165 -164 -347 -326 -540 -479 -80 -63
-170 -136 -200 -161 -129 -111 -394 -273 -730 -450 -414 -218 -475 -249 -530
-271 -130 -52 -466 -163 -590 -195 -189 -48 -437 -170 -595 -294 -183 -143
-469 -332 -665 -440 -63 -34 -187 -106 -275 -158 -201 -119 -405 -222 -605
-302 -293 -118 -450 -210 -529 -310 -20 -25 -56 -81 -81 -123 -33 -59 -54 -83
-87 -103 -29 -16 -53 -42 -73 -77 l-29 -52 26 -27 c25 -26 25 -30 18 -95 -16
-131 -14 -135 48 -148 32 -6 233 -196 279 -262 16 -24 33 -43 38 -43 18 0 50
44 56 76 8 44 -2 86 -32 130 -47 69 -47 69 226 114 331 55 402 76 681 203 90
41 193 87 229 102 172 70 930 422 1130 523 738 374 1111 568 1212 629 32 19
72 39 90 45 31 9 258 19 823 34 216 5 385 -3 402 -20 3 -3 -24 -45 -60 -93
-77 -105 -104 -156 -150 -289 l-35 -99 44 -265 c24 -146 60 -368 80 -495 19
-126 60 -360 89 -520 85 -458 111 -615 170 -1020 77 -529 79 -539 120 -621 43
-88 96 -138 167 -158 126 -36 536 -50 587 -20 23 14 45 15 150 7 l123 -8 13
32 c13 32 16 33 69 33 66 0 79 15 43 46 -26 22 -169 74 -205 74 -9 0 -23 4
-30 9 -23 14 20 118 153 371 67 129 153 300 190 380 130 280 388 922 535 1335
146 411 280 736 313 763 9 8 51 29 94 48 l78 33 33 -32 c118 -113 138 -269
129 -992 -7 -459 -25 -767 -47 -789 -11 -11 -186 15 -246 37 -21 8 -89 38
-151 66 -62 28 -141 58 -175 66 -77 18 -194 19 -228 2 -31 -16 -32 -49 -2 -62
24 -11 28 -25 11 -42 -6 -6 -9 -15 -6 -21 11 -16 173 -111 216 -127 23 -8 68
-37 99 -65 72 -65 137 -95 362 -169 203 -66 336 -101 390 -101 48 0 95 31 120
80 21 42 73 289 110 520 54 343 78 456 151 700 59 196 128 365 219 535 112
207 142 255 160 255 45 0 324 -133 507 -241 78 -46 193 -113 255 -149 164 -95
477 -305 602 -406 60 -48 154 -133 210 -189 222 -222 756 -898 832 -1053 l36
-72 -4 -135 c-2 -104 -6 -138 -18 -150 -9 -8 -51 -22 -95 -30 -108 -21 -297
-80 -372 -116 -90 -44 -164 -125 -144 -158 6 -10 29 -10 109 -1 130 15 272 3
347 -30 20 -9 73 -14 155 -14 146 -1 169 8 224 80 42 55 129 224 181 349 20
50 56 124 80 166 24 42 47 87 50 100 9 36 -10 76 -45 94 -19 10 -52 48 -84 98
-29 45 -169 262 -311 482 -142 220 -322 495 -400 610 -192 284 -294 481 -435
835 -186 468 -360 1103 -460 1682 -17 95 -30 176 -30 179 0 7 143 -17 185 -31
17 -6 46 -28 66 -50 25 -27 45 -40 63 -40 16 0 31 -9 42 -25 24 -37 49 -48 68
-30 19 19 30 19 47 -1 22 -27 70 -47 82 -35 6 6 29 11 52 11 23 0 47 6 54 13
7 7 40 12 84 12 68 0 72 1 75 23 2 13 14 27 28 32 52 20 16 127 -88 258 -99
124 -254 226 -433 286 -75 25 -121 46 -101 46 17 0 -18 31 -51 45 -19 8 -71
49 -116 93 -45 43 -96 88 -114 100 -17 12 -46 46 -63 75 -18 28 -56 79 -84
112 -56 64 -235 320 -279 397 -44 76 -169 239 -301 392 l-124 142 142 84 c563
333 1036 657 1881 1290 640 479 923 707 1975 1589 611 512 797 673 947 813
280 261 241 275 -146 50 -141 -82 -335 -194 -431 -248 -416 -233 -842 -496
-1375 -849 -471 -312 -539 -361 -1220 -869 -302 -225 -631 -468 -730 -539 -99
-72 -261 -190 -360 -262 -99 -73 -272 -197 -385 -277 -113 -79 -225 -159 -249
-176 -24 -18 -46 -30 -49 -28 -10 11 261 926 393 1325 198 602 318 1043 504
1856 44 193 129 566 190 830 236 1033 271 1241 406 2445 31 272 67 572 80 665
39 276 55 448 62 657 5 174 4 200 -11 222 -23 36 -52 33 -76 -6z"/>
</g>
</svg>
