<?xml version="1.0" standalone="no"?>
<!DOCTYPE svg PUBLIC "-//W3C//DTD SVG 20010904//EN"
 "http://www.w3.org/TR/2001/REC-SVG-20010904/DTD/svg10.dtd">
<svg version="1.0" xmlns="http://www.w3.org/2000/svg"
 width="2416.000000pt" height="551.000000pt" viewBox="0 0 2416.000000 551.000000"
 preserveAspectRatio="xMidYMid meet">
<metadata>
Created by potrace 1.16, written by Peter Selinger 2001-2019
</metadata>
<g transform="translate(0.000000,551.000000) scale(0.100000,-0.100000)"
fill="#000000" stroke="none">
<path d="M21094 5461 c-49 -12 -118 -54 -295 -179 -200 -141 -385 -301 -614
-532 -325 -329 -422 -403 -555 -424 -148 -24 -272 -25 -580 -6 -305 19 -765
30 -1955 50 -478 8 -1462 43 -1840 65 -354 21 -931 78 -1590 156 -602 71
-3061 339 -3565 389 -58 5 -224 17 -370 25 -146 9 -341 22 -435 30 -430 37
-688 48 -1110 48 -436 1 -477 -2 -940 -48 -758 -77 -1644 -244 -2830 -534
-485 -118 -732 -175 -945 -215 -74 -14 -187 -37 -250 -50 -63 -13 -205 -32
-315 -41 -320 -26 -535 -52 -935 -115 -206 -32 -418 -63 -470 -69 -151 -18
-696 -108 -821 -137 -63 -14 -152 -36 -199 -50 -47 -13 -164 -42 -260 -64 -96
-23 -182 -48 -192 -57 -22 -20 -24 -83 -3 -122 18 -36 60 -51 141 -51 61 0 63
-1 69 -29 3 -16 15 -37 26 -47 22 -20 21 -21 24 29 3 44 2 44 37 49 24 3 31
-3 50 -41 13 -24 28 -45 33 -45 6 -1 12 19 15 44 5 42 7 45 38 48 24 3 32 -1
32 -13 0 -22 30 -85 40 -85 4 0 12 21 16 48 7 38 13 48 32 50 18 3 22 -1 22
-23 0 -27 26 -75 41 -75 5 0 9 12 9 28 1 76 32 98 50 33 9 -36 39 -75 41 -55
3 30 6 52 7 72 4 41 36 26 52 -24 8 -25 19 -47 25 -48 5 0 15 21 20 48 6 27
16 51 23 54 7 2 21 -16 32 -42 21 -49 40 -60 40 -23 1 78 38 91 64 22 23 -60
42 -58 50 5 6 43 10 50 29 50 17 0 26 -11 42 -52 27 -71 42 -72 50 -4 7 52 9
56 34 56 24 0 29 -6 42 -47 18 -59 35 -65 43 -16 12 65 16 73 41 73 18 0 24
-7 29 -34 6 -31 44 -80 48 -60 0 5 2 14 3 19 2 6 3 24 4 41 1 23 7 33 21 37
16 4 24 -5 44 -49 14 -30 29 -54 34 -54 5 0 13 25 17 55 6 53 8 55 36 55 19 0
29 -5 29 -15 0 -20 28 -75 38 -75 4 0 9 15 10 33 4 56 11 67 42 67 25 0 32 -7
49 -45 11 -25 24 -45 29 -45 11 0 22 34 22 68 0 17 6 22 28 22 23 0 32 -7 45
-36 21 -43 40 -40 47 7 l5 34 74 3 c57 2 77 -1 92 -14 10 -9 23 -13 28 -9 6 3
11 -1 11 -11 0 -13 3 -14 14 -5 10 9 16 9 21 1 4 -6 13 -9 21 -6 7 3 16 1 20
-5 3 -6 12 -8 20 -5 8 3 17 -1 21 -9 4 -13 8 -13 21 -3 12 11 16 11 20 0 3
-10 7 -10 18 -1 11 9 15 8 20 -5 5 -13 9 -14 21 -4 11 9 16 9 24 -3 8 -12 10
-12 19 1 8 13 11 13 27 -2 16 -17 16 -19 -8 -44 -31 -34 -81 -58 -149 -74 -30
-6 -111 -29 -180 -50 -69 -21 -149 -42 -179 -48 l-53 -9 -18 41 c-19 43 -26
39 -33 -19 -3 -23 -10 -31 -37 -38 -43 -11 -58 -4 -62 29 -5 44 -26 40 -35 -7
-7 -35 -13 -44 -36 -50 -25 -7 -27 -4 -37 32 -16 59 -31 51 -42 -25 -2 -12
-14 -23 -31 -27 -24 -6 -29 -3 -43 24 -9 18 -18 34 -21 37 -8 9 -23 -25 -23
-52 0 -21 -5 -28 -20 -28 -11 0 -23 -1 -27 -1 -5 -1 -13 16 -19 37 -6 21 -15
39 -21 41 -12 4 -23 -29 -23 -69 0 -21 -5 -28 -20 -29 -11 -1 -25 -2 -32 -3
-7 -1 -17 19 -23 43 -18 73 -45 58 -45 -25 0 -27 -4 -32 -32 -38 -36 -7 -44 1
-53 56 -4 21 -11 38 -16 38 -13 0 -29 -45 -29 -80 0 -20 -6 -31 -20 -35 -28
-9 -37 0 -45 45 -4 22 -11 42 -16 46 -12 7 -29 -39 -29 -77 0 -16 -4 -29 -9
-29 -5 0 -16 -3 -24 -6 -11 -4 -18 8 -27 45 -17 74 -40 63 -40 -19 0 -29 -4
-39 -20 -43 -23 -6 -34 9 -45 61 -11 55 -35 33 -35 -33 0 -20 -6 -35 -15 -39
-17 -6 -27 13 -40 72 -10 47 -27 35 -40 -29 -8 -44 -14 -54 -30 -54 -15 0 -24
12 -36 49 -18 53 -26 49 -37 -16 -6 -37 -11 -43 -32 -43 -19 0 -25 7 -32 35
-15 60 -17 65 -30 52 -6 -6 -14 -31 -17 -54 -6 -41 -7 -43 -41 -43 -31 0 -35
3 -43 38 -12 49 -24 47 -32 -6 l-7 -44 -74 -11 c-91 -14 -112 -25 -120 -59 -9
-33 31 -113 64 -129 24 -12 446 -11 827 1 383 12 717 -20 1040 -102 106 -26
361 -75 620 -119 409 -69 622 -99 1675 -234 479 -61 644 -88 877 -139 146 -33
444 -81 499 -81 15 0 208 -387 286 -575 28 -66 83 -212 123 -325 144 -407 231
-606 325 -745 64 -94 116 -143 204 -192 89 -50 173 -77 326 -102 96 -17 132
-18 214 -11 173 17 376 102 536 225 100 77 163 179 211 340 66 221 129 501
129 569 0 67 -82 226 -156 300 -114 113 -353 256 -606 361 -76 32 -138 60
-138 64 0 3 120 4 267 2 490 -6 1230 28 1663 79 652 75 1216 167 2155 350 369
72 812 155 985 186 173 30 323 57 332 60 21 6 28 -19 68 -226 53 -273 119
-479 202 -629 65 -118 238 -290 404 -401 190 -128 265 -162 453 -210 225 -56
259 -54 333 28 88 97 147 243 218 537 100 413 112 601 43 699 -47 66 -156 151
-363 279 -185 115 -193 122 -165 129 57 15 1511 208 1715 228 359 35 1572 130
1930 150 930 54 1569 72 1840 51 214 -17 456 -55 527 -84 75 -31 188 -104 399
-259 300 -220 927 -644 1182 -797 435 -262 797 -452 1137 -596 370 -157 563
-219 830 -266 277 -49 641 -13 732 73 28 26 30 72 4 94 -10 9 -77 38 -148 64
-259 94 -390 179 -611 394 -84 83 -212 220 -285 305 -306 362 -724 817 -978
1066 -204 200 -324 305 -549 481 -349 272 -366 288 -379 338 -15 62 -14 226 4
397 35 340 65 684 65 753 0 66 -3 77 -22 90 -24 17 -28 18 -74 7z"/>
<path d="M22073 3 c15 -2 37 -2 50 0 12 2 0 4 -28 4 -27 0 -38 -2 -22 -4z"/>
</g>
</svg>
