<?xml version="1.0" standalone="no"?>
<!DOCTYPE svg PUBLIC "-//W3C//DTD SVG 20010904//EN"
 "http://www.w3.org/TR/2001/REC-SVG-20010904/DTD/svg10.dtd">
<svg version="1.0" xmlns="http://www.w3.org/2000/svg"
 width="1536.000000pt" height="876.000000pt" viewBox="0 0 1536.000000 876.000000"
 preserveAspectRatio="xMidYMid meet">
<metadata>
Created by potrace 1.16, written by Peter Selinger 2001-2019
</metadata>
<g transform="translate(0.000000,876.000000) scale(0.100000,-0.100000)"
fill="#000000" stroke="none">
<path d="M3323 8753 c9 -2 15 -9 12 -14 -8 -11 53 -11 80 1 17 8 16 9 -10 9
-16 -1 -46 1 -65 4 -19 2 -27 2 -17 0z"/>
<path d="M2843 8717 c-54 -9 -134 -24 -178 -32 -44 -7 -117 -27 -163 -44 -46
-17 -126 -38 -179 -47 -53 -8 -128 -26 -167 -40 -75 -26 -135 -31 -168 -13
-15 8 -19 8 -14 0 4 -6 2 -11 -5 -11 -7 0 -9 -3 -6 -7 17 -16 115 -9 182 13
66 23 203 42 290 40 22 0 59 3 81 7 36 7 42 6 46 -11 7 -24 -28 -32 -150 -32
-46 0 -93 -5 -105 -11 -16 -9 -22 -9 -25 0 -3 9 -8 9 -21 -2 -24 -21 -51 -29
-45 -13 4 10 -5 11 -43 4 -26 -4 -75 -12 -108 -17 -33 -4 -68 -11 -77 -16 -12
-5 -18 -3 -19 6 0 8 -4 4 -10 -9 -9 -24 -29 -22 -29 4 0 8 5 12 10 9 6 -3 10
-1 10 6 0 6 -8 9 -20 6 -11 -3 -20 0 -20 5 0 6 -8 4 -18 -5 -22 -20 -133 -70
-140 -63 -2 3 -17 -1 -32 -9 -15 -8 -30 -12 -32 -9 -3 2 -31 -8 -64 -23 -65
-29 -205 -45 -218 -24 -5 8 -12 8 -25 -1 -13 -8 -23 -8 -37 0 -19 11 -18 11 1
12 l20 1 -20 9 c-27 12 -37 12 -30 1 3 -5 1 -12 -5 -16 -6 -3 -13 1 -16 9 -9
24 -27 19 -57 -15 -23 -27 -32 -30 -60 -25 -17 4 -42 8 -54 9 -12 1 -25 6 -29
10 -5 4 0 5 11 2 20 -7 20 -6 1 9 -21 17 -31 12 -50 -25 -6 -12 -23 -26 -39
-30 -15 -4 -25 -3 -22 2 7 10 -21 17 -89 24 -38 3 -56 -1 -78 -16 -15 -11 -28
-27 -28 -34 0 -31 -47 -48 -115 -42 l-64 6 -44 -51 c-44 -51 -45 -52 -98 -50
-47 1 -57 -2 -74 -24 -43 -55 -73 -78 -142 -109 -190 -88 -235 -144 -255 -329
-12 -107 -12 -109 10 -126 12 -10 22 -29 22 -42 0 -64 145 -225 227 -252 95
-31 187 -39 325 -27 239 20 458 13 954 -29 127 -11 271 -27 320 -35 140 -22
337 -45 411 -47 67 -1 67 -1 18 -7 -68 -8 -36 -17 120 -32 66 -6 172 -25 235
-41 63 -16 127 -32 143 -35 15 -3 27 -8 27 -12 0 -9 70 -34 77 -28 2 3 -6 12
-19 20 -69 42 -79 49 -74 54 2 3 17 -4 33 -15 15 -10 49 -29 76 -40 26 -12 47
-24 47 -27 0 -3 -4 -3 -10 0 -5 3 -10 2 -10 -2 0 -5 13 -17 30 -26 16 -10 29
-21 28 -25 -1 -4 4 -18 12 -32 7 -14 15 -41 17 -60 12 -137 171 -515 297 -704
25 -39 49 -79 52 -90 4 -12 10 -23 14 -26 3 -3 38 -50 75 -105 38 -55 88 -124
112 -153 24 -29 43 -57 43 -62 0 -4 3 -17 6 -27 4 -10 -7 1 -24 24 -50 67 -52
65 -53 -54 -2 -134 -4 -171 -13 -203 -4 -14 -8 -65 -10 -113 -2 -67 1 -90 11
-94 7 -3 13 -12 13 -20 0 -9 6 -13 15 -9 11 4 15 -2 15 -24 0 -19 5 -30 14
-30 7 0 19 -14 26 -31 7 -17 16 -26 19 -20 4 5 15 -13 25 -41 10 -28 26 -60
37 -71 10 -12 19 -29 19 -39 0 -9 11 -25 25 -34 30 -20 33 -69 10 -161 -18
-71 -18 -111 -7 -333 9 -170 9 -176 -13 -226 -21 -48 -22 -54 -8 -83 9 -17 31
-40 49 -52 36 -22 38 -27 54 -134 6 -38 18 -84 27 -102 22 -48 136 -139 181
-147 105 -17 152 1 178 70 17 44 17 46 -4 90 -23 46 -42 58 -42 25 0 -36 -21
-78 -45 -89 -21 -10 -26 -8 -35 8 -6 10 -28 39 -50 65 -41 48 -56 86 -66 173
l-7 52 29 0 c35 0 114 35 114 50 0 5 -21 10 -47 11 -79 2 -98 11 -95 45 4 43
23 85 35 77 7 -4 8 15 4 60 -4 39 -2 69 3 72 6 4 10 0 11 -7 1 -7 5 3 9 22 5
19 6 48 3 64 -4 17 -2 27 3 23 6 -3 16 15 23 41 7 26 20 62 28 81 12 26 13 42
5 68 -9 30 -8 33 10 33 12 0 17 4 12 11 -4 7 5 6 22 -3 16 -8 45 -22 64 -31
19 -8 64 -29 100 -45 263 -122 749 -290 973 -337 67 -14 130 -28 140 -31 18
-6 18 1 14 123 -4 90 -3 109 3 63 4 -36 8 -115 9 -177 1 -106 -1 -119 -38
-226 -48 -140 -60 -164 -115 -225 -34 -39 -45 -61 -55 -110 -6 -34 -19 -68
-27 -77 -22 -22 -51 -19 -58 8 -6 22 -7 22 -21 3 -21 -28 -19 -51 9 -82 23
-27 25 -28 67 -15 67 20 112 76 187 230 59 124 66 134 75 113 8 -17 7 -68 -5
-180 -13 -136 -13 -162 -1 -198 19 -58 14 -128 -10 -132 -11 -2 -30 6 -43 19
-13 12 -26 20 -29 17 -11 -11 28 -89 57 -113 42 -35 73 -32 118 13 43 42 62
110 56 200 -2 29 1 55 6 58 5 3 6 20 3 36 -6 23 -4 29 5 23 9 -6 11 -4 5 4 -8
14 29 54 41 43 7 -6 4 4 -12 43 -3 8 -1 15 6 15 6 0 8 4 5 10 -4 6 1 7 11 3
11 -4 15 -2 11 4 -4 6 3 13 14 16 16 4 20 10 14 24 -4 10 -8 32 -9 50 0 17 -4
35 -8 39 -18 17 -6 26 12 9 30 -27 34 -12 11 34 -26 49 -26 59 -3 39 34 -29
45 -33 33 -9 -10 17 -9 21 4 21 16 0 15 10 -2 57 -3 7 7 15 21 19 29 7 32 18
11 54 -8 14 -14 34 -15 44 0 18 1 18 18 3 26 -23 45 -22 37 3 -5 15 0 21 22
26 15 3 33 7 38 9 11 3 190 -11 250 -20 31 -5 37 -4 25 5 -18 14 101 6 162
-11 27 -7 44 -6 60 2 20 11 21 10 10 -3 -10 -13 -8 -16 20 -22 18 -3 62 -22
98 -40 99 -51 234 -71 274 -41 22 17 66 20 66 5 0 -5 -10 -10 -22 -11 -27 -1
-17 -5 37 -15 l40 -7 -40 -8 c-22 -4 -64 -8 -92 -8 -29 -1 -53 -2 -53 -4 0
-16 37 -121 55 -157 26 -51 150 -190 170 -190 8 0 15 20 20 56 4 31 9 53 12
51 2 -3 7 -52 9 -109 5 -109 10 -134 55 -293 46 -156 89 -240 197 -373 49 -62
125 -207 153 -295 25 -80 59 -320 60 -422 0 -61 -6 -97 -26 -155 -42 -122 -54
-186 -64 -366 -9 -146 -17 -193 -50 -325 -72 -277 -166 -531 -252 -681 -82
-142 -99 -176 -113 -222 -19 -62 -70 -139 -116 -176 -21 -16 -75 -47 -121 -69
-71 -34 -103 -42 -209 -55 -230 -29 -345 -71 -395 -144 -44 -64 -31 -91 34
-71 33 10 43 9 57 -2 14 -11 101 -15 477 -17 302 -2 478 1 512 8 69 14 105 52
113 115 4 43 7 46 31 43 25 -3 26 -6 26 -65 0 -99 -7 -96 273 -104 281 -8 277
-9 239 74 -14 30 -46 77 -71 103 -52 55 -63 86 -92 259 -36 210 -22 338 65
615 101 319 142 414 218 506 53 67 73 132 104 355 15 111 9 159 -29 237 -53
105 -72 183 -72 287 0 84 11 235 25 342 5 34 3 42 -12 46 -14 4 -13 5 5 6 22
1 32 31 10 31 -6 0 -3 7 8 15 11 8 14 15 7 15 -7 0 -13 5 -13 11 0 5 4 8 9 4
6 -3 15 5 22 17 11 21 11 22 -4 10 -13 -11 -15 -10 -10 7 3 12 9 18 14 15 10
-6 38 53 42 88 1 13 6 26 12 30 5 4 -1 18 -15 33 -15 16 -18 24 -9 20 9 -3 22
-17 29 -31 12 -21 10 -35 -18 -116 -17 -51 -29 -95 -26 -99 2 -4 46 -37 98
-74 137 -97 169 -133 233 -265 92 -189 100 -215 123 -400 19 -150 21 -199 15
-398 -10 -358 -10 -445 1 -477 6 -16 37 -66 69 -110 73 -102 98 -152 137 -273
52 -165 126 -260 240 -308 31 -13 56 -35 88 -78 50 -67 123 -115 177 -116 l32
0 -39 83 c-32 69 -37 91 -33 128 6 51 -35 269 -74 392 -13 44 -23 81 -20 83 2
2 23 -40 46 -93 50 -118 171 -318 191 -318 21 0 39 59 39 128 1 70 -41 241
-115 469 -32 101 -54 185 -54 212 0 81 -20 143 -71 220 -63 95 -75 126 -51
126 9 0 32 -9 50 -20 18 -11 35 -20 37 -20 3 0 5 16 5 35 0 38 -21 86 -69 157
-42 62 -98 186 -116 253 -13 50 -13 79 -3 196 10 120 10 145 -5 204 -34 136
-93 238 -160 275 -97 54 -190 144 -270 260 -118 171 -153 238 -182 340 -45
160 -65 220 -120 350 -30 69 -56 137 -60 152 -5 18 -14 28 -25 28 -21 0 -35
-71 -25 -123 l6 -32 -20 32 c-12 19 -17 40 -14 54 4 15 0 27 -13 37 -18 13
-18 14 5 7 25 -8 26 -1 5 50 -7 18 -6 18 9 6 15 -12 18 -10 28 15 24 64 101
209 129 243 33 40 30 15 -4 -33 -19 -28 -19 -29 -1 -22 10 3 52 11 92 17 42 6
109 25 155 45 44 19 83 32 86 29 3 -3 -1 -5 -8 -5 -7 0 -11 -3 -8 -6 6 -6 44
13 66 33 7 7 17 13 22 13 5 0 62 52 127 116 64 64 142 130 173 148 183 107
569 245 970 345 189 47 279 74 390 116 47 18 127 45 178 60 160 47 545 201
702 280 276 139 566 318 850 523 85 62 231 168 324 235 93 67 210 156 260 197
511 422 678 542 947 675 164 81 418 176 572 215 43 11 147 29 230 41 129 18
180 21 337 16 182 -6 376 -31 490 -62 62 -17 120 -20 120 -6 0 23 -50 62 -110
86 -376 150 -918 164 -1480 40 -318 -70 -466 -131 -1185 -490 -590 -294 -823
-398 -1085 -483 -430 -140 -917 -217 -1350 -215 -305 2 -464 8 -625 25 -88 9
-169 16 -180 16 -11 0 -45 7 -75 16 -30 9 -64 15 -75 15 -16 -1 -15 -2 5 -8
14 -4 25 -13 25 -21 0 -8 24 -21 59 -31 32 -10 63 -22 69 -28 5 -5 -25 1 -67
15 -91 29 -127 30 -71 3 22 -11 29 -17 15 -13 -14 3 -35 5 -47 5 -23 -1 -154
58 -182 82 -9 8 -23 17 -31 20 -35 13 17 6 64 -8 56 -17 69 -19 62 -6 -3 4
-34 14 -68 21 -35 6 -68 13 -75 15 -7 2 -10 -4 -8 -16 3 -16 0 -18 -22 -13
-20 5 -24 4 -19 -7 4 -8 1 -5 -6 5 -24 37 -57 66 -74 66 -16 0 -16 -1 -1 -18
10 -10 17 -24 17 -32 0 -7 -16 5 -35 26 -19 20 -38 34 -42 31 -4 -4 9 -23 27
-42 34 -36 32 -49 -2 -18 -19 17 -19 16 -13 -9 5 -21 3 -27 -12 -30 -14 -3
-11 -8 16 -28 27 -19 33 -20 28 -7 -7 19 8 23 19 5 4 -6 2 -14 -4 -16 -7 -2
-9 -8 -6 -14 21 -34 -54 35 -107 98 -63 76 -127 122 -219 158 -25 9 -78 35
-117 57 -76 41 -123 62 -123 54 0 -3 24 -18 53 -35 45 -26 48 -30 26 -30 -36
0 -95 25 -149 65 -25 17 -65 39 -90 47 -25 9 -76 28 -114 42 -70 26 -280 79
-366 92 -56 8 -45 -5 25 -31 27 -10 44 -20 37 -23 -7 -2 -42 10 -76 27 -35 17
-69 31 -75 31 -6 0 -10 5 -8 11 1 6 -14 17 -34 24 -41 15 -302 45 -364 43 -47
-2 -173 29 -196 48 -8 8 -30 17 -47 20 -18 4 -35 11 -38 15 -3 5 -17 9 -32 9
-21 0 -23 3 -12 10 15 9 3 16 -70 41 -83 28 -133 48 -121 49 39 1 -7 10 -119
25 -68 9 -127 18 -132 21 -5 3 -70 12 -146 19 -164 17 -411 19 -467 4 -22 -6
-107 -13 -190 -15 -243 -6 -317 -13 -540 -49 -29 -4 -150 -30 -209 -44 -32 -7
-48 -31 -22 -31 9 0 16 -4 16 -10 0 -13 -6 -13 -30 0 -15 8 -18 7 -14 -3 6
-15 -27 -26 -59 -19 -24 5 -15 28 9 25 18 -3 18 -3 0 10 -75 50 -99 74 -136
134 -23 37 -38 57 -34 43 10 -37 29 -73 74 -136 22 -31 37 -61 34 -66 -8 -13
-64 54 -59 69 2 7 -1 15 -7 19 -7 5 -8 2 -3 -7 5 -8 -11 2 -36 22 l-44 36 2
-41 3 -41 -15 30 c-8 17 -14 38 -15 48 0 26 -20 10 -20 -16 0 -13 20 -58 45
-101 25 -44 45 -84 45 -90 -1 -6 -9 5 -19 24 -11 20 -31 47 -46 62 -16 16 -32
49 -40 80 -21 87 -26 120 -15 113 13 -8 13 34 -1 74 -21 58 -1 44 35 -25 19
-38 35 -64 35 -59 2 28 -23 87 -49 120 -16 20 -37 55 -47 77 l-18 41 -5 -29
c-5 -28 -6 -27 -22 20 -12 36 -14 55 -6 69 5 11 7 40 3 70 -4 29 -9 79 -10
112 -3 77 -33 171 -63 199 -25 23 -62 88 -62 108 1 7 10 2 21 -12 l21 -24 -6
39 c-6 39 -5 39 22 -19 45 -91 49 -49 6 53 -21 49 -41 88 -45 85 -4 -2 -10 2
-12 8 -3 7 -6 0 -7 -17 -1 -16 -4 -23 -7 -15 -2 8 -7 22 -10 30 -3 8 -7 22 -9
30 -2 8 -9 19 -17 25 -7 5 -20 21 -27 35 -12 22 -12 24 3 12 13 -11 16 -10 19
10 3 20 6 18 33 -23 56 -87 56 -87 49 -59 -9 32 -74 131 -84 125 -10 -6 -103
73 -118 101 -7 13 -15 24 -18 24 -3 0 -2 -5 2 -12 5 -7 3 -8 -5 -4 -7 5 -10
10 -7 13 15 15 -113 109 -136 100 -9 -3 -6 -7 7 -13 27 -11 96 -66 90 -72 -3
-3 8 -13 24 -23 32 -19 59 -59 41 -59 -6 0 -2 -12 7 -27 25 -38 -1 -20 -29 20
-19 28 -20 30 -3 17 20 -14 20 -14 1 8 -20 23 -32 30 -21 12 9 -15 -11 -12
-24 3 -6 8 -12 24 -13 38 -2 13 -14 32 -28 41 -29 21 -54 24 -45 6 4 -7 -9 3
-27 23 -46 49 -125 95 -189 109 -57 12 -136 49 -107 50 9 0 20 -4 23 -10 3 -5
21 -10 38 -10 18 0 43 -6 57 -13 14 -8 36 -16 49 -20 l23 -6 -22 21 c-20 19
-73 43 -139 63 -17 5 -21 4 -16 -5 4 -6 -19 3 -50 19 -32 17 -67 31 -79 30
-18 0 -17 -2 7 -11 15 -5 27 -14 27 -19 0 -6 4 -8 9 -5 5 3 21 0 36 -8 43 -22
15 -25 -45 -5 -130 45 -188 52 -394 52 -130 -1 -194 3 -185 9 10 7 5 8 -16 4
-65 -13 -130 -17 -109 -7 29 13 176 30 208 24 36 -7 180 19 163 29 -20 13
-109 10 -101 -4 5 -8 2 -9 -10 -5 -10 4 -27 8 -39 8 -12 1 1 7 28 14 l50 12
-62 -1 c-35 0 -107 -9 -160 -19z m-390 -134 c-7 -2 -21 -2 -30 0 -10 3 -4 5
12 5 17 0 24 -2 18 -5z m-263 -83 c0 -5 -4 -10 -9 -10 -6 0 -13 5 -16 10 -3 6
1 10 9 10 9 0 16 -4 16 -10z m1669 -143 c4 -10 10 -18 14 -18 4 1 26 -17 49
-39 23 -22 37 -40 32 -40 -6 0 -23 13 -39 30 -15 16 -31 27 -35 25 -4 -2 -31
18 -60 45 l-53 50 42 -17 c24 -9 46 -25 50 -36z m11 -103 c0 -3 -7 -1 -15 6
-8 7 -15 17 -15 22 0 5 7 3 15 -6 8 -8 15 -18 15 -22z m110 26 c0 -5 16 -28
36 -50 37 -41 36 -53 -2 -22 -26 20 -59 82 -44 82 5 0 10 -4 10 -10z m-40 -45
c24 -25 40 -45 34 -45 -5 0 -30 20 -54 45 -24 25 -40 45 -34 45 5 0 30 -20 54
-45z m-3232 14 c26 -1 38 -4 27 -6 -11 -3 -25 -9 -31 -14 -13 -11 -74 8 -74
23 0 6 7 7 16 4 9 -3 37 -7 62 -7z m3332 -98 c0 -11 -4 -10 -15 5 -8 10 -14
26 -14 34 0 11 3 10 14 -4 8 -11 15 -27 15 -35z m-3560 -7 c0 -2 -12 -4 -27
-4 -21 0 -24 3 -14 9 13 8 41 5 41 -5z m3664 -61 c9 -25 14 -49 11 -51 -6 -6
-35 62 -35 83 0 26 8 16 24 -32z m-185 -34 c7 -22 10 -43 8 -45 -8 -9 -47 63
-47 86 0 34 24 9 39 -41z m219 -70 c-3 -8 -7 -3 -11 10 -4 17 -3 21 5 13 5 -5
8 -16 6 -23z m-68 -32 c0 -12 0 -11 -24 28 l-17 30 20 -24 c12 -13 21 -28 21
-34z m58 -13 c10 6 32 -44 32 -73 0 -9 9 -22 20 -29 14 -8 20 -23 20 -46 0
-26 4 -33 17 -32 13 1 20 -10 26 -44 4 -25 12 -60 17 -77 9 -37 4 -42 -16 -15
-12 15 -13 14 -4 -11 13 -37 13 -56 -1 -37 -8 12 -9 9 -4 -10 4 -14 9 -54 11
-90 l4 -65 -20 70 c-11 39 -23 111 -26 160 -6 84 -22 149 -24 100 l-1 -20 -9
20 c-5 11 -9 34 -9 52 -1 17 -8 38 -16 47 -16 16 -37 62 -49 106 -7 23 -6 24
8 6 8 -10 19 -15 24 -12z m-42 -64 c16 0 18 -18 5 -38 -6 -10 -11 -5 -20 19
-11 31 -14 56 -4 32 2 -7 11 -13 19 -13z m-46 -70 c6 -20 6 -30 1 -24 -11 10
-27 72 -17 63 4 -4 11 -21 16 -39z m-10 -84 c0 4 11 -3 25 -16 23 -22 32 -50
19 -62 -9 -9 -52 36 -64 67 -9 25 -9 26 5 15 8 -7 15 -9 15 -4z m103 -16 c3
-11 1 -18 -4 -14 -5 3 -9 12 -9 20 0 20 7 17 13 -6z m-43 -134 c0 -12 -5 -7
-19 24 -11 24 -11 24 3 6 9 -11 16 -24 16 -30z m3 -101 l6 -30 -14 30 c-8 17
-14 39 -14 50 l0 20 8 -20 c4 -11 11 -33 14 -50z m-39 -10 c4 -25 3 -34 -2
-25 -13 22 -24 87 -13 75 5 -6 11 -28 15 -50z m129 -10 c5 -28 4 -34 -3 -20
-8 19 -14 73 -6 64 2 -2 6 -22 9 -44z m10017 15 c0 -5 -7 -10 -16 -10 -8 0
-12 5 -9 10 3 6 10 10 16 10 5 0 9 -4 9 -10z m81 -17 c12 -15 12 -16 -5 -10
-12 5 -22 3 -27 -5 -4 -7 -11 -9 -14 -6 -7 7 15 37 26 38 4 0 13 -8 20 -17z
m-151 3 c0 -3 -4 -8 -10 -11 -5 -3 -10 -1 -10 4 0 6 5 11 10 11 6 0 10 -2 10
-4z m55 -6 c18 -8 17 -9 -7 -9 -15 -1 -30 4 -33 9 -7 12 12 12 40 0z m575 0
c-18 -12 -30 -13 -30 -2 0 4 10 9 22 9 18 2 20 0 8 -7z m-10841 -44 c-3 -3
-11 5 -18 17 -13 21 -12 21 5 5 10 -10 16 -20 13 -22z m10231 24 c0 -5 -4 -10
-10 -10 -5 0 -10 5 -10 10 0 6 5 10 10 10 6 0 10 -4 10 -10z m-10033 -32 c-3
-8 -6 -5 -6 6 -1 11 2 17 5 13 3 -3 4 -12 1 -19z m102 -43 l0 -20 -9 20 c-5
11 -9 27 -9 35 -1 13 0 13 9 0 5 -8 9 -24 9 -35z m108 -55 c12 0 14 -9 11 -42
-3 -24 -1 -55 3 -71 13 -45 -8 -21 -25 30 -14 41 -23 128 -9 96 2 -7 12 -13
20 -13z m-108 -50 c0 -10 -3 -8 -9 5 -12 27 -12 43 0 25 5 -8 9 -22 9 -30z
m58 -62 c-3 -8 -6 -5 -6 6 -1 11 2 17 5 13 3 -3 4 -12 1 -19z m-17 -67 c6 -30
8 -56 6 -58 -9 -10 -29 44 -33 86 -5 62 14 42 27 -28z m1580 -1 c-8 -5 -26
-10 -40 -10 -14 0 -32 5 -40 10 -11 7 1 10 40 10 39 0 51 -3 40 -10z m225 -10
c25 -11 -33 -11 -120 0 l-60 7 80 1 c44 0 89 -3 100 -8z m-3315 -29 c0 -5 -9
-7 -20 -4 -11 3 -20 7 -20 9 0 2 9 4 20 4 11 0 20 -4 20 -9z m2575 -1 c-28
-12 -88 -12 -80 0 3 6 27 10 53 9 35 0 42 -3 27 -9z m1065 -26 c17 -4 30 -10
30 -15 0 -13 -18 -10 -75 12 -50 19 -38 20 45 3z m-1851 -74 c21 -34 26 -50
17 -50 -17 0 -47 45 -51 76 -1 13 -1 24 1 24 1 0 16 -22 33 -50z m2246 -40 c3
-6 -1 -7 -9 -4 -18 7 -21 14 -7 14 6 0 13 -4 16 -10z m90 -60 c3 -5 -3 -10
-14 -10 -11 0 -23 5 -26 10 -3 6 3 10 14 10 11 0 23 -4 26 -10z m-2634 -57
c12 -21 29 -44 37 -51 12 -9 13 -15 5 -23 -9 -9 -20 5 -42 50 -35 68 -35 81 0
24z m-1200 -1 c-6 -2 -9 -8 -5 -13 3 -5 1 -9 -5 -9 -5 0 -13 5 -16 10 -3 6 -2
10 4 10 6 0 7 8 4 18 -6 15 -5 16 11 2 11 -8 14 -16 7 -18z m3889 7 c12 -7 11
-8 -5 -8 -11 0 -31 6 -45 14 l-25 15 30 -6 c17 -4 37 -10 45 -15z m448 -18
c16 -9 16 -10 0 -16 -10 -4 -46 2 -80 14 l-63 21 63 -5 c35 -3 71 -9 80 -14z
m-170 -11 c7 -11 8 -20 3 -20 -6 0 -13 5 -16 10 -4 6 -11 7 -17 4 -6 -4 -8 -2
-4 4 3 5 0 13 -6 15 -7 3 -4 6 7 6 11 1 26 -8 33 -19z m-58 -60 c13 -8 13 -10
-2 -10 -9 0 -20 5 -23 10 -8 13 5 13 25 0z m645 -26 c23 -11 25 -12 5 -7 -14
3 -36 7 -50 8 -47 4 -51 5 -45 15 7 11 44 4 90 -16z m-3598 -36 c-3 -8 -6 -5
-6 6 -1 11 2 17 5 13 3 -3 4 -12 1 -19z m3811 -33 c29 -9 52 -19 50 -21 -6 -5
-95 23 -116 36 -19 13 -14 12 66 -15z m-1013 -49 l27 -22 -23 -1 c-19 -2 -20
0 -9 7 12 8 11 10 -6 10 -12 0 -27 6 -33 13 -18 22 14 17 44 -7z m1102 18 c-3
-3 -12 -4 -19 -1 -8 3 -5 6 6 6 11 1 17 -2 13 -5z m-3557 -65 c0 -6 -4 -7 -10
-4 -5 3 -10 11 -10 16 0 6 5 7 10 4 6 -3 10 -11 10 -16z m3770 -38 c0 -10 53
-33 68 -29 5 2 31 -14 56 -35 25 -21 46 -34 46 -28 0 13 66 6 85 -9 9 -7 13
-15 10 -18 -2 -3 -11 1 -20 8 -22 18 -19 -3 5 -33 29 -37 25 -52 -7 -30 -16
10 -41 25 -58 33 -16 8 -49 32 -71 53 -23 22 -56 42 -74 46 -31 6 -76 51 -51
51 6 0 11 -4 11 -9z m-1320 -55 c0 -7 7 -19 15 -26 8 -7 15 -17 15 -23 0 -6
-11 4 -25 23 -28 38 -29 40 -15 40 6 0 10 -6 10 -14z m-2490 -111 c7 -9 8 -15
2 -15 -5 0 -12 7 -16 15 -3 8 -4 15 -2 15 2 0 9 -7 16 -15z m-23 -47 c-3 -8
-6 -5 -6 6 -1 11 2 17 5 13 3 -3 4 -12 1 -19z m4367 -13 c3 -8 1 -15 -4 -15
-6 0 -10 7 -10 15 0 8 2 15 4 15 2 0 6 -7 10 -15z m653 -41 c-3 -3 -12 -4 -19
-1 -8 3 -5 6 6 6 11 1 17 -2 13 -5z m-687 -25 c0 -6 -4 -7 -10 -4 -5 3 -10 11
-10 16 0 6 5 7 10 4 6 -3 10 -11 10 -16z m629 -5 c2 -2 -14 -4 -37 -4 -22 0
-43 4 -46 9 -6 8 73 3 83 -5z m947 5 c3 -6 17 -8 30 -5 18 5 22 3 18 -8 -6
-16 -44 -29 -44 -15 0 5 -10 9 -22 10 -13 0 -17 3 -10 6 6 2 10 9 6 14 -3 5
-1 9 5 9 5 0 13 -5 17 -11z m119 -9 c13 -5 14 -9 5 -9 -8 0 -24 4 -35 9 -13 5
-14 9 -5 9 8 0 24 -4 35 -9z m-38 -16 c-3 -3 -12 -4 -19 -1 -8 3 -5 6 6 6 11
1 17 -2 13 -5z m-5384 -957 c4 3 7 -1 7 -10 0 -20 -11 -22 -28 -5 -16 16 -15
33 1 19 8 -6 17 -8 20 -4z m327 -240 c0 -20 0 -20 -15 -1 -20 27 -20 51 0 34
8 -7 15 -22 15 -33z m162 -39 c-6 -6 -16 -7 -22 -3 -9 6 -9 9 1 16 17 10 34 0
21 -13z m-1562 -194 c0 -2 -9 0 -20 6 -11 6 -20 13 -20 16 0 2 9 0 20 -6 11
-6 20 -13 20 -16z m4282 -386 c-7 -7 -12 -8 -12 -2 0 14 12 26 19 19 2 -3 -1
-11 -7 -17z m-1602 -268 c0 -5 -5 -10 -11 -10 -5 0 -7 5 -4 10 3 6 8 10 11 10
2 0 4 -4 4 -10z m-3 -26 c-3 -3 -12 -4 -19 -1 -8 3 -5 6 6 6 11 1 17 -2 13 -5z
m1398 -154 c3 -5 -1 -10 -10 -10 -9 0 -13 5 -10 10 3 6 8 10 10 10 2 0 7 -4
10 -10z m59 -145 c5 -22 4 -26 -4 -15 -5 8 -10 24 -10 34 0 26 6 18 14 -19z
m13 -147 c-2 -13 -4 -3 -4 22 0 25 2 35 4 23 2 -13 2 -33 0 -45z m-1444 -3385
c-7 -2 -21 -2 -30 0 -10 3 -4 5 12 5 17 0 24 -2 18 -5z m-43 -73 c0 -5 -7 -10
-15 -10 -8 0 -15 5 -15 10 0 6 7 10 15 10 8 0 15 -4 15 -10z m-433 -6 c-3 -3
-12 -4 -19 -1 -8 3 -5 6 6 6 11 1 17 -2 13 -5z m1458 -14 c3 -5 2 -10 -4 -10
-5 0 -13 5 -16 10 -3 6 -2 10 4 10 5 0 13 -4 16 -10z m-1188 -72 c-3 -8 -6 -5
-6 6 -1 11 2 17 5 13 3 -3 4 -12 1 -19z"/>
<path d="M3448 8734 c6 -3 10 -9 7 -13 -5 -9 124 -25 132 -17 2 2 -19 9 -49
15 -81 18 -104 22 -90 15z"/>
<path d="M3203 8723 c9 -2 25 -2 35 0 9 3 1 5 -18 5 -19 0 -27 -2 -17 -5z"/>
<path d="M3288 8703 c6 -2 18 -2 25 0 6 3 1 5 -13 5 -14 0 -19 -2 -12 -5z"/>
<path d="M3215 8690 c28 -12 47 -12 40 0 -3 6 -18 10 -33 9 -24 0 -25 -1 -7
-9z"/>
<path d="M3175 8680 c3 -5 14 -10 23 -10 15 0 15 2 2 10 -20 13 -33 13 -25 0z"/>
<path d="M3367 8680 c45 -4 93 -14 105 -22 13 -9 48 -19 78 -22 65 -8 53 3
-37 33 -46 15 -85 21 -145 20 l-83 -2 82 -7z"/>
<path d="M3540 8680 c14 -4 34 -8 45 -8 l20 -1 -20 9 c-11 5 -31 8 -45 8 l-25
0 25 -8z"/>
<path d="M3730 8640 c52 -43 83 -63 74 -49 -5 7 -9 18 -9 23 0 5 -20 17 -45
28 l-45 18 25 -20z"/>
<path d="M3670 8599 c36 -18 74 -31 84 -31 11 1 27 -3 38 -9 10 -5 18 -7 18
-5 0 11 -95 60 -119 62 -14 1 -39 5 -56 8 -18 4 -4 -6 35 -25z"/>
<path d="M1785 8519 c-61 -34 -135 -74 -165 -90 -30 -16 -48 -29 -40 -29 8 1
87 41 175 90 88 50 155 90 150 90 -6 0 -60 -28 -120 -61z"/>
<path d="M3870 8570 c0 -6 5 -10 10 -10 6 0 10 -6 10 -14 0 -8 13 -24 30 -36
35 -25 60 -18 34 11 -23 25 -84 61 -84 49z"/>
<path d="M3850 8510 c0 -5 5 -10 11 -10 5 0 7 5 4 10 -3 6 -8 10 -11 10 -2 0
-4 -4 -4 -10z"/>
<path d="M4056 8429 c17 -19 46 -56 65 -84 44 -65 159 -301 163 -334 3 -24 27
-112 47 -171 7 -20 8 -18 3 10 -2 19 -10 54 -16 78 -16 62 -3 62 20 0 23 -62
37 -152 22 -143 -6 3 -10 4 -10 1 0 -11 41 -98 45 -95 7 7 -16 138 -42 239
-26 99 -118 305 -172 383 -32 47 -123 139 -144 146 -7 2 2 -12 19 -30z"/>
<path d="M4020 8402 l11 -23 -27 18 -27 18 16 -26 c9 -14 31 -36 49 -49 l33
-24 -18 29 c-12 20 -6 16 21 -14 21 -24 44 -42 50 -40 7 2 -17 33 -54 69 -36
36 -61 55 -54 42z"/>
<path d="M1523 8393 c9 -2 23 -2 30 0 6 3 -1 5 -18 5 -16 0 -22 -2 -12 -5z"/>
<path d="M4353 7655 c15 -56 19 -65 28 -65 5 0 2 17 -6 37 -18 42 -30 58 -22
28z"/>
<path d="M4396 7595 c-6 -31 -4 -42 14 -59 l22 -21 -7 45 c-11 67 -21 79 -29
35z"/>
<path d="M4363 7538 c4 -7 22 -50 40 -96 41 -98 47 -107 37 -51 -9 47 -60 159
-74 159 -4 0 -6 -6 -3 -12z"/>
<path d="M4336 7443 c-4 -9 -2 -21 4 -27 7 -7 10 -2 10 17 0 31 -5 34 -14 10z"/>
<path d="M4401 7364 c0 -11 3 -14 6 -6 3 7 2 16 -1 19 -3 4 -6 -2 -5 -13z"/>
<path d="M4512 7110 c9 -27 28 -50 28 -35 0 9 -30 65 -35 65 -2 0 1 -14 7 -30z"/>
<path d="M6730 7011 c8 -5 36 -13 63 -16 27 -4 51 -13 53 -20 13 -34 198 -95
285 -94 l54 0 -46 19 c-25 10 -64 22 -85 26 -21 4 -41 10 -44 13 -6 8 -209 67
-260 75 -24 4 -30 3 -20 -3z"/>
<path d="M2940 6952 c0 -4 19 -25 42 -47 l41 -40 -27 42 c-25 38 -56 63 -56
45z"/>
<path d="M8020 6685 c0 -2 14 -10 31 -19 33 -17 108 -33 98 -22 -7 8 -129 46
-129 41z"/>
<path d="M8725 6330 c3 -5 8 -10 11 -10 2 0 4 5 4 10 0 6 -5 10 -11 10 -5 0
-7 -4 -4 -10z"/>
<path d="M9140 6300 c0 -5 7 -7 15 -4 8 4 15 8 15 10 0 2 -7 4 -15 4 -8 0 -15
-4 -15 -10z"/>
<path d="M9108 6273 c6 -2 10 -9 7 -14 -4 -5 1 -6 10 -2 13 5 14 7 3 14 -7 5
-17 8 -23 8 -5 0 -4 -3 3 -6z"/>
<path d="M5770 4051 c0 -5 5 -13 10 -16 6 -3 10 -2 10 4 0 5 -4 13 -10 16 -5
3 -10 2 -10 -4z"/>
<path d="M7966 73 c-3 -7 -2 -13 3 -13 5 0 14 6 20 13 8 10 7 14 -4 14 -8 0
-16 -6 -19 -14z"/>
</g>
</svg>
