<?xml version="1.0" standalone="no"?>
<!DOCTYPE svg PUBLIC "-//W3C//DTD SVG 20010904//EN"
 "http://www.w3.org/TR/2001/REC-SVG-20010904/DTD/svg10.dtd">
<svg version="1.0" xmlns="http://www.w3.org/2000/svg"
 width="1536.000000pt" height="873.000000pt" viewBox="0 0 1536.000000 873.000000"
 preserveAspectRatio="xMidYMid meet">
<metadata>
Created by potrace 1.16, written by Peter Selinger 2001-2019
</metadata>
<g transform="translate(0.000000,873.000000) scale(0.100000,-0.100000)"
fill="#000000" stroke="none">
<path d="M2575 8713 c-115 -24 -223 -71 -266 -114 -22 -22 -46 -39 -54 -39 -8
0 -41 14 -74 31 -118 62 -177 48 -249 -58 -61 -90 -60 -90 -127 -33 -68 57
-111 75 -167 67 -72 -10 -101 -51 -136 -198 -34 -143 -44 -218 -51 -384 l-6
-160 -44 4 c-25 1 -99 11 -165 22 -250 40 -289 43 -384 32 -66 -7 -97 -16
-117 -31 -16 -13 -42 -22 -61 -22 -69 0 -133 -21 -159 -51 -33 -40 -42 -82
-51 -220 l-7 -116 -71 3 c-39 2 -117 5 -173 7 l-102 4 -45 -98 c-67 -144 -70
-175 -62 -649 4 -223 11 -425 15 -449 23 -115 146 -174 290 -137 34 9 74 16
87 16 60 0 108 -47 203 -197 29 -46 66 -94 81 -107 33 -27 173 -96 196 -96 9
0 43 15 77 34 80 44 156 66 229 66 120 0 198 73 198 185 l0 44 293 3 292 3 75
39 c89 46 153 88 197 129 41 39 60 34 165 -46 126 -96 203 -137 451 -241 248
-105 367 -162 437 -209 68 -47 207 -184 255 -252 84 -119 248 -529 269 -675
31 -202 60 -287 151 -435 34 -55 85 -145 115 -200 29 -55 88 -154 130 -220 42
-66 98 -160 124 -210 26 -49 92 -153 147 -230 155 -217 165 -240 173 -365 12
-189 36 -383 57 -467 11 -46 71 -212 133 -370 63 -159 146 -378 185 -488 40
-110 101 -259 137 -332 68 -139 83 -201 84 -334 0 -161 -41 -257 -169 -392
-81 -86 -83 -90 -78 -129 6 -47 49 -98 82 -98 12 0 38 -11 57 -24 43 -29 80
-41 182 -61 52 -10 93 -24 119 -42 38 -26 48 -28 161 -31 139 -4 286 15 391
51 l70 24 3 280 2 280 70 7 c110 11 163 31 203 75 20 22 39 57 44 78 12 58 8
165 -11 295 l-17 116 24 69 c14 37 56 145 95 238 77 189 195 498 279 735 71
198 120 296 174 344 40 37 44 38 93 32 28 -3 204 -24 391 -46 187 -22 374 -45
415 -50 181 -25 1872 -40 2295 -20 162 7 235 16 385 45 207 41 391 55 438 36
31 -13 53 -54 105 -192 33 -88 50 -120 109 -208 115 -169 139 -259 208 -766
103 -763 120 -952 101 -1090 -22 -159 -58 -222 -185 -331 -81 -69 -112 -118
-100 -157 11 -36 44 -77 87 -108 35 -25 49 -29 110 -29 65 0 76 -3 139 -41 86
-52 115 -58 274 -59 310 0 742 37 784 69 35 25 36 87 10 380 -34 393 -62 568
-103 646 -19 37 -22 60 -25 277 -4 259 4 359 43 487 35 119 61 244 90 446 48
328 133 679 192 787 15 27 29 48 33 48 4 0 19 -31 34 -68 35 -92 131 -236 329
-499 90 -120 202 -270 250 -333 47 -63 129 -164 182 -225 54 -60 158 -191 233
-290 177 -234 288 -374 412 -520 153 -181 155 -186 153 -268 -1 -38 -8 -78
-15 -89 -7 -10 -40 -34 -72 -51 -80 -43 -101 -73 -100 -145 0 -68 23 -116 64
-137 50 -26 189 -54 325 -66 220 -19 483 6 592 56 44 20 53 29 62 62 15 54 37
238 66 542 l26 263 -133 137 c-258 263 -358 395 -358 470 0 40 21 49 64 26
l34 -18 73 40 c111 61 114 68 114 231 -1 164 -6 184 -115 442 l-79 185 -11
490 c-17 767 -28 907 -105 1340 -24 138 -70 414 -100 615 -111 724 -147 847
-295 1004 -93 98 -419 376 -524 448 -160 107 -302 169 -776 338 -480 171 -638
230 -805 300 -88 38 -232 98 -320 134 -88 37 -205 89 -260 116 -55 27 -149 65
-210 85 -300 97 -954 231 -1366 279 -226 27 -538 38 -1044 40 -408 1 -532 -2
-675 -16 -196 -20 -457 -33 -950 -48 -335 -10 -646 -25 -750 -35 -201 -21
-721 -117 -1075 -200 -260 -61 -344 -69 -795 -80 -335 -8 -529 4 -630 41 -267
96 -660 353 -1150 754 -232 189 -243 198 -291 220 -53 24 -152 25 -254 3z
m11656 -3512 c62 -41 192 -177 218 -228 66 -131 125 -500 166 -1043 9 -113 29
-313 45 -445 38 -311 54 -523 47 -660 -4 -103 -7 -115 -45 -194 -23 -45 -44
-104 -47 -130 -10 -75 -15 -91 -28 -91 -60 0 -250 352 -417 772 l-93 233 6
400 c3 220 11 456 16 525 6 69 20 274 31 455 23 375 30 435 49 435 4 0 28 -13
52 -29z"/>
</g>
</svg>
