<?xml version="1.0" standalone="no"?>
<!DOCTYPE svg PUBLIC "-//W3C//DTD SVG 20010904//EN"
 "http://www.w3.org/TR/2001/REC-SVG-20010904/DTD/svg10.dtd">
<svg version="1.0" xmlns="http://www.w3.org/2000/svg"
 width="1536.000000pt" height="515.000000pt" viewBox="0 0 1536.000000 515.000000"
 preserveAspectRatio="xMidYMid meet">
<metadata>
Created by potrace 1.16, written by Peter Selinger 2001-2019
</metadata>
<g transform="translate(0.000000,515.000000) scale(0.100000,-0.100000)"
fill="#000000" stroke="none">
<path d="M1445 5130 c-9 -10 -22 -18 -27 -17 -6 1 -45 -63 -88 -143 -86 -163
-291 -503 -323 -537 -11 -13 -27 -23 -34 -23 -8 0 -11 -5 -8 -12 4 -7 0 -5 -8
5 -13 16 -15 16 -21 1 -3 -9 -3 -21 0 -27 3 -7 -2 -3 -10 7 -16 19 -16 19 -16
-2 0 -20 -3 -21 -21 -12 -32 18 -35 3 -6 -24 15 -14 27 -28 27 -32 0 -4 -10 2
-23 14 -30 28 -44 16 -16 -14 l21 -22 -26 2 c-15 2 -23 -1 -19 -7 4 -7 -1 -8
-13 -3 -33 14 -49 12 -46 -6 3 -19 -14 -33 -23 -18 -3 5 -11 10 -17 10 -6 0
-3 -9 7 -20 19 -21 7 -28 -13 -8 -7 7 -12 8 -12 3 0 -5 -7 0 -15 11 -8 11 -14
14 -15 6 0 -9 -8 -8 -27 5 -28 17 -28 17 -10 -3 9 -11 14 -24 10 -28 -4 -4 0
-4 9 -1 9 4 18 2 22 -3 3 -5 -10 -8 -29 -7 -19 0 -35 0 -35 -2 0 -1 12 -9 28
-17 l27 -16 -40 6 c-36 5 -38 5 -25 -11 15 -19 13 -19 -80 2 l-25 6 25 -25
c14 -13 34 -28 45 -32 16 -7 17 -9 5 -13 -46 -14 -46 -14 -21 -34 18 -14 19
-19 7 -19 -9 0 -17 1 -19 3 -6 5 -35 -28 -30 -35 2 -5 -6 -8 -19 -9 -13 0 -17
-3 -11 -6 37 -14 7 -41 -125 -112 -310 -167 -382 -249 -382 -433 0 -71 19
-128 43 -128 6 0 25 -16 40 -35 31 -39 52 -46 44 -14 l-6 21 23 -21 c36 -34
47 -26 26 21 -28 63 -11 77 37 32 59 -54 78 -52 48 6 -19 37 -15 37 35 4 39
-26 67 -27 42 -2 -28 28 -11 36 24 13 52 -35 71 -33 44 5 -26 37 -22 37 26 5
20 -14 41 -25 45 -25 14 0 10 22 -8 42 -26 29 -7 33 27 5 31 -27 68 -43 77
-33 3 2 -4 18 -16 34 -12 17 -21 33 -21 36 0 12 26 5 50 -14 14 -11 35 -20 48
-20 l23 0 -21 30 -21 29 26 7 c15 4 31 2 38 -5 6 -6 20 -11 30 -11 16 0 17 3
7 15 -10 12 -10 15 3 15 9 0 19 -4 22 -10 3 -5 16 -10 27 -10 20 0 20 1 5 18
-36 39 -13 56 47 36 49 -18 49 -18 35 8 -10 18 -9 20 5 15 18 -7 21 4 5 20
-18 18 8 26 47 13 38 -13 55 -7 36 12 -21 21 -13 29 24 22 33 -6 36 -5 30 14
-6 17 0 25 33 42 50 25 63 25 86 0 18 -20 18 -21 -11 -51 -16 -17 -60 -53 -99
-80 -79 -55 -87 -65 -151 -166 -25 -40 -50 -73 -55 -73 -5 0 -9 -9 -9 -21 0
-15 -5 -19 -19 -14 -15 5 -18 1 -13 -20 5 -31 -17 -34 -36 -5 -18 30 -35 14
-29 -26 6 -38 -6 -45 -25 -14 -20 32 -31 23 -24 -19 8 -50 -8 -61 -29 -21 -22
42 -39 28 -31 -26 7 -57 -7 -64 -46 -22 l-31 33 6 -35 c3 -19 7 -44 9 -54 5
-29 -16 -29 -51 0 -18 14 -34 24 -38 21 -3 -4 4 -25 15 -49 12 -23 19 -44 16
-47 -2 -3 -25 5 -49 17 -54 26 -59 13 -12 -36 l32 -34 -40 7 -40 7 24 -26 c27
-29 25 -31 -13 -16 -38 14 -32 -1 16 -45 l42 -38 72 6 c94 8 107 14 194 87
314 262 390 310 496 310 33 0 64 3 68 7 7 8 20 10 89 20 26 3 45 8 42 11 -8 8
133 53 200 63 33 5 94 15 135 23 66 13 87 13 178 -1 87 -13 112 -21 153 -49
27 -19 53 -34 58 -34 15 0 74 -72 101 -122 13 -26 34 -51 46 -56 24 -11 90
-88 153 -177 23 -33 45 -60 49 -61 85 -10 213 -102 382 -274 122 -125 155
-152 212 -179 37 -17 69 -35 72 -39 2 -4 -2 -25 -10 -47 -9 -27 -11 -46 -5
-60 6 -11 12 -36 15 -55 3 -19 10 -64 16 -100 6 -36 15 -105 20 -155 39 -395
44 -424 85 -511 40 -83 111 -167 166 -194 21 -11 41 -20 44 -20 2 0 -12 21
-32 47 -59 78 -105 184 -111 258 -4 62 -4 65 17 65 12 0 33 11 46 25 29 28 34
88 11 138 -12 28 -29 167 -20 167 2 0 19 -29 39 -63 23 -43 35 -77 35 -103 0
-22 4 -44 8 -49 5 -6 14 -30 21 -55 7 -25 19 -52 26 -60 11 -14 23 -39 54
-113 6 -15 11 -53 11 -84 0 -48 4 -61 26 -85 16 -16 38 -62 55 -113 15 -47 35
-97 44 -111 13 -21 14 -31 6 -56 -16 -45 -14 -52 11 -36 20 13 24 11 71 -36
56 -58 75 -49 33 15 -44 66 -47 82 -26 136 10 26 21 56 24 66 5 17 7 17 38 1
62 -31 68 -42 62 -99 -11 -89 24 -165 76 -165 21 0 32 -9 51 -42 21 -37 24
-56 24 -139 0 -112 9 -118 51 -33 14 30 28 54 29 54 2 0 9 -24 15 -53 13 -63
54 -115 76 -96 10 8 14 8 14 0 0 -6 7 -11 15 -11 8 0 15 5 15 10 0 6 4 10 9
10 8 0 25 -57 22 -74 -1 -5 6 -6 15 -2 18 7 47 -11 38 -25 -3 -5 2 -9 10 -9 9
0 16 6 17 13 0 6 4 3 9 -8 6 -16 9 -17 13 -5 2 8 15 47 28 87 20 61 27 72 50
77 19 4 31 16 43 46 9 22 16 47 16 55 0 39 113 -4 155 -59 36 -47 29 -92 -18
-121 -25 -16 -33 -28 -35 -56 -3 -31 2 -41 31 -65 25 -22 36 -40 41 -71 6 -39
4 -43 -16 -47 -61 -13 -244 -26 -372 -26 -169 0 -230 -10 -311 -49 -61 -30
-124 -85 -112 -98 4 -3 23 1 42 10 44 21 44 21 38 -3 -7 -25 3 -25 69 1 51 20
54 20 83 3 26 -16 51 -18 205 -15 96 2 312 4 480 5 274 1 308 3 338 19 18 10
36 26 39 35 11 33 66 152 70 152 2 0 16 -13 30 -30 37 -44 53 -40 41 10 -12
46 -4 90 17 90 8 0 22 11 32 25 10 14 42 49 71 78 93 90 194 247 194 300 0 20
-19 72 -47 128 -43 85 -48 102 -53 179 -6 116 11 249 40 300 51 92 58 105 61
113 3 9 107 -33 264 -109 115 -55 133 -62 283 -107 87 -26 281 -61 405 -73
125 -12 432 -110 523 -168 23 -14 51 -48 75 -88 20 -35 56 -80 80 -100 49 -41
111 -158 121 -230 4 -26 16 -58 26 -71 23 -29 17 -37 -22 -37 -38 0 -88 48
-88 85 0 58 -56 122 -146 166 -41 20 -64 24 -144 24 -87 0 -101 -3 -161 -32
-62 -31 -118 -77 -107 -88 3 -3 35 6 72 20 71 27 152 33 189 14 39 -20 87 -72
87 -95 0 -12 -7 -27 -15 -34 -8 -7 -15 -27 -15 -46 0 -40 29 -70 80 -84 25 -7
44 -21 61 -47 31 -48 68 -66 149 -71 48 -3 79 1 118 16 l52 20 0 -52 c0 -40
-7 -62 -29 -98 -47 -74 -63 -80 -223 -89 -80 -5 -161 -15 -189 -24 -78 -26
-168 -99 -169 -137 0 -23 8 -22 45 2 36 24 49 25 41 4 -12 -31 6 -33 55 -8 27
15 70 29 94 31 37 5 43 3 42 -13 -3 -29 64 -47 153 -40 41 4 107 8 146 10 137
6 250 85 304 214 19 44 28 81 25 93 -4 11 -1 27 6 36 7 8 14 45 16 82 1 36 7
84 12 106 24 94 11 122 -69 150 -56 19 -116 59 -129 83 -9 18 -6 19 42 19 51
-1 117 24 117 43 0 5 -13 7 -29 4 -41 -9 -91 11 -134 51 -24 22 -47 35 -65 35
-35 0 -55 35 -128 218 -62 156 -88 189 -179 232 -99 46 -192 112 -245 175 -27
32 -50 64 -51 70 -2 27 -9 44 -43 95 -24 36 -35 62 -31 76 3 13 -2 27 -10 34
-9 7 -13 20 -10 29 3 10 -6 23 -24 36 -25 16 -27 21 -14 30 19 14 12 19 -77
66 -35 19 -70 39 -77 45 -7 7 -40 15 -73 19 -33 4 -60 8 -60 8 0 1 7 24 15 52
9 27 18 70 20 95 11 104 14 112 41 107 23 -4 24 -3 18 49 -4 30 -4 54 -1 54 3
0 18 -20 34 -45 15 -25 31 -45 36 -45 4 0 7 15 7 33 l1 32 16 -30 c19 -36 14
-31 42 -40 23 -7 24 -7 16 50 -4 32 -9 65 -13 74 -5 14 -2 13 15 -1 11 -11 36
-18 58 -18 l39 0 -35 37 c-34 36 -34 36 -4 17 28 -19 75 -22 75 -5 0 4 -12 18
-26 32 -31 29 -54 66 -32 53 7 -5 15 -9 18 -10 3 0 24 -6 48 -13 52 -15 89 -7
71 15 -9 11 -6 14 17 14 28 0 54 11 57 23 1 3 -7 12 -17 20 -18 13 -17 14 15
21 l34 8 -39 12 c-22 6 -41 17 -44 25 -3 10 0 12 12 8 42 -17 129 -17 226 -2
58 9 144 20 193 25 48 5 96 14 106 20 11 5 40 10 65 10 62 0 233 26 326 50 41
10 154 37 250 60 96 22 189 45 205 50 17 5 57 16 90 25 311 79 426 114 502
155 21 11 45 20 54 20 13 0 162 48 304 98 17 6 75 21 130 33 55 12 136 35 180
50 44 15 114 35 155 44 69 15 127 29 285 70 33 8 89 22 125 30 36 9 101 27
145 40 44 13 100 26 125 30 25 3 65 13 90 20 25 8 95 21 155 30 138 19 334 50
445 70 199 36 448 67 507 63 29 -2 54 1 56 6 1 4 39 -1 82 -13 44 -12 100 -26
125 -31 25 -5 65 -16 89 -24 24 -9 53 -16 65 -16 11 0 44 -9 72 -19 28 -11 70
-22 95 -25 24 -3 59 -13 78 -22 20 -10 76 -21 135 -26 190 -16 241 -24 276
-43 26 -14 56 -20 115 -21 44 0 97 -6 117 -13 21 -7 68 -11 105 -10 37 1 98
-1 134 -6 43 -5 78 -4 101 4 29 10 46 8 103 -10 37 -11 95 -21 128 -22 54 -2
62 1 80 24 l19 27 62 -29 c63 -29 180 -54 200 -42 6 4 52 6 103 5 76 -2 99 1
132 17 36 19 42 19 75 6 24 -10 71 -15 146 -15 99 0 112 2 131 21 21 21 25 22
183 11 154 -9 256 -5 284 11 23 15 13 54 -22 85 l-33 29 91 -5 c95 -5 222 10
265 31 15 7 26 21 26 32 0 40 -68 62 -455 150 -91 20 -228 54 -305 76 -156 42
-319 79 -505 115 -121 23 -158 31 -341 73 -179 42 -452 71 -754 81 -159 6
-402 15 -540 20 -314 13 -746 13 -890 0 -60 -5 -186 -12 -280 -15 -93 -4 -216
-13 -272 -20 -56 -8 -146 -15 -199 -16 -53 -1 -111 -5 -128 -10 -17 -5 -67
-14 -111 -19 -44 -5 -109 -15 -145 -21 -98 -17 -161 -25 -310 -43 -133 -15
-256 -36 -335 -56 -22 -5 -74 -10 -115 -10 -41 0 -91 -5 -110 -11 -19 -5 -100
-19 -180 -29 -223 -29 -409 -59 -470 -75 -30 -9 -111 -24 -180 -35 -69 -11
-147 -24 -175 -30 -145 -30 -221 -42 -440 -70 -219 -29 -255 -31 -415 -26 -96
4 -247 9 -335 11 -196 6 -421 24 -680 55 -116 14 -297 52 -405 85 -41 13 -91
27 -110 30 -19 4 -54 13 -78 21 -23 8 -62 14 -85 14 -24 0 -83 9 -133 20 -198
45 -544 107 -649 116 -22 2 -148 17 -280 34 -453 56 -639 65 -815 40 -172 -25
-394 -83 -583 -154 -112 -43 -313 -34 -431 18 -69 31 -146 99 -173 153 -12 25
-33 60 -47 78 -14 18 -22 35 -19 39 10 10 -36 55 -94 92 -29 19 -53 41 -53 49
0 8 -4 15 -8 15 -5 0 -28 18 -52 40 -24 22 -47 40 -52 40 -5 0 -7 4 -3 10 3 5
-8 16 -24 25 -17 8 -34 21 -38 28 -10 17 -78 53 -118 63 l-30 8 28 4 c15 2 27
7 27 12 0 12 -66 30 -110 30 -30 1 -32 2 -16 11 15 9 16 13 5 20 -8 5 -27 9
-42 9 -33 0 -107 32 -89 38 22 7 12 21 -20 30 l-33 8 30 17 c30 16 30 16 -49
17 l-79 0 29 26 29 26 -55 -6 -55 -6 33 16 c19 10 31 22 28 30 -3 7 0 15 7 18
22 9 -19 6 -49 -3 -16 -5 -42 -12 -58 -16 l-30 -6 25 20 24 20 -33 1 c-18 0
-42 -5 -53 -11 -20 -10 -20 -10 -3 16 24 37 12 41 -43 11 l-48 -26 47 45 c40
39 44 45 25 45 -12 0 -37 -9 -55 -20 l-33 -21 27 36 c15 20 24 38 21 41 -6 7
-65 -22 -89 -44 -22 -19 -24 -5 -2 19 9 10 14 24 12 31 -3 8 -32 -13 -78 -57
-56 -53 -67 -60 -44 -30 26 35 54 87 54 100 0 3 -7 5 -15 5 -15 0 -31 -12 -82
-60 -18 -17 -24 -20 -20 -8 11 30 19 88 13 88 -10 0 -50 -24 -59 -35 -4 -5 -5
26 -2 70 l6 80 -25 -30 c-26 -30 -31 -26 -27 18 3 23 -12 22 -34 -3z m-845
-1030 c8 -5 11 -10 5 -10 -5 0 -17 5 -25 10 -8 5 -10 10 -5 10 6 0 17 -5 25
-10z m4078 -2380 c70 -226 167 -362 372 -524 107 -85 202 -185 235 -249 l29
-54 -18 -59 c-10 -32 -25 -76 -34 -97 -19 -47 -160 -181 -266 -255 l-77 -53
-14 36 c-10 22 -13 49 -9 74 14 89 -46 210 -124 250 -47 24 -142 44 -190 39
-46 -4 -53 13 -11 27 17 6 37 19 45 30 17 23 18 87 2 103 -9 9 -7 17 11 36 19
21 22 36 25 135 3 71 8 117 17 127 10 12 10 28 -1 82 -7 37 -18 81 -25 97 -7
17 -9 39 -4 50 11 30 11 83 -1 90 -8 5 -7 11 1 21 16 20 4 90 -23 126 -17 25
-18 32 -7 39 30 19 44 4 67 -71z m-830 -447 c5 -24 8 -43 5 -43 -8 0 -42 84
-36 93 8 14 19 -4 31 -50z"/>
</g>
</svg>
