<?xml version="1.0" standalone="no"?>
<!DOCTYPE svg PUBLIC "-//W3C//DTD SVG 20010904//EN"
 "http://www.w3.org/TR/2001/REC-SVG-20010904/DTD/svg10.dtd">
<svg version="1.0" xmlns="http://www.w3.org/2000/svg"
 width="1536.000000pt" height="697.000000pt" viewBox="0 0 1536.000000 697.000000"
 preserveAspectRatio="xMidYMid meet">
<metadata>
Created by potrace 1.16, written by Peter Selinger 2001-2019
</metadata>
<g transform="translate(0.000000,697.000000) scale(0.100000,-0.100000)"
fill="#000000" stroke="none">
<path d="M14045 6963 c-310 -28 -581 -137 -775 -310 -200 -178 -464 -321 -830
-448 -263 -91 -337 -138 -380 -237 -25 -58 -37 -177 -26 -253 6 -40 16 -55 57
-94 28 -25 62 -51 77 -58 38 -17 264 -16 457 3 183 18 456 29 660 28 104 0
166 -6 240 -22 55 -12 145 -26 200 -32 142 -15 141 -14 159 -60 15 -37 15 -43
1 -71 -20 -38 -60 -62 -158 -95 -60 -20 -91 -25 -140 -21 -64 4 -207 27 -288
46 -179 41 -495 73 -1119 111 -179 12 -381 27 -450 35 -69 8 -201 22 -293 30
-93 8 -230 24 -305 36 -168 24 -571 56 -827 64 -222 7 -525 -16 -975 -75 -80
-10 -194 -24 -255 -30 -126 -13 -559 -82 -685 -110 -185 -41 -398 -66 -623
-75 -130 -5 -381 -29 -692 -66 -93 -11 -298 -31 -455 -44 -157 -14 -357 -34
-445 -45 -88 -11 -259 -31 -380 -45 -400 -45 -938 -147 -1115 -210 -25 -9 -92
-27 -150 -40 -147 -33 -378 -106 -558 -176 -83 -33 -167 -62 -185 -66 -17 -3
-84 -32 -147 -63 -63 -32 -164 -77 -225 -100 -284 -110 -445 -175 -495 -200
-30 -15 -93 -43 -140 -63 -47 -19 -128 -53 -180 -75 -52 -22 -106 -43 -120
-47 -14 -4 -55 -23 -92 -41 -38 -19 -90 -39 -117 -45 -29 -6 -105 -43 -190
-93 -78 -46 -162 -89 -188 -95 -51 -13 -182 -76 -255 -122 -26 -17 -83 -45
-126 -64 -111 -46 -156 -71 -194 -103 -18 -16 -67 -41 -108 -55 -47 -17 -113
-54 -175 -98 -55 -38 -126 -86 -158 -107 -31 -20 -104 -67 -161 -104 -69 -45
-123 -89 -162 -134 -33 -36 -114 -120 -181 -186 -137 -135 -183 -206 -183
-286 0 -41 -5 -50 -61 -110 -72 -76 -108 -148 -108 -212 0 -25 -4 -65 -10 -90
-15 -63 -13 -106 4 -120 8 -7 17 -28 21 -47 7 -35 48 -93 66 -93 6 0 31 -11
58 -24 64 -32 111 -38 200 -26 41 6 116 15 165 20 88 8 161 27 218 57 21 11
50 13 120 8 90 -6 94 -5 177 31 47 20 112 43 145 51 126 33 164 47 291 109 72
35 143 64 158 64 15 0 67 18 114 39 48 21 119 49 157 61 39 13 91 33 117 46
26 13 56 24 66 24 27 0 146 42 223 79 36 17 76 31 88 31 13 0 73 22 135 49 61
26 137 58 169 71 31 12 59 26 62 30 4 7 143 52 290 95 33 9 95 33 139 52 46
21 106 39 145 44 37 4 79 13 94 18 15 6 57 17 92 26 36 8 84 24 106 36 23 11
69 25 102 30 34 6 116 33 182 61 66 27 147 54 180 58 63 10 280 78 570 181 94
33 251 89 350 124 99 34 223 82 275 104 52 23 124 50 160 60 36 10 139 42 229
70 90 28 168 51 173 51 29 0 228 84 388 165 102 51 196 96 210 100 45 13 230
118 271 153 34 30 50 35 115 43 89 10 110 16 144 39 43 30 261 127 360 159 52
18 120 47 152 66 31 19 60 35 65 35 13 0 197 90 508 249 139 71 224 97 283 86
53 -10 107 -40 133 -75 13 -17 39 -48 57 -69 17 -21 32 -43 32 -49 0 -6 29
-40 65 -75 36 -36 71 -80 78 -98 15 -41 42 -87 82 -142 17 -23 39 -62 50 -87
10 -25 24 -52 31 -60 6 -8 36 -55 67 -105 30 -49 72 -106 91 -124 25 -24 36
-44 36 -63 0 -37 111 -186 163 -219 20 -13 59 -50 85 -81 26 -32 50 -58 54
-58 4 0 41 -34 82 -75 45 -45 93 -83 120 -95 25 -10 51 -29 58 -40 15 -24 97
-70 126 -70 11 0 35 -6 53 -14 40 -16 325 -76 364 -76 65 0 349 -113 512 -203
l92 -51 6 -58 c12 -103 8 -124 -40 -230 -57 -124 -105 -255 -105 -286 0 -25
38 -102 71 -143 l21 -27 -36 -88 c-20 -48 -66 -142 -103 -208 l-68 -121 2
-100 c1 -55 9 -127 17 -160 37 -139 98 -689 116 -1044 9 -176 12 -197 32 -228
39 -58 93 -76 240 -81 88 -3 132 -1 142 7 10 9 31 9 84 0 55 -9 90 -9 163 2
56 8 156 12 245 10 120 -2 158 0 188 13 21 9 51 16 66 16 26 0 27 1 20 47 -9
58 -46 93 -162 153 -78 41 -80 41 -152 35 -41 -4 -83 -4 -95 0 -21 6 -20 8 17
46 70 69 78 163 23 251 -66 106 -129 299 -117 361 9 46 56 87 100 87 39 0 108
-43 138 -86 l20 -29 -5 37 c-7 47 -50 134 -84 170 -40 42 -84 58 -160 58 -78
0 -129 -20 -187 -70 -56 -49 -79 -102 -84 -193 -4 -67 -1 -90 23 -162 27 -81
28 -88 16 -151 -12 -68 -35 -124 -50 -124 -14 0 -61 116 -76 187 -41 197 -46
596 -9 728 9 33 20 76 25 95 11 47 71 179 105 229 31 48 52 51 107 18 40 -24
157 -135 157 -148 0 -4 61 -81 136 -171 75 -90 144 -179 154 -199 10 -19 24
-64 30 -99 17 -91 32 -123 91 -185 l51 -54 7 -150 c5 -106 12 -155 22 -167 8
-10 64 -68 124 -129 110 -113 154 -145 197 -145 39 0 73 -24 78 -53 l5 -28 43
31 42 32 0 81 c0 100 -8 130 -72 280 -27 65 -52 136 -55 158 -3 23 4 90 17
158 22 109 25 119 54 138 17 12 64 28 105 37 118 26 188 77 207 151 4 15 13
35 20 44 8 9 31 41 51 71 68 97 144 128 227 92 50 -23 100 -84 116 -143 13
-47 -4 -130 -31 -155 -29 -26 -23 -37 11 -19 50 26 91 97 101 177 11 85 1 132
-38 189 -95 137 -230 209 -394 209 -121 0 -171 -15 -242 -71 -34 -27 -87 -68
-117 -91 -30 -22 -80 -64 -110 -93 -45 -42 -67 -55 -123 -70 l-68 -18 -45 44
c-62 60 -227 265 -506 632 -21 27 -38 55 -38 61 0 14 132 176 223 272 50 54
261 204 271 193 13 -15 36 -72 36 -90 0 -12 -18 -61 -40 -109 -72 -155 -141
-383 -156 -510 -6 -51 -4 -57 21 -82 41 -41 85 -51 194 -45 111 6 213 33 398
107 68 28 128 50 134 50 5 0 9 -10 9 -22 0 -24 34 -88 54 -100 16 -11 114 -10
121 2 3 5 -1 26 -10 46 -22 54 -19 76 21 128 28 37 166 142 217 164 4 2 7 -17
7 -42 0 -102 48 -156 139 -156 86 0 108 35 46 71 -19 12 -35 24 -35 29 0 4 16
24 35 44 19 21 35 44 35 52 0 7 33 44 72 81 169 158 198 190 204 221 5 27 12
32 43 38 156 26 262 116 356 304 54 107 60 141 45 228 -15 80 -6 108 38 118
46 11 79 32 144 91 35 30 88 72 118 91 30 20 81 53 114 74 32 21 63 38 70 38
6 0 31 20 56 45 25 25 61 49 82 55 41 12 154 126 182 185 9 19 20 37 25 39 5
3 12 21 15 39 4 19 19 54 35 78 16 24 34 63 41 87 6 24 18 46 26 49 7 3 14 10
14 16 0 43 39 131 77 174 24 26 43 56 43 67 0 11 36 89 81 175 132 255 236
533 285 766 33 155 44 564 19 726 -45 304 -207 598 -438 798 -130 113 -327
208 -487 237 -68 12 -276 16 -375 7z"/>
</g>
</svg>
